<?xml version="1.0" encoding="utf-8"?>
<!-- Generator: Adobe Illustrator 23.0.3, SVG Export Plug-In . SVG Version: 6.00 Build 0)  -->
<!DOCTYPE svg PUBLIC "-//W3C//DTD SVG 1.1//EN" "http://www.w3.org/Graphics/SVG/1.1/DTD/svg11.dtd" [
	<!ENTITY ns_extend "http://ns.adobe.com/Extensibility/1.0/">
	<!ENTITY ns_ai "http://ns.adobe.com/AdobeIllustrator/10.0/">
	<!ENTITY ns_graphs "http://ns.adobe.com/Graphs/1.0/">
	<!ENTITY ns_vars "http://ns.adobe.com/Variables/1.0/">
	<!ENTITY ns_imrep "http://ns.adobe.com/ImageReplacement/1.0/">
	<!ENTITY ns_sfw "http://ns.adobe.com/SaveForWeb/1.0/">
	<!ENTITY ns_custom "http://ns.adobe.com/GenericCustomNamespace/1.0/">
	<!ENTITY ns_adobe_xpath "http://ns.adobe.com/XPath/1.0/">
]>
<svg version="1.1" id="Calque_1" xmlns:x="&ns_extend;" xmlns:i="&ns_ai;" xmlns:graph="&ns_graphs;"
	 xmlns="http://www.w3.org/2000/svg" xmlns:xlink="http://www.w3.org/1999/xlink" x="0px" y="0px" viewBox="0 0 141.7 141.7"
	 style="enable-background:new 0 0 141.7 141.7;" xml:space="preserve">
<style type="text/css">
	.st0{fill:none;stroke:#000000;stroke-miterlimit:10;}
	.st1{fill:#1D1D1B;}
	.st2{font-family:'FuturaStd-Book';}
	.st3{font-size:11.0315px;}
	.st4{font-size:11.0321px;}
	.st5{font-size:11.0324px;}
	.st6{fill:#1D1D1B;stroke:#000000;stroke-miterlimit:10;}
</style>
<metadata>
	<sfw  xmlns="&ns_sfw;">
		<slices></slices>
		<sliceSourceBounds  bottomLeftOrigin="true" height="100.7" width="130.9" x="8.2" y="31.9"></sliceSourceBounds>
	</sfw>
</metadata>
<line class="st0" x1="8.2" y1="33" x2="128.2" y2="109.9"/>
<text transform="matrix(0.8491 0.5339 -0.5323 0.8466 20.0243 31.2812)" class="st1 st2 st3">Gauche</text>
<line class="st0" x1="9.9" y1="108.1" x2="131.5" y2="34.3"/>
<text transform="matrix(0.86 -0.5161 0.5146 0.8574 14.0985 97.6235)" class="st1 st2 st4">Bas</text>
<text transform="matrix(0.8515 -0.53 0.5284 0.849 99.0417 45.1343)" class="st1 st2 st5">Haut</text>
<text transform="matrix(0.8589 0.518 -0.5164 0.8563 100.042 84.1036)" class="st1 st2 st3">Droite</text>
<polygon class="st6" points="9.9,38.8 7.2,31.8 14.5,33 "/>
<path class="st6" d="M5.8,13.4"/>
<polygon class="st6" points="13.6,110.5 6.2,111.5 9.1,104.7 "/>
<polygon class="st6" points="132.8,37.9 128.2,32 135.5,31.1 "/>
<polygon class="st6" points="125.5,111.7 130.7,106.3 132.7,113.4 "/>
</svg>
