<?xml version="1.0" encoding="utf-8"?>
<!-- Generator: Adobe Illustrator 23.0.3, SVG Export Plug-In . SVG Version: 6.00 Build 0)  -->
<!DOCTYPE svg PUBLIC "-//W3C//DTD SVG 1.1//EN" "http://www.w3.org/Graphics/SVG/1.1/DTD/svg11.dtd" [
	<!ENTITY ns_extend "http://ns.adobe.com/Extensibility/1.0/">
	<!ENTITY ns_ai "http://ns.adobe.com/AdobeIllustrator/10.0/">
	<!ENTITY ns_graphs "http://ns.adobe.com/Graphs/1.0/">
	<!ENTITY ns_vars "http://ns.adobe.com/Variables/1.0/">
	<!ENTITY ns_imrep "http://ns.adobe.com/ImageReplacement/1.0/">
	<!ENTITY ns_sfw "http://ns.adobe.com/SaveForWeb/1.0/">
	<!ENTITY ns_custom "http://ns.adobe.com/GenericCustomNamespace/1.0/">
	<!ENTITY ns_adobe_xpath "http://ns.adobe.com/XPath/1.0/">
]>
<svg version="1.1" id="Calque_1" xmlns:x="&ns_extend;" xmlns:i="&ns_ai;" xmlns:graph="&ns_graphs;"
	 xmlns="http://www.w3.org/2000/svg" xmlns:xlink="http://www.w3.org/1999/xlink" x="0px" y="0px" viewBox="0 0 595.3 554.5"
	 style="enable-background:new 0 0 595.3 554.5;" xml:space="preserve">
<style type="text/css">
	.st0{fill:none;stroke:#000000;stroke-width:7;stroke-miterlimit:10;}
	.st1{stroke:#000000;stroke-miterlimit:10;}
</style>
<metadata>
	<sfw  xmlns="&ns_sfw;">
		<slices></slices>
		<sliceSourceBounds  bottomLeftOrigin="true" height="466.9" width="588.9" x="3.2" y="187.5"></sliceSourceBounds>
	</sfw>
</metadata>
<line class="st0" x1="60.3" y1="90.6" x2="571.2" y2="90.6"/>
<line class="st0" x1="549" y1="95.8" x2="549" y2="299.1"/>
<line class="st0" x1="60.3" y1="277.4" x2="571.2" y2="277.4"/>
<line class="st0" x1="61" y1="464.2" x2="570.4" y2="464.2"/>
<line class="st0" x1="47.2" y1="287.1" x2="47.2" y2="490.4"/>
<circle class="st1" cx="48.3" cy="90.6" r="44.6"/>
<circle class="st1" cx="49.9" cy="277.4" r="46.2"/>
<ellipse class="st1" cx="47.2" cy="463.2" rx="43.5" ry="43.5"/>
<circle class="st1" cx="300.3" cy="467.2" r="44.6"/>
<circle class="st1" cx="300.3" cy="273" r="44.6"/>
<circle class="st1" cx="300.3" cy="90.6" r="44.6"/>
<ellipse class="st1" cx="549" cy="464.2" rx="42.6" ry="42.6"/>
<ellipse class="st1" cx="549" cy="273" rx="42.6" ry="42.6"/>
<ellipse transform="matrix(0.3827 -0.9239 0.9239 0.3827 257.1113 561.8755)" class="st1" cx="549" cy="88.5" rx="42.6" ry="42.6"/>
</svg>
