<?xml version="1.0" encoding="utf-8"?>
<!-- Generator: Adobe Illustrator 23.0.3, SVG Export Plug-In . SVG Version: 6.00 Build 0)  -->
<svg version="1.1" id="Calque_1" xmlns="http://www.w3.org/2000/svg" xmlns:xlink="http://www.w3.org/1999/xlink" x="0px" y="0px"
	 viewBox="0 0 595.28 841.89" style="enable-background:new 0 0 595.28 841.89;" xml:space="preserve">
<style type="text/css">
	.st0{fill:none;stroke:#000000;stroke-width:7;stroke-miterlimit:10;}
	.st1{stroke:#000000;stroke-miterlimit:10;}
</style>
<line class="st0" x1="61.63" y1="105.49" x2="572.52" y2="105.49"/>
<line class="st0" x1="550.36" y1="110.71" x2="550.36" y2="313.99"/>
<line class="st0" x1="61.63" y1="292.34" x2="572.52" y2="292.34"/>
<line class="st0" x1="63.13" y1="465.44" x2="572.52" y2="465.44"/>
<line class="st0" x1="48.59" y1="302.04" x2="48.59" y2="505.3"/>
<circle class="st1" cx="49.67" cy="105.49" r="44.61"/>
<circle class="st1" cx="51.3" cy="292.34" r="46.24"/>
<ellipse transform="matrix(0.9951 -0.0985 0.0985 0.9951 -46.8813 7.115)" class="st1" cx="48.59" cy="478.17" rx="43.53" ry="43.53"/>
<circle class="st1" cx="301.63" cy="482.15" r="44.61"/>
<circle class="st1" cx="301.63" cy="287.93" r="44.61"/>
<circle class="st1" cx="301.63" cy="105.49" r="44.61"/>
<ellipse transform="matrix(0.1602 -0.9871 0.9871 0.1602 -10.7235 945.6223)" class="st1" cx="550.36" cy="479.11" rx="42.58" ry="42.58"/>
<ellipse transform="matrix(0.1891 -0.982 0.982 0.1891 163.5443 773.9147)" class="st1" cx="550.36" cy="287.93" rx="42.58" ry="42.58"/>
<ellipse transform="matrix(0.3827 -0.9239 0.9239 0.3827 244.1565 572.3388)" class="st1" cx="550.36" cy="103.47" rx="42.58" ry="42.58"/>
</svg>
