<?xml version="1.0" encoding="utf-8"?>
<!-- Generator: Adobe Illustrator 23.0.3, SVG Export Plug-In . SVG Version: 6.00 Build 0)  -->
<svg version="1.1" id="Calque_1" xmlns="http://www.w3.org/2000/svg" xmlns:xlink="http://www.w3.org/1999/xlink" x="0px" y="0px"
	 viewBox="0 0 595.28 841.89" style="enable-background:new 0 0 595.28 841.89;" xml:space="preserve">
<style type="text/css">
	.st0{fill:#040506;}
	.st1{fill:#1C1C1C;}
	.st2{fill:#121212;}
	.st3{fill:#FBFBFB;}
	.st4{fill:#F8F7F7;}
	.st5{fill:#EAEAEA;}
	.st6{fill:#FFFFFF;}
	.st7{fill:#EEEEEF;}
	.st8{fill:#1F1F1F;}
	.st9{fill:#8D8D8E;}
	.st10{fill:#050506;}
	.st11{fill:#F6F5F5;}
</style>
<g id="Groupe_474" transform="translate(-722.733 -196.809)">
	<path id="Tracé_9421" class="st0" d="M730.89,584.09c24.61-16.53,69.83-25.48,121.12-31.88c65.42-8.18,133.76-10.49,203.65-8.95
		c53.54,0.9,105.99,5.08,154.47,12.28c34.33,5.26,64.97,12.03,86.11,22.31c10.93,4.91,17.06,10.71,17.63,16.7
		c1.32,3.37,0.95,6.79-1.07,10.12c-0.11,0.41-0.36,0.82-0.73,1.21c-10.76,11.05-34.77,18.85-63.97,25.24
		c-42.27,9.26-89.98,14.21-140.23,17.17c-38.15,2.21-77.01,2.96-115.75,2.24c-60.19-1.05-118.59-4.8-172.48-13.78
		c-29.35-4.54-55.03-11.14-75.11-19.25c-16.92-6.92-24.14-15.7-20.02-24.33c-0.44-2.83,3.37-5.4,5.16-8.08
		C729.65,584.72,730.09,584.36,730.89,584.09z"/>
	<path id="Tracé_9422" class="st1" d="M724.52,593.17c0.06,1.05,0.41,2.1,0.16,3.14c-2.49,10.11,12.4,18.07,32.92,25.07
		c31.1,10.6,70.63,16.93,113.71,21.49c20.18,2.03,40.72,3.69,61.54,4.93c15.58,0.85,31.3,1.44,47.08,1.75
		c20.21,0.49,40.48,0.6,60.73,0.33c34.99-0.32,69.73-1.94,103.5-4.84c26.76-2.21,52.63-5.36,77.07-9.43
		c29.55-4.73,55.06-11.61,74.42-20.07c6.1-3.05,11.12-6.3,14.94-9.69c1.52,0.44,2.53,1.02,2.83,1.66c0.26,0.52,0.2,1.06-0.17,1.57
		c-2.47,3.81,0.23,7.65-0.47,11.48c-0.33,1.83-0.04,3.68-0.51,5.52c0.2,0.39,0.64,0.77,1.31,1.1c-0.95,4.45-5.09,8.76-12.07,12.65
		c-1.25,0.78-2.52,1.55-3.78,2.33c0.16,0.55-0.94,0.82-2.28,1.05c-32.68,14.41-79.67,22.13-131.36,27.56
		c-24.97,2.69-50.83,4.48-77.08,5.34c-1.51-0.39-3.4-0.1-5.1-0.28c0.77,0.18,1.93,0.05,2.4,0.37c-19.91,1.06-40.1,1.55-60.29,1.46
		c-27.1,0.22-54.19-0.43-80.88-1.92c0.74-0.29,1.98-0.41,3.11-0.29c-1.17,0.07-3.5-0.22-5.69,0.18
		c-24.14-0.97-47.91-2.74-70.86-5.29c-39.94-4.3-77.04-10.19-107.33-19.69c-26.29-8.26-40.5-18.02-39.16-29.93
		c0.87-7.74,0-15.5,0-23.26C722.61,596.02,723.07,594.55,724.52,593.17z"/>
	<path id="Tracé_9423" class="st2" d="M1313.59,627.21l-1.45-0.49c-1.22-5.97-1.22-11.95,0-17.92c0-0.49,0-0.97,0-1.46
		c-1.81-0.73,0.36-1.71-1.54-2.42c4.73-3.35,2.2-6.92,3.27-10.38c0.47,0.45,0.78,0.91,0.94,1.39c0,9.55-0.07,19.1-0.2,28.66
		C1314.46,625.46,1314.1,626.34,1313.59,627.21z"/>
	<ellipse id="Ellipse_4" class="st3" cx="1317.49" cy="612.68" rx="0.53" ry="18.42"/>
	<path id="Tracé_9424" class="st4" d="M730.9,584.09c0,0.39,0.06,0.77-1.22,1c-4.72,1.08-4.72,1.08-5.42,3.31
		C721.59,585.66,721.63,585.62,730.9,584.09z"/>
	<path id="Tracé_9425" class="st5" d="M1295.46,643.21l2.28-1.05c1.28,0.16,2.08,0.43,1.41,0.87
		C1298.25,643.62,1296.81,643.42,1295.46,643.21z"/>
	<path id="Tracé_9426" class="st6" d="M889.74,634.89c21.06,1.04,42.46,1.24,63.67,0.6c29.93-1.19,58.36-3.64,81.69-10.01
		c27.13-7.42,26.89-17.37-0.09-24.82c-5.38-1.5-11.23-2.83-17.46-3.95c-9.47-1.64-17.85-3.85-24.64-6.48
		c-15.34-5.54-15.09-13.82,0.58-19.27c11.93-4.37,27.5-7.63,44.99-9.37c51.29-5.54,102.25-5.4,151.92,1.82
		c19.99,3,37.95,7.19,52.84,12.34c39.23,13.21,38.69,29.64-1.65,42.74c-25.95,8.42-58.23,13.66-92.94,17.4
		c-83.03,9.11-173.44,9.13-256.49,0.05c-0.9-0.12-1.73-0.28-2.53-0.46c-0.34-0.09-0.47-0.23-0.34-0.37
		C889.47,634.95,889.61,634.89,889.74,634.89z"/>
	<path id="Tracé_9427" class="st6" d="M928.01,620.74c-11.32,0.02-22.41-1-31.88-2.94c-11.23-2.63-11.16-6.36,0.17-8.98
		c15.95-3.69,46.48-3.83,62.55-0.28c13.15,2.9,12.8,6.94-0.8,9.7C948.89,619.87,938.54,620.72,928.01,620.74z"/>
	<path id="Tracé_9428" class="st7" d="M889.74,634.89l-0.07,0.55l-7.44-0.61c-0.36-0.44,0.04-0.63,1.54-0.46
		C885.78,634.53,888.09,634.33,889.74,634.89z"/>
	<path id="Tracé_9429" class="st8" d="M1310.6,604.91c2.59,0.68,1.17,1.61,1.54,2.42c-1.83-0.35-1.48-0.94-1.56-1.46
		C1310.59,605.56,1310.6,605.24,1310.6,604.91z"/>
	<path id="Tracé_9430" class="st9" d="M883.76,634.39l-1.55,0.46l-4.42-0.48c1.31-0.51,3.7-0.6,5.35-0.18
		C883.36,634.25,883.58,634.32,883.76,634.39z"/>
	<path id="Tracé_9431" class="st8" d="M1312.14,608.8c0,5.97,0,11.95,0,17.92c-0.48-0.27-1.38-0.55-1.38-0.82
		c-0.1-5.35-0.13-10.71-0.06-16.06C1310.69,609.49,1311.64,609.15,1312.14,608.8z"/>
	<path id="Tracé_9432" class="st10" d="M1073.38,584.5c-8.55-3.87-6.73-6.91,6.63-9.1c17.69-3.01,39.02-3.03,56.78-0.06
		c6.95,0.8,11.7,2.84,12.09,5.17c-0.09,2.42-5.02,4.58-12.33,5.37c-20.21,3.35-44.71,2.8-63.21-1.4L1073.38,584.5z"/>
	<path id="Tracé_9433" class="st4" d="M1215.36,622.77c2.55-0.72,4.14-0.77,5.67-0.37c0.38,0.16,0.47,0.37,0.23,0.55
		C1219.22,623.61,1217.84,622.87,1215.36,622.77z"/>
	<path id="Tracé_9434" class="st11" d="M1073.34,584.49l0.74,1.56c-2.33-0.43-3.33-0.9-0.7-1.55L1073.34,584.49z"/>
</g>
</svg>
