<svg id="Groupe_2936" data-name="Groupe 2936" xmlns="http://www.w3.org/2000/svg" xmlns:xlink="http://www.w3.org/1999/xlink" width="70" height="83.77" viewBox="0 0 70 83.77">
  <defs>
    <clipPath id="clip-path">
      <rect id="Rectangle_356" data-name="Rectangle 356" width="70" height="83.77"/>
    </clipPath>
  </defs>
  <g id="Groupe_2917" data-name="Groupe 2917">
    <g id="Groupe_2918" data-name="Groupe 2918">
      <g id="Groupe_2920" data-name="Groupe 2920">
        <g id="ninjaBas" clip-path="url(#clip-path)">
          <g id="Groupe_1122" data-name="Groupe 1122" transform="translate(10.287 13.357)">
            <g id="Groupe_1032" data-name="Groupe 1032" transform="translate(14.968 58.097)">
              <g id="Groupe_1031" data-name="Groupe 1031">
                <g id="Groupe_1030" data-name="Groupe 1030">
                  <g id="Groupe_1027" data-name="Groupe 1027" transform="translate(0 3.172)">
                    <path id="Tracé_11869" data-name="Tracé 11869" d="M307.451,856.033l-.015,5.126-4.462-2.576.015-5.126Z" transform="translate(-302.974 -853.457)"/>
                  </g>
                  <g id="Groupe_1028" data-name="Groupe 1028" transform="translate(4.462 2.576)">
                    <path id="Tracé_11870" data-name="Tracé 11870" d="M360.592,848.928l5.459-3.172-.015,5.126-5.459,3.172Z" transform="translate(-360.577 -845.756)"/>
                  </g>
                  <g id="Groupe_1029" data-name="Groupe 1029" transform="translate(0.016)">
                    <path id="Tracé_11871" data-name="Tracé 11871" d="M303.163,815.671l5.459-3.172,4.462,2.576-5.459,3.172Z" transform="translate(-303.163 -812.499)"/>
                  </g>
                </g>
              </g>
            </g>
            <g id="Groupe_1038" data-name="Groupe 1038" transform="translate(3.821 51.614)">
              <g id="Groupe_1037" data-name="Groupe 1037">
                <g id="Groupe_1036" data-name="Groupe 1036">
                  <g id="Groupe_1033" data-name="Groupe 1033" transform="translate(0 3.171)">
                    <path id="Tracé_11872" data-name="Tracé 11872" d="M163.532,772.333l-.015,5.126-4.462-2.576.015-5.126Z" transform="translate(-159.055 -769.757)"/>
                  </g>
                  <g id="Groupe_1034" data-name="Groupe 1034" transform="translate(4.462 2.575)">
                    <path id="Tracé_11873" data-name="Tracé 11873" d="M216.673,765.228l5.459-3.172-.015,5.126-5.459,3.173Z" transform="translate(-216.658 -762.056)"/>
                  </g>
                  <g id="Groupe_1035" data-name="Groupe 1035" transform="translate(0.016)">
                    <path id="Tracé_11874" data-name="Tracé 11874" d="M159.244,731.971,164.7,728.8l4.462,2.576-5.459,3.172Z" transform="translate(-159.244 -728.8)"/>
                  </g>
                </g>
              </g>
            </g>
            <g id="Groupe_2919" data-name="Groupe 2919">
              <g id="Groupe_1070" data-name="Groupe 1070">
                <g id="Groupe_1069" data-name="Groupe 1069">
                  <g id="Groupe_1042" data-name="Groupe 1042" transform="translate(1.514 27.669)">
                    <g id="Groupe_1039" data-name="Groupe 1039" transform="translate(0 12.374)">
                      <path id="Tracé_11875" data-name="Tracé 11875" d="M149.734,591.181l-.047,16.654-20.4-11.776.047-16.654Z" transform="translate(-129.287 -579.405)" fill="#191919"/>
                    </g>
                    <g id="Groupe_1040" data-name="Groupe 1040" transform="translate(20.4 11.777)">
                      <path id="Tracé_11876" data-name="Tracé 11876" d="M392.678,584.08l21.291-12.373-.047,16.654-21.291,12.373Z" transform="translate(-392.631 -571.707)" fill="#101010"/>
                    </g>
                    <g id="Groupe_1041" data-name="Groupe 1041" transform="translate(0.05)">
                      <path id="Tracé_11877" data-name="Tracé 11877" d="M129.9,432.04l21.291-12.373,20.4,11.776L150.3,443.816Z" transform="translate(-129.9 -419.667)" fill="#030303"/>
                    </g>
                  </g>
                  <g id="Groupe_1064" data-name="Groupe 1064" transform="translate(0 4.406)">
                    <g id="Groupe_1043" data-name="Groupe 1043" transform="translate(1.538 5.098)">
                      <path id="Tracé_11878" data-name="Tracé 11878" d="M129.594,197.537l21.291-12.373-.022,7.672-21.291,12.373Z" transform="translate(-129.572 -185.164)" fill="#080808"/>
                    </g>
                    <g id="Groupe_1044" data-name="Groupe 1044" transform="translate(1.538 12.771)">
                      <path id="Tracé_11879" data-name="Tracé 11879" d="M129.572,296.587l21.291-12.373,20.4,11.776-21.291,12.373Z" transform="translate(-129.572 -284.214)" fill="#050505"/>
                    </g>
                    <g id="Groupe_1045" data-name="Groupe 1045" transform="translate(4.726 12.968)">
                      <path id="Tracé_11880" data-name="Tracé 11880" d="M170.737,299.139l21.291-12.373,3.772,2.178-21.291,12.373Z" transform="translate(-170.737 -286.766)" fill="#44382f"/>
                    </g>
                    <g id="Groupe_1046" data-name="Groupe 1046" transform="translate(4.727 8.635)">
                      <path id="Tracé_11881" data-name="Tracé 11881" d="M170.75,243.184l21.291-12.373-.012,4.334-21.291,12.373Z" transform="translate(-170.738 -230.811)" fill="#645446"/>
                    </g>
                    <g id="Groupe_1047" data-name="Groupe 1047" transform="translate(4.743 8.634)">
                      <path id="Tracé_11882" data-name="Tracé 11882" d="M170.9,243.184l21.291-12.373,3.772,2.178-21.291,12.373Z" transform="translate(-170.9 -230.811)"/>
                    </g>
                    <g id="Groupe_1048" data-name="Groupe 1048" transform="translate(4.727 21.006)">
                      <path id="Tracé_11883" data-name="Tracé 11883" d="M174.522,392.726l-.012,4.334-3.772-2.178.012-4.334Z" transform="translate(-170.738 -390.548)"/>
                    </g>
                    <g id="Groupe_1049" data-name="Groupe 1049" transform="translate(8.499 10.813)">
                      <path id="Tracé_11884" data-name="Tracé 11884" d="M219.446,271.3l21.291-12.373-.012,4.334-21.291,12.373Z" transform="translate(-219.434 -258.927)"/>
                    </g>
                    <g id="Groupe_1050" data-name="Groupe 1050" transform="translate(15.126 18.972)">
                      <path id="Tracé_11885" data-name="Tracé 11885" d="M305,376.656l21.291-12.373,3.772,2.178-21.291,12.373Z" transform="translate(-305 -364.283)" fill="#44382f"/>
                    </g>
                    <g id="Groupe_1051" data-name="Groupe 1051" transform="translate(15.126 14.639)">
                      <path id="Tracé_11886" data-name="Tracé 11886" d="M305.013,320.7,326.3,308.328l-.012,4.334L305,325.035Z" transform="translate(-305 -308.328)" fill="#645446"/>
                    </g>
                    <g id="Groupe_1052" data-name="Groupe 1052" transform="translate(15.138 14.638)">
                      <path id="Tracé_11887" data-name="Tracé 11887" d="M305.159,320.7l21.291-12.373,3.772,2.178-21.291,12.373Z" transform="translate(-305.159 -308.327)"/>
                    </g>
                    <g id="Groupe_1053" data-name="Groupe 1053" transform="translate(18.902 16.817)">
                      <path id="Tracé_11888" data-name="Tracé 11888" d="M353.708,348.816,375,336.443l-.012,4.334L353.7,353.15Z" transform="translate(-353.7 -336.443)"/>
                    </g>
                    <g id="Groupe_1054" data-name="Groupe 1054" transform="translate(21.934 16.873)">
                      <path id="Tracé_11889" data-name="Tracé 11889" d="M392.93,349.575,414.22,337.2l-.022,7.672-21.291,12.373Z" transform="translate(-392.907 -337.2)" fill="#645446"/>
                    </g>
                    <g id="Groupe_1055" data-name="Groupe 1055" transform="translate(1.538 17.469)">
                      <path id="Tracé_11890" data-name="Tracé 11890" d="M129.6,344.9l20.4,11.776-.022,7.672-20.4-11.776Zm6.938,10.047.012-4.334-3.772-2.178-.012,4.334,3.772,2.178m10.4,6,.012-4.334-3.772-2.178-.012,4.334,3.772,2.178" transform="translate(-129.573 -344.9)" fill="#cfaa8e"/>
                    </g>
                    <g id="Groupe_1056" data-name="Groupe 1056" transform="translate(1.56 5.098)">
                      <path id="Tracé_11891" data-name="Tracé 11891" d="M129.854,197.538l21.291-12.373,20.4,11.776-21.291,12.373Z" transform="translate(-129.854 -185.165)" fill="#44382f"/>
                    </g>
                    <g id="Groupe_1057" data-name="Groupe 1057" transform="translate(0 16.572)">
                      <path id="Tracé_11892" data-name="Tracé 11892" d="M109.717,351.447l.051-18.161,23.294,13.449-.051,18.161-1.333-.77-20.4-11.776Zm1.56-17.261,20.4,11.776-20.4-11.776" transform="translate(-109.717 -333.286)" fill="#cfaa8e"/>
                    </g>
                    <g id="Groupe_1059" data-name="Groupe 1059" transform="translate(0.051 4.199)">
                      <path id="Tracé_11894" data-name="Tracé 11894" d="M110.381,185.921l21.291-12.373L154.966,187l-21.291,12.37Z" transform="translate(-110.381 -173.548)" fill="#050505"/>
                    </g>
                    <g id="Groupe_1060" data-name="Groupe 1060" transform="translate(0.051 12.372)">
                      <path id="Tracé_11895" data-name="Tracé 11895" d="M133.688,292.518l-.012,4.2-23.294-13.449.012-4.2Z" transform="translate(-110.382 -279.069)" fill="#85090e"/>
                    </g>
                    <g id="Groupe_1061" data-name="Groupe 1061" transform="translate(23.299 17.648)">
                      <path id="Tracé_11896" data-name="Tracé 11896" d="M410.5,359.551l21.3-12.372-.051,18.161-21.291,12.373Z" transform="translate(-410.458 -347.179)" fill="#b79277"/>
                    </g>
                    <g id="Groupe_1062" data-name="Groupe 1062" transform="translate(0.063)">
                      <path id="Tracé_11897" data-name="Tracé 11897" d="M110.535,131.705l21.291-12.373,23.294,13.449-21.291,12.373Z" transform="translate(-110.535 -119.332)" fill="#310600"/>
                    </g>
                    <g id="Groupe_1063" data-name="Groupe 1063" transform="translate(23.346 13.449)">
                      <path id="Tracé_11898" data-name="Tracé 11898" d="M411.13,305.336l21.291-12.373-.012,4.2-21.291,12.373Z" transform="translate(-411.118 -292.963)" fill="#440900"/>
                    </g>
                  </g>
                  <g id="Groupe_1068" data-name="Groupe 1068" transform="translate(0.064)">
                    <g id="Groupe_1065" data-name="Groupe 1065" transform="translate(0 12.373)">
                      <path id="Tracé_11899" data-name="Tracé 11899" d="M110.548,222.182l23.294,13.449-.012,4.406-23.294-13.449Z" transform="translate(-110.536 -222.182)" fill="#151515"/>
                    </g>
                    <g id="Groupe_1066" data-name="Groupe 1066" transform="translate(0.015)">
                      <path id="Tracé_11900" data-name="Tracé 11900" d="M110.7,74.817l21.291-12.373,23.294,13.449L133.99,88.266Z" transform="translate(-110.7 -62.444)"/>
                    </g>
                    <g id="Groupe_1067" data-name="Groupe 1067" transform="translate(23.293 13.449)">
                      <path id="Tracé_11901" data-name="Tracé 11901" d="M411.284,248.448l21.291-12.373-.013,4.406-21.29,12.373Z" transform="translate(-411.272 -236.075)"/>
                    </g>
                  </g>
                </g>
              </g>
            </g>
            <g id="Groupe_1080" data-name="Groupe 1080" transform="translate(6.192 43.154)">
              <g id="Groupe_1079" data-name="Groupe 1079" transform="translate(0 0)">
                <g id="Groupe_1078" data-name="Groupe 1078">
                  <g id="Groupe_1071" data-name="Groupe 1071" transform="translate(4.914 10.595)">
                    <path id="Tracé_11902" data-name="Tracé 11902" d="M499.8,773.135l2.73-1.586.006-2.253-2.73,1.586Z" transform="translate(-499.805 -769.296)" fill="#8e7764"/>
                  </g>
                  <g id="Groupe_1072" data-name="Groupe 1072" transform="translate(0 9.287)">
                    <path id="Tracé_11903" data-name="Tracé 11903" d="M535.051,752.39l-.007,2.312,4.913,2.837.006-2.253v-.059Z" transform="translate(-535.044 -752.39)" fill="#b79880"/>
                  </g>
                  <g id="Groupe_1073" data-name="Groupe 1073" transform="translate(4.919 10.537)">
                    <path id="Tracé_11904" data-name="Tracé 11904" d="M499.8,770.179l2.73-1.586v-.059l-2.73,1.586Z" transform="translate(-499.803 -768.534)" fill="#8e7764"/>
                  </g>
                  <g id="Groupe_1074" data-name="Groupe 1074" transform="translate(0.006 7.7)">
                    <path id="Tracé_11905" data-name="Tracé 11905" d="M504.716,736.334l2.73-1.586-4.913-2.837L499.8,733.5Z" transform="translate(-499.803 -731.911)" fill="#c7a489"/>
                  </g>
                  <g id="Groupe_1075" data-name="Groupe 1075" transform="translate(4.92 2.839)">
                    <path id="Tracé_11906" data-name="Tracé 11906" d="M499.521,678.477l2.73-1.586.022-7.758-2.73,1.586Z" transform="translate(-499.521 -669.133)"/>
                  </g>
                  <g id="Groupe_1076" data-name="Groupe 1076" transform="translate(0.005 1.587)">
                    <path id="Tracé_11907" data-name="Tracé 11907" d="M534.784,652.989l-.022,7.7,4.913,2.837v.059l.022-7.758Z" transform="translate(-534.762 -652.989)"/>
                  </g>
                  <g id="Groupe_1077" data-name="Groupe 1077" transform="translate(0.029)">
                    <path id="Tracé_11908" data-name="Tracé 11908" d="M504.434,636.932l2.73-1.586-4.913-2.837-2.73,1.586Z" transform="translate(-499.521 -632.509)"/>
                  </g>
                </g>
              </g>
            </g>
          </g>
        </g>
      </g>
    </g>
  </g>
  <path id="Tracé_13861" data-name="Tracé 13861" d="M-4534.98,7442.168l-2.083-.876.368,8.755,21.953,12.521-.926-9.5-2.586,5.566-16.725-10.024Z" transform="translate(4548 -7406)" fill="#cfaa8e"/>
</svg>
