<svg xmlns="http://www.w3.org/2000/svg" xmlns:xlink="http://www.w3.org/1999/xlink" width="70" height="83.77" viewBox="0 0 70 83.77">
  <defs>
    <clipPath id="clip-path">
      <rect id="Rectangle_351" data-name="Rectangle 351" width="70" height="83.77"/>
    </clipPath>
  </defs>
  <g id="ninjaHaut" clip-path="url(#clip-path)">
    <g id="Groupe_1121" data-name="Groupe 1121" transform="translate(12.813 14.654)">
      <g id="Groupe_1120" data-name="Groupe 1120">
        <g id="Groupe_1087" data-name="Groupe 1087" transform="translate(14.969 58.096)">
          <g id="Groupe_1086" data-name="Groupe 1086">
            <g id="Groupe_1085" data-name="Groupe 1085">
              <g id="Groupe_1082" data-name="Groupe 1082" transform="translate(0 3.172)">
                <path id="Tracé_11909" data-name="Tracé 11909" d="M1033.625,1116.557l-.015,5.127-4.462-2.576.015-5.127Z" transform="translate(-1029.149 -1113.981)"/>
              </g>
              <g id="Groupe_1083" data-name="Groupe 1083" transform="translate(4.462 2.576)">
                <path id="Tracé_11910" data-name="Tracé 11910" d="M1086.766,1109.452l5.459-3.172-.015,5.127-5.459,3.172Z" transform="translate(-1086.751 -1106.28)"/>
              </g>
              <g id="Groupe_1084" data-name="Groupe 1084" transform="translate(0.015)">
                <path id="Tracé_11911" data-name="Tracé 11911" d="M1029.337,1076.2l5.459-3.172,4.462,2.576-5.459,3.173Z" transform="translate(-1029.337 -1073.023)"/>
              </g>
            </g>
          </g>
        </g>
        <g id="Groupe_1093" data-name="Groupe 1093" transform="translate(3.822 51.613)">
          <g id="Groupe_1092" data-name="Groupe 1092">
            <g id="Groupe_1091" data-name="Groupe 1091">
              <g id="Groupe_1088" data-name="Groupe 1088" transform="translate(0 3.172)">
                <path id="Tracé_11912" data-name="Tracé 11912" d="M889.706,1032.857l-.015,5.127-4.462-2.576.014-5.127Z" transform="translate(-885.23 -1030.281)"/>
              </g>
              <g id="Groupe_1089" data-name="Groupe 1089" transform="translate(4.462 2.576)">
                <path id="Tracé_11913" data-name="Tracé 11913" d="M942.847,1025.752l5.459-3.172-.015,5.127-5.459,3.172Z" transform="translate(-942.833 -1022.579)"/>
              </g>
              <g id="Groupe_1090" data-name="Groupe 1090" transform="translate(0.015)">
                <path id="Tracé_11914" data-name="Tracé 11914" d="M885.418,992.5l5.459-3.172,4.462,2.576-5.459,3.172Z" transform="translate(-885.418 -989.323)"/>
              </g>
            </g>
          </g>
        </g>
        <g id="Groupe_1109" data-name="Groupe 1109">
          <g id="Groupe_1108" data-name="Groupe 1108">
            <g id="Groupe_1097" data-name="Groupe 1097" transform="translate(1.516 27.669)">
              <g id="Groupe_1094" data-name="Groupe 1094" transform="translate(0 12.373)">
                <path id="Tracé_11915" data-name="Tracé 11915" d="M875.908,851.713l-.047,16.654-20.4-11.777.047-16.654Z" transform="translate(-855.463 -839.936)" fill="#040404"/>
              </g>
              <g id="Groupe_1095" data-name="Groupe 1095" transform="translate(20.398 11.777)">
                <path id="Tracé_11916" data-name="Tracé 11916" d="M1118.852,844.612l21.291-12.373-.047,16.654-21.3,12.373Z" transform="translate(-1118.805 -832.239)" fill="#080808"/>
              </g>
              <g id="Groupe_1096" data-name="Groupe 1096" transform="translate(0.047)">
                <path id="Tracé_11917" data-name="Tracé 11917" d="M856.073,692.572l21.29-12.372,20.4,11.777L876.47,704.348Z" transform="translate(-856.073 -680.199)" fill="#0c0c0c"/>
              </g>
            </g>
            <g id="Groupe_1107" data-name="Groupe 1107">
              <g id="Groupe_1098" data-name="Groupe 1098" transform="translate(0.051 4.406)">
                <path id="Tracé_11918" data-name="Tracé 11918" d="M836.568,392.237l21.291-12.373-.012,4.2-21.291,12.373Z" transform="translate(-836.556 -379.864)" fill="#0b0b0b"/>
              </g>
              <g id="Groupe_1099" data-name="Groupe 1099" transform="translate(0.051 8.606)">
                <path id="Tracé_11919" data-name="Tracé 11919" d="M836.556,446.454l21.291-12.373L881.14,447.53,859.85,459.9Z" transform="translate(-836.556 -434.081)" fill="#101010"/>
              </g>
              <g id="Groupe_1100" data-name="Groupe 1100" transform="translate(23.294 22.054)">
                <path id="Tracé_11920" data-name="Tracé 11920" d="M1136.679,620.084l21.29-12.373-.051,18.161-21.291,12.373Z" transform="translate(-1136.628 -607.711)" fill="#1c1c1c"/>
              </g>
              <g id="Groupe_1101" data-name="Groupe 1101" transform="translate(0.063 4.406)">
                <path id="Tracé_11921" data-name="Tracé 11921" d="M836.709,392.237,858,379.864l23.294,13.449L860,405.686Z" transform="translate(-836.709 -379.864)" fill="#750a0c"/>
              </g>
              <g id="Groupe_1102" data-name="Groupe 1102" transform="translate(0.051 16.779)">
                <path id="Tracé_11922" data-name="Tracé 11922" d="M859.862,553.05l-.012,4.2L836.556,543.8l.012-4.2Z" transform="translate(-836.556 -539.602)" fill="#350700"/>
              </g>
              <g id="Groupe_1103" data-name="Groupe 1103" transform="translate(23.346 17.855)">
                <path id="Tracé_11923" data-name="Tracé 11923" d="M1137.3,565.868l21.291-12.373-.012,4.2-21.291,12.373Z" transform="translate(-1137.292 -553.495)" fill="#560a05"/>
              </g>
              <g id="Groupe_1104" data-name="Groupe 1104" transform="translate(0 12.373)">
                <path id="Tracé_11924" data-name="Tracé 11924" d="M859.261,496.164l-.013,4.406-23.294-13.449-.012,4.2,23.294,13.449-.051,18.161-1.333-.77-20.4-11.777-1.563-.9.076-26.767Z" transform="translate(-835.891 -482.715)" fill="#050505"/>
              </g>
              <g id="Groupe_1105" data-name="Groupe 1105" transform="translate(23.357 13.449)">
                <path id="Tracé_11925" data-name="Tracé 11925" d="M1137.458,508.981l21.29-12.373-.012,4.406-21.291,12.373Z" transform="translate(-1137.446 -496.608)" fill="#0b0b0b"/>
              </g>
              <g id="Groupe_1106" data-name="Groupe 1106" transform="translate(0.076)">
                <path id="Tracé_11926" data-name="Tracé 11926" d="M836.871,335.35l21.291-12.373,23.294,13.449L860.165,348.8Z" transform="translate(-836.871 -322.978)" fill="#101010"/>
              </g>
            </g>
          </g>
        </g>
      </g>
    </g>
    <g id="Groupe_1119" data-name="Groupe 1119" transform="translate(43.609 59.809)">
      <g id="Groupe_1118" data-name="Groupe 1118">
        <g id="Groupe_1117" data-name="Groupe 1117">
          <g id="Groupe_1110" data-name="Groupe 1110" transform="translate(0.022 10.595)">
            <path id="Tracé_11927" data-name="Tracé 11927" d="M1228.723,1033.658l-2.73-1.586-.006-2.253,2.73,1.586Z" transform="translate(-1225.987 -1029.818)" fill="#8e7764"/>
          </g>
          <g id="Groupe_1111" data-name="Groupe 1111" transform="translate(2.751 9.286)">
            <path id="Tracé_11928" data-name="Tracé 11928" d="M1266.138,1012.916l.007,2.312-4.913,2.836-.006-2.253v-.059Z" transform="translate(-1261.225 -1012.916)" fill="#b79880"/>
          </g>
          <g id="Groupe_1112" data-name="Groupe 1112" transform="translate(0.022 10.536)">
            <path id="Tracé_11929" data-name="Tracé 11929" d="M1228.715,1030.7l-2.73-1.586v-.059l2.73,1.586Z" transform="translate(-1225.985 -1029.055)" fill="#8e7764"/>
          </g>
          <g id="Groupe_1113" data-name="Groupe 1113" transform="translate(0.022 7.699)">
            <path id="Tracé_11930" data-name="Tracé 11930" d="M1228.715,996.86l-2.73-1.586,4.913-2.836,2.73,1.586Z" transform="translate(-1225.985 -992.437)" fill="#c7a489"/>
          </g>
          <g id="Groupe_1114" data-name="Groupe 1114" transform="translate(2.73 1.586)">
            <path id="Tracé_11931" data-name="Tracé 11931" d="M1265.856,913.514l.022,7.7-4.913,2.836v.059l-.022-7.758Z" transform="translate(-1260.943 -913.514)" fill="#050505"/>
          </g>
          <g id="Groupe_1115" data-name="Groupe 1115" transform="translate(0 2.836)">
            <path id="Tracé_11932" data-name="Tracé 11932" d="M1228.455,939l-2.73-1.586-.022-7.758,2.73,1.586Z" transform="translate(-1225.703 -929.654)" fill="#050505"/>
          </g>
          <g id="Groupe_1116" data-name="Groupe 1116">
            <path id="Tracé_11933" data-name="Tracé 11933" d="M1228.433,897.458l-2.73-1.586,4.913-2.836,2.73,1.586Z" transform="translate(-1225.703 -893.035)" fill="#050505"/>
          </g>
        </g>
      </g>
    </g>
  </g>
</svg>
