<svg id="Groupe_2932" data-name="Groupe 2932" xmlns="http://www.w3.org/2000/svg" xmlns:xlink="http://www.w3.org/1999/xlink" width="70" height="83.77" viewBox="0 0 70 83.77">
  <defs>
    <clipPath id="clip-path">
      <rect id="Rectangle_357" data-name="Rectangle 357" width="70" height="83.77"/>
    </clipPath>
  </defs>
  <g id="ninjaBas" clip-path="url(#clip-path)">
    <g id="Groupe_1122" data-name="Groupe 1122" transform="translate(13.049 14.357)">
      <g id="Groupe_1032" data-name="Groupe 1032" transform="translate(19.759 58.097)">
        <g id="Groupe_1031" data-name="Groupe 1031">
          <g id="Groupe_1030" data-name="Groupe 1030">
            <g id="Groupe_1027" data-name="Groupe 1027" transform="translate(5.46 3.172)">
              <path id="Tracé_11869" data-name="Tracé 11869" d="M302.974,856.033l.015,5.126,4.462-2.576-.015-5.126Z" transform="translate(-302.974 -853.457)" fill="#4e0000"/>
            </g>
            <g id="Groupe_1028" data-name="Groupe 1028" transform="translate(0.001 2.576)">
              <path id="Tracé_11870" data-name="Tracé 11870" d="M366.036,848.928l-5.459-3.172.015,5.126,5.459,3.172Z" transform="translate(-360.577 -845.756)" fill="#4e0000"/>
            </g>
            <g id="Groupe_1029" data-name="Groupe 1029" transform="translate(0)">
              <path id="Tracé_11871" data-name="Tracé 11871" d="M313.084,815.671l-5.459-3.172-4.462,2.576,5.459,3.172Z" transform="translate(-303.163 -812.499)" fill="#4e0000"/>
            </g>
          </g>
        </g>
      </g>
      <g id="Groupe_1038" data-name="Groupe 1038" transform="translate(30.907 51.614)">
        <g id="Groupe_1037" data-name="Groupe 1037">
          <g id="Groupe_1036" data-name="Groupe 1036">
            <g id="Groupe_1033" data-name="Groupe 1033" transform="translate(5.459 3.171)">
              <path id="Tracé_11872" data-name="Tracé 11872" d="M159.055,772.333l.015,5.126,4.462-2.576-.015-5.126Z" transform="translate(-159.055 -769.757)" fill="#4e0303"/>
            </g>
            <g id="Groupe_1034" data-name="Groupe 1034" transform="translate(0 2.575)">
              <path id="Tracé_11873" data-name="Tracé 11873" d="M222.117,765.228l-5.459-3.172.015,5.126,5.459,3.173Z" transform="translate(-216.658 -762.056)" fill="#4e0303"/>
            </g>
            <g id="Groupe_1035" data-name="Groupe 1035" transform="translate(0.002)">
              <path id="Tracé_11874" data-name="Tracé 11874" d="M169.162,731.971l-5.456-3.171-4.462,2.576,5.459,3.172Z" transform="translate(-159.244 -728.8)" fill="#4e0303"/>
            </g>
          </g>
        </g>
      </g>
      <g id="Groupe_1070" data-name="Groupe 1070">
        <g id="Groupe_1069" data-name="Groupe 1069">
          <g id="Groupe_1042" data-name="Groupe 1042" transform="translate(1.409 27.669)">
            <g id="Groupe_1039" data-name="Groupe 1039" transform="translate(21.294 12.374)">
              <path id="Tracé_11875" data-name="Tracé 11875" d="M129.287,591.181l.047,16.654,20.4-11.776-.047-16.654Z" transform="translate(-129.287 -579.405)" fill="#6a0000"/>
            </g>
            <g id="Groupe_1040" data-name="Groupe 1040" transform="translate(0.003 11.777)">
              <path id="Tracé_11876" data-name="Tracé 11876" d="M413.922,584.08l-21.291-12.373.047,16.654,21.291,12.373Z" transform="translate(-392.631 -571.707)" fill="#340101"/>
            </g>
            <g id="Groupe_1041" data-name="Groupe 1041" transform="translate(0)">
              <path id="Tracé_11877" data-name="Tracé 11877" d="M171.591,432.04,150.3,419.667l-20.4,11.776,21.291,12.373Z" transform="translate(-129.9 -419.667)" fill="#030303"/>
            </g>
          </g>
          <g id="Groupe_1064" data-name="Groupe 1064" transform="translate(0.015 4.406)">
            <g id="Groupe_1043" data-name="Groupe 1043" transform="translate(21.798 5.098)">
              <path id="Tracé_11878" data-name="Tracé 11878" d="M150.863,197.537l-21.291-12.373.022,7.672,21.291,12.373Z" transform="translate(-129.572 -185.164)" fill="#080808"/>
            </g>
            <g id="Groupe_1044" data-name="Groupe 1044" transform="translate(1.42 12.771)">
              <path id="Tracé_11879" data-name="Tracé 11879" d="M171.263,296.587l-21.291-12.373-20.4,11.776,21.291,12.373Z" transform="translate(-129.572 -284.214)" fill="#050505"/>
            </g>
            <g id="Groupe_1045" data-name="Groupe 1045" transform="translate(14.86 12.968)">
              <path id="Tracé_11880" data-name="Tracé 11880" d="M195.8,299.139l-21.291-12.373-3.772,2.178,21.291,12.373Z" transform="translate(-170.737 -286.766)" fill="#44382f"/>
            </g>
            <g id="Groupe_1046" data-name="Groupe 1046" transform="translate(18.619 8.635)">
              <path id="Tracé_11881" data-name="Tracé 11881" d="M192.029,243.184l-21.291-12.373.012,4.334,21.291,12.373Z" transform="translate(-170.738 -230.811)" fill="#645446"/>
            </g>
            <g id="Groupe_1047" data-name="Groupe 1047" transform="translate(14.843 8.634)">
              <path id="Tracé_11882" data-name="Tracé 11882" d="M195.963,243.184l-21.291-12.373-3.772,2.178,21.291,12.373Z" transform="translate(-170.9 -230.811)"/>
            </g>
            <g id="Groupe_1048" data-name="Groupe 1048" transform="translate(36.138 21.006)">
              <path id="Tracé_11883" data-name="Tracé 11883" d="M170.738,392.726l.012,4.334,3.772-2.178-.012-4.334Z" transform="translate(-170.738 -390.548)"/>
            </g>
            <g id="Groupe_1049" data-name="Groupe 1049" transform="translate(14.847 10.813)">
              <path id="Tracé_11884" data-name="Tracé 11884" d="M240.725,271.3l-21.291-12.373.012,4.334,21.291,12.373Z" transform="translate(-219.434 -258.927)"/>
            </g>
            <g id="Groupe_1050" data-name="Groupe 1050" transform="translate(4.46 18.972)">
              <path id="Tracé_11885" data-name="Tracé 11885" d="M330.063,376.656l-21.291-12.373L305,366.461l21.291,12.373Z" transform="translate(-305 -364.283)" fill="#44382f"/>
            </g>
            <g id="Groupe_1051" data-name="Groupe 1051" transform="translate(8.223 14.639)">
              <path id="Tracé_11886" data-name="Tracé 11886" d="M326.287,320.7,305,308.328l.012,4.334L326.3,325.035Z" transform="translate(-305 -308.328)" fill="#645446"/>
            </g>
            <g id="Groupe_1052" data-name="Groupe 1052" transform="translate(4.448 14.638)">
              <path id="Tracé_11887" data-name="Tracé 11887" d="M330.222,320.7l-21.291-12.373-3.772,2.178,21.291,12.373Z" transform="translate(-305.159 -308.327)"/>
            </g>
            <g id="Groupe_1053" data-name="Groupe 1053" transform="translate(4.447 16.817)">
              <path id="Tracé_11888" data-name="Tracé 11888" d="M374.992,348.816,353.7,336.443l.012,4.334L375,353.15Z" transform="translate(-353.7 -336.443)"/>
            </g>
            <g id="Groupe_1054" data-name="Groupe 1054" transform="translate(1.402 16.873)">
              <path id="Tracé_11889" data-name="Tracé 11889" d="M414.2,349.575,392.907,337.2l.022,7.672,21.291,12.373Z" transform="translate(-392.907 -337.2)" fill="#645446"/>
            </g>
            <g id="Groupe_1055" data-name="Groupe 1055" transform="translate(22.689 17.469)">
              <path id="Tracé_11890" data-name="Tracé 11890" d="M149.973,344.9l-20.4,11.776.022,7.672,20.4-11.776Zm-6.938,10.047-.012-4.334,3.772-2.178.012,4.334-3.772,2.178m-10.4,6-.012-4.334,3.772-2.178.012,4.334-3.772,2.178" transform="translate(-129.573 -344.9)" fill="#cfaa8e"/>
            </g>
            <g id="Groupe_1056" data-name="Groupe 1056" transform="translate(1.398 5.098)">
              <path id="Tracé_11891" data-name="Tracé 11891" d="M171.545,197.538l-21.291-12.373-20.4,11.776,21.291,12.373Z" transform="translate(-129.854 -185.165)" fill="#44382f"/>
            </g>
            <g id="Groupe_1057" data-name="Groupe 1057" transform="translate(21.304 16.572)">
              <path id="Tracé_11892" data-name="Tracé 11892" d="M133.062,351.447l-.051-18.161-23.294,13.449.051,18.161,1.333-.77,20.4-11.776Zm-1.56-17.261.022,7.672-20.4,11.776-.022-7.672,20.4-11.776" transform="translate(-109.717 -333.286)" fill="#fff"/>
            </g>
            <g id="Groupe_1058" data-name="Groupe 1058" transform="translate(25.739 27.012)">
              <path id="Tracé_11893" data-name="Tracé 11893" d="M308.784,472.4l-3.772,2.178L305,470.244l3.772-2.178Z" transform="translate(-305 -468.066)"/>
            </g>
            <g id="Groupe_1059" data-name="Groupe 1059" transform="translate(0.013 4.199)">
              <path id="Tracé_11894" data-name="Tracé 11894" d="M154.966,185.921l-21.291-12.373L110.381,187l21.291,12.37Z" transform="translate(-110.381 -173.548)" fill="#050505"/>
            </g>
            <g id="Groupe_1060" data-name="Groupe 1060" transform="translate(21.292 12.372)">
              <path id="Tracé_11895" data-name="Tracé 11895" d="M110.382,292.518l.012,4.2,23.294-13.449-.012-4.2Z" transform="translate(-110.382 -279.069)" fill="#fff"/>
            </g>
            <g id="Groupe_1061" data-name="Groupe 1061" transform="translate(0.008 17.648)">
              <path id="Tracé_11896" data-name="Tracé 11896" d="M431.758,359.551l-21.3-12.372.051,18.161L431.8,377.713Z" transform="translate(-410.458 -347.179)" fill="#400202"/>
            </g>
            <g id="Groupe_1062" data-name="Groupe 1062" transform="translate(0.001)">
              <path id="Tracé_11897" data-name="Tracé 11897" d="M155.12,131.705l-21.291-12.373-23.294,13.449,21.291,12.373Z" transform="translate(-110.535 -119.332)" fill="#310600"/>
            </g>
            <g id="Groupe_1063" data-name="Groupe 1063" transform="translate(0 13.449)">
              <path id="Tracé_11898" data-name="Tracé 11898" d="M432.409,305.336l-21.291-12.373.012,4.2,21.291,12.373Z" transform="translate(-411.118 -292.963)" fill="#400202"/>
            </g>
          </g>
          <g id="Groupe_1068" data-name="Groupe 1068" transform="translate(0)">
            <g id="Groupe_1065" data-name="Groupe 1065" transform="translate(21.294 12.373)">
              <path id="Tracé_11899" data-name="Tracé 11899" d="M133.83,222.182l-23.294,13.449.012,4.406,23.294-13.449Z" transform="translate(-110.536 -222.182)" fill="#7e0000"/>
            </g>
            <g id="Groupe_1066" data-name="Groupe 1066" transform="translate(0)">
              <path id="Tracé_11900" data-name="Tracé 11900" d="M155.285,74.817,133.994,62.444,110.7,75.893l21.295,12.373Z" transform="translate(-110.7 -62.444)" fill="#6a0000"/>
            </g>
            <g id="Groupe_1067" data-name="Groupe 1067" transform="translate(0.004 13.449)">
              <path id="Tracé_11901" data-name="Tracé 11901" d="M432.563,248.448l-21.291-12.373.013,4.406,21.29,12.373Z" transform="translate(-411.272 -236.075)" fill="#400202"/>
            </g>
          </g>
        </g>
      </g>
      <g id="Groupe_1080" data-name="Groupe 1080" transform="translate(6.8 44.154)">
        <g id="Groupe_1079" data-name="Groupe 1079">
          <g id="Groupe_1078" data-name="Groupe 1078">
            <g id="Groupe_1071" data-name="Groupe 1071" transform="translate(4.914 10.595)">
              <path id="Tracé_11902" data-name="Tracé 11902" d="M499.8,773.135l2.73-1.586.006-2.253-2.73,1.586Z" transform="translate(-499.805 -769.296)" fill="#8e7764"/>
            </g>
            <g id="Groupe_1072" data-name="Groupe 1072" transform="translate(0 9.287)">
              <path id="Tracé_11903" data-name="Tracé 11903" d="M535.051,752.39l-.007,2.312,4.913,2.837.006-2.253v-.059Z" transform="translate(-535.044 -752.39)" fill="#b79880"/>
            </g>
            <g id="Groupe_1073" data-name="Groupe 1073" transform="translate(4.919 10.537)">
              <path id="Tracé_11904" data-name="Tracé 11904" d="M499.8,770.179l2.73-1.586v-.059l-2.73,1.586Z" transform="translate(-499.803 -768.534)" fill="#8e7764"/>
            </g>
            <g id="Groupe_1074" data-name="Groupe 1074" transform="translate(0.006 7.7)">
              <path id="Tracé_11905" data-name="Tracé 11905" d="M504.716,736.334l2.73-1.586-4.913-2.837L499.8,733.5Z" transform="translate(-499.803 -731.911)" fill="#c7a489"/>
            </g>
            <g id="Groupe_1075" data-name="Groupe 1075" transform="translate(4.92 2.839)">
              <path id="Tracé_11906" data-name="Tracé 11906" d="M499.521,678.477l2.73-1.586.022-7.758-2.73,1.586Z" transform="translate(-499.521 -669.133)" fill="#340101"/>
            </g>
            <g id="Groupe_1076" data-name="Groupe 1076" transform="translate(0.005 1.587)">
              <path id="Tracé_11907" data-name="Tracé 11907" d="M534.784,652.989l-.022,7.7,4.913,2.837v.059l.022-7.758Z" transform="translate(-534.762 -652.989)" fill="#340101"/>
            </g>
            <g id="Groupe_1077" data-name="Groupe 1077" transform="translate(0.029)">
              <path id="Tracé_11908" data-name="Tracé 11908" d="M504.434,636.932l2.73-1.586-4.913-2.837-2.73,1.586Z" transform="translate(-499.521 -632.509)" fill="#340101"/>
            </g>
          </g>
        </g>
      </g>
    </g>
  </g>
  <g id="Groupe_2930" data-name="Groupe 2930" transform="translate(46.088 59.866)">
    <g id="Groupe_2907" data-name="Groupe 2907">
      <g id="Groupe_2906" data-name="Groupe 2906">
        <g id="Groupe_2904" data-name="Groupe 2904">
          <path id="Tracé_13855" data-name="Tracé 13855" d="M196.852,845.1a2.037,2.037,0,0,0-.923,1.6c0,.587.419.824.929.529a2.038,2.038,0,0,0,.924-1.6C197.78,845.043,197.363,844.806,196.852,845.1Zm.006,2.06c-.478.276-.867.053-.869-.5a1.905,1.905,0,0,1,.863-1.5c.478-.276.868-.053.869.5a1.905,1.905,0,0,1-.863,1.5" transform="translate(-195.929 -844.974)"/>
        </g>
        <g id="Groupe_2905" data-name="Groupe 2905" transform="translate(0.06 0.077)">
          <path id="Tracé_13856" data-name="Tracé 13856" d="M197.508,846a1.905,1.905,0,0,0-.863,1.5c0,.549.391.771.869.5a1.9,1.9,0,0,0,.863-1.5C198.375,845.951,197.986,845.729,197.508,846Z" transform="translate(-196.645 -845.886)" fill="#fff"/>
        </g>
      </g>
    </g>
    <g id="Groupe_2911" data-name="Groupe 2911" transform="translate(0 4.301)">
      <g id="Groupe_2910" data-name="Groupe 2910" transform="translate(0 0)">
        <g id="Groupe_2908" data-name="Groupe 2908">
          <path id="Tracé_13857" data-name="Tracé 13857" d="M196.852,896.1a2.038,2.038,0,0,0-.923,1.6c0,.587.419.824.929.529a2.037,2.037,0,0,0,.924-1.6C197.78,896.047,197.363,895.81,196.852,896.1Zm.006,2.06c-.478.276-.867.053-.869-.5a1.905,1.905,0,0,1,.863-1.5c.478-.276.868-.053.869.5a1.9,1.9,0,0,1-.863,1.5" transform="translate(-195.929 -895.978)"/>
        </g>
        <g id="Groupe_2909" data-name="Groupe 2909" transform="translate(0.06 0.077)">
          <path id="Tracé_13858" data-name="Tracé 13858" d="M197.508,897.008a1.9,1.9,0,0,0-.863,1.5c0,.549.391.771.869.5a1.905,1.905,0,0,0,.863-1.5C198.375,896.954,197.986,896.732,197.508,897.008Z" transform="translate(-196.645 -896.889)" fill="#fff"/>
        </g>
      </g>
    </g>
    <g id="Groupe_2915" data-name="Groupe 2915" transform="translate(0 8.461)">
      <g id="Groupe_2914" data-name="Groupe 2914">
        <g id="Groupe_2912" data-name="Groupe 2912">
          <path id="Tracé_13859" data-name="Tracé 13859" d="M196.852,945.432a2.037,2.037,0,0,0-.923,1.6c0,.586.419.824.929.529a2.038,2.038,0,0,0,.924-1.6C197.78,945.374,197.363,945.138,196.852,945.432Zm.006,2.06c-.478.276-.867.053-.869-.5a1.9,1.9,0,0,1,.863-1.5c.478-.276.868-.054.869.5a1.9,1.9,0,0,1-.863,1.5" transform="translate(-195.929 -945.306)"/>
        </g>
        <g id="Groupe_2913" data-name="Groupe 2913" transform="translate(0.06 0.077)">
          <path id="Tracé_13860" data-name="Tracé 13860" d="M197.508,946.336a1.9,1.9,0,0,0-.863,1.5c0,.549.391.771.869.5a1.905,1.905,0,0,0,.863-1.5C198.375,946.282,197.986,946.06,197.508,946.336Z" transform="translate(-196.645 -946.217)" fill="#fff"/>
        </g>
      </g>
    </g>
  </g>
</svg>
