<?xml version="1.0" encoding="utf-8"?>
<!-- Generator: Adobe Illustrator 23.0.3, SVG Export Plug-In . SVG Version: 6.00 Build 0)  -->
<!DOCTYPE svg PUBLIC "-//W3C//DTD SVG 1.1//EN" "http://www.w3.org/Graphics/SVG/1.1/DTD/svg11.dtd" [
	<!ENTITY ns_extend "http://ns.adobe.com/Extensibility/1.0/">
	<!ENTITY ns_ai "http://ns.adobe.com/AdobeIllustrator/10.0/">
	<!ENTITY ns_graphs "http://ns.adobe.com/Graphs/1.0/">
	<!ENTITY ns_vars "http://ns.adobe.com/Variables/1.0/">
	<!ENTITY ns_imrep "http://ns.adobe.com/ImageReplacement/1.0/">
	<!ENTITY ns_sfw "http://ns.adobe.com/SaveForWeb/1.0/">
	<!ENTITY ns_custom "http://ns.adobe.com/GenericCustomNamespace/1.0/">
	<!ENTITY ns_adobe_xpath "http://ns.adobe.com/XPath/1.0/">
]>
<svg version="1.1" id="Layer_1" xmlns:x="&ns_extend;" xmlns:i="&ns_ai;" xmlns:graph="&ns_graphs;"
	 xmlns="http://www.w3.org/2000/svg" xmlns:xlink="http://www.w3.org/1999/xlink" x="0px" y="0px" viewBox="0 0 1400 980"
	 style="enable-background:new 0 0 1400 980;" xml:space="preserve">
<style type="text/css">
	.st0{opacity:0.11;}
	.st1{clip-path:url(#SVGID_2_);fill:#E0EAFC;}
	.st2{clip-path:url(#SVGID_4_);}
	.st3{fill:#A1B1DB;}
	.st4{clip-path:url(#SVGID_6_);}
	.st5{clip-path:url(#SVGID_8_);}
	.st6{clip-path:url(#SVGID_10_);}
	.st7{clip-path:url(#SVGID_12_);}
	.st8{clip-path:url(#SVGID_14_);}
	.st9{fill:#414887;}
	.st10{clip-path:url(#SVGID_16_);}
	.st11{fill:#49538E;}
	.st12{clip-path:url(#SVGID_18_);}
	.st13{fill:#7E8EC1;}
	.st14{clip-path:url(#SVGID_20_);}
	.st15{clip-path:url(#SVGID_22_);}
	.st16{clip-path:url(#SVGID_24_);}
	.st17{fill:#C2D1F2;}
	.st18{clip-path:url(#SVGID_26_);}
	.st19{clip-path:url(#SVGID_28_);}
	.st20{clip-path:url(#SVGID_30_);}
	.st21{clip-path:url(#SVGID_32_);}
	.st22{clip-path:url(#SVGID_34_);}
	.st23{clip-path:url(#SVGID_36_);}
	.st24{clip-path:url(#SVGID_38_);}
	.st25{clip-path:url(#SVGID_40_);}
	.st26{clip-path:url(#SVGID_42_);}
	.st27{clip-path:url(#SVGID_44_);}
	.st28{clip-path:url(#SVGID_46_);}
	.st29{clip-path:url(#SVGID_48_);}
	.st30{clip-path:url(#SVGID_50_);}
	.st31{clip-path:url(#SVGID_52_);}
	.st32{clip-path:url(#SVGID_54_);}
	.st33{clip-path:url(#SVGID_56_);}
	.st34{clip-path:url(#SVGID_58_);}
	.st35{clip-path:url(#SVGID_60_);}
	.st36{fill:#6674AD;}
	.st37{clip-path:url(#SVGID_62_);}
	.st38{clip-path:url(#SVGID_64_);}
	.st39{fill:#4E5893;}
	.st40{clip-path:url(#SVGID_66_);}
	.st41{clip-path:url(#SVGID_68_);}
	.st42{clip-path:url(#SVGID_70_);}
	.st43{clip-path:url(#SVGID_72_);}
	.st44{clip-path:url(#SVGID_74_);}
	.st45{clip-path:url(#SVGID_76_);}
	.st46{clip-path:url(#SVGID_78_);}
	.st47{clip-path:url(#SVGID_80_);}
	.st48{clip-path:url(#SVGID_82_);}
	.st49{clip-path:url(#SVGID_84_);}
	.st50{clip-path:url(#SVGID_86_);fill:#414887;}
	.st51{clip-path:url(#SVGID_88_);fill:#414887;}
	.st52{clip-path:url(#SVGID_90_);fill:#414887;}
	.st53{clip-path:url(#SVGID_92_);fill:#414887;}
	.st54{clip-path:url(#SVGID_94_);fill:#414887;}
	.st55{clip-path:url(#SVGID_96_);fill:#414887;}
	.st56{clip-path:url(#SVGID_98_);fill:#414887;}
	.st57{clip-path:url(#SVGID_100_);fill:#414887;}
	.st58{clip-path:url(#SVGID_102_);fill:#414887;}
	.st59{clip-path:url(#SVGID_104_);fill:#414887;}
	.st60{clip-path:url(#SVGID_106_);fill:#414887;}
	.st61{clip-path:url(#SVGID_108_);fill:#4E5893;}
	.st62{clip-path:url(#SVGID_110_);fill:#4E5893;}
	.st63{clip-path:url(#SVGID_112_);fill:#4E5893;}
	.st64{clip-path:url(#SVGID_114_);fill:#4E5893;}
	.st65{clip-path:url(#SVGID_116_);}
	.st66{clip-path:url(#SVGID_118_);}
	.st67{clip-path:url(#SVGID_120_);}
	.st68{clip-path:url(#SVGID_122_);fill:#4E5893;}
	.st69{clip-path:url(#SVGID_124_);fill:#4E5893;}
	.st70{clip-path:url(#SVGID_126_);fill:#4E5893;}
	.st71{clip-path:url(#SVGID_128_);fill:#4E5893;}
	.st72{clip-path:url(#SVGID_130_);fill:#4E5893;}
	.st73{clip-path:url(#SVGID_132_);fill:#4E5893;}
	.st74{clip-path:url(#SVGID_134_);}
	.st75{clip-path:url(#SVGID_136_);}
	.st76{clip-path:url(#SVGID_138_);}
	.st77{clip-path:url(#SVGID_140_);}
	.st78{clip-path:url(#SVGID_142_);}
	.st79{clip-path:url(#SVGID_144_);}
	.st80{clip-path:url(#SVGID_146_);}
	.st81{clip-path:url(#SVGID_148_);}
	.st82{clip-path:url(#SVGID_150_);}
	.st83{clip-path:url(#SVGID_152_);}
	.st84{clip-path:url(#SVGID_154_);}
	.st85{clip-path:url(#SVGID_156_);fill:#414887;}
	.st86{clip-path:url(#SVGID_158_);fill:#414887;}
	.st87{clip-path:url(#SVGID_160_);fill:#414887;}
	.st88{clip-path:url(#SVGID_162_);fill:#414887;}
	.st89{clip-path:url(#SVGID_164_);fill:#414887;}
	.st90{clip-path:url(#SVGID_166_);fill:#414887;}
	.st91{clip-path:url(#SVGID_168_);fill:#414887;}
	.st92{clip-path:url(#SVGID_170_);fill:#4E5893;}
	.st93{clip-path:url(#SVGID_172_);fill:#4E5893;}
	.st94{clip-path:url(#SVGID_174_);fill:#4E5893;}
	.st95{clip-path:url(#SVGID_176_);fill:#6674AD;}
	.st96{clip-path:url(#SVGID_178_);fill:#6674AD;}
	.st97{clip-path:url(#SVGID_180_);fill:#6674AD;}
	.st98{opacity:0.16;fill:#39AA35;}
</style>
<metadata>
	<sfw  xmlns="&ns_sfw;">
		<slices></slices>
		<sliceSourceBounds  bottomLeftOrigin="true" height="1192.3" width="1737.6" x="-170.5" y="-107.9"></sliceSourceBounds>
	</sfw>
</metadata>
<g class="st0">
	<g>
		<defs>
			<rect id="SVGID_1_" y="0" width="1400" height="980"/>
		</defs>
		<clipPath id="SVGID_2_">
			<use xlink:href="#SVGID_1_"  style="overflow:visible;"/>
		</clipPath>
		<rect y="0" class="st1" width="1400" height="980"/>
	</g>
	<g>
		<defs>
			<rect id="SVGID_3_" y="0" width="1400" height="980"/>
		</defs>
		<clipPath id="SVGID_4_">
			<use xlink:href="#SVGID_3_"  style="overflow:visible;"/>
		</clipPath>
		<g class="st2">
			<path class="st3" d="M158.3,524.6c-1.1-0.1-2.3-0.2-3.4-0.3C156.1,524.5,157.2,524.6,158.3,524.6z"/>
			<path class="st3" d="M223.9,525.5c7.2,1.1,20.2,5.9,26.9,3.1c6.6-2.7,11.7-14.9,4.8-19.2l-2.8,6.2c-7.7-11.9-41.5-6.9-53.7-0.7
				c-15.5,7.8-25.6,10.7-40.8,9.7C180.8,526.2,201.8,522.2,223.9,525.5z"/>
		</g>
	</g>
	<g>
		<defs>
			<rect id="SVGID_5_" y="0" width="1400" height="980"/>
		</defs>
		<clipPath id="SVGID_6_">
			<use xlink:href="#SVGID_5_"  style="overflow:visible;"/>
		</clipPath>
		<g class="st4">
			<path class="st3" d="M277.4,517l-2.3,0.9c0.8,0.1,1.6,0.2,2.3,0.3C277.5,517.7,277.4,517.3,277.4,517z"/>
			<path class="st3" d="M270.9,517.4c0.9,0.2,1.7,0.5,2.4,1.1l1.8-0.7C273.8,517.7,272.4,517.5,270.9,517.4z"/>
			<path class="st3" d="M324.3,545.6c4,3.1,8,5.7,11.6,7C333.9,548.4,329.5,546.5,324.3,545.6z"/>
			<path class="st3" d="M296.4,543.6c6.9,2.1,18.8,0.5,28,2c-6-4.6-12-10.2-16.9-14.1c-11.5-9.2-17.5-11.8-30-13.4
				C278.1,530.9,283.2,539.6,296.4,543.6z"/>
			<path class="st3" d="M282.6,562.2c-6.7-8.8-1.8-37.5-9.2-43.7l-7.1,2.7C252.1,534.9,271.3,552.8,282.6,562.2z"/>
		</g>
	</g>
	<g>
		<defs>
			<rect id="SVGID_7_" y="0" width="1400" height="980"/>
		</defs>
		<clipPath id="SVGID_8_">
			<use xlink:href="#SVGID_7_"  style="overflow:visible;"/>
		</clipPath>
		<g class="st5">
			<path class="st3" d="M212.4,475.9c-1.2-1-2.4-1.8-3.5-2.3C209.8,474.4,211,475.1,212.4,475.9z"/>
			<path class="st3" d="M260.1,507l-0.3,2.8C260,508.9,260.1,507.9,260.1,507z"/>
			<path class="st3" d="M258.8,501.8c0.8,1.6,1.3,3.4,1.3,5.3l0.8-7.8C260.2,500.2,259.5,501,258.8,501.8z"/>
			<path class="st3" d="M212.4,475.9c12.2,9.9,32.1,41.4,46.5,25.9C252.6,488.9,224.8,482.8,212.4,475.9z"/>
		</g>
	</g>
	<g>
		<defs>
			<rect id="SVGID_9_" y="0" width="1400" height="980"/>
		</defs>
		<clipPath id="SVGID_10_">
			<use xlink:href="#SVGID_9_"  style="overflow:visible;"/>
		</clipPath>
		<g class="st6">
			<path class="st3" d="M233.4,504.2c-13.7-2.1-20.8-19.6-35.5-20.8c4.7,7.3,5.9,15,14.3,18.6C217.7,504.3,226.5,503.9,233.4,504.2z
				"/>
			<path class="st3" d="M233.4,504.2c1.1,0.2,2.3,0.3,3.5,0.2C235.8,504.3,234.6,504.2,233.4,504.2z"/>
		</g>
	</g>
	<g>
		<defs>
			<rect id="SVGID_11_" y="0" width="1400" height="980"/>
		</defs>
		<clipPath id="SVGID_12_">
			<use xlink:href="#SVGID_11_"  style="overflow:visible;"/>
		</clipPath>
		<g class="st7">
			<path class="st3" d="M300.4,490.9c2.7,0.4,5.4,0.8,8.2,1.1C306,490.7,303.2,490.5,300.4,490.9z"/>
			<path class="st3" d="M300.4,490.9c-16.1-2.5-29.5-5.8-40.8,10.3C270,513.9,285.8,493.2,300.4,490.9z"/>
		</g>
	</g>
	<g>
		<defs>
			<rect id="SVGID_13_" y="0" width="1400" height="980"/>
		</defs>
		<clipPath id="SVGID_14_">
			<use xlink:href="#SVGID_13_"  style="overflow:visible;"/>
		</clipPath>
		<g class="st8">
			<path class="st9" d="M1207.5,419.4c4.4-0.4,8.8-0.8,13.1-1.5c14.2-2.2,28.5-4.5,42.7-6.5c29.1-4,58.3-6.7,87.7-5.1
				c18.9,1.1,37.7,3,56.5,4.8c-2.7-6.3-7.3-8.7-7.3-8.7L1292-104.4l-142.2,38.3l52,486.1c1-0.1,2.1-0.2,3.1-0.4
				C1206.1,417.8,1207.2,416.8,1207.5,419.4z"/>
			<path class="st9" d="M1541,1005c0.8-2.5,2.3-4.3,3.4-6.6l-141.1-554.5c4.2-8.8,5.9-15.8,6.1-21.5c-19.4-1.9-38.9-3.9-58.4-4.9
				c-28.7-1.5-57.3,0.9-85.7,4.8c-14.6,2-29.2,4.4-43.8,6.7c-5,0.8-9.9,1.6-14.9,2h-0.1c-0.3,1.9-0.7,4.1-1.1,6.6
				c-6.2,35.1,9.3,44.6,9.3,44.6l52.6,522.8l264.4,73.1c2.7-17.6,6-35.1,9.4-53.1C1542,1018,1540,1012,1541,1005z"/>
			<path class="st9" d="M1544.4,998.4c-1.1,2.3-2.6,4.1-3.4,6.6c-1,7,1,13,0,20c-3.3,17.9-6.6,35.4-9.4,53.1l35.5,9.8L1544.4,998.4z
				"/>
		</g>
	</g>
	<g>
		<defs>
			<rect id="SVGID_15_" y="0" width="1400" height="980"/>
		</defs>
		<clipPath id="SVGID_16_">
			<use xlink:href="#SVGID_15_"  style="overflow:visible;"/>
		</clipPath>
		<g class="st10">
			<path class="st11" d="M751-37.4L726.3-47l6.5,138.1c9.7,1.5,19.4,2.4,29.2,2.9L751-37.4z"/>
			<path class="st11" d="M762.7,102.2c-9.9-0.5-19.7-1.4-29.5-2.9l3.3,70.9c10.5-1.6,21.1-2.2,31.5-3.7L762.7,102.2z"/>
			<path class="st11" d="M775.1,251.4l-6.4-76.9c-10.6,1.5-21.3,2.1-31.8,3.8l3.5,73.2C751.9,251.1,763.5,251.5,775.1,251.4z"/>
			<path class="st11" d="M775.6,257.2c-11.7,0.2-23.3-0.2-35,0.2l4.5,95.4c12.7-2.1,25.4-3.1,38.2-3.5L775.6,257.2z"/>
			<path class="st11" d="M792.2,455.8c-14,1.6-28,3.5-42,4.9l5.6,119.3c15.6-0.1,31.1-0.6,46.7-1L792.2,455.8z"/>
			<path class="st11" d="M807.3,751.6c3.1-0.6,6.3-1.1,9.5-1.7L803,585c-15.6,0.4-31.3,0.8-46.9,1l8.1,170.8
				C778.6,757.2,793.2,754.1,807.3,751.6z"/>
			<path class="st11" d="M817.3,755.7c-5.5,1-11,2.1-16.3,3c-12,2.1-24.3,4.2-36.5,3.9l11.3,239.3l61.8-3.2L817.3,755.7z"/>
			<path class="st11" d="M783.8,355.2c-12.9,0.4-25.7,1.3-38.4,3.5l4.5,96.1c14-1.3,27.9-3.3,41.8-4.9L783.8,355.2z"/>
		</g>
	</g>
	<g>
		<defs>
			<rect id="SVGID_17_" y="0" width="1400" height="980"/>
		</defs>
		<clipPath id="SVGID_18_">
			<use xlink:href="#SVGID_17_"  style="overflow:visible;"/>
		</clipPath>
		<g class="st12">
			<path class="st13" d="M983.5-27.2l-18.2,6.4l7.7,49.7c6.3,0.7,12.7,0.5,19.1,0.6L983.5-27.2z"/>
			<path class="st13" d="M1004.3,109.5L993,35.3c-6.4-0.2-12.7,0-19.1-0.5l11.7,75.2C991.8,110,998.1,109.9,1004.3,109.5z"/>
			<path class="st13" d="M1005.2,115.4c-6.2,0.4-12.4,0.6-18.6,0.6l16.9,108.7c6-0.8,12.1-1.3,18.1-1.6L1005.2,115.4z"/>
			<path class="st13" d="M1022.4,229c-6.1,0.3-12.1,0.7-18.1,1.5l13.2,84.9c5.9-1,11.8-1.9,17.7-2.6L1022.4,229z"/>
			<path class="st13" d="M1050.5,414.4c-5.9-0.1-11.7,0.3-17.5,1.7l13.8,89c5.7-0.4,11.4-1.3,17.1-2.3L1050.5,414.4z"/>
			<path class="st13" d="M1082.6,625.3l-17.7-116.8c-5.7,1-11.3,1.9-17,2.3l17.9,115.5C1071.3,626.3,1077,626,1082.6,625.3z"/>
			<path class="st13" d="M1083.4,631.1c-5.6,0.7-11.2,1-16.8,1.1l21.7,139.7c5.3-1.4,10.7-2.4,16-3.4L1083.4,631.1z"/>
			<path class="st13" d="M1121.4,881.2l-16.2-106.8c-5.4,1-10.7,2-16,3.4l16.6,106.8c3.8-1.2,7.7-2,11.5-2.7
				C1118.6,881.7,1120,881.5,1121.4,881.2z"/>
			<path class="st13" d="M1122.3,887c-1.7,0.3-3.3,0.6-5,0.9c-3.5,0.7-7.1,1.4-10.6,2.5l17.2,110.8l16.4,4.2L1122.3,887z"/>
			<path class="st13" d="M1049.6,408.5l-13.6-89.8c-5.9,0.6-11.8,1.5-17.7,2.5l13.8,89C1037.9,408.9,1043.8,408.4,1049.6,408.5z"/>
		</g>
	</g>
	<g>
		<defs>
			<rect id="SVGID_19_" y="0" width="1400" height="980"/>
		</defs>
		<clipPath id="SVGID_20_">
			<use xlink:href="#SVGID_19_"  style="overflow:visible;"/>
		</clipPath>
		<g class="st14">
			<path class="st13" d="M1138.8-38.4l-18.4,5.9l6.5,49.9c6.3,0.8,12.7,0.8,19.1,1.1L1138.8-38.4z"/>
			<path class="st13" d="M1156.1,98.8l-9.4-74.5c-6.3-0.4-12.7-0.3-19.1-1l9.8,75.5C1143.6,98.9,1149.9,99,1156.1,98.8z"/>
			<path class="st13" d="M1156.8,104.7c-6.2,0.2-12.4,0.2-18.6,0.1l14.1,109.1c6-0.6,12.1-1,18.2-1.1L1156.8,104.7z"/>
			<path class="st13" d="M1171.2,218.7c-6.1,0.1-12.1,0.4-18.1,1l11,85.2c5.9-0.8,11.8-1.6,17.7-2.1L1171.2,218.7z"/>
			<path class="st13" d="M1194.6,404.8c-5.9-0.3-11.8,0-17.5,1.2l11.5,89.3c5.7-0.3,11.4-1,17.1-1.8L1194.6,404.8z"/>
			<path class="st13" d="M1221.3,616.5l-14.8-117.2c-5.7,0.9-11.4,1.6-17.1,1.9l15,115.9C1210.1,617.2,1215.7,617.1,1221.3,616.5z"
				/>
			<path class="st13" d="M1222.1,622.3c-5.6,0.5-11.2,0.7-16.8,0.7l18.1,140.2c5.3-1.2,10.7-2.1,16.1-2.9L1222.1,622.3z"/>
			<path class="st13" d="M1253.7,873.4l-13.5-107.2c-5.4,0.8-10.8,1.7-16.1,3l13.9,107.2c3.8-1.1,7.7-1.8,11.5-2.4
				C1250.9,873.8,1252.3,873.6,1253.7,873.4z"/>
			<path class="st13" d="M1254.4,879.2c-1.7,0.2-3.3,0.5-5,0.8c-3.5,0.6-7.1,1.3-10.7,2.2l14.4,111.3l16.3,4.7L1254.4,879.2z"/>
			<path class="st13" d="M1193.9,398.8l-11.4-90.1c-5.9,0.5-11.8,1.2-17.7,2l11.6,89.3C1182.1,398.9,1188,398.6,1193.9,398.8z"/>
		</g>
	</g>
	<g>
		<defs>
			<rect id="SVGID_21_" y="0" width="1400" height="980"/>
		</defs>
		<clipPath id="SVGID_22_">
			<use xlink:href="#SVGID_21_"  style="overflow:visible;"/>
		</clipPath>
		<g class="st15">
			<path class="st13" d="M1383.6-64.9l-18.4,5.9l6.5,49.9c6.3,0.8,12.7,0.8,19.1,1.1L1383.6-64.9z"/>
			<path class="st13" d="M1400.9,72.3l-9.4-74.5c-6.3-0.4-12.7-0.3-19.1-1l9.8,75.5C1388.4,72.5,1394.7,72.5,1400.9,72.3z"/>
			<path class="st13" d="M1401.6,78.2c-6.2,0.2-12.4,0.2-18.6,0.1l14.1,109.1c6-0.6,12.1-1,18.2-1.1L1401.6,78.2z"/>
			<path class="st13" d="M1416,192.2c-6.1,0.1-12.1,0.4-18.1,1l11,85.2c5.9-0.8,11.8-1.6,17.7-2.1L1416,192.2z"/>
			<path class="st13" d="M1439.4,378.3c-5.9-0.3-11.8,0-17.5,1.2l11.5,89.3c5.7-0.3,11.4-1,17.1-1.8L1439.4,378.3z"/>
			<path class="st13" d="M1466.1,590l-14.8-117.2c-5.7,0.9-11.4,1.6-17.1,1.9l15,115.9C1454.9,590.7,1460.5,590.6,1466.1,590z"/>
			<path class="st13" d="M1484.2,733.9l-17.4-138c-5.6,0.5-11.2,0.7-16.8,0.7l18.1,140.2C1473.5,735.6,1478.8,734.7,1484.2,733.9z"
				/>
			<path class="st13" d="M1498.5,846.9L1485,739.7c-5.4,0.8-10.8,1.7-16.1,3l13.9,107.2c3.8-1.1,7.7-1.8,11.5-2.4
				C1495.7,847.3,1497.1,847.1,1498.5,846.9z"/>
			<path class="st13" d="M1514.2,971.7l-15-119c-1.7,0.2-3.3,0.5-5,0.8c-3.5,0.6-7.1,1.3-10.7,2.2l14.4,111.3L1514.2,971.7z"/>
			<path class="st13" d="M1438.7,372.4l-11.4-90.1c-5.9,0.5-11.8,1.2-17.7,2l11.6,89.3C1426.9,372.4,1432.8,372.1,1438.7,372.4z"/>
		</g>
	</g>
	<g>
		<defs>
			<rect id="SVGID_23_" y="0" width="1400" height="980"/>
		</defs>
		<clipPath id="SVGID_24_">
			<use xlink:href="#SVGID_23_"  style="overflow:visible;"/>
		</clipPath>
		<g class="st16">
			<path class="st17" d="M639.8-9.7l-11.9,3l1.4,32.2c4,0.8,8.1,1,12.2,1.4L639.8-9.7z"/>
			<path class="st17" d="M641.7,30.9c-4.1-0.5-8.2-0.7-12.2-1.3l2.2,51.3c4.1,0.3,8.2,0.6,12.4,0.7L641.7,30.9z"/>
			<path class="st17" d="M647.9,164.7l-3.7-79.1c-4.1-0.1-8.2-0.3-12.4-0.6l3.4,79.9C639.5,164.6,643.7,164.6,647.9,164.7z"/>
			<path class="st17" d="M648.1,169.2c-4.2-0.2-8.4-0.2-12.6,0.1l2.9,67.6c4.3-0.4,8.6-0.8,12.8-1L648.1,169.2z"/>
			<path class="st17" d="M655.3,323c-4.4-0.5-8.8-0.4-13.1,0.4l3.6,82.9c4.5,0,8.9-0.5,13.4-1.1L655.3,323z"/>
			<path class="st17" d="M664.9,530.6l-5.6-119.7c-4.5,0.6-8.9,1.1-13.4,1.1l5.1,118.5C655.7,530.8,660.3,530.9,664.9,530.6z"/>
			<path class="st17" d="M665.2,536.9c-4.6,0.4-9.3,0.3-13.9,0.1l7,162.7c4.8-1.3,9.6-2.2,14.3-3L665.2,536.9z"/>
			<path class="st17" d="M679.5,844.9l-6.5-141c-4.8,0.8-9.6,1.7-14.4,3l6.1,141.5c3.6-1.3,7.3-2.1,10.9-2.8
				C676.9,845.3,678.2,845.1,679.5,844.9z"/>
			<path class="st17" d="M679.9,853c-1.6,0.3-3.2,0.6-4.7,0.9c-3.3,0.7-6.8,1.4-10.1,2.7l7.1,166l16,8.1L679.9,853z"/>
			<path class="st17" d="M655,317.8l-3.6-77c-4.3,0.2-8.6,0.5-12.8,1l3.3,76.5C646.3,317.4,650.7,317.3,655,317.8z"/>
		</g>
	</g>
	<g>
		<defs>
			<rect id="SVGID_25_" y="0" width="1400" height="980"/>
		</defs>
		<clipPath id="SVGID_26_">
			<use xlink:href="#SVGID_25_"  style="overflow:visible;"/>
		</clipPath>
		<g class="st18">
			<path class="st17" d="M361-15.3l-3.2,32.1c3.9,1.4,7.9,2.2,11.9,3.2l3.5-36.6L361-15.3z"/>
			<path class="st17" d="M357.4,20.8l-5,51.1c4,0.9,8.1,1.8,12.1,2.5l4.8-50.4C365.3,22.8,361.3,22,357.4,20.8z"/>
			<path class="st17" d="M352,76l-7.9,79.5c4.2,0.4,8.4,1,12.5,1.8l7.5-78.8C360,77.8,356,76.9,352,76z"/>
			<path class="st17" d="M343.7,160l-6.6,67.3c4.3,0.2,8.6,0.4,12.8,0.9l6.3-66.4C352,161,347.9,160.4,343.7,160z"/>
			<path class="st17" d="M341.6,315c-4.2-1.1-8.6-1.8-13.1-1.6l-8.1,82.5c4.4,0.6,8.9,0.9,13.4,1L341.6,315z"/>
			<path class="st17" d="M319.8,401.7l-11.7,118c4.5,1,9.1,1.8,13.7,2.1l11.4-119.3C328.7,402.5,324.2,402.3,319.8,401.7z"/>
			<path class="st17" d="M321.3,528.1c-4.6-0.3-9.2-1.1-13.8-2l-16,162c4.9-0.6,9.8-0.7,14.6-0.8L321.3,528.1z"/>
			<path class="st17" d="M305.5,694.5c-4.9,0.1-9.7,0.3-14.6,0.8L277,836.2c3.8-0.8,7.5-1,11.2-1.2c1.3-0.1,2.7-0.1,4-0.1
				L305.5,694.5z"/>
			<path class="st17" d="M286.5,843.2c-3.4,0.2-6.9,0.4-10.4,1.1l-16.3,165.3l14.7,10.4l16.8-177
				C289.7,843.1,288.1,843.1,286.5,843.2z"/>
			<path class="st17" d="M349.4,233c-4.2-0.5-8.5-0.7-12.8-1l-7.5,76.2c4.4-0.2,8.8,0.4,13.1,1.5L349.4,233z"/>
		</g>
	</g>
	<g>
		<defs>
			<rect id="SVGID_27_" y="0" width="1400" height="980"/>
		</defs>
		<clipPath id="SVGID_28_">
			<use xlink:href="#SVGID_27_"  style="overflow:visible;"/>
		</clipPath>
		<g class="st19">
			<path class="st17" d="M503.2-15.3L500,16.8c3.9,1.4,7.9,2.2,11.9,3.2l3.5-36.6L503.2-15.3z"/>
			<path class="st17" d="M499.6,20.8l-5,51.1c4,0.9,8.1,1.8,12.1,2.5l4.8-50.4C507.6,22.8,503.5,22,499.6,20.8z"/>
			<path class="st17" d="M494.2,76l-7.9,79.5c4.2,0.4,8.4,1,12.5,1.8l7.5-78.8C502.2,77.8,498.2,76.9,494.2,76z"/>
			<path class="st17" d="M485.9,160l-6.6,67.3c4.3,0.2,8.6,0.4,12.8,0.9l6.3-66.4C494.2,161,490.1,160.4,485.9,160z"/>
			<path class="st17" d="M483.8,315c-4.2-1.1-8.6-1.8-13.1-1.6l-8.1,82.5c4.4,0.6,8.9,0.9,13.4,1L483.8,315z"/>
			<path class="st17" d="M462,401.7l-11.7,118c4.5,1,9.1,1.8,13.7,2.1l11.4-119.3C470.9,402.5,466.5,402.3,462,401.7z"/>
			<path class="st17" d="M449.7,526.1l-16,162c4.9-0.6,9.8-0.7,14.6-0.8l15.2-159.2C458.9,527.7,454.3,527,449.7,526.1z"/>
			<path class="st17" d="M447.7,694.5c-4.9,0.1-9.7,0.3-14.6,0.8l-13.9,140.9c3.8-0.8,7.5-1,11.2-1.2c1.3-0.1,2.7-0.1,4-0.1
				L447.7,694.5z"/>
			<path class="st17" d="M428.7,843.2c-3.4,0.2-6.9,0.4-10.4,1.1L402,1009.7l14.7,10.4L433.5,843
				C431.9,843.1,430.3,843.1,428.7,843.2z"/>
			<path class="st17" d="M491.6,233c-4.2-0.5-8.5-0.7-12.8-1l-7.5,76.2c4.4-0.2,8.8,0.4,13.1,1.5L491.6,233z"/>
		</g>
	</g>
	<g>
		<defs>
			<rect id="SVGID_29_" y="0" width="1400" height="980"/>
		</defs>
		<clipPath id="SVGID_30_">
			<use xlink:href="#SVGID_29_"  style="overflow:visible;"/>
		</clipPath>
		<g class="st20">
			<path class="st17" d="M302.1-29.8l-1.2,32.2c3.9,1.1,8,1.7,12,2.5l1.3-36.7L302.1-29.8z"/>
			<path class="st17" d="M300.7,6.4l-2,51.3c4.1,0.7,8.2,1.3,12.3,1.7l1.8-50.6C308.8,8,304.7,7.4,300.7,6.4z"/>
			<path class="st17" d="M310.9,63.6c-4.1-0.4-8.2-1-12.3-1.7l-3.1,79.9c4.2,0.1,8.4,0.5,12.6,1L310.9,63.6z"/>
			<path class="st17" d="M305.6,214l2.3-66.7c-4.2-0.5-8.4-0.9-12.6-1l-2.6,67.6C297.1,213.8,301.3,213.8,305.6,214z"/>
			<path class="st17" d="M302.6,301.1c-4.3-0.9-8.7-1.2-13.1-0.7l-3.2,82.9c4.5,0.3,8.9,0.3,13.4,0.1L302.6,301.1z"/>
			<path class="st17" d="M286,389l-4.5,118.6c4.6,0.7,9.2,1.2,13.8,1.2l4.2-119.8C295,389.2,290.5,389.3,286,389z"/>
			<path class="st17" d="M281.3,513.9L275,676.6c4.9-0.9,9.7-1.3,14.5-1.7l5.6-159.8C290.5,515,285.8,514.6,281.3,513.9z"/>
			<path class="st17" d="M289.3,682.1c-4.8,0.4-9.7,0.9-14.6,1.8l-5.4,141.5c3.7-1,7.5-1.5,11.1-1.9c1.3-0.1,2.7-0.3,4-0.4
				L289.3,682.1z"/>
			<path class="st17" d="M279.3,831.8c-3.3,0.4-6.8,0.9-10.3,1.8l-6.4,166l15.3,9.5l6.2-177.8C282.5,831.5,280.9,831.6,279.3,831.8z
				"/>
			<path class="st17" d="M305.4,218.8c-4.3-0.2-8.6-0.2-12.9-0.1l-2.9,76.5c4.4-0.5,8.8-0.1,13.1,0.7L305.4,218.8z"/>
		</g>
	</g>
	<g>
		<defs>
			<rect id="SVGID_31_" y="0" width="1400" height="980"/>
		</defs>
		<clipPath id="SVGID_32_">
			<use xlink:href="#SVGID_31_"  style="overflow:visible;"/>
		</clipPath>
		<g class="st21">
			<path class="st17" d="M209.3-4.3L208.1,28c3.9,1.1,8,1.7,12,2.5l1.3-36.7L209.3-4.3z"/>
			<path class="st17" d="M208,31.9l-2,51.3c4.1,0.7,8.2,1.3,12.3,1.7l1.8-50.6C216,33.5,211.9,32.9,208,31.9z"/>
			<path class="st17" d="M205.8,87.4l-3.1,79.9c4.2,0.1,8.4,0.5,12.6,1l2.8-79.2C214,88.7,209.9,88.1,205.8,87.4z"/>
			<path class="st17" d="M215.2,172.8c-4.2-0.5-8.4-0.9-12.6-1l-2.6,67.6c4.3-0.1,8.6-0.1,12.9,0.1L215.2,172.8z"/>
			<path class="st17" d="M209.8,326.6c-4.3-0.9-8.7-1.2-13.1-0.7l-3.2,82.9c4.5,0.3,8.9,0.3,13.4,0.1L209.8,326.6z"/>
			<path class="st17" d="M193.3,414.5l-4.5,118.6c4.6,0.7,9.2,1.2,13.8,1.2l4.2-119.8C202.3,414.7,197.8,414.8,193.3,414.5z"/>
			<path class="st17" d="M188.5,539.4l-6.2,162.7c4.9-0.9,9.7-1.3,14.5-1.7l5.6-159.8C197.7,540.5,193.1,540.1,188.5,539.4z"/>
			<path class="st17" d="M196.6,707.6c-4.8,0.4-9.7,0.9-14.6,1.8L176.6,851c3.7-1,7.5-1.5,11.1-1.9c1.3-0.1,2.7-0.3,4-0.4
				L196.6,707.6z"/>
			<path class="st17" d="M186.6,857.3c-3.3,0.4-6.8,0.9-10.3,1.8l-6.4,166l15.3,9.5l6.2-177.8C189.8,857,188.2,857.1,186.6,857.3z"
				/>
			<path class="st17" d="M212.7,244.3c-4.3-0.2-8.6-0.2-12.9-0.1l-2.9,76.5c4.4-0.5,8.8-0.1,13.1,0.7L212.7,244.3z"/>
		</g>
	</g>
	<g>
		<defs>
			<rect id="SVGID_33_" y="0" width="1400" height="980"/>
		</defs>
		<clipPath id="SVGID_34_">
			<use xlink:href="#SVGID_33_"  style="overflow:visible;"/>
		</clipPath>
		<g class="st22">
			<path class="st13" d="M605.4-34.8l-19,3.9l0.7,50.6c6.2,1.5,12.6,2.2,18.9,3.2L605.4-34.8z"/>
			<path class="st13" d="M606,28.8c-6.3-1.1-12.6-1.7-18.8-3l1,76.6c6.2,0.8,12.4,1.5,18.6,1.9L606,28.8z"/>
			<path class="st13" d="M606.8,110.3c-6.2-0.4-12.4-1.1-18.6-1.9l1.4,110.7c6.1,0,12.1,0.3,18.2,0.9L606.8,110.3z"/>
			<path class="st13" d="M608.8,311.3L608,226c-6-0.5-12.1-0.9-18.2-0.9l1.1,86.4C596.8,311.3,602.8,311.1,608.8,311.3z"/>
			<path class="st13" d="M610.6,504.5l-0.9-89.9c-5.8-0.9-11.7-1.2-17.5-0.6l1.2,90.6C599.1,504.8,604.9,504.7,610.6,504.5z"/>
			<path class="st13" d="M610.7,510.4c-5.8,0.3-11.5,0.3-17.2,0.1L595,628c5.6,0.7,11.2,1.1,16.9,1.2L610.7,510.4z"/>
			<path class="st13" d="M611.9,635.1c-5.6-0.1-11.2-0.5-16.8-1.1l1.8,142.2c5.4-0.6,10.9-1,16.3-1.2L611.9,635.1z"/>
			<path class="st13" d="M614.4,889.6l-1.1-108.7c-5.4,0.3-10.9,0.6-16.3,1.3l1.4,108.7c3.9-0.6,7.9-0.9,11.7-1.1
				C611.5,889.7,612.9,889.6,614.4,889.6z"/>
			<path class="st13" d="M614.4,895.5c-1.7,0.1-3.4,0.2-5.1,0.3c-3.5,0.3-7.2,0.5-10.9,1.1l1.5,112.8l15.7,6.4L614.4,895.5z"/>
			<path class="st13" d="M609.7,408.5l-0.9-91.3c-5.9-0.2-11.9,0-17.9,0.1l1.2,90.6C598,407.4,603.9,407.7,609.7,408.5z"/>
		</g>
	</g>
	<g>
		<defs>
			<rect id="SVGID_35_" y="0" width="1400" height="980"/>
		</defs>
		<clipPath id="SVGID_36_">
			<use xlink:href="#SVGID_35_"  style="overflow:visible;"/>
		</clipPath>
		<g class="st23">
			<path class="st13" d="M95.6-19.4l-19.2-0.3l-9,49.5c5.8,2.8,11.8,4.9,17.8,7.2L95.6-19.4z"/>
			<path class="st13" d="M66.3,35.6l-13.6,74.9c5.9,2.1,11.8,4.2,17.8,6l13.6-73.8C78.2,40.3,72.1,38.3,66.3,35.6z"/>
			<path class="st13" d="M51.6,116.4L32,224.6c5.9,1.3,11.8,3,17.6,4.8l19.8-107.1C63.4,120.5,57.5,118.5,51.6,116.4z"/>
			<path class="st13" d="M30.9,230.4l-15.3,84.5c5.9,1.1,11.7,2.3,17.5,3.7l15.4-83.4C42.7,233.4,36.8,231.8,30.9,230.4z"/>
			<path class="st13" d="M-2.6,415.1l-16.1,88.5c5.5,1.6,11.2,2.8,16.8,3.8l16.3-87.9C8.9,417.4,3.2,415.8-2.6,415.1z"/>
			<path class="st13" d="M-19.8,509.5l-20.9,115c5.3,1.9,10.7,3.6,16.2,4.9L-3,513.3C-8.6,512.2-14.2,511-19.8,509.5z"/>
			<path class="st13" d="M-41.7,630.3L-67,769.4c5.4,0.6,10.8,1.4,16.2,2.4l25.3-136.7C-31,633.8-36.4,632.1-41.7,630.3z"/>
			<path class="st13" d="M-51.9,777.5c-5.4-0.9-10.7-1.8-16.2-2.3l-19.3,106.3c3.9,0.2,7.9,0.8,11.7,1.5c1.4,0.2,2.8,0.5,4.2,0.7
				L-51.9,777.5z"/>
			<path class="st13" d="M-72.6,889.5c-1.7-0.3-3.3-0.6-5-0.8c-3.5-0.5-7.2-1.1-10.8-1.3l-20,110.3l14.1,9.7L-72.6,889.5z"/>
			<path class="st13" d="M14.5,320.7l-16.1,88.6c5.8,0.7,11.5,2.3,17,4.4L32,324.5C26.2,323,20.4,321.8,14.5,320.7z"/>
		</g>
	</g>
	<g>
		<defs>
			<rect id="SVGID_37_" y="0" width="1400" height="980"/>
		</defs>
		<clipPath id="SVGID_38_">
			<use xlink:href="#SVGID_37_"  style="overflow:visible;"/>
		</clipPath>
		<g class="st24">
			<path class="st3" d="M514.5-0.9l-11,5.6l8.1,31.2c4.1-0.1,8.1-0.8,12.2-1.3L514.5-0.9z"/>
			<path class="st3" d="M524.9,38.2c-4.1,0.4-8.1,1.2-12.2,1.4l12.9,49.6c4.1-0.6,8.2-1.3,12.2-2.1L524.9,38.2z"/>
			<path class="st3" d="M559.1,167.5l-20.2-76.4c-4,0.9-8.1,1.5-12.2,2.2l20.2,77.2C550.9,169.3,555,168.3,559.1,167.5z"/>
			<path class="st3" d="M560.3,171.9c-4.1,0.8-8.2,1.7-12.3,2.9l17.1,65.3c4.1-1.4,8.2-2.7,12.3-3.9L560.3,171.9z"/>
			<path class="st3" d="M599.6,320.4c-4.4,0.5-8.7,1.5-12.7,3.3l20.9,80.1c4.4-1,8.6-2.5,12.9-4L599.6,320.4z"/>
			<path class="st3" d="M622.1,405.3c-4.2,1.6-8.5,3-12.9,4.1L639.1,524c4.6-0.8,9.1-1.7,13.6-3.1L622.1,405.3z"/>
			<path class="st3" d="M654.3,526.9c-4.5,1.4-9,2.4-13.6,3.2l41,157.2c4.4-2.3,8.9-4.2,13.4-6.1L654.3,526.9z"/>
			<path class="st3" d="M733.1,824.4L697,688.2c-4.5,1.9-9,3.8-13.4,6.2l35.7,136.8c3.3-2.1,6.7-3.7,10-5.2
				C730.6,825.4,731.8,824.9,733.1,824.4z"/>
			<path class="st3" d="M735.1,832.2c-1.5,0.6-3,1.3-4.4,2c-3.1,1.5-6.3,2.9-9.3,4.9l41.9,160.4l17.3,4.3L735.1,832.2z"/>
			<path class="st3" d="M578.6,240.9c-4.1,1.1-8.2,2.4-12.3,3.8l19.3,73.9c4.1-1.8,8.4-2.8,12.7-3.4L578.6,240.9z"/>
		</g>
	</g>
	<g>
		<defs>
			<rect id="SVGID_39_" y="0" width="1400" height="980"/>
		</defs>
		<clipPath id="SVGID_40_">
			<use xlink:href="#SVGID_39_"  style="overflow:visible;"/>
		</clipPath>
		<g class="st25">
			<path class="st3" d="M425.9-3.8l-3.2,32.1c3.9,1.4,7.9,2.2,11.9,3.3L438.1-5L425.9-3.8z"/>
			<path class="st3" d="M422.3,32.2l-5.1,51.1c4,0.9,8.1,1.8,12.1,2.5l4.9-50.4C430.2,34.3,426.2,33.5,422.3,32.2z"/>
			<path class="st3" d="M416.7,87.4l-8,79.5c4.2,0.4,8.4,1,12.5,1.8l7.7-78.8C424.8,89.2,420.8,88.4,416.7,87.4z"/>
			<path class="st3" d="M408.3,171.4l-6.8,67.3c4.3,0.2,8.6,0.5,12.8,0.9l6.5-66.4C416.7,172.5,412.5,171.8,408.3,171.4z"/>
			<path class="st3" d="M392.9,324.9l-8.3,82.5c4.4,0.6,8.9,0.9,13.4,1l8-81.9C401.7,325.3,397.3,324.7,392.9,324.9z"/>
			<path class="st3" d="M397.4,414c-4.5-0.1-9-0.3-13.4-0.9l-11.9,118c4.5,1,9.1,1.8,13.7,2.1L397.4,414z"/>
			<path class="st3" d="M371.5,537.4l-16.3,161.9c4.9-0.5,9.8-0.7,14.6-0.8l15.5-159.1C380.6,539.1,376,538.4,371.5,537.4z"/>
			<path class="st3" d="M369.1,705.8c-4.9,0.1-9.7,0.2-14.6,0.8l-14.2,140.9c3.8-0.7,7.5-1,11.2-1.1c1.3-0.1,2.7-0.1,4-0.1
				L369.1,705.8z"/>
			<path class="st3" d="M354.6,854.4c-1.6,0-3.2,0.1-4.8,0.2c-3.4,0.2-6.9,0.4-10.4,1.1L322.8,1021l14.6,10.5L354.6,854.4z"/>
			<path class="st3" d="M413.9,244.5c-4.2-0.5-8.5-0.8-12.8-1l-7.7,76.2c4.4-0.2,8.8,0.4,13,1.6L413.9,244.5z"/>
		</g>
	</g>
	<g>
		<defs>
			<rect id="SVGID_41_" y="0" width="1400" height="980"/>
		</defs>
		<clipPath id="SVGID_42_">
			<use xlink:href="#SVGID_41_"  style="overflow:visible;"/>
		</clipPath>
		<g class="st26">
			<path class="st3" d="M1121.1-35.6l-11.7,3.8l3.3,32.1c4,0.5,8.2,0.5,12.3,0.7L1121.1-35.6z"/>
			<path class="st3" d="M1130.8,55.1l-5.4-50.4c-4.1-0.2-8.2-0.2-12.3-0.6l5.3,51.1C1122.5,55.3,1126.6,55.3,1130.8,55.1z"/>
			<path class="st3" d="M1131.2,59.2c-4.1,0.2-8.3,0.2-12.4,0.2l8.2,79.5c4.2-0.5,8.4-0.8,12.6-0.9L1131.2,59.2z"/>
			<path class="st3" d="M1140.1,142.4c-4.2,0.1-8.4,0.4-12.6,0.9l7,67.3c4.2-0.7,8.5-1.4,12.7-1.8L1140.1,142.4z"/>
			<path class="st3" d="M1156.5,295.5c-4.4-0.2-8.8,0.1-13.1,1.3l8.5,82.5c4.5-0.3,8.9-1,13.3-1.9L1156.5,295.5z"/>
			<path class="st3" d="M1165.8,382.9c-4.4,0.9-8.9,1.6-13.3,2l12.2,118c4.6,0,9.3-0.2,13.9-0.8L1165.8,382.9z"/>
			<path class="st3" d="M1179.2,508.3c-4.6,0.7-9.2,0.9-13.9,0.9l16.8,161.9c4.7-1.6,9.4-2.8,14.1-3.9L1179.2,508.3z"/>
			<path class="st3" d="M1212,814.8l-15-140.3c-4.7,1.1-9.5,2.3-14.2,3.9l14.6,140.9c3.5-1.5,7.2-2.6,10.7-3.5
				C1209.4,815.4,1210.7,815.1,1212,814.8z"/>
			<path class="st3" d="M1212.9,822.8c-1.6,0.4-3.1,0.8-4.7,1.2c-3.2,0.9-6.7,1.9-9.9,3.3l17.1,165.2l16.4,7.1L1212.9,822.8z"/>
			<path class="st3" d="M1155.9,290.2l-8.2-76.7c-4.3,0.4-8.5,1.1-12.8,1.8l7.9,76.1C1147.1,290.4,1151.5,290,1155.9,290.2z"/>
		</g>
	</g>
	<g>
		<defs>
			<rect id="SVGID_43_" y="0" width="1400" height="980"/>
		</defs>
		<clipPath id="SVGID_44_">
			<use xlink:href="#SVGID_43_"  style="overflow:visible;"/>
		</clipPath>
		<g class="st27">
			<path class="st3" d="M307.7-30.3l-3.2,32.1c3.9,1.4,7.9,2.2,11.9,3.3l3.6-36.6L307.7-30.3z"/>
			<path class="st3" d="M304.1,5.7L299,56.8c4,0.9,8.1,1.8,12.1,2.5L316,8.9C312,7.8,308,6.9,304.1,5.7z"/>
			<path class="st3" d="M310.7,63.4c-4.1-0.7-8.1-1.6-12.1-2.5l-8,79.5c4.2,0.4,8.4,1,12.5,1.8L310.7,63.4z"/>
			<path class="st3" d="M290.1,144.9l-6.8,67.3c4.3,0.2,8.6,0.5,12.8,0.9l6.5-66.4C298.5,145.9,294.3,145.3,290.1,144.9z"/>
			<path class="st3" d="M274.6,298.3l-8.3,82.5c4.4,0.6,8.9,0.9,13.4,1l8-81.9C283.5,298.8,279.1,298.1,274.6,298.3z"/>
			<path class="st3" d="M265.8,386.5l-11.9,118c4.5,1,9.1,1.8,13.7,2.1l11.6-119.2C274.7,387.3,270.2,387.1,265.8,386.5z"/>
			<path class="st3" d="M253.2,510.9l-16.3,161.9c4.9-0.5,9.8-0.7,14.6-0.8L267,512.9C262.4,512.6,257.8,511.8,253.2,510.9z"/>
			<path class="st3" d="M250.9,679.3c-4.9,0.1-9.7,0.2-14.6,0.8L222,821c3.8-0.7,7.5-1,11.2-1.1c1.3-0.1,2.7-0.1,4-0.1L250.9,679.3z
				"/>
			<path class="st3" d="M231.6,828c-3.4,0.2-6.9,0.4-10.4,1.1l-16.6,165.3l14.6,10.5l17.2-177C234.8,827.8,233.2,827.9,231.6,828z"
				/>
			<path class="st3" d="M295.7,217.9c-4.2-0.5-8.5-0.8-12.8-1l-7.7,76.2c4.4-0.2,8.8,0.4,13,1.6L295.7,217.9z"/>
		</g>
	</g>
	<g>
		<defs>
			<rect id="SVGID_45_" y="0" width="1400" height="980"/>
		</defs>
		<clipPath id="SVGID_46_">
			<use xlink:href="#SVGID_45_"  style="overflow:visible;"/>
		</clipPath>
		<g class="st28">
			<path class="st3" d="M1057.6,49.1l-6-36.2l-11.4,4.5l5.1,31.8C1049.4,49.5,1053.6,49.2,1057.6,49.1z"/>
			<path class="st3" d="M1066.5,102.8l-8.2-50c-4.1,0-8.2,0.3-12.3,0.2l8.2,50.7C1058.3,103.5,1062.4,103.3,1066.5,102.8z"/>
			<path class="st3" d="M1067.2,106.9c-4.1,0.4-8.2,0.7-12.3,0.9l12.7,78.9c4.2-0.8,8.3-1.3,12.5-1.7L1067.2,106.9z"/>
			<path class="st3" d="M1080.8,189.5c-4.2,0.4-8.4,0.9-12.5,1.7l10.8,66.8c4.2-1,8.4-1.9,12.6-2.6L1080.8,189.5z"/>
			<path class="st3" d="M1105.8,341.3c-4.4,0-8.8,0.7-13,2l13.2,81.8c4.4-0.6,8.8-1.6,13.2-2.7L1105.8,341.3z"/>
			<path class="st3" d="M1120.1,428c-4.4,1.2-8.8,2.2-13.2,2.8l18.9,117c4.6-0.3,9.2-0.8,13.8-1.7L1120.1,428z"/>
			<path class="st3" d="M1140.5,552.3c-4.6,0.9-9.2,1.5-13.8,1.8l25.9,160.6c4.6-1.9,9.2-3.3,13.9-4.7L1140.5,552.3z"/>
			<path class="st3" d="M1190.6,856.3l-22.9-139.2c-4.7,1.4-9.3,2.9-13.9,4.8l22.5,139.7c3.4-1.7,7-3,10.5-4.1
				C1188,857.1,1189.3,856.7,1190.6,856.3z"/>
			<path class="st3" d="M1191.9,864.3c-1.5,0.5-3.1,1-4.6,1.5c-3.2,1.1-6.5,2.3-9.7,3.9l26.4,163.9l16.8,6.1L1191.9,864.3z"/>
			<path class="st3" d="M1092.4,260c-4.2,0.7-8.4,1.6-12.6,2.6l12.2,75.5c4.2-1.4,8.6-2,13-2.1L1092.4,260z"/>
		</g>
	</g>
	<g>
		<defs>
			<rect id="SVGID_47_" y="0" width="1400" height="980"/>
		</defs>
		<clipPath id="SVGID_48_">
			<use xlink:href="#SVGID_47_"  style="overflow:visible;"/>
		</clipPath>
		<g class="st29">
			<path class="st13" d="M274.5,8.4l-6.7,31.5c3.7,1.8,7.6,3.1,11.4,4.6l7.6-35.9L274.5,8.4z"/>
			<path class="st13" d="M266.9,43.7l-10.7,50.1c3.9,1.4,7.8,2.7,11.8,3.9l10.4-49.5C274.6,46.7,270.6,45.4,266.9,43.7z"/>
			<path class="st13" d="M255.3,97.9L238.6,176c4.1,0.9,8.2,2,12.2,3.2l16.3-77.4C263.1,100.6,259.2,99.3,255.3,97.9z"/>
			<path class="st13" d="M237.7,180.4l-14.1,66.1c4.2,0.7,8.5,1.5,12.6,2.4l13.7-65.2C245.9,182.4,241.8,181.2,237.7,180.4z"/>
			<path class="st13" d="M205.4,331l-17.3,81c4.3,1.2,8.8,1.9,13.2,2.5l16.9-80.4C214.1,332.5,209.8,331.3,205.4,331z"/>
			<path class="st13" d="M186.9,417.6l-24.8,115.9c4.4,1.5,8.8,2.8,13.4,3.7l24.6-117.1C195.7,419.5,191.2,418.7,186.9,417.6z"/>
			<path class="st13" d="M160.8,539.7l-34,159c4.9,0,9.8,0.5,14.6,1l32.9-156.3C169.6,542.4,165.2,541.2,160.8,539.7z"/>
			<path class="st13" d="M110.8,844.7l29-138c-4.8-0.5-9.7-0.9-14.6-0.9L95.6,844.1c3.8-0.3,7.6-0.1,11.2,0.2
				C108.2,844.4,109.5,844.5,110.8,844.7z"/>
			<path class="st13" d="M104.4,852.2c-3.4-0.2-6.9-0.4-10.5-0.1l-34.7,162.3l13.4,12.1l36.6-173.9
				C107.6,852.4,106,852.3,104.4,852.2z"/>
			<path class="st13" d="M222.5,251.1l-16,74.8c4.4,0.4,8.7,1.5,12.8,3.1l15.9-75.4C231,252.6,226.8,251.8,222.5,251.1z"/>
		</g>
	</g>
	<g>
		<defs>
			<rect id="SVGID_49_" y="0" width="1400" height="980"/>
		</defs>
		<clipPath id="SVGID_50_">
			<use xlink:href="#SVGID_49_"  style="overflow:visible;"/>
		</clipPath>
		<g class="st30">
			<path class="st13" d="M153.2-7.3L151.6,25c3.9,1.2,8,1.8,12,2.6l1.7-36.7L153.2-7.3z"/>
			<path class="st13" d="M151.4,28.9l-2.6,51.3c4.1,0.7,8.1,1.4,12.2,1.9l2.3-50.6C159.4,30.5,155.3,29.9,151.4,28.9z"/>
			<path class="st13" d="M148.6,84.3l-4,79.9c4.2,0.2,8.4,0.6,12.6,1.1l3.7-79.1C156.8,85.7,152.7,85,148.6,84.3z"/>
			<path class="st13" d="M157,169.8c-4.2-0.6-8.4-1-12.6-1.2l-3.4,67.6c4.3,0,8.6,0,12.9,0.3L157,169.8z"/>
			<path class="st13" d="M149.8,323.6c-4.3-0.9-8.7-1.3-13.1-0.9l-4.1,82.8c4.5,0.4,8.9,0.4,13.4,0.3L149.8,323.6z"/>
			<path class="st13" d="M132.3,411.2l-5.9,118.5c4.6,0.7,9.2,1.3,13.8,1.4l5.6-119.7C141.2,411.6,136.7,411.6,132.3,411.2z"/>
			<path class="st13" d="M126.1,536.1L118,698.7c4.9-0.8,9.7-1.2,14.5-1.5l7.4-159.8C135.3,537.3,130.6,536.8,126.1,536.1z"/>
			<path class="st13" d="M132.2,704.4c-4.8,0.3-9.7,0.8-14.6,1.6l-7.1,141.5c3.7-0.9,7.5-1.4,11.1-1.7c1.3-0.1,2.7-0.2,4-0.3
				L132.2,704.4z"/>
			<path class="st13" d="M120.4,854c-3.4,0.4-6.9,0.8-10.3,1.7l-8.3,165.9l15.2,9.7l8.2-177.7C123.6,853.6,122,853.8,120.4,854z"/>
			<path class="st13" d="M153.7,241.3c-4.3-0.3-8.6-0.3-12.9-0.3l-3.8,76.5c4.4-0.4,8.8,0,13.1,0.9L153.7,241.3z"/>
		</g>
	</g>
	<g>
		<defs>
			<rect id="SVGID_51_" y="0" width="1400" height="980"/>
		</defs>
		<clipPath id="SVGID_52_">
			<use xlink:href="#SVGID_51_"  style="overflow:visible;"/>
		</clipPath>
		<g class="st31">
			<path class="st13" d="M595.3-23.2L593.7,9c3.9,1.2,8,1.8,12,2.6l1.7-36.7L595.3-23.2z"/>
			<path class="st13" d="M593.5,12.9l-2.6,51.3c4.1,0.7,8.1,1.4,12.2,1.9l2.3-50.6C601.5,14.6,597.4,14,593.5,12.9z"/>
			<path class="st13" d="M590.7,68.4l-4,79.9c4.2,0.2,8.4,0.6,12.6,1.1l3.7-79.1C598.8,69.7,594.8,69.1,590.7,68.4z"/>
			<path class="st13" d="M599.1,153.8c-4.2-0.6-8.4-1-12.6-1.2l-3.4,67.6c4.3,0,8.6,0,12.9,0.3L599.1,153.8z"/>
			<path class="st13" d="M591.9,307.6c-4.3-0.9-8.7-1.3-13.1-0.9l-4.1,82.8c4.5,0.4,8.9,0.4,13.4,0.3L591.9,307.6z"/>
			<path class="st13" d="M574.4,395.3l-5.9,118.5c4.6,0.7,9.2,1.3,13.8,1.4l5.6-119.7C583.3,395.7,578.8,395.7,574.4,395.3z"/>
			<path class="st13" d="M568.2,520.2L560,682.8c4.9-0.8,9.7-1.2,14.5-1.5l7.4-159.8C577.3,521.4,572.7,520.9,568.2,520.2z"/>
			<path class="st13" d="M574.3,688.5c-4.8,0.3-9.7,0.8-14.6,1.6l-7.1,141.5c3.7-0.9,7.5-1.4,11.1-1.7c1.3-0.1,2.7-0.2,4-0.3
				L574.3,688.5z"/>
			<path class="st13" d="M562.5,838c-3.4,0.4-6.9,0.8-10.3,1.7l-8.3,165.9l15.2,9.7l8.2-177.7C565.7,837.7,564.1,837.8,562.5,838z"
				/>
			<path class="st13" d="M595.7,225.4c-4.3-0.3-8.6-0.3-12.9-0.3l-3.8,76.5c4.4-0.4,8.8,0,13.1,0.9L595.7,225.4z"/>
		</g>
	</g>
	<g>
		<defs>
			<rect id="SVGID_53_" y="0" width="1400" height="980"/>
		</defs>
		<clipPath id="SVGID_54_">
			<use xlink:href="#SVGID_53_"  style="overflow:visible;"/>
		</clipPath>
		<g class="st32">
			<path class="st3" d="M495.5-0.3l-11.9,2.9l1.1,32.3c4,0.8,8.1,1.1,12.2,1.5L495.5-0.3z"/>
			<path class="st3" d="M497.1,40.3c-4.1-0.5-8.2-0.8-12.2-1.5l1.8,51.3c4.1,0.4,8.2,0.6,12.3,0.8L497.1,40.3z"/>
			<path class="st3" d="M502.2,174.2l-3-79.2c-4.1-0.1-8.2-0.4-12.4-0.7l2.8,79.9C493.8,174,498,174,502.2,174.2z"/>
			<path class="st3" d="M502.3,178.7c-4.2-0.2-8.4-0.2-12.6,0l2.3,67.6c4.3-0.4,8.6-0.8,12.8-0.9L502.3,178.7z"/>
			<path class="st3" d="M508.2,332.6c-4.4-0.5-8.8-0.5-13.2,0.3l2.9,82.9c4.5,0,8.9-0.4,13.4-0.9L508.2,332.6z"/>
			<path class="st3" d="M516,540.2l-4.5-119.8c-4.5,0.6-9,1-13.4,1l4.1,118.6C506.8,540.4,511.4,540.5,516,540.2z"/>
			<path class="st3" d="M516.3,546.5c-4.6,0.3-9.3,0.2-13.9-0.1l5.6,162.7c4.8-1.2,9.6-2.1,14.4-2.8L516.3,546.5z"/>
			<path class="st3" d="M528,854.6l-5.4-141.1c-4.8,0.8-9.6,1.6-14.4,2.9l4.9,141.6c3.6-1.3,7.3-2,10.9-2.7
				C525.3,855,526.7,854.8,528,854.6z"/>
			<path class="st3" d="M528.3,862.7c-1.6,0.3-3.2,0.5-4.7,0.9c-3.3,0.7-6.8,1.4-10.2,2.6l5.7,166.1l15.9,8.3L528.3,862.7z"/>
			<path class="st3" d="M508,327.3l-2.9-77.1c-4.3,0.1-8.6,0.5-12.8,0.9l2.6,76.5C499.2,326.8,503.6,326.8,508,327.3z"/>
		</g>
	</g>
	<g>
		<defs>
			<rect id="SVGID_55_" y="0" width="1400" height="980"/>
		</defs>
		<clipPath id="SVGID_56_">
			<use xlink:href="#SVGID_55_"  style="overflow:visible;"/>
		</clipPath>
		<g class="st33">
			<path class="st3" d="M183-3.7l-12,2.5l0.2,32.3c4,0.9,8.1,1.3,12.1,1.9L183-3.7z"/>
			<path class="st3" d="M183.3,36.9c-4-0.6-8.1-1-12.1-1.8l0.3,51.4c4.1,0.5,8.2,0.9,12.3,1.2L183.3,36.9z"/>
			<path class="st3" d="M184.5,170.9l-0.7-79.2c-4.1-0.2-8.2-0.6-12.3-1.1l0.4,80C176.1,170.5,180.3,170.6,184.5,170.9z"/>
			<path class="st3" d="M184.5,175.5c-4.2-0.3-8.4-0.5-12.6-0.4l0.4,67.7c4.3-0.3,8.6-0.5,12.8-0.5L184.5,175.5z"/>
			<path class="st3" d="M186.6,411.7l-0.7-82.3c-4.3-0.7-8.8-0.8-13.2-0.1l0.4,83C177.7,412.4,182.1,412.1,186.6,411.7z"/>
			<path class="st3" d="M187.7,537.2l-1.1-119.8c-4.5,0.4-9,0.7-13.5,0.6l0.6,118.6C178.5,537.1,183.1,537.4,187.7,537.2z"/>
			<path class="st3" d="M187.8,543.5c-4.7,0.2-9.3-0.1-13.9-0.5l0.9,162.8c4.8-1.1,9.6-1.8,14.4-2.4L187.8,543.5z"/>
			<path class="st3" d="M190.5,851.8l-1.2-141.2c-4.8,0.6-9.6,1.3-14.5,2.5l0.8,141.7c3.7-1.2,7.4-1.8,11-2.4
				C187.9,852.2,189.2,852,190.5,851.8z"/>
			<path class="st3" d="M190.6,859.9c-1.6,0.2-3.2,0.4-4.8,0.7c-3.3,0.6-6.8,1.2-10.2,2.3l0.9,166.2l15.7,8.7L190.6,859.9z"/>
			<path class="st3" d="M185.9,324.1l-0.7-77.1c-4.3,0-8.6,0.2-12.9,0.5l0.4,76.6C177.1,323.4,181.5,323.5,185.9,324.1z"/>
		</g>
	</g>
	<g>
		<defs>
			<rect id="SVGID_57_" y="0" width="1400" height="980"/>
		</defs>
		<clipPath id="SVGID_58_">
			<use xlink:href="#SVGID_57_"  style="overflow:visible;"/>
		</clipPath>
		<g class="st34">
			<path class="st11" d="M969,73.9c-7.5-45-12.2-71.7-12.2-71.7l-41.2,4.2c4.8,21.7,9.4,44.3,13.9,67.8
				C942.6,75,955.8,73.8,969,73.9z"/>
			<path class="st11" d="M985.8,175.6c-6-36.8-11.4-69.3-15.8-95.9c-13.1-0.2-26.2,1-39.3,0.5c5.8,30.6,11.4,62.5,16.7,95.4H985.8z"
				/>
			<path class="st11" d="M986.7,181.6h-38.4c8.1,50.4,15.8,102.8,22.9,155.8c13.6,0.5,27.1,1.7,40.7,2.7
				C1003,282.6,994.4,228.7,986.7,181.6z"/>
			<path class="st11" d="M1035.6,497.8c-7.5-51.7-15.2-102.9-22.8-151.7c-13.6-1-27.2-2.2-40.8-2.8c6.9,51.9,13.3,104.3,19.2,155.7
				C1006,499.9,1020.8,499.3,1035.6,497.8z"/>
			<path class="st11" d="M1036.4,503.6c-14.8,1.6-29.7,2.2-44.6,1.4c5.7,50.3,10.9,99.6,15.6,146.6c16.3-0.4,32.9-2,49.3-2
				C1050.4,601.6,1043.5,552.4,1036.4,503.6z"/>
			<path class="st11" d="M1074.4,792.3c-4.9-43.3-10.6-89.5-16.9-136.9c-16.5-0.2-33.1,1.6-49.4,2.1c4.8,48.5,9.1,94.4,12.8,136.3
				c13.4-0.5,26.7-1.5,40.1-1.7C1065.4,792.1,1069.9,792.1,1074.4,792.3z"/>
			<path class="st11" d="M1085,898c-6.4-1.1-12.8-1.9-19.2-2.4c-12-1-24.2-1.3-36.3-0.2c6.4,79.4,9.7,128.9,9.7,128.9l49.5,29.7
				C1093,1024.2,1091,968.6,1085,898z"/>
			<path class="st11" d="M1065.8,889.6c6.2,0.6,12.5,1.3,18.7,2.3c-2.5-29.1-5.7-60.5-9.4-93.7c-5.8-0.3-11.6-0.2-17.3-0.1
				c-12.1,0.3-24.2,1.2-36.3,1.6c2.9,32.7,5.4,62.9,7.6,89.8C1041.3,888.3,1053.7,888.5,1065.8,889.6z"/>
		</g>
	</g>
	<g>
		<defs>
			<rect id="SVGID_59_" y="0" width="1400" height="980"/>
		</defs>
		<clipPath id="SVGID_60_">
			<use xlink:href="#SVGID_59_"  style="overflow:visible;"/>
		</clipPath>
		<g class="st35">
			<path class="st36" d="M648-13.1L633.6,1.8c0,0,2.2,34.2,6.9,90.8c5.1-0.1,10.3-0.2,15.4-0.2C653,57.8,650.3,22.7,648-13.1z"/>
			<path class="st36" d="M678.4,309.5c-5.7,0.5-11.4,1.2-17.1,1.8c6.3,58.3,13.8,121.4,22.4,185.9c6.8-1.2,13.6-1.9,20.4-3
				C695,436.1,686.3,374.3,678.4,309.5z"/>
			<path class="st36" d="M705,500c-6.8,1.1-13.7,1.8-20.5,3c5.6,41.7,11.8,84,18.4,126c7.8-0.8,15.6-1.8,23.1-3.9
				C718.9,585.7,711.9,543.9,705,500z"/>
			<path class="st36" d="M727,630.8c-7.6,2-15.4,3-23.2,3.8c6.8,42.8,14.2,85.2,22.2,126.2c8.2-2.3,16.6-3.8,25.1-4.7
				C743.2,717.7,735.1,675.8,727,630.8z"/>
			<path class="st36" d="M817,1034.6c0,0-16.9-57.9-40.4-160.2c-8.5,0.9-16.8,2.5-25.1,4.6c14.2,58.6,29.8,111.6,46.9,155.6H817z"/>
			<path class="st36" d="M752.3,762c-8.5,0.8-16.9,2.3-25.1,4.6c7.2,36.9,14.9,72.6,23,106.6c8.3-2.1,16.7-3.8,25.2-4.7
				C768.1,837,760.3,801.3,752.3,762z"/>
			<path class="st36" d="M656.4,98.3c-5.1,0-10.3,0.1-15.4,0.2c1.9,23.1,4.2,49.7,6.9,79.1c5.2-0.8,10.4-1.5,15.6-1.9
				C661,150.3,658.6,124.5,656.4,98.3z"/>
			<path class="st36" d="M664.1,181.6c-5.2,0.4-10.5,1.1-15.7,1.9c3.4,36.9,7.5,78,12.2,121.9c5.7-0.6,11.3-1.3,17-1.8
				C672.8,264,668.3,223.3,664.1,181.6z"/>
		</g>
	</g>
	<g>
		<defs>
			<rect id="SVGID_61_" y="0" width="1400" height="980"/>
		</defs>
		<clipPath id="SVGID_62_">
			<use xlink:href="#SVGID_61_"  style="overflow:visible;"/>
		</clipPath>
		<g class="st37">
			<path class="st9" d="M812.5,209.1l92.2-15.3c-1.3-2.7-3-5.7-5.5-8.8c-10.3-12.7-24.7-197.6-24.7-197.6l-96-22.7
				c0,0,40.2,216.7,35.5,235.9C813.2,203.8,812.7,206.7,812.5,209.1z"/>
			<path class="st9" d="M905.8,196.7l-93.6,17.2c0.2,8.2,3.3,10.6,3.3,10.6s35.5,194.4,34,208.8c-0.2,1.6-0.2,3.2-0.1,4.6l108.6-18
				c-4.2-7.7-11.1-15.4-11.1-15.4l-39.5-196.2C907.4,208.4,908.3,203.6,905.8,196.7z"/>
			<path class="st9" d="M960.2,424.8l-109.8,18c2.5,7.6,8.4,11.1,8.4,11.1s37.1,235.9,34,255c-0.4,2.3-0.5,4.4-0.5,6.3l120.6-21.4
				c-2.7-6.2-7.3-10.4-7.3-10.4l-47.9-243.8c0,0,0,0,3.1-8C961.5,429.8,961.2,427.4,960.2,424.8z"/>
			<path class="st9" d="M1014.7,699.6L893,722.9c2.1,9.1,7.5,13.1,7.5,13.1l40.2,298l143.7-4.8l-71.1-318.7
				C1015,706.7,1015.2,703,1014.7,699.6z"/>
		</g>
	</g>
	<g>
		<defs>
			<rect id="SVGID_63_" y="0" width="1400" height="980"/>
		</defs>
		<clipPath id="SVGID_64_">
			<use xlink:href="#SVGID_63_"  style="overflow:visible;"/>
		</clipPath>
		<g class="st38">
			<path class="st39" d="M981.6-38.1l-35,6.4c9.9,31.6,19.5,64.4,28.9,98.1c10.2,1.2,20.5,1.2,30.7,1.8
				C991.1,2.4,981.6-38.1,981.6-38.1z"/>
			<path class="st39" d="M1029.5,172.2c-8.6,0.2-17.3,1.4-25.8,2.2c6.6,26.4,13,53.1,19.2,79.9c8.2,0,16.5,0,24.8,0.2
				C1041.4,225.7,1035.3,198.1,1029.5,172.2z"/>
			<path class="st39" d="M1073.9,375.6c-8.5-39.8-16.8-78.5-24.8-115.2c-8.3-0.2-16.5-0.2-24.8-0.2c8.9,38.6,17.5,77.4,25.6,115.8
				C1057.8,375.2,1065.8,375.2,1073.9,375.6z"/>
			<path class="st39" d="M1099.3,497.5c-8.4-0.1-16.8-0.5-25.1-1.8c6.9,35.4,13.4,70,19.6,103.5c8.6-0.7,17.2-1,25.8-1
				C1113,564.9,1106.2,531.1,1099.3,497.5z"/>
			<path class="st39" d="M1120.7,604.1c-8.6-0.1-17.3,0.2-25.9,0.9c8.1,44.2,15.4,86.3,22,125.3c9.3,0.1,18.6,0.3,27.8,0.7
				C1137.2,690,1129.2,647.4,1120.7,604.1z"/>
			<path class="st39" d="M1170.4,886.3c-6.6-45.3-15.1-95.8-24.7-149.4c-9.3-0.5-18.6-0.6-27.9-0.7c9.6,57.2,17.6,107.6,23.8,148
				c8.8,0.2,17.6,1,26.3,1.8C1168.7,886.2,1169.6,886.2,1170.4,886.3z"/>
			<path class="st39" d="M1171.3,892.3c-0.3,0-0.6-0.1-1-0.1c-8.6-0.8-17.3-1.6-26-2c-0.6,0-1.2-0.1-1.9-0.1
				c9.3,61.4,14.3,98.1,14.3,98.1l28.9,40.4C1184.4,994.3,1179.2,947.4,1171.3,892.3z"/>
			<path class="st39" d="M1075.1,381.5c-8.1-0.4-16.1-0.5-24,0.3c7.7,36.3,15,72.4,21.9,107.7c8.3,1.4,16.7,1.9,25.1,2.1
				C1090.5,454.5,1082.8,417.6,1075.1,381.5z"/>
			<path class="st39" d="M1028.3,166.4c-7.6-34.1-14.6-65.2-20.8-92.3c-10.1-0.7-20.3-0.8-30.4-1.7c8.7,31.5,17.1,63.6,25.2,96.2
				C1010.9,167.9,1019.6,166.7,1028.3,166.4z"/>
		</g>
	</g>
	<g>
		<defs>
			<rect id="SVGID_65_" y="0" width="1400" height="980"/>
		</defs>
		<clipPath id="SVGID_66_">
			<use xlink:href="#SVGID_65_"  style="overflow:visible;"/>
		</clipPath>
		<g class="st40">
			<polygon class="st36" points="291.9,-34.4 274.4,68.7 294.7,76 312.7,-31.4 			"/>
			<polygon class="st36" points="273.4,74.6 258.9,159.9 279.3,167.2 293.7,81.9 			"/>
			<path class="st36" d="M257.9,165.8l-22.2,130.7c6.7,3.4,13.4,6.6,20.2,9.7l22.4-133.1L257.9,165.8z"/>
			<path class="st36" d="M213.5,427.1l-22.7,133.6l21,7.5l22.6-134.5C227.4,431.8,220.4,429.8,213.5,427.1z"/>
			<path class="st36" d="M210.9,574.2l-21-7.5L170.3,682c7.2-1.3,15.1,0.1,22.2,2L210.9,574.2z"/>
			<path class="st36" d="M144.1,835.8l-20.3,119.7c7.1,2.7,14.5,4.8,21.9,6.4L166,841.5C158.5,839.9,151.2,838.1,144.1,835.8z"/>
			<path class="st36" d="M122.7,961.5l-10.2,60.2l20,18.4l12.2-72.2C137.2,966.2,129.9,964.2,122.7,961.5z"/>
			<path class="st36" d="M169.2,688.2L145.1,830c7.2,2.3,14.5,4.1,21.8,5.8l24.6-146.1C184.3,687.8,176.3,686.4,169.2,688.2z"/>
			<path class="st36" d="M234.7,302.5l-20.2,118.6c6.8,2.8,13.9,4.8,20.9,6.7l19.5-115.7C248.1,309.1,241.4,305.9,234.7,302.5z"/>
		</g>
	</g>
	<g>
		<defs>
			<rect id="SVGID_67_" y="0" width="1400" height="980"/>
		</defs>
		<clipPath id="SVGID_68_">
			<use xlink:href="#SVGID_67_"  style="overflow:visible;"/>
		</clipPath>
		<g class="st41">
			<path class="st36" d="M1078.4-25.4l-20.6,6.4l8.7,49.7c7.2,0.7,14.4,0.5,21.6,0.6L1078.4-25.4z"/>
			<path class="st36" d="M1089.1,37.1c-7.2-0.2-14.4,0-21.6-0.5l13.2,75.2c7,0,14.1-0.2,21.1-0.6L1089.1,37.1z"/>
			<path class="st36" d="M1102.9,117.2c-7,0.4-14,0.6-21.1,0.6l19.1,108.7c6.8-0.8,13.6-1.3,20.5-1.6L1102.9,117.2z"/>
			<path class="st36" d="M1122.4,230.8c-6.8,0.3-13.7,0.7-20.5,1.5l14.9,84.9c6.6-1,13.3-1.9,20-2.6L1122.4,230.8z"/>
			<path class="st36" d="M1154.2,416.2c-6.6-0.1-13.3,0.3-19.7,1.7l15.6,89c6.5-0.4,12.9-1.3,19.3-2.3L1154.2,416.2z"/>
			<path class="st36" d="M1170.4,510.4c-6.4,1-12.8,1.9-19.3,2.3l20.3,115.5c6.4-0.1,12.7-0.4,19.1-1.1L1170.4,510.4z"/>
			<path class="st36" d="M1191.4,632.9c-6.3,0.7-12.7,1-19,1.1l24.5,139.7c6-1.4,12-2.4,18.1-3.4L1191.4,632.9z"/>
			<path class="st36" d="M1234.3,883L1216,776.2c-6.1,1-12.1,2-18.1,3.4l18.7,106.8c4.3-1.2,8.7-2,13-2.7
				C1231.2,883.5,1232.7,883.3,1234.3,883z"/>
			<path class="st36" d="M1235.3,888.8c-1.9,0.3-3.8,0.6-5.6,0.9c-3.9,0.7-8,1.4-12,2.5l19.4,110.8l18.5,4.2L1235.3,888.8z"/>
			<path class="st36" d="M1153.2,410.3l-15.4-89.8c-6.7,0.6-13.3,1.5-20,2.5l15.6,89C1139.9,410.7,1146.5,410.2,1153.2,410.3z"/>
		</g>
	</g>
	<g>
		<defs>
			<rect id="SVGID_69_" y="0" width="1400" height="980"/>
		</defs>
		<clipPath id="SVGID_70_">
			<use xlink:href="#SVGID_69_"  style="overflow:visible;"/>
		</clipPath>
		<g class="st42">
			<polygon class="st39" points="1339.2,-83.3 1318.8,-78 1339.9,24.4 1361.4,23.3 			"/>
			<polygon class="st39" points="1362.6,29.2 1341.1,30.2 1358.6,114.9 1380.2,113.8 			"/>
			<path class="st39" d="M1381.5,119.7l-21.6,1.1l26.8,129.8c7.4,0.5,14.9,1,22.3,1.2L1381.5,119.7z"/>
			<path class="st39" d="M1435.3,378.3c-7.3,1-14.5,1.8-21.9,1.9l27.4,132.6l22.2-1.1L1435.3,378.3z"/>
			<path class="st39" d="M1469,569c0-11.4-0.4-22.7-0.9-33.6l-3.7-17.8l-22.3,1.1l23.6,114.4c3-1.9,6.4-3.3,9.9-4.3
				c-1.2-14.5-2.1-29.1-2.6-43.9C1472,580,1470,574,1469,569z"/>
			<path class="st39" d="M1468.1,535.4c0.5,10.9,0.9,22.2,0.9,33.6c1,5,3,11,4,16c0.5,14.8,1.4,29.4,2.6,43.9
				c3.8-1.1,7.7-1.9,11.4-2.4L1468.1,535.4z"/>
			<path class="st39" d="M1501.7,785.6c-1.4,0.2-2.9,0.3-4.3,0.4l24.6,118.9c2.9-0.1,5.7-0.3,8.6-0.5c-7.7-22.5-13.7-45-21.5-67.4
				C1503.7,820.4,1504.1,802.8,1501.7,785.6z"/>
			<path class="st39" d="M1519.6,783c-6,1-12,2-18,2.6c2.5,17.1,2.1,34.8,7.3,51.4c7.8,22.5,13.7,45,21.5,67.4
				c4.7-0.4,9.4-1.1,14.1-1.9L1519.6,783z"/>
			<path class="st39" d="M1523.1,910.9l12.3,59.8l10.7,4c-0.4-22.3-5.4-43.6-13.5-64.4C1529.5,910.5,1526.3,910.8,1523.1,910.9z"/>
			<path class="st39" d="M1545.7,908.3c-4.3,0.8-8.7,1.4-13.1,1.9c8.2,20.8,13.2,42.2,13.5,64.4l14.5,5.4L1545.7,908.3z"/>
			<path class="st39" d="M1497,753c-10.6-40.2-17.2-78.8-20.8-118.1c-3.3,1.1-6.4,2.5-9.1,4.5l29.1,140.8c1.5-0.1,3-0.3,4.6-0.4
				c-0.7-3.6-1.6-7.2-2.7-10.8C1496,764,1498,758,1497,753z"/>
			<path class="st39" d="M1488.2,632.3c-4,0.6-8.1,1.3-12.1,2.6c3.7,39.3,10.3,77.9,20.8,118.1c1,5-1,11,1,16
				c1.1,3.6,2,7.2,2.7,10.8c5.9-0.6,11.8-1.6,17.7-2.6L1488.2,632.3z"/>
			<path class="st39" d="M1434.1,372.5l-23.9-114.8c-7.4-0.2-14.9-0.6-22.3-1.2l24.3,117.8C1419.6,374.2,1426.8,373.5,1434.1,372.5z
				"/>
		</g>
	</g>
	<g>
		<defs>
			<rect id="SVGID_71_" y="0" width="1400" height="980"/>
		</defs>
		<clipPath id="SVGID_72_">
			<use xlink:href="#SVGID_71_"  style="overflow:visible;"/>
		</clipPath>
		<g class="st43">
			<polygon class="st39" points="772.6,-9.6 751.8,-6.6 762.1,97.5 783.5,98.8 			"/>
			<polygon class="st39" points="784.1,104.8 762.7,103.4 771.2,189.6 792.8,190.9 			"/>
			<path class="st39" d="M793.4,196.9l-21.6-1.3l13.1,132c7.3,1.4,14.7,2.6,22,3.7L793.4,196.9z"/>
			<path class="st39" d="M819.8,460c-7.3,0.2-14.6,0.2-21.9-0.5l13.3,134.9l22.2,1.4L819.8,460z"/>
			<path class="st39" d="M834.1,601.7l-22.2-1.4l11.5,116.4c6.6-3.2,14.6-4.1,21.9-4.3L834.1,601.7z"/>
			<path class="st39" d="M873.4,993.3l-12.2-121.6c-7.5,0.4-15,0.8-22.5,0.6l12,120.9C858.3,993.8,865.9,993.8,873.4,993.3z"/>
			<path class="st39" d="M874,999.2c-7.6,0.5-15.2,0.6-22.8,0l6,60.8l24.1,12.1L874,999.2z"/>
			<path class="st39" d="M860.6,865.8l-14.8-147.5c-7.4,0.2-15.4,1-21.8,4.7l14.2,143.2C845.6,866.6,853.1,866.2,860.6,865.8z"/>
			<path class="st39" d="M819.2,454.1l-11.7-116.8c-7.4-1-14.7-2.3-22-3.7l11.8,119.8C804.6,454.2,811.9,454.2,819.2,454.1z"/>
		</g>
	</g>
	<g>
		<defs>
			<rect id="SVGID_73_" y="0" width="1400" height="980"/>
		</defs>
		<clipPath id="SVGID_74_">
			<use xlink:href="#SVGID_73_"  style="overflow:visible;"/>
		</clipPath>
		<g class="st44">
			<path class="st36" d="M140.7-8.4c-2.3,35.7-5,70.9-7.9,105.4c5.1,0,10.3,0.1,15.4,0.2c4.7-56.6,6.9-90.8,6.9-90.8L140.7-8.4z"/>
			<path class="st36" d="M110.4,314.1c-8,64.9-16.7,126.6-25.7,184.7c6.8,1.1,13.6,1.8,20.4,3c8.7-64.5,16.1-127.5,22.4-185.9
				C121.8,315.3,116.1,314.6,110.4,314.1z"/>
			<path class="st36" d="M104.3,507.7c-6.8-1.2-13.7-2-20.5-3c-6.9,43.9-13.9,85.7-21,125.2c7.5,2.1,15.3,3.1,23.1,3.9
				C92.5,591.7,98.6,549.4,104.3,507.7z"/>
			<path class="st36" d="M61.8,635.5c-8.1,45-16.2,86.9-24.1,125.4c8.5,0.8,16.9,2.3,25.1,4.7c8-41.1,15.3-83.5,22.2-126.2
				C77.1,638.5,69.3,637.5,61.8,635.5z"/>
			<path class="st36" d="M12.1,879c-23.5,102.3-40.4,160.2-40.4,160.2h18.5c17.1-43.9,32.7-97,46.9-155.6
				C28.9,881.6,20.6,879.9,12.1,879z"/>
			<path class="st36" d="M36.5,766.7c-8.1,39.3-15.8,74.9-23,106.5c8.5,0.9,16.8,2.6,25.2,4.7c8.1-34,15.8-69.7,23-106.6
				C53.4,769,45,767.5,36.5,766.7z"/>
			<path class="st36" d="M132.4,103c-2.2,26.2-4.6,52-7.1,77.4c5.2,0.4,10.4,1.2,15.6,1.9c2.7-29.4,5-56,6.9-79.1
				C142.7,103.1,137.5,103,132.4,103z"/>
			<path class="st36" d="M124.6,186.2c-4.2,41.8-8.7,82.5-13.5,122c5.7,0.5,11.3,1.2,17,1.8c4.7-43.9,8.8-85,12.2-121.9
				C135.1,187.4,129.9,186.7,124.6,186.2z"/>
		</g>
	</g>
	<g>
		<defs>
			<rect id="SVGID_75_" y="0" width="1400" height="980"/>
		</defs>
		<clipPath id="SVGID_76_">
			<use xlink:href="#SVGID_75_"  style="overflow:visible;"/>
		</clipPath>
		<g class="st45">
			<polygon class="st36" points="692.2,-26.6 671.4,-23.6 681.7,80.5 703.1,81.8 			"/>
			<polygon class="st36" points="703.7,87.8 682.3,86.4 690.8,172.6 712.4,173.9 			"/>
			<path class="st36" d="M713,179.9l-21.6-1.3l13.1,132c7.3,1.4,14.7,2.6,22,3.7L713,179.9z"/>
			<path class="st36" d="M739.4,443c-7.3,0.2-14.6,0.2-21.9-0.5l13.3,134.9l22.2,1.4L739.4,443z"/>
			<path class="st36" d="M753.7,584.7l-22.2-1.4L743,699.8c6.6-3.2,14.6-4.1,21.9-4.3L753.7,584.7z"/>
			<path class="st36" d="M793.1,976.3l-12.2-121.6c-7.5,0.4-15,0.8-22.5,0.6l12,120.9C777.9,976.8,785.5,976.8,793.1,976.3z"/>
			<path class="st36" d="M793.6,982.2c-7.6,0.5-15.2,0.6-22.8,0l6,60.8l24.1,12.1L793.6,982.2z"/>
			<path class="st36" d="M780.2,848.8l-14.8-147.5c-7.4,0.2-15.4,1-21.8,4.7l14.2,143.2C765.3,849.6,772.8,849.2,780.2,848.8z"/>
			<path class="st36" d="M738.9,437.1l-11.7-116.8c-7.4-1-14.7-2.3-22-3.7L717,436.4C724.2,437.2,731.5,437.2,738.9,437.1z"/>
		</g>
	</g>
	<g>
		<defs>
			<rect id="SVGID_77_" y="0" width="1400" height="980"/>
		</defs>
		<clipPath id="SVGID_78_">
			<use xlink:href="#SVGID_77_"  style="overflow:visible;"/>
		</clipPath>
		<g class="st46">
			<path class="st39" d="M107.9-58c-3.5,39.2-7,77.9-10.4,116.2c9-5.3,18.1-10.5,27.2-15.5c3.7-41.4,7.6-83.4,11.5-125.9
				C126.8-74.8,117.3-66.4,107.9-58z"/>
			<path class="st39" d="M97,64.8c-2.8,31.6-5.5,62.8-8.2,93.6c8.9-3.9,17.7-7.7,26.6-11.3c2.8-32.2,5.7-64.7,8.7-97.5
				C115,54.5,106,59.6,97,64.8z"/>
			<path class="st39" d="M88.2,164.8c-4.1,47.2-8,93.6-11.8,139.2c8.5-0.8,17-1.5,25.5-2.4c4.1-48.4,8.4-97.7,12.8-147.8
				C105.9,157.3,97.1,161,88.2,164.8z"/>
			<path class="st39" d="M90.5,438.6c-8.4,0.1-16.8,0.1-25.1-0.5c-3.6,44.9-7.1,89-10.4,132.1c8.1,2.5,16.2,5.1,24.2,7.9
				C82.8,532.4,86.6,485.9,90.5,438.6z"/>
			<path class="st39" d="M54.5,576c-2.9,37.2-5.7,73.7-8.4,109.6c7.6,0.8,16.3,4.4,24,8.4c2.8-36,5.6-72.6,8.6-109.8
				C70.6,581.3,62.6,578.6,54.5,576z"/>
			<path class="st39" d="M35.8,826c-2.6,35.5-5,70.3-7.4,104.4c7.3,9.3,14.8,18.2,22.2,26.8c2.6-36.4,5.3-73.5,8-111.3
				C51,839.3,43.4,832.8,35.8,826z"/>
			<path class="st39" d="M28.1,935.5c-1.2,17.1-2.3,34.1-3.5,50.8c7.1,13.3,14.2,26.9,21.1,40.8c1.5-21.3,3-42.9,4.5-64.7
				C42.8,953.8,35.4,944.8,28.1,935.5z"/>
			<path class="st39" d="M45.7,691.4c-3.3,44.1-6.5,87.2-9.5,129.3c7.6,6.8,15.2,13.2,22.9,19.7c3.4-45.9,6.9-92.8,10.6-140.7
				C61.8,695.6,53.1,691.8,45.7,691.4z"/>
			<path class="st39" d="M91,432.4c3.4-40.8,6.8-82.2,10.4-124.3c-8.6,0.8-17.1,1.4-25.5,2.1c-3.4,41.3-6.8,81.9-10,121.8
				C74.1,432.7,82.5,432.6,91,432.4z"/>
		</g>
	</g>
	<g>
		<defs>
			<rect id="SVGID_79_" y="0" width="1400" height="980"/>
		</defs>
		<clipPath id="SVGID_80_">
			<use xlink:href="#SVGID_79_"  style="overflow:visible;"/>
		</clipPath>
		<g class="st47">
			<path class="st11" d="M39.8-48.8c0,0-15.3,68.6-37.7,168.6c13.6,5.6,27.7,10,41.9,13.8L85.1-46.6L39.8-48.8z"/>
			<path class="st11" d="M0.7,125.6c-7,31.4-14.7,65.8-22.8,102c13.7,5.3,27.5,10.3,41,15.9l23.7-104
				C28.5,135.6,14.4,131.1,0.7,125.6z"/>
			<path class="st11" d="M17.6,249.2c-13.5-5.6-27.3-10.6-41-15.8C-32,271.7-41,311.9-50.1,352.9c14,3.3,27.4,8.7,41.1,13.3
				L17.6,249.2z"/>
			<path class="st11" d="M-10.4,371.9c-13.6-4.7-27.1-10.1-41-13.4c-8.5,37.8-17,76.1-25.5,113.9c13.5,4.3,27.2,8.1,40.8,12.1
				L-10.4,371.9z"/>
			<path class="st11" d="M-78.2,478.2c-7.9,35.2-15.7,70-23.2,103.6c13.4,4.7,26.7,9.6,39.6,15.5l24.4-106.9
				C-51,486.3-64.7,482.5-78.2,478.2z"/>
			<path class="st11" d="M-63.1,603.1c-12.9-6-26.2-10.9-39.6-15.5c-7.4,33-14.5,64.6-21.1,94.3c12.6,7.9,24.8,16.5,37.1,25.1
				L-63.1,603.1z"/>
			<path class="st11" d="M-143.7,956.4L-88.2,713c-12.3-8.5-24.5-17.1-37-25.1c-26,115.7-44.6,198.6-45.2,200.5
				C-172.5,894.7-143.7,956.4-143.7,956.4z"/>
		</g>
	</g>
	<g>
		<defs>
			<rect id="SVGID_81_" y="0" width="1400" height="980"/>
		</defs>
		<clipPath id="SVGID_82_">
			<use xlink:href="#SVGID_81_"  style="overflow:visible;"/>
		</clipPath>
		<g class="st48">
			<path class="st39" d="M437.1-22.5c0,0-4.8,75-11.7,184.5c14.3,3.8,28.9,6.4,43.6,8.4L482.3-27L437.1-22.5z"/>
			<path class="st39" d="M425,168.3c-2.2,34.4-4.6,72-7.1,111.6c14.3,3.6,28.7,6.8,43,10.7l7.7-113.9
				C453.9,174.7,439.3,172.1,425,168.3z"/>
			<path class="st39" d="M417.5,286.3c-2.7,41.9-5.5,85.9-8.3,130.7c14.3,1.4,28.4,5.1,42.6,7.9l8.7-128
				C446.2,293,431.8,289.8,417.5,286.3z"/>
			<path class="st39" d="M408.7,423.2c-2.6,41.3-5.3,83.2-8,124.6c14,2.5,28.2,4.5,42.2,6.7l8.3-123.3
				C437.2,428.3,423,424.6,408.7,423.2z"/>
			<path class="st39" d="M400.4,554.2c-2.5,38.6-4.9,76.6-7.3,113.3c13.9,2.9,27.9,6.1,41.6,10.4l7.9-117.1
				C428.5,558.7,414.4,556.7,400.4,554.2z"/>
			<path class="st39" d="M392.7,673.8c-2.3,36.1-4.5,70.7-6.6,103.2c13.7,6.5,27.1,13.8,40.5,21l7.7-113.6
				C420.6,680,406.6,676.8,392.7,673.8z"/>
			<path class="st39" d="M426.1,804.8c-13.4-7.2-26.8-14.5-40.5-21.1c-8.1,126.7-14,217.4-14.4,219.4c-1.1,7.1,36.8,68.1,36.8,68.1
				L426.1,804.8z"/>
		</g>
	</g>
	<g>
		<defs>
			<rect id="SVGID_83_" y="0" width="1400" height="980"/>
		</defs>
		<clipPath id="SVGID_84_">
			<use xlink:href="#SVGID_83_"  style="overflow:visible;"/>
		</clipPath>
		<g class="st49">
			<path class="st39" d="M105.8-35.1L91.7,40.4c10.5,0.4,21,2.5,31.3,5.6l15.8-81.1H105.8z"/>
			<path class="st39" d="M121.6,52.5c-10.2-3.1-20.7-5.2-31.2-5.5L70.9,151.2c10.4,0.2,20.8,0.9,31.2,1.4L121.6,52.5z"/>
			<path class="st39" d="M69.6,157.9L39.9,317c9.9,0.3,19.8,0.9,29.6,2.4l31.3-160.1C90.4,158.7,80,158.1,69.6,157.9z"/>
			<path class="st39" d="M68.2,326c-9.8-1.4-19.7-2-29.6-2.3L12.2,464.8c9.4-0.7,19,0.3,28.5,1.8L68.2,326z"/>
			<path class="st39" d="M30.9,472.4c-6.6-0.6-13.3-1.1-20-0.6l-35,186.8l16.5,55.2l47-240.4C36.6,473,33.7,472.7,30.9,472.4z"/>
		</g>
	</g>
	<g>
		<defs>
			<rect id="SVGID_85_" y="0" width="1400" height="980"/>
		</defs>
		<clipPath id="SVGID_86_">
			<use xlink:href="#SVGID_85_"  style="overflow:visible;"/>
		</clipPath>
		<path class="st50" d="M1176.4,509c-7-0.3-13.8-1.2-20.3-2.6C1162.6,508.7,1169.4,509.7,1176.4,509z"/>
	</g>
	<g>
		<defs>
			<rect id="SVGID_87_" y="0" width="1400" height="980"/>
		</defs>
		<clipPath id="SVGID_88_">
			<use xlink:href="#SVGID_87_"  style="overflow:visible;"/>
		</clipPath>
		<path class="st51" d="M1055.5,446.5c31.1,24.8,61.7,51.5,100.6,59.9c-35.5-12.6-64.4-64.1-91-83c-19-13.5-42.3-25.5-65.7-26.5
			c-13.5-0.6-49.1,0.7-54.4,14c21.6,5.1,32.8,11.4,56.1,13.9C1021.5,427.1,1039.2,433.4,1055.5,446.5z"/>
	</g>
	<g>
		<defs>
			<rect id="SVGID_89_" y="0" width="1400" height="980"/>
		</defs>
		<clipPath id="SVGID_90_">
			<use xlink:href="#SVGID_89_"  style="overflow:visible;"/>
		</clipPath>
		<path class="st52" d="M1149.4,791c-7-0.3-13.8-1.2-20.3-2.6C1135.6,790.8,1142.4,791.8,1149.4,791z"/>
	</g>
	<g>
		<defs>
			<rect id="SVGID_91_" y="0" width="1400" height="980"/>
		</defs>
		<clipPath id="SVGID_92_">
			<use xlink:href="#SVGID_91_"  style="overflow:visible;"/>
		</clipPath>
		<path class="st53" d="M1028.5,728.5c31.1,24.8,61.7,51.5,100.6,59.9c-35.5-12.6-64.4-64.1-91-83c-19-13.5-42.3-25.5-65.7-26.5
			c-13.5-0.6-49.1,0.7-54.4,14c21.6,5.1,32.8,11.4,56.1,13.9C994.5,709.1,1012.2,715.5,1028.5,728.5z"/>
	</g>
	<g>
		<defs>
			<rect id="SVGID_93_" y="0" width="1400" height="980"/>
		</defs>
		<clipPath id="SVGID_94_">
			<use xlink:href="#SVGID_93_"  style="overflow:visible;"/>
		</clipPath>
		<path class="st54" d="M1105.1,545.8c-34.5-6.6-55-41.3-77.2-66.2c-26.9-30.1-51.4-39.2-83.9-59.9c26.1,22.4,47.5,52.2,71.3,78.1
			C1032,516,1079.1,549,1105.1,545.8z"/>
	</g>
	<g>
		<defs>
			<rect id="SVGID_95_" y="0" width="1400" height="980"/>
		</defs>
		<clipPath id="SVGID_96_">
			<use xlink:href="#SVGID_95_"  style="overflow:visible;"/>
		</clipPath>
		<path class="st55" d="M1033.7,161.1c-29.2-47.1-124.6-24-140.7,24.6c8.3-14.2,49.1-16.5,65.3-21.7
			C983.6,155.8,1007.7,161.3,1033.7,161.1z"/>
	</g>
	<g>
		<defs>
			<rect id="SVGID_97_" y="0" width="1400" height="980"/>
		</defs>
		<clipPath id="SVGID_98_">
			<use xlink:href="#SVGID_97_"  style="overflow:visible;"/>
		</clipPath>
		<path class="st56" d="M680.9,285.4c-1.6,2.4-3,4.8-4.3,7.3C678,290.3,679.4,287.9,680.9,285.4z"/>
	</g>
	<g>
		<defs>
			<rect id="SVGID_99_" y="0" width="1400" height="980"/>
		</defs>
		<clipPath id="SVGID_100_">
			<use xlink:href="#SVGID_99_"  style="overflow:visible;"/>
		</clipPath>
		<path class="st57" d="M745.9,233.7c34.5-12.5,48.8,1.4,69-36c-64.4-27.2-105.4,39.1-134,87.7C695.4,263.3,723,242,745.9,233.7z"/>
	</g>
	<g>
		<defs>
			<rect id="SVGID_101_" y="0" width="1400" height="980"/>
		</defs>
		<clipPath id="SVGID_102_">
			<use xlink:href="#SVGID_101_"  style="overflow:visible;"/>
		</clipPath>
		<path class="st58" d="M820.9,203.7c-32.1,3.4-46.5,46.3-57,72c-20.7,50.5-28.6,91.8-60,138c38-35.3,52.2-70.2,72-116.8
			C790.3,263.1,835.1,243.2,820.9,203.7z"/>
	</g>
	<g>
		<defs>
			<rect id="SVGID_103_" y="0" width="1400" height="980"/>
		</defs>
		<clipPath id="SVGID_104_">
			<use xlink:href="#SVGID_103_"  style="overflow:visible;"/>
		</clipPath>
		<path class="st59" d="M921.7,697c-17.7-14.8-47-0.8-65.4,6.6c-36.2,14.5-61.4,31.1-100.8,37.9c37.1,2,62.1-8.2,95.9-21.2
			C875.9,710.8,908.4,723.9,921.7,697z"/>
	</g>
	<g>
		<defs>
			<rect id="SVGID_105_" y="0" width="1400" height="980"/>
		</defs>
		<clipPath id="SVGID_106_">
			<use xlink:href="#SVGID_105_"  style="overflow:visible;"/>
		</clipPath>
		<path class="st60" d="M912.9,692.3c-23.1-0.4-37,28.9-46.7,46.2c-19,34.1-28.2,62.7-54.5,92.9c30.1-21.8,43.1-45.4,61.2-76.8
			C886,731.8,919.5,721.5,912.9,692.3z"/>
	</g>
	<g>
		<defs>
			<rect id="SVGID_107_" y="0" width="1400" height="980"/>
		</defs>
		<clipPath id="SVGID_108_">
			<use xlink:href="#SVGID_107_"  style="overflow:visible;"/>
		</clipPath>
		<path class="st61" d="M436.9,152.7c-35.6-11.6-57.2,14.5-69.6,46.1C380.5,171.8,421.3,177.4,436.9,152.7z"/>
	</g>
	<g>
		<defs>
			<rect id="SVGID_109_" y="0" width="1400" height="980"/>
		</defs>
		<clipPath id="SVGID_110_">
			<use xlink:href="#SVGID_109_"  style="overflow:visible;"/>
		</clipPath>
		<path class="st62" d="M367.3,198.8c-1,2.1-1.9,4.4-2.6,7C365.6,203.5,366.4,201.1,367.3,198.8z"/>
	</g>
	<g>
		<defs>
			<rect id="SVGID_111_" y="0" width="1400" height="980"/>
		</defs>
		<clipPath id="SVGID_112_">
			<use xlink:href="#SVGID_111_"  style="overflow:visible;"/>
		</clipPath>
		<path class="st63" d="M495.4,234.3c-0.1,2.5-0.2,5-0.4,7.5C495.4,239.1,495.5,236.6,495.4,234.3z"/>
	</g>
	<g>
		<defs>
			<rect id="SVGID_113_" y="0" width="1400" height="980"/>
		</defs>
		<clipPath id="SVGID_114_">
			<use xlink:href="#SVGID_113_"  style="overflow:visible;"/>
		</clipPath>
		<path class="st64" d="M449.6,164.6c4.6,28.8,44.3,39.7,45.8,69.7C496.4,200.3,486.8,167.9,449.6,164.6z"/>
	</g>
	<g>
		<defs>
			<rect id="SVGID_115_" y="0" width="1400" height="980"/>
		</defs>
		<clipPath id="SVGID_116_">
			<use xlink:href="#SVGID_115_"  style="overflow:visible;"/>
		</clipPath>
		<g class="st65">
			<path class="st39" d="M303.9,704.1c-1.1,1.2-2.2,2.4-3.1,3.7C301.8,706.6,302.8,705.3,303.9,704.1z"/>
			<path class="st39" d="M351,677.9c24.9-6.3,35.4,0.7,49.9-18.2c-46.6-13.8-76.3,19.8-97,44.4C314.4,692.9,334.4,682.1,351,677.9z"
				/>
			<path class="st39" d="M343.3,714.9c-1,2.1-1.9,4.4-2.6,7C341.6,719.5,342.4,717.2,343.3,714.9z"/>
			<path class="st39" d="M412.9,668.7c-35.6-11.6-57.2,14.5-69.6,46.1C356.5,687.9,397.3,693.5,412.9,668.7z"/>
			<path class="st39" d="M471.4,744.3c-0.1,2.5-0.2,5-0.4,7.5C471.4,749.2,471.5,746.7,471.4,744.3z"/>
			<path class="st39" d="M425.6,674.6c4.6,28.8,44.3,39.8,45.8,69.7C472.4,710.4,462.8,678,425.6,674.6z"/>
		</g>
	</g>
	<g>
		<defs>
			<rect id="SVGID_117_" y="0" width="1400" height="980"/>
		</defs>
		<clipPath id="SVGID_118_">
			<use xlink:href="#SVGID_117_"  style="overflow:visible;"/>
		</clipPath>
		<g class="st66">
			<path class="st39" d="M-26.1,335c-1.1,1.2-2.2,2.4-3.1,3.7C-28.2,337.5-27.2,336.3-26.1,335z"/>
			<path class="st39" d="M20.9,308.8c24.9-6.4,35.4,0.7,49.9-18.2c-46.6-13.8-76.3,19.8-97,44.4C-15.6,323.8,4.3,313.1,20.9,308.8z"
				/>
			<path class="st39" d="M13.3,345.8c-1,2.1-1.9,4.4-2.6,7C11.5,350.5,12.4,348.1,13.3,345.8z"/>
			<path class="st39" d="M82.9,299.7c-35.6-11.6-57.2,14.5-69.6,46.1C26.5,318.9,67.3,324.4,82.9,299.7z"/>
			<path class="st39" d="M141.4,375.3c-0.1,2.5-0.2,5-0.4,7.5C141.4,380.1,141.5,377.6,141.4,375.3z"/>
			<path class="st39" d="M95.5,305.6c4.6,28.8,44.3,39.7,45.8,69.7C142.4,341.4,132.8,308.9,95.5,305.6z"/>
		</g>
	</g>
	<g>
		<defs>
			<rect id="SVGID_119_" y="0" width="1400" height="980"/>
		</defs>
		<clipPath id="SVGID_120_">
			<use xlink:href="#SVGID_119_"  style="overflow:visible;"/>
		</clipPath>
		<g class="st67">
			<path class="st39" d="M-86.1,152c-1.1,1.2-2.2,2.4-3.1,3.7C-88.2,154.5-87.2,153.3-86.1,152z"/>
			<path class="st39" d="M-39.1,125.8c24.9-6.3,35.4,0.7,49.9-18.2c-46.6-13.8-76.3,19.8-97,44.4C-75.6,140.8-55.7,130-39.1,125.8z"
				/>
			<path class="st39" d="M-46.7,162.8c-1,2.1-1.9,4.4-2.6,7C-48.5,167.4-47.6,165.1-46.7,162.8z"/>
			<path class="st39" d="M22.9,116.7c-35.6-11.6-57.2,14.5-69.6,46.1C-33.5,135.8,7.2,141.4,22.9,116.7z"/>
			<path class="st39" d="M81.4,192.3c-0.1,2.5-0.2,5-0.4,7.5C81.4,197.1,81.5,194.6,81.4,192.3z"/>
			<path class="st39" d="M35.5,122.5c4.6,28.8,44.3,39.7,45.8,69.7C82.4,158.3,72.8,125.9,35.5,122.5z"/>
		</g>
	</g>
	<g>
		<defs>
			<rect id="SVGID_121_" y="0" width="1400" height="980"/>
		</defs>
		<clipPath id="SVGID_122_">
			<use xlink:href="#SVGID_121_"  style="overflow:visible;"/>
		</clipPath>
		<path class="st68" d="M517,553.8c1.9,1,3.8,2.1,5.6,3.2C520.8,555.6,519,554.6,517,553.8z"/>
	</g>
	<g>
		<defs>
			<rect id="SVGID_123_" y="0" width="1400" height="980"/>
		</defs>
		<clipPath id="SVGID_124_">
			<use xlink:href="#SVGID_123_"  style="overflow:visible;"/>
		</clipPath>
		<path class="st69" d="M517,553.8c-26.2-13.9-57.6-18.5-82.4,11.4C460.2,572.5,492.4,543.5,517,553.8z"/>
	</g>
	<g>
		<defs>
			<rect id="SVGID_125_" y="0" width="1400" height="980"/>
		</defs>
		<clipPath id="SVGID_126_">
			<use xlink:href="#SVGID_125_"  style="overflow:visible;"/>
		</clipPath>
		<path class="st70" d="M444.3,558.1c-0.1,23.1,32.5,51.4,29.6,73.7C479.6,608,475.9,579.9,444.3,558.1z"/>
	</g>
	<g>
		<defs>
			<rect id="SVGID_127_" y="0" width="1400" height="980"/>
		</defs>
		<clipPath id="SVGID_128_">
			<use xlink:href="#SVGID_127_"  style="overflow:visible;"/>
		</clipPath>
		<path class="st71" d="M473.9,631.8c-0.4,1.7-0.9,3.5-1.4,5.1C473.3,635.3,473.7,633.6,473.9,631.8z"/>
	</g>
	<g>
		<defs>
			<rect id="SVGID_129_" y="0" width="1400" height="980"/>
		</defs>
		<clipPath id="SVGID_130_">
			<use xlink:href="#SVGID_129_"  style="overflow:visible;"/>
		</clipPath>
		<path class="st72" d="M341.5,576.1c-1.1,1.3-2.1,2.7-2.8,4.3C339.5,579,340.5,577.5,341.5,576.1z"/>
	</g>
	<g>
		<defs>
			<rect id="SVGID_131_" y="0" width="1400" height="980"/>
		</defs>
		<clipPath id="SVGID_132_">
			<use xlink:href="#SVGID_131_"  style="overflow:visible;"/>
		</clipPath>
		<path class="st73" d="M416.3,549.1c-37.4-9.2-60.9,6.9-74.9,27C356,558.9,399.1,564.5,416.3,549.1z"/>
	</g>
	<g>
		<defs>
			<rect id="SVGID_133_" y="0" width="1400" height="980"/>
		</defs>
		<clipPath id="SVGID_134_">
			<use xlink:href="#SVGID_133_"  style="overflow:visible;"/>
		</clipPath>
		<g class="st74">
			<path class="st36" d="M290.8,332.4c3.6-18.8-26-35.1-41.4-26.6c5.4-1.7,16.3,7.3,21.6,9.7C279.3,319.4,284.1,326.4,290.8,332.4z"
				/>
			<path class="st36" d="M196.1,281.7c-0.9,0.2-1.7,0.5-2.5,0.8C194.4,282.2,195.2,282,196.1,281.7z"/>
			<path class="st36" d="M224.9,283.7c11.7,4.9,12.1,11.8,25.9,7c-10-22-36.1-14.6-54.7-8.9C204.9,279.4,217,280.4,224.9,283.7z"/>
			<path class="st36" d="M250.9,293.6c-8.9-6.6-22.6,0.9-31.2,5c-17,8-28.7,16.6-47.4,21c17.9-0.1,29.6-5.6,45.5-12.8
				C229.3,301.5,245.3,306.9,250.9,293.6z"/>
		</g>
	</g>
	<g>
		<defs>
			<rect id="SVGID_135_" y="0" width="1400" height="980"/>
		</defs>
		<clipPath id="SVGID_136_">
			<use xlink:href="#SVGID_135_"  style="overflow:visible;"/>
		</clipPath>
		<g class="st75">
			<path class="st36" d="M228.7,721.6c3.6-18.8-26-35.1-41.4-26.6c5.4-1.7,16.3,7.3,21.6,9.7C217.2,708.6,222.1,715.6,228.7,721.6z"
				/>
			<path class="st36" d="M134,670.9c-0.9,0.2-1.7,0.5-2.5,0.8C132.3,671.5,133.1,671.2,134,670.9z"/>
			<path class="st36" d="M162.8,672.9c11.7,4.9,12.1,11.8,25.9,7c-10-22-36.1-14.6-54.7-8.9C142.9,668.6,154.9,669.7,162.8,672.9z"
				/>
			<path class="st36" d="M188.8,682.8c-8.9-6.6-22.6,0.9-31.2,5c-17,8-28.7,16.6-47.4,21c17.9-0.1,29.6-5.6,45.5-12.8
				C167.2,690.7,183.2,696.1,188.8,682.8z"/>
			<path class="st36" d="M247.9,452.7c-7.5-10.2-5.4-27-19.6-29.8c-4.7,10.1,5.5,21.9,11.2,29.6c11.3,15,22.1,24.7,30.2,42.1
				C266,477.2,258.2,466.8,247.9,452.7z"/>
		</g>
	</g>
	<g>
		<defs>
			<rect id="SVGID_137_" y="0" width="1400" height="980"/>
		</defs>
		<clipPath id="SVGID_138_">
			<use xlink:href="#SVGID_137_"  style="overflow:visible;"/>
		</clipPath>
		<g class="st76">
			<g>
				<path class="st13" d="M628.2,759.6c9.4,7.1,17.8,11.6,25.2,21c7.5,9.5,16,17.8,24.5,26.2c-13.6-15.4-22.7-38.6-27.7-58.5
					c-4.5-18-13.4-47.6-35.8-49.5c-2.4,12.2-7.4,20.2-5.3,33.3C611.1,743.7,619.2,752.7,628.2,759.6z"/>
			</g>
			<g>
				<path class="st13" d="M504.8,646.2c-1.6-1-3.2-1.9-5.1-2.5C501.5,644.6,503.2,645.4,504.8,646.2z"/>
				<path class="st13" d="M542.5,683.5c15.3,6.1,29,0.9,43.2-3.7c-0.9-17.4-30.6-23.5-43.1-24.5c-14.2-1.1-25.4-3.3-37.8-9.1
					C519.1,655.3,524.7,676.4,542.5,683.5z"/>
			</g>
			<g>
				<path class="st13" d="M565.3,709c-28.5-15.2-55.9,16.1-82.8,24c20.4,1.7,31.7-10.1,50.6-13C540.5,718.9,574.3,728.2,565.3,709z"
					/>
			</g>
			<g>
				<path class="st13" d="M521.3,802.9c11.2-13.9,22.8-24.4,25.7-43c1.6-10,2.1-15.2,9.6-22.5c8.3-8.1,10-8.6,8.6-21.2l-1.1,6.7
					c-18.3,1.9-27.4,9-29,29.4c-0.8,9.6,1.6,19.1-1.7,28.3C530.6,788.2,525.2,795.8,521.3,802.9z"/>
			</g>
			<g>
				<path class="st13" d="M524.8,630.2c-1-0.5-2-1-3-1.6C522.8,629.2,523.8,629.8,524.8,630.2z"/>
				<path class="st13" d="M608.7,669.3c7.1,0,16.6-9.3,11.8-15.9l-4.9,4.7c-2.6-13.9-35.7-22.2-49.4-21.2
					c-17.3,1.3-27.8,0.1-41.4-6.6c20.2,10.1,41.1,14.4,60.2,25.9C591.3,659.9,601.4,669.3,608.7,669.3z"/>
			</g>
			<g>
				<path class="st13" d="M637.8,668.7l-2.4-0.1c0.7,0.4,1.4,0.8,2,1.1C637.5,669.4,637.7,669.1,637.8,668.7z"/>
				<path class="st13" d="M631.6,666.6c0.8,0.5,1.4,1.2,1.8,2l2,0.1C634.2,668,633,667.3,631.6,666.6z"/>
				<path class="st13" d="M645.1,700.5c5.6,4.6,17.2,7.6,25.1,12.6c-3.8-6.6-7.2-14-10.2-19.5c-7.1-12.9-11.6-17.6-22.6-23.8
					C633,681.9,634.5,691.8,645.1,700.5z"/>
				<path class="st13" d="M670.2,713.1c2.5,4.3,5.2,8.3,8.1,11C677.9,719.4,674.6,716,670.2,713.1z"/>
				<path class="st13" d="M625.2,712.5c-2.9-10.7,12.7-35.3,8.2-43.9l-7.6-0.2C607.5,675.6,618.4,699.5,625.2,712.5z"/>
			</g>
			<g>
				<path class="st13" d="M593.4,605.9c-0.8-1.4-1.5-2.6-2.3-3.5C591.6,603.5,592.4,604.7,593.4,605.9z"/>
				<path class="st13" d="M593.4,605.9c7.4,13.8,13.8,50.5,33,41.7C625.5,633.3,602.2,617.1,593.4,605.9z"/>
				<path class="st13" d="M625.6,652.9l3.7-6.9c-1,0.6-1.9,1.2-2.9,1.6C626.5,649.4,626.3,651.2,625.6,652.9z"/>
				<path class="st13" d="M625.6,652.9l-1.3,2.5C624.8,654.6,625.3,653.8,625.6,652.9z"/>
			</g>
			<g>
				<path class="st13" d="M577.1,607.2c1.5,8.5-0.3,16.1,6.1,22.7c4.2,4.3,12.5,7.3,18.7,10.1C590.1,632.8,590.2,613.9,577.1,607.2z
					"/>
				<path class="st13" d="M602,640c1,0.6,2,1.1,3.1,1.5C604.1,641.1,603.1,640.6,602,640z"/>
			</g>
			<g>
				<path class="st13" d="M669,653.5c-13.9-8.5-25-16.7-41.6-6.1C632.1,663.1,654.6,650,669,653.5z"/>
				<path class="st13" d="M669,653.5c2.3,1.4,4.7,2.8,7.2,4.1C674.2,655.4,671.7,654.1,669,653.5z"/>
			</g>
		</g>
	</g>
	<g>
		<defs>
			<rect id="SVGID_139_" y="0" width="1400" height="980"/>
		</defs>
		<clipPath id="SVGID_140_">
			<use xlink:href="#SVGID_139_"  style="overflow:visible;"/>
		</clipPath>
		<g class="st77">
			<g>
				<path class="st36" d="M1182.1,243.1c11.4-3.1,20.1-7.1,32-7.2c12.1-0.2,23.8-1.8,35.7-3.5c-20.5,1.4-44.5-5.5-63.2-13.7
					c-17-7.4-45.9-18.3-61-1.7c8.2,9.3,11.5,18.2,23.2,24.5C1159.1,247,1171.1,246.1,1182.1,243.1z"/>
			</g>
			<g>
				<path class="st36" d="M1069.5,264.6c14.2-8.5,18.4-22.5,23.4-36.5c-14.4-9.9-37.2,9.9-45.6,19.3c-9.6,10.6-18.1,18.1-30.3,24.4
					C1032.9,266,1053.1,274.5,1069.5,264.6z"/>
				<path class="st36" d="M1017,271.8c-1.8,0.6-3.5,1.4-5.1,2.5C1013.7,273.5,1015.4,272.7,1017,271.8z"/>
			</g>
			<g>
				<path class="st36" d="M1103.6,262.1c-29.4,13.4-21.3,54.2-31.4,80.3c13.8-15.1,11.3-31.3,20.5-48
					C1096.4,287.8,1124.4,266.7,1103.6,262.1z"/>
			</g>
			<g>
				<path class="st36" d="M1119.4,312.5c7.1,6.4,16.1,10.4,21.4,18.6c4.4,6.8,7.1,15.7,10.4,23.1c-4.3-17.3-5.4-33-18.4-46.6
					c-7-7.3-10.8-10.9-12-21.3c-1.4-11.5-0.7-13.2-11.6-19.7l4.6,5C1104.2,287.3,1104.3,298.8,1119.4,312.5z"/>
			</g>
			<g>
				<path class="st36" d="M1016.5,246.3c-1,0.5-2,1-3.1,1.5C1014.5,247.3,1015.5,246.8,1016.5,246.3z"/>
				<path class="st36" d="M1046.9,217.5c-9.5,14.5-16.9,22.1-30.4,28.8c20.3-9.8,36.4-23.8,57.2-32c6.8-2.7,20.4-4.9,24.8-10.7
					c4.3-5.7,2.7-18.8-5.4-19l0.7,6.7C1081.3,184.8,1054.5,206,1046.9,217.5z"/>
			</g>
			<g>
				<path class="st36" d="M1184.4,181.8c-3.9-2.6-8.7-2.1-13.6-0.3C1175.8,182.2,1180.5,182.4,1184.4,181.8z"/>
				<path class="st36" d="M1115.9,180.1l-1.5,1.9c0.7-0.3,1.4-0.6,2.1-0.9C1116.3,180.8,1116.1,180.4,1115.9,180.1z"/>
				<path class="st36" d="M1110.5,183.7c0.9-0.3,1.8-0.4,2.7-0.2l1.2-1.5C1113.1,182.5,1111.8,183.1,1110.5,183.7z"/>
				<path class="st36" d="M1142.9,216.8c-10.2-4.2-20.3-31.6-29.8-33.3l-4.8,5.9C1102.9,208.3,1128.4,214.2,1142.9,216.8z"/>
				<path class="st36" d="M1145.6,193.7c7-1.6,16.5-9,25.3-12.2c-7.5-1-15.5-2.9-21.7-3.8c-14.6-2.2-21-1.5-32.7,3.4
					C1123.4,191.9,1132.2,196.8,1145.6,193.7z"/>
			</g>
			<g>
				<path class="st36" d="M1034.8,176.8c1.2,0.2,2.6,0.3,4.1,0.3C1037.4,176.8,1036,176.7,1034.8,176.8z"/>
				<path class="st36" d="M1096,180.4l1.1,2.3C1096.8,181.9,1096.4,181.1,1096,180.4z"/>
				<path class="st36" d="M1092.2,176.3c-11.8-8-38.9,0.6-53.2,0.8C1054.4,179.5,1087.4,196.8,1092.2,176.3z"/>
				<path class="st36" d="M1096,180.4l-3.4-7.4c-0.1,1.2-0.3,2.3-0.5,3.3C1093.7,177.3,1095,178.7,1096,180.4z"/>
			</g>
			<g>
				<path class="st36" d="M1071.3,191.1c1.1-0.4,2.1-0.9,3.1-1.6C1073.4,189.9,1072.4,190.5,1071.3,191.1z"/>
				<path class="st36" d="M1051.8,199.7c5.9-0.7,13.4-5.5,19.5-8.7c-13,5-27.9-6.6-41.2-0.3C1037.8,194.7,1042.7,200.8,1051.8,199.7
					z"/>
			</g>
			<g>
				<path class="st36" d="M1122.8,146.1c-15.2,5.9-28.5,9.7-30.2,29.3C1107.9,181.2,1111.3,155.4,1122.8,146.1z"/>
				<path class="st36" d="M1122.8,146.1c2.5-1,5.1-2,7.6-3.2C1127.5,143.2,1125,144.3,1122.8,146.1z"/>
			</g>
		</g>
	</g>
	<g>
		<defs>
			<rect id="SVGID_141_" y="0" width="1400" height="980"/>
		</defs>
		<clipPath id="SVGID_142_">
			<use xlink:href="#SVGID_141_"  style="overflow:visible;"/>
		</clipPath>
		<g class="st78">
			<path class="st17" d="M289.4,816l-2.3,0.9c0.8,0.1,1.6,0.2,2.3,0.3C289.5,816.7,289.4,816.3,289.4,816z"/>
			<path class="st17" d="M282.9,816.4c0.9,0.2,1.7,0.5,2.4,1.1l1.8-0.7C285.8,816.7,284.4,816.5,282.9,816.4z"/>
			<path class="st17" d="M308.4,842.6c6.9,2.1,18.8,0.5,28,2c-6-4.6-12-10.2-16.9-14.1c-11.5-9.2-17.5-11.8-30-13.4
				C290.1,829.9,295.2,838.6,308.4,842.6z"/>
			<path class="st17" d="M336.3,844.6c4,3.1,8,5.7,11.6,7C345.9,847.4,341.5,845.5,336.3,844.6z"/>
			<path class="st17" d="M294.6,861.2c-6.7-8.8-1.8-37.5-9.2-43.7l-7.1,2.7C264.1,833.9,283.3,851.8,294.6,861.2z"/>
		</g>
	</g>
	<g>
		<defs>
			<rect id="SVGID_143_" y="0" width="1400" height="980"/>
		</defs>
		<clipPath id="SVGID_144_">
			<use xlink:href="#SVGID_143_"  style="overflow:visible;"/>
		</clipPath>
		<g class="st79">
			<path class="st17" d="M347.4,308l-2.3,0.9c0.8,0.1,1.6,0.2,2.3,0.3C347.5,308.7,347.4,308.3,347.4,308z"/>
			<path class="st17" d="M340.9,308.4c0.9,0.2,1.7,0.5,2.4,1.1l1.8-0.7C343.8,308.7,342.4,308.5,340.9,308.4z"/>
			<path class="st17" d="M352.6,353.2c-6.7-8.8-1.8-37.5-9.2-43.7l-7.1,2.7C322.1,325.9,341.3,343.8,352.6,353.2z"/>
			<path class="st17" d="M366.4,334.6c6.9,2.1,18.8,0.5,28,2c-6-4.6-12-10.2-16.9-14.1c-11.5-9.2-17.5-11.8-30-13.4
				C348.1,321.9,353.2,330.6,366.4,334.6z"/>
			<path class="st17" d="M394.3,336.6c4,3.1,8,5.7,11.6,7C403.9,339.4,399.5,337.5,394.3,336.6z"/>
		</g>
	</g>
	<g>
		<defs>
			<rect id="SVGID_145_" y="0" width="1400" height="980"/>
		</defs>
		<clipPath id="SVGID_146_">
			<use xlink:href="#SVGID_145_"  style="overflow:visible;"/>
		</clipPath>
		<g class="st80">
			<path class="st17" d="M348.6,164.6c1.2-0.2,2.5-0.3,3.8-0.5c-0.8,0.1-1.6-0.1-2.4-0.6L348.6,164.6z"/>
			<path class="st17" d="M346.6,164.9c0.1,0.4,0.2,0.7,0.3,1.1l1.8-1.3C347.9,164.7,347.2,164.8,346.6,164.9z"/>
			<path class="st17" d="M299.5,148.7c-4.2-2.1-8.2-3.7-11.7-4.2C290.6,148.1,294.8,149,299.5,148.7z"/>
			<path class="st17" d="M350.1,163.5l5.5-4.2c9.2-16.5-11.6-29.5-23.6-36.2C339.9,130.1,342.2,159.2,350.1,163.5z"/>
			<path class="st17" d="M346.6,164.9c-3.4-12.4-9.9-19.6-22.3-20.5c-6.5-0.5-16.4,3.8-24.8,4.3c6.3,3.1,12.8,7.3,17.9,9.9
				C329.6,164.9,335.3,166.2,346.6,164.9z"/>
		</g>
	</g>
	<g>
		<defs>
			<rect id="SVGID_147_" y="0" width="1400" height="980"/>
		</defs>
		<clipPath id="SVGID_148_">
			<use xlink:href="#SVGID_147_"  style="overflow:visible;"/>
		</clipPath>
		<g class="st81">
			<path class="st17" d="M204.6,92.6c1.2-0.2,2.5-0.3,3.8-0.5c-0.8,0.1-1.6-0.1-2.4-0.6L204.6,92.6z"/>
			<path class="st17" d="M202.6,92.9c0.1,0.4,0.2,0.7,0.3,1.1l1.8-1.3C203.9,92.7,203.2,92.8,202.6,92.9z"/>
			<path class="st17" d="M155.5,76.7c-4.2-2.1-8.2-3.7-11.7-4.2C146.6,76.1,150.8,77,155.5,76.7z"/>
			<path class="st17" d="M206.1,91.5l5.5-4.2c9.2-16.5-11.6-29.5-23.6-36.2C195.9,58.1,198.2,87.2,206.1,91.5z"/>
			<path class="st17" d="M202.6,92.9c-3.4-12.4-9.9-19.6-22.3-20.5c-6.5-0.5-16.4,3.8-24.8,4.3c6.3,3.1,12.8,7.3,17.9,9.9
				C185.6,92.9,191.3,94.2,202.6,92.9z"/>
		</g>
	</g>
	<g>
		<defs>
			<rect id="SVGID_149_" y="0" width="1400" height="980"/>
		</defs>
		<clipPath id="SVGID_150_">
			<use xlink:href="#SVGID_149_"  style="overflow:visible;"/>
		</clipPath>
		<g class="st82">
			<path class="st3" d="M514.6,280.2c5.3,4,10.1,6.6,14.2,11.8c4.2,5.4,9,10,13.8,14.8c-7.7-8.7-12.8-21.8-15.6-33
				c-2.5-10.1-7.6-26.8-20.2-27.9c-1.3,6.9-4.2,11.4-3,18.7C505,271.3,509.5,276.4,514.6,280.2z"/>
		</g>
	</g>
	<g>
		<defs>
			<rect id="SVGID_151_" y="0" width="1400" height="980"/>
		</defs>
		<clipPath id="SVGID_152_">
			<use xlink:href="#SVGID_151_"  style="overflow:visible;"/>
		</clipPath>
		<g class="st83">
			<path class="st3" d="M509.6,255.6c5.4,1.9,11.9,0.7,17.9-1.3c6.3-2.1,11.1-4.4,17.6-5.2s12.9-2.3,19.4-3.8
				c-11.1,1.9-23.8,0.2-33.5-2.3c-8.9-2.3-24-5.5-32.8,3C502.2,249.7,503.6,253.5,509.6,255.6z"/>
		</g>
	</g>
	<g>
		<defs>
			<rect id="SVGID_153_" y="0" width="1400" height="980"/>
		</defs>
		<clipPath id="SVGID_154_">
			<use xlink:href="#SVGID_153_"  style="overflow:visible;"/>
		</clipPath>
		<g class="st84">
			<path class="st17" d="M325.1,536.3c5.4,1.9,11.9,0.7,17.9-1.3c6.3-2.1,11.1-4.4,17.6-5.2s12.9-2.3,19.4-3.8
				c-11.1,1.9-23.8,0.2-33.5-2.3c-8.9-2.3-24-5.5-32.8,3C317.6,530.4,319,534.2,325.1,536.3z"/>
		</g>
	</g>
	<g>
		<defs>
			<rect id="SVGID_155_" y="0" width="1400" height="980"/>
		</defs>
		<clipPath id="SVGID_156_">
			<use xlink:href="#SVGID_155_"  style="overflow:visible;"/>
		</clipPath>
		<path class="st85" d="M1209,405c-97.3-27.4-127.3,72.7-128,154.8c6.4-31.7,26.4-76.4,53-97.8C1162.1,439.3,1201,448.8,1209,405z"
			/>
	</g>
	<g>
		<defs>
			<rect id="SVGID_157_" y="0" width="1400" height="980"/>
		</defs>
		<clipPath id="SVGID_158_">
			<use xlink:href="#SVGID_157_"  style="overflow:visible;"/>
		</clipPath>
		<path class="st86" d="M1236.4,418c-12.3-8.7-9.2-1.5-19.4,11c-45.3-25.6-70.2,72.8-76.1,99.8c-12.4,56.6-33.6,80.2-70.5,123.7
			c47.4-31.3,98.3-23.9,121.7-91.5C1209.5,510.7,1191.9,459.8,1236.4,418z"/>
	</g>
	<g>
		<defs>
			<rect id="SVGID_159_" y="0" width="1400" height="980"/>
		</defs>
		<clipPath id="SVGID_160_">
			<use xlink:href="#SVGID_159_"  style="overflow:visible;"/>
		</clipPath>
		<path class="st87" d="M1475.5,193.8c-1.2,6-2.6,11.8-3.7,17.7c4.7,3.5,9.9,6.8,15.7,9.9C1483.8,211.9,1479.8,202.7,1475.5,193.8z"
			/>
	</g>
	<g>
		<defs>
			<rect id="SVGID_161_" y="0" width="1400" height="980"/>
		</defs>
		<clipPath id="SVGID_162_">
			<use xlink:href="#SVGID_161_"  style="overflow:visible;"/>
		</clipPath>
		<path class="st88" d="M1293.5,117.9c-3.4,6.6,3.1,4.6,3.5,7.1c5.7,39.2,63,26.5,92,32.9c41.5,9.2,55.1,33.4,82.9,53.7
			c1.1-5.9,2.5-11.8,3.7-17.7C1439.7,120.2,1381.4,74.5,1293.5,117.9z"/>
	</g>
	<g>
		<defs>
			<rect id="SVGID_163_" y="0" width="1400" height="980"/>
		</defs>
		<clipPath id="SVGID_164_">
			<use xlink:href="#SVGID_163_"  style="overflow:visible;"/>
		</clipPath>
		<path class="st89" d="M327.6,339c4.8,0.1,9.2-0.8,13.3-2.6C336.7,337.7,332.5,338.9,327.6,339z"/>
	</g>
	<g>
		<defs>
			<rect id="SVGID_165_" y="0" width="1400" height="980"/>
		</defs>
		<clipPath id="SVGID_166_">
			<use xlink:href="#SVGID_165_"  style="overflow:visible;"/>
		</clipPath>
		<path class="st90" d="M391,333.1c17.7-11.6,16-45.2,32-58.1c-37.8-14.9-49.6,47.8-82.1,61.4c5.1-1.6,10.2-3.4,16.1-3.4
			C370.2,332.8,378.6,341.2,391,333.1z"/>
	</g>
	<g>
		<defs>
			<rect id="SVGID_167_" y="0" width="1400" height="980"/>
		</defs>
		<clipPath id="SVGID_168_">
			<use xlink:href="#SVGID_167_"  style="overflow:visible;"/>
		</clipPath>
		<path class="st91" d="M429,273c-29.9-25.4-60.8-23-97.4-16C366.1,256.9,394.9,276.2,429,273z"/>
	</g>
	<g>
		<defs>
			<rect id="SVGID_169_" y="0" width="1400" height="980"/>
		</defs>
		<clipPath id="SVGID_170_">
			<use xlink:href="#SVGID_169_"  style="overflow:visible;"/>
		</clipPath>
		<path class="st92" d="M518.7,488.7c-4.2-15.1-18.1-35.5-26.2-49.7c-11.1-19.6-24.1-31.8-47.5-24
			C461.4,449.3,486,469.6,518.7,488.7z"/>
	</g>
	<g>
		<defs>
			<rect id="SVGID_171_" y="0" width="1400" height="980"/>
		</defs>
		<clipPath id="SVGID_172_">
			<use xlink:href="#SVGID_171_"  style="overflow:visible;"/>
		</clipPath>
		<path class="st93" d="M493,393c19.5-9,44.4-7.5,65.4-1.9c-19.9-6.4-38.9-20.2-59.4-22.1c-20.4-1.9-43,13.3-56,28
			C439.7,433.9,481,398.5,493,393z"/>
	</g>
	<g>
		<defs>
			<rect id="SVGID_173_" y="0" width="1400" height="980"/>
		</defs>
		<clipPath id="SVGID_174_">
			<use xlink:href="#SVGID_173_"  style="overflow:visible;"/>
		</clipPath>
		<path class="st94" d="M372.6,836.5c17.7-21,22.4-40.9,22.4-67.5c-53.6,0.4-57,66.8-83.7,103.2c7.1-8.2,15-17.9,25.7-21.3
			C353.8,845.5,359.2,852.4,372.6,836.5z"/>
	</g>
	<g>
		<defs>
			<rect id="SVGID_175_" y="0" width="1400" height="980"/>
		</defs>
		<clipPath id="SVGID_176_">
			<use xlink:href="#SVGID_175_"  style="overflow:visible;"/>
		</clipPath>
		<path class="st95" d="M281,165c5.6,20,23.4,35.2,33.2,53.8C311.2,209.7,306.4,139.3,281,165z"/>
	</g>
	<g>
		<defs>
			<rect id="SVGID_177_" y="0" width="1400" height="980"/>
		</defs>
		<clipPath id="SVGID_178_">
			<use xlink:href="#SVGID_177_"  style="overflow:visible;"/>
		</clipPath>
		<path class="st96" d="M196.8,121c-1.1,0.4-2.2,0.8-3.3,1.1C194.6,121.9,195.7,121.5,196.8,121z"/>
	</g>
	<g>
		<defs>
			<rect id="SVGID_179_" y="0" width="1400" height="980"/>
		</defs>
		<clipPath id="SVGID_180_">
			<use xlink:href="#SVGID_179_"  style="overflow:visible;"/>
		</clipPath>
		<path class="st97" d="M281,71c-36.7-31.8-57.1,38.3-84.2,50c18.2-6.3,32.4-13.5,50.6-17.6C265.8,99.3,284.9,92.4,281,71z"/>
	</g>
</g>
<rect x="-17.9" y="-11.2" class="st98" width="1438.4" height="1010.9"/>
</svg>
