<?xml version="1.0" encoding="utf-8"?>
<!-- Generator: Adobe Illustrator 23.0.3, SVG Export Plug-In . SVG Version: 6.00 Build 0)  -->
<svg version="1.1" id="Calque_1" xmlns="http://www.w3.org/2000/svg" xmlns:xlink="http://www.w3.org/1999/xlink" x="0px" y="0px"
	 viewBox="0 0 2800 1738.58" style="enable-background:new 0 0 2800 1738.58;" xml:space="preserve">
<style type="text/css">
	.st0{fill:#F7E2E2;}
	.st1{fill:#FFC0C0;}
	.st2{fill:#999999;}
	.st3{fill:#BDBDBD;}
	.st4{fill:#CCCCCC;}
	.st5{fill:#E53333;}
	.st6{fill:#570506;}
	.st7{fill:#DD0000;}
	.st8{fill:none;}
</style>
<g id="Guides_For_Artboard">
</g>
<g id="Layer_2">
	<g id="Airport">
	</g>
	<g>
		<g>
			<rect y="-161.41" class="st0" width="2800" height="1960"/>
		</g>
		<g>
			<path class="st1" d="M1989.7,666.59c0,325.6-264,589.7-589.7,589.7s-589.7-264-589.7-589.7s264-589.7,589.7-589.7
				C1725.7,76.89,1989.7,340.89,1989.7,666.59z"/>
		</g>
		<g>
			<path class="st0" d="M1159.8,282.79c-14.5,0-27.6,6.1-36.9,15.8c-13-26.1-40-44.1-71.1-44.1c-29.4,0-55,15.9-68.7,39.6
				c-8.8-7.1-19.9-11.3-32.1-11.3c-28.2,0-51.1,22.9-51.1,51.1c0,28.2,22.9,51.1,51.1,51.1c12.1,0,23.3-4.2,32.1-11.3
				c13.7,23.7,39.4,39.6,68.7,39.6c31.2,0,58.1-17.9,71.1-44.1c9.3,9.7,22.4,15.8,36.9,15.8c28.2,0,51.1-22.9,51.1-51.1
				c0-12-4.1-23-11-31.7C1190.5,290.39,1176.1,282.79,1159.8,282.79z"/>
		</g>
		<g>
			<g>
				<polygon class="st2" points="2650,1495.39 150,1495.39 1400,338.49 				"/>
			</g>
			<g>
				<polygon class="st3" points="1400,338.49 2650,1495.39 1400,1495.39 				"/>
			</g>
			<g>
				<polygon class="st4" points="1755.7,667.69 1400,338.49 1044.3,667.69 1238.1,771.29 1341.7,723.49 1629.9,886.59 				"/>
			</g>
		</g>
		<g>
			<path class="st0" d="M1003.4,712.89c-13,0-24.6,5.4-32.9,14.1c-11.6-23.3-35.7-39.3-63.4-39.3c-26.2,0-49.1,14.2-61.3,35.3
				c-7.8-6.3-17.8-10.1-28.6-10.1c-25.2,0-45.6,20.4-45.6,45.6c0,25.2,20.4,45.6,45.6,45.6c10.8,0,20.8-3.8,28.6-10.1
				c12.3,21.1,35.1,35.3,61.3,35.3c27.8,0,51.8-16,63.4-39.3c8.3,8.7,20,14.1,32.9,14.1c25.2,0,45.6-20.4,45.6-45.6
				S1028.6,712.89,1003.4,712.89z"/>
		</g>
		<g>
			<g>
				<path class="st5" d="M2198.2,573.99c0,0-34.9,30.7-63.4,33.8h342.7c0,0-56.8-16.9-66.3-33.8H2198.2z"/>
			</g>
			<g>
				<path class="st5" d="M2181.6,576.69h249.1c0,0-124.6-61.4-124.6-163.3C2306.2,413.39,2305.6,516.39,2181.6,576.69z"/>
			</g>
			<g>
				<rect x="2207.5" y="607.79" class="st6" width="197.3" height="21.8"/>
			</g>
			<g>
				<polygon class="st5" points="2480.3,667.59 2132.8,667.59 2090.8,629.59 2524.6,629.59 				"/>
			</g>
			<g>
				<rect x="2132.8" y="667.59" class="st6" width="345.1" height="133.1"/>
			</g>
			<g>
				<rect x="2162.7" y="683.79" class="st1" width="79.7" height="50.4"/>
			</g>
			<g>
				<rect x="2267.8" y="683.79" class="st1" width="79.7" height="50.4"/>
			</g>
			<g>
				<rect x="2371.7" y="683.79" class="st1" width="79.7" height="50.4"/>
			</g>
			<g>
				<path class="st7" d="M2112.6,745.49v58.7H2498v-58.7H2112.6z M2199.9,753.49h27.2v43.8h-27.2V753.49z M2191.2,797.29H2160v-43.8
					h31.2V797.29z M2235.8,753.49h26.4v43.8h-26.4V753.49z M2270.9,753.49h29.8v43.8h-29.8V753.49z M2309.4,753.49h29.4v43.8h-29.4
					V753.49z M2347.5,753.49h28.5v43.8h-28.5V753.49z M2384.7,753.49h29v43.8h-29V753.49z M2422.4,753.49h28.5v43.8h-28.5V753.49z
					 M2121.8,753.49h29.6v43.8h-29.6V753.49z M2488.9,797.29h-29.3v-43.8h29.3V797.29z"/>
			</g>
			<g>
				<polygon class="st5" points="2592.4,889.79 2014.4,889.79 2110.7,804.19 2496.2,804.19 				"/>
			</g>
			<g>
				<polygon class="st7" points="2303.4,804.19 2110.7,804.19 2014.4,889.79 2303.4,889.79 				"/>
			</g>
			<g>
				<rect x="2012.7" y="920.19" class="st6" width="579.1" height="241.4"/>
			</g>
			<g>
				<polygon class="st5" points="2592,926.89 2012.6,926.89 1970.6,888.89 2636.3,888.89 				"/>
			</g>
			<g>
				<polygon class="st7" points="2303.4,887.99 1970.6,887.99 2012.6,925.99 2303.4,925.99 				"/>
			</g>
			<g>
				<path class="st7" d="M1978.9,1067.99v102.8h646.8v-102.8H1978.9z M2125.4,1081.49h45.7v73.4h-45.7V1081.49z M2110.8,1154.89
					h-52.3v-73.4h52.3V1154.89z M2185.6,1081.49h44.2v73.4h-44.2V1081.49z M2244.4,1081.49h50.1v73.4h-50.1V1081.49z
					 M2309.1,1081.49h49.4v73.4h-49.4V1081.49z M2373.1,1081.49h47.9v73.4h-47.9V1081.49z M2435.5,1081.49h48.6v73.4h-48.6V1081.49z
					 M2498.7,1081.49h47.8v73.4h-47.8V1081.49z M1994.3,1081.49h49.6v73.4h-49.6V1081.49z M2610.3,1154.89h-49.2v-73.4h49.2V1154.89
					z"/>
			</g>
			<g>
				<rect x="2038" y="948.19" class="st1" width="83.3" height="44.8"/>
			</g>
			<g>
				<rect x="2148" y="948.19" class="st1" width="83.3" height="44.8"/>
			</g>
			<g>
				<rect x="2256.6" y="948.19" class="st1" width="83.3" height="44.8"/>
			</g>
			<g>
				<rect x="2369.2" y="948.19" class="st1" width="83.3" height="44.8"/>
			</g>
			<g>
				<rect x="2479.2" y="948.19" class="st1" width="83.3" height="44.8"/>
			</g>
			<g>
				<rect x="2036" y="1007.59" class="st1" width="83.3" height="44.8"/>
			</g>
			<g>
				<rect x="2146" y="1007.59" class="st1" width="83.3" height="44.8"/>
			</g>
			<g>
				<rect x="2254.6" y="1007.59" class="st1" width="83.3" height="44.8"/>
			</g>
			<g>
				<rect x="2367.2" y="1007.59" class="st1" width="83.3" height="44.8"/>
			</g>
			<g>
				<rect x="2477.2" y="1007.59" class="st1" width="83.3" height="44.8"/>
			</g>
			<g>
				<polygon class="st5" points="2722,1252.69 1882.9,1252.69 1979.1,1166.99 2625.7,1166.99 				"/>
			</g>
			<g>
				<polygon class="st5" points="2721.6,1288.79 1881,1288.79 1839,1250.79 2765.8,1250.79 				"/>
			</g>
			<g>
				<rect x="1881.2" y="1288.79" class="st6" width="840.2" height="233.7"/>
			</g>
			<g>
				<rect x="1906.4" y="1311.09" class="st1" width="87.8" height="47.3"/>
			</g>
			<g>
				<rect x="2022.3" y="1311.09" class="st1" width="87.8" height="47.3"/>
			</g>
			<g>
				<rect x="2136.8" y="1311.09" class="st1" width="87.8" height="47.3"/>
			</g>
			<g>
				<rect x="2255.4" y="1311.09" class="st1" width="87.8" height="47.3"/>
			</g>
			<g>
				<rect x="2371.3" y="1311.09" class="st1" width="87.8" height="47.3"/>
			</g>
			<g>
				<rect x="2484.5" y="1311.09" class="st1" width="87.8" height="47.3"/>
			</g>
			<g>
				<rect x="2600.4" y="1311.09" class="st1" width="87.8" height="47.3"/>
			</g>
			<g>
				<rect x="1907.4" y="1377.49" class="st1" width="87.8" height="47.3"/>
			</g>
			<g>
				<rect x="2023.2" y="1377.49" class="st1" width="87.8" height="47.3"/>
			</g>
			<g>
				<rect x="2485.5" y="1377.49" class="st1" width="87.8" height="47.3"/>
			</g>
			<g>
				<rect x="2601.3" y="1377.49" class="st1" width="87.8" height="47.3"/>
			</g>
			<g>
				<rect x="2136.8" y="1377.49" class="st1" width="322.3" height="113.1"/>
			</g>
			<g>
				<rect x="1905" y="1443.29" class="st1" width="87.8" height="47.3"/>
			</g>
			<g>
				<rect x="2020.9" y="1443.29" class="st1" width="87.8" height="47.3"/>
			</g>
			<g>
				<rect x="2483.1" y="1443.29" class="st1" width="87.8" height="47.3"/>
			</g>
			<g>
				<rect x="2599" y="1443.29" class="st1" width="87.8" height="47.3"/>
			</g>
			<g>
				<path class="st7" d="M2306.2,413.39c0,0-0.6,103-124.5,163.3h124.5V413.39z"/>
			</g>
			<g>
				<polygon class="st7" points="2307.7,629.59 2090.8,629.59 2132.8,667.59 2307.7,667.59 				"/>
			</g>
			<g>
				<polygon class="st7" points="2302.4,1166.99 1979.1,1166.99 1882.9,1252.69 2302.4,1252.69 				"/>
			</g>
			<g>
				<polygon class="st7" points="2302.4,1250.79 1839,1250.79 1881,1288.79 2302.4,1288.79 				"/>
			</g>
		</g>
		<g>
			<g>
				<path class="st5" d="M401.3,573.99c0,0-34.9,30.7-63.4,33.8h342.7c0,0-56.8-16.9-66.3-33.8H401.3z"/>
			</g>
			<g>
				<path class="st5" d="M384.7,576.69h249.1c0,0-124.6-61.4-124.6-163.3C509.3,413.39,508.7,516.39,384.7,576.69z"/>
			</g>
			<g>
				<rect x="410.7" y="607.79" class="st6" width="197.3" height="21.8"/>
			</g>
			<g>
				<polygon class="st5" points="683.5,667.59 335.9,667.59 293.9,629.59 727.7,629.59 				"/>
			</g>
			<g>
				<rect x="335.9" y="667.59" class="st6" width="345.1" height="133.1"/>
			</g>
			<g>
				<rect x="365.8" y="683.79" class="st1" width="79.7" height="50.4"/>
			</g>
			<g>
				<rect x="471" y="683.79" class="st1" width="79.7" height="50.4"/>
			</g>
			<g>
				<rect x="574.9" y="683.79" class="st1" width="79.7" height="50.4"/>
			</g>
			<g>
				<path class="st7" d="M315.8,745.49v58.7h385.4v-58.7H315.8z M403,753.49h27.2v43.8H403V753.49z M394.3,797.29h-31.2v-43.8h31.2
					V797.29z M438.9,753.49h26.4v43.8h-26.4V753.49z M474,753.49h29.8v43.8H474V753.49z M512.5,753.49H542v43.8h-29.4v-43.8H512.5z
					 M550.6,753.49h28.5v43.8h-28.5V753.49z M587.9,753.49h29v43.8h-29V753.49z M625.5,753.49H654v43.8h-28.5V753.49z M324.9,753.49
					h29.6v43.8h-29.6V753.49z M692.1,797.29h-29.3v-43.8h29.3V797.29z"/>
			</g>
			<g>
				<polygon class="st5" points="795.6,889.79 217.6,889.79 313.8,804.19 699.3,804.19 				"/>
			</g>
			<g>
				<polygon class="st7" points="506.6,804.19 313.8,804.19 217.6,889.79 506.6,889.79 				"/>
			</g>
			<g>
				<rect x="215.9" y="920.19" class="st6" width="579.1" height="241.4"/>
			</g>
			<g>
				<polygon class="st5" points="795.2,926.89 215.7,926.89 173.7,888.89 839.4,888.89 				"/>
			</g>
			<g>
				<polygon class="st7" points="506.6,887.99 173.7,887.99 215.7,925.99 506.6,925.99 				"/>
			</g>
			<g>
				<path class="st7" d="M182.1,1067.99v102.8h646.8v-102.8H182.1z M328.5,1081.49h45.7v73.4h-45.7V1081.49z M313.9,1154.89h-52.3
					v-73.4h52.3V1154.89z M388.8,1081.49H433v73.4h-44.2V1081.49z M447.6,1081.49h50.1v73.4h-50.1V1081.49z M512.2,1081.49h49.4
					v73.4h-49.4V1081.49z M576.2,1081.49h47.9v73.4h-47.9V1081.49z M638.7,1081.49h48.6v73.4h-48.6V1081.49z M701.9,1081.49h47.8
					v73.4h-47.8V1081.49z M197.4,1081.49H247v73.4h-49.6V1081.49z M813.5,1154.89h-49.2v-73.4h49.2V1154.89z"/>
			</g>
			<g>
				<rect x="241.1" y="948.19" class="st1" width="83.3" height="44.8"/>
			</g>
			<g>
				<rect x="351.1" y="948.19" class="st1" width="83.3" height="44.8"/>
			</g>
			<g>
				<rect x="459.7" y="948.19" class="st1" width="83.3" height="44.8"/>
			</g>
			<g>
				<rect x="572.3" y="948.19" class="st1" width="83.3" height="44.8"/>
			</g>
			<g>
				<rect x="682.3" y="948.19" class="st1" width="83.3" height="44.8"/>
			</g>
			<g>
				<rect x="239.1" y="1007.59" class="st1" width="83.3" height="44.8"/>
			</g>
			<g>
				<rect x="349.1" y="1007.59" class="st1" width="83.3" height="44.8"/>
			</g>
			<g>
				<rect x="457.7" y="1007.59" class="st1" width="83.3" height="44.8"/>
			</g>
			<g>
				<rect x="570.3" y="1007.59" class="st1" width="83.3" height="44.8"/>
			</g>
			<g>
				<rect x="680.3" y="1007.59" class="st1" width="83.3" height="44.8"/>
			</g>
			<g>
				<polygon class="st5" points="925.1,1252.69 86,1252.69 182.3,1166.99 828.8,1166.99 				"/>
			</g>
			<g>
				<polygon class="st5" points="924.7,1288.79 84.1,1288.79 42.2,1250.79 968.9,1250.79 				"/>
			</g>
			<g>
				<rect x="84.3" y="1288.79" class="st6" width="840.2" height="233.7"/>
			</g>
			<g>
				<rect x="109.6" y="1311.09" class="st1" width="87.8" height="47.3"/>
			</g>
			<g>
				<rect x="225.4" y="1311.09" class="st1" width="87.8" height="47.3"/>
			</g>
			<g>
				<rect x="339.9" y="1311.09" class="st1" width="87.8" height="47.3"/>
			</g>
			<g>
				<rect x="458.5" y="1311.09" class="st1" width="87.8" height="47.3"/>
			</g>
			<g>
				<rect x="574.4" y="1311.09" class="st1" width="87.8" height="47.3"/>
			</g>
			<g>
				<rect x="687.7" y="1311.09" class="st1" width="87.8" height="47.3"/>
			</g>
			<g>
				<rect x="803.5" y="1311.09" class="st1" width="87.8" height="47.3"/>
			</g>
			<g>
				<rect x="110.5" y="1377.49" class="st1" width="87.8" height="47.3"/>
			</g>
			<g>
				<rect x="226.4" y="1377.49" class="st1" width="87.8" height="47.3"/>
			</g>
			<g>
				<rect x="688.6" y="1377.49" class="st1" width="87.8" height="47.3"/>
			</g>
			<g>
				<rect x="804.5" y="1377.49" class="st1" width="87.8" height="47.3"/>
			</g>
			<g>
				<rect x="339.9" y="1377.49" class="st1" width="322.3" height="113.1"/>
			</g>
			<g>
				<rect x="108.2" y="1443.29" class="st1" width="87.8" height="47.3"/>
			</g>
			<g>
				<rect x="224" y="1443.29" class="st1" width="87.8" height="47.3"/>
			</g>
			<g>
				<rect x="686.3" y="1443.29" class="st1" width="87.8" height="47.3"/>
			</g>
			<g>
				<rect x="802.1" y="1443.29" class="st1" width="87.8" height="47.3"/>
			</g>
			<g>
				<path class="st7" d="M509.3,413.39c0,0-0.6,103-124.5,163.3h124.5V413.39z"/>
			</g>
			<g>
				<polygon class="st7" points="510.8,629.59 293.9,629.59 335.9,667.59 510.8,667.59 				"/>
			</g>
			<g>
				<polygon class="st7" points="505.5,1166.99 182.3,1166.99 86,1252.69 505.5,1252.69 				"/>
			</g>
			<g>
				<polygon class="st7" points="505.5,1250.79 42.2,1250.79 84.1,1288.79 505.5,1288.79 				"/>
			</g>
		</g>
		<g>
			<path class="st6" d="M2752.3,1455.79c-6.5,0-12.7,1.4-18.2,4c-10.6-33.2-41.7-57.2-78.4-57.2c-35.3,0-65.4,22.2-77.1,53.5
				c-1.7-0.2-3.4-0.3-5.2-0.3c-11.3,0-21.7,4.4-29.4,11.5c-3.9-19.2-20.9-33.6-41.2-33.6c-18.6,0-34.4,12.1-39.9,28.8
				c-6.7-4.2-14.6-6.7-23.2-6.7c-6.5,0-12.7,1.4-18.2,4c-10.6-33.2-41.7-57.2-78.4-57.2c-35.3,0-65.4,22.2-77.1,53.5
				c-1.7-0.2-3.4-0.3-5.2-0.3c-10.5,0-20.1,3.7-27.5,9.9c-4.5-18.3-21.1-32-40.8-32c-19.2,0-35.4,12.9-40.4,30.5
				c-7.2-5.3-16.1-8.4-25.7-8.4c-6.5,0-12.7,1.4-18.2,4c-10.6-33.2-41.7-57.2-78.4-57.2c-35.3,0-65.4,22.2-77.1,53.5
				c-1.7-0.2-3.4-0.3-5.2-0.3c-11.3,0-21.7,4.4-29.4,11.5c-3.9-19.2-20.9-33.6-41.2-33.6c-18.6,0-34.4,12.1-39.9,28.8
				c-6.7-4.2-14.6-6.7-23.2-6.7c-2.1,0-4.1,0.2-6.1,0.4c-2-0.3-4.1-0.4-6.1-0.4c-2.4,0-4.8,0.2-7.2,0.6
				c-11.6-31.4-41.8-53.8-77.2-53.8c-2.1,0-4.1,0.1-6.1,0.2c-2-0.1-4-0.2-6.1-0.2c-35.3,0-65.4,22.2-77.1,53.5
				c-1.7-0.2-3.4-0.3-5.2-0.3c-8.7,0-16.9,2.6-23.7,7c-5.5-16.9-21.3-29.1-40-29.1c-1.2,0-2.3,0.1-3.5,0.1c-1.1-0.1-2.3-0.1-3.4-0.1
				c-18.6,0-34.3,12-39.9,28.7c-6.3-3.9-13.6-6.3-21.5-6.5c-0.2,0-0.4,0-0.6,0c-0.3,0-0.5,0-0.8,0h-0.1h-0.1c-6.4,0-12.5,1.4-18,3.9
				c-10.6-33.1-41.7-57.1-78.3-57.1h-0.1h-0.1c-35.3,0-65.4,22.2-77.1,53.5c-1.6-0.2-3.3-0.3-5-0.3h-0.1h-0.1
				c-10.5,0-20,3.7-27.5,9.9c-4.5-18.3-21.1-32-40.8-32c-0.3,0-0.7,0-1,0s-0.6,0-1,0c-18.6,0-34.4,12.1-39.9,28.8
				c-6.7-4.2-14.6-6.7-23.1-6.7c-0.2,0-0.3,0-0.4,0c-0.2,0-0.4,0-0.6,0c-6.1,0-12,1.3-17.3,3.6c-10.7-33-41.7-56.8-78.2-56.8
				c-0.2,0-0.4,0-0.5,0c-0.2,0-0.3,0-0.5,0c-35.3,0-65.4,22.2-77,53.4c-1.4-0.1-2.8-0.2-4.2-0.2c-0.2,0-0.4,0-0.6,0
				c-0.2,0-0.3,0-0.5,0c-11.3,0-21.7,4.4-29.4,11.5c-3.9-19.2-20.9-33.6-41.2-33.6c-18.6,0-34.4,12.1-39.9,28.8
				c-6.7-4.2-14.6-6.7-23.2-6.7c-6.5,0-12.7,1.4-18.2,4c-10.6-33.2-41.7-57.2-78.4-57.2c-35.3,0-65.4,22.2-77.1,53.5
				c-1.7-0.2-3.4-0.3-5.2-0.3c-13.8,0-26.1,6.4-34,16.5c-1.8-21.6-19.9-38.6-41.9-38.6c-20.1,0-36.9,14.1-41.1,32.9
				c-7.6-6.7-17.7-10.8-28.7-10.8c-6.5,0-12.7,1.4-18.2,4c-10.6-33.2-41.7-57.2-78.4-57.2c-35.3,0-65.4,22.2-77.1,53.5
				c-1.7-0.2-3.4-0.3-5.2-0.3c-11.3,0-21.7,4.4-29.4,11.5c-3.9-19.2-20.9-33.6-41.2-33.6c-18.6,0-34.4,12.1-39.9,28.8
				c-6.7-4.2-14.6-6.7-23.1-6.7c-6.5,0-12.7,1.4-18.2,4c-10.6-33.2-41.7-57.2-78.4-57.2c-35.3,0-65.4,22.2-77.1,53.5
				c-1.7-0.2-3.4-0.3-5.2-0.3c-24,0-43.4,19.4-43.4,43.4v89.1h950.5H1845h950.5v-89.1C2795.8,1475.19,2776.3,1455.79,2752.3,1455.79
				z"/>
		</g>
		<g>
			<g>
				<polygon class="st8" points="1605.6,1334.99 1607.8,1334.99 1607.8,1319.79 1191.4,1319.79 1191.4,1334.99 1194.4,1334.99 
					1194.4,1348.79 1191.4,1348.79 1191.4,1364.09 1607.8,1364.09 1607.8,1348.79 1605.6,1348.79 				"/>
			</g>
			<g>
				<polygon class="st6" points="1157.7,1376.39 1157.7,1364.09 1024.7,1364.09 1070.3,1405.39 1070.8,1405.39 1038.8,1376.39 				
					"/>
			</g>
			<g>
				<rect x="1191.4" y="1364.09" class="st6" width="416.3" height="12.3"/>
			</g>
			<g>
				<polygon class="st6" points="1641.5,1364.09 1641.5,1376.39 1761,1376.39 1775.3,1364.09 				"/>
			</g>
			<g>
				<path class="st6" d="M1726.1,1228.59l-1.1,1.1c-103.7,19.2-217.9,29.8-337.8,29.8c-110.6,0-216.2-9-313.3-25.5v49.6h652.2
					L1726.1,1228.59L1726.1,1228.59z"/>
			</g>
			<g>
				<polygon class="st7" points="1191.4,1300.59 1191.4,1319.79 1607.8,1319.79 1607.8,1300.59 1641.5,1300.59 1641.5,1319.79 
					1713.1,1319.79 1761.2,1278.59 1726.1,1278.59 1073.9,1278.59 1038.8,1278.59 1084.4,1319.79 1157.7,1319.79 1157.7,1300.59 
									"/>
			</g>
			<g>
				<polygon class="st7" points="1157.7,1376.39 1038.8,1376.39 1070.8,1405.39 1084.4,1417.69 1157.7,1417.69 				"/>
			</g>
			<g>
				<rect x="1191.4" y="1376.39" class="st7" width="416.3" height="41.2"/>
			</g>
			<g>
				<polygon class="st7" points="1641.5,1417.69 1713.1,1417.69 1761.2,1376.39 1761,1376.39 1641.5,1376.39 				"/>
			</g>
			<g>
				<polygon class="st7" points="1191.4,1319.79 1191.4,1300.59 1157.7,1300.59 1157.7,1319.79 1157.7,1334.99 1191.4,1334.99 				
					"/>
			</g>
			<g>
				<polygon class="st7" points="1191.4,1376.39 1191.4,1364.09 1191.4,1348.79 1157.7,1348.79 1157.7,1364.09 1157.7,1376.39 
					1157.7,1417.69 1157.7,1676.09 1191.4,1676.09 1191.4,1417.69 				"/>
			</g>
			<g>
				<polygon class="st7" points="1607.8,1300.59 1607.8,1319.79 1607.8,1334.99 1641.5,1334.99 1641.5,1319.79 1641.5,1300.59 				
					"/>
			</g>
			<g>
				<polygon class="st7" points="1641.5,1376.39 1641.5,1364.09 1641.5,1348.79 1607.8,1348.79 1607.8,1364.09 1607.8,1376.39 
					1607.8,1417.69 1607.8,1676.09 1641.5,1676.09 1641.5,1417.69 				"/>
			</g>
			<g>
				<path class="st6" d="M1725,1230.49l1.1-1.1l65.2-65.2c-116.8,32.1-255.4,50.7-404.1,50.7c-138,0-267.3-16-378.5-44l63.7,63.7
					c0.5,0.1,1,0.2,1.5,0.3c97.1,16.4,202.7,25.5,313.3,25.5C1507.1,1260.29,1621.3,1249.69,1725,1230.49z"/>
			</g>
			<g>
				<polygon class="st6" points="1605.2,1676.09 1605.2,1754.69 1644.1,1754.69 1644.1,1676.09 1641.5,1676.09 1607.8,1676.09 				
					"/>
			</g>
			<g>
				<polygon class="st6" points="1155.1,1676.09 1155.1,1754.69 1194,1754.69 1194,1676.09 1191.4,1676.09 1157.7,1676.09 				"/>
			</g>
			<g>
				<polygon class="st6" points="1605.6,1334.99 1605.6,1348.79 1607.8,1348.79 1641.5,1348.79 1644.5,1348.79 1644.5,1334.99 
					1641.5,1334.99 1607.8,1334.99 				"/>
			</g>
			<g>
				<polygon class="st6" points="1194.4,1348.79 1194.4,1334.99 1191.4,1334.99 1157.7,1334.99 1155.5,1334.99 1155.5,1348.79 
					1157.7,1348.79 1191.4,1348.79 				"/>
			</g>
		</g>
		<g>
			<path class="st0" d="M1995.4,592.69c-15.9,0-30.2,6.6-40.4,17.3c-14.2-28.6-43.7-48.2-77.8-48.2c-32.1,0-60.1,17.4-75.2,43.3
				c-9.6-7.7-21.8-12.4-35.1-12.4c-30.9,0-55.9,25-55.9,55.9s25,55.9,55.9,55.9c13.3,0,25.5-4.6,35.1-12.4
				c15,25.9,43.1,43.3,75.2,43.3c34.1,0,63.6-19.6,77.8-48.2c10.2,10.6,24.5,17.3,40.4,17.3c30.9,0,55.9-25,55.9-55.9
				C2051.3,617.69,2026.3,592.69,1995.4,592.69z"/>
		</g>
		<g>
			<line class="st8" x1="736.1" y1="1754.69" x2="2103.9" y2="1754.69"/>
			<path class="st6" d="M2103.9,1760.29H736.1c-3.1,0-5.7-2.5-5.7-5.7s2.5-5.7,5.7-5.7h1367.8c3.1,0,5.7,2.5,5.7,5.7
				S2107,1760.29,2103.9,1760.29z"/>
		</g>
	</g>
</g>
</svg>
