<?xml version="1.0" encoding="utf-8"?>
<!-- Generator: Adobe Illustrator 23.0.3, SVG Export Plug-In . SVG Version: 6.00 Build 0)  -->
<!DOCTYPE svg PUBLIC "-//W3C//DTD SVG 1.1//EN" "http://www.w3.org/Graphics/SVG/1.1/DTD/svg11.dtd" [
	<!ENTITY ns_extend "http://ns.adobe.com/Extensibility/1.0/">
	<!ENTITY ns_ai "http://ns.adobe.com/AdobeIllustrator/10.0/">
	<!ENTITY ns_graphs "http://ns.adobe.com/Graphs/1.0/">
	<!ENTITY ns_vars "http://ns.adobe.com/Variables/1.0/">
	<!ENTITY ns_imrep "http://ns.adobe.com/ImageReplacement/1.0/">
	<!ENTITY ns_sfw "http://ns.adobe.com/SaveForWeb/1.0/">
	<!ENTITY ns_custom "http://ns.adobe.com/GenericCustomNamespace/1.0/">
	<!ENTITY ns_adobe_xpath "http://ns.adobe.com/XPath/1.0/">
]>
<svg version="1.1" id="Capa_1" xmlns:x="&ns_extend;" xmlns:i="&ns_ai;" xmlns:graph="&ns_graphs;"
	 xmlns="http://www.w3.org/2000/svg" xmlns:xlink="http://www.w3.org/1999/xlink" x="0px" y="0px" viewBox="0 0 55 55"
	 style="enable-background:new 0 0 55 55;" xml:space="preserve">
<style type="text/css">
	.st0{fill:#BA1818;stroke:#E52613;stroke-width:4;stroke-miterlimit:10;}
</style>
<metadata>
	<sfw  xmlns="&ns_sfw;">
		<slices></slices>
		<sliceSourceBounds  bottomLeftOrigin="true" height="57.2" width="57.2" x="-0.9" y="-0.8"></sliceSourceBounds>
	</sfw>
</metadata>
<path d="M52.7,0.2C52.4,0.1,52.2,0,51.9,0l-31,4C20.4,4.1,20,4.5,20,5v6v4.2v25.4c-1.8-2.2-4.7-3.6-8-3.6c-5.5,0-10,4-10,9
	s4.5,9,10,9s10-4,10-9c0-0.2,0-0.5,0-0.7c0-0.1,0-0.1,0-0.2v-29l29-3.8v18.3c-1.8-2.2-4.7-3.6-8-3.6c-5.5,0-10,4-10,9s4.5,9,10,9
	c5.5,0,9.9-4,10-8.9c0,0,0,0,0,0V11.2V7V1C53,0.7,52.9,0.4,52.7,0.2z"/>
<line class="st0" x1="0.6" y1="54.4" x2="54.9" y2="0"/>
</svg>
