<svg xmlns="http://www.w3.org/2000/svg" xmlns:xlink="http://www.w3.org/1999/xlink" width="122" height="146" viewBox="0 0 122 146">
  <defs>
    <linearGradient id="linear-gradient" x1="0.5" x2="0.5" y2="1" gradientUnits="objectBoundingBox">
      <stop offset="0" stop-color="#dbefec"/>
      <stop offset="0" stop-color="#fff"/>
      <stop offset="1" stop-color="#fff"/>
    </linearGradient>
    <clipPath id="clip-ninjaDroite">
      <rect width="122" height="146"/>
    </clipPath>
  </defs>
  <g id="ninjaDroite" clip-path="url(#clip-ninjaDroite)">
    <rect width="122" height="146" fill="url(#linear-gradient)"/>
    <g id="g5205" transform="translate(19.111 17.724)">
      <path id="path5094" d="M158.973,745.64v10.219l-1.77,3.066h-7.08l-1.77-3.066V745.64Z" transform="translate(-90.933 -653.428)" fill="#383334" fill-rule="evenodd"/>
      <path id="path5092" d="M303.283,761.424v10.219l-1.77,3.066h-7.08l-1.77-3.066V761.424Z" transform="translate(-278.503 -664.48)" fill="#383334" fill-rule="evenodd"/>
      <path id="path5039" d="M280.828,557.309l-35.4-20.438V506.214l35.4,20.438Z" transform="translate(-241.888 -485.776)" fill="#1a1733" fill-rule="evenodd"/>
      <path id="path5041" d="M280.828,502.782V482.344l-17.7-10.219-17.7,10.219Z" transform="translate(-241.888 -461.906)" fill="#2e2430" fill-rule="evenodd"/>
      <path id="path5043" d="M127.341,557.309l35.4-20.438V506.214l-35.4,20.438Z" transform="translate(-88.402 -485.776)" fill="#383334" fill-rule="evenodd"/>
      <path id="path5045" d="M127.341,502.782V482.344l17.7-10.219,17.7,10.219Z" transform="translate(-88.402 -461.906)" fill="#3a3a34" fill-rule="evenodd"/>
      <path id="path5047" d="M221.784,448.256l-17.7-10.219-17.7,10.219,17.7,10.219Z" transform="translate(-165.144 -438.037)" fill="#443" fill-rule="evenodd"/>
      <path id="path5049" d="M284.367,628.919v40.876l-37.17-21.46-1.77-21.46,3.54-18.394Z" transform="translate(-245.428 -557.386)" fill="#241733" fill-rule="evenodd"/>
      <path id="path5051" d="M115.532,628.919v40.876l37.17-21.46,1.77-21.46-3.54-18.394Z" transform="translate(-76.593 -557.386)" fill="#2b262b" fill-rule="evenodd"/>
      <path id="path5053" d="M284.367,660.621l-37.17-21.46-1.77,9.2,38.939,22.482Z" transform="translate(-245.428 -578.869)" fill="#542639" fill-rule="evenodd"/>
      <path id="path5055" d="M115.532,660.621l37.17-21.46,1.77,9.2-38.94,22.482Z" transform="translate(-76.593 -578.869)" fill="#a5344a" fill-rule="evenodd"/>
      <path id="path5063" d="M168.63,546.553l-26.55,15.328V572.1l26.55-15.328Z" transform="translate(-98.709 -514.022)" fill="#1a1a1a" fill-rule="evenodd"/>
      <path id="path5065" d="M163.847,543.82,137.3,559.148v10.219l26.55-15.329Z" transform="translate(-92.492 -512.109)" fill="#1a1a1a" fill-rule="evenodd"/>
      <path id="path5057" d="M168.63,542l-26.55,15.329v10.219l26.55-15.328Z" transform="translate(-98.709 -510.832)" fill="#fcb" fill-rule="evenodd"/>
      <path id="path5059" d="M155.472,558.9l-2.95,1.7v3.406l2.95-1.7Z" transform="translate(-88.682 -522.67)" fill="#211" fill-rule="evenodd"/>
      <path id="path5061" d="M211.732,590.564l-2.95,1.7v3.406l2.95-1.7Z" transform="translate(-161.807 -544.84)" fill="#211" fill-rule="evenodd"/>
    </g>
  </g>
</svg>
