<?xml version="1.0" encoding="utf-8"?>
<!-- Generator: Adobe Illustrator 23.0.3, SVG Export Plug-In . SVG Version: 6.00 Build 0)  -->
<svg version="1.1" id="Calque_1" xmlns="http://www.w3.org/2000/svg" xmlns:xlink="http://www.w3.org/1999/xlink" x="0px" y="0px"
	 viewBox="0 0 115.34 79.14" style="enable-background:new 0 0 115.34 79.14;" xml:space="preserve">
<style type="text/css">
	.st0{fill:none;stroke:#000000;stroke-width:5;stroke-miterlimit:10;}
	.st1{font-family:'FuturaStd-Book';}
	.st2{font-size:8.9996px;}
	.st3{font-size:9px;}
</style>
<g>
	<line class="st0" x1="7.36" y1="9.25" x2="107.06" y2="68.65"/>
	<line class="st0" x1="11.36" y1="23.55" x2="7.36" y2="8.95"/>
	<line class="st0" x1="21.36" y1="6.05" x2="5.06" y2="9.75"/>
	<line class="st0" x1="107.56" y1="71.25" x2="103.36" y2="55.65"/>
	<line class="st0" x1="107.26" y1="68.75" x2="93.56" y2="71.95"/>
	<text transform="matrix(0.8589 0.518 -0.5164 0.8563 21.6028 12.2924)" class="st1 st2">Gauche</text>
	<line class="st0" x1="9.96" y1="68.85" x2="109.16" y2="8.65"/>
	<line class="st0" x1="24.36" y1="72.05" x2="9.66" y2="68.65"/>
	<line class="st0" x1="13.76" y1="55.05" x2="9.36" y2="71.15"/>
	<line class="st0" x1="111.66" y1="9.45" x2="95.86" y2="5.85"/>
	<line class="st0" x1="109.36" y1="8.55" x2="105.66" y2="22.15"/>
	<text transform="matrix(0.86 -0.5161 0.5146 0.8574 19.3142 57.7415)" class="st1 st3">Bas</text>
	<text transform="matrix(0.8515 -0.53 0.5284 0.849 74.5665 23.6015)" class="st1 st3">Haut</text>
	<text transform="matrix(0.8589 0.518 -0.5164 0.8563 74.566 44.1111)" class="st1 st2">Droite</text>
</g>
</svg>
