<?xml version="1.0" encoding="utf-8"?>
<!-- Generator: Adobe Illustrator 23.0.3, SVG Export Plug-In . SVG Version: 6.00 Build 0)  -->
<!DOCTYPE svg PUBLIC "-//W3C//DTD SVG 1.1//EN" "http://www.w3.org/Graphics/SVG/1.1/DTD/svg11.dtd" [
	<!ENTITY ns_extend "http://ns.adobe.com/Extensibility/1.0/">
	<!ENTITY ns_ai "http://ns.adobe.com/AdobeIllustrator/10.0/">
	<!ENTITY ns_graphs "http://ns.adobe.com/Graphs/1.0/">
	<!ENTITY ns_vars "http://ns.adobe.com/Variables/1.0/">
	<!ENTITY ns_imrep "http://ns.adobe.com/ImageReplacement/1.0/">
	<!ENTITY ns_sfw "http://ns.adobe.com/SaveForWeb/1.0/">
	<!ENTITY ns_custom "http://ns.adobe.com/GenericCustomNamespace/1.0/">
	<!ENTITY ns_adobe_xpath "http://ns.adobe.com/XPath/1.0/">
]>
<svg version="1.1" id="Calque_1" xmlns:x="&ns_extend;" xmlns:i="&ns_ai;" xmlns:graph="&ns_graphs;"
	 xmlns="http://www.w3.org/2000/svg" xmlns:xlink="http://www.w3.org/1999/xlink" x="0px" y="0px" viewBox="0 0 595.3 252"
	 style="enable-background:new 0 0 595.3 252;" xml:space="preserve">
<style type="text/css">
	.st0{fill:#040506;}
	.st1{fill:#1C1C1C;}
	.st2{fill:#121212;}
	.st3{fill:#FBFBFB;}
	.st4{fill:#F8F7F7;}
	.st5{fill:#EAEAEA;}
	.st6{fill:#FFFFFF;}
	.st7{fill:#EEEEEF;}
	.st8{fill:#1F1F1F;}
	.st9{fill:#8D8D8E;}
	.st10{fill:#050506;}
	.st11{fill:#F6F5F5;}
</style>
<metadata>
	<sfw  xmlns="&ns_sfw;">
		<slices></slices>
		<sliceSourceBounds  bottomLeftOrigin="true" height="243.7" width="595.3" x="0" y="7"></sliceSourceBounds>
	</sfw>
</metadata>
<g id="Groupe_474" transform="translate(-722.733 -196.809)">
	<path id="Tracé_9421" class="st0" d="M730.9,272.7c24.6-29.9,69.8-46,121.1-57.6c65.4-14.8,133.8-19,203.7-16.2
		c53.5,1.6,106,9.2,154.5,22.2c34.3,9.5,65,21.7,86.1,40.3c10.9,8.9,17.1,19.3,17.6,30.2c1.3,6.1,0.9,12.3-1.1,18.3
		c-0.1,0.7-0.4,1.5-0.7,2.2c-10.8,20-34.8,34.1-64,45.6c-42.3,16.7-90,25.7-140.2,31c-38.2,4-77,5.3-115.8,4
		c-60.2-1.9-118.6-8.7-172.5-24.9c-29.3-8.2-55-20.1-75.1-34.8c-16.9-12.5-24.1-28.4-20-44c-0.4-5.1,3.4-9.8,5.2-14.6
		C729.7,273.8,730.1,273.2,730.9,272.7z"/>
	<path id="Tracé_9422" class="st1" d="M724.5,289.1c0.1,1.9,0.4,3.8,0.2,5.7c-2.5,18.3,12.4,32.6,32.9,45.3
		c31.1,19.1,70.6,30.6,113.7,38.8c20.2,3.7,40.7,6.7,61.5,8.9c15.6,1.5,31.3,2.6,47.1,3.2c20.2,0.9,40.5,1.1,60.7,0.6
		c35-0.6,69.7-3.5,103.5-8.7c26.8-4,52.6-9.7,77.1-17c29.6-8.5,55.1-21,74.4-36.3c6.1-5.5,11.1-11.4,14.9-17.5
		c1.5,0.8,2.5,1.8,2.8,3c0.3,0.9,0.2,1.9-0.2,2.8c-2.5,6.9,0.2,13.8-0.5,20.7c-0.3,3.3,0,6.6-0.5,10c0.2,0.7,0.6,1.4,1.3,2
		c-0.9,8-5.1,15.8-12.1,22.9c-1.2,1.4-2.5,2.8-3.8,4.2c0.2,1-0.9,1.5-2.3,1.9c-32.7,26-79.7,40-131.4,49.8
		c-25,4.9-50.8,8.1-77.1,9.6c-1.5-0.7-3.4-0.2-5.1-0.5c0.8,0.3,1.9,0.1,2.4,0.7c-19.9,1.9-40.1,2.8-60.3,2.6
		c-27.1,0.4-54.2-0.8-80.9-3.5c0.7-0.5,2-0.7,3.1-0.5c-1.2,0.1-3.5-0.4-5.7,0.3c-24.1-1.8-47.9-4.9-70.9-9.6
		c-39.9-7.8-77-18.4-107.3-35.6c-26.3-14.9-40.5-32.6-39.2-54.1c0.9-14,0-28,0-42C722.6,294.3,723.1,291.6,724.5,289.1z"/>
	<path id="Tracé_9423" class="st2" d="M1313.6,350.6l-1.4-0.9c-1.2-10.8-1.2-21.6,0-32.4c0-0.9,0-1.8,0-2.6
		c-1.8-1.3,0.4-3.1-1.5-4.4c4.7-6.1,2.2-12.5,3.3-18.8c0.5,0.8,0.8,1.6,0.9,2.5c0,17.3-0.1,34.5-0.2,51.8
		C1314.5,347.4,1314.1,349,1313.6,350.6z"/>
	<ellipse id="Ellipse_4" class="st3" cx="1317.5" cy="324.3" rx="0.5" ry="33.3"/>
	<path id="Tracé_9424" class="st4" d="M730.9,272.7c0,0.7,0.1,1.4-1.2,1.8c-4.7,2-4.7,2-5.4,6C721.6,275.5,721.6,275.5,730.9,272.7
		z"/>
	<path id="Tracé_9425" class="st5" d="M1295.5,379.5l2.3-1.9c1.3,0.3,2.1,0.8,1.4,1.6C1298.2,380.2,1296.8,379.9,1295.5,379.5z"/>
	<path id="Tracé_9426" class="st6" d="M889.7,364.5c21.1,1.9,42.5,2.2,63.7,1.1c29.9-2.1,58.4-6.6,81.7-18.1
		c27.1-13.4,26.9-31.4-0.1-44.8c-5.4-2.7-11.2-5.1-17.5-7.1c-9.5-3-17.8-7-24.6-11.7c-15.3-10-15.1-25,0.6-34.8
		c11.9-7.9,27.5-13.8,45-16.9c51.3-10,102.2-9.8,151.9,3.3c20,5.4,37.9,13,52.8,22.3c39.2,23.9,38.7,53.5-1.7,77.2
		c-25.9,15.2-58.2,24.7-92.9,31.4c-83,16.5-173.4,16.5-256.5,0.1c-0.9-0.2-1.7-0.5-2.5-0.8c-0.3-0.2-0.5-0.4-0.3-0.7
		C889.5,364.6,889.6,364.5,889.7,364.5z"/>
	<path id="Tracé_9427" class="st6" d="M928,338.9c-11.3,0-22.4-1.8-31.9-5.3c-11.2-4.8-11.2-11.5,0.2-16.2
		c16-6.7,46.5-6.9,62.5-0.5c13.2,5.2,12.8,12.5-0.8,17.5C948.9,337.3,938.5,338.9,928,338.9z"/>
	<path id="Tracé_9428" class="st7" d="M889.7,364.5l-0.1,1l-7.4-1.1c-0.4-0.8,0-1.1,1.5-0.8C885.8,363.8,888.1,363.5,889.7,364.5z"
		/>
	<path id="Tracé_9429" class="st8" d="M1310.6,310.3c2.6,1.2,1.2,2.9,1.5,4.4c-1.8-0.6-1.5-1.7-1.6-2.6
		C1310.6,311.5,1310.6,310.9,1310.6,310.3z"/>
	<path id="Tracé_9430" class="st9" d="M883.8,363.6l-1.5,0.8l-4.4-0.9c1.3-0.9,3.7-1.1,5.3-0.3
		C883.4,363.3,883.6,363.4,883.8,363.6z"/>
	<path id="Tracé_9431" class="st8" d="M1312.1,317.3c0,10.8,0,21.6,0,32.4c-0.5-0.5-1.4-1-1.4-1.5c-0.1-9.7-0.1-19.3-0.1-29
		C1310.7,318.6,1311.6,318,1312.1,317.3z"/>
	<path id="Tracé_9432" class="st10" d="M1073.4,273.4c-8.6-7-6.7-12.5,6.6-16.4c17.7-5.4,39-5.5,56.8-0.1
		c6.9,1.4,11.7,5.1,12.1,9.3c-0.1,4.4-5,8.3-12.3,9.7C1116.3,282,1091.8,281,1073.4,273.4L1073.4,273.4z"/>
	<path id="Tracé_9433" class="st4" d="M1215.4,342.6c2.6-1.3,4.1-1.4,5.7-0.7c0.4,0.3,0.5,0.7,0.2,1
		C1219.2,344.1,1217.8,342.8,1215.4,342.6z"/>
	<path id="Tracé_9434" class="st11" d="M1073.3,273.4l0.7,2.8C1071.8,275.5,1070.8,274.6,1073.3,273.4L1073.3,273.4z"/>
</g>
</svg>
