<svg xmlns="http://www.w3.org/2000/svg" xmlns:xlink="http://www.w3.org/1999/xlink" width="70" height="100" viewBox="0 0 70 100">
  <defs>
    <clipPath id="clip-path">
      <rect id="Rectangle_310" data-name="Rectangle 310" width="70" height="100"/>
    </clipPath>
  </defs>
  <g id="_3" data-name="3" clip-path="url(#clip-path)">
    <g id="Groupe_576" data-name="Groupe 576" transform="translate(9.245 25.196)">
      <g id="Groupe_507" data-name="Groupe 507" transform="translate(12.664 46.565)">
        <g id="Groupe_500" data-name="Groupe 500" transform="translate(0 12.564)">
          <g id="Groupe_499" data-name="Groupe 499" transform="translate(0 0)">
            <g id="Groupe_490" data-name="Groupe 490" transform="translate(0)">
              <g id="Groupe_485" data-name="Groupe 485" transform="translate(12.592 4.381)">
                <path id="Tracé_11391" data-name="Tracé 11391" d="M603.137,1060.828l.016,5.759,1.875-1.083-.016-5.759Z" transform="translate(-603.137 -1059.745)" fill="#7c0003"/>
              </g>
              <g id="Groupe_486" data-name="Groupe 486" transform="translate(9.412 5.464)">
                <path id="Tracé_11392" data-name="Tracé 11392" d="M621.717,1072.308l.016,5.759,3.18-1.836-.016-5.759Z" transform="translate(-621.717 -1070.472)" fill="#7c0003"/>
              </g>
              <g id="Groupe_487" data-name="Groupe 487" transform="translate(0)">
                <path id="Tracé_11393" data-name="Tracé 11393" d="M603.3,1020.345l7.537,4.38,1.875-1.083,3.181-1.836,1.875-1.083-7.537-4.38Z" transform="translate(-603.298 -1016.343)" fill="#bd000b"/>
              </g>
              <g id="Groupe_488" data-name="Groupe 488" transform="translate(0 4.002)">
                <path id="Tracé_11394" data-name="Tracé 11394" d="M671.81,1055.992l.016,5.759,7.537,4.38-.016-5.759Z" transform="translate(-671.81 -1055.992)" fill="#aa0009"/>
              </g>
              <g id="Groupe_489" data-name="Groupe 489" transform="translate(7.536 7.3)">
                <path id="Tracé_11395" data-name="Tracé 11395" d="M653.231,1089.75l.016,5.759,1.875-1.083-.016-5.759Z" transform="translate(-653.231 -1088.667)" fill="#7c0003"/>
              </g>
            </g>
            <g id="Groupe_494" data-name="Groupe 494" transform="translate(12.593 4.381)">
              <g id="Groupe_491" data-name="Groupe 491" transform="translate(0)">
                <path id="Tracé_11396" data-name="Tracé 11396" d="M584.84,1060.828l1.863,1.083,1.875-1.083-1.863-1.083Z" transform="translate(-584.84 -1059.745)" fill="#e09900"/>
              </g>
              <g id="Groupe_492" data-name="Groupe 492" transform="translate(0 1.083)">
                <path id="Tracé_11397" data-name="Tracé 11397" d="M603.257,1070.472l.016,5.759,1.863,1.083-.016-5.759Z" transform="translate(-603.257 -1070.472)" fill="#ca8b00"/>
              </g>
              <g id="Groupe_493" data-name="Groupe 493" transform="translate(1.863 1.083)">
                <path id="Tracé_11398" data-name="Tracé 11398" d="M584.678,1071.555l.016,5.759,1.875-1.083-.016-5.759Z" transform="translate(-584.678 -1070.472)" fill="#926700"/>
              </g>
            </g>
            <g id="Groupe_498" data-name="Groupe 498" transform="translate(7.537 7.3)">
              <g id="Groupe_495" data-name="Groupe 495" transform="translate(0)">
                <path id="Tracé_11399" data-name="Tracé 11399" d="M634.934,1089.75l1.863,1.083,1.875-1.083-1.863-1.083Z" transform="translate(-634.934 -1088.667)" fill="#e09900"/>
              </g>
              <g id="Groupe_496" data-name="Groupe 496" transform="translate(0 1.083)">
                <path id="Tracé_11400" data-name="Tracé 11400" d="M653.351,1099.394l.016,5.759,1.863,1.083-.016-5.759Z" transform="translate(-653.351 -1099.394)" fill="#ca8b00"/>
              </g>
              <g id="Groupe_497" data-name="Groupe 497" transform="translate(1.863 1.083)">
                <path id="Tracé_11401" data-name="Tracé 11401" d="M634.772,1100.477l.016,5.759,1.875-1.083-.016-5.759Z" transform="translate(-634.772 -1099.394)" fill="#926700"/>
              </g>
            </g>
          </g>
        </g>
        <g id="Groupe_506" data-name="Groupe 506" transform="translate(1.706)">
          <g id="Groupe_505" data-name="Groupe 505">
            <g id="Groupe_504" data-name="Groupe 504">
              <g id="Groupe_501" data-name="Groupe 501" transform="translate(0 2.067)">
                <path id="Tracé_11402" data-name="Tracé 11402" d="M704.4,912.317l-.042,14.664,2.522,1.456.042-14.664Z" transform="translate(-704.354 -912.317)" fill="#ab0009"/>
              </g>
              <g id="Groupe_502" data-name="Groupe 502" transform="translate(2.522 1.459)">
                <path id="Tracé_11403" data-name="Tracé 11403" d="M669.114,923l3.556-2.067.042-14.664-3.556,2.067Z" transform="translate(-669.114 -906.269)" fill="#7c0002"/>
              </g>
              <g id="Groupe_503" data-name="Groupe 503" transform="translate(0.041)">
                <path id="Tracé_11404" data-name="Tracé 11404" d="M671.637,895.361l3.556-2.067-2.522-1.456-3.556,2.067Z" transform="translate(-669.115 -891.838)" fill="#bc000b"/>
              </g>
            </g>
          </g>
        </g>
      </g>
      <g id="Groupe_530" data-name="Groupe 530" transform="translate(30.407 36.704)">
        <g id="Groupe_523" data-name="Groupe 523" transform="translate(0 12.562)">
          <g id="Groupe_522" data-name="Groupe 522" transform="translate(0 0)">
            <g id="Groupe_513" data-name="Groupe 513" transform="translate(0)">
              <g id="Groupe_508" data-name="Groupe 508" transform="translate(12.592 4.382)">
                <path id="Tracé_11405" data-name="Tracé 11405" d="M427.322,963.106l.016,5.759,1.875-1.083-.016-5.759Z" transform="translate(-427.322 -962.023)" fill="#7c0003"/>
              </g>
              <g id="Groupe_509" data-name="Groupe 509" transform="translate(9.41 5.466)">
                <path id="Tracé_11406" data-name="Tracé 11406" d="M445.9,974.587l.016,5.759,3.18-1.836-.016-5.759Z" transform="translate(-445.904 -972.751)" fill="#7c0003"/>
              </g>
              <g id="Groupe_510" data-name="Groupe 510" transform="translate(0)">
                <path id="Tracé_11407" data-name="Tracé 11407" d="M427.483,922.623,435.02,927l1.875-1.083,3.18-1.836L441.951,923l-7.537-4.38Z" transform="translate(-427.483 -918.62)" fill="#bd000b"/>
              </g>
              <g id="Groupe_511" data-name="Groupe 511" transform="translate(0 4.003)">
                <path id="Tracé_11408" data-name="Tracé 11408" d="M496,958.27l.016,5.759,7.537,4.38-.016-5.759Z" transform="translate(-495.995 -958.27)" fill="#aa0009"/>
              </g>
              <g id="Groupe_512" data-name="Groupe 512" transform="translate(7.537 7.301)">
                <path id="Tracé_11409" data-name="Tracé 11409" d="M477.416,992.028l.016,5.759,1.875-1.083-.016-5.759Z" transform="translate(-477.416 -990.945)" fill="#7c0003"/>
              </g>
            </g>
            <g id="Groupe_517" data-name="Groupe 517" transform="translate(12.593 4.382)">
              <g id="Groupe_514" data-name="Groupe 514" transform="translate(0)">
                <path id="Tracé_11410" data-name="Tracé 11410" d="M409.025,963.106l1.863,1.083,1.875-1.083-1.863-1.083Z" transform="translate(-409.025 -962.023)" fill="#e09900"/>
              </g>
              <g id="Groupe_515" data-name="Groupe 515" transform="translate(0 1.083)">
                <path id="Tracé_11411" data-name="Tracé 11411" d="M427.442,972.75l.016,5.759,1.863,1.083-.016-5.759Z" transform="translate(-427.442 -972.75)" fill="#ca8b00"/>
              </g>
              <g id="Groupe_516" data-name="Groupe 516" transform="translate(1.863 1.083)">
                <path id="Tracé_11412" data-name="Tracé 11412" d="M408.863,973.833l.016,5.759,1.875-1.083-.016-5.759Z" transform="translate(-408.863 -972.75)" fill="#926700"/>
              </g>
            </g>
            <g id="Groupe_521" data-name="Groupe 521" transform="translate(7.537 7.302)">
              <g id="Groupe_518" data-name="Groupe 518" transform="translate(0 0)">
                <path id="Tracé_11413" data-name="Tracé 11413" d="M459.119,992.028l1.863,1.083,1.875-1.082-1.863-1.083Z" transform="translate(-459.119 -990.946)" fill="#e09900"/>
              </g>
              <g id="Groupe_519" data-name="Groupe 519" transform="translate(0 1.082)">
                <path id="Tracé_11414" data-name="Tracé 11414" d="M477.536,1001.672l.016,5.759,1.863,1.083-.016-5.759Z" transform="translate(-477.536 -1001.672)" fill="#ca8b00"/>
              </g>
              <g id="Groupe_520" data-name="Groupe 520" transform="translate(1.863 1.082)">
                <path id="Tracé_11415" data-name="Tracé 11415" d="M458.957,1002.755l.016,5.759,1.875-1.083-.016-5.759Z" transform="translate(-458.957 -1001.672)" fill="#926700"/>
              </g>
            </g>
          </g>
        </g>
        <g id="Groupe_529" data-name="Groupe 529" transform="translate(1.706)">
          <g id="Groupe_528" data-name="Groupe 528">
            <g id="Groupe_527" data-name="Groupe 527">
              <g id="Groupe_524" data-name="Groupe 524" transform="translate(0 2.064)">
                <path id="Tracé_11416" data-name="Tracé 11416" d="M528.581,814.6l-.042,14.663,2.522,1.456.042-14.663Z" transform="translate(-528.539 -814.6)" fill="#ab0009"/>
              </g>
              <g id="Groupe_525" data-name="Groupe 525" transform="translate(2.519 1.455)">
                <path id="Tracé_11417" data-name="Tracé 11417" d="M493.3,825.281l3.556-2.067.042-14.663-3.556,2.067Z" transform="translate(-493.302 -808.551)" fill="#7c0002"/>
              </g>
              <g id="Groupe_526" data-name="Groupe 526" transform="translate(0.041)">
                <path id="Tracé_11418" data-name="Tracé 11418" d="M495.822,797.647l3.556-2.067-2.522-1.456-3.556,2.067Z" transform="translate(-493.3 -794.124)" fill="#bc000b"/>
              </g>
            </g>
          </g>
        </g>
      </g>
      <g id="Groupe_548" data-name="Groupe 548">
        <g id="Groupe_547" data-name="Groupe 547">
          <g id="Groupe_546" data-name="Groupe 546">
            <g id="Groupe_531" data-name="Groupe 531" transform="translate(22.2 23)">
              <path id="Tracé_11419" data-name="Tracé 11419" d="M442.933,671.981,419.461,658.34l.014,4.838,23.472,13.641Z" transform="translate(-419.461 -658.34)" fill="#aa0009"/>
            </g>
            <g id="Groupe_532" data-name="Groupe 532" transform="translate(3.386 27.838)">
              <path id="Tracé_11420" data-name="Tracé 11420" d="M461.761,719.918l-23.472-13.641-18.827,10.87,23.472,13.641Z" transform="translate(-419.462 -706.277)" fill="#bd000b"/>
            </g>
            <g id="Groupe_533" data-name="Groupe 533" transform="translate(6.625 21.44)">
              <path id="Tracé_11421" data-name="Tracé 11421" d="M487.81,656.526l-23.472-13.641-12.3,7.1,23.472,13.641Z" transform="translate(-452.038 -642.885)" fill="#bd000b"/>
            </g>
            <g id="Groupe_534" data-name="Groupe 534" transform="translate(10.133 19.426)">
              <path id="Tracé_11422" data-name="Tracé 11422" d="M515.747,636.6l-23.472-13.641L487.013,626l23.472,13.641Z" transform="translate(-487.013 -622.959)" fill="#dcdcdc"/>
            </g>
            <g id="Groupe_535" data-name="Groupe 535" transform="translate(18.885 7.306)">
              <path id="Tracé_11423" data-name="Tracé 11423" d="M475.51,516.5l-23.472-13.641.04,14.131,23.472,13.641Z" transform="translate(-452.038 -502.859)" fill="#aa0009"/>
            </g>
            <g id="Groupe_536" data-name="Groupe 536" transform="translate(15.38 13.383)">
              <path id="Tracé_11424" data-name="Tracé 11424" d="M510.481,576.686l-23.47-13.64.017,6.047L510.5,582.734Z" transform="translate(-487.011 -563.046)" fill="#c5c5c5"/>
            </g>
            <g id="Groupe_537" data-name="Groupe 537" transform="translate(10.116 13.383)">
              <path id="Tracé_11425" data-name="Tracé 11425" d="M515.917,576.687l-23.472-13.641-5.262,3.038,23.472,13.641Z" transform="translate(-487.183 -563.046)"/>
            </g>
            <g id="Groupe_538" data-name="Groupe 538" transform="translate(10.116 16.421)">
              <path id="Tracé_11426" data-name="Tracé 11426" d="M562.628,606.792l-23.472-13.641.017,6.047,23.472,13.641Z" transform="translate(-539.156 -593.151)"/>
            </g>
            <g id="Groupe_539" data-name="Groupe 539" transform="translate(30.057 20.95)">
              <path id="Tracé_11427" data-name="Tracé 11427" d="M464.339,638.024l-12.3,7.1.04,14.131,12.3-7.1Zm-8.752,15.159-.017-6.047,5.262-3.038.017,6.047-5.262,3.038" transform="translate(-452.039 -638.024)" fill="#898989"/>
            </g>
            <g id="Groupe_540" data-name="Groupe 540" transform="translate(33.588 27.024)">
              <path id="Tracé_11428" data-name="Tracé 11428" d="M487.013,701.246l.017,6.047,5.262-3.038-.017-6.047Z" transform="translate(-487.013 -698.208)"/>
            </g>
            <g id="Groupe_541" data-name="Groupe 541" transform="translate(6.585 7.306)">
              <path id="Tracé_11429" data-name="Tracé 11429" d="M488.208,516.5l-23.472-13.641-12.3,7.1L475.91,523.6Z" transform="translate(-452.436 -502.859)" fill="#dcdcdc"/>
            </g>
            <g id="Groupe_542" data-name="Groupe 542" transform="translate(6.586 14.41)">
              <path id="Tracé_11430" data-name="Tracé 11430" d="M597.372,586.857,573.9,573.216l.04,14.131,23.469,13.642Z" transform="translate(-573.9 -573.216)" fill="#c5c5c5"/>
            </g>
            <g id="Groupe_543" data-name="Groupe 543" transform="translate(23.477 13.642)">
              <path id="Tracé_11431" data-name="Tracé 11431" d="M412.041,565.6,386.6,580.288l.083,29.233,25.443-14.689Zm-6.561,7.309.04,14.131-12.3,7.1-.04-14.131,12.3-7.1m-15.5,31.4-.014-4.838L408.794,588.6l.014,4.838-18.827,10.87" transform="translate(-386.6 -565.6)" fill="#7c0003"/>
            </g>
            <g id="Groupe_544" data-name="Groupe 544" transform="translate(0.005 14.688)">
              <path id="Tracé_11432" data-name="Tracé 11432" d="M662.16,589.619l-23.472-13.641.083,29.233,23.472,13.641Z" transform="translate(-638.688 -575.978)" fill="#aa0009"/>
            </g>
            <g id="Groupe_545" data-name="Groupe 545" transform="translate(0)">
              <path id="Tracé_11433" data-name="Tracé 11433" d="M436.341,444.077l-23.477-13.64-25.441,14.688,23.472,13.641Z" transform="translate(-387.423 -430.437)" fill="#bd000b"/>
            </g>
          </g>
        </g>
      </g>
      <g id="Groupe_563" data-name="Groupe 563" transform="translate(3.999 32.427)">
        <g id="Groupe_562" data-name="Groupe 562" transform="translate(0 0)">
          <g id="Groupe_561" data-name="Groupe 561">
            <g id="Groupe_549" data-name="Groupe 549" transform="translate(0.021 16.742)">
              <path id="Tracé_11434" data-name="Tracé 11434" d="M798.363,919.714l2.134-1.24-1.438-.83-2.134,1.24Z" transform="translate(-796.925 -917.644)" fill="#bc000b"/>
            </g>
            <g id="Groupe_550" data-name="Groupe 550" transform="translate(6.596 24.831)">
              <path id="Tracé_11435" data-name="Tracé 11435" d="M745.924,1002.3l2.134-1.24.009-3.3-2.134,1.24Z" transform="translate(-745.924 -997.755)" fill="#7c0002"/>
            </g>
            <g id="Groupe_551" data-name="Groupe 551" transform="translate(1.458 17.571)">
              <path id="Tracé_11436" data-name="Tracé 11436" d="M763.77,929.256l2.134-1.24-3.722-2.149-2.134,1.24Z" transform="translate(-760.048 -925.867)" fill="#bc000b"/>
            </g>
            <g id="Groupe_552" data-name="Groupe 552" transform="translate(0 17.982)">
              <path id="Tracé_11437" data-name="Tracé 11437" d="M766.965,929.931l-.021,7.581,6.6,3.809.009-3.3.012-4.276-1.438-.83-3.722-2.149Z" transform="translate(-766.944 -929.931)" fill="#ab0009"/>
            </g>
            <g id="Groupe_553" data-name="Groupe 553" transform="translate(6.605 20.552)">
              <path id="Tracé_11438" data-name="Tracé 11438" d="M745.8,960.9l2.134-1.24.012-4.276-2.134,1.24Z" transform="translate(-745.804 -955.384)" fill="#7c0002"/>
            </g>
            <g id="Groupe_554" data-name="Groupe 554" transform="translate(5.179 19.721)">
              <path id="Tracé_11439" data-name="Tracé 11439" d="M747.242,949.229l2.134-1.24-1.438-.83L745.8,948.4Z" transform="translate(-745.804 -947.159)" fill="#bc000b"/>
            </g>
            <g id="Groupe_555" data-name="Groupe 555" transform="translate(6.606 21.791)">
              <path id="Tracé_11440" data-name="Tracé 11440" d="M724.8,967.67l-.012,4.276,4.256,2.454.012-4.276Z" transform="translate(-724.788 -967.67)" fill="#ab0009"/>
            </g>
            <g id="Groupe_556" data-name="Groupe 556" transform="translate(10.86 23.008)">
              <path id="Tracé_11441" data-name="Tracé 11441" d="M703.646,985.239,705.78,984l.012-4.276-2.134,1.24Z" transform="translate(-703.646 -979.724)" fill="#7c0002"/>
            </g>
            <g id="Groupe_557" data-name="Groupe 557" transform="translate(6.617 20.552)">
              <path id="Tracé_11442" data-name="Tracé 11442" d="M707.9,959.08l2.134-1.24-4.255-2.456-2.134,1.24Z" transform="translate(-703.646 -955.384)" fill="#bc000b"/>
            </g>
            <g id="Groupe_558" data-name="Groupe 558" transform="translate(1.458 1.24)">
              <path id="Tracé_11443" data-name="Tracé 11443" d="M780.748,764.039l-.05,17.572,3.722,2.149.05-17.572Z" transform="translate(-780.698 -764.039)" fill="#ab0009"/>
            </g>
            <g id="Groupe_559" data-name="Groupe 559" transform="translate(1.508)">
              <path id="Tracé_11444" data-name="Tracé 11444" d="M763.276,755.14l2.134-1.24-3.722-2.149-2.134,1.24Z" transform="translate(-759.554 -751.751)" fill="#bc000b"/>
            </g>
            <g id="Groupe_560" data-name="Groupe 560" transform="translate(5.18 2.149)">
              <path id="Tracé_11445" data-name="Tracé 11445" d="M759.554,791.855l2.134-1.24.05-17.572-2.134,1.24Z" transform="translate(-759.554 -773.043)" fill="#7c0002"/>
            </g>
          </g>
        </g>
      </g>
      <g id="Groupe_569" data-name="Groupe 569" transform="translate(34.128 5.698)">
        <g id="Groupe_568" data-name="Groupe 568" transform="translate(0)">
          <g id="Groupe_567" data-name="Groupe 567">
            <g id="Groupe_564" data-name="Groupe 564" transform="translate(3.556 2.067)">
              <path id="Tracé_11446" data-name="Tracé 11446" d="M461.743,509.529l.012,4.276,3.722-2.149-.012-4.276Z" transform="translate(-461.743 -507.38)" fill="#898989"/>
            </g>
            <g id="Groupe_565" data-name="Groupe 565" transform="translate(0 2.148)">
              <path id="Tracé_11447" data-name="Tracé 11447" d="M502.177,510.259l-3.556-2.067.012,4.276,3.556,2.067Z" transform="translate(-498.621 -508.192)" fill="#c5c5c5"/>
            </g>
            <g id="Groupe_566" data-name="Groupe 566" transform="translate(0)">
              <path id="Tracé_11448" data-name="Tracé 11448" d="M469.141,488.968l-3.556-2.067-3.722,2.149,3.556,2.067Z" transform="translate(-461.863 -486.901)" fill="#dcdcdc"/>
            </g>
          </g>
        </g>
      </g>
      <g id="Groupe_575" data-name="Groupe 575" transform="translate(17.295 15.775)">
        <g id="Groupe_574" data-name="Groupe 574" transform="translate(0 0)">
          <g id="Groupe_573" data-name="Groupe 573">
            <g id="Groupe_570" data-name="Groupe 570" transform="translate(3.556 2.068)">
              <path id="Tracé_11449" data-name="Tracé 11449" d="M628.548,609.377l.012,4.276,3.721-2.148-.012-4.276Z" transform="translate(-628.548 -607.229)" fill="#898989"/>
            </g>
            <g id="Groupe_571" data-name="Groupe 571" transform="translate(0 2.144)">
              <path id="Tracé_11450" data-name="Tracé 11450" d="M668.975,610.1l-3.556-2.067.012,4.276,3.556,2.067Z" transform="translate(-665.419 -608.033)" fill="#c5c5c5"/>
            </g>
            <g id="Groupe_572" data-name="Groupe 572" transform="translate(0)">
              <path id="Tracé_11451" data-name="Tracé 11451" d="M635.945,588.816l-3.556-2.067-3.721,2.148,3.556,2.067Z" transform="translate(-628.668 -586.749)" fill="#dcdcdc"/>
            </g>
          </g>
        </g>
      </g>
    </g>
  </g>
</svg>
