<svg xmlns="http://www.w3.org/2000/svg" xmlns:xlink="http://www.w3.org/1999/xlink" width="70" height="100" viewBox="0 0 70 100">
  <defs>
    <clipPath id="clip-mob">
      <rect width="70" height="100"/>
    </clipPath>
  </defs>
  <g id="mob" clip-path="url(#clip-mob)">
    <g id="Groupe_576" data-name="Groupe 576" transform="translate(9.247 25.196)">
      <g id="Groupe_507" data-name="Groupe 507" transform="translate(19.99 46.565)">
        <g id="Groupe_500" data-name="Groupe 500" transform="translate(0 12.565)">
          <g id="Groupe_499" data-name="Groupe 499">
            <g id="Groupe_490" data-name="Groupe 490" transform="translate(1.863)">
              <g id="Groupe_485" data-name="Groupe 485" transform="translate(0 4.38)">
                <path id="Tracé_11391" data-name="Tracé 11391" d="M605.028,1060.828l-.016,5.759-1.875-1.083.016-5.759Z" transform="translate(-603.136 -1059.745)" fill="#7c0003"/>
              </g>
              <g id="Groupe_486" data-name="Groupe 486" transform="translate(1.875 5.463)">
                <path id="Tracé_11392" data-name="Tracé 11392" d="M624.913,1072.308l-.016,5.759-3.18-1.836.016-5.759Z" transform="translate(-621.716 -1070.472)" fill="#7c0003"/>
              </g>
              <g id="Groupe_487" data-name="Groupe 487" transform="translate(0.016)">
                <path id="Tracé_11393" data-name="Tracé 11393" d="M617.766,1020.345l-7.537,4.38-1.875-1.083-3.181-1.836-1.875-1.083,7.537-4.38Z" transform="translate(-603.298 -1016.344)" fill="#bd000b"/>
              </g>
              <g id="Groupe_488" data-name="Groupe 488" transform="translate(6.931 4.001)">
                <path id="Tracé_11394" data-name="Tracé 11394" d="M679.363,1055.992l-.016,5.759-7.537,4.38.016-5.759Z" transform="translate(-671.81 -1055.992)" fill="#aa0009"/>
              </g>
              <g id="Groupe_489" data-name="Groupe 489" transform="translate(5.056 7.299)">
                <path id="Tracé_11395" data-name="Tracé 11395" d="M655.122,1089.75l-.016,5.759-1.875-1.083.016-5.759Z" transform="translate(-653.23 -1088.667)" fill="#7c0003"/>
              </g>
            </g>
            <g id="Groupe_494" data-name="Groupe 494" transform="translate(0 4.38)">
              <g id="Groupe_491" data-name="Groupe 491" transform="translate(0.016)">
                <path id="Tracé_11396" data-name="Tracé 11396" d="M588.578,1060.828l-1.863,1.083-1.875-1.083,1.863-1.083Z" transform="translate(-584.84 -1059.745)" fill="#e09900"/>
              </g>
              <g id="Groupe_492" data-name="Groupe 492" transform="translate(1.875 1.083)">
                <path id="Tracé_11397" data-name="Tracé 11397" d="M605.136,1070.472l-.016,5.759-1.863,1.083.016-5.759Z" transform="translate(-603.257 -1070.472)" fill="#ca8b00"/>
              </g>
              <g id="Groupe_493" data-name="Groupe 493" transform="translate(0 1.083)">
                <path id="Tracé_11398" data-name="Tracé 11398" d="M586.569,1071.555l-.016,5.759-1.875-1.083.016-5.759Z" transform="translate(-584.678 -1070.472)" fill="#926700"/>
              </g>
            </g>
            <g id="Groupe_498" data-name="Groupe 498" transform="translate(5.056 7.299)">
              <g id="Groupe_495" data-name="Groupe 495" transform="translate(0.016)">
                <path id="Tracé_11399" data-name="Tracé 11399" d="M638.672,1089.75l-1.863,1.083-1.875-1.083,1.863-1.083Z" transform="translate(-634.934 -1088.667)" fill="#e09900"/>
              </g>
              <g id="Groupe_496" data-name="Groupe 496" transform="translate(1.875 1.083)">
                <path id="Tracé_11400" data-name="Tracé 11400" d="M655.23,1099.394l-.016,5.759-1.863,1.083.016-5.759Z" transform="translate(-653.351 -1099.394)" fill="#ca8b00"/>
              </g>
              <g id="Groupe_497" data-name="Groupe 497" transform="translate(0 1.083)">
                <path id="Tracé_11401" data-name="Tracé 11401" d="M636.663,1100.477l-.016,5.759-1.875-1.083.016-5.759Z" transform="translate(-634.772 -1099.394)" fill="#926700"/>
              </g>
            </g>
          </g>
        </g>
        <g id="Groupe_506" data-name="Groupe 506" transform="translate(8.521 0)">
          <g id="Groupe_505" data-name="Groupe 505" transform="translate(0)">
            <g id="Groupe_504" data-name="Groupe 504">
              <g id="Groupe_501" data-name="Groupe 501" transform="translate(3.556 2.067)">
                <path id="Tracé_11402" data-name="Tracé 11402" d="M706.876,912.317l.042,14.664-2.522,1.456-.042-14.664Z" transform="translate(-704.354 -912.317)" fill="#ab0009"/>
              </g>
              <g id="Groupe_502" data-name="Groupe 502" transform="translate(0 1.456)">
                <path id="Tracé_11403" data-name="Tracé 11403" d="M672.712,923l-3.556-2.067-.042-14.664,3.556,2.067Z" transform="translate(-669.114 -906.266)" fill="#7c0002"/>
              </g>
              <g id="Groupe_503" data-name="Groupe 503">
                <path id="Tracé_11404" data-name="Tracé 11404" d="M672.671,895.361l-3.556-2.067,2.522-1.456,3.556,2.067Z" transform="translate(-669.114 -891.838)" fill="#bc000b"/>
              </g>
            </g>
          </g>
        </g>
      </g>
      <g id="Groupe_530" data-name="Groupe 530" transform="translate(2.247 36.704)">
        <g id="Groupe_523" data-name="Groupe 523" transform="translate(0 12.564)">
          <g id="Groupe_522" data-name="Groupe 522">
            <g id="Groupe_513" data-name="Groupe 513" transform="translate(1.863)">
              <g id="Groupe_508" data-name="Groupe 508" transform="translate(0 4.38)">
                <path id="Tracé_11405" data-name="Tracé 11405" d="M429.213,963.106l-.016,5.759-1.875-1.083.016-5.759Z" transform="translate(-427.321 -962.023)" fill="#7c0003"/>
              </g>
              <g id="Groupe_509" data-name="Groupe 509" transform="translate(1.875 5.463)">
                <path id="Tracé_11406" data-name="Tracé 11406" d="M449.1,974.587l-.016,5.759-3.18-1.836.016-5.759Z" transform="translate(-445.901 -972.75)" fill="#7c0003"/>
              </g>
              <g id="Groupe_510" data-name="Groupe 510" transform="translate(0.016)">
                <path id="Tracé_11407" data-name="Tracé 11407" d="M441.951,922.623,434.414,927l-1.875-1.083-3.18-1.836L427.483,923l7.537-4.38Z" transform="translate(-427.483 -918.622)" fill="#bd000b"/>
              </g>
              <g id="Groupe_511" data-name="Groupe 511" transform="translate(6.931 4.001)">
                <path id="Tracé_11408" data-name="Tracé 11408" d="M503.548,958.27l-.016,5.759-7.537,4.38.016-5.759Z" transform="translate(-495.995 -958.27)" fill="#aa0009"/>
              </g>
              <g id="Groupe_512" data-name="Groupe 512" transform="translate(5.056 7.299)">
                <path id="Tracé_11409" data-name="Tracé 11409" d="M479.307,992.028l-.016,5.759-1.875-1.083.016-5.759Z" transform="translate(-477.416 -990.945)" fill="#7c0003"/>
              </g>
            </g>
            <g id="Groupe_517" data-name="Groupe 517" transform="translate(0 4.38)">
              <g id="Groupe_514" data-name="Groupe 514" transform="translate(0.016)">
                <path id="Tracé_11410" data-name="Tracé 11410" d="M412.763,963.106l-1.863,1.083-1.875-1.083,1.863-1.083Z" transform="translate(-409.025 -962.023)" fill="#e09900"/>
              </g>
              <g id="Groupe_515" data-name="Groupe 515" transform="translate(1.875 1.083)">
                <path id="Tracé_11411" data-name="Tracé 11411" d="M429.321,972.75l-.016,5.759-1.863,1.083.016-5.759Z" transform="translate(-427.442 -972.75)" fill="#ca8b00"/>
              </g>
              <g id="Groupe_516" data-name="Groupe 516" transform="translate(0 1.083)">
                <path id="Tracé_11412" data-name="Tracé 11412" d="M410.754,973.833l-.016,5.759-1.875-1.083.016-5.759Z" transform="translate(-408.863 -972.75)" fill="#926700"/>
              </g>
            </g>
            <g id="Groupe_521" data-name="Groupe 521" transform="translate(5.056 7.299)">
              <g id="Groupe_518" data-name="Groupe 518" transform="translate(0.016)">
                <path id="Tracé_11413" data-name="Tracé 11413" d="M462.857,992.028l-1.863,1.083-1.875-1.082,1.863-1.083Z" transform="translate(-459.119 -990.945)" fill="#e09900"/>
              </g>
              <g id="Groupe_519" data-name="Groupe 519" transform="translate(1.875 1.083)">
                <path id="Tracé_11414" data-name="Tracé 11414" d="M479.415,1001.672l-.016,5.759-1.863,1.083.016-5.759Z" transform="translate(-477.536 -1001.672)" fill="#ca8b00"/>
              </g>
              <g id="Groupe_520" data-name="Groupe 520" transform="translate(0 1.083)">
                <path id="Tracé_11415" data-name="Tracé 11415" d="M460.848,1002.755l-.016,5.759-1.875-1.083.016-5.759Z" transform="translate(-458.957 -1001.672)" fill="#926700"/>
              </g>
            </g>
          </g>
        </g>
        <g id="Groupe_529" data-name="Groupe 529" transform="translate(8.521 0)">
          <g id="Groupe_528" data-name="Groupe 528" transform="translate(0)">
            <g id="Groupe_527" data-name="Groupe 527">
              <g id="Groupe_524" data-name="Groupe 524" transform="translate(3.556 2.067)">
                <path id="Tracé_11416" data-name="Tracé 11416" d="M531.061,814.6l.042,14.663-2.522,1.456-.042-14.663Z" transform="translate(-528.539 -814.603)" fill="#ab0009"/>
              </g>
              <g id="Groupe_525" data-name="Groupe 525" transform="translate(0 1.456)">
                <path id="Tracé_11417" data-name="Tracé 11417" d="M496.9,825.281l-3.556-2.067-.042-14.663,3.556,2.067Z" transform="translate(-493.299 -808.552)" fill="#7c0002"/>
              </g>
              <g id="Groupe_526" data-name="Groupe 526">
                <path id="Tracé_11418" data-name="Tracé 11418" d="M496.856,797.647,493.3,795.58l2.522-1.456,3.556,2.067Z" transform="translate(-493.299 -794.124)" fill="#bc000b"/>
              </g>
            </g>
          </g>
        </g>
      </g>
      <g id="Groupe_548" data-name="Groupe 548" transform="translate(0 0)">
        <g id="Groupe_547" data-name="Groupe 547" transform="translate(0 0)">
          <g id="Groupe_546" data-name="Groupe 546">
            <g id="Groupe_531" data-name="Groupe 531" transform="translate(3.316 23)">
              <path id="Tracé_11419" data-name="Tracé 11419" d="M419.475,671.981l23.472-13.641-.014,4.838-23.472,13.641Z" transform="translate(-419.462 -658.34)" fill="#aa0009"/>
            </g>
            <g id="Groupe_532" data-name="Groupe 532" transform="translate(3.316 27.838)">
              <path id="Tracé_11420" data-name="Tracé 11420" d="M419.462,719.918l23.472-13.641,18.827,10.87-23.472,13.641Z" transform="translate(-419.462 -706.277)" fill="#bd000b"/>
            </g>
            <g id="Groupe_533" data-name="Groupe 533" transform="translate(6.604 21.441)">
              <path id="Tracé_11421" data-name="Tracé 11421" d="M452.038,656.526l23.472-13.641,12.3,7.1-23.472,13.641Z" transform="translate(-452.038 -642.886)" fill="#bd000b"/>
            </g>
            <g id="Groupe_534" data-name="Groupe 534" transform="translate(10.134 19.43)">
              <path id="Tracé_11422" data-name="Tracé 11422" d="M487.013,636.6l23.472-13.641L515.747,626l-23.472,13.641Z" transform="translate(-487.013 -622.963)" fill="#dcdcdc"/>
            </g>
            <g id="Groupe_535" data-name="Groupe 535" transform="translate(6.604 7.309)">
              <path id="Tracé_11423" data-name="Tracé 11423" d="M452.078,516.5l23.472-13.641-.04,14.131-23.472,13.641Z" transform="translate(-452.038 -502.862)" fill="#aa0009"/>
            </g>
            <g id="Groupe_536" data-name="Groupe 536" transform="translate(10.134 13.383)">
              <path id="Tracé_11424" data-name="Tracé 11424" d="M487.03,576.686,510.5,563.046l-.017,6.047-23.472,13.641Z" transform="translate(-487.013 -563.046)" fill="#c5c5c5"/>
            </g>
            <g id="Groupe_537" data-name="Groupe 537" transform="translate(10.151 13.383)">
              <path id="Tracé_11425" data-name="Tracé 11425" d="M487.183,576.687l23.472-13.641,5.262,3.038-23.472,13.641Z" transform="translate(-487.183 -563.046)"/>
            </g>
            <g id="Groupe_538" data-name="Groupe 538" transform="translate(15.396 16.421)">
              <path id="Tracé_11426" data-name="Tracé 11426" d="M539.173,606.792l23.472-13.641-.017,6.047-23.472,13.641Z" transform="translate(-539.156 -593.151)"/>
            </g>
            <g id="Groupe_539" data-name="Groupe 539" transform="translate(6.604 20.95)">
              <path id="Tracé_11427" data-name="Tracé 11427" d="M452.079,638.024l12.3,7.1-.04,14.131-12.3-7.1Zm8.752,15.159.017-6.047-5.262-3.038-.017,6.047,5.262,3.038" transform="translate(-452.039 -638.024)" fill="#898989"/>
            </g>
            <g id="Groupe_540" data-name="Groupe 540" transform="translate(10.134 27.024)">
              <path id="Tracé_11428" data-name="Tracé 11428" d="M492.292,701.246l-.017,6.047-5.262-3.038.017-6.047Z" transform="translate(-487.013 -698.208)"/>
            </g>
            <g id="Groupe_541" data-name="Groupe 541" transform="translate(6.644 7.309)">
              <path id="Tracé_11429" data-name="Tracé 11429" d="M452.436,516.5l23.472-13.641,12.3,7.1L464.734,523.6Z" transform="translate(-452.436 -502.862)" fill="#dcdcdc"/>
            </g>
            <g id="Groupe_542" data-name="Groupe 542" transform="translate(18.902 14.41)">
              <path id="Tracé_11430" data-name="Tracé 11430" d="M573.937,586.857l23.472-13.641-.04,14.131L573.9,600.989Z" transform="translate(-573.896 -573.216)" fill="#c5c5c5"/>
            </g>
            <g id="Groupe_543" data-name="Groupe 543" transform="translate(0 13.641)">
              <path id="Tracé_11431" data-name="Tracé 11431" d="M386.685,565.6l25.441,14.688-.083,29.233L386.6,594.832Zm6.561,7.309-.04,14.131,12.3,7.1.04-14.131-12.3-7.1m15.5,31.4.014-4.838L389.932,588.6l-.014,4.838,18.827,10.87" transform="translate(-386.602 -565.599)" fill="#7c0003"/>
            </g>
            <g id="Groupe_544" data-name="Groupe 544" transform="translate(25.441 14.688)">
              <path id="Tracé_11432" data-name="Tracé 11432" d="M638.771,589.619l23.472-13.641-.083,29.233-23.472,13.641Z" transform="translate(-638.688 -575.978)" fill="#aa0009"/>
            </g>
            <g id="Groupe_545" data-name="Groupe 545" transform="translate(0.083)">
              <path id="Tracé_11433" data-name="Tracé 11433" d="M387.423,444.077,410.9,430.437l25.441,14.688-23.472,13.641Z" transform="translate(-387.423 -430.437)" fill="#bd000b"/>
            </g>
          </g>
        </g>
      </g>
      <g id="Groupe_563" data-name="Groupe 563" transform="translate(31.996 32.427)">
        <g id="Groupe_562" data-name="Groupe 562" transform="translate(0)">
          <g id="Groupe_561" data-name="Groupe 561">
            <g id="Groupe_549" data-name="Groupe 549" transform="translate(9.414 16.742)">
              <path id="Tracé_11434" data-name="Tracé 11434" d="M799.059,919.714l-2.134-1.24,1.438-.83,2.134,1.24Z" transform="translate(-796.926 -917.644)" fill="#bc000b"/>
            </g>
            <g id="Groupe_550" data-name="Groupe 550" transform="translate(4.267 24.827)">
              <path id="Tracé_11435" data-name="Tracé 11435" d="M748.067,1002.3l-2.134-1.24-.009-3.305,2.134,1.24Z" transform="translate(-745.924 -997.751)" fill="#7c0002"/>
            </g>
            <g id="Groupe_551" data-name="Groupe 551" transform="translate(5.692 17.572)">
              <path id="Tracé_11436" data-name="Tracé 11436" d="M762.182,929.256l-2.134-1.24,3.722-2.149,2.134,1.24Z" transform="translate(-760.048 -925.868)" fill="#bc000b"/>
            </g>
            <g id="Groupe_552" data-name="Groupe 552" transform="translate(6.389 17.982)">
              <path id="Tracé_11437" data-name="Tracé 11437" d="M773.544,929.931l.021,7.581-6.6,3.809-.009-3.305-.012-4.276,1.438-.83,3.722-2.149Z" transform="translate(-766.948 -929.931)" fill="#ab0009"/>
            </g>
            <g id="Groupe_553" data-name="Groupe 553" transform="translate(4.255 20.551)">
              <path id="Tracé_11438" data-name="Tracé 11438" d="M747.95,960.9l-2.134-1.24-.012-4.276,2.134,1.24Z" transform="translate(-745.804 -955.383)" fill="#7c0002"/>
            </g>
            <g id="Groupe_554" data-name="Groupe 554" transform="translate(4.255 19.721)">
              <path id="Tracé_11439" data-name="Tracé 11439" d="M747.938,949.229l-2.134-1.24,1.438-.83,2.134,1.24Z" transform="translate(-745.804 -947.159)" fill="#bc000b"/>
            </g>
            <g id="Groupe_555" data-name="Groupe 555" transform="translate(2.134 21.791)">
              <path id="Tracé_11440" data-name="Tracé 11440" d="M729.044,967.67l.012,4.276L724.8,974.4l-.012-4.276Z" transform="translate(-724.79 -967.67)" fill="#ab0009"/>
            </g>
            <g id="Groupe_556" data-name="Groupe 556" transform="translate(0 23.007)">
              <path id="Tracé_11441" data-name="Tracé 11441" d="M705.792,985.239,703.658,984l-.012-4.276,2.134,1.24Z" transform="translate(-703.646 -979.723)" fill="#7c0002"/>
            </g>
            <g id="Groupe_557" data-name="Groupe 557" transform="translate(0 20.551)">
              <path id="Tracé_11442" data-name="Tracé 11442" d="M705.78,959.08l-2.134-1.24,4.255-2.456,2.134,1.24Z" transform="translate(-703.646 -955.383)" fill="#bc000b"/>
            </g>
            <g id="Groupe_558" data-name="Groupe 558" transform="translate(7.776 1.24)">
              <path id="Tracé_11443" data-name="Tracé 11443" d="M784.42,764.039l.05,17.572-3.722,2.149-.05-17.572Z" transform="translate(-780.698 -764.039)" fill="#ab0009"/>
            </g>
            <g id="Groupe_559" data-name="Groupe 559" transform="translate(5.642)">
              <path id="Tracé_11444" data-name="Tracé 11444" d="M761.688,755.14l-2.134-1.24,3.722-2.149,2.134,1.24Z" transform="translate(-759.554 -751.751)" fill="#bc000b"/>
            </g>
            <g id="Groupe_560" data-name="Groupe 560" transform="translate(5.642 2.149)">
              <path id="Tracé_11445" data-name="Tracé 11445" d="M761.738,791.855l-2.134-1.24-.05-17.572,2.134,1.24Z" transform="translate(-759.554 -773.043)" fill="#7c0002"/>
            </g>
          </g>
        </g>
      </g>
      <g id="Groupe_569" data-name="Groupe 569" transform="translate(7.583 5.698)">
        <g id="Groupe_568" data-name="Groupe 568" transform="translate(0 0)">
          <g id="Groupe_567" data-name="Groupe 567">
            <g id="Groupe_564" data-name="Groupe 564" transform="translate(0 2.067)">
              <path id="Tracé_11446" data-name="Tracé 11446" d="M465.477,509.529l-.012,4.276-3.722-2.149.012-4.276Z" transform="translate(-461.743 -507.38)" fill="#898989"/>
            </g>
            <g id="Groupe_565" data-name="Groupe 565" transform="translate(3.722 2.149)">
              <path id="Tracé_11447" data-name="Tracé 11447" d="M498.633,510.259l3.556-2.067-.012,4.276-3.556,2.067Z" transform="translate(-498.621 -508.193)" fill="#c5c5c5"/>
            </g>
            <g id="Groupe_566" data-name="Groupe 566" transform="translate(0.012)">
              <path id="Tracé_11448" data-name="Tracé 11448" d="M461.863,488.968l3.556-2.067,3.722,2.149-3.556,2.067Z" transform="translate(-461.863 -486.901)" fill="#dcdcdc"/>
            </g>
          </g>
        </g>
      </g>
      <g id="Groupe_575" data-name="Groupe 575" transform="translate(24.417 15.775)">
        <g id="Groupe_574" data-name="Groupe 574" transform="translate(0 0)">
          <g id="Groupe_573" data-name="Groupe 573">
            <g id="Groupe_570" data-name="Groupe 570" transform="translate(0 2.067)">
              <path id="Tracé_11449" data-name="Tracé 11449" d="M632.281,609.377l-.012,4.276-3.721-2.148.012-4.276Z" transform="translate(-628.548 -607.228)" fill="#898989"/>
            </g>
            <g id="Groupe_571" data-name="Groupe 571" transform="translate(3.721 2.148)">
              <path id="Tracé_11450" data-name="Tracé 11450" d="M665.431,610.1l3.556-2.067-.012,4.276-3.556,2.067Z" transform="translate(-665.419 -608.037)" fill="#c5c5c5"/>
            </g>
            <g id="Groupe_572" data-name="Groupe 572" transform="translate(0.012)">
              <path id="Tracé_11451" data-name="Tracé 11451" d="M628.668,588.816l3.556-2.067,3.721,2.148-3.556,2.067Z" transform="translate(-628.668 -586.749)" fill="#dcdcdc"/>
            </g>
          </g>
        </g>
      </g>
    </g>
  </g>
</svg>
