<svg xmlns="http://www.w3.org/2000/svg" xmlns:xlink="http://www.w3.org/1999/xlink" width="70" height="100" viewBox="0 0 70 100">
  <defs>
    <clipPath id="clip-TP">
      <rect width="70" height="100"/>
    </clipPath>
  </defs>
  <g id="TP" clip-path="url(#clip-TP)">
    <g id="Groupe_474" data-name="Groupe 474" transform="translate(-711.056 -130.488)">
      <path id="Tracé_9421" data-name="Tracé 9421" d="M723.8,207.12c1.931-4.13,5.481-6.361,9.505-7.962a35.929,35.929,0,0,1,15.983-2.239,32.4,32.4,0,0,1,12.122,3.067,16.037,16.037,0,0,1,6.758,5.572,7.668,7.668,0,0,1,1.383,4.171,8.179,8.179,0,0,1-.084,2.53,1.52,1.52,0,0,1-.057.3,12.013,12.013,0,0,1-5.021,6.305,27.773,27.773,0,0,1-11.005,4.288,37.824,37.824,0,0,1-9.084.56,32.238,32.238,0,0,1-13.536-3.441,16.947,16.947,0,0,1-5.894-4.808,9.382,9.382,0,0,1-1.166-8.095A.353.353,0,0,1,723.8,207.12Z" transform="translate(-0.422 0)" fill="#040506"/>
      <path id="Tracé_9422" data-name="Tracé 9422" d="M723.084,300.752c.005.262.032.525.012.784a8.155,8.155,0,0,0,2.584,6.263,20.636,20.636,0,0,0,8.924,5.368,40.824,40.824,0,0,0,4.83,1.235,34.9,34.9,0,0,0,3.694.439,39.625,39.625,0,0,0,4.766.081,34.653,34.653,0,0,0,8.122-1.207,28.136,28.136,0,0,0,6.048-2.356,16.309,16.309,0,0,0,5.84-5.012,12.2,12.2,0,0,0,1.173-2.422.7.7,0,0,1,.222.414,1.076,1.076,0,0,1-.013.392,19.509,19.509,0,0,0-.037,2.867c-.026.458,0,.919-.04,1.378a.72.72,0,0,0,.1.276,7.43,7.43,0,0,1-.947,3.157c-.1.194-.2.387-.3.581.012.136-.074.205-.179.261-2.564,3.6-6.252,5.527-10.309,6.881a27.266,27.266,0,0,1-6.05,1.333c-.119-.1-.266-.025-.4-.069.06.047.152.012.189.091a26.184,26.184,0,0,1-4.732.363,31.483,31.483,0,0,1-6.346-.48.221.221,0,0,1,.244-.074c-.09.019-.272-.055-.447.046a27,27,0,0,1-5.561-1.321,21.341,21.341,0,0,1-8.423-4.918,9.7,9.7,0,0,1-3.074-7.475c.068-1.933,0-3.871,0-5.807A2.424,2.424,0,0,1,723.084,300.752Z" transform="translate(-0.21 -91.365)" fill="#1c1c1c"/>
      <path id="Tracé_9423" data-name="Tracé 9423" d="M1104.235,311.738l-.113-.12a34.968,34.968,0,0,1,0-4.476v-.364c-.142-.181.028-.424-.121-.6a7.875,7.875,0,0,0,.257-2.592,1.639,1.639,0,0,1,.074.345q0,3.579-.015,7.158A5.285,5.285,0,0,1,1104.235,311.738Z" transform="translate(-335.133 -93.852)" fill="#121212"/>
      <ellipse id="Ellipse_4" data-name="Ellipse 4" cx="0.042" cy="4.599" rx="0.042" ry="4.599" transform="translate(769.367 209.661)" fill="#fafafa"/>
      <path id="Tracé_9424" data-name="Tracé 9424" d="M723.375,282.014c0,.1,0,.192-.1.249-.37.27-.37.27-.426.826C722.643,282.4,722.647,282.4,723.375,282.014Z" transform="translate(0 -74.894)" fill="#f7f7f7"/>
      <path id="Tracé_9425" data-name="Tracé 9425" d="M1094.172,402.14l.179-.261c.1.04.162.107.11.216C1094.391,402.24,1094.279,402.19,1094.172,402.14Z" transform="translate(-326.492 -180.255)" fill="#eaeaea"/>
      <path id="Tracé_9426" data-name="Tracé 9426" d="M830.771,246.778a19.844,19.844,0,0,0,5,.148,11.581,11.581,0,0,0,6.411-2.5c2.129-1.854,2.111-4.337-.006-6.2a8.357,8.357,0,0,0-1.368-.987,6.587,6.587,0,0,1-1.934-1.62,3.629,3.629,0,0,1,.047-4.813,7.722,7.722,0,0,1,3.53-2.339,15.477,15.477,0,0,1,11.922.453A13.383,13.383,0,0,1,858.517,232c3.079,3.3,3.037,7.4-.13,10.674a17.959,17.959,0,0,1-7.294,4.344,30.568,30.568,0,0,1-20.129.011,1.111,1.111,0,0,1-.2-.116.087.087,0,0,1-.027-.094C830.75,246.793,830.761,246.778,830.771,246.778Z" transform="translate(-94.931 -26.971)" fill="#fff"/>
      <path id="Tracé_9427" data-name="Tracé 9427" d="M832.913,330.849a4.529,4.529,0,0,1-2.5-.734,1.278,1.278,0,0,1,.013-2.242,4.782,4.782,0,0,1,4.909-.07,1.326,1.326,0,0,1-.063,2.423A4.82,4.82,0,0,1,832.913,330.849Z" transform="translate(-94.07 -114.576)" fill="#fff"/>
      <path id="Tracé_9428" data-name="Tracé 9428" d="M826.693,385.816l-.006.138-.584-.152c-.028-.111,0-.158.121-.114C826.383,385.723,826.564,385.675,826.693,385.816Z" transform="translate(-90.854 -166.01)" fill="#eeeeef"/>
      <path id="Tracé_9429" data-name="Tracé 9429" d="M1103.988,325c.2.169.091.4.121.6-.144-.088-.115-.233-.123-.366Q1103.987,325.124,1103.988,325Z" transform="translate(-335.119 -112.683)" fill="#1f1f1f"/>
      <path id="Tracé_9430" data-name="Tracé 9430" d="M823.77,384.957l-.121.114-.348-.119A.3.3,0,0,1,823.77,384.957Z" transform="translate(-88.398 -165.278)" fill="#8e8e8e"/>
      <path id="Tracé_9431" data-name="Tracé 9431" d="M1104.146,333q0,2.238,0,4.476c-.038-.068-.108-.135-.109-.2q-.012-2-.005-4.01C1104.032,333.18,1104.106,333.092,1104.146,333Z" transform="translate(-335.157 -119.715)" fill="#1f1f1f"/>
      <path id="Tracé_9432" data-name="Tracé 9432" d="M947.178,262.245c-.67-.968-.528-1.725.52-2.271a4.707,4.707,0,0,1,4.456-.014,1.457,1.457,0,0,1,.949,1.29,1.438,1.438,0,0,1-.967,1.342,4.711,4.711,0,0,1-4.96-.35Z" transform="translate(-196.926 -55.022)" fill="#050506"/>
      <path id="Tracé_9433" data-name="Tracé 9433" d="M1042.227,360.715c.2-.179.325-.193.445-.091a.14.14,0,0,1,.018.136C1042.53,360.925,1042.421,360.742,1042.227,360.715Z" transform="translate(-280.833 -143.937)" fill="#f7f7f7"/>
      <path id="Tracé_9434" data-name="Tracé 9434" d="M949.247,282.841l.058.388c-.183-.105-.262-.225-.055-.385Z" transform="translate(-198.998 -75.621)" fill="#f6f5f5"/>
    </g>
  </g>
</svg>
