<?xml version="1.0" encoding="utf-8"?>
<!-- Generator: Adobe Illustrator 23.0.3, SVG Export Plug-In . SVG Version: 6.00 Build 0)  -->
<!DOCTYPE svg PUBLIC "-//W3C//DTD SVG 1.1//EN" "http://www.w3.org/Graphics/SVG/1.1/DTD/svg11.dtd" [
	<!ENTITY ns_extend "http://ns.adobe.com/Extensibility/1.0/">
	<!ENTITY ns_ai "http://ns.adobe.com/AdobeIllustrator/10.0/">
	<!ENTITY ns_graphs "http://ns.adobe.com/Graphs/1.0/">
	<!ENTITY ns_vars "http://ns.adobe.com/Variables/1.0/">
	<!ENTITY ns_imrep "http://ns.adobe.com/ImageReplacement/1.0/">
	<!ENTITY ns_sfw "http://ns.adobe.com/SaveForWeb/1.0/">
	<!ENTITY ns_custom "http://ns.adobe.com/GenericCustomNamespace/1.0/">
	<!ENTITY ns_adobe_xpath "http://ns.adobe.com/XPath/1.0/">
]>
<svg version="1.1" id="Layer_1" xmlns:x="&ns_extend;" xmlns:i="&ns_ai;" xmlns:graph="&ns_graphs;"
	 xmlns="http://www.w3.org/2000/svg" xmlns:xlink="http://www.w3.org/1999/xlink" x="0px" y="0px" viewBox="0 0 1400 980"
	 style="enable-background:new 0 0 1400 980;" xml:space="preserve">
<style type="text/css">
	.st0{fill:url(#XMLID_6_);}
	.st1{clip-path:url(#SVGID_2_);}
	.st2{fill:url(#XMLID_7_);}
	.st3{fill:url(#XMLID_8_);}
	.st4{fill:url(#XMLID_10_);}
	.st5{fill:url(#XMLID_11_);}
	.st6{fill:url(#XMLID_13_);}
	.st7{fill:url(#XMLID_14_);}
	.st8{fill:url(#XMLID_15_);}
	.st9{fill:#E76364;}
	.st10{fill:#F0A49C;}
	.st11{fill:#E86F6E;}
	.st12{fill:#EE9991;}
	.st13{fill:#EE9891;}
	.st14{fill:#F8D8D2;}
	.st15{fill:#FCECE9;}
	.st16{fill:#ED9189;}
	.st17{fill:url(#XMLID_16_);}
	.st18{fill:url(#XMLID_17_);}
	.st19{fill:#FFFFFF;}
	.st20{fill:#ED1C24;}
	.st21{fill:none;}
	.st22{fill:#F1AAA1;}
</style>
<metadata>
	<sfw  xmlns="&ns_sfw;">
		<slices></slices>
		<sliceSourceBounds  bottomLeftOrigin="true" height="1306.2" width="2039" x="-430.7" y="-297.6"></sliceSourceBounds>
	</sfw>
</metadata>
<g id="XMLID_4_">
	
		<linearGradient id="XMLID_6_" gradientUnits="userSpaceOnUse" x1="661.1685" y1="235.9788" x2="661.1685" y2="958.3737" gradientTransform="matrix(1 0 0 -1 0 981.3228)">
		<stop  offset="0" style="stop-color:#E1F4FD"/>
		<stop  offset="1" style="stop-color:#9DDCF9"/>
	</linearGradient>
	<rect id="XMLID_28_" x="-71.9" y="-28.6" class="st0" width="1466.2" height="1039.2"/>
	<g id="XMLID_3_">
		<g>
			<defs>
				<rect id="SVGID_1_" x="-26.2" y="-10.4" width="1466.2" height="1039.2"/>
			</defs>
			<clipPath id="SVGID_2_">
				<use xlink:href="#SVGID_1_"  style="overflow:visible;"/>
			</clipPath>
			<g id="XMLID_1_" class="st1">
				
					<linearGradient id="XMLID_7_" gradientUnits="userSpaceOnUse" x1="591.2798" y1="509.1948" x2="591.2798" y2="250.0262" gradientTransform="matrix(1 0 0 -1 0 981.3228)">
					<stop  offset="0" style="stop-color:#5BB2E4"/>
					<stop  offset="1" style="stop-color:#225465"/>
					<stop  offset="1" style="stop-color:#07688E"/>
				</linearGradient>
				<path id="XMLID_40_" class="st2" d="M1149.5,613.4C974.2,790.9,762.8,821.5,709.9,822.1s-428.8-60.4-473.2-71.6
					C192.4,739.4,33.1,579.8,33.1,579.8s251.4,13.5,465.8-94.9c30.1-15.2,59.4-32.8,87.2-53.1c23,8.5,35.7,0,35.7,0
					s30.7,25.8,85.6,58C798.1,543,955.1,613.4,1149.5,613.4z"/>
				
					<linearGradient id="XMLID_8_" gradientUnits="userSpaceOnUse" x1="497.9" y1="17.1589" x2="497.9" y2="372.253" gradientTransform="matrix(1 0 0 -1 0 981.3228)">
					<stop  offset="0" style="stop-color:#7DB2BC"/>
					<stop  offset="0.9839" style="stop-color:#215263"/>
				</linearGradient>
				<path id="XMLID_30_" class="st3" d="M1030.7,894c8.3-10.3,16.8-20.5,23.4-31.9c6.7-11.6,13-26.2,13.1-39.9c0.1-11-5-22.6-8.3-33
					c-3.9-12.2-11.4-22.9-20-32.1c-3.6-3.8-8.1-7.1-11.4-11.1c-3.1-3.8-4.5-10.4-9.4-12.6c-2.3-1-4.1,0.2-6.3-0.2
					c-2.4-0.5-3.8-1.7-5.9-2.9c-7.2-3.9-15.1-8.4-22.7-11.9c-9.3-4.2-17.9-9.8-28.2-12.4c-6.1-1.6-11-6-17.1-7
					c-7.6-1.3-16.5,1.9-23.8,3.8c-13.3,3.5-30.6,4.6-44.4,2.2c-10.2-1.7-19.5-8.2-29.8-8.1c-6.8,0.1-13.8-0.7-20.5,0.3
					c-9.2,1.5-17.7,4.6-27.1,5.6c-6.4,0.7-12.8,1.1-19.1,1.9c-13.6,1.8-25.8,5.7-39.7,5c-6.6-0.3-12.8-3.7-18.7-6.5
					c-9.8-4.7-18.4-12-28.7-15.2c-11.7-3.6-24.6,1.1-36.2-2.2c-6.8-1.9-10.8-7.1-16.1-11.1c-4.9-3.7-13.2-5.9-19.3-7.1
					c-6.7-1.3-15.1-1-21.9,0c-8.3,1.2-16.8,1.2-24.9,2.8c-12.5,2.4-29.5,2.7-41.9-0.4c-7.3-1.8-12.9-6-20.4-7.6
					c-8.4-1.7-17.3-1.9-25.2-5.2c-6.4-2.5-10.5-7.6-15.9-11.2c-5.6-3.6-13.2-4.1-19.5-5.7c-10.3-2.7-20.3-1.9-30.6-4.1
					c-7.3-1.6-13.7-5.5-20.3-9.1c-14.1-7.5-25.1-17.5-41.8-19.2c-5.9-0.6-7.4-0.2-12.5-3.6c-4.6-3.2-9.8-4.9-14.8-7.3
					c-8.1-4-13.5-11.8-21.5-16.1c-5.9-3.3-12.6-4.6-19.2-4.7c-10.4-0.1-19.8-1-30.2-2.7c-6.3-1.1-12-1.7-18.4-1.6
					c-14,0.2-28.2,0.1-42.3,0.1c-4.7,0-9.3,0-14,0c-4.9,0-8.2,1.2-12.8,1.9c-3.6,0.6-7.5,0.4-11.1-0.3c-5.7-1.2-10.9-1.1-16.7-1.8
					c-6.1-0.7-13.6-3.5-18.9-6.7c-4.8-3-8.2-7.7-12.8-11c-4.3-3-7.9-7.2-12.3-10c-8.4-5.1-19.4-4.2-28.7-4.1c-11.9,0-23.4,2-35,3.9
					c-5.6,0.8-8.2-0.5-13.2-2.5c-6.7-2.7-14.3-3-21.5-3.9c-13.6-1.9-24.3-6.7-36.3-13.4c-3.9-2.1-8.1-3.7-12.1-5.3
					c-3.6-1.4-7.9-1.4-11-3.5c-8.6,18.2-6.6,42.6-7.5,62.1c-1.8,38.1-0.4,77.8,4,115.7c4.3,37.2,13.2,73.6,17.6,110.8
					c4,33.7,4.4,67.7,8.4,101.4c2.8,24.2,7.3,48.5,7.6,72.9c0.2,19.9-8,43.1,1.6,61.7c4.3,8.5,14.8,15.7,22.9,20
					c13.1,7,27.8,8.4,42.4,8.8c25.7,0.6,51.6-2.2,77.2-3.6c36.4-2,73.1-4.8,109.5-5.2c65.9-0.8,131.5,7.2,197.4,4.9
					c41.4-1.5,82.5-5.5,123.7-8.7c34.6-2.8,69-5.1,103.3-10.2c36.1-5.4,71.8-13.7,106.6-25.3c24.3-8.2,48.2-17.7,72.8-25
					c25-7.3,50.7-13,75-22.9c17.8-7.2,35-15.7,52.1-24.4c15.7-8.1,31.7-15.9,47-24.8C1011.5,915.6,1021.2,905.8,1030.7,894z"/>
				
					<linearGradient id="XMLID_10_" gradientUnits="userSpaceOnUse" x1="838.811" y1="486.6704" x2="838.811" y2="55.407" gradientTransform="matrix(1 0 0 -1 0 981.3228)">
					<stop  offset="0" style="stop-color:#123E4C"/>
					<stop  offset="1" style="stop-color:#215263"/>
				</linearGradient>
				<path id="XMLID_133_" class="st4" d="M823.8,457.5h-7.4v2.8h2v4.8h5.4v2.2h-3.2v3.4h-1.5v0.8h-1.9v6.4h-5.9v7.7h-3.6l-0.5,2.8
					c0,0-101,54.7-115.5,60.9c0-3.1,0-3.1,0-3.1l-6.1,1.4v6.5l-10.2,1.9l6.4,6.5l-1,4.5H698v1.7h22l6.4,6.5l-0.6,6.8l-3.7,2.8
					l0.3,3.7l14.9-5.1l0.6,5.1l9.1-4.1l1.7,5.8H768l1.4,4.1l0.3,14h-30.1v3.3h8v4.6h-6.3v3.6h6.1v4.2c0,0-51.9,16.5-74.3,16.8
					c0-2.2-0.8-3.3-0.8-3.3s-6.4,2.5-5.9,7c-3,0.5-9.3,0-9.3,0v2.5c0,0,4.7,3.9,8,5.9c0,3.6,0,3.6,0,3.6h6.6c0,0,3.6,2.9,5.2,3.3
					c0,4.2,0,6.2,0,6.2h2.7v-4.5c0,0,18.4,5.6,29.2,8.1c0,3.6,0,3.6,0,3.6h2.8v-1.9c0,0,8.6,2.4,15,1.9c0,4.2,0,7,0,7h3l10.6-6.2
					c0,0,3.6,0.8,3.7,1.4c0.2,0.5,0,8.4,0,8.4h2.4l7.8-4.1v9.5h3v-5.3h2.2v14.2h-24.2v2.4h7.4v6.8h-6.4v2.8h6.7v7
					c0,0-58.4,16.4-86.9,15.1c0-2.3,0-2.3,0-2.3s-5.2-1.9-7.1,4.5c-3.6,1.1-8.1,0-8.1,0v2.8l4.4,3.3v6.4h6.9c0,0,3.9,3.8,5.4,5.1
					c0,4.6,0,4.6,0,4.6h5.6c0,0,44.4,27.4,52.9,30.4c8.5,3.1,18,4.1,18,4.1v7.5h6.7v49.9l46.8,32L915.5,866v-73.2h2.2v-5.9
					c0,0,19.9,1.1,26.8,0.3c0-2.5,0-2.9,0-2.9h-4.1v-2.5H960c0,0,6.1,2.2,11.5,3.1c0-5.1,0-5.1,0-5.1l-2.8-0.2l-0.8-3.6
					c0,0,27.6-3.4,47.4-7c10.2,1.7,14.7,2.4,14.7,2.4v-4.8l6.9-6.2v-2h-13.4v-0.2v-6.4h-4.4v3.9c0,0-18.5-2.2-41.4-7
					s-58.5-19.6-58.5-19.6v-3.6h-6.6v-6.8c0,0,5.6,0,6.1,0c0.5,0,0-2.4,0-2.4h-6.1v-6.8h7.1v-3.9c0,0-3.2,0-8.6,0
					s-16.8-3.4-16.8-3.4v-12.3h3v-5.7H912v-2.3h-3.7v-2.8c0,0,26.5-1.2,32.6-1.2c6.3,3.1,10.2,3.7,10.2,3.7h1v-6.5h-7.4v-4.5
					c0,0,28.7-2.2,46.9-5c6.1,1.1,10.6,1.4,10.6,1.4h2.2v-4.5h4.4l5.9-5.1v-2.8h-12v-6.2h-5.9v2.8c0,0-39.7-2.2-88.6-23.1
					c0-5.1,0-6.5,0-6.5h5.2V619h-5.9v-5.9h6.6v-2.8h-32v-12.6h4.1v-2.9h-1.5v-1.4l1.7-2h17.9v-2.2h-3.7v-3.1H911v-2.4h9.3
					c0,0,7.4,5.5,14,6.7c1,0,1,0,1,0v-5.1h-3.6v-6.4l6.9-7.2v-1.6h-6.6v-2c0,0,19.4,0.8,37.7-1.5c14,1.1,15.5,0.8,15.5,0.8v-5.5h1.9
					l4.1-4.2v-2.9h-7.6l-3.7-2.4v-7.8h-4.6v3.6c0,0-17.4-5.6-48.1-18.8c-30.7-13.1-83.9-42.1-83.9-42.1v-2h-4.6V478h-6.3v-6.9h-1.2
					v-1.4h-2.5v-2.5h-2v-2.2h4.9v-4.8h1.9v-2.8H827 M834.3,385.7 M898.1,676.7h1.5l2.9,3v0.5c0,0-5.4,0-5.7,0L898.1,676.7z
					 M903.9,571h15.2l6.1,7.3v3.1l-21.3-7.3V571z M885.6,586.3l3-1.5h3l1.9,1.4v1.5h-8L885.6,586.3L885.6,586.3z M744.6,574.9
					c-3.8,3.3-12,5-12,5l-1-2.2l4.1-6.7h8.9C744.6,571,744.6,571.9,744.6,574.9z M756.9,707.8l-10.9-0.4v-6.6h2.4
					c0,0,5.3,3.5,8.5,4.6C756.9,707.8,756.9,707.8,756.9,707.8z M758.8,702.8c-4.7-0.4-7.4-2-7.4-2h7.4V702.8z M769.1,616H751v-5.3
					h6.4v1.1h8.8l2.9,2.4V616z M894.9,705l6.7,1.8h-6.7V705z M909.1,716.2h-1.6l-12.7-3.4v-3.4H909v6.8H909.1z"/>
				
					<linearGradient id="XMLID_11_" gradientUnits="userSpaceOnUse" x1="1023.0082" y1="522.8781" x2="1023.0082" y2="49.8109" gradientTransform="matrix(1 0 0 -1 0 981.3228)">
					<stop  offset="0" style="stop-color:#123E4C"/>
					<stop  offset="1" style="stop-color:#215263"/>
				</linearGradient>
				<path id="XMLID_19_" class="st5" d="M1528.5,522.4c8.1-30,17-64.4,15.4-63.9c-23.8,7.1-48.3,17.8-73.1,20.4
					c-5.3,0.5-10.9,0.1-16.1,1.2c-16.5,3.3-30.3,18.1-43.8,27.5c-30.3,20.7-64.8,52.4-103.4,53.6c-5.1,0.1-10.5-1-15.4,0.5
					c-3.7,1.1-7.5,4.3-11.2,5.8c-5.6,2.1-12.1,4.7-18,5.8c-10.6,2.1-22.1-1.8-32.4,0.8c-8.1,2-10.3,9.5-17.7,11.9
					c-8.8,2.8-19.1,0.5-27.2-2.5c-7-2.7-11.6-3.2-19.5-3.2c-15.8-0.1-31.5,10.9-45.3,19c-22.1,12.9-46.6,16.8-70.9,23.2
					c-10.5,2.8-21.1,3.5-31.6,6.4c-7.3,2-15.1,1.9-21.6,6c-6.5,4.1-12.3,9.3-16.5,15.3c-5.9,8.1-13.4,10.4-21.3,15.9
					c-7.2,5.1-14.3,7.8-22.1,12c-8,4.1-12.1,12.1-19.5,17c-8.6,5.6-16.7,8.6-24.5,15.8c-5.6,5.1-11.2,8.6-18,12
					c-17.9,8.6-39.4,0.7-57.1,11.7c-3.8,2.3-6.6,5.6-10.3,8.2c-4.8,3.4-10.6,4.1-15.4,7.1c-6.9,4.2-8.7,7.2-17.8,5.8
					c-9.3-1.5-17.7-7.4-27-9.9c-8.5-2.2-15.3-3.1-24.1-3.1c-14.3,0-26.1,4.8-40.1,6.5c-20,2.4-40.1,11.2-54.9,26
					c-9.1,9.1-15.3,16.8-22.2,27.5c-4,6.2-12,12.4-18,16.6c-6.7,4.8-16.8,4-23.4,9.2c-5.9,4.6-12,10.4-17.4,16
					c-17.7,18.1-51.9,32.7-58.5,59s25.1,42.7,45.3,47.2c97.6,21.6,198.7,17.8,298.5,13.9c189.4-7.4,379.2-14.8,566.7-42.6
					c57-8.5,117-20.4,159.1-60.1c-8.9-60.9-17.9-121.6-26.8-182.5c-5.8-39.6-23.6-73.9-14.5-113.8
					C1517.8,561.9,1522.9,543.2,1528.5,522.4z"/>
				
					<linearGradient id="XMLID_13_" gradientUnits="userSpaceOnUse" x1="-23.4016" y1="4.5789" x2="-23.4016" y2="484.197" gradientTransform="matrix(1 0 0 -1 0 981.3228)">
					<stop  offset="5.376345e-03" style="stop-color:#FFFFFF"/>
					<stop  offset="1" style="stop-color:#EC938C"/>
				</linearGradient>
				<path id="XMLID_105_" class="st6" d="M77.5,1087.2c5.2-31.8,26.2-50.9,48.2-71c9.4-7.4,18.9-13.8,28.3-21.2
					c45-40.3,84.8-78.5,130.9-117.7c5.2-4.2,10.5-11.7,15.7-17c17.8-15.9,40.8-24.4,61.8-33.9c15.8-6.4,19.1-20,21.6-34.1
					c-0.6-0.4-1.3-1-2-1.3c-0.5-0.3-0.9,0.1-1,0.6c-0.2,1.4-0.3,2.8-0.5,4c-1.6-0.8-2.9-1.9-4.3-3.1c-0.4-0.3-0.9-0.2-1.2,0.3
					c-0.9,3.1-1.2,6.4-0.7,9.5c-6-0.4-11.2-3.6-11.8-9.6c-1.7-17.3-26.5-15.8-42.9-22.7c0.1-1,0.2-2,0.2-3c6.5,5.9,16,4.7,24.1,3.4
					c0.4-0.1,0.6-0.6,0.4-1.1c-1.3-1.7-2.7-3.2-4.4-4.5c2.5-1.4,5.4-3.9,3.6-7c-0.8-1.4-2.6-2.1-4-2.7c-1.6-0.6-3.1-1.2-4.8-1.5
					c-1.7-0.3-3.4-0.4-5.1-0.4c0.7-0.8,1.4-1.8,1.9-2.9c5.2,1.7,11.1,1.6,16.2-0.7c0.4-0.2,0.5-0.7,0.2-1.1
					c-1.3-1.3-2.5-2.5-3.8-3.8c1.8-0.6,3.6-1.3,5.4-1.9c0.3-0.1,0.5-0.6,0.3-1c-3.4-6-9.5-8.1-15.9-8.8c5.2-2,9.7-6.3,11.5-11.8
					c0.2-0.5-0.2-1-0.7-1c-1.4,0.1-2.7,0.1-4.1,0.2c0.6-1.7,1.4-3.3,2.3-4.8c0.3-0.4,0-1.1-0.5-1.1c-6.1-0.7-12.1,1.2-16.9,5
					c1.5-5.2-0.9-11-3.2-15.8c-0.3-0.7-1.4-0.3-1.3,0.4c0.1,1.6-1.2,3.3-2.8,3.2c-1.5-0.1-2.5-1.6-2.3-3c0.1-0.6-0.6-1-1.2-0.6
					c-4.1,3.1-6,8.2-5.8,13.1c-4.1,0.5-7.9,2.4-11,5.3c-0.4,0.3-0.8,0.7-1.3,1.2c-0.8-1.1-1.9-1.9-2.9-2.7c-1.2-2.9-2.7-5.6-4.6-8.1
					c2.1-2,3.8-4.6,4.7-7.4c0.2-0.5-0.2-1-0.7-1c-1.4,0.1-2.7,0.1-4.1,0.2c0.6-1.7,1.4-3.3,2.3-4.8c0.3-0.4,0-1.1-0.5-1.1
					c-6.1-0.7-12.1,1.2-16.9,5c1.5-5.2-0.9-11-3.2-15.8c-0.3-0.7-1.4-0.3-1.3,0.4c0.1,1.6-1.2,3.3-2.8,3.2c-1.5-0.1-2.5-1.6-2.3-3
					c0.1-0.6-0.6-1-1.2-0.6c-0.6,0.4-1.2,1-1.6,1.5c-0.1-0.7-0.2-1.5-0.4-2.2c-0.1-0.4-0.6-0.6-1-0.4c-1.5,1.1-2.9,2.1-4.3,3.1
					c-0.3-1.9-0.6-3.8-0.9-5.7c-0.1-0.3-0.5-0.6-0.8-0.5c-1.8,0.6-3.2,1.5-4.5,2.5c0.3-2.3,0.3-4.6,0-6.9c3.2,2.2,7.1,3.1,11.2,2.4
					c6-1,11.5-4.7,14.3-10.1c0.1-0.2,0.1-0.5,0-0.7c-1.7-2.7-4-4.6-6.8-5.8c2.2-1.3,4.4-2.3,6.7-3.2c0.5-0.2,0.7-1,0.2-1.3
					c-3-1.4-6.2-2.3-9.4-2.8c3.8-3.6,6.3-8.6,5.3-14.1c-0.1-0.5-0.6-0.5-1-0.4c-1.5,0.6-2.9,1.3-4.4,1.9c-0.1-3.6-0.7-7.2-1.8-10.7
					c-0.1-0.3-0.3-0.5-0.6-0.5c-5.1-0.1-9.8,2-13.6,5.4c-0.9,0.8-1.9,1.7-2.7,2.7c-1.4-5.2-4-10.1-7.5-14.1c-0.2-0.3-0.7-0.2-0.9,0
					c-1.8,1.8-3.2,3.8-4.3,6.2c-1-1.5-2.1-2.9-3.4-4.1c-1.2-1.2-2.6-3-4.4-2.9c-1.7,0.1-2.5,1.8-3.1,3.2c-0.9,2-1.7,4.1-2.2,6.3
					c-1.3,5.2-1.2,10.8,0.6,15.9c-4.4,0.3-8.8,1.8-12.5,4.5c-0.4,0.3-0.4,1,0,1.2c1.3,0.7,2.4,1.5,3.7,2.3c-0.6,0.4-1.3,1-2,1.4
					c-1.5-3.2-3.4-6.2-5.7-8.7c-0.2-0.3-0.7-0.2-0.9,0c-1.8,1.8-3.2,3.8-4.3,6.2c-1-1.5-2.1-2.9-3.4-4.1c-1.2-1.2-2.6-3-4.4-2.9
					c-1.7,0.1-2.5,1.8-3.1,3.2c-0.9,2-1.7,4.1-2.2,6.3c-1.3,5.2-1.2,10.8,0.6,15.9c-0.5,0-1.2,0.1-1.7,0.2c-0.6-0.6-1.4-1.4-2-2
					c0.5-0.1,1-0.1,1.5-0.2c0.4-0.1,0.6-0.6,0.4-1.1c-1.2-1.7-2.6-3.1-4.2-4.3c0-0.1,0-0.2,0-0.3c2.5-1.4,5.2-3.9,3.4-6.9
					c-0.8-1.4-2.6-2.1-4-2.7c-1.6-0.6-3.1-1.2-4.8-1.5c-1.7-0.3-3.4-0.4-5.1-0.4c4.4-5.5,6.2-13.1,4.4-20c-0.1-0.4-0.6-0.6-1-0.4
					c-1.5,1.1-2.9,2.1-4.3,3.1c-0.3-1.9-0.6-3.8-0.9-5.7c-0.1-0.3-0.5-0.6-0.8-0.5c-6.4,2.3-9.5,8.2-11.2,14.3
					c-1-5.6-4.4-10.7-9.4-13.6c-0.5-0.3-0.9,0.1-1,0.6c-0.1,0.6-0.1,1.2-0.2,1.8c-0.2,0-0.4,0-0.7,0c-0.7-0.7-1.6-1.4-2.4-2
					c2.5-1.4,5.4-3.9,3.6-7c-0.8-1.4-2.6-2.1-4-2.7c-1.6-0.6-3.1-1.2-4.8-1.5c-1.7-0.3-3.4-0.4-5.1-0.4c4.4-5.5,6.2-13.1,4.4-20
					c-0.1-0.4-0.6-0.6-1-0.4c-1.5,1.1-2.9,2.1-4.3,3.1c-0.3-1.9-0.6-3.8-0.9-5.7c-0.1-0.3-0.5-0.6-0.8-0.5
					c-6.4,2.3-9.5,8.2-11.2,14.3c-1-5.6-4.4-10.7-9.4-13.6c-0.5-0.3-0.9,0.1-1,0.6c-0.2,1.4-0.3,2.8-0.5,4c-1.6-0.8-2.9-1.9-4.3-3.1
					c-0.4-0.3-0.9-0.2-1.2,0.3c-1,3.5-1.2,7.2-0.5,10.8c-0.1,0.1-0.2,0.2-0.3,0.2c-0.3-1.9-0.6-3.8-0.9-5.7
					c-0.1-0.3-0.5-0.6-0.8-0.5c-4.1,1.5-6.9,4.5-8.8,8c-1.6-7.1-4.3-13.9-8.1-20.1c2.5-1.7,4.6-4,6.1-6.7c0.1-0.2,0.1-0.5,0-0.7
					c-0.7-1.1-1.6-2-2.5-3c5.6,1.6,11.8,0.7,17.5-0.2c0.4-0.1,0.6-0.6,0.4-1.1c-1.3-1.7-2.7-3.2-4.4-4.5c2.5-1.4,5.4-3.9,3.6-7
					c-0.8-1.4-2.6-2.1-4-2.7c-1.6-0.6-3.1-1.2-4.8-1.5c-1.7-0.3-3.4-0.4-5.1-0.4c4.4-5.5,6.2-13.1,4.4-20c-0.1-0.4-0.6-0.6-1-0.4
					c-1.5,1.1-2.9,2.1-4.3,3.1c-0.3-1.9-0.6-3.8-0.9-5.7c-0.1-0.3-0.5-0.6-0.8-0.5c-4.2,1.6-7,4.6-8.9,8.3c-0.1-0.3-0.1-0.6-0.2-1
					c-0.1-0.3-0.3-0.5-0.6-0.5c-1.5,0-2.8,0.1-4.2,0.4c-1.7-2.7-3.9-4.9-6.7-6.5c-0.5-0.3-0.9,0.1-1,0.6c-0.2,1.4-0.3,2.8-0.5,4
					c-1.6-0.8-2.9-1.9-4.3-3.1c-0.4-0.3-0.9-0.2-1.2,0.3c-0.5,1.9-0.8,3.9-0.8,5.9c-1.4-2.9-3.1-5.5-5.2-7.8c-0.2-0.3-0.7-0.2-0.9,0
					c-1.8,1.8-3.2,3.8-4.3,6.2c-1-1.5-2.1-2.9-3.4-4.1c-1.2-1.2-2.6-3-4.4-2.9c-1.7,0.1-2.5,1.8-3.1,3.2c-0.9,2-1.7,4.1-2.2,6.3
					c-1.3,5.2-1.2,10.8,0.6,15.9c-4.4,0.3-8.8,1.8-12.5,4.5c-0.4,0.3-0.4,1,0,1.2c1,0.6,2,1.3,3,1.9c-0.3,0.4-0.6,1-0.9,1.5
					c-1.3,0.8-2.5,1.7-3.8,2.7c0,0,0,0-0.1,0.1c-1.6-3.9-4.5-7.4-8.3-9.5c-0.5-0.3-0.9,0.1-1,0.6c-0.2,1.4-0.3,2.8-0.5,4
					c-1.6-0.8-2.9-1.9-4.3-3.1c-0.4-0.3-0.9-0.2-1.2,0.3c-1,3.7-1.2,7.5-0.4,11.1c-1.6,0.1-3.1,0.2-4.7,0.2c-0.6,0-1.2,0-1.8,0
					c1.4-1.4,2-3.1,0.8-5c-0.8-1.4-2.6-2.1-4-2.7c-1.6-0.6-3.1-1.2-4.8-1.5c-1.7-0.3-3.4-0.4-5.1-0.4c4.4-5.5,6.2-13.1,4.4-20
					c-0.1-0.4-0.6-0.6-1-0.4c-1.5,1.1-2.9,2.1-4.3,3.1c-0.3-1.9-0.6-3.8-0.9-5.7c-0.1-0.3-0.5-0.6-0.8-0.5
					c-6.4,2.3-9.5,8.2-11.2,14.3c-1-5.6-4.4-10.7-9.4-13.6c-0.5-0.3-0.9,0.1-1,0.6c-0.2,1.4-0.3,2.8-0.5,4c-0.2-0.1-0.4-0.2-0.6-0.3
					c-0.1-0.5-0.2-1.1-0.3-1.6c-0.1-0.4-0.6-0.6-1-0.4c-0.3,0.2-0.5,0.4-0.8,0.5c-0.5-0.4-1-0.8-1.6-1.3c-0.4-0.3-0.9-0.2-1.2,0.3
					c-0.3,1.2-0.5,2.2-0.7,3.4c-0.1,0-0.1,0.1-0.2,0.1c-0.3-1.9-0.6-3.8-0.9-5.7c-0.1-0.3-0.5-0.6-0.8-0.5c-5.7,2-8.7,6.8-10.6,12.1
					c-0.4,0-0.8-0.1-1.3-0.1c-0.2-0.6-0.4-1.2-0.6-1.8c3.5-5.3,4.8-12.1,3.2-18.3c-0.1-0.4-0.6-0.6-1-0.4c-1.5,1.1-2.9,2.1-4.3,3.1
					c-0.3-1.9-0.6-3.8-0.9-5.7c-0.1-0.3-0.5-0.6-0.8-0.5c-6.4,2.3-9.5,8.2-11.2,14.3c-1-5.6-4.4-10.7-9.4-13.6
					c-0.5-0.3-0.9,0.1-1,0.6c-0.2,1.4-0.3,2.8-0.5,4c-1.6-0.8-2.9-1.9-4.3-3.1c-0.4-0.3-0.9-0.2-1.2,0.3c-1.8,5.9-0.9,12.4,1.9,17.7
					c-3.4-1.7-7.4-1.5-11.3-0.6c-1.7-0.5-3.4-1.1-5.1-1.6c0.3-2.5,0.1-5.2-0.5-7.7c-0.1-0.4-0.6-0.6-1-0.4c-1.5,1.1-2.9,2.1-4.3,3.1
					c-0.3-1.9-0.6-3.8-0.9-5.7c-0.1-0.3-0.5-0.6-0.8-0.5c-6.4,2.3-9.5,8.2-11.2,14.3c-0.3-1.6-0.7-3.1-1.4-4.6
					c0.1-0.1,0.1-0.1,0.2-0.2c0.3-0.3,0.1-0.8-0.3-1.1c-0.2-0.1-0.4-0.2-0.6-0.3c-0.7-1.4-1.7-2.7-2.7-3.7c1.4-0.5,2.6-1.3,3.9-2.1
					c0.3-0.2,0.3-0.8,0-1.1c-1.8-1.4-3.8-2.3-5.9-3.1c0.1-1.8,0.2-3.5,0.3-5.2c0-0.4-0.5-0.7-0.9-0.6c-1.9,0.8-3.7,2-5.2,3.5
					c-0.2-0.7-0.5-1.5-0.8-2.2c1.3-2.3,1.9-5,1.8-8c-0.1-6.2-3.1-12.1-8.1-15.7c-0.2-0.1-0.4-0.2-0.7-0.1c-2.7,1.4-5,3.5-6.5,6.2
					c-0.9-2.3-1.7-4.7-2.3-7.1c-0.1-0.5-0.8-0.8-1.3-0.3c-1.8,2.9-3,5.9-4,9.1c-3-4.3-7.6-7.4-13.2-7.2c-0.5,0-0.6,0.5-0.5,1
					c0.4,1.6,0.8,3.1,1.3,4.7c-3.6-0.3-7.2-0.2-10.8,0.4c-0.3,0.1-0.5,0.3-0.6,0.6c-0.8,5.1,0.7,10.1,3.6,14.4
					c0.7,1.1,1.5,2.1,2.3,3.1c-5.2,0.7-10.4,2.7-14.8,5.8c-0.3,0.2-0.3,0.6-0.1,1c1.6,2,3.4,3.7,5.4,5.1c-1.6,0.8-3,1.8-4.5,2.9
					c-1.3,1-3.2,2.2-3.4,4c-0.1,1.7,1.5,2.8,2.6,3.6c1.9,1.2,3.8,2.2,5.9,3c2.9,1.2,6.1,1.8,9.2,1.9c-0.2,0.3-0.5,0.5-0.7,0.8
					c-0.3,0.4-0.1,1,0.4,1.2c1.3,0.4,2.5,0.8,3.9,1.3c-0.1,0.1-0.3,0.3-0.4,0.4c-14.7-0.7-30-0.3-35.8-12.4
					c-0.7,2.5-1.9,4.9-3.2,6.9c-2.6-1.2-5.4-1.8-8.4-2.1c5.2-2,9.7-6.3,11.5-11.8c0.2-0.5-0.2-1-0.7-1c-1.4,0.1-2.7,0.1-4.1,0.2
					c0.6-1.7,1.4-3.3,2.3-4.8c0.3-0.4,0-1.1-0.5-1.1c-6.1-0.7-12.1,1.2-16.9,5c1.5-5.2-0.9-11-3.2-15.8c-0.3-0.7-1.4-0.3-1.3,0.4
					c0.1,1.6-1.2,3.3-2.8,3.2c-1.5-0.1-2.5-1.6-2.3-3c0.1-0.6-0.6-1-1.2-0.6c-6,4.5-7.3,13.6-3.8,19.9c-4.9-2.2-11-1.6-15.2,2.1
					c-0.4,0.3-0.3,1.1,0.2,1.2c0.7,0.2,1.6,0.5,2.3,0.7c-1,0.6-2.2,1.3-3.2,2c-0.2,0.1-0.4,0.3-0.4,0.5c0.1,4.1,2.6,7.6,6.2,9.5
					c3.6,1.8,7.5,1.9,11.4,1.4c-1.7,2.7-2.4,5.6-2.4,8.7c-0.9,0.6-1.9,1.4-2.7,2.1c-0.8-2.8-2.7-6.2-6.1-4.9
					c-1.5,0.5-2.5,2.2-3.4,3.5c-0.9,1.4-1.8,2.9-2.4,4.5c-0.1,0.4-0.3,0.7-0.4,1.2c-1.5,0.2-2.9,0.3-4.4,0.4c-0.9-0.7-2-1.5-3.1-2.1
					c0.1-0.2,0.2-0.4,0.4-0.6c0.3-0.4,0-1.1-0.5-1.1c-1.4-0.1-2.6-0.2-4-0.1c-2.5-0.8-5.2-1.3-8-1.2c-0.3,0-0.5,0.2-0.6,0.5
					c-0.1-0.3-0.4-0.5-0.7-0.5c-1.2,0.1-2.3,0.1-3.5,0.2c-0.1-0.3-0.1-0.7-0.2-1.1c0.5-1.3,1.2-2.4,1.9-3.7c0.3-0.4,0-1.1-0.5-1.1
					c-0.9-0.1-1.9-0.1-2.9-0.1c-0.5-1.3-1.2-2.7-1.7-3.8c-0.3-0.7-1.4-0.3-1.3,0.4c0.1,1.6-1.2,3.3-2.8,3.2c-1.5-0.1-2.5-1.6-2.3-3
					c0.1-0.6-0.6-1-1.2-0.6c-2,1.5-3.5,3.5-4.4,5.7c0-4.2-1.9-8.8-3.7-12.5c-0.3-0.7-1.4-0.3-1.3,0.4c0.1,1.6-1.2,3.3-2.8,3.2
					c-1.5-0.1-2.5-1.6-2.3-3c0.1-0.6-0.6-1-1.2-0.6c-2,1.5-3.5,3.5-4.4,5.7c-0.2-0.5-0.5-1.2-0.8-1.7c-0.3-0.7-1.4-0.3-1.3,0.4
					c0.1,0.8-0.3,1.7-0.8,2.3c-0.4-2.1-1.4-4.1-2.8-5.8l-0.1-0.1c6.8-2.2,11.2-10,10.2-17c3.8,3.9,9.6,5.5,14.9,3.6
					c0.4-0.2,0.6-0.8,0.2-1.2c-0.6-0.5-1.3-1.1-1.9-1.5c1.3-0.2,2.5-0.4,3.8-0.6c0.2,0,0.5-0.1,0.5-0.4c1.5-3.8,0.3-8.1-2.4-11.1
					c-0.2-0.3-0.5-0.5-0.7-0.8c0.5-1.6,0.7-3.3,0.7-5c0.3-0.3,0.3-0.7,0-1l0,0c0-0.3,0-0.6-0.1-1c3.8,3.9,9.6,5.5,14.9,3.6
					c0.4-0.2,0.6-0.8,0.2-1.2c-0.6-0.5-1.3-1.1-1.9-1.5c1.3-0.2,2.5-0.4,3.8-0.6c0.2,0,0.5-0.1,0.5-0.4c1.5-3.8,0.3-8.1-2.4-11.1
					c-2.6-3-6.4-4.6-10.2-5.5c7-5.3,7.8-15,8.1-23.2c0-0.4-0.5-0.7-0.9-0.6c-1.9,0.8-3.7,2-5.2,3.5c-0.8-2.8-2.7-6.2-6.1-4.9
					c-1.3,0.5-2.2,1.7-2.9,2.9c0-0.7,0.1-1.6,0.1-2.3c0-0.4-0.5-0.7-0.9-0.6c-1.9,0.8-3.7,2-5.2,3.5c-0.8-2.8-2.7-6.2-6.1-4.9
					c-1.5,0.5-2.5,2.2-3.4,3.5c-0.6,1-1.3,2-1.8,3c-1.8-0.4-3.7-0.5-5.7-0.4c-0.4,0-0.7,0.5-0.6,1c0.4,1.1,0.9,2.1,1.4,3.2
					c-4.4-3.7-10.1-5.8-15.8-5.6c-0.4,0-0.7,0.5-0.6,1c0.7,1.6,1.5,3.3,2.2,4.9c-1.9-0.1-3.9-0.1-5.8-0.2c-0.3,0-0.7,0.4-0.6,0.7
					c1,6.9,6,11,11.6,14c-0.9,0-2,0.1-2.9,0.2c-1.3-0.2-2.6-0.2-3.9-0.2c-0.4,0-0.7,0.5-0.6,1c0.1,0.1,0.1,0.2,0.2,0.3
					c-2.9,1.2-5.7,3-7.6,5.4c-0.3,0.4-0.1,1,0.4,1.2c1.2,0.4,2.4,0.7,3.6,1.2c0,0.1,0.1,0.2,0.1,0.3c-1,1.3-2.3,2.4-3.7,3.4
					c-0.4,0.3-0.4,1,0.1,1.2c2.7,1.5,5.7,2.3,8.6,2.5c1.8,1.5,3.8,2.8,5.9,3.9c-5.7-0.1-11.3,2.3-15,6.8c-0.3,0.4-0.1,1,0.4,1.2
					c1.2,0.4,2.3,0.7,3.6,1.2c-0.2,0.3-0.3,0.6-0.5,1c-0.9,1-1.9,1.9-3,2.8c-0.4,0.3-0.4,1,0.1,1.2c0.4,0.2,0.9,0.4,1.4,0.6
					c-0.1,0.5-0.2,1.1-0.3,1.7c-0.6-0.7-1.4-1.5-2.1-2.1c1.3-3.7,0.2-7.6-2.2-10.6c-2.5-3.1-6.2-4.9-9.9-5.9
					c7.1-5,8.3-14.7,8.8-22.9c0-0.4-0.5-0.8-0.8-0.6c-0.6,0.2-1.2,0.5-1.7,0.8c-0.4-0.6-0.8-1.3-1.4-1.9c-0.2-0.3-0.5-0.5-0.8-0.8
					c0.8-0.1,1.8-0.3,2.6-0.4c0.2,0,0.5-0.1,0.5-0.4c1.5-3.8,0.3-8.1-2.4-11.1c-1-1.3-2.3-2.2-3.8-3.1c1.2-4.1,1.5-8.7,1.6-12.9
					c0-0.4-0.5-0.7-0.9-0.6c-0.2,0.1-0.4,0.2-0.5,0.3c1-4,1.3-8.5,1.5-12.4c0-0.4-0.5-0.7-0.9-0.6c-1.9,0.8-3.7,2-5.2,3.5
					c-0.8-2.8-2.7-6.2-6.1-4.9c-1.5,0.5-2.5,2.2-3.4,3.5c-0.9,1.4-1.8,2.9-2.4,4.5s-1.2,3.3-1.4,5c-4.5-5.4-11.4-8.7-18.5-8.4
					c-0.4,0-0.7,0.5-0.6,1c0.7,1.6,1.5,3.3,2.2,4.9c-1.9-0.1-3.9-0.1-5.8-0.2c-0.3,0-0.7,0.4-0.6,0.7c0.6,4,2.5,7.1,5.2,9.5
					c0.4,0.8,0.7,1.8,1.2,2.7c-1.9-0.1-3.9-0.1-5.8-0.2c-0.3,0-0.7,0.4-0.6,0.7c0.2,1.5,0.6,2.9,1.2,4.1c-1.7,1.1-3.2,2.3-4.5,3.8
					c-0.3,0.4-0.1,1,0.4,1.2c1.3,0.4,2.5,0.8,3.9,1.3c-1.2,1.4-2.4,2.5-3.9,3.6c-0.4,0.3-0.4,1,0.1,1.2c1.3,0.7,2.6,1.3,4.1,1.7
					c-1.7,1.1-3.2,2.3-4.5,3.9c-0.3,0.4-0.1,1,0.4,1.2c1.3,0.4,2.5,0.8,3.9,1.3c-1.2,1.4-2.4,2.5-3.9,3.6c-0.4,0.3-0.4,1,0.1,1.2
					c2.8,1.5,5.9,2.3,8.9,2.5c0.8,3.8,2.9,6.8,5.8,9.2c0,0.4,0,0.8,0,1.3c-10.4-1.6-22.5,2.7-29.2,11.3c-10.9,14.2-10.7,34-8.1,52
					c8.5,58.1-12.7,110-7,170.1c7,74.9,16.2,149.6,27.9,223.9c0.4,2.3,0.7,4.8,1.2,7.1c7,43.9,15.7,88.3,37.4,126.9
					c20.9,37.3,53,67.2,88.7,90.3c84.7,54.7,188.9,71.8,289.3,66.6c35.8-1.9,71.4-6.4,106.7-12.6c-9.8-6.6-21.9-9.5-30.4-18.2
					C53.4,1201.7,70.1,1140.2,77.5,1087.2z M258.6,705.2c0.2,0.7,0.5,1.5,0.8,2.1c-0.5,0-0.9,0-1.5-0.1c-0.2-0.1-0.5-0.1-0.7-0.2
					C257.7,706.5,258.1,705.8,258.6,705.2z M242.6,689.3c0.6,1.4,1.4,2.7,2.2,3.8c-0.7,1.6-1.3,3.2-1.8,4.9c-0.4-2-1-4-2-5.8
					C241.5,691.2,242,690.3,242.6,689.3z M127.6,640.8c-0.6,0.2-1.2,0.4-1.8,0.7c-0.1-0.6-0.2-1.3-0.4-1.9
					C126.2,640.1,126.9,640.5,127.6,640.8z M75,599.5c0.8-0.1,1.8-0.3,2.6-0.6c-1.3,1.2-2.4,2.7-3.1,4.2c-0.6-1.3-1.4-2.3-2.1-3.5
					C73.2,599.7,74.1,599.6,75,599.5z M-330.5,563.2c0.8-0.6,1.7-1.4,2.4-2.2c0,1,0,1.9,0.1,2.9
					C-328.8,563.6-329.6,563.4-330.5,563.2z M-321.6,567.5c-1.3-1.1-2.6-1.9-4.1-2.7c0.7-0.7,1.9-1.1,2.9-0.6
					C-321.7,564.8-321.1,566.3-321.6,567.5z M-281,588.5c0.6-1.1,1-2.1,1.5-3.3c0.3,0.6,0.6,1.4,0.9,2
					C-279.5,587.6-280.3,588-281,588.5z M-143.6,584.4c0-0.1,0-0.2,0-0.3h0.1c0,0.2,0,0.5,0.1,0.7
					C-143.5,584.7-143.6,584.5-143.6,584.4z M22.5,584.5c0-0.1-0.1-0.3-0.1-0.4c0.1,0.1,0.2,0.3,0.3,0.4
					C22.6,584.5,22.5,584.5,22.5,584.5z"/>
				
					<linearGradient id="XMLID_14_" gradientUnits="userSpaceOnUse" x1="351.0493" y1="-103.595" x2="351.0493" y2="318.106" gradientTransform="matrix(1 0 0 -1 0 981.3228)">
					<stop  offset="5.376345e-03" style="stop-color:#FFFFFF"/>
					<stop  offset="1" style="stop-color:#EC938C"/>
				</linearGradient>
				<path id="XMLID_52_" class="st7" d="M641.3,880.4c-3-1.4-6.2-2.3-9.4-2.8c3.8-3.6,6.3-8.6,5.3-14.1c-0.1-0.5-0.6-0.5-1-0.4
					c-1.5,0.6-2.9,1.3-4.4,1.9c-0.1-3.6-0.7-7.2-1.8-10.7c-0.1-0.3-0.3-0.5-0.6-0.5c-5.1-0.1-9.8,2-13.6,5.4
					c-0.9,0.8-1.9,1.7-2.7,2.7c-1.4-5.2-4-10.1-7.5-14.1c-0.2-0.3-0.7-0.2-0.9,0c-1.8,1.8-3.2,3.8-4.3,6.2c-1-1.5-2.1-2.9-3.4-4.1
					c-1.2-1.2-2.6-3-4.4-2.9c-1.7,0.1-2.5,1.8-3.1,3.2c-0.9,2-1.7,4.1-2.2,6.3c-1.3,5.2-1.2,10.8,0.6,15.9c-1,0.1-2.2,0.2-3.2,0.4
					c0-5.4-1.9-11-7.2-13.1c-0.7-0.2-1,0.6-0.6,1.2c0.5,0.6-0.2,1.4-0.7,1.6c-0.6,0.3-1.2,0.1-1.7-0.3c-0.9-0.7-1.4-2-1.8-3.2
					c-0.1-0.4-0.6-0.7-1-0.4c-2.1,1.6-3.2,3.6-4,6c-4.4-3.3-8.8-6.4-13.4-9.2c-0.1-0.4-0.2-0.8-0.3-1.3c5.1,3.2,12,2.5,16.4-1.8
					c0.4-0.4,0.1-1-0.3-1.2c-0.8-0.3-1.6-0.6-2.4-1c1.9-1.7,3.8-3.3,5.6-5c0.2-0.2,0.3-0.6,0.1-0.8c-3-4.3-7.5-8-12.9-8.4
					c-0.2,0-0.4,0-0.6,0c0.2-5.6-1.6-11.8-7.2-13.9c-0.7-0.2-1,0.6-0.6,1.2c0.5,0.6-0.2,1.4-0.7,1.6c-0.6,0.3-1.2,0.1-1.7-0.3
					c-0.9-0.7-1.4-2-1.8-3.2c-0.1-0.4-0.6-0.7-1-0.4c-3.2,2.4-4.4,6.3-4.7,10.2c-1.8-3-5-5-8.5-4.9c-0.4,0-0.7,0.4-0.6,0.8
					c0.1,0.6,0.3,1.3,0.4,2c-2.4-0.6-4.8,1.4-5.6,3.8c-1.9-1.1-4-1.8-6.2-2c-0.2,0-0.4,0-0.6,0c0.2-5.6-1.6-11.8-7.2-13.9
					c-0.7-0.2-1,0.6-0.6,1.2c0.5,0.6-0.2,1.4-0.7,1.6c-0.6,0.3-1.2,0.1-1.7-0.3c-0.9-0.7-1.4-2-1.8-3.2c-0.1-0.4-0.6-0.7-1-0.4
					c-3.2,2.4-4.4,6.3-4.7,10.2c-1.2-1.9-2.9-3.4-5-4.2c0-1.8-0.2-3.5-0.6-5.3c-0.1-0.4-0.6-0.6-1-0.4c-1.5,1.1-2.9,2.1-4.3,3.1
					c-0.3-1.9-0.6-3.8-0.9-5.7c-0.1-0.3-0.5-0.6-0.8-0.5c-6.4,2.3-9.5,8.2-11.2,14.3c-0.5-3.1-1.8-5.9-3.7-8.4
					c2.2-2.4,4.1-5.2,5.6-8.2c0.3,0.5,0.7,1,1.2,1.4c0.3,0.3,0.8,0.2,1-0.1c2.5-4.7,3.4-10.1,2.6-15.3c3.2,2.2,7.1,3.1,11.2,2.4
					c6-1,11.5-4.7,14.3-10.1c0.1-0.2,0.1-0.5,0-0.7c-1.7-2.7-4-4.6-6.8-5.8c2.2-1.3,4.4-2.3,6.7-3.2c0.5-0.2,0.7-1,0.2-1.3
					c-3-1.4-6.2-2.3-9.4-2.8c3.8-3.6,6.3-8.6,5.3-14.1c-0.1-0.5-0.6-0.5-1-0.4c-1.5,0.6-2.9,1.3-4.4,1.9c-0.1-3.6-0.7-7.2-1.8-10.7
					c-0.1-0.3-0.3-0.5-0.6-0.5c-5.1-0.1-9.8,2-13.6,5.4c-0.9,0.8-1.9,1.7-2.7,2.7c-1.4-5.2-4-10.1-7.5-14.1c-0.2-0.3-0.7-0.2-0.9,0
					c-1.8,1.8-3.2,3.8-4.3,6.2c-0.7-1-1.5-1.9-2.2-2.8c3.8-1.8,7-4.7,9.1-8.5c0.1-0.2,0.1-0.5,0-0.7c-1.7-2.7-4-4.6-6.8-5.8
					c2.2-1.3,4.4-2.3,6.7-3.2c0.5-0.2,0.7-1,0.2-1.3c-3-1.4-6.2-2.3-9.4-2.8c3.8-3.6,6.3-8.6,5.3-14.1c-0.1-0.5-0.6-0.5-1-0.4
					c-1.5,0.6-2.9,1.3-4.4,1.9c-0.1-3.6-0.7-7.2-1.8-10.7c-0.1-0.3-0.3-0.5-0.6-0.5c-5.1-0.1-9.8,2-13.6,5.4
					c-0.9,0.8-1.9,1.7-2.7,2.7c-1.4-5.2-4-10.1-7.5-14.1c-0.2-0.3-0.7-0.2-0.9,0c-1.8,1.8-3.2,3.8-4.3,6.2c-1-1.5-2.1-2.9-3.4-4.1
					c-1.2-1.2-2.6-3-4.4-2.9c-1.7,0.1-2.5,1.8-3.1,3.2c-0.9,2-1.7,4.1-2.2,6.3c-1.3,5.2-1.2,10.8,0.6,15.9
					c-4.4,0.3-8.8,1.8-12.5,4.5c-0.4,0.3-0.4,1,0,1.2c1.3,0.7,2.4,1.5,3.7,2.3c-1.8,1.3-3.6,2.4-5.2,3.7c-0.2,0.1-0.3,0.3-0.3,0.5
					c-0.6-0.8-1.3-1.7-2-2.4c-0.2-0.3-0.7-0.2-0.9,0c-1.8,1.8-3.2,3.8-4.3,6.2c-1-1.5-2.1-2.9-3.4-4.1c-1.2-1.2-2.6-3-4.4-2.9
					c-1.7,0.1-2.5,1.8-3.1,3.2c-0.9,2-1.7,4.1-2.2,6.3c-1.3,5.2-1.2,10.8,0.6,15.9c-4.4,0.3-8.8,1.8-12.5,4.5c-0.4,0.3-0.4,1,0,1.2
					c1.3,0.7,2.4,1.5,3.7,2.3c-1.8,1.3-3.6,2.4-5.2,3.7c-0.3,0.2-0.4,0.6-0.2,1c2,3.2,4.8,5.7,8.2,7.4c3.9,1.9,8.2,2.7,12.4,2
					c0,0.6-0.1,1.4,0,2c0.1,2.3,0.5,4.7,1.3,6.9c-1.9,4-4.1,7.7-7.1,10.9c-0.2,0.2-0.4,0.4-0.6,0.5c-0.4-1.1-0.8-2.1-1.3-3.2
					c-0.6-1.4-1.5-3-3.1-3.2c-1.8-0.1-3.2,1.6-4.4,2.9c-1.3,1.3-2.3,2.7-3.4,4.1c-1-2.2-2.5-4.3-4.3-6.2c-0.2-0.2-0.7-0.3-0.9,0
					c-3.6,4-6.2,8.9-7.5,14.1c-0.8-1-1.8-1.8-2.7-2.7c-3.9-3.4-8.5-5.5-13.6-5.4c-0.3,0-0.5,0.2-0.6,0.5c-1,3.5-1.7,7.1-1.8,10.7
					c-0.2-0.1-0.4-0.2-0.6-0.2c-0.5-0.5-1.2-1-1.9-1.1c-0.2,0-0.3,0-0.5,0c-0.4-0.2-0.9-0.4-1.4-0.6c-0.3-0.1-0.9-0.1-1,0.4
					s-0.1,1.1-0.2,1.6l0,0c-0.9-0.2-1.8-0.3-2.7-0.3c1.8-5,1.9-10.6,0.6-15.9c-0.5-2.1-1.3-4.2-2.2-6.3c-0.6-1.4-1.5-3-3.1-3.2
					c-1.8-0.1-3.2,1.6-4.4,2.9c-1.3,1.3-2.3,2.7-3.4,4.1c-1-2.2-2.5-4.3-4.3-6.2c-0.2-0.2-0.7-0.3-0.9,0c-3.6,4-6.2,8.9-7.5,14.1
					c-0.8-1-1.8-1.8-2.7-2.7c-3.9-3.4-8.5-5.5-13.6-5.4c-0.3,0-0.5,0.2-0.6,0.5c-1,3.5-1.7,7.1-1.8,10.7c-1.5-0.6-2.9-1.3-4.4-1.9
					c-0.3-0.1-0.9-0.1-1,0.4c-0.9,5.5,1.6,10.5,5.3,14.1c-3.2,0.4-6.5,1.4-9.4,2.8c-0.6,0.3-0.3,1.1,0.2,1.3
					c1.7,0.6,3.4,1.4,4.9,2.2c-0.9,1.2-1.7,2.4-2.4,3.7c-0.9,0.8-1.9,1.9-2.6,3.1c-0.1,0.2-0.1,0.5,0,0.7s0.3,0.5,0.4,0.7
					c-0.5,1.3-0.9,2.5-1.3,3.8c-0.8-1-1.8-1.8-2.7-2.7c-3.9-3.4-8.5-5.5-13.6-5.4c-0.3,0-0.5,0.2-0.6,0.5c-1,3.5-1.7,7.1-1.8,10.7
					c-1.5-0.6-2.9-1.3-4.4-1.9c-0.3-0.1-0.9-0.1-1,0.4c-0.7,4.2,0.6,8.3,3,11.5c-0.1,1.1-0.2,2-0.1,3.1c-2.4,0.5-4.8,1.3-7,2.3
					c-0.6,0.3-0.3,1.1,0.2,1.3c2.3,0.8,4.5,2,6.7,3.2c-1.7,0.7-3.1,1.7-4.5,3c-0.5,0-1-0.1-1.6,0c-0.3,0-0.5,0.2-0.6,0.5
					c-1,3.5-1.7,7.1-1.8,10.7c-1.5-0.6-2.9-1.3-4.4-1.9c-0.3-0.1-0.9-0.1-1,0.4c-0.5,3,0,5.8,1.2,8.5c-0.7,0.5-1.5,1.4-2,1.9
					c-1.3,1.3-2.3,2.7-3.4,4.1c-1-2.2-2.5-4.3-4.3-6.2c-0.2-0.2-0.7-0.3-0.9,0c-2.2,2.4-3.9,5.1-5.3,8.1c-0.1-0.1-0.1-0.2-0.2-0.4
					c-0.6-1.4-1.5-3-3.1-3.2c-1.8-0.1-3.2,1.6-4.4,2.9c-0.4,0.4-0.8,0.8-1.2,1.4c-1.7-1-3.6-1.7-5.4-2.1c-0.3-0.4-0.7-0.8-1-1.2
					c-0.2-0.2-0.7-0.3-0.9,0c-0.2,0.2-0.4,0.5-0.6,0.7c-0.5,0-1-0.1-1.6,0c-0.3,0-0.5,0.2-0.6,0.5c-0.4,1.4-0.7,2.9-1,4.2
					c-1,1.8-2,3.7-2.6,5.6c-0.8-0.3-1.7-0.7-2.5-1.1c-0.3-0.1-0.9-0.1-1,0.4c-0.1,0.3-0.1,0.6-0.1,1l0,0c-3.9-3.4-8.5-5.5-13.6-5.4
					c-0.3,0-0.5,0.2-0.6,0.5c-1,3.5-1.7,7.1-1.8,10.7c-1.5-0.6-2.9-1.3-4.4-1.9c-0.3-0.1-0.9-0.1-1,0.4c-0.9,5.5,1.6,10.5,5.3,14.1
					c-3.2,0.4-6.5,1.4-9.4,2.8c-0.6,0.3-0.3,1.1,0.2,1.3c0.8,0.3,1.8,0.7,2.6,1.1c-1.2-0.2-2.2-0.3-3.4-0.2c-0.3,0-0.5,0.2-0.6,0.5
					c-1,3.5-1.7,7.1-1.8,10.7c-1.5-0.6-2.9-1.3-4.4-1.9c-0.3-0.1-0.9-0.1-1,0.4c-0.9,5.5,1.5,10.4,5.2,14.1l-0.1,0.1
					c-1.3,0.2-2.5,0.4-3.7,0.7c-0.8-1.4-1.9-2.7-3-3.8c-0.2-0.2-0.7-0.3-0.9,0c-3.6,4-6.2,8.9-7.5,14.1c-0.8-1-1.8-1.8-2.7-2.7
					c-3.9-3.4-8.5-5.5-13.6-5.4c-0.3,0-0.5,0.2-0.6,0.5c-1,3.5-1.7,7.1-1.8,10.7c-1.5-0.6-2.9-1.3-4.4-1.9c-0.3-0.1-0.9-0.1-1,0.4
					c-0.9,5.5,1.6,10.5,5.3,14.1c-1,0.1-2.1,0.3-3,0.6c-1.8-0.5-3.8-0.8-5.8-0.8c-0.3,0-0.5,0.2-0.6,0.5c-1,3.5-1.7,7.1-1.8,10.7
					c-1.5-0.6-2.9-1.3-4.4-1.9c-0.3-0.1-0.9-0.1-1,0.4c-0.6,3.7,0.3,7.3,2.2,10.3c-0.3,1-0.7,2-0.9,3c-0.8-1-1.8-1.8-2.7-2.7
					c-3-2.7-6.6-4.6-10.5-5.2c0-2.2-0.3-4.6-0.8-6.7s-1.3-4.2-2.2-6.3c-0.6-1.4-1.5-3-3.1-3.2c-1.8-0.1-3.2,1.6-4.4,2.9
					c-1.3,1.3-2.3,2.7-3.4,4.1c-1-2.2-2.5-4.3-4.3-6.2c-0.2-0.2-0.7-0.3-0.9,0c-3.6,4-6.2,8.9-7.5,14.1c-0.8-1-1.8-1.8-2.7-2.7
					c-3.9-3.4-8.5-5.5-13.6-5.4c-0.3,0-0.5,0.2-0.6,0.5c-1,3.5-1.7,7.1-1.8,10.7c-1.5-0.6-2.9-1.3-4.4-1.9c-0.3-0.1-0.9-0.1-1,0.4
					c-0.9,5.5,1.6,10.5,5.3,14.1c-3.2,0.4-6.5,1.4-9.4,2.8c-0.6,0.3-0.3,1.1,0.2,1.3c2.3,0.8,4.5,2,6.7,3.2
					c-2.8,1.2-5.1,3.2-6.8,5.8c-0.1,0.2-0.1,0.5,0,0.7c1.2,2.2,2.8,4.1,4.8,5.7c-0.3,0-0.6,0.1-0.7,0.5c-0.9,5.5,1.6,10.5,5.3,14.1
					c-3.2,0.4-6.5,1.4-9.4,2.8c-0.6,0.3-0.3,1.1,0.2,1.3c2.3,0.8,4.5,2,6.7,3.2c-2.8,1.2-5.1,3.2-6.8,5.8c-0.1,0.2-0.1,0.5,0,0.7
					c2.9,5.4,8.4,9.1,14.3,10.1c4.2,0.6,8.1-0.3,11.2-2.4c0,0.3-0.1,0.6-0.1,0.8c-2.5,0.5-4.9,1.3-7.2,2.4c-0.6,0.3-0.3,1.1,0.2,1.3
					c2.3,0.8,4.5,2,6.7,3.2c-2.8,1.2-5.1,3.2-6.8,5.8c-0.1,0.2-0.1,0.5,0,0.7c0.9,1.8,2.2,3.3,3.6,4.7c-1.8,4.9-3.1,10-4.1,15.5
					c-7.3,53-24.1,114.5,14.7,159.1c8.6,8.7,20.5,11.7,30.4,18.2c63.6-11.2,130.1-17.4,188.8-44.6c56.8-26.3,94-83.2,188.7-50.4
					c5.2,1.8,10.9-2.9,15.6-5.8c21.3-13.1,17.2-44.5,19.1-69.8c2.5-34,20.5-63.2,41.1-89.2c16.9-21.3,56.9-41,61.5-69.2
					c1.7-10.3-9.1-21.8-21.4-32.1c0-1.5,0-3-0.2-4.5c3.2,2.2,7.1,3.1,11.2,2.4c6-1,11.5-4.7,14.3-10.1c0.1-0.2,0.1-0.5,0-0.7
					c-1.7-2.7-4-4.6-6.8-5.8c2.2-1.3,4.4-2.3,6.7-3.2C641.7,881.5,642,880.7,641.3,880.4z M417.5,741.9c-0.9,0.8-1.9,1.7-2.7,2.7
					c-0.8-3.1-2.1-6-3.7-8.8c1.8,2,3.9,3.8,6.4,5c0.3,0.1,0.6,0.3,0.9,0.4C418.1,741.5,417.8,741.7,417.5,741.9z"/>
				
					<linearGradient id="XMLID_15_" gradientUnits="userSpaceOnUse" x1="937.9877" y1="-176.815" x2="937.9877" y2="334.9417" gradientTransform="matrix(1 0 0 -1 0 981.3228)">
					<stop  offset="0" style="stop-color:#F3BAB4"/>
					<stop  offset="1" style="stop-color:#E6716D"/>
				</linearGradient>
				<path id="XMLID_66_" class="st8" d="M1462,748.4c-4.3-17.5,0.2-35.7,2.8-53.6c2.6-17.8,2.8-37.6-8.1-52
					c-6.7-8.7-18.9-12.9-29.2-11.3c0-0.4,0-0.8,0-1.3c2.8-2.4,4.9-5.4,5.8-9.2c3-0.2,6.2-1.1,8.9-2.5c0.4-0.2,0.5-0.8,0.1-1.2
					c-1.5-1.1-2.7-2.3-3.9-3.6c1.3-0.4,2.5-0.8,3.9-1.3c0.5-0.2,0.7-0.7,0.4-1.2c-1.3-1.6-2.8-2.9-4.5-3.9c1.4-0.4,2.7-1,4.1-1.7
					c0.4-0.2,0.5-0.8,0.1-1.2c-1.5-1.1-2.7-2.3-3.9-3.6c1.3-0.4,2.5-0.8,3.9-1.3c0.5-0.2,0.7-0.7,0.4-1.2c-1.3-1.6-2.8-2.9-4.5-3.8
					c0.5-1.3,0.9-2.7,1.2-4.1c0-0.3-0.3-0.7-0.6-0.7c-1.9,0.1-3.9,0.1-5.8,0.2c0.4-0.8,0.7-1.8,1.2-2.7c2.6-2.4,4.6-5.5,5.2-9.5
					c0-0.3-0.3-0.7-0.6-0.7c-1.9,0.1-3.9,0.1-5.8,0.2c0.7-1.6,1.5-3.3,2.2-4.9c0.2-0.4-0.2-0.8-0.6-1c-7.1-0.3-14,3-18.5,8.4
					c-0.3-1.7-0.7-3.4-1.4-5s-1.5-3.1-2.4-4.5c-0.8-1.3-1.9-2.9-3.4-3.5c-3.4-1.3-5.2,2.1-6.1,4.9c-1.6-1.5-3.2-2.7-5.2-3.5
					c-0.4-0.2-0.9,0.2-0.9,0.6c0.1,4,0.4,8.4,1.5,12.4c-0.2-0.1-0.3-0.2-0.5-0.3c-0.4-0.2-0.9,0.2-0.9,0.6c0.2,4.1,0.4,8.7,1.6,12.9
					c-1.4,0.8-2.6,1.8-3.8,3.1c-2.6,3.1-3.8,7.3-2.4,11.1c0.1,0.2,0.3,0.3,0.5,0.4c0.8,0.1,1.8,0.3,2.6,0.4
					c-0.3,0.2-0.5,0.5-0.8,0.8c-0.5,0.6-0.9,1.3-1.4,1.9c-0.5-0.3-1.2-0.6-1.7-0.8c-0.4-0.2-0.9,0.2-0.8,0.6
					c0.6,8.2,1.7,17.9,8.8,22.9c-3.8,1.1-7.4,2.8-9.9,5.9c-2.4,3-3.5,7-2.2,10.6c-0.7,0.6-1.5,1.4-2.1,2.1c-0.1-0.5-0.2-1.2-0.3-1.7
					c0.4-0.2,0.9-0.4,1.4-0.6c0.4-0.2,0.5-0.8,0.1-1.2c-1.2-0.8-2.1-1.8-3-2.8c-0.1-0.3-0.3-0.6-0.5-1c1.2-0.4,2.3-0.7,3.6-1.2
					c0.5-0.2,0.7-0.7,0.4-1.2c-3.7-4.5-9.3-6.8-15-6.8c2.1-1.1,4.1-2.3,5.9-3.9c2.9-0.2,5.9-1.1,8.6-2.5c0.4-0.2,0.5-0.8,0.1-1.2
					c-1.4-1.1-2.5-2.1-3.7-3.4c0-0.1,0.1-0.2,0.1-0.3c1.2-0.4,2.4-0.7,3.6-1.2c0.5-0.2,0.7-0.7,0.4-1.2c-2.1-2.4-4.7-4.2-7.6-5.4
					c0.1-0.1,0.1-0.2,0.2-0.3c0.2-0.4-0.2-0.8-0.6-1c-1.4-0.1-2.6,0-3.9,0.2c-0.9-0.1-2-0.2-2.9-0.2c5.7-3,10.7-7.1,11.6-14
					c0-0.3-0.3-0.7-0.6-0.7c-1.9,0.1-3.9,0.1-5.8,0.2c0.7-1.6,1.5-3.3,2.2-4.9c0.2-0.4-0.2-0.8-0.6-1c-5.8-0.3-11.5,1.8-15.8,5.6
					c0.4-1.1,0.9-2.1,1.4-3.2c0.2-0.4-0.2-0.8-0.6-1c-1.9-0.1-3.8,0.1-5.7,0.4c-0.5-1.1-1-2-1.8-3c-0.8-1.3-1.9-2.9-3.4-3.5
					c-3.4-1.3-5.2,2.1-6.1,4.9c-1.6-1.5-3.2-2.7-5.2-3.5c-0.4-0.2-0.9,0.2-0.9,0.6c0,0.7,0.1,1.5,0.1,2.3c-0.7-1.2-1.8-2.3-2.9-2.9
					c-3.4-1.3-5.2,2.1-6.1,4.9c-1.6-1.5-3.2-2.7-5.2-3.5c-0.4-0.2-0.9,0.2-0.9,0.6c0.3,8.2,1,17.9,8.1,23.2c-3.8,1-7.5,2.5-10.2,5.5
					c-2.6,3.1-3.8,7.3-2.4,11.1c0.1,0.2,0.3,0.3,0.5,0.4c1.3,0.2,2.5,0.4,3.8,0.6c-0.6,0.5-1.3,1.1-1.9,1.5c-0.4,0.3-0.2,1,0.2,1.2
					c5.2,1.9,11.1,0.3,14.9-3.6c0,0.3-0.1,0.6-0.1,1l0,0c-0.3,0.2-0.3,0.7,0,1c0,1.7,0.2,3.3,0.7,5c-0.3,0.2-0.5,0.5-0.7,0.8
					c-2.6,3.1-3.8,7.3-2.4,11.1c0.1,0.2,0.3,0.3,0.5,0.4c1.3,0.2,2.5,0.4,3.8,0.6c-0.6,0.5-1.3,1.1-1.9,1.5c-0.4,0.3-0.2,1,0.2,1.2
					c5.2,1.9,11.1,0.3,14.9-3.6c-1,7.1,3.4,14.7,10.2,17l-0.1,0.1c-1.5,1.7-2.4,3.7-2.8,5.8c-0.5-0.6-0.9-1.5-0.8-2.3
					c0.1-0.7-0.9-1.2-1.3-0.4c-0.3,0.5-0.5,1.2-0.8,1.7c-0.9-2.2-2.4-4.2-4.4-5.7c-0.4-0.3-1.2,0-1.2,0.6c0.2,1.4-0.8,2.9-2.3,3
					c-1.7,0.1-2.9-1.6-2.8-3.2c0.1-0.7-0.9-1.2-1.3-0.4c-1.8,3.8-3.7,8.3-3.7,12.5c-0.9-2.2-2.4-4.2-4.4-5.7c-0.4-0.3-1.2,0-1.2,0.6
					c0.2,1.4-0.8,2.9-2.3,3c-1.7,0.1-2.9-1.6-2.8-3.2c0.1-0.7-0.9-1.2-1.3-0.4c-0.5,1.2-1.2,2.4-1.7,3.8c-0.9,0-1.9,0-2.9,0.1
					c-0.5,0.1-0.7,0.6-0.5,1.1c0.7,1.2,1.4,2.4,1.9,3.7c-0.1,0.3-0.1,0.7-0.2,1.1c-1.2-0.1-2.3-0.1-3.5-0.2c-0.3,0-0.6,0.2-0.7,0.5
					c-0.1-0.2-0.3-0.5-0.6-0.5c-2.7-0.1-5.4,0.3-8,1.2c-1.3-0.1-2.6-0.1-4,0.1c-0.5,0.1-0.7,0.6-0.5,1.1c0.1,0.2,0.2,0.4,0.4,0.6
					c-1,0.6-2.1,1.3-3.1,2.1c-1.5-0.1-2.9-0.3-4.4-0.4c-0.1-0.4-0.3-0.7-0.4-1.2c-0.6-1.6-1.5-3.1-2.4-4.5c-0.8-1.3-1.9-2.9-3.4-3.5
					c-3.4-1.3-5.2,2.1-6.1,4.9c-0.8-0.7-1.8-1.5-2.7-2.1c-0.1-3-0.7-5.9-2.4-8.7c3.9,0.5,8,0.4,11.4-1.4c3.6-1.9,6.2-5.4,6.2-9.5
					c0-0.2-0.2-0.4-0.4-0.5c-1-0.6-2.2-1.3-3.2-2c0.7-0.2,1.6-0.5,2.3-0.7c0.5-0.1,0.5-0.8,0.2-1.2c-4.2-3.7-10.3-4.3-15.2-2.1
					c3.6-6.4,2.1-15.5-3.8-19.9c-0.4-0.3-1.2,0-1.2,0.6c0.2,1.4-0.8,2.9-2.3,3c-1.7,0.1-2.9-1.6-2.8-3.2c0.1-0.7-0.9-1.2-1.3-0.4
					c-2.2,4.8-4.7,10.6-3.2,15.8c-4.7-3.8-10.8-5.6-16.9-5c-0.5,0.1-0.7,0.6-0.5,1.1c0.9,1.5,1.7,3.1,2.3,4.8
					c-1.4-0.1-2.7-0.1-4.1-0.2c-0.5,0-0.9,0.4-0.7,1c1.9,5.5,6.3,9.8,11.5,11.8c-2.9,0.3-5.8,1-8.4,2.1c-1.4-2.1-2.5-4.5-3.2-6.9
					c-6,12.1-21.3,11.8-35.8,12.4c-0.1-0.1-0.3-0.3-0.4-0.4c1.3-0.4,2.5-0.8,3.9-1.3c0.5-0.2,0.7-0.7,0.4-1.2
					c-0.2-0.3-0.5-0.5-0.7-0.8c3.1-0.1,6.3-0.8,9.2-1.9c2-0.7,4-1.8,5.9-3c1.3-0.7,2.7-1.9,2.6-3.6c-0.1-1.8-2-3.1-3.4-4
					c-1.5-1.1-2.9-2-4.5-2.9c2.1-1.4,3.9-3.1,5.4-5.1c0.2-0.3,0.2-0.7-0.1-1c-4.4-3.1-9.5-5.1-14.8-5.8c0.8-1,1.6-2,2.3-3.1
					c2.8-4.2,4.4-9.2,3.6-14.4c0-0.3-0.3-0.5-0.6-0.6c-3.6-0.6-7.1-0.7-10.8-0.4c0.4-1.6,0.8-3.1,1.3-4.7c0.1-0.4,0-1-0.5-1
					c-5.6-0.2-10.1,2.9-13.2,7.2c-0.8-3.2-12.3-5-13.9-7.8c-0.3-0.5,8.9-1.5,8.8-1.1c-0.6,2.4-1.4,4.8-2.3,7.1
					c-1.6-2.7-3.8-4.8-6.5-6.2c-0.2-0.1-0.5,0-0.7,0.1c-4.9,3.6-7.9,9.6-8.1,15.7c-0.1,2.9,0.6,5.6,1.8,8c-0.4,0.7-0.6,1.5-0.8,2.2
					c-1.6-1.5-3.2-2.7-5.2-3.5c-0.4-0.2-0.9,0.2-0.9,0.6c0.1,1.7,0.1,3.5,0.3,5.2c-2.1,0.7-4.1,1.8-5.9,3.1c-0.3,0.2-0.3,0.8,0,1.1
					c1.3,0.8,2.5,1.6,3.9,2.1c-1,1.2-2,2.4-2.7,3.7c-0.2,0.1-0.4,0.2-0.6,0.3c-0.4,0.2-0.5,0.7-0.3,1.1c0.1,0.1,0.1,0.1,0.2,0.2
					c-0.6,1.5-1.2,3-1.4,4.6c-1.8-6.3-4.8-12-11.2-14.3c-0.3-0.1-0.7,0.1-0.8,0.5c-0.3,1.9-0.6,3.8-0.9,5.7
					c-1.5-1.1-2.9-2.1-4.3-3.1c-0.3-0.2-0.9,0-1,0.4c-0.6,2.5-0.8,5.2-0.5,7.7c-1.7,0.5-3.4,1.1-5.1,1.6c-3.9-0.7-8-1.1-11.3,0.6
					c2.9-5.4,3.7-11.8,1.9-17.7c-0.1-0.5-0.7-0.6-1.2-0.3c-1.4,1.2-2.7,2.2-4.3,3.1c-0.2-1.4-0.3-2.8-0.5-4c-0.1-0.5-0.5-0.8-1-0.6
					c-5,2.8-8.5,8-9.4,13.6c-1.8-6.3-4.8-12-11.2-14.3c-0.3-0.1-0.7,0.1-0.8,0.5c-0.3,1.9-0.6,3.8-0.9,5.7c-1.5-1.1-2.9-2.1-4.3-3.1
					c-0.3-0.2-0.9,0-1,0.4c-1.6,6.3-0.2,13,3.2,18.3c-0.2,0.5-0.4,1.2-0.6,1.8c-0.4,0-0.8,0.1-1.3,0.1c-1.9-5.3-4.9-10.1-10.6-12.1
					c-0.3-0.1-0.7,0.1-0.8,0.5c-0.3,1.9-0.6,3.8-0.9,5.7c-0.1,0-0.1-0.1-0.2-0.1c-0.1-1.2-0.3-2.3-0.7-3.4c-0.1-0.5-0.7-0.6-1.2-0.3
					c-0.5,0.4-1,0.8-1.6,1.3c-0.3-0.2-0.5-0.4-0.8-0.5c-0.3-0.2-0.9,0-1,0.4c-0.1,0.5-0.2,1.1-0.3,1.6c-0.2,0.1-0.4,0.2-0.6,0.3
					c-0.2-1.4-0.3-2.8-0.5-4c-0.1-0.5-0.5-0.8-1-0.6c-5,2.8-8.5,8-9.4,13.6c-1.8-6.3-4.8-12-11.2-14.3c-0.3-0.1-0.7,0.1-0.8,0.5
					c-0.3,1.9-0.6,3.8-0.9,5.7c-1.5-1.1-2.9-2.1-4.3-3.1c-0.3-0.2-0.9,0-1,0.4c-1.8,7,0.1,14.5,4.4,20c-1.7,0-3.5,0.1-5.1,0.4
					c-1.7,0.3-3.2,0.8-4.8,1.5c-1.4,0.6-3.1,1.4-4,2.7c-1.3,1.9-0.5,3.6,0.8,5c-0.6,0-1.2,0-1.8,0c-1.6-0.1-3.1-0.1-4.7-0.2
					c0.7-3.7,0.6-7.5-0.4-11.1c-0.1-0.5-0.7-0.6-1.2-0.3c-1.4,1.2-2.7,2.2-4.3,3.1c-0.2-1.4-0.3-2.8-0.5-4c-0.1-0.5-0.5-0.8-1-0.6
					c-3.8,2.1-6.7,5.5-8.3,9.5c0,0,0,0-0.1-0.1c-1.3-0.8-2.5-1.7-3.8-2.7c-0.3-0.5-0.6-1-0.9-1.5c1-0.6,2-1.3,3-1.9
					c0.4-0.3,0.4-0.8,0-1.2c-3.7-2.7-8.1-4.1-12.5-4.5c1.8-5,1.9-10.6,0.6-15.9c-0.5-2.1-1.3-4.2-2.2-6.3c-0.6-1.4-1.5-3-3.1-3.2
					c-1.8-0.1-3.2,1.6-4.4,2.9c-1.3,1.3-2.3,2.7-3.4,4.1c-1-2.2-2.5-4.3-4.3-6.2c-0.2-0.2-0.7-0.3-0.9,0c-2.1,2.3-3.9,5-5.2,7.8
					c0-2-0.3-3.9-0.8-5.9c-0.1-0.5-0.7-0.6-1.2-0.3c-1.4,1.2-2.7,2.2-4.3,3.1c-0.2-1.4-0.3-2.8-0.5-4c-0.1-0.5-0.5-0.8-1-0.6
					c-2.7,1.5-5,3.8-6.7,6.5c-1.4-0.3-2.7-0.4-4.2-0.4c-0.3,0-0.5,0.2-0.6,0.5c-0.1,0.3-0.2,0.6-0.2,1c-1.9-3.7-4.7-6.7-8.9-8.3
					c-0.3-0.1-0.7,0.1-0.8,0.5c-0.3,1.9-0.6,3.8-0.9,5.7c-1.5-1.1-2.9-2.1-4.3-3.1c-0.3-0.2-0.9,0-1,0.4c-1.8,7,0.1,14.5,4.4,20
					c-1.7,0-3.5,0.1-5.1,0.4c-1.7,0.3-3.2,0.8-4.8,1.5c-1.4,0.6-3.1,1.4-4,2.7c-1.9,3.1,1,5.6,3.6,7c-1.7,1.3-3.1,2.8-4.4,4.5
					c-0.2,0.3,0,1,0.4,1.1c5.6,1,11.9,1.8,17.5,0.2c-0.9,0.8-1.8,1.8-2.5,3c-0.1,0.2-0.1,0.5,0,0.7c1.5,2.7,3.6,5,6.1,6.7
					c-3.7,6.3-6.4,13-8.1,20.1c-1.9-3.5-4.6-6.5-8.8-8c-0.3-0.1-0.7,0.1-0.8,0.5c-0.3,1.9-0.6,3.8-0.9,5.7c-0.1-0.1-0.2-0.2-0.3-0.2
					c0.6-3.6,0.5-7.3-0.5-10.8c-0.1-0.5-0.7-0.6-1.2-0.3c-1.4,1.2-2.7,2.2-4.3,3.1c-0.2-1.4-0.3-2.8-0.5-4c-0.1-0.5-0.5-0.8-1-0.6
					c-5,2.8-8.5,8-9.4,13.6c-1.8-6.3-4.8-12-11.2-14.3c-0.3-0.1-0.7,0.1-0.8,0.5c-0.3,1.9-0.6,3.8-0.9,5.7c-1.5-1.1-2.9-2.1-4.3-3.1
					c-0.3-0.2-0.9,0-1,0.4c-1.8,7,0.1,14.5,4.4,20c-1.7,0-3.5,0.1-5.1,0.4c-1.7,0.3-3.2,0.8-4.8,1.5c-1.4,0.6-3.1,1.4-4,2.7
					c-1.9,3.1,1,5.6,3.6,7c-0.8,0.6-1.7,1.3-2.4,2c-0.2,0-0.5,0-0.7,0c-0.1-0.6-0.1-1.2-0.2-1.8c-0.1-0.5-0.5-0.8-1-0.6
					c-5,2.8-8.5,8-9.4,13.6c-1.8-6.3-4.8-12-11.2-14.3c-0.3-0.1-0.7,0.1-0.8,0.5c-0.3,1.9-0.6,3.8-0.9,5.7c-1.5-1.1-2.9-2.1-4.3-3.1
					c-0.3-0.2-0.9,0-1,0.4c-1.8,7,0.1,14.5,4.4,20c-1.7,0-3.5,0.1-5.1,0.4c-1.7,0.3-3.2,0.8-4.8,1.5c-1.4,0.6-3.1,1.4-4,2.7
					c-1.9,3,0.8,5.4,3.4,6.9c0,0.1,0,0.2,0,0.3c-1.6,1.2-3,2.7-4.2,4.3c-0.2,0.3,0,1,0.4,1.1c0.5,0.1,1,0.2,1.5,0.2
					c-0.6,0.6-1.4,1.3-2,2c-0.5-0.1-1.2-0.1-1.7-0.2c1.8-5,1.9-10.6,0.6-15.9c-0.5-2.1-1.3-4.2-2.2-6.3c-0.6-1.4-1.5-3-3.1-3.2
					c-1.8-0.1-3.2,1.6-4.4,2.9c-1.3,1.3-2.3,2.7-3.4,4.1c-1-2.2-2.5-4.3-4.3-6.2c-0.2-0.2-0.7-0.3-0.9,0c-2.3,2.7-4.2,5.5-5.7,8.7
					c-0.6-0.4-1.3-1-2-1.4c1.3-0.7,2.4-1.5,3.7-2.3c0.4-0.3,0.4-0.8,0-1.2c-3.7-2.7-8.1-4.1-12.5-4.5c1.8-5,1.9-10.6,0.6-15.9
					c-0.5-2.1-1.3-4.2-2.2-6.3c-0.6-1.4-1.5-3-3.1-3.2c-1.8-0.1-3.2,1.6-4.4,2.9c-1.3,1.3-2.3,2.7-3.4,4.1c-1-2.2-2.5-4.3-4.3-6.2
					c-0.2-0.2-0.7-0.3-0.9,0c-3.6,4-6.2,8.9-7.5,14.1c-0.8-1-1.8-1.8-2.7-2.7c-3.9-3.4-8.5-5.5-13.6-5.4c-0.3,0-0.5,0.2-0.6,0.5
					c-1,3.5-1.7,7.1-1.8,10.7c-1.5-0.6-2.9-1.3-4.4-1.9c-0.3-0.1-0.9-0.1-1,0.4c-0.9,5.5,1.6,10.5,5.3,14.1
					c-3.2,0.4-6.5,1.4-9.4,2.8c-0.6,0.3-0.3,1.1,0.2,1.3c2.3,0.8,4.5,2,6.7,3.2c-2.8,1.2-5.1,3.2-6.8,5.8c-0.1,0.2-0.1,0.5,0,0.7
					c2.9,5.4,8.4,9.1,14.3,10.1c4.2,0.6,8.1-0.3,11.2-2.4c-0.3,2.3-0.3,4.6,0,6.9c-1.3-1.1-2.7-1.9-4.5-2.5
					c-0.3-0.1-0.7,0.1-0.8,0.5c-0.3,1.9-0.6,3.8-0.9,5.7c-1.5-1.1-2.9-2.1-4.3-3.1c-0.3-0.2-0.9,0-1,0.4c-0.2,0.7-0.3,1.5-0.4,2.2
					c-0.5-0.5-1-1-1.6-1.5c-0.4-0.3-1.2,0-1.2,0.6c0.2,1.4-0.8,2.9-2.3,3c-1.7,0.1-2.9-1.6-2.8-3.2c0.1-0.7-0.9-1.2-1.3-0.4
					c-2.2,4.8-4.7,10.6-3.2,15.8c-4.7-3.8-10.8-5.6-16.9-5c-0.5,0.1-0.7,0.6-0.5,1.1c0.9,1.5,1.7,3.1,2.3,4.8
					c-1.4-0.1-2.7-0.1-4.1-0.2c-0.5,0-0.9,0.4-0.7,1c0.9,2.9,2.6,5.4,4.7,7.4c-1.9,2.4-3.5,5.2-4.6,8.1c-1,0.7-2,1.6-2.9,2.7
					c-0.4-0.4-0.8-0.7-1.3-1.2c-3.1-2.8-6.9-4.8-11-5.3c0.3-5-1.7-10.1-5.8-13.1c-0.4-0.3-1.2,0-1.2,0.6c0.2,1.4-0.8,2.9-2.3,3
					c-1.7,0.1-2.9-1.6-2.8-3.2c0.1-0.7-0.9-1.2-1.3-0.4c-2.2,4.8-4.7,10.6-3.2,15.8c-4.7-3.8-10.8-5.6-16.9-5
					c-0.5,0.1-0.7,0.6-0.5,1.1c0.9,1.5,1.7,3.1,2.3,4.8c-1.4-0.1-2.7-0.1-4.1-0.2c-0.5,0-0.9,0.4-0.7,1c1.9,5.5,6.3,9.8,11.5,11.8
					c-6.4,0.6-12.5,2.8-15.9,8.8c-0.2,0.3,0,0.8,0.3,1c1.8,0.6,3.6,1.3,5.4,1.9c-1.3,1.3-2.5,2.5-3.8,3.8c-0.3,0.3-0.1,1,0.2,1.1
					c5.1,2.3,11,2.4,16.2,0.7c0.5,1,1.2,1.9,1.9,2.9c-1.7,0-3.5,0.1-5.1,0.4c-1.7,0.3-3.2,0.8-4.8,1.5c-1.4,0.6-3.1,1.4-4,2.7
					c-1.9,3.1,1,5.6,3.6,7c-1.7,1.3-3.1,2.8-4.4,4.5c-0.2,0.3,0,1,0.4,1.1c8.1,1.3,17.6,2.4,24.1-3.4c0,1,0.1,2,0.2,3
					c-16.4,6.9-41.2,5.4-42.9,22.7c-0.6,6-5.9,9.2-11.8,9.6c0.4-3.2,0.2-6.4-0.7-9.5c-0.1-0.5-0.7-0.6-1.2-0.3
					c-1.4,1.2-2.7,2.2-4.3,3.1c-0.2-1.4-0.3-2.8-0.5-4c-0.1-0.5-0.5-0.8-1-0.6c-2.9,1.6-5.2,4-6.9,6.8c-0.3-0.3-0.6-0.6-0.9-1
					c-3-3.2-5.2-7-7.1-10.9c0.7-2.2,1.3-4.6,1.3-6.9c0-0.6,0-1.4,0-2c4.2,0.6,8.5,0,12.4-2c3.4-1.7,6.2-4.2,8.2-7.4
					c0.2-0.3,0-0.7-0.2-1c-1.8-1.3-3.6-2.4-5.2-3.7c1.3-0.7,2.4-1.5,3.7-2.3c0.4-0.3,0.4-0.8,0-1.2c-3.7-2.7-8.1-4.1-12.5-4.5
					c1.8-5,1.9-10.6,0.6-15.9c-0.5-2.1-1.3-4.2-2.2-6.3c-0.6-1.4-1.5-3-3.1-3.2c-1.8-0.1-3.2,1.6-4.4,2.9c-1.3,1.3-2.3,2.7-3.4,4.1
					c-1-2.2-2.5-4.3-4.3-6.2c-0.2-0.2-0.7-0.3-0.9,0c-0.7,0.7-1.4,1.6-2,2.4c0-0.2-0.1-0.4-0.3-0.5c-1.8-1.3-3.6-2.4-5.2-3.7
					c1.3-0.7,2.4-1.5,3.7-2.3c0.4-0.3,0.4-0.8,0-1.2c-3.7-2.7-8.1-4.1-12.5-4.5c1.8-5,1.9-10.6,0.6-15.9c-0.5-2.1-1.3-4.2-2.2-6.3
					c-0.6-1.4-1.5-3-3.1-3.2c-1.8-0.1-3.2,1.6-4.4,2.9c-1.3,1.3-2.3,2.7-3.4,4.1c-1-2.2-2.5-4.3-4.3-6.2c-0.2-0.2-0.7-0.3-0.9,0
					c-3.6,4-6.2,8.9-7.5,14.1c-0.8-1-1.8-1.8-2.7-2.7c-3.9-3.4-8.5-5.5-13.6-5.4c-0.3,0-0.5,0.2-0.6,0.5c-1,3.5-1.7,7.1-1.8,10.7
					c-1.5-0.6-2.9-1.3-4.4-1.9c-0.3-0.1-0.9-0.1-1,0.4c-0.9,5.5,1.6,10.5,5.3,14.1c-3.2,0.4-6.5,1.4-9.4,2.8
					c-0.6,0.3-0.3,1.1,0.2,1.3c2.3,0.8,4.5,2,6.7,3.2c-2.8,1.2-5.1,3.2-6.8,5.8c-0.1,0.2-0.1,0.5,0,0.7c2,3.7,5.2,6.7,9.1,8.5
					c-0.7,0.8-1.5,1.8-2.2,2.8c-1-2.2-2.5-4.3-4.3-6.2c-0.2-0.2-0.7-0.3-0.9,0c-3.6,4-6.2,8.9-7.5,14.1c-0.8-1-1.8-1.8-2.7-2.7
					c-3.9-3.4-8.5-5.5-13.6-5.4c-0.3,0-0.5,0.2-0.6,0.5c-1,3.5-1.7,7.1-1.8,10.7c-1.5-0.6-2.9-1.3-4.4-1.9c-0.3-0.1-0.9-0.1-1,0.4
					c-0.9,5.5,1.6,10.5,5.3,14.1c-3.2,0.4-6.5,1.4-9.4,2.8c-0.6,0.3-0.3,1.1,0.2,1.3c2.3,0.8,4.5,2,6.7,3.2
					c-2.8,1.2-5.1,3.2-6.8,5.8c-0.1,0.2-0.1,0.5,0,0.7c2.9,5.4,8.4,9.1,14.3,10.1c4.2,0.6,8.1-0.3,11.2-2.4
					c-0.7,5.2,0.1,10.6,2.6,15.3c0.2,0.4,0.7,0.4,1,0.1c0.4-0.4,0.7-1,1.2-1.4c1.5,3,3.4,5.6,5.6,8.2c-1.9,2.4-3.1,5.3-3.7,8.4
					c-1.8-6.3-4.8-12-11.2-14.3c-0.3-0.1-0.7,0.1-0.8,0.5c-0.3,1.9-0.6,3.8-0.9,5.7c-1.5-1.1-2.9-2.1-4.3-3.1c-0.3-0.2-0.9,0-1,0.4
					c-0.4,1.7-0.6,3.5-0.6,5.3c-2.1,0.8-3.9,2.3-5,4.2c-0.3-3.9-1.4-7.7-4.7-10.2c-0.4-0.3-0.8,0-1,0.4c-0.4,1.2-0.8,2.4-1.8,3.2
					c-0.5,0.4-1,0.6-1.7,0.3c-0.5-0.2-1.3-1-0.7-1.6c0.4-0.4,0-1.4-0.6-1.2c-5.7,2.1-7.4,8.3-7.2,13.9c-0.2,0-0.4,0-0.6,0
					c-2.2,0.2-4.3,1-6.2,2c-0.7-2.4-3.1-4.5-5.6-3.8c0.1-0.6,0.3-1.3,0.4-2c0.1-0.4-0.2-0.8-0.6-0.8c-3.6-0.1-6.7,1.9-8.5,4.9
					c-0.3-3.9-1.4-7.7-4.7-10.2c-0.4-0.3-0.8,0-1,0.4c-0.4,1.2-0.8,2.4-1.8,3.2c-0.5,0.4-1,0.6-1.7,0.3c-0.5-0.2-1.3-1-0.7-1.6
					c0.4-0.4,0-1.4-0.6-1.2c-5.7,2.1-7.4,8.3-7.2,13.9c-0.2,0-0.4,0-0.6,0c-5.3,0.4-9.8,4-12.9,8.4c-0.2,0.2-0.1,0.6,0.1,0.8
					c1.9,1.7,3.8,3.3,5.6,5c-0.8,0.3-1.6,0.6-2.4,1c-0.4,0.2-0.7,0.7-0.3,1.2c4.4,4.3,11.3,4.9,16.4,1.8c-0.1,0.4-0.2,0.8-0.3,1.3
					c-4.6,2.9-9,5.9-13.4,9.2c-0.6-2.3-1.9-4.5-4-6c-0.4-0.3-0.8,0-1,0.4c-0.4,1.2-0.8,2.4-1.8,3.2c-0.5,0.4-1,0.6-1.7,0.3
					c-0.5-0.2-1.3-1-0.7-1.6c0.4-0.4,0-1.4-0.6-1.2c-5.3,2-7.2,7.7-7.2,13.1c-1-0.2-2.2-0.4-3.2-0.4c1.8-5,1.9-10.6,0.6-15.9
					c-0.5-2.1-1.3-4.2-2.2-6.3c-0.6-1.4-1.5-3-3.1-3.2c-1.8-0.1-3.2,1.6-4.4,2.9c-1.3,1.3-2.3,2.7-3.4,4.1c-1-2.2-2.5-4.3-4.3-6.2
					c-0.2-0.2-0.7-0.3-0.9,0c-3.6,4-6.2,8.9-7.5,14.1c-0.8-1-1.8-1.8-2.7-2.7c-3.9-3.4-8.5-5.5-13.6-5.4c-0.3,0-0.5,0.2-0.6,0.5
					c-1,3.5-1.7,7.1-1.8,10.7c-1.5-0.6-2.9-1.3-4.4-1.9c-0.3-0.1-0.9-0.1-1,0.4c-0.9,5.5,1.6,10.5,5.3,14.1
					c-3.2,0.4-6.5,1.4-9.4,2.8c-0.6,0.3-0.3,1.1,0.2,1.3c2.3,0.8,4.5,2,6.7,3.2c-2.8,1.2-5.1,3.2-6.8,5.8c-0.1,0.2-0.1,0.5,0,0.7
					c2.9,5.4,8.4,9.1,14.3,10.1c4.2,0.6,8.1-0.3,11.2-2.4c-0.2,1.5-0.2,3-0.2,4.5c-12.3,10.3-23,21.8-21.4,32.1
					c1,6.7,4.8,12.6,8.7,18.1c26.8,37.3,72.8,64.4,118.9,66.6c21.7,1.1,40.3-8.8,61.8-11.6c30.4-3.9,61.2-5.9,91.7-7.4
					c123.2-5.7,246.5,4.8,368.7,20.6c64.5,8.4,128.8,18.2,192.8,29.6c39.5,7,82.7,13.9,117.4-6.5c21.6-12.7,36.4-34.4,48.8-56.3
					C1472.6,988.6,1489.9,863.2,1462,748.4z M632.1,838.5c-1.6,2.8-2.8,5.7-3.7,8.8c-0.8-1-1.8-1.8-2.7-2.7
					c-0.3-0.2-0.5-0.4-0.8-0.7c0.3-0.1,0.6-0.2,0.9-0.4C628.1,842.2,630.3,840.5,632.1,838.5z M1366.1,666.8c1-0.5,2.1-0.1,2.9,0.6
					c-1.5,0.6-2.9,1.6-4.1,2.7C1364.4,668.9,1364.8,667.5,1366.1,666.8z M1373.7,665.9c-0.8,0.2-1.7,0.4-2.4,0.7
					c0-1,0.1-1.9,0.1-2.9C1372,664.4,1372.8,665.1,1373.7,665.9z M1322.8,687.8c0.4,1.2,0.8,2.2,1.5,3.3c-0.7-0.4-1.6-0.8-2.4-1.2
					C1322.2,689.2,1322.5,688.5,1322.8,687.8z M1020.8,687.2c-0.1,0-0.1,0-0.2,0c0.1-0.1,0.2-0.2,0.3-0.4
					C1020.9,686.9,1020.8,687,1020.8,687.2z M917.4,744.1c-0.6-0.2-1.2-0.5-1.8-0.7c0.7-0.3,1.5-0.7,2.1-1.2
					C917.6,742.9,917.4,743.5,917.4,744.1z M968.3,702.1c0.9,0.1,1.8,0.2,2.6,0.2c-0.7,1.1-1.5,2.2-2.1,3.5c-0.7-1.6-1.9-3-3.1-4.2
					C966.5,701.8,967.4,702,968.3,702.1z M785.2,810c-0.5,0-0.9,0-1.5,0.1c0.3-0.7,0.6-1.4,0.8-2.1c0.4,0.6,0.8,1.3,1.4,1.9
					C785.8,809.8,785.6,809.9,785.2,810z M802.2,794.8c-0.9,1.8-1.7,3.8-2,5.8c-0.4-1.7-1-3.3-1.8-4.9c0.8-1.2,1.6-2.4,2.2-3.8
					C801.2,792.9,801.7,793.9,802.2,794.8z M1186.7,686.8h0.1c0,0.1,0,0.2,0,0.3c-0.1,0.1-0.2,0.2-0.2,0.4
					C1186.7,687.3,1186.7,687,1186.7,686.8z"/>
				<path id="XMLID_46_" class="st9" d="M1248.3,839.1c0.7-1.1,1.5-2.1,2.2-3.2c0.4,0.7,0.9,1.5,1.4,2.2c0.2,0.3,0.5,0.2,0.7,0
					c1.6-2.2,2.4-4.9,2.6-7.5c2.9,1.1,6.2,1.2,9.3,0.4c1.3-0.3,2.5-0.7,3.7-1.3c0.8-0.3,1.8-0.8,1.9-1.9c0.1-1.1-0.9-2-1.7-2.7
					c-0.7-0.7-1.6-1.4-2.4-2c1.4-0.6,2.5-1.5,3.6-2.5c0.1-0.1,0.2-0.4,0-0.5c-2.4-2.2-5.2-3.7-8.3-4.6c0.5-0.5,1-1.1,1.6-1.6
					c2-2.3,3.2-5.1,3.2-8.2c0-0.2-0.1-0.3-0.3-0.4c-2.1-0.6-4.2-1.1-6.3-1.1c0.4-0.8,0.7-1.8,1.2-2.7c0.1-0.2,0-0.5-0.2-0.6
					c-3.2-0.5-6.2,0.8-8.3,3.2c-0.2-2-0.8-3.9-1.6-5.7c-0.2-0.3-0.6-0.2-0.7,0.1c-0.5,1.4-1.2,2.8-1.9,4c-0.7-1.7-1.9-3.1-3.4-4.1
					c-0.1-0.1-0.3-0.1-0.4,0c-3.1,1.7-5.3,5-6,8.6c-0.4,2.5,0.2,4.9,1.5,6.8c-3-0.4-6.2,0.1-9,1.6c-0.2,0.1-0.3,0.4-0.1,0.6
					c0.9,0.8,2,1.6,3.2,2.1c-1,0.6-2.2,1.2-3.4,1.6c-0.2,0.1-0.4,0.3-0.2,0.6c2.3,3.9,6.5,6.5,11,6.6c0.4,0,0.8,0,1.2,0
					c-0.4,2.5,0,5.1,1.2,7.4c0.9,2,2.5,3.7,4.4,4.9C1247.9,839.5,1248.2,839.4,1248.3,839.1z"/>
				<path id="XMLID_37_" class="st10" d="M922.2,864.4c-1-0.7-2-1.4-3-2.1c0.7-0.4,1.4-0.8,2.1-1.4c0.3-0.2,0.2-0.5,0-0.7
					c-2.2-1.5-4.7-2.3-7.2-2.5c1-3,1-6.2,0.3-9.2c-0.3-1.3-0.7-2.4-1.3-3.6c-0.3-0.7-0.8-1.7-1.8-1.8c-1-0.1-1.9,1-2.5,1.6
					c-0.7,0.7-1.4,1.6-2,2.4c-0.6-1.3-1.5-2.5-2.5-3.6c-0.1-0.1-0.4-0.2-0.5,0c-2.1,2.3-3.6,5.2-4.4,8.2c-0.5-0.5-1-1.1-1.6-1.6
					c-2.2-1.9-4.9-3.2-8-3.2c-0.2,0-0.3,0.1-0.4,0.3c-0.6,2-0.9,4.1-1,6.3c-0.8-0.3-1.7-0.7-2.5-1.1c-0.2-0.1-0.5,0-0.6,0.2
					c-0.5,3.2,0.8,6,3.1,8.2c-1.9,0.3-3.8,0.8-5.4,1.6c-0.3,0.1-0.2,0.6,0.1,0.7c1.4,0.5,2.6,1.2,3.9,1.8c-1.6,0.7-2.9,1.8-4,3.4
					c-0.1,0.1-0.1,0.3,0,0.4c1.7,3.1,4.9,5.3,8.4,5.8c2.4,0.3,4.6-0.2,6.5-1.5c-0.4,3,0.1,6.2,1.6,8.9c0.1,0.2,0.4,0.3,0.6,0.1
					c0.8-1,1.5-2,2-3.2c0.6,1.1,1.2,2.1,1.6,3.3c0.1,0.2,0.3,0.4,0.6,0.2c3.8-2.3,6.3-6.5,6.4-10.9c0-0.4,0-0.7,0-1.2
					c2.4,0.4,4.9,0,7.2-1.2c1.9-1,3.6-2.4,4.7-4.3C922.5,864.7,922.4,864.5,922.2,864.4z"/>
				<path id="XMLID_62_" class="st10" d="M52.6,809.4c-1-0.7-2-1.4-3-2.1c0.7-0.4,1.4-0.8,2.1-1.4c0.3-0.2,0.2-0.5,0-0.7
					c-2.2-1.5-4.7-2.3-7.2-2.5c1-3,1-6.2,0.3-9.2c-0.3-1.3-0.7-2.4-1.3-3.6c-0.3-0.7-0.8-1.7-1.8-1.8c-1-0.1-1.9,1-2.5,1.6
					c-0.7,0.7-1.4,1.6-2,2.4c-0.6-1.3-1.5-2.5-2.5-3.6c-0.1-0.1-0.4-0.2-0.5,0c-2.1,2.3-3.6,5.2-4.4,8.2c-0.5-0.5-1-1.1-1.6-1.6
					c-2.2-1.9-4.9-3.2-8-3.2c-0.2,0-0.3,0.1-0.4,0.3c-0.6,2-0.9,4.1-1,6.3c-0.8-0.3-1.7-0.7-2.5-1.1c-0.2-0.1-0.5,0-0.6,0.2
					c-0.5,3.2,0.8,6,3.1,8.2c-1.9,0.3-3.8,0.8-5.4,1.6c-0.3,0.1-0.2,0.6,0.1,0.7c1.4,0.5,2.6,1.2,3.9,1.8c-1.6,0.7-2.9,1.8-4,3.4
					c-0.1,0.1-0.1,0.3,0,0.4c1.7,3.1,4.9,5.3,8.4,5.8c2.4,0.3,4.6-0.2,6.5-1.5c-0.4,3,0.1,6.2,1.6,8.9c0.1,0.2,0.4,0.3,0.6,0.1
					c0.8-1,1.5-2,2-3.2c0.6,1.1,1.2,2.1,1.6,3.3c0.1,0.2,0.3,0.4,0.6,0.2c3.8-2.3,6.3-6.5,6.4-10.9c0-0.4,0-0.7,0-1.2
					c2.4,0.4,4.9,0,7.2-1.2c1.9-1,3.6-2.4,4.7-4.3C52.9,809.8,52.8,809.6,52.6,809.4z"/>
				<path id="XMLID_41_" class="st10" d="M1068.9,710.8c-1.2,0.4-2.3,0.7-3.6,1.2c0.1-0.8,0.1-1.7,0.2-2.5c0-0.3-0.3-0.5-0.5-0.4
					c-2.5,0.8-4.7,2.3-6.4,4.3c-1.7-2.7-4.2-4.6-7-5.8c-1.2-0.5-2.4-0.8-3.7-1.2c-0.8-0.2-1.9-0.3-2.5,0.4c-0.7,0.8-0.4,2.1-0.2,3.1
					c0.2,1.1,0.4,2,0.7,3.1c-1.5-0.3-2.8-0.3-4.3-0.1c-0.2,0-0.4,0.2-0.3,0.4c0.6,3.1,1.9,6,3.8,8.5c-0.7,0.1-1.5,0.2-2.2,0.3
					c-2.8,0.6-5.6,2-7.2,4.5c-0.1,0.1-0.1,0.3,0,0.5c1.3,1.7,2.6,3.3,4.3,4.6c-0.8,0.4-1.6,1-2.4,1.4c-0.2,0.1-0.3,0.4-0.2,0.6
					c2.2,2.3,5.3,3,8.4,2.4c-0.9,1.7-1.6,3.5-2,5.4c-0.1,0.4,0.4,0.5,0.6,0.3c1.3-0.7,2.5-1.5,3.8-2c-0.4,1.7-0.3,3.5,0.2,5.2
					c0,0.1,0.2,0.2,0.3,0.2c3.5,0.5,7.1-0.7,9.6-3.2c1.8-1.7,2.6-3.8,2.8-6.2c2.1,2.1,4.9,3.6,8,4.1c0.2,0,0.5-0.2,0.4-0.4
					c-0.2-1.3-0.7-2.4-1.3-3.5c1.3,0.1,2.4,0.3,3.6,0.7c0.2,0.1,0.5-0.1,0.5-0.3c0.4-4.5-1.4-8.9-4.8-11.8c-0.3-0.2-0.6-0.4-0.9-0.6
					c1.8-1.7,2.9-4,3.5-6.5c0.4-2.1,0.2-4.3-0.5-6.5C1069.3,710.8,1069.1,710.7,1068.9,710.8z"/>
				<path id="XMLID_39_" class="st11" d="M944.9,884.2c-1-0.7-2-1.4-3-2.1c0.7-0.4,1.4-0.8,2.1-1.4c0.3-0.2,0.2-0.5,0-0.7
					c-2.2-1.5-4.7-2.3-7.2-2.5c1-3,1-6.2,0.3-9.2c-0.3-1.3-0.7-2.4-1.3-3.6c-0.3-0.7-0.8-1.7-1.8-1.8c-1-0.1-1.9,1-2.5,1.6
					c-0.7,0.7-1.4,1.6-2,2.4c-0.6-1.3-1.5-2.5-2.5-3.6c-0.1-0.1-0.4-0.2-0.5,0c-2.1,2.3-3.6,5.2-4.4,8.2c-0.5-0.5-1-1.1-1.6-1.6
					c-2.2-1.9-4.9-3.2-8-3.2c-0.2,0-0.3,0.1-0.4,0.3c-0.6,2-0.9,4.1-1,6.3c-0.8-0.3-1.7-0.7-2.5-1.1c-0.2-0.1-0.5,0-0.6,0.2
					c-0.5,3.2,0.8,6,3.1,8.2c-1.9,0.3-3.8,0.8-5.4,1.6c-0.3,0.1-0.2,0.6,0.1,0.7c1.4,0.5,2.6,1.2,3.9,1.8c-1.6,0.7-2.9,1.8-4,3.4
					c-0.1,0.1-0.1,0.3,0,0.4c1.7,3.1,4.9,5.3,8.4,5.8c2.4,0.3,4.6-0.2,6.5-1.5c-0.4,3,0.1,6.2,1.6,8.9c0.1,0.2,0.4,0.3,0.6,0.1
					c0.8-1,1.5-2,2-3.2c0.6,1.1,1.2,2.1,1.6,3.3c0.1,0.2,0.3,0.4,0.6,0.2c3.8-2.3,6.3-6.5,6.4-10.9c0-0.4,0-0.7,0-1.2
					c2.4,0.4,4.9,0,7.2-1.2c1.9-1,3.6-2.4,4.7-4.3C945.1,884.5,945.1,884.3,944.9,884.2z"/>
				<path id="XMLID_54_" class="st12" d="M385.3,955.2c-1,0-2,0-3,0c0.3-0.6,0.5-1.3,0.8-1.9c0.1-0.2-0.1-0.4-0.3-0.4
					c-2.1,0-4.3,0.6-6.1,1.7c-0.6-2.4-2.1-4.7-4-6.4c-0.7-0.7-1.6-1.3-2.5-1.9c-0.6-0.3-1.4-0.7-2.1-0.4c-0.7,0.4-0.8,1.5-0.9,2.3
					s-0.2,1.7-0.2,2.5c-1-0.6-2.1-1.1-3.4-1.3c-0.2,0-0.3,0.1-0.4,0.2c-0.3,2.5-0.1,5.2,0.7,7.6c-0.6-0.1-1.2-0.2-1.8-0.3
					c-2.4-0.3-4.8,0.1-6.8,1.6c-0.1,0.1-0.2,0.2-0.1,0.4c0.5,1.7,1.3,3.2,2.1,4.7c-0.7,0.1-1.5,0.3-2.2,0.4c-0.2,0-0.4,0.2-0.3,0.4
					c1,2.4,3.4,3.7,5.9,4.1c-1.2,1.1-2.2,2.3-2.9,3.7c-0.2,0.3,0.2,0.5,0.4,0.4c1.2-0.3,2.3-0.4,3.5-0.5c-0.7,1.3-1.2,2.7-1.2,4.1
					c0,0.1,0.1,0.2,0.2,0.3c2.5,1.3,5.8,1.3,8.3,0c1.8-0.8,3-2.3,3.8-4c1.2,2.2,2.8,4.1,5.1,5.3c0.2,0.1,0.4,0,0.4-0.2
					c0.1-1.1,0.1-2.1-0.1-3.1c0.9,0.4,1.8,0.8,2.5,1.5c0.2,0.1,0.4,0.1,0.5-0.1c1.5-3.3,1.3-7.3-0.7-10.4c-0.2-0.3-0.3-0.5-0.5-0.7
					c1.8-0.8,3.4-2.3,4.3-4.1c0.8-1.6,1.3-3.4,1.3-5.1C385.6,955.3,385.5,955.2,385.3,955.2z"/>
				<path id="XMLID_48_" class="st13" d="M457.9,815.4c-1-0.7-2-1.4-3-2.1c0.7-0.4,1.4-0.8,2.1-1.4c0.3-0.2,0.2-0.5,0-0.7
					c-2.2-1.5-4.7-2.3-7.2-2.5c1-3,1-6.2,0.3-9.2c-0.3-1.3-0.7-2.4-1.3-3.6c-0.3-0.7-0.8-1.7-1.8-1.8c-1-0.1-1.9,1-2.5,1.6
					c-0.7,0.7-1.4,1.6-2,2.4c-0.6-1.3-1.5-2.5-2.5-3.6c-0.1-0.1-0.4-0.2-0.5,0c-2.1,2.3-3.6,5.2-4.4,8.2c-0.5-0.5-1-1.1-1.6-1.6
					c-2.2-1.9-4.9-3.2-8-3.2c-0.2,0-0.3,0.1-0.4,0.3c-0.6,2-0.9,4.1-1,6.3c-0.8-0.3-1.7-0.7-2.5-1.1c-0.2-0.1-0.5,0-0.6,0.2
					c-0.5,3.2,0.8,6,3.1,8.2c-1.9,0.3-3.8,0.8-5.4,1.6c-0.3,0.1-0.2,0.6,0.1,0.7c1.4,0.5,2.6,1.2,3.9,1.8c-1.6,0.7-2.9,1.8-4,3.4
					c-0.1,0.1-0.1,0.3,0,0.4c1.7,3.1,4.9,5.3,8.4,5.8c2.4,0.3,4.6-0.2,6.5-1.5c-0.4,3,0.1,6.2,1.6,8.9c0.1,0.2,0.4,0.3,0.6,0.1
					c0.8-1,1.5-2,2-3.2c0.6,1.1,1.2,2.1,1.6,3.3c0.1,0.2,0.3,0.4,0.6,0.2c3.8-2.3,6.3-6.5,6.4-10.9c0-0.4,0-0.7,0-1.2
					c2.4,0.4,4.9,0,7.2-1.2c1.9-1,3.6-2.4,4.7-4.3C458.1,815.8,458.1,815.5,457.9,815.4z"/>
				<path id="XMLID_42_" class="st14" d="M815.5,814.3c-0.9,0.3-2-0.2-2.3-1.3c-0.3-1.2,0.7-2.2,1.8-2.3c0.5,0,0.6-0.7,0.1-1
					c-3.5-1-7.6-1.9-11-0.3c2-3.7,2.5-8.2,1.4-12.2c-0.1-0.3-0.5-0.4-0.8-0.2c-0.9,0.8-1.9,1.5-2.9,2.1c-0.1-1-0.2-1.9-0.3-2.8
					c0-0.3-0.4-0.6-0.7-0.4c-3.5,1.9-5.9,5.5-6.5,9.3c-1.3-4.2-3.4-8.3-7.8-9.9c-0.2-0.1-0.5,0.1-0.6,0.3c-0.2,1.3-0.4,2.7-0.6,3.9
					c-1-0.7-2-1.5-3-2.1c-0.2-0.2-0.6,0-0.7,0.3c-1.2,4.8,0.1,10,3,13.9c-1.2,0-2.3,0.1-3.6,0.3c-1.2,0.2-2.2,0.5-3.4,1.1
					c-0.9,0.4-2.2,1-2.7,1.8c-1.4,2.1,0.7,3.8,2.4,4.8c-1.2,0.8-2.2,1.9-3,3.1c-0.2,0.2,0,0.6,0.3,0.7c5.6,0.8,12.1,1.7,16.5-2.3
					c0.1,2.8,0.6,5.5,2.3,7.7c1.7,2.2,4.3,3.6,7.1,3.2c0.2,0,0.3-0.2,0.3-0.3c0.3-0.8,0.6-1.7,0.9-2.4c0.2,0.5,0.5,1,0.7,1.5
					c0.2,0.3,0.6,0.3,0.8,0c2-3.3,1.7-7.6-0.4-10.7c4.7,1.7,10.6-0.3,12.9-5C816.1,814.8,815.9,814.2,815.5,814.3z"/>
				<path id="XMLID_49_" class="st14" d="M331.3,876.5c-0.9,0.3-2-0.2-2.3-1.3c-0.3-1.2,0.7-2.2,1.8-2.3c0.5,0,0.6-0.7,0.1-1
					c-3.5-1-7.6-1.9-11-0.3c2-3.7,2.5-8.2,1.4-12.2c-0.1-0.3-0.5-0.4-0.8-0.2c-0.9,0.8-1.9,1.5-2.9,2.1c-0.1-1-0.2-1.9-0.3-2.8
					c0-0.3-0.4-0.6-0.7-0.4c-3.5,1.9-5.9,5.5-6.5,9.3c-1.3-4.2-3.4-8.3-7.8-9.9c-0.2-0.1-0.5,0.1-0.6,0.3c-0.2,1.3-0.4,2.7-0.6,3.9
					c-1-0.7-2-1.5-3-2.1c-0.2-0.2-0.6,0-0.7,0.3c-1.2,4.8,0.1,10,3,13.9c-1.2,0-2.3,0.1-3.6,0.3c-1.2,0.2-2.2,0.5-3.4,1.1
					c-0.9,0.4-2.2,1-2.7,1.8c-1.4,2.1,0.7,3.8,2.4,4.8c-1.2,0.8-2.2,1.9-3,3.1c-0.2,0.2,0,0.6,0.3,0.7c5.6,0.8,12.1,1.7,16.5-2.3
					c0.1,2.8,0.6,5.5,2.3,7.7s4.3,3.6,7.1,3.2c0.2,0,0.3-0.2,0.3-0.3c0.3-0.8,0.6-1.7,0.9-2.4c0.2,0.5,0.5,1,0.7,1.5
					c0.2,0.3,0.6,0.3,0.8,0c2-3.3,1.7-7.6-0.4-10.7c4.7,1.7,10.6-0.3,12.9-5C332.1,876.9,331.8,876.4,331.3,876.5z"/>
				<path id="XMLID_61_" class="st15" d="M234.1,839c-0.9,0.3-2-0.2-2.3-1.3c-0.3-1.2,0.7-2.2,1.8-2.3c0.5,0,0.6-0.7,0.1-1
					c-3.5-1-7.6-1.9-11-0.3c2-3.7,2.5-8.2,1.4-12.2c-0.1-0.3-0.5-0.4-0.8-0.2c-0.9,0.8-1.9,1.5-2.9,2.1c-0.1-1-0.2-1.9-0.3-2.8
					c0-0.3-0.4-0.6-0.7-0.4c-3.5,1.9-5.9,5.5-6.5,9.3c-1.3-4.2-3.4-8.3-7.8-9.9c-0.2-0.1-0.5,0.1-0.6,0.3c-0.2,1.3-0.4,2.7-0.6,3.9
					c-1-0.7-2-1.5-3-2.1c-0.2-0.2-0.6,0-0.7,0.3c-1.2,4.8,0.1,10,3,13.9c-1.2,0-2.3,0.1-3.6,0.3c-1.2,0.2-2.2,0.5-3.4,1.1
					c-0.9,0.4-2.2,1-2.7,1.8c-1.4,2.1,0.7,3.8,2.4,4.8c-1.2,0.8-2.2,1.9-3,3.1c-0.2,0.2,0,0.6,0.3,0.7c5.6,0.8,12.1,1.7,16.5-2.3
					c0.1,2.8,0.6,5.5,2.3,7.7s4.3,3.6,7.1,3.2c0.2,0,0.3-0.2,0.3-0.3c0.3-0.8,0.6-1.7,0.9-2.4c0.2,0.5,0.5,1,0.7,1.5
					c0.2,0.3,0.6,0.3,0.8,0c2-3.3,1.7-7.6-0.4-10.7c4.7,1.7,10.6-0.3,12.9-5C234.9,839.4,234.6,838.9,234.1,839z"/>
				<path id="XMLID_43_" class="st14" d="M1310.2,834.3c-0.7,0.6-2,0.6-2.6-0.2c-0.7-1-0.2-2.3,0.7-2.9c0.4-0.2,0.3-1-0.2-1
					c-3.6,0.5-7.8,1.3-10.2,4.1c0.4-4.2-0.8-8.5-3.6-11.8c-0.2-0.3-0.6-0.2-0.8,0.1c-0.5,1.2-1.2,2.1-1.9,3.2
					c-0.4-0.8-0.9-1.6-1.4-2.4c-0.2-0.3-0.5-0.4-0.8-0.1c-2.4,3.2-3.2,7.3-2.3,11.1c-2.8-3.5-6.3-6.3-11-5.9c-0.2,0-0.4,0.3-0.4,0.5
					c0.3,1.3,0.6,2.5,0.9,3.9c-1.2-0.2-2.4-0.5-3.6-0.7c-0.3-0.1-0.5,0.2-0.5,0.5c0.8,4.9,4,9.2,8.3,11.5c-1,0.4-2.1,1-3.1,1.7
					c-0.9,0.6-1.9,1.4-2.6,2.2c-0.7,0.7-1.7,1.7-1.8,2.9c-0.4,2.4,2.2,3.3,4.1,3.4c-0.7,1.3-1.3,2.7-1.6,4c-0.1,0.3,0.2,0.6,0.5,0.5
					c5.4-1.4,11.8-3.3,14.3-8.8c1.2,2.4,2.7,4.8,5.1,6.2c2.4,1.4,5.3,1.6,7.8,0c0.1-0.1,0.2-0.3,0.2-0.4c0-0.8-0.1-1.8-0.1-2.7
					c0.4,0.3,0.8,0.7,1.3,1.1c0.3,0.2,0.7,0,0.7-0.3c0.5-3.8-1.5-7.6-4.6-9.6c5-0.3,9.6-4.6,9.9-9.8
					C1310.9,834.3,1310.5,833.9,1310.2,834.3z"/>
				<path id="XMLID_60_" class="st16" d="M174.7,844.3c-0.3,0.7-1.3,1.3-2.1,0.8c-0.9-0.4-1-1.7-0.5-2.5c0.2-0.3-0.1-0.8-0.5-0.6
					c-2.6,1.7-5.7,4-6.4,7.1c-1.3-3.4-3.9-6.3-7.2-7.7c-0.3-0.1-0.6,0.1-0.6,0.4c0,1.1-0.1,2.1-0.3,3.2c-0.6-0.4-1.4-1-2-1.4
					c-0.2-0.2-0.6-0.1-0.6,0.2c-0.7,3.4,0.3,7,2.4,9.6c-3.5-1.6-7.2-2.4-10.8-0.4c-0.2,0.1-0.2,0.4-0.1,0.5c0.7,0.8,1.5,1.8,2.2,2.7
					c-1,0.2-2.1,0.5-3.1,0.7c-0.2,0.1-0.3,0.4-0.2,0.6c2.5,3.5,6.6,5.6,10.8,5.8c-0.7,0.7-1.3,1.6-1.8,2.5c-0.5,0.8-0.9,1.8-1.2,2.8
					c-0.3,0.8-0.6,2-0.3,2.9c0.6,2.1,2.9,1.7,4.5,1.1c-0.1,1.3,0,2.5,0.3,3.8c0.1,0.2,0.4,0.4,0.6,0.2c3.7-3.2,8-7.1,7.9-12.4
					c1.9,1.5,4,2.7,6.3,2.8c2.4,0.1,4.8-0.8,6.1-3c0.1-0.1,0-0.3,0-0.4c-0.3-0.6-0.7-1.4-1-2c0.4,0.1,0.9,0.2,1.4,0.3
					c0.3,0.1,0.5-0.2,0.4-0.5c-1-3.2-4-5.4-7.2-5.7c3.8-2.2,5.8-7.3,4.1-11.5C175.3,844.1,174.9,844,174.7,844.3z"/>
				<path id="XMLID_55_" class="st13" d="M69.2,661.1c0.4-1,0.9-1.8,1.8-2.5c0.3-0.3,0.2-0.8-0.1-1.1c-2.2-1.2-4.6-1.8-7-1.9
					c2.4-1.6,4.2-4,4.4-7c0.2-3.2-2.7-6.5-5.8-5.6c0.1-0.6,0.3-1.3,0.4-2c0.1-0.4-0.2-0.8-0.6-0.8c-3.6-0.1-6.7,1.9-8.5,4.9
					c-0.3-3.9-1.4-7.7-4.7-10.2c-0.4-0.3-0.8,0-1,0.4c-0.4,1.2-0.8,2.4-1.8,3.2c-0.5,0.4-1,0.6-1.7,0.3c-0.5-0.2-1.3-1-0.7-1.6
					c0.4-0.4,0-1.4-0.6-1.2c-5.7,2.1-7.4,8.3-7.2,13.9c-0.2,0-0.4,0-0.6,0c-5.3,0.4-9.8,4-12.9,8.4c-0.2,0.2-0.1,0.6,0.1,0.8
					c1.9,1.7,3.8,3.3,5.6,5c-0.8,0.3-1.6,0.6-2.4,1c-0.4,0.2-0.7,0.7-0.3,1.2c4.4,4.3,11.3,4.9,16.4,1.8c-0.4,1.8-0.6,3.7-0.5,5.5
					c0.1,1.9,0.4,4.1,1.9,5.4c2.9,2.7,6.7,0.4,9.3-1.7c0.3,0.7,0.6,1.4,0.9,2.1c0.1,0.2,0.4,0.3,0.6,0.3c2.4-0.1,4.3-2,4.9-4.3
					c0.5-2.1,0-4.1-0.9-6c3.9,1.8,8.7,2.9,12.1,0C72.8,667.2,72.5,662.2,69.2,661.1z"/>
				<path id="XMLID_47_" class="st9" d="M1413.8,729.4c0.4-1,0.9-1.8,1.8-2.5c0.3-0.3,0.2-0.8-0.1-1.1c-2.2-1.2-4.6-1.8-7-1.9
					c2.4-1.6,4.2-4,4.4-7c0.2-3.2-2.7-6.5-5.8-5.6c0.1-0.6,0.3-1.3,0.4-2c0.1-0.4-0.2-0.8-0.6-0.8c-3.6-0.1-6.7,1.9-8.5,4.9
					c-0.3-3.9-1.4-7.7-4.7-10.2c-0.4-0.3-0.8,0-1,0.4c-0.4,1.2-0.8,2.4-1.8,3.2c-0.5,0.4-1,0.6-1.7,0.3c-0.5-0.2-1.3-1-0.7-1.6
					c0.4-0.4,0-1.4-0.6-1.2c-5.7,2.1-7.4,8.3-7.2,13.9c-0.2,0-0.4,0-0.6,0c-5.3,0.4-9.8,4-12.9,8.4c-0.2,0.2-0.1,0.6,0.1,0.8
					c1.9,1.7,3.8,3.3,5.6,5c-0.8,0.3-1.6,0.6-2.4,1c-0.4,0.2-0.7,0.7-0.3,1.2c4.4,4.3,11.3,4.9,16.4,1.8c-0.4,1.8-0.6,3.7-0.5,5.5
					c0.1,1.9,0.4,4.1,1.9,5.4c2.9,2.7,6.7,0.4,9.3-1.7c0.3,0.7,0.6,1.4,0.9,2.1c0.1,0.2,0.4,0.3,0.6,0.3c2.4-0.1,4.3-2,4.9-4.3
					c0.5-2.1,0-4.1-0.9-6c3.9,1.8,8.7,2.9,12.1,0C1417.5,735.5,1417.3,730.4,1413.8,729.4z"/>
				
					<linearGradient id="XMLID_16_" gradientUnits="userSpaceOnUse" x1="716.7296" y1="-135.5419" x2="716.7296" y2="67.816" gradientTransform="matrix(1 0 0 -1 0 981.3228)">
					<stop  offset="0" style="stop-color:#F3BAB4"/>
					<stop  offset="1" style="stop-color:#E6716D"/>
				</linearGradient>
				<path id="XMLID_57_" class="st17" d="M879.6,1031.3c-1-0.7-2-1.4-3-2.1c0.7-0.4,1.4-0.8,2.1-1.4c0.3-0.2,0.2-0.5,0-0.7
					c-2.2-1.5-4.7-2.3-7.2-2.5c1-3,1-6.2,0.3-9.2c-0.3-1.3-0.7-2.4-1.3-3.6c-0.3-0.7-0.8-1.7-1.8-1.8c-1-0.1-1.9,1-2.5,1.6
					c-0.7,0.7-1.4,1.6-2,2.4c-0.6-1.3-1.5-2.5-2.5-3.6c-0.1-0.1-0.4-0.2-0.5,0c-2.1,2.3-3.6,5.1-4.4,8.1c-0.7-2.1-0.6-4.3,0.6-6.7
					c-4.3,0.3-8.7,0.6-13,1c-0.1-1-0.2-2-0.3-3c2.4-2.3,3.9-5.6,4-9c0-0.4,0-0.7,0-1.2c2.4,0.4,4.9,0,7.2-1.2c1.9-1,3.6-2.4,4.7-4.3
					c0.1-0.2,0-0.4-0.1-0.5c-1-0.7-2-1.4-3-2.1c0.7-0.4,1.4-0.8,2.1-1.4c0.3-0.2,0.2-0.5,0-0.7c-2.2-1.5-4.7-2.3-7.2-2.5
					c1-3,1-6.2,0.3-9.2c-0.3-1.3-0.7-2.4-1.3-3.6c-0.3-0.7-0.8-1.7-1.8-1.8c-1-0.1-1.9,1-2.5,1.6c-0.7,0.7-1.4,1.6-2,2.4
					c-0.6-1.3-1.5-2.5-2.5-3.6c-0.1-0.1-0.4-0.2-0.5,0c-2.1,2.3-3.6,5.2-4.4,8.2c-0.5-0.5-1-1.1-1.6-1.6c-0.9-0.7-1.9-1.5-2.9-2
					c-0.1-0.5-0.2-1.2-0.3-1.7c-0.3-1.3-0.7-2.4-1.3-3.6c-0.3-0.7-0.8-1.7-1.8-1.8c-1-0.1-1.9,1-2.5,1.6c-0.7,0.7-1.4,1.6-2,2.4
					c-0.4-0.7-0.8-1.5-1.4-2.2c0.4-0.5,0.8-1.1,1.3-1.6c0.1-0.2,0-0.4-0.1-0.5c-1-0.7-2-1.4-3-2.1c0.7-0.4,1.4-0.8,2.1-1.4
					c0.3-0.2,0.2-0.5,0-0.7c-2.2-1.5-4.7-2.3-7.2-2.5c1-3,1-6.2,0.3-9.2c-0.3-1.3-0.7-2.4-1.3-3.6c-0.3-0.7-0.8-1.7-1.8-1.8
					c-1-0.1-1.9,1-2.5,1.6c-0.7,0.7-1.4,1.6-2,2.4c-0.6-1.3-1.5-2.5-2.5-3.6c-0.1-0.1-0.4-0.2-0.5,0c-2.1,2.3-3.6,5.2-4.4,8.2
					c-0.5-0.5-1-1.1-1.6-1.6c-2.2-1.9-4.9-3.2-8-3.2c-0.2,0-0.3,0.1-0.4,0.3c-0.6,2-0.9,4.1-1,6.3c-0.8-0.3-1.7-0.7-2.5-1.1
					c-0.2-0.1-0.5,0-0.6,0.2c-0.4,2.8,0.5,5.2,2.1,7.1c-0.9,0.5-1.9,1.1-2.7,1.6c-2.2-5.1-6.4-8.9-11.3-11.1c0.7-0.2,1.4-0.4,2-0.8
					c1.9-1,3.6-2.4,4.7-4.3c0.1-0.2,0-0.4-0.1-0.5c-1-0.7-2-1.4-3-2.1c0.7-0.4,1.4-0.8,2.1-1.4c0.3-0.2,0.2-0.5,0-0.7
					c-2.2-1.5-4.7-2.3-7.2-2.5c1-3,1-6.2,0.3-9.2c-0.3-1.3-0.7-2.4-1.3-3.6c-0.3-0.7-0.8-1.7-1.8-1.8c-1-0.1-1.9,1-2.5,1.6
					c-0.7,0.7-1.4,1.6-2,2.4c-0.6-1.3-1.5-2.5-2.5-3.6c-0.1-0.1-0.4-0.2-0.5,0c-2.1,2.3-3.6,5.2-4.4,8.2c-0.5-0.5-1-1.1-1.6-1.6
					c-2.2-1.9-4.9-3.2-8-3.2c-0.2,0-0.3,0.1-0.4,0.3c-0.6,2-0.9,4.1-1,6.3c-0.8-0.3-1.7-0.7-2.5-1.1c-0.2-0.1-0.5,0-0.6,0.2
					c-0.5,3.2,0.8,6,3.1,8.2c-1.9,0.3-3.8,0.8-5.4,1.6c-0.3,0.1-0.2,0.6,0.1,0.7c1.4,0.5,2.6,1.2,3.9,1.8c-1.6,0.7-2.9,1.8-4,3.4
					c-0.1,0.1-0.1,0.3,0,0.4c1,2,2.8,3.6,4.9,4.7c-0.4,0.4-0.8,0.8-1.3,1.4c0.4,3,0.8,5.9,1.3,8.9c-3.4,1.9-6.8,3.8-10.2,5.7
					c0.4-2.2,0.3-4.6-0.3-6.9c-0.3-1.3-0.7-2.4-1.3-3.6c-0.3-0.7-0.8-1.7-1.8-1.8c-1-0.1-1.9,1-2.5,1.6c-0.7,0.7-1.4,1.6-2,2.4
					c-0.6-1.3-1.5-2.5-2.5-3.6c-0.1-0.1-0.4-0.2-0.5,0c-2.1,2.3-3.6,5.2-4.4,8.2c-0.5-0.5-1-1.1-1.6-1.6c-2.2-1.9-4.9-3.2-8-3.2
					c-0.2,0-0.3,0.1-0.4,0.3c-0.6,2-0.9,4.1-1,6.3c-0.8-0.3-1.7-0.7-2.5-1.1c-0.2-0.1-0.5,0-0.6,0.2c-0.5,3.2,0.8,6,3.1,8.2
					c-1.9,0.3-3.8,0.8-5.4,1.6c-0.3,0.1-0.2,0.6,0.1,0.7c1.4,0.5,2.6,1.2,3.9,1.8c-1.6,0.7-2.9,1.8-4,3.4c-0.1,0.1-0.1,0.3,0,0.4
					c0.6,1.1,1.4,2.1,2.3,2.9c-0.1,0.1-0.2,0.1-0.3,0.2c-1.2,0.6-2.4,1.3-3.7,1.9c0.3-0.4,0.6-1,0.9-1.5c0.2-0.3-0.1-0.8-0.5-0.7
					c-0.9,0.3-2.1-0.2-2.4-1.3c-0.3-1.2,0.7-2.2,1.9-2.3c0.5,0,0.7-0.8,0.1-1c-3.6-1.1-8-2-11.3-0.3c2.1-3.8,2.6-8.4,1.4-12.7
					c-0.1-0.3-0.5-0.4-0.8-0.2c-0.9,0.8-2,1.6-3,2.2c-0.1-1-0.2-1.9-0.3-2.9c0-0.3-0.4-0.6-0.7-0.4c-2.1,1.2-3.8,2.9-5,5
					c-0.2-1.6-1-3-2.7-3.5c0.4-1,0.9-1.8,1.8-2.5c0.3-0.3,0.2-0.8-0.1-1.1c-2.2-1.2-4.6-1.8-7-1.9c2.4-1.6,4.2-4,4.4-7
					c0.2-3.2-2.7-6.5-5.8-5.6c0.1-0.6,0.3-1.3,0.4-2c0.1-0.4-0.2-0.8-0.6-0.8c-3.6-0.1-6.7,1.9-8.5,4.9c-0.3-3.9-1.4-7.7-4.7-10.2
					c-0.4-0.3-0.8,0-1,0.4c-0.4,1.2-0.8,2.4-1.8,3.2c-0.5,0.4-1,0.6-1.7,0.3c-0.5-0.2-1.3-1-0.7-1.6c0.4-0.4,0-1.4-0.6-1.2
					c-5.7,2.1-7.4,8.3-7.2,13.9c-0.2,0-0.4,0-0.6,0c-5.3,0.4-9.8,4-12.9,8.4c-0.2,0.2-0.1,0.6,0.1,0.8c1.9,1.7,3.8,3.3,5.6,5
					c-0.8,0.3-1.6,0.6-2.4,1c-0.4,0.2-0.7,0.7-0.3,1.2c0.2,0.2,0.4,0.4,0.7,0.6c-2.8,0.4-5.4,2.2-6.9,4.8c-0.3-3.9-1.4-7.7-4.7-10.2
					c-0.4-0.3-0.8,0-1,0.4c-0.4,1.2-0.8,2.4-1.8,3.2c-0.5,0.4-1,0.6-1.7,0.3c-0.5-0.2-1.3-1-0.7-1.6c0.4-0.4,0-1.4-0.6-1.2
					c-5.7,2.1-7.4,8.3-7.2,13.9c-0.2,0-0.4,0-0.6,0c-1.7,0.1-3.2,0.5-4.7,1.3c-0.1-1.2-0.3-2.3-0.6-3.5c-0.5-2.1-1.3-4.2-2.2-6.3
					c-0.6-1.4-1.5-3-3.1-3.2c-1.8-0.1-3.2,1.6-4.4,2.9c-1.3,1.3-2.3,2.7-3.4,4.1c-1-2.2-2.5-4.3-4.3-6.2c-0.2-0.2-0.7-0.3-0.9,0
					c-3.6,4-6.2,8.9-7.5,14.1c-0.8-1-1.8-1.8-2.7-2.7c-3.9-3.4-8.5-5.5-13.6-5.4c-0.3,0-0.5,0.2-0.6,0.5c-1,3.5-1.7,7.1-1.8,10.7
					c-1.5-0.6-2.9-1.3-4.4-1.9c-0.3-0.1-0.9-0.1-1,0.4c-0.9,5.5,1.6,10.5,5.3,14.1c-3.2,0.4-6.5,1.4-9.4,2.8
					c-0.6,0.3-0.3,1.1,0.2,1.3c2.3,0.8,4.5,2,6.7,3.2c-2.8,1.2-5.1,3.2-6.8,5.8c-0.1,0.2-0.1,0.5,0,0.7c2.9,5.4,8.4,9.1,14.3,10.1
					c1.2,0.2,2.3,0.2,3.5,0.1c-7.6,9.3-13.5,19.5-15.6,27.5c-1.6,5.9-1.9,12.4,0.7,18c3.5,7.5,11.7,11.7,19.9,12.6
					c8.2,0.8,16.2-1,24.3-2.8c48.8-10.5,98.7-15.8,148.5-15.9c37.7,0,86.3,10.3,119.2-14.8c3.5-2.7,6.7-6,7.1-10.4
					c0.4-3.4-0.9-6.5-3-9.4c0.8-0.2,1.7-0.5,2.5-1c1.9-1,3.6-2.4,4.7-4.3C879.9,1031.7,879.8,1031.4,879.6,1031.3z M641.7,981.7
					c-0.1,0.2-0.2,0.3-0.3,0.5c-0.4,0-0.8,0-1.3,0.1c0.1-0.4,0.2-0.8,0.3-1.3C640.8,981.3,641.2,981.6,641.7,981.7z M818.3,975.3
					c-0.5,1.2-0.9,2.3-1.4,3.5c-0.5-0.5-1-1.1-1.6-1.6c-0.5-0.4-1-0.8-1.7-1.3C815.4,976.1,816.9,975.8,818.3,975.3z"/>
				
					<linearGradient id="XMLID_17_" gradientUnits="userSpaceOnUse" x1="1257.9835" y1="-151.6909" x2="1257.9835" y2="95.8108" gradientTransform="matrix(1 2.427929e-03 2.427929e-03 -1 -0.5728 978.37)">
					<stop  offset="0" style="stop-color:#F3BAB4"/>
					<stop  offset="1" style="stop-color:#E6716D"/>
				</linearGradient>
				<path id="XMLID_89_" class="st18" d="M1603,1001.2c-3.5-6.5-8.6-11.6-14.5-15.9c1.3-3.5,0.1-7.8-3.7-9c0.6-1.5,1.5-2.8,2.7-3.8
					c0.5-0.4,0.3-1.3-0.2-1.6c-3.4-1.8-6.9-2.8-10.6-2.9c3.6-2.4,6.3-6,6.6-10.4c0.4-4.8-4.1-9.6-8.6-8.4c0.2-1,0.4-2,0.6-3
					c0.1-0.6-0.3-1.3-0.9-1.3c-5.2-0.2-10.1,2.9-12.8,7.2c-0.4-5.9-2.1-11.7-6.9-15.3c-0.5-0.4-1.3,0-1.5,0.6
					c-0.6,1.7-1.3,3.6-2.7,4.8c-0.8,0.6-1.6,0.8-2.5,0.4c-0.7-0.3-1.9-1.5-1.2-2.3c0.5-0.5,0.2-1.7-0.5-1.8c0.1-4.6-4.2-9.1-8.6-8
					c0.2-1,0.4-2,0.6-3c0.1-0.6-0.3-1.3-0.9-1.3c-5.2-0.2-10.1,2.9-12.8,7.2c-0.4-5.9-2.1-11.7-6.9-15.3c-0.5-0.4-1.3,0-1.5,0.6
					c-0.6,1.7-1.3,3.6-2.7,4.8c-0.8,0.6-1.6,0.8-2.5,0.4c0,0-0.1,0-0.1-0.1c0.6-1.4,1.5-2.7,2.6-3.7c0.5-0.4,0.3-1.3-0.2-1.6
					c-3.4-1.8-6.9-2.8-10.6-2.9c3.6-2.4,6.3-6,6.6-10.4c0.4-4.8-4.1-9.6-8.6-8.4c0.2-1,0.4-2,0.6-3c0.1-0.6-0.3-1.3-0.9-1.3
					c-5.2-0.2-10.1,2.9-12.8,7.2c-0.4-5.9-2.1-11.7-6.9-15.3c-0.5-0.4-1.3,0-1.5,0.6c-0.6,1.7-1.3,3.6-2.7,4.8
					c-0.8,0.6-1.6,0.8-2.5,0.4c-0.7-0.3-1.9-1.5-1.2-2.3c0.6-0.7,0-2.1-0.9-1.7c-4.8,1.8-7.8,5.6-9.3,10.1c-1.5-1.3-2.8-2.4-4.2-3.7
					c0.1-0.2,0.2-0.4,0.2-0.7c0.8-3.1-0.1-6.3-1.5-9c5.8,2.8,12.9,4.3,18.1,0.1c4-3.3,3.8-10.8-1.4-12.3c0.6-1.5,1.5-2.8,2.7-3.8
					c0.5-0.4,0.3-1.3-0.2-1.6c-3.4-1.8-6.9-2.8-10.6-2.9c3.6-2.4,6.3-6,6.6-10.4c0.4-4.8-4.1-9.6-8.6-8.4c0.2-1,0.4-2,0.6-3
					c0.1-0.6-0.3-1.3-0.9-1.3c-5.2-0.2-10.1,2.9-12.8,7.2c-0.4-5.9-2.1-11.7-6.9-15.3c-0.5-0.4-1.3,0-1.5,0.6
					c-0.6,1.7-1.3,3.6-2.7,4.8c-0.8,0.6-1.6,0.8-2.5,0.4c-0.7-0.3-1.9-1.5-1.2-2.3c0.6-0.7,0-2.1-0.9-1.7c-4.9,1.9-7.9,5.8-9.4,10.4
					c-0.6-0.8-1.6-1.6-2.7-1.9c0.6-1.5,1.5-2.8,2.7-3.8c0.5-0.4,0.3-1.3-0.2-1.6c-3.4-1.8-6.9-2.8-10.6-2.9c3.6-2.4,6.3-6,6.6-10.4
					c0.4-4.8-4.1-9.6-8.6-8.4c0.2-1,0.4-2,0.6-3c0.1-0.6-0.3-1.3-0.9-1.3c-5.2-0.2-10.1,2.9-12.8,7.2c-0.4-5.9-2.1-11.7-6.9-15.3
					c-0.5-0.4-1.3,0-1.5,0.6c-0.6,1.7-1.3,3.6-2.7,4.8c-0.8,0.6-1.6,0.8-2.5,0.4c-0.7-0.3-1.9-1.5-1.2-2.3c0.6-0.7,0-2.1-0.9-1.7
					c-8.5,3.2-11.2,12.4-10.9,20.8c-0.3,0-0.6,0-0.8,0c-8.1,0.6-14.8,5.9-19.3,12.4c-0.2,0.3-0.2,1,0.1,1.3c2.8,2.4,5.6,5,8.4,7.4
					c-1.2,0.5-2.4,1-3.6,1.5c-0.6,0.3-1,1.2-0.4,1.7c6.5,6.5,17,7.4,24.5,2.8c-0.1,0.4-0.2,0.8-0.3,1.3c-6.1,2.8-11,7.4-15.8,12.3
					c-0.8,0.7-1.7,1.5-2.3,2.3c-0.3,0.3-0.7,0.7-1,1.1c-0.4-5.7-2.1-11.3-6.9-14.8c-0.5-0.4-1.3,0-1.5,0.6c-0.6,1.7-1.3,3.6-2.7,4.8
					c-0.8,0.6-1.6,0.8-2.5,0.4c-0.7-0.3-1.9-1.5-1.2-2.3c0.6-0.7,0-2.1-0.9-1.7c-8.5,3.2-11.2,12.4-10.9,20.8
					c-1.7-0.1-3.2,0.2-4.8,0.7c-3,0.8-5.8,2.3-8.3,4.1c-0.6-5.1-2.4-9.9-6.7-13c-0.5-0.4-1.3,0-1.5,0.6c-0.6,1.7-1.3,3.6-2.7,4.8
					c-0.8,0.6-1.6,0.8-2.5,0.4c-0.7-0.3-1.9-1.5-1.2-2.3c0.6-0.7,0-2.1-0.9-1.7c-3.8,1.5-6.5,4.1-8.2,7.4c-0.9-3.6-2.8-6.8-6-9.1
					c-0.5-0.4-1.3,0-1.5,0.6c-0.6,1.7-1.3,3.6-2.7,4.8c-0.8,0.6-1.6,0.8-2.5,0.4c-0.7-0.3-1.9-1.5-1.2-2.3c0.6-0.7,0-2.1-0.9-1.7
					c-8.5,3.2-11.2,12.4-10.9,20.8c-0.3,0-0.6,0-0.8,0c-6.8,0.5-12.8,4.6-17.1,9.6c-4.2-0.7-8.6-1.2-13.1-1.3
					c6.9-2.4,12.1-6,12.9-10.4c0.7-4.8-7.9-9.6-16.8-8.5c0.4-1,0.8-2,1.3-3c0.3-0.6-0.6-1.3-1.9-1.3c-10.3-0.2-19.7,2.9-24.9,7.2
					c-0.6-4.2-2.4-8.5-7.1-11.9c0-0.2,0.1-0.4,0.1-0.6c0.4-4.8-4.1-9.6-8.6-8.4c0.2-1,0.4-2,0.6-3c0.1-0.6-0.3-1.3-0.9-1.3
					c-5.2-0.2-10.1,2.9-12.8,7.2c-0.2-3.3-0.8-6.6-2.2-9.4c3.2,0.3,6.5-0.3,9.1-2.5c4-3.3,3.8-10.8-1.4-12.3
					c0.6-1.5,1.5-2.8,2.7-3.8c0.5-0.4,0.3-1.3-0.2-1.6c-3.4-1.8-6.9-2.8-10.6-2.9c3.6-2.4,6.3-6,6.6-10.4c0.4-4.8-4.1-9.6-8.6-8.4
					c0.2-1,0.4-2,0.6-3c0.1-0.6-0.3-1.3-0.9-1.3c-5.2-0.2-10.1,2.9-12.8,7.2c-0.4-5.9-2.1-11.7-6.9-15.3c-0.5-0.4-1.3,0-1.5,0.6
					c-0.6,1.7-1.3,3.6-2.7,4.8c-0.8,0.6-1.6,0.8-2.5,0.4c-0.7-0.3-1.9-1.5-1.2-2.3c0.6-0.7,0-2.1-0.9-1.7c-5.2,2-8.3,6.3-9.7,11.1
					c-1.7-1.7-3.9-2.5-6.2-2c0.2-1,0.4-2,0.6-3c0.1-0.6-0.3-1.3-0.9-1.3c-5.2-0.2-10.1,2.9-12.8,7.2c-0.4-5.9-2.1-11.7-6.9-15.3
					c-0.5-0.4-1.3,0-1.5,0.6c-0.6,1.7-1.3,3.6-2.7,4.8c-0.8,0.6-1.6,0.8-2.5,0.4c-0.7-0.3-1.9-1.5-1.2-2.3c0.6-0.7,0-2.1-0.9-1.7
					c-8.5,3.2-11.2,12.4-10.9,20.8c-0.3,0-0.6,0-0.8,0c-8.1,0.6-14.8,5.9-19.3,12.4c-0.2,0.3-0.2,1,0.1,1.3c2.8,2.4,5.6,5,8.4,7.4
					c-1.2,0.5-2.4,1-3.6,1.5c-0.6,0.3-1,1.2-0.4,1.7c3.9,3.9,9.2,5.7,14.6,5.6c-5,5.8-8.7,12.8-10.7,20.3c-1.3-1.4-2.6-2.8-4-4
					c-5.8-5-12.7-8.4-20.3-8.2c-0.4,0-0.8,0.3-0.9,0.7c-1.6,5.2-2.5,10.6-2.7,16c-2.2-1-4.4-1.9-6.5-2.9c-0.5-0.2-1.4-0.1-1.5,0.6
					c-1.5,8.3,2.2,15.7,8,21.1c-4.9,0.6-9.6,2.1-14.1,4.1c-0.8,0.4-0.5,1.6,0.2,1.9c3.5,1.4,6.8,3,9.9,4.8
					c-4.2,1.8-7.6,4.8-10.3,8.6c-0.2,0.3-0.2,0.7,0,1.1c2,3.7,4.8,7,8.3,9.4c-4.6,2.2-8.5,6-11.4,10.2c-0.2,0.3-0.2,1,0.1,1.3
					c2.8,2.4,5.6,5,8.4,7.4c-1.2,0.5-2.4,1-3.6,1.5c-0.6,0.3-1,1.2-0.4,1.7c3.1,3.1,7.2,4.9,11.4,5.4c-1.7,4.6-3.6,8.9-6.1,13
					c-0.3,0.5-0.6,1.1-1,1.6c-3.8-0.8-7.8-0.1-11,1.8c2.3-5.4,3.5-11.2,0.7-16.8c-0.3-0.6-1.2-0.5-1.6-0.1c-1.3,1.2-2.7,2.7-4.5,3
					c-0.9,0.2-1.8,0.1-2.4-0.7c-0.5-0.6-1-2.2,0.1-2.7c0.8-0.3,1-1.9-0.1-2c-9-1.1-15.6,5.8-19.1,13.4c-0.2-0.1-0.5-0.2-0.8-0.3
					c-6.9-3-14.7-1.8-21.3,1.4c-0.7-2.9-1.8-5.6-2.9-8.4c-0.9-2-2.2-4.5-4.7-4.7c-2.7-0.2-4.9,2.4-6.6,4.1c-1.9,1.9-3.6,4-5,6.2
					c-1.6-3.4-3.8-6.5-6.4-9.2c-0.4-0.4-1-0.4-1.5,0c-5.4,6-9.2,13.3-11.4,21.1c-1.3-1.4-2.6-2.8-4-4c-5.8-5-12.7-8.4-20.3-8.2
					c-0.4,0-0.8,0.3-0.9,0.7c-1.6,5.2-2.5,10.6-2.7,16c-2.2-1-4.4-1.9-6.5-2.9c-0.5-0.2-1.4-0.1-1.5,0.6c-1.5,8.3,2.2,15.7,8,21.1
					c-4.9,0.6-9.6,2.1-14.1,4.1c-0.8,0.4-0.5,1.6,0.2,1.9c3.5,1.4,6.8,3,9.9,4.8c-4.2,1.8-7.6,4.8-10.3,8.6c-0.2,0.3-0.2,0.7,0,1.1
					c2.7,5.1,6.9,9.1,11.9,11.9c-3,6.9-2.9,14.7-2.2,22.2c3.1,31.2,8.1,52.7,35.4,68.9c73.9,44,175.1,101.1,262.5,107.4
					c33.1,2.4,69.6-9.5,103.1-12.2c51.2-4.1,102.2-10.6,152.8-19.9c30.7-5.6,62.6-12.9,86.5-33.5c32-27.6,42.3-72.5,49.4-114.4
					C1608.4,1032.9,1610.7,1015.4,1603,1001.2z M1415.2,856.2c-0.1,0-0.2,0.1-0.3,0.1c-0.1-0.1-0.3-0.1-0.4-0.2
					C1414.7,856.1,1415,856.2,1415.2,856.2z M1123.3,867c3.5-0.3,6.1-3.1,7-6.5c0.8-3.1-0.1-6.3-1.5-9c4,1.9,8.6,3.3,12.9,2.5
					c-4.9,4.2-6.6,11.5-6.4,18.1c-0.3,0-0.6,0-0.8,0c-3.8,0.3-7.3,1.7-10.5,3.7C1124,873,1123.8,870,1123.3,867z M1148.8,855.7
					c-0.2,0-0.3-0.1-0.5-0.1c-0.7-0.3-1.9-1.5-1.2-2.3c0.3-0.3,0.3-0.7,0.2-1.2c0.7-0.3,1.5-0.7,2.2-1.2
					C1149.1,852.5,1148.9,854.1,1148.8,855.7z M1174.8,853.6c-0.2,0.3-0.4,0.6-0.6,0.8c-0.2-0.5-0.4-1-0.6-1.5
					C1174,853.2,1174.4,853.3,1174.8,853.6z M1104.8,849.5c-0.7,2.8-0.9,5.5-0.8,8.3c0,0.6,0.1,1.3,0.2,1.9
					c-0.3,0.4-0.6,0.7-0.8,1.2c-1.5-3.2-3.5-6-5.9-8.6C1100,851.8,1102.5,850.9,1104.8,849.5z M986.5,990c0.5-1.6,1-3.2,1.4-4.9
					c2.8,3.3,6.6,5.7,10.8,6.8c-0.2,0-0.5,0-0.7,0c-0.5,0-0.9,0.1-1.5,0.2C993.2,991,989.9,990.3,986.5,990z M988.7,977.6
					c0-0.5,0-1,0-1.5c0.2,0.5,0.4,1.1,0.6,1.5C989.2,977.7,988.9,977.6,988.7,977.6z"/>
				<path id="XMLID_38_" class="st19" d="M706.5,516.3c-25.9-6.2-51.1-15.5-74.8-27.7c-0.8,9.5-1.8,19.2-2.6,28.7
					c-7.5-10.3-17-19-27.6-25.8c-4.6,19.1-11.1,37.8-19.3,55.6c-4-20.4-7.9-40.6-11.8-61c-9.5,7.1-19.1,14.1-28.6,21.2
					c2.4-10.2,4.7-20.3,7.1-30.4c-21.1,12.2-44.9,19.5-69.2,21.2c7.6-4.9,13.9-9,19.3-13.3c30.1-15.2,59.4-32.8,87.2-53.1
					c23,8.5,35.7,0,35.7,0s30.7,25.8,85.6,58c-13.8,0.3-27.6-2.2-40.4-7.4C677.6,496.3,692.1,506.5,706.5,516.3z"/>
				<ellipse id="XMLID_9_" class="st20" cx="1055.8" cy="185.8" rx="77.5" ry="78.5"/>
				<path id="XMLID_12_" class="st19" d="M97.8,253.4c3.8,0.2,7.4,0.3,11.2,0.4c2,0.1,5.1,1,7,0.2c2.8-1.2,1.8-3,2.6-5.3
					c0.8-2.2,3.9-3.3,4.6-5.3c-1.8-1-3.7-0.6-5.6-0.4c-1.4,0.2-4.6,1.9-5.8,1.5c-2.1-0.8-0.3-0.6-1.4-1.8c0.1,0.1-2.2-3.4-2.3-3.4
					c-1.6-3.6-0.5-2.1,2.2-3.1c3.9-1.4,6.5-1.4,10.8-1.3c2.7,0.1,5.6,0.3,8.3,0.4c3.9,0,7.3-1.2,11.1-1.3c2.9,0,6,0.2,8.9,0.4
					c4.2,0.2,7.2-1.3,11.3-1.2c5.7,0.1,12.5,1.7,18,0.8c4-0.6,6.6-1.2,10.8-1.2c2.5,0,6.2-0.4,8.4-1.3c2.4-0.8,3.8-3.2,6.6-4.2
					c0.4-0.1,3.7-1.6,4.5-1.6c2.5,0,1.6,0.5,3.4,1.1c2.5,0.7,5,1.9,7.5,2.4c2.3,0.4,4.8,0,7.1,0.1c4.2,0.3,7.9,1.8,11.9,2.2
					c11,1.3,22.5,0.8,33.5,1.3c8.4,0.3,17.4,1.7,25.7,0.6c2.2-0.2,15.8-3.5,13.7,2.2c-1.7,4.7-9.5,4-11.7,7.8
					c-1.8,3.2,0,3.2,2.7,3.4c4.4,0.4,7.1,0.5,11.2,1.7c6.8,2,15.4,1,22.3,1.3c8.2,0.3,16.4,0.6,24.6,1c15.7,0.6,31.1-1.6,46.7-1.4
					c7.3,0.1,14.7,0.7,21.9,1c5,0.2,9.2,1.6,14.1,2.2c11.3,1.5,23.3,0.8,34.6,1.3c15.8,0.6,31.2-0.3,46.9,0.3c7.6,0.3,15.4,0.6,23,1
					c6.3,0.2,17.1-1.2,23,1.3c-1.6,2.9-16.9,3.7-20,3.7c-3.4,0-6.8-0.6-10.2-0.6c-4.8,0-9,1.7-13.6,2.4c-6.5,1.1-12.8,0.4-19.1,1.2
					c-2,0.2-3.5,1.2-5.4,1.6c-2.1,0.3-4.3-0.5-6.5,0c-3.8,1-7.4,3-11.4,3.7c-3.4,0.6-6.8-0.1-10.2,0.1c-4,0.2-7.9,1.1-11.8,1.1
					c-7.3-0.1-14.7-0.6-21.9-1c-3.7-0.2-16-1.5-17.8,2.1c1.8,0.7,3.5,0.4,5.3,0.5c3.6,0.2,6.6,1.1,10.1,2.1c7,2.1,14.1,2,21.3,3.7
					c3.9,1,8,2.1,11.8,2.5c3.9,0.4,9.9-1,13.5,0.8c-1.2,3.1-12.3,4.8-15.5,5.2c-6,0.8-11.8-0.2-17.8,0.8c-8.2,1.4-17.3-0.4-25.3-1.9
					c-8.4-1.5-17.2-1.1-25.7-1.4c-8.9-0.4-17.8,0.2-26.6,1c-9.6,0.8-19,0.4-28.7,0c-10.6-0.4-21.3-1-31.8-1.3
					c7.6,0.1,14.2,2,21.7,3.7c9.8,2.3,20,3.5,30,5.6c7,1.5,13.3,3.1,20.5,3.3c4.7,0.1,9.9,2.5,14.5,2.1c-7.2,2.8-15.5,1.9-23,3.3
					c-4.4,0.7-8.5,2.5-12.9,3.2c-4.1,0.5-8.5-0.1-12.7-0.3c-6.7-0.3-14.1,0.3-20.7-1.2c-7.8-1.7-15.2-3.3-23-4.7
					c-15.6-2.7-31.1-3.6-46.8-4.3c-8.4-0.4-16.3,0.6-24.7,0.6c-7.2,0-15-0.5-21.6,2.8c2.1,3.3,11.5,4.5,15.3,5c4,0.5,8,0.3,11.9,0.6
					c4.9,0.4,9.4,1.9,14.1,3.4c5.1,1.5,10.4,2.3,15.4,4.2c2.5,1,4.2,1.8,6.9,1.9c1.6,0.1,3.1-0.3,4.5,0.5c-2.1,1.9-6.2,1.1-8.9,1.3
					c-7,0.5-13.7,0.7-20.7,0.4c-12.6-0.6-24.8-0.7-37.3-2.8c-9.8-1.6-19.6-0.2-29.3,0.4c-11.1,0.7-22,1.6-33.2,1.4
					c-4.1-0.1-7.6,0.6-11.6,1.1c-5.4,0.5-11.1-0.3-16.7-0.5c-15.4-0.6-30.8-1.2-46.2-1.9c-8.5-0.4-17.1,0.2-25.4,0.7
					c-3.6,0.2-6.9,1.1-10.5,1.1c-3,0-6.8-1.3-9.4,0.7c3.8,1.9,8.5,2.1,12.6,3.3c11.4,3.3,22.5,4.6,34.1,6.5c8.6,1.4,16.9,3.9,25.6,5
					c3.6,0.4,10.9-0.1,13.3,3.2c-4.5,5.8-15.2,5.7-21.9,6.2c-12.6,0.8-24.9,0.8-37.6,0.1c-19.3-1.2-37.5-6-56.8-4.3
					c-16.9,1.5-35-1.1-51.9-1.8c-11.9-0.5-24.5,0-36.6-1.8c-5.9-1-11.5-2.2-17.5-1.8c6.6-1.8,12-8.7,16.7-13.3
					c5.3-5.3,9.7-9.3,8.7-17.5c-1-8.5-6.3-16.2-6.6-25c-0.3-9.4-1.8-18.6-1.6-28c0.1-3.9,1.5-7.2,1.7-10.9c0.1-2,0.4-4.1-1.6-5.2
					c0.7-1.7,3.7-1.5,5.4-1.7c5.1-0.7,10.3-1,15.3-1.7c12.8-1.8,24.9-3.8,37-8c6.1-2.1,11.9-1.4,18.3-1.1c10.8,0.4,21.3-0.2,32-0.2
					c9.2,0,17.6,3.8,27,3.2c6.5-0.4,13.3-2.5,19.8-1.4c4.5,0.7,6.9,4.2,11.2,5.3c1.8,0.4,16.3-0.8,15.1,3.5
					c-3.8,1.6-7.5,3.1-11.4,3.9c-6.6,1.4-12.4,4.3-18.9,5.7c-9.9,2.1-17.4,5.9-26.3,10.2c-3,1.5-6.1,3-9.2,4.1
					c-1.8,0.6-4.1,0.5-5.3,2.2c11.9,2.7,23.9,2.9,36.1,3.4c3.7,0.1,7.4,0.3,11.1,0.4C81.1,257.6,88.9,252.9,97.8,253.4z"/>
				<path id="XMLID_32_" class="st21" d="M475.6,330c-12.9-0.1-24.9-2.1-37.8-2.1c-2.7,0-5.8-0.4-8.4,0c-2.9,0.4-3.5,1.5-6,2.2
					c-6.5,1.9-17.1-0.1-23.8-0.1c-8,0-18.7,2.1-26.2-0.4c3.8-4.2,15-5.4,20.2-7c18.5-5.7,36.7-11.8,55.8-15.4
					c6.4-1.3,11.8-0.6,17.7,1.7c5.8,2.2,9.9,2.1,16.2,2.1c7.3,0,14.7,0,22,0c3.5,0,7-0.1,10.5,0c5.7,0.1,10.8,2,16.3,2.2
					c8.2,0.4,16.4,2.2,24.6,4.1c3.1,0.7,6.2,1.9,9.3,2.2c4,0.4,7.2-0.8,10.9,1.5c-8,4.5-19.1,4.8-28,4.8c-13.6,0-26.5,2.1-40,2.1
					c-5.9,0-12-0.7-17.8,0.2C485.7,329,481.1,330,475.6,330z"/>
				<path id="XMLID_33_" class="st19" d="M1453.6,376.7c8.8,0,16.5,8.5,20.3,16c5.1,10.2,5,22.1,4.9,33.2
					c-0.1,6.6,0.3,13.9-3.6,19.4c-5.6,8-14.7,18.1-23.7,20.3c-7.9,1.8-16,4.1-24.1,4.6c-5.4,0.3-10.9-0.4-16.3-0.2
					c-6.9,0.3-13.3,2.3-20.2,2.2c-12.8-0.1-26.8-1.7-39.5,0.4c-24.1,4-49,0.7-73.4,1.8c9.7-4.5,20.3-5.5,29.3-11.7
					c9.9-6.8,21.7-11.1,32.6-16.1c-5.8-0.1-11,2.1-16.7,2.4c-4.1,0.2-8.2-0.3-12.3,0.1c-4.7,0.4-9.2,1.8-14,2
					c-13.1,0.5-26.3-0.1-39.4-0.1c-15.5,0-30.2-0.3-45.3,2.7c-9.3,1.8-18.3,0.6-27.6,2c-7.2,1.1-16.7,3.7-23.8,1.2
					c4.7-3.7,12.8-3.8,18.3-5.3c9.2-2.5,18.5-3.9,27.8-7c8.7-2.9,17.6-3.9,26.2-6.9c5.6-1.9,19.7-2.7,21.7-7.5
					c-5.1-2.1-13.7,1.4-18.9,2.3c-6.4,1.1-12.7,2.2-19.2,1.2c-11-1.9-22-2-33.2-3.6c-10.5-1.5-20.3-2.3-30.9-2.3
					c-5.3,0-10.8-0.3-16.1-0.1c-9.4,0.3-18.7,3.6-28,5.3c-13.6,2.5-27.4,0.2-41.2,1.6c-16,1.7-31.6,1.7-47.8,1.7
					c-13.1,0-26.2,0-39.3,0c-8.6,0-17.2,0-25.8,0c-4.9,0-11.8,1.6-16.3-0.3c-1.7-8.8,22.5-6,26.8-6c9.1,0.1,18.7-1.1,27.8-2
					c6.4-0.7,12.4-4.5,18.6-5.9c3-0.7,5.7-0.5,8.8-0.4c6.4,0.1,12-1.9,18.2-2.3c5.7-0.3,9.4-1.1,14.9-1.9c8.2-1.3,14.6-4.3,22.9-4.2
					c9.4,0.2,18.3-3.5,27-7c6.2-2.4,10.8-3.3,17.2-4.8c4.4-1.1,8.3-0.6,12.8-1c6.7-0.4,13-2.4,19.8-2.3c10.2,0.1,19.6-0.5,29.5-1.6
					c7.8-0.8,15.5,0,23.3-1c17.1-2,34.4-1.6,51.3-4.3c11-1.8,21.7-1.6,32.9-1.6c19.1,0,37.4-0.3,56.2-2.5
					c18.2-2.2,36.2-7.4,54.4-9.9C1418,374.9,1436.4,376.7,1453.6,376.7z"/>
				<path id="XMLID_34_" class="st19" d="M1177.8,149.8c7.2,0,13.5,0.8,20.5,1.9c4.8,0.7,10.8-1.1,15.5,0.6
					c-2.2,6.8-14.6,7.7-20.2,9.1c-11.9,2.8-23.7,5.7-35.6,8.3c-24.8,5.4-50.1,5.5-75.5,5.5c-11.5,0-24.2,1.6-35.6-0.4
					c-9.4-1.7-18.4-2-28.2-1.7c-3.9,0.1-6.7,1-10.4,1.7c-5.8,1.2-11.9,0.4-17.8,0.4c-5.1,0-10.4-0.5-15.5-0.1
					c-5.7,0.4-10.4,2.3-16.1,2.2c-23.7-0.3-46.4,6.4-70,6.4c-13.3,0-26.7,0.1-40,0c-15-0.1-29.7,2.2-44.6,3.7
					c-26.4,2.8-54,0.5-80.6,0.5c-9.5,0-19.1,0-28.6,0c-6,0-11.8,0.3-17.7-0.5c-3.4-0.4-13-0.7-14.7-3.7c4.1-2.9,9.4-3.2,14-4.7
					c5.6-1.7,11-3.4,16.8-3.9c9.3-1,19.8-0.4,29.2-0.1c11.4,0.3,22.3,2.2,33.7,2.2c8.9,0,17.6-0.1,26.4,1.1
					c15.6,2,31.1,0.7,46.6-1.3c7.4-1,14.6-4.2,21.7-6.3c7-2,14.2-3.1,21.4-4.7c-2.7-9.2-24.5,0.3-30.9-8.6
					c11.9-7.7,27.3-1.5,39.9-1.6c14.9-0.1,30.8,2.3,45.2-2.1c6.3-1.9,11.4-1.4,17.9-0.6c17.1,2,34.2,0.4,51.2-1.5
					c18.1-1.9,35.9-3.5,54.1-4.8c11.8-0.8,23.8-3,35.6-3.3c7.2-0.2,13.8,1.9,20.9,2.7C1130.2,149.2,1154.1,149.9,1177.8,149.8z"/>
				<path id="XMLID_35_" class="st19" d="M463.4,56c7-1.5,13.8-5,20.9-6c4.1-0.6,6.2,0.1,9.9-1.5c0.7-0.3,4-2,4.6-2.1
					c6.6-2,13.9-2.7,20.9-2.5c14.6,0.1,28.4,2.9,42.5,5.3c13.6,2.3,28.7,1.1,42.7,1.1c5.1,0,10.3,0,15.4,0c2.3,0,7.9-1.1,9.9-0.1
					c2,0.8,3.1,1.8,1.7,4.5c-1.8,3.2-7.2,2-10.2,2.4c-9.4,1.4-18.5,4.1-28.1,5.4c-8.9,1.2-17.6,0.3-26.4,2.1
					c-8.5,1.7-17,4.2-25.4,4.8c-8,0.4-19.1,0.1-26.2,4.2c5.7,3.3,13.8,3.4,20.1,4.7c-0.9,4.6-11.3,5.6-15,5.9
					c-6.9,0.5-13.5,2.2-20.5,2.1c-15.7-0.1-32.2-1.3-47.9,0c-6.3,0.5-12.1,1.9-18.6,2.1c-10.7,0.3-21.1,2.2-32,2.2
					c-6.3,0-12.5,0-18.7,0c-6.4,0-17.3,2.2-23-0.4c1-4,13.9-7,17.9-7.8c6.4-1.4,14.7-4.5,21.2-4.6c-7.3,0.2-13.4-2.2-20.9-2.1
					c-6.7,0.1-13.8-1.5-20.3-3.2c-2.4-0.6-15.8-0.7-14.5-5.3c0.2-0.8,1-1.3,1.3-2.1c-0.4-0.3-0.8-0.4-1.5-0.5
					c0.7-2.9,11.4-3.8,13.9-4.3c7.6-1.6,15.1-1.6,22.8-1.6c8,0,15.8,0,23.8,0c2.6,0,6,0.5,8.6,0c2.8-0.5,3.9-1.6,6.6-2.2
					c3-0.7,6.8,0.2,10.1-0.3c6-1.1,10.5-2.9,16.3-1.3C451.5,56.3,457.2,57.3,463.4,56z"/>
				<path id="XMLID_36_" class="st19" d="M663.6,86.7c-7.9,1.2-15.6,4.9-23.7,3.2c-7.5-1.6-14.7-1.6-22.5-1.6
					c-6.2,0-17,2.2-22.4-0.4c2-10.2,19.5-9.2,26.9-9c5.9,0.1,11.7,1.2,17.4-0.4c2.3-0.6,4.4-1.8,6.7-2.3c3.4-0.7,6.8-0.5,10.3-0.7
					c5.8-0.3,12.9-2.2,18.4,0c3.1,1.3,7.8,5.2,4.1,8.2C675.3,86.5,667.9,85.9,663.6,86.7z"/>
				<path id="XMLID_45_" class="st14" d="M1112.6,926.4c-0.5,0.8-1.7,1.3-2.5,0.6c-0.9-0.6-0.9-2.1-0.2-3c0.3-0.4,0-1.1-0.5-0.7
					c-3.2,1.6-6.9,3.8-8.3,7.2c-0.9-4.1-3.6-7.7-7.1-9.9c-0.3-0.2-0.7,0-0.7,0.4c-0.1,1.3-0.4,2.4-0.7,3.6c-0.7-0.6-1.4-1.3-2.1-1.8
					c-0.3-0.2-0.6-0.2-0.8,0.2c-1.3,3.8-0.6,8.1,1.4,11.3c-3.8-2.3-8-3.8-12.4-2c-0.2,0.1-0.3,0.4-0.2,0.6c0.7,1.2,1.5,2.2,2.2,3.4
					c-1.3,0.1-2.4,0.3-3.7,0.4c-0.3,0-0.4,0.4-0.3,0.6c2.3,4.3,6.7,7.3,11.5,8.2c-0.8,0.7-1.7,1.7-2.4,2.7s-1.3,1.9-1.8,3.1
					c-0.4,1-0.9,2.2-0.8,3.3c0.4,2.4,3,2.3,5,1.9c-0.3,1.5-0.3,2.9-0.2,4.3c0,0.3,0.4,0.5,0.6,0.3c4.7-3.1,10.1-7,10.7-13
					c1.9,1.9,4.2,3.6,6.8,4.1c2.7,0.5,5.6-0.3,7.3-2.5c0.1-0.1,0.1-0.3,0-0.4c-0.3-0.8-0.6-1.6-0.9-2.4c0.5,0.2,1,0.4,1.6,0.6
					c0.3,0.1,0.6-0.2,0.6-0.5c-0.7-3.8-3.8-6.8-7.4-7.6c4.6-2,7.5-7.5,6.2-12.5C1113.5,926.1,1112.8,926,1112.6,926.4z"/>
				<path id="XMLID_50_" class="st19" d="M499.8,889.9c0,0.6-0.5,1.2-1.2,1.1c-0.7-0.1-1-0.8-0.9-1.5c0.1-0.3-0.3-0.5-0.5-0.3
					c-1.3,1.8-2.7,4-2.5,6.3c-1.7-1.9-4.1-3.2-6.7-3.3c-0.2,0-0.3,0.2-0.3,0.4c0.3,0.7,0.5,1.4,0.6,2.1c-0.5-0.1-1.2-0.2-1.7-0.4
					c-0.2,0-0.4,0.1-0.4,0.3c0.3,2.4,1.9,4.6,3.9,5.7c-2.7-0.2-5.3,0.2-7.2,2.4c-0.1,0.1-0.1,0.3,0.1,0.4c0.7,0.4,1.4,0.8,2.1,1.2
					c-0.6,0.4-1.3,0.8-1.9,1.3c-0.1,0.1-0.1,0.3,0,0.4c2.5,1.7,5.7,2.1,8.5,1.2c-0.3,0.6-0.4,1.4-0.6,2.1c-0.1,0.7-0.1,1.4-0.1,2.1
					c0,0.6,0.1,1.5,0.4,2c0.9,1.2,2.3,0.4,3.2-0.4c0.2,0.8,0.6,1.7,1.2,2.4c0.1,0.1,0.4,0.1,0.4,0c1.7-3.1,3.6-6.7,2.2-10.2
					c1.6,0.5,3.2,0.7,4.8,0.3c1.6-0.5,2.9-1.8,3.2-3.5c0-0.1,0-0.2-0.1-0.2c-0.4-0.3-0.8-0.7-1.2-1.1c0.3,0,0.6-0.1,1-0.1
					c0.2,0,0.3-0.3,0.2-0.4c-1.5-1.8-4-2.5-6.2-2c2-2.3,2-6.3-0.1-8.6C500.2,889.6,499.8,889.7,499.8,889.9z"/>
				<path id="XMLID_53_" class="st19" d="M443.2,769.7c0,0.6-0.5,1.2-1.2,1.1c-0.7-0.1-1-0.8-0.9-1.5c0.1-0.3-0.3-0.5-0.5-0.3
					c-1.3,1.8-2.7,4-2.5,6.3c-1.7-1.9-4.1-3.2-6.7-3.3c-0.2,0-0.3,0.2-0.3,0.4c0.3,0.7,0.5,1.4,0.6,2.1c-0.5-0.1-1.2-0.2-1.7-0.4
					c-0.2,0-0.4,0.1-0.4,0.3c0.3,2.4,1.9,4.6,3.9,5.7c-2.7-0.2-5.3,0.2-7.2,2.4c-0.1,0.1-0.1,0.3,0.1,0.4c0.7,0.4,1.4,0.8,2.1,1.2
					c-0.6,0.4-1.3,0.8-1.9,1.3c-0.1,0.1-0.1,0.3,0,0.4c2.5,1.7,5.7,2.1,8.5,1.2c-0.3,0.6-0.4,1.4-0.6,2.1c-0.1,0.7-0.1,1.4-0.1,2.1
					c0,0.6,0.1,1.5,0.4,2c0.9,1.2,2.3,0.4,3.2-0.4c0.2,0.8,0.6,1.7,1.2,2.4c0.1,0.1,0.4,0.1,0.4,0c1.7-3.1,3.6-6.7,2.2-10.2
					c1.6,0.5,3.2,0.7,4.8,0.3c1.6-0.5,2.9-1.8,3.2-3.5c0-0.1,0-0.2-0.1-0.2c-0.4-0.3-0.8-0.7-1.2-1.1c0.3,0,0.6-0.1,1-0.1
					c0.2,0,0.3-0.3,0.2-0.4c-1.5-1.8-4-2.5-6.2-2c2-2.3,2-6.3-0.1-8.6C443.5,769.4,443.2,769.5,443.2,769.7z"/>
				<path id="XMLID_63_" class="st19" d="M239.7,700.3c0,0.6-0.5,1.2-1.2,1.1c-0.7-0.1-1-0.8-0.9-1.5c0.1-0.3-0.3-0.5-0.5-0.3
					c-1.3,1.8-2.7,4-2.5,6.3c-1.7-1.9-4.1-3.2-6.7-3.3c-0.2,0-0.3,0.2-0.3,0.4c0.3,0.7,0.5,1.4,0.6,2.1c-0.5-0.1-1.2-0.2-1.7-0.4
					c-0.2,0-0.4,0.1-0.4,0.3c0.3,2.4,1.9,4.6,3.9,5.7c-2.7-0.2-5.3,0.2-7.2,2.4c-0.1,0.1-0.1,0.3,0.1,0.4c0.7,0.4,1.4,0.8,2.1,1.2
					c-0.6,0.4-1.3,0.8-1.9,1.3c-0.1,0.1-0.1,0.3,0,0.4c2.5,1.7,5.7,2.1,8.5,1.2c-0.3,0.6-0.4,1.4-0.6,2.1c-0.1,0.7-0.1,1.4-0.1,2.1
					c0,0.6,0.1,1.5,0.4,2c0.9,1.2,2.3,0.4,3.2-0.4c0.2,0.8,0.6,1.7,1.2,2.4c0.1,0.1,0.4,0.1,0.4,0c1.7-3.1,3.6-6.7,2.2-10.2
					c1.6,0.5,3.2,0.7,4.8,0.3c1.6-0.5,2.9-1.8,3.2-3.5c0-0.1,0-0.2-0.1-0.2c-0.4-0.3-0.8-0.7-1.2-1.1c0.3,0,0.6-0.1,1-0.1
					c0.2,0,0.3-0.3,0.2-0.4c-1.5-1.8-4-2.5-6.2-2c2-2.3,2-6.3-0.1-8.6C240,700,239.7,700.1,239.7,700.3z"/>
				<path id="XMLID_59_" class="st19" d="M76.8,692.5c0,0.6-0.5,1.2-1.2,1.1c-0.7-0.1-1-0.8-0.9-1.5c0.1-0.3-0.3-0.5-0.5-0.3
					c-1.3,1.8-2.7,4-2.5,6.3c-1.7-1.9-4.1-3.2-6.7-3.3c-0.2,0-0.3,0.2-0.3,0.4c0.3,0.7,0.5,1.4,0.6,2.1c-0.5-0.1-1.2-0.2-1.7-0.4
					c-0.2,0-0.4,0.1-0.4,0.3c0.3,2.4,1.9,4.6,3.9,5.7c-2.7-0.2-5.3,0.2-7.2,2.4c-0.1,0.1-0.1,0.3,0.1,0.4c0.7,0.4,1.4,0.8,2.1,1.2
					c-0.6,0.4-1.3,0.8-1.9,1.3c-0.1,0.1-0.1,0.3,0,0.4c2.5,1.7,5.7,2.1,8.5,1.2c-0.3,0.6-0.4,1.4-0.6,2.1c-0.1,0.7-0.1,1.4-0.1,2.1
					c0,0.6,0.1,1.5,0.4,2c0.9,1.2,2.3,0.4,3.2-0.4c0.2,0.8,0.6,1.7,1.2,2.4c0.1,0.1,0.4,0.1,0.4,0c1.7-3.1,3.6-6.7,2.2-10.2
					c1.6,0.5,3.2,0.7,4.8,0.3c1.6-0.5,2.9-1.8,3.2-3.5c0-0.1,0-0.2-0.1-0.2c-0.4-0.3-0.8-0.7-1.2-1.1c0.3,0,0.6-0.1,1-0.1
					c0.2,0,0.3-0.3,0.2-0.4c-1.5-1.8-4-2.5-6.2-2c2-2.3,2-6.3-0.1-8.6C77.3,692.2,76.8,692.3,76.8,692.5z"/>
				<g id="XMLID_5_">
					<path id="XMLID_86_" class="st19" d="M534.9,774.6c2.7-1.8,5.8-3.4,8.7-4.7c-0.8,0.1-1.7,0.2-2.5,0.3c2.4,0.8,5.2-0.6,6.4-2.9
						c1.4-2.5-0.4-5-3-5.3c-1.7-0.2-3.4,0.6-4.6,1.8c-0.2,0.2-1.5,2.1-0.8,1.5c0.4-0.5-1,0.7-1.2,1c-1.9,1.9-3.4,4.1-4.7,6.5
						C532.5,773.8,533.8,775.3,534.9,774.6L534.9,774.6z"/>
				</g>
				<g id="XMLID_76_">
					<path id="XMLID_102_" class="st19" d="M675.8,817.3c-0.3-0.1-0.7-0.8-1-1.2c-0.5-0.6-1-1.1-1.8-1.5c-0.5-0.4-0.5-0.4-0.1,0
						c-0.2-0.4-0.5-0.7-0.8-1c-0.4-0.4-0.6-1-1-1.4c0.1,0.6,0.3,1.2,0.4,1.8c0.2-1.7-0.3-3-1.5-4.1c-2.8-2.8-7.9,0-6.7,3.9
						c0,0.2,0.1,0.3,0.1,0.5c0.4,1.4,1.5,2.7,2.9,3c0.2,0.1,0.5,0.1,0.7,0.2c-0.5-0.3-1-0.6-1.5-0.8c1.5,1.5,3.1,2.2,5,3
						c1,0.4,1.8,0.5,2.9,0.3c0.8-0.2,1.5-0.7,2.2-1C676.6,818.8,676.5,817.6,675.8,817.3L675.8,817.3z"/>
				</g>
				<g id="XMLID_77_">
					<path id="XMLID_120_" class="st19" d="M860.2,916c-0.8-1.2-1.2-2.9-2.3-3.8c-1.4-1.2-3.1-2.1-4.7-3c0.4,0.4,0.8,0.8,1.4,1.4
						c-1.7-2.5-4.6-3.6-7.3-1.9c-1.7,1.1-2.5,3.4-1.4,5.2c1.8,2.7,4.5,3.2,7.3,1.9c-0.6,0.2-1.3,0.3-1.9,0.5c1.6,0.2,3,1,4.5,1.2
						c1,0.1,2.2-0.2,3.2,0.2C859.9,917.7,860.8,916.8,860.2,916L860.2,916z"/>
				</g>
				<g id="XMLID_78_">
					<path id="XMLID_127_" class="st19" d="M1143,735.1c2.2-1,3.5-2.5,4.3-4.9c0.4-1.2,0.9-2.4,0.6-3.7c-0.3-1.5-1.3-2.2-2.2-2.9
						c-1-0.7-2.6-0.2-3.2,0.8c-0.2,0.4-0.4,0.8-0.5,1.3c0.2-0.4,0.5-0.8,0.7-1.3c-1.4,1.3-1.5,3.4-0.5,4.9c-0.1-0.5-0.3-1.1-0.4-1.6
						c0,1.3-0.5,2.7-1.4,3.7C1138.5,733.6,1140.6,736.2,1143,735.1L1143,735.1z"/>
				</g>
				<g id="XMLID_79_">
					<path id="XMLID_145_" class="st19" d="M1123.4,620.7c-1.6-1.2-2.8-2.9-4.4-4.1c-1.6-1.3-3.1-2.5-4.6-4c0.3,0.7,0.6,1.6,0.9,2.3
						c-0.2-2.8-1.7-4.5-4.5-5c-2.3-0.4-4.7,1.4-4,4c1,3.8,4.2,4.3,7.1,5.7c1.4,0.7,2.8,1.4,4.3,1.8c1.6,0.4,3,0.2,4.7,0.4
						C1123.7,622,1123.8,621,1123.4,620.7L1123.4,620.7z"/>
				</g>
				<g id="XMLID_80_">
					<path id="XMLID_152_" class="st19" d="M195.3,793.4c-0.2-0.1-0.5-0.6-0.6-0.8c-0.5-0.5,0.4,0.7-0.1-0.1
						c-0.4-0.6-0.8-1.2-1.4-1.8c-0.7-1.1-1.5-2.1-2-3.3c0.2,0.6,0.3,1.2,0.5,1.8c0,0.7,0.1-0.1,0.1-0.3c1.2-3.7-2.8-7-6.2-5.5
						c-3.4,1.4-3.9,6.5-0.5,8.3c0.4,0.2,0.8,0.4,1.3,0.6c-0.4-0.4-0.8-0.8-1.3-1.3c1.3,1.7,2.5,3.1,4.5,3.9c0.8,0.4,2,0.8,2.9,0.8
						c0.3,0,0.6,0,0.9-0.1c0.5,0,0.9-0.3,1.5-0.3C195.8,795.5,196.2,794,195.3,793.4L195.3,793.4z"/>
				</g>
				<g id="XMLID_81_">
					<path id="XMLID_159_" class="st19" d="M266.4,918.7c-2.2-1.9-5.6-2.4-8.2-3.8c-2.5-1.3-5.7-0.4-6.8,2.3c-1,2.4,0.2,5.9,3.1,6.6
						c3.9,0.7,10.1,0.6,12-3.5C266.8,919.7,266.8,919,266.4,918.7L266.4,918.7z"/>
				</g>
				<g id="XMLID_83_">
					<path id="XMLID_166_" class="st19" d="M369,907c1.9-0.6,3.7-1.3,5.4-2.1c1.7-0.7,3.1-1.6,4.6-2.4c2.8-1.6,1.9-6.2-1.3-6.5
						c-3.4-0.4-5,3.5-2.9,5.9c0.1,0.2,0.3,0.3,0.4,0.5c-0.1-1.1-0.3-2.1-0.4-3.2c-0.7,1.2-2.1,2-3,2.9c-1.3,1.1-2.5,2.3-3.7,3.5
						C367.7,906.3,368.2,907.3,369,907L369,907z"/>
				</g>
				<g id="XMLID_85_">
					<path id="XMLID_173_" class="st19" d="M302.7,1002.6c0.7,1.3,2,1.9,3.5,2.1c0.8,0.1,1.8,0,2.5-0.4c0.3-0.2,0.6-0.5,0.8-0.8
						c0.3-0.6,0.3-0.7,0.1-0.4c0.2-0.4,0.3-0.7,0.3-1.1c0.3-1.7-1.2-2.8-2.7-2.1c0.2-0.1-0.3-0.1,0,0c0.3-0.1,0.1,0-0.5,0.1
						c-0.2,0.1-0.4,0.2-0.5,0.2c-0.3,0.2-0.5,0.4-0.7,0.6c-0.3,0.2,0.4-0.2-0.1,0.1c-0.4,0.3-0.8,0.3-1.5,0.1
						C303.1,1000.6,302.2,1001.8,302.7,1002.6L302.7,1002.6z"/>
				</g>
				<g id="XMLID_101_">
					<path id="XMLID_180_" class="st19" d="M73.7,879.8c-3.8,0-7.4,1.5-11,2.2c-3.9,0.8-7.3,0-9.1,4.2c-0.3,0.8-0.4,2,0.3,2.7
						c0.6,0.5,1.3,1,2,1.4c1.3,0.6,2.8,0.8,4.1,0c4.6-3.2,10.8-4.1,14.6-8.6C75.1,881,74.6,879.8,73.7,879.8L73.7,879.8z"/>
				</g>
				<g id="XMLID_119_">
					<path id="XMLID_187_" class="st19" d="M8.8,689.2c-1.7-1.3-3.5-2.7-5.1-3.9c-1.3-1-3.9-2.3-4.5-3.8c-1-2.3-4.5-2-5.7,0
						c-1.3,2.1,0.3,5.1,2.8,5c1.5-0.1,4,1.9,5.2,2.5c1.9,1,3.9,1.9,5.8,3C9.1,692.8,10.3,690.5,8.8,689.2L8.8,689.2z"/>
				</g>
				<g id="XMLID_126_">
					<path id="XMLID_194_" class="st19" d="M1288.5,947.2c1.2-0.8,3.2,1.1,4.8,1.1c0.8,0,1.8-0.1,2.6-0.3c2.4-0.3,4.8-1.4,6-3.6
						c0.9-1.9,0.8-4.2-0.7-5.7c-2.4-2.4-6.2-2.3-9-0.6c-1.2,0.7-2.4,1.6-3.1,2.8c-1,1.9,0.1,4.1-1.2,5.8
						C1287.6,947,1288.2,947.4,1288.5,947.2L1288.5,947.2z"/>
				</g>
				<g id="XMLID_144_">
					<path id="XMLID_205_" class="st19" d="M799.8,994.4c-0.5-0.4-0.6-0.8-0.9-1.4c-0.4-0.7-1-1.3-1.5-1.9c-0.4-0.5-0.6-1.1-1-1.6
						c-0.5-0.6-0.7-0.6-1-1.5c-0.9-2.3-4.1-3.5-5.8-1.2c-1.7,2.3,0,5.1,2.6,5.4c0.5,0,0.9,0.2,1.5,0.2c-0.4-0.1-0.8-0.2-1.3-0.3
						c1.3,0.6,2.4,1,3.7,1.5c1.2,0.4,2.4,0.6,3.5,1.3C799.7,995,800,994.6,799.8,994.4L799.8,994.4z"/>
				</g>
				<g id="XMLID_151_">
					<path id="XMLID_220_" class="st19" d="M1347.2,716.3c0.1-0.4,0.2-1,0.2-1.4c-0.2,0.2-0.4,0.5-0.5,0.7c1.2-0.5,2.4-1.1,3-2.2
						c0.4-0.8,0.6-1.7,0.5-2.7c-0.3-2-2-3.7-4.1-3.7c-1.9,0.1-3.5,1.3-4,3.1c-0.3,1-0.1,2.4,0.4,3.3c0.7,1.2,1.8,1.6,3,2.2
						c-0.2-0.2-0.4-0.5-0.5-0.7c0.1,0.4,0.2,1,0.2,1.4C1345.7,717.3,1347.1,717.3,1347.2,716.3L1347.2,716.3z"/>
				</g>
				<g id="XMLID_158_">
					<path id="XMLID_227_" class="st11" d="M945.4,806.7c-0.2-2-0.2-3.8-0.2-5.8c-0.3,0.6-0.6,1.2-1,1.8c2.3-1.4,4-3.6,3.2-6.6
						c-0.7-2.8-3.8-4.6-6.5-3.7c-2.7,0.7-4.5,3.8-3.7,6.6c0.7,2.9,3.2,3.9,6,3.9c-0.6-0.3-1.2-0.6-1.8-1.1c1,1.7,1.9,3.3,2.6,5.1
						C944.3,807.6,945.4,807.3,945.4,806.7L945.4,806.7z"/>
				</g>
				<g id="XMLID_165_">
					<path id="XMLID_234_" class="st11" d="M1187.6,970.6c1.3-2,2.9-2.3,4.3-4c1.9-2.3,3.2-4.3,5.6-6.4c2.6-2.2,1.4-6.6-1.6-7.7
						c-3.2-1.4-6.4,1.1-6.6,4.3c-0.2,2.7-0.8,4.8-1.6,7.3c-0.6,2.1,0.1,4-0.7,6.3C1187,970.7,1187.5,970.8,1187.6,970.6
						L1187.6,970.6z"/>
				</g>
				<g id="XMLID_172_">
					<path id="XMLID_241_" class="st11" d="M1352.1,953.2c-0.6-2.2-0.9-4.5-2.1-6.5c-1-1.9-3.5-3.7-3.8-5.8c-0.5-3.1-5.1-4.2-7-1.9
						c-0.5,0.5-0.9,1.1-1,1.9c-0.5,3.9,2.6,6.4,6.2,4.9c-0.6,0.1-0.6,0.3,0.2,0.5c0.4,0.2,0.8,0.5,1.3,0.8c0.7,0.5,1.4,1.2,2,1.8
						c1.4,1.4,2.6,2.8,3.4,4.6C1351.4,954.1,1352.4,953.9,1352.1,953.2L1352.1,953.2z"/>
				</g>
				<g id="XMLID_179_">
					<path id="XMLID_248_" class="st11" d="M430,887.9c0.1-2.1,0.3-4.7-0.3-6.7c-0.3-1.1-0.7-2-1.3-3.1s-1.3-2-1.8-3.2
						c-2.5-5.5-10.7,2.1-5,5.1c1.5,0.7,2.5,2.5,3.5,3.8c1,1.5,1.9,2.4,2.5,4.2C428,889.6,429.9,889.3,430,887.9L430,887.9z"/>
				</g>
				<g id="XMLID_186_">
					<path id="XMLID_255_" class="st11" d="M179.6,738.9c3-2,6.1-3.9,9.1-5.8c-0.5,0.1-0.9,0.3-1.5,0.4c1.4-0.1,2.4-0.2,3.6-1
						c2.2-1.5,2.7-4.5,0.8-6.4c-1.9-1.9-4.9-1.4-6.3,0.8c-0.7,1.2-0.9,2.2-0.9,3.6c0.1-0.5,0.3-1,0.4-1.5c-1.9,3.1-3.7,6.2-5.8,9.2
						C178.7,738.7,179.3,739.2,179.6,738.9L179.6,738.9z"/>
				</g>
				<g id="XMLID_193_">
					<path id="XMLID_262_" class="st11" d="M121.2,790.1c-0.4,1.4-1.2,2.8-2.1,3.8c-1.3,1.4-3,2.2-3.4,4.3c-0.3,1.5,0.4,3.4,2.1,3.7
						c5.7,1.1,8.5-6.6,8.6-11.1C126.4,787.7,122.2,787.3,121.2,790.1L121.2,790.1z"/>
				</g>
				<g id="XMLID_200_">
					<path id="XMLID_269_" class="st11" d="M610.4,941.7c-0.2-0.7,0-1.5-0.3-2.3c-0.4-1.2-1.3-2.3-2.1-3.3c-1.7-1.9-4.3-3.4-6.6-4.5
						c-1.4-0.6-3.7-0.5-4.4,1.2c-0.2,0.5-0.4,1-0.4,1.6c-0.1,1.8,1.6,3.1,3.1,3.2c2.1,0.2,3.6,1.2,5.2,2.3c0.7,0.5,1.6,1.1,2.3,1.6
						c0.5,0.3,1.4,0.5,1.8,1C609.8,942.8,610.7,942.3,610.4,941.7L610.4,941.7z"/>
				</g>
				<g id="XMLID_201_">
					<path id="XMLID_275_" class="st11" d="M521.7,997.2c-2.1-0.5-3.8-1.5-6-2c-0.9-0.2-1.9-0.5-2.9-0.7s-2.1,0-3.1-0.2
						c-3.5-0.6-6.7,2.1-5.8,5.8c0.9,3.5,5.3,4.6,7.9,2.1c1-1.1,2.8-1.8,4.3-2.4c1.6-0.6,3.9-1.6,5.6-1.7
						C522.2,998.1,522.3,997.4,521.7,997.2L521.7,997.2z"/>
				</g>
				<g id="XMLID_207_">
					<path id="XMLID_280_" class="st11" d="M279.9,962.9c2.3-1.7,4.5-3,6.6-5c2-1.9,3.9-4.9,6.3-6c3-1.5,2.3-6.2-0.5-7.3
						c-3.2-1.4-6.1,1.6-5.6,4.9c0.3,2-1.8,5-2.7,6.7c-1.4,2.2-2.7,4.7-4.5,6.5C279.4,962.8,279.7,963.1,279.9,962.9L279.9,962.9z"/>
				</g>
				<g id="XMLID_208_">
					<path id="XMLID_287_" class="st16" d="M31.9,949.6c-0.8-1-1.8-1.6-2.8-2.3c0.2,0.3,0.4,0.7,0.6,1.1c-0.3-3-4.3-4.8-6.4-6.4
						c0.5,0.8,0.9,1.7,1.5,2.5c0-0.3,0-0.5-0.1-0.8c-0.3-4.1-5.8-6.2-8.1-2.2s2.2,7.8,5.9,5.9c0.2-0.1,0.5-0.2,0.7-0.4
						c-0.7,0.1-1.5,0.2-2.2,0.3c2.3,1,5.4,3.2,8.1,2.1c-0.4,0-0.8,0-1.3,0c1.2,0.5,2.2,1,3.4,1.3C31.9,951,32.3,950.2,31.9,949.6
						L31.9,949.6z"/>
				</g>
				<g id="XMLID_214_">
					<path id="XMLID_294_" class="st16" d="M1175.9,915.4c0.8-1.6,1.6-3.2,2.2-4.9c0.7-2,2-3.6,2.7-5.5c-1,0.8-2.1,1.7-3.2,2.4
						c5.9,0,8-8.7,1.9-10.4c-6.1-1.7-8.9,7-3.6,9.9c-0.5-1-1-1.9-1.7-2.9c-0.1,1.8,0.2,3.5,0,5.4c-0.2,1.8-0.3,3.6-0.3,5.4
						C1173.9,915.9,1175.4,916.3,1175.9,915.4L1175.9,915.4z"/>
				</g>
				<g id="XMLID_215_">
					<path id="XMLID_301_" class="st22" d="M1027.8,808.7c0.9-1.2,1.6-2.1,2-3.6c0.5-1.7,0.5-3.2,1.9-4.3c4-3.4,0.6-10.1-4.1-10.1
						c-4.7,0-8.2,6.7-4.1,10.1c0.8,0.7,0.9,1,1.3,2c0.2,0.7,0.4,1.5,0.6,2.3c0.4,1.5,0.9,2.4,2,3.6
						C1027.3,808.8,1027.6,808.8,1027.8,808.7L1027.8,808.7z"/>
				</g>
				<g id="XMLID_216_">
					<path id="XMLID_308_" class="st22" d="M1272.1,749.9c-0.2-2.1-0.6-3.6-1.7-5.4c-1.2-1.9-3-3.3-4-5.2c-0.7-1.6-3.4-2.8-5-2
						c-2.8,1.2-4.6,3.6-2.6,6.6c0.9,1.5,3.1,2.9,5,2c2.4-1,6.3,2.7,7.8,4.2C1271.8,750.3,1272.2,750.2,1272.1,749.9L1272.1,749.9z"
						/>
				</g>
				<g id="XMLID_217_">
					<path id="XMLID_315_" class="st22" d="M853.7,707.6c-0.3-0.4-0.4-1.2-0.8-1.7c-0.7-1-2.1-1.9-3-2.7c-2-1.6-3.9-3.3-6-4.9
						c-2.5-1.9-6.1-2-7.8,1.1c-1.7,2.9-0.1,6.5,2.9,7.4c2.5,0.7,5,1.4,7.5,2.1c1.2,0.3,2.4,0.6,3.6,0.8c1,0.2,1.8-0.2,2.7-0.1
						C853.9,709.9,854.4,708.4,853.7,707.6L853.7,707.6z"/>
				</g>
				<g id="XMLID_218_">
					<path id="XMLID_322_" class="st22" d="M371,693.2c-2,0.1-3.9,0.3-5.9,0.6c-2.1,0.4-4.3,0.5-6.1,1.7c-3.1,2-1,6.6,2.5,5.9
						c2.1-0.3,3.8-1.9,5.6-3c1.7-1,3.1-2.2,4.7-3.5C372.5,694.6,371.9,693.2,371,693.2L371,693.2z"/>
				</g>
				<g id="XMLID_219_">
					<path id="XMLID_329_" class="st22" d="M308.5,639.6c-0.3-0.1-0.6-0.1-0.9-0.2c0.4,0.3,0.8,0.6,1.3,1c-1-1.6-2.5-2.2-4.4-1.7
						c-1.2,0.3-2.4,0.7-3.4,1.5c-0.9,0.6-0.9,1.8,0,2.4c0.9,0.6,2.2,1.2,3.4,1.5c1.9,0.5,3.4-0.1,4.4-1.7c-0.4,0.3-0.8,0.6-1.3,1
						c0.3-0.1,0.6-0.1,0.9-0.2C310.2,642.7,310.2,640,308.5,639.6L308.5,639.6z"/>
				</g>
				<g id="XMLID_226_">
					<path id="XMLID_324_" class="st22" d="M198,626.2c-0.9,0-1.9-0.1-2.9-0.1c-0.8,0-1.7-0.3-2.3,0.4c-0.2,0.3-0.2,0.6,0,1
						c0.5,0.7,1.5,0.4,2.3,0.4c0.9,0,1.9-0.1,2.9-0.1C199.1,627.8,199.1,626.3,198,626.2L198,626.2z"/>
				</g>
				<g id="XMLID_233_">
					<path id="XMLID_317_" class="st22" d="M1073.9,632.5c0.9,1.7,3.2,1,4.6,0.4c1.5-0.6,3.5-2,3.9-3.7c0.2-0.8-0.3-1.5-1-1.8
						c-1.5-0.6-4,0.2-5.2,1.1C1074.9,629.3,1072.9,630.7,1073.9,632.5L1073.9,632.5z"/>
				</g>
				<g id="XMLID_240_">
					<path id="XMLID_310_" class="st22" d="M1285.3,605c-0.8-2-1.6-4.1-2.6-6.2c-0.2-0.5-0.5-1-0.7-1.5c0-0.5,0-1.2-0.1-1.7
						c-0.3-1.3-1.3-1.8-2.2-2.5c-2.5-1.9-5.1,1.3-4.7,3.7c0.2,1.3,0.6,2.2,1.8,3c1,0.6,1.4,1.4,2.1,2.4c1.3,1.7,2.6,3.2,4,4.8
						C1284,608.5,1286,606.5,1285.3,605L1285.3,605z"/>
				</g>
				<g id="XMLID_247_">
					<path id="XMLID_303_" class="st22" d="M1286.8,552.6c-0.5-1.5-0.3-2-0.6-3.5c-0.3-1.5-0.9-2.9-1.6-4.3
						c-0.7-1.7-3.2-1.9-4.5-0.8c-1.6,1.3-1.5,3.2-0.3,4.7c0.8,1.1,1.6,2.1,2.6,3c1,0.8,1.8,1.1,2.7,2.2
						C1285.7,554.4,1287.2,553.6,1286.8,552.6L1286.8,552.6z"/>
				</g>
				<g id="XMLID_254_">
					<path id="XMLID_296_" class="st22" d="M1118.5,551.8c2.2,0.1,4.3-1,5.7-2.7c1.4-1.7,2.4-4.9,0-6.3c-0.5-0.3-1.2-0.2-1.6,0.2
						c-1.6,1.7-1.3,5.1-4.1,5.4C1116.5,548.9,1116.4,551.7,1118.5,551.8L1118.5,551.8z"/>
				</g>
				<g id="XMLID_261_">
					<path id="XMLID_289_" class="st22" d="M525.7,639.7c0.3-2.9,0.7-5.6,0.7-8.5c0-3.6-5.6-3.6-5.6,0c0,2.9,0.4,5.6,0.7,8.5
						C521.8,642.3,525.4,642.3,525.7,639.7L525.7,639.7z"/>
				</g>
				<g id="XMLID_268_">
					<path id="XMLID_282_" class="st22" d="M603,691.2c0.2-0.1,0.4-0.2,0.6-0.2c-0.4-0.1-0.8-0.1-1.4-0.2c1.2,0.5,2.5,0.2,3.8-0.2
						c0.7-0.2,1.4-0.6,2-1.2c0.7-0.6,0.9-1.3,1.3-2.1c0.5-1.5-0.8-3-2.2-3c-1.5,0-2.9,0.5-3.9,1.7c-0.7,0.8-1.8,2.1-1.8,3.3
						c0.2-0.4,0.3-0.8,0.5-1.3c-0.2,0.2-0.3,0.3-0.5,0.5C600.5,689.6,601.5,691.8,603,691.2L603,691.2z"/>
				</g>
			</g>
		</g>
	</g>
</g>
</svg>
