<?xml version="1.0" encoding="utf-8"?>
<!-- Generator: Adobe Illustrator 19.0.0, SVG Export Plug-In . SVG Version: 6.00 Build 0)  -->
<svg version="1.1" id="Layer_1" xmlns="http://www.w3.org/2000/svg" xmlns:xlink="http://www.w3.org/1999/xlink" x="0px" y="0px"
	 width="1400px" height="980px" viewBox="0 0 1400 980" enable-background="new 0 0 1400 980" xml:space="preserve">
<g id="XMLID_4_">
	<linearGradient id="XMLID_7_" gradientUnits="userSpaceOnUse" x1="700" y1="729.8431" x2="700" y2="48.6098">
		<stop  offset="0" style="stop-color:#E1F4FD"/>
		<stop  offset="1" style="stop-color:#9DDCF9"/>
	</linearGradient>
	<rect id="XMLID_28_" fill="url(#XMLID_7_)" width="1400" height="980"/>
	<g id="XMLID_3_">
		<defs>
			<rect id="XMLID_2_" width="1400" height="980"/>
		</defs>
		<clipPath id="XMLID_8_">
			<use xlink:href="#XMLID_2_"  overflow="visible"/>
		</clipPath>
		<g id="XMLID_1_" clip-path="url(#XMLID_8_)">
			<linearGradient id="XMLID_18_" gradientUnits="userSpaceOnUse" x1="589.56" y1="455" x2="589.56" y2="699.4013">
				<stop  offset="0" style="stop-color:#5BB2E4"/>
				<stop  offset="1" style="stop-color:#225465"/>
				<stop  offset="1" style="stop-color:#07688E"/>
			</linearGradient>
			<path id="XMLID_40_" fill="url(#XMLID_18_)" d="M1122.6,588.2C955.2,755.6,753.4,784.5,702.9,785c-50.5,0.5-409.4-57-451.8-67.5
				c-42.4-10.5-194.5-161-194.5-161s240,12.7,444.8-89.5c28.7-14.3,56.7-30.9,83.3-50.1c22,8,34.1,0,34.1,0s29.3,24.3,81.7,54.7
				C787.1,521.8,937,588.2,1122.6,588.2z"/>
			<linearGradient id="XMLID_20_" gradientUnits="userSpaceOnUse" x1="500.3118" y1="919" x2="500.3118" y2="584.1389">
				<stop  offset="0" style="stop-color:#7DB2BC"/>
				<stop  offset="0.9839" style="stop-color:#215263"/>
			</linearGradient>
			<path id="XMLID_30_" fill="url(#XMLID_20_)" d="M1009.2,852.8c7.9-9.7,16-19.3,22.3-30.1c6.4-10.9,12.4-24.7,12.5-37.6
				c0.1-10.4-4.8-21.3-7.9-31.1c-3.7-11.5-10.9-21.6-19.1-30.3c-3.4-3.6-7.7-6.7-10.9-10.5c-3-3.6-4.3-9.8-9-11.9
				c-2.2-0.9-3.9,0.2-6-0.2c-2.3-0.5-3.6-1.6-5.6-2.7c-6.9-3.7-14.4-7.9-21.7-11.2c-8.9-4-17.1-9.2-26.9-11.7
				c-5.8-1.5-10.5-5.7-16.3-6.6c-7.3-1.2-15.8,1.8-22.7,3.6c-12.7,3.3-29.2,4.3-42.4,2.1c-9.7-1.6-18.6-7.7-28.5-7.6
				c-6.5,0.1-13.2-0.7-19.6,0.3c-8.8,1.4-16.9,4.3-25.9,5.3c-6.1,0.7-12.2,1-18.2,1.8c-13,1.7-24.6,5.4-37.9,4.7
				c-6.3-0.3-12.2-3.5-17.9-6.1c-9.4-4.4-17.6-11.3-27.4-14.3c-11.2-3.4-23.5,1-34.6-2.1c-6.5-1.8-10.3-6.7-15.4-10.5
				c-4.7-3.5-12.6-5.6-18.4-6.7c-6.4-1.2-14.4-0.9-20.9,0c-7.9,1.1-16,1.1-23.8,2.6c-11.9,2.3-28.2,2.5-40-0.4
				c-7-1.7-12.3-5.7-19.5-7.2c-8-1.6-16.5-1.8-24.1-4.9c-6.1-2.4-10-7.2-15.2-10.6c-5.3-3.4-12.6-3.9-18.6-5.4
				c-9.8-2.5-19.4-1.8-29.2-3.9c-7-1.5-13.1-5.2-19.4-8.6c-13.5-7.1-24-16.5-39.9-18.1c-5.6-0.6-7.1-0.2-11.9-3.4
				c-4.4-3-9.4-4.6-14.1-6.9c-7.7-3.8-12.9-11.1-20.5-15.2c-5.6-3.1-12-4.3-18.3-4.4c-9.9-0.1-18.9-0.9-28.8-2.5
				c-6-1-11.5-1.6-17.6-1.5c-13.4,0.2-26.9,0.1-40.4,0.1c-4.5,0-8.9,0-13.4,0c-4.7,0-7.8,1.1-12.2,1.8c-3.4,0.6-7.2,0.4-10.6-0.3
				c-5.4-1.1-10.4-1-15.9-1.7c-5.8-0.7-13-3.3-18-6.3c-4.6-2.8-7.8-7.3-12.2-10.4c-4.1-2.8-7.5-6.8-11.7-9.4c-8-4.8-18.5-4-27.4-3.9
				c-11.4,0-22.3,1.9-33.4,3.7c-5.3,0.8-7.8-0.5-12.6-2.4c-6.4-2.5-13.7-2.8-20.5-3.7c-13-1.8-23.2-6.3-34.7-12.6
				c-3.7-2-7.7-3.5-11.6-5c-3.4-1.3-7.5-1.3-10.5-3.3c-8.2,17.2-6.3,40.2-7.2,58.6c-1.7,35.9-0.4,73.4,3.8,109.1
				c4.1,35.1,12.6,69.4,16.8,104.5c3.8,31.8,4.2,63.8,8,95.6c2.7,22.8,7,45.7,7.3,68.7c0.2,18.8-7.6,40.6,1.5,58.2
				c4.1,8,14.1,14.8,21.9,18.9c12.5,6.6,26.5,7.9,40.5,8.3c24.5,0.6,49.3-2.1,73.7-3.4c34.8-1.9,69.8-4.5,104.6-4.9
				c62.9-0.8,125.6,6.8,188.5,4.6c39.5-1.4,78.8-5.2,118.1-8.2c33-2.6,65.9-4.8,98.6-9.6c34.5-5.1,68.6-12.9,101.8-23.9
				c23.2-7.7,46-16.7,69.5-23.6c23.9-6.9,48.4-12.3,71.6-21.6c17-6.8,33.4-14.8,49.7-23c15-7.6,30.3-15,44.9-23.4
				C990.8,873.2,1000.1,864,1009.2,852.8z"/>
			<linearGradient id="XMLID_21_" gradientUnits="userSpaceOnUse" x1="825.995" y1="441" x2="825.995" y2="887.1121">
				<stop  offset="0" style="stop-color:#123E4C"/>
				<stop  offset="1" style="stop-color:#215263"/>
			</linearGradient>
			<path id="XMLID_133_" fill="url(#XMLID_21_)" d="M1002.3,724.8v-6h-4.2v3.7c0,0-17.7-2.1-39.5-6.6c-21.8-4.5-55.9-18.5-55.9-18.5
				V694h-6.3v-6.4c0,0,5.3,0,5.8,0s0-2.3,0-2.3h-5.8v-6.4h6.8v-3.7c0,0-3.1,0-8.2,0s-16-3.2-16-3.2v-11.6h2.9v-5.4h13.9v-2.2h-3.5
				v-2.6c0,0,25.3-1.1,31.1-1.1c6,2.9,9.7,3.5,9.7,3.5h1v-6.1H927v-4.2c0,0,27.4-2.1,44.8-4.7c5.8,1,10.1,1.3,10.1,1.3h2.1v-4.2h4.2
				l5.6-4.8v-2.6h-11.5v-5.8h-5.6v2.6c0,0-37.9-2.1-84.6-21.8c0-4.8,0-6.1,0-6.1h5v-2.7h-5.6v-5.6h6.3v-2.6h-30.6v-11.9h3.9v-2.7
				h-1.4v-1.3l1.6-1.9h17.1v-2.1h-3.5v-2.9h10v-2.3h8.9c0,0,7.1,5.2,13.4,6.3c1,0,1,0,1,0v-4.8h-3.4v-6l6.6-6.8v-1.5h-6.3v-1.9
				c0,0,18.5,0.8,36-1.4c13.4,1,14.8,0.8,14.8,0.8v-5.2h1.8l3.9-4v-2.7h-7.3l-3.5-2.3v-7.4h-4.4v3.4c0,0-16.6-5.3-45.9-17.7
				c-29.3-12.4-80.1-39.7-80.1-39.7v-1.9H826v-6.9h-6V454h-1.1v-1.3h-2.4v-2.4h-1.9v-2.1h4.7v-4.5h1.8v-2.6h-6.4v-5h6.9v-3.4h-6.9
				v-4.7h6.9v-3.4h-6.9V420h6.9v-3.4h-6.9v-3h6.9v-3.4h-6.9v-3h6.9v-3.4h-6.9v-4.7h6.9v-3.4h-6.9v-4.7h6.9v-3.4h-6.9v-4.7h6.9v-3.4
				h-6.9v-2.6h6.9v-3.4h-6.9v-4.7h5.2l-2.1-16.5l-3.1-2.2v-5h1.5v-3.1h-1.5v-3.4h1.5v-3.1h-1.5v-7.2h-2.9v7.2H810v3.1h1.6v3.4H810
				v3.1h1.6v4.7l-3.7,2.2l-1.6,16.8h5.3v4.7H804v3.4h7.6v2.6H804v3.4h7.6v4.7H804v3.4h7.6v4.7H804v3.4h7.6v4.7H804v3.4h7.6v3H804
				v3.4h7.6v3H804v3.4h7.6v4.7H804v3.4h7.6v4.7H804v3.4h7.6v5h-7.1v2.6h1.9v4.5h5.2v2.1h-3.1v3.2h-1.4v0.8h-1.8v6h-5.6v7.3h-3.4
				l-0.5,2.6c0,0-96.4,51.6-110.3,57.4c0-2.9,0-2.9,0-2.9l-5.8,1.3v6.1L670,534l6.1,6.1l-1,4.2h16.4v1.6h21l6.1,6.1l-0.6,6.4
				l-3.5,2.6l0.3,3.5l14.2-4.8l0.6,4.8l8.7-3.9l1.6,5.5h18.4l1.3,3.9l0.3,13.2h-28.7v3.1h7.6v4.3h-6v3.4h5.8v4
				c0,0-49.6,15.6-70.9,15.8c0-2.1-0.8-3.1-0.8-3.1s-6.1,2.4-5.6,6.6c-2.9,0.5-8.9,0-8.9,0v2.4c0,0,4.5,3.7,7.6,5.6
				c0,3.4,0,3.4,0,3.4h6.3c0,0,3.4,2.7,5,3.1c0,4,0,5.8,0,5.8h2.6v-4.2c0,0,17.6,5.3,27.9,7.6c0,3.4,0,3.4,0,3.4h2.7v-1.8
				c0,0,8.2,2.3,14.3,1.8c0,4,0,6.6,0,6.6h2.9l10.1-5.8c0,0,3.4,0.8,3.5,1.3c0.2,0.5,0,7.9,0,7.9h2.3l7.4-3.9v9h2.9v-5h2.1v13.4
				h-23.1v2.3h7.1v6.4h-6.1v2.6h6.4v6.6c0,0-55.8,15.5-83,14.2c0-2.2,0-2.2,0-2.2s-5-1.8-6.8,4.2c-3.4,1-7.7,0-7.7,0v2.6l4.2,3.1v6
				h6.6c0,0,3.7,3.6,5.2,4.8c0,4.3,0,4.3,0,4.3h5.3c0,0,42.4,25.8,50.5,28.7s17.2,3.9,17.2,3.9v7.1h6.4v47.1l44.7,30.2l122.3-13.4
				v-69h2.1v-5.6c0,0,19,1,25.6,0.3c0-2.4,0-2.7,0-2.7H923v-2.4h18.7c0,0,5.8,2.1,11,2.9c0-4.8,0-4.8,0-4.8l-2.7-0.2l-0.8-3.4
				c0,0,26.4-3.2,45.3-6.6c9.7,1.6,14,2.3,14,2.3v-4.5l6.6-5.8v-1.9H1002.3z M882.6,647.9h1.4l2.8,2.8v0.5c0,0-5.2,0-5.4,0
				L882.6,647.9z M888.1,548.2h14.5l5.8,6.9v2.9l-20.3-6.9V548.2z M870.6,562.7l2.9-1.4h2.9l1.8,1.3v1.4h-7.6V562.7z M736,551.9
				c-3.6,3.1-11.5,4.7-11.5,4.7l-1-2.1l3.9-6.3h8.5C736,548.2,736,549.1,736,551.9z M747.7,677.2l-10.4-0.4v-6.2h2.3
				c0,0,5.1,3.3,8.1,4.3C747.7,677.2,747.7,677.2,747.7,677.2z M749.6,672.5c-4.5-0.4-7.1-1.9-7.1-1.9h7.1V672.5z M759.4,590.7
				h-17.3v-5h6.1v1h8.4l2.8,2.3V590.7z M879.5,674.6l6.4,1.7h-6.4V674.6z M893.1,685.2h-1.5l-12.1-3.2v-3.2h13.5V685.2z"/>
			<linearGradient id="XMLID_25_" gradientUnits="userSpaceOnUse" x1="1001.8153" y1="442.1258" x2="1001.8153" y2="888.2379">
				<stop  offset="0" style="stop-color:#123E4C"/>
				<stop  offset="1" style="stop-color:#215263"/>
			</linearGradient>
			<path id="XMLID_19_" fill="url(#XMLID_25_)" d="M1484.5,502.4c7.7-28.3,16.2-60.7,14.7-60.3c-22.7,6.7-46.1,16.8-69.8,19.2
				c-5.1,0.5-10.4,0.1-15.4,1.1c-15.8,3.1-28.9,17.1-41.8,25.9c-28.9,19.5-61.9,49.4-98.7,50.5c-4.9,0.1-10-0.9-14.7,0.5
				c-3.5,1-7.2,4.1-10.7,5.5c-5.3,2-11.6,4.4-17.2,5.5c-10.1,2-21.1-1.7-30.9,0.8c-7.7,1.9-9.8,9-16.9,11.2
				c-8.4,2.6-18.2,0.5-26-2.4c-6.7-2.5-11.1-3-18.6-3c-15.1-0.1-30.1,10.3-43.3,17.9c-21.1,12.2-44.5,15.8-67.7,21.9
				c-10,2.6-20.1,3.3-30.2,6c-7,1.9-14.4,1.8-20.6,5.7c-6.2,3.9-11.7,8.8-15.8,14.4c-5.6,7.6-12.8,9.8-20.3,15
				c-6.9,4.8-13.7,7.4-21.1,11.3c-7.6,3.9-11.6,11.4-18.6,16c-8.2,5.3-15.9,8.1-23.4,14.9c-5.3,4.8-10.7,8.1-17.2,11.3
				c-17.1,8.1-37.6,0.7-54.5,11c-3.6,2.2-6.3,5.3-9.8,7.7c-4.6,3.2-10.1,3.9-14.7,6.7c-6.6,4-8.3,6.8-17,5.5
				c-8.9-1.4-16.9-7-25.8-9.3c-8.1-2.1-14.6-2.9-23-2.9c-13.7,0-24.9,4.5-38.3,6.1c-19.1,2.3-38.3,10.6-52.4,24.5
				c-8.7,8.6-14.6,15.8-21.2,25.9c-3.8,5.8-11.5,11.7-17.2,15.7c-6.4,4.5-16,3.8-22.3,8.7c-5.6,4.3-11.5,9.8-16.6,15.1
				c-16.9,17.1-49.6,30.8-55.9,55.6c-6.3,24.8,24,40.3,43.3,44.5c93.2,20.4,189.7,16.8,285,13.1c180.8-7,362.1-14,541.1-40.2
				c54.4-8,111.7-19.2,151.9-56.7c-8.5-57.4-17.1-114.7-25.6-172.1c-5.5-37.3-22.5-69.7-13.8-107.3
				C1474.3,539.7,1479.1,522,1484.5,502.4z"/>
			<linearGradient id="XMLID_26_" gradientUnits="userSpaceOnUse" x1="3.2523" y1="930.8632" x2="3.2523" y2="478.5735">
				<stop  offset="5.376344e-003" style="stop-color:#FFFFFF"/>
				<stop  offset="1" style="stop-color:#EC938C"/>
			</linearGradient>
			<path id="XMLID_105_" fill="url(#XMLID_26_)" d="M99,1035c5-30,25-48,46-67c9-7,18-13,27-20c43-38,81-74,125-111c5-4,10-11,15-16
				c17-15,39-23,59-32c15.1-6,18.2-18.9,20.6-32.2c-0.6-0.4-1.2-0.9-1.9-1.2c-0.5-0.3-0.9,0.1-1,0.6c-0.2,1.3-0.3,2.6-0.5,3.8
				c-1.5-0.8-2.8-1.8-4.1-2.9c-0.4-0.3-0.9-0.2-1.1,0.3c-0.9,2.9-1.1,6-0.7,9c-5.7-0.4-10.7-3.4-11.3-9.1
				c-1.6-16.3-25.3-14.9-41-21.4c0.1-0.9,0.2-1.9,0.2-2.8c6.2,5.6,15.3,4.4,23,3.2c0.4-0.1,0.6-0.6,0.4-1c-1.2-1.6-2.6-3-4.2-4.2
				c2.4-1.3,5.2-3.7,3.4-6.6c-0.8-1.3-2.5-2-3.8-2.5c-1.5-0.6-3-1.1-4.6-1.4c-1.6-0.3-3.2-0.4-4.9-0.4c0.7-0.8,1.3-1.7,1.8-2.7
				c5,1.6,10.6,1.5,15.5-0.7c0.4-0.2,0.5-0.7,0.2-1c-1.2-1.2-2.4-2.4-3.6-3.6c1.7-0.6,3.4-1.2,5.2-1.8c0.3-0.1,0.5-0.6,0.3-0.9
				c-3.2-5.7-9.1-7.6-15.2-8.3c5-1.9,9.3-5.9,11-11.1c0.2-0.5-0.2-0.9-0.7-0.9c-1.3,0.1-2.6,0.1-3.9,0.2c0.6-1.6,1.3-3.1,2.2-4.5
				c0.3-0.4,0-1-0.5-1c-5.8-0.7-11.6,1.1-16.1,4.7c1.4-4.9-0.9-10.4-3.1-14.9c-0.3-0.7-1.3-0.3-1.2,0.4c0.1,1.5-1.1,3.1-2.7,3
				c-1.4-0.1-2.4-1.5-2.2-2.8c0.1-0.6-0.6-0.9-1.1-0.6c-3.9,2.9-5.7,7.7-5.5,12.4c-3.9,0.5-7.5,2.3-10.5,5c-0.4,0.3-0.8,0.7-1.2,1.1
				c-0.8-1-1.8-1.8-2.8-2.5c-1.1-2.7-2.6-5.3-4.4-7.6c2-1.9,3.6-4.3,4.5-7c0.2-0.5-0.2-0.9-0.7-0.9c-1.3,0.1-2.6,0.1-3.9,0.2
				c0.6-1.6,1.3-3.1,2.2-4.5c0.3-0.4,0-1-0.5-1c-5.8-0.7-11.6,1.1-16.1,4.7c1.4-4.9-0.9-10.4-3.1-14.9c-0.3-0.7-1.3-0.3-1.2,0.4
				c0.1,1.5-1.1,3.1-2.7,3c-1.4-0.1-2.4-1.5-2.2-2.8c0.1-0.6-0.6-0.9-1.1-0.6c-0.6,0.4-1.1,0.9-1.5,1.4c-0.1-0.7-0.2-1.4-0.4-2.1
				c-0.1-0.4-0.6-0.6-1-0.4c-1.4,1-2.8,2-4.1,2.9c-0.3-1.8-0.6-3.6-0.9-5.4c-0.1-0.3-0.5-0.6-0.8-0.5c-1.7,0.6-3.1,1.4-4.3,2.4
				c0.3-2.2,0.3-4.3,0-6.5c3.1,2.1,6.8,2.9,10.7,2.3c5.7-0.9,11-4.4,13.7-9.5c0.1-0.2,0.1-0.5,0-0.7c-1.6-2.5-3.8-4.3-6.5-5.5
				c2.1-1.2,4.2-2.2,6.4-3c0.5-0.2,0.7-0.9,0.2-1.2c-2.9-1.3-5.9-2.2-9-2.6c3.6-3.4,6-8.1,5.1-13.3c-0.1-0.5-0.6-0.5-1-0.4
				c-1.4,0.6-2.8,1.2-4.2,1.8c-0.1-3.4-0.7-6.8-1.7-10.1c-0.1-0.3-0.3-0.5-0.6-0.5c-4.9-0.1-9.4,1.9-13,5.1
				c-0.9,0.8-1.8,1.6-2.6,2.5c-1.3-4.9-3.8-9.5-7.2-13.3c-0.2-0.3-0.7-0.2-0.9,0c-1.7,1.7-3.1,3.6-4.1,5.8c-1-1.4-2-2.7-3.2-3.9
				c-1.1-1.1-2.5-2.8-4.2-2.7c-1.6,0.1-2.4,1.7-3,3c-0.9,1.9-1.6,3.9-2.1,5.9c-1.2,4.9-1.1,10.2,0.6,15c-4.2,0.3-8.4,1.7-11.9,4.2
				c-0.4,0.3-0.4,0.9,0,1.1c1.2,0.7,2.3,1.4,3.5,2.2c-0.6,0.4-1.2,0.9-1.9,1.3c-1.4-3-3.2-5.8-5.4-8.2c-0.2-0.3-0.7-0.2-0.9,0
				c-1.7,1.7-3.1,3.6-4.1,5.8c-1-1.4-2-2.7-3.2-3.9c-1.1-1.1-2.5-2.8-4.2-2.7c-1.6,0.1-2.4,1.7-3,3c-0.9,1.9-1.6,3.9-2.1,5.9
				c-1.2,4.9-1.1,10.2,0.6,15c-0.5,0-1.1,0.1-1.6,0.2c-0.6-0.6-1.3-1.3-1.9-1.9c0.5-0.1,1-0.1,1.4-0.2c0.4-0.1,0.6-0.6,0.4-1
				c-1.1-1.6-2.5-2.9-4-4.1c0-0.1,0-0.2,0-0.3c2.4-1.3,5-3.7,3.2-6.5c-0.8-1.3-2.5-2-3.8-2.5c-1.5-0.6-3-1.1-4.6-1.4
				c-1.6-0.3-3.2-0.4-4.9-0.4c4.2-5.2,5.9-12.4,4.2-18.9c-0.1-0.4-0.6-0.6-1-0.4c-1.4,1-2.8,2-4.1,2.9c-0.3-1.8-0.6-3.6-0.9-5.4
				c-0.1-0.3-0.5-0.6-0.8-0.5c-6.1,2.2-9.1,7.7-10.7,13.5c-1-5.3-4.2-10.1-9-12.8c-0.5-0.3-0.9,0.1-1,0.6c-0.1,0.6-0.1,1.1-0.2,1.7
				c-0.2,0-0.4,0-0.7,0c-0.7-0.7-1.5-1.3-2.3-1.9c2.4-1.3,5.2-3.7,3.4-6.6c-0.8-1.3-2.5-2-3.8-2.5c-1.5-0.6-3-1.1-4.6-1.4
				c-1.6-0.3-3.2-0.4-4.9-0.4c4.2-5.2,5.9-12.4,4.2-18.9c-0.1-0.4-0.6-0.6-1-0.4c-1.4,1-2.8,2-4.1,2.9c-0.3-1.8-0.6-3.6-0.9-5.4
				c-0.1-0.3-0.5-0.6-0.8-0.5c-6.1,2.2-9.1,7.7-10.7,13.5c-1-5.3-4.2-10.1-9-12.8c-0.5-0.3-0.9,0.1-1,0.6c-0.2,1.3-0.3,2.6-0.5,3.8
				c-1.5-0.8-2.8-1.8-4.1-2.9c-0.4-0.3-0.9-0.2-1.1,0.3c-1,3.3-1.1,6.8-0.5,10.2c-0.1,0.1-0.2,0.2-0.3,0.2c-0.3-1.8-0.6-3.6-0.9-5.4
				c-0.1-0.3-0.5-0.6-0.8-0.5c-3.9,1.4-6.6,4.2-8.4,7.5c-1.5-6.7-4.1-13.1-7.7-19c2.4-1.6,4.4-3.8,5.8-6.3c0.1-0.2,0.1-0.5,0-0.7
				c-0.7-1-1.5-1.9-2.4-2.8c5.3,1.5,11.3,0.7,16.7-0.2c0.4-0.1,0.6-0.6,0.4-1c-1.2-1.6-2.6-3-4.2-4.2c2.4-1.3,5.2-3.7,3.4-6.6
				c-0.8-1.3-2.5-2-3.8-2.5c-1.5-0.6-3-1.1-4.6-1.4c-1.6-0.3-3.2-0.4-4.9-0.4c4.2-5.2,5.9-12.4,4.2-18.9c-0.1-0.4-0.6-0.6-1-0.4
				c-1.4,1-2.8,2-4.1,2.9c-0.3-1.8-0.6-3.6-0.9-5.4c-0.1-0.3-0.5-0.6-0.8-0.5c-4,1.5-6.7,4.3-8.5,7.8c-0.1-0.3-0.1-0.6-0.2-0.9
				c-0.1-0.3-0.3-0.5-0.6-0.5c-1.4,0-2.7,0.1-4,0.4c-1.6-2.5-3.7-4.6-6.4-6.1c-0.5-0.3-0.9,0.1-1,0.6c-0.2,1.3-0.3,2.6-0.5,3.8
				c-1.5-0.8-2.8-1.8-4.1-2.9c-0.4-0.3-0.9-0.2-1.1,0.3c-0.5,1.8-0.8,3.7-0.8,5.6c-1.3-2.7-3-5.2-5-7.4c-0.2-0.3-0.7-0.2-0.9,0
				c-1.7,1.7-3.1,3.6-4.1,5.8c-1-1.4-2-2.7-3.2-3.9c-1.1-1.1-2.5-2.8-4.2-2.7c-1.6,0.1-2.4,1.7-3,3c-0.9,1.9-1.6,3.9-2.1,5.9
				c-1.2,4.9-1.1,10.2,0.6,15c-4.2,0.3-8.4,1.7-11.9,4.2c-0.4,0.3-0.4,0.9,0,1.1c1,0.6,1.9,1.2,2.9,1.8c-0.3,0.4-0.6,0.9-0.9,1.4
				c-1.2,0.8-2.4,1.6-3.6,2.5c0,0,0,0-0.1,0.1c-1.5-3.7-4.3-7-7.9-9c-0.5-0.3-0.9,0.1-1,0.6c-0.2,1.3-0.3,2.6-0.5,3.8
				c-1.5-0.8-2.8-1.8-4.1-2.9c-0.4-0.3-0.9-0.2-1.1,0.3c-1,3.5-1.1,7.1-0.4,10.5c-1.5,0.1-3,0.2-4.5,0.2c-0.6,0-1.1,0-1.7,0
				c1.3-1.3,1.9-2.9,0.8-4.7c-0.8-1.3-2.5-2-3.8-2.5c-1.5-0.6-3-1.1-4.6-1.4c-1.6-0.3-3.2-0.4-4.9-0.4c4.2-5.2,5.9-12.4,4.2-18.9
				c-0.1-0.4-0.6-0.6-1-0.4c-1.4,1-2.8,2-4.1,2.9c-0.3-1.8-0.6-3.6-0.9-5.4c-0.1-0.3-0.5-0.6-0.8-0.5c-6.1,2.2-9.1,7.7-10.7,13.5
				c-1-5.3-4.2-10.1-9-12.8c-0.5-0.3-0.9,0.1-1,0.6c-0.2,1.3-0.3,2.6-0.5,3.8c-0.2-0.1-0.4-0.2-0.6-0.3c-0.1-0.5-0.2-1-0.3-1.5
				c-0.1-0.4-0.6-0.6-1-0.4c-0.3,0.2-0.5,0.4-0.8,0.5c-0.5-0.4-1-0.8-1.5-1.2c-0.4-0.3-0.9-0.2-1.1,0.3c-0.3,1.1-0.5,2.1-0.7,3.2
				c-0.1,0-0.1,0.1-0.2,0.1c-0.3-1.8-0.6-3.6-0.9-5.4c-0.1-0.3-0.5-0.6-0.8-0.5c-5.4,1.9-8.3,6.4-10.1,11.4c-0.4,0-0.8-0.1-1.2-0.1
				c-0.2-0.6-0.4-1.1-0.6-1.7c3.3-5,4.6-11.4,3.1-17.3c-0.1-0.4-0.6-0.6-1-0.4c-1.4,1-2.8,2-4.1,2.9c-0.3-1.8-0.6-3.6-0.9-5.4
				c-0.1-0.3-0.5-0.6-0.8-0.5c-6.1,2.2-9.1,7.7-10.7,13.5c-1-5.3-4.2-10.1-9-12.8c-0.5-0.3-0.9,0.1-1,0.6c-0.2,1.3-0.3,2.6-0.5,3.8
				c-1.5-0.8-2.8-1.8-4.1-2.9c-0.4-0.3-0.9-0.2-1.1,0.3c-1.7,5.6-0.9,11.7,1.8,16.7c-3.2-1.6-7.1-1.4-10.8-0.6
				c-1.6-0.5-3.2-1-4.9-1.5c0.3-2.4,0.1-4.9-0.5-7.3c-0.1-0.4-0.6-0.6-1-0.4c-1.4,1-2.8,2-4.1,2.9c-0.3-1.8-0.6-3.6-0.9-5.4
				c-0.1-0.3-0.5-0.6-0.8-0.5c-6.1,2.2-9.1,7.7-10.7,13.5c-0.3-1.5-0.7-2.9-1.3-4.3c0.1-0.1,0.1-0.1,0.2-0.2c0.3-0.3,0.1-0.8-0.3-1
				c-0.2-0.1-0.4-0.2-0.6-0.3c-0.7-1.3-1.6-2.5-2.6-3.5c1.3-0.5,2.5-1.2,3.7-2c0.3-0.2,0.3-0.8,0-1c-1.7-1.3-3.6-2.2-5.6-2.9
				c0.1-1.7,0.2-3.3,0.3-4.9c0-0.4-0.5-0.7-0.9-0.6c-1.8,0.8-3.5,1.9-5,3.3c-0.2-0.7-0.5-1.4-0.8-2.1c1.2-2.2,1.8-4.7,1.7-7.5
				c-0.1-5.8-3-11.4-7.7-14.8c-0.2-0.1-0.4-0.2-0.7-0.1c-2.6,1.3-4.8,3.3-6.2,5.8c-0.9-2.2-1.6-4.4-2.2-6.7
				c-0.1-0.5-0.8-0.8-1.2-0.3c-1.7,2.7-2.9,5.6-3.8,8.6c-2.9-4.1-7.3-7-12.6-6.8c-0.5,0-0.6,0.5-0.5,0.9c0.4,1.5,0.8,2.9,1.2,4.4
				c-3.4-0.3-6.9-0.2-10.3,0.4c-0.3,0.1-0.5,0.3-0.6,0.6c-0.8,4.8,0.7,9.5,3.4,13.6c0.7,1,1.4,2,2.2,2.9c-5,0.7-9.9,2.5-14.1,5.5
				c-0.3,0.2-0.3,0.6-0.1,0.9c1.5,1.9,3.2,3.5,5.2,4.8c-1.5,0.8-2.9,1.7-4.3,2.7c-1.2,0.9-3.1,2.1-3.2,3.8c-0.1,1.6,1.4,2.6,2.5,3.4
				c1.8,1.1,3.6,2.1,5.6,2.8c2.8,1.1,5.8,1.7,8.8,1.8c-0.2,0.3-0.5,0.5-0.7,0.8c-0.3,0.4-0.1,0.9,0.4,1.1c1.2,0.4,2.4,0.8,3.7,1.2
				c-0.1,0.1-0.3,0.3-0.4,0.4c-14-0.7-28.6-0.3-34.2-11.7c-0.7,2.4-1.8,4.6-3.1,6.5c-2.5-1.1-5.2-1.7-8-2c5-1.9,9.3-5.9,11-11.1
				c0.2-0.5-0.2-0.9-0.7-0.9c-1.3,0.1-2.6,0.1-3.9,0.2c0.6-1.6,1.3-3.1,2.2-4.5c0.3-0.4,0-1-0.5-1c-5.8-0.7-11.6,1.1-16.1,4.7
				c1.4-4.9-0.9-10.4-3.1-14.9c-0.3-0.7-1.3-0.3-1.2,0.4c0.1,1.5-1.1,3.1-2.7,3c-1.4-0.1-2.4-1.5-2.2-2.8c0.1-0.6-0.6-0.9-1.1-0.6
				c-5.7,4.2-7,12.8-3.6,18.8c-4.7-2.1-10.5-1.5-14.5,2c-0.4,0.3-0.3,1,0.2,1.1c0.7,0.2,1.5,0.5,2.2,0.7c-1,0.6-2.1,1.2-3.1,1.9
				c-0.2,0.1-0.4,0.3-0.4,0.5c0.1,3.9,2.5,7.2,5.9,9c3.4,1.7,7.2,1.8,10.9,1.3c-1.6,2.5-2.3,5.3-2.3,8.2c-0.9,0.6-1.8,1.3-2.6,2
				c-0.8-2.6-2.6-5.8-5.8-4.6c-1.4,0.5-2.4,2.1-3.2,3.3c-0.9,1.3-1.7,2.7-2.3,4.2c-0.1,0.4-0.3,0.7-0.4,1.1
				c-1.4,0.2-2.8,0.3-4.2,0.4c-0.9-0.7-1.9-1.4-3-2c0.1-0.2,0.2-0.4,0.4-0.6c0.3-0.4,0-1-0.5-1c-1.3-0.1-2.5-0.2-3.8-0.1
				c-2.4-0.8-5-1.2-7.6-1.1c-0.3,0-0.5,0.2-0.6,0.5c-0.1-0.3-0.4-0.5-0.7-0.5c-1.1,0.1-2.2,0.1-3.3,0.2c-0.1-0.3-0.1-0.7-0.2-1
				c0.5-1.2,1.1-2.3,1.8-3.5c0.3-0.4,0-1-0.5-1c-0.9-0.1-1.8-0.1-2.8-0.1c-0.5-1.2-1.1-2.5-1.6-3.6c-0.3-0.7-1.3-0.3-1.2,0.4
				c0.1,1.5-1.1,3.1-2.7,3c-1.4-0.1-2.4-1.5-2.2-2.8c0.1-0.6-0.6-0.9-1.1-0.6c-1.9,1.4-3.3,3.3-4.2,5.4c0-4-1.8-8.3-3.5-11.8
				c-0.3-0.7-1.3-0.3-1.2,0.4c0.1,1.5-1.1,3.1-2.7,3c-1.4-0.1-2.4-1.5-2.2-2.8c0.1-0.6-0.6-0.9-1.1-0.6c-1.9,1.4-3.3,3.3-4.2,5.4
				c-0.2-0.5-0.5-1.1-0.8-1.6c-0.3-0.7-1.3-0.3-1.2,0.4c0.1,0.8-0.3,1.6-0.8,2.2c-0.4-2-1.3-3.9-2.7-5.5c0,0-0.1-0.1-0.1-0.1
				c6.5-2.1,10.7-9.4,9.7-16c3.6,3.7,9.2,5.2,14.2,3.4c0.4-0.2,0.6-0.8,0.2-1.1c-0.6-0.5-1.2-1-1.8-1.4c1.2-0.2,2.4-0.4,3.6-0.6
				c0.2,0,0.5-0.1,0.5-0.4c1.4-3.6,0.3-7.6-2.3-10.5c-0.2-0.3-0.5-0.5-0.7-0.8c0.5-1.5,0.7-3.1,0.7-4.7c0.3-0.3,0.3-0.7,0-0.9
				c0,0,0,0,0,0c0-0.3,0-0.6-0.1-0.9c3.6,3.7,9.2,5.2,14.2,3.4c0.4-0.2,0.6-0.8,0.2-1.1c-0.6-0.5-1.2-1-1.8-1.4
				c1.2-0.2,2.4-0.4,3.6-0.6c0.2,0,0.5-0.1,0.5-0.4c1.4-3.6,0.3-7.6-2.3-10.5c-2.5-2.8-6.1-4.3-9.7-5.2c6.7-5,7.4-14.1,7.7-21.9
				c0-0.4-0.5-0.7-0.9-0.6c-1.8,0.8-3.5,1.9-5,3.3c-0.8-2.6-2.6-5.8-5.8-4.6c-1.2,0.5-2.1,1.6-2.8,2.7c0-0.7,0.1-1.5,0.1-2.2
				c0-0.4-0.5-0.7-0.9-0.6c-1.8,0.8-3.5,1.9-5,3.3c-0.8-2.6-2.6-5.8-5.8-4.6c-1.4,0.5-2.4,2.1-3.2,3.3c-0.6,0.9-1.2,1.9-1.7,2.8
				c-1.7-0.4-3.5-0.5-5.4-0.4c-0.4,0-0.7,0.5-0.6,0.9c0.4,1,0.9,2,1.3,3c-4.2-3.5-9.6-5.5-15.1-5.3c-0.4,0-0.7,0.5-0.6,0.9
				c0.7,1.5,1.4,3.1,2.1,4.6c-1.8-0.1-3.7-0.1-5.5-0.2c-0.3,0-0.7,0.4-0.6,0.7c1,6.5,5.7,10.4,11.1,13.2c-0.9,0-1.9,0.1-2.8,0.2
				c-1.2-0.2-2.5-0.2-3.7-0.2c-0.4,0-0.7,0.5-0.6,0.9c0.1,0.1,0.1,0.2,0.2,0.3c-2.8,1.1-5.4,2.8-7.3,5.1c-0.3,0.4-0.1,0.9,0.4,1.1
				c1.1,0.4,2.3,0.7,3.4,1.1c0,0.1,0.1,0.2,0.1,0.3c-1,1.2-2.2,2.3-3.5,3.2c-0.4,0.3-0.4,0.9,0.1,1.1c2.6,1.4,5.4,2.2,8.2,2.4
				c1.7,1.4,3.6,2.6,5.6,3.7c-5.4-0.1-10.8,2.2-14.3,6.4c-0.3,0.4-0.1,0.9,0.4,1.1c1.1,0.4,2.2,0.7,3.4,1.1
				c-0.2,0.3-0.3,0.6-0.5,0.9c-0.9,0.9-1.8,1.8-2.9,2.6c-0.4,0.3-0.4,0.9,0.1,1.1c0.4,0.2,0.9,0.4,1.3,0.6c-0.1,0.5-0.2,1-0.3,1.6
				c-0.6-0.7-1.3-1.4-2-2c1.2-3.5,0.2-7.2-2.1-10c-2.4-2.9-5.9-4.6-9.5-5.6c6.8-4.7,7.9-13.9,8.4-21.6c0-0.4-0.5-0.8-0.8-0.6
				c-0.6,0.2-1.1,0.5-1.6,0.8c-0.4-0.6-0.8-1.2-1.3-1.8c-0.2-0.3-0.5-0.5-0.8-0.8c0.8-0.1,1.7-0.3,2.5-0.4c0.2,0,0.5-0.1,0.5-0.4
				c1.4-3.6,0.3-7.6-2.3-10.5c-1-1.2-2.2-2.1-3.6-2.9c1.1-3.9,1.4-8.2,1.5-12.2c0-0.4-0.5-0.7-0.9-0.6c-0.2,0.1-0.4,0.2-0.5,0.3
				c1-3.8,1.2-8,1.4-11.7c0-0.4-0.5-0.7-0.9-0.6c-1.8,0.8-3.5,1.9-5,3.3c-0.8-2.6-2.6-5.8-5.8-4.6c-1.4,0.5-2.4,2.1-3.2,3.3
				c-0.9,1.3-1.7,2.7-2.3,4.2c-0.6,1.5-1.1,3.1-1.3,4.7c-4.3-5.1-10.9-8.2-17.7-7.9c-0.4,0-0.7,0.5-0.6,0.9c0.7,1.5,1.4,3.1,2.1,4.6
				c-1.8-0.1-3.7-0.1-5.5-0.2c-0.3,0-0.7,0.4-0.6,0.7c0.6,3.8,2.4,6.7,5,9c0.4,0.8,0.7,1.7,1.1,2.5c-1.8-0.1-3.7-0.1-5.5-0.2
				c-0.3,0-0.7,0.4-0.6,0.7c0.2,1.4,0.6,2.7,1.1,3.9c-1.6,1-3.1,2.2-4.3,3.6c-0.3,0.4-0.1,0.9,0.4,1.1c1.2,0.4,2.4,0.8,3.7,1.2
				c-1.1,1.3-2.3,2.4-3.7,3.4c-0.4,0.3-0.4,0.9,0.1,1.1c1.2,0.7,2.5,1.2,3.9,1.6c-1.6,1-3.1,2.2-4.3,3.7c-0.3,0.4-0.1,0.9,0.4,1.1
				c1.2,0.4,2.4,0.8,3.7,1.2c-1.1,1.3-2.3,2.4-3.7,3.4c-0.4,0.3-0.4,0.9,0.1,1.1c2.7,1.4,5.6,2.2,8.5,2.4c0.8,3.6,2.8,6.4,5.5,8.7
				c0,0.4,0,0.8,0,1.2c-9.9-1.5-21.5,2.5-27.9,10.7c-10.4,13.4-10.2,32.1-7.7,49c8.1,54.8-12.1,103.7-6.7,160.4
				c6.7,70.6,15.5,141.1,26.6,211.1c0.4,2.2,0.7,4.5,1.1,6.7c6.7,41.4,15,83.3,35.7,119.7c20,35.2,50.6,63.4,84.7,85.2
				c80.9,51.6,180.4,67.7,276.2,62.8c34.2-1.8,68.2-6,101.9-11.9c-9.4-6.2-20.9-9-29-17.2C76,1143,92,1085,99,1035z M271.9,674.8
				c0.2,0.7,0.5,1.4,0.8,2c-0.5,0-0.9,0-1.4-0.1c-0.2-0.1-0.5-0.1-0.7-0.2C271.1,676,271.5,675.4,271.9,674.8z M256.7,659.8
				c0.6,1.3,1.3,2.5,2.1,3.6c-0.7,1.5-1.2,3-1.7,4.6c-0.4-1.9-1-3.8-1.9-5.5C255.6,661.6,256.1,660.7,256.7,659.8z M146.9,614.1
				c-0.6,0.2-1.1,0.4-1.7,0.7c-0.1-0.6-0.2-1.2-0.4-1.8C145.5,613.4,146.2,613.8,146.9,614.1z M96.6,575.1c0.8-0.1,1.7-0.3,2.5-0.6
				c-1.2,1.1-2.3,2.5-3,4c-0.6-1.2-1.3-2.2-2-3.3C94.9,575.3,95.8,575.2,96.6,575.1z M-290.5,540.9c0.8-0.6,1.6-1.3,2.3-2.1
				c0,0.9,0,1.8,0.1,2.7C-288.9,541.3-289.7,541.1-290.5,540.9z M-282,544.9c-1.2-1-2.5-1.8-3.9-2.5c0.7-0.7,1.8-1,2.8-0.6
				C-282.1,542.4-281.6,543.8-282,544.9z M-243.3,564.7c0.6-1,1-2,1.4-3.1c0.3,0.6,0.6,1.3,0.9,1.9
				C-241.8,563.9-242.6,564.3-243.3,564.7z M-112.1,560.9c0-0.1,0-0.2,0-0.3c0,0,0.1,0,0.1,0c0,0.2,0,0.5,0.1,0.7
				C-112,561.2-112.1,561-112.1,560.9z M46.5,561c0-0.1-0.1-0.3-0.1-0.4c0.1,0.1,0.2,0.3,0.3,0.4C46.6,561,46.5,561,46.5,561z"/>
			<linearGradient id="XMLID_27_" gradientUnits="userSpaceOnUse" x1="359.6695" y1="1032.8734" x2="359.6695" y2="635.2006">
				<stop  offset="5.376344e-003" style="stop-color:#FFFFFF"/>
				<stop  offset="1" style="stop-color:#EC938C"/>
			</linearGradient>
			<path id="XMLID_52_" fill="url(#XMLID_27_)" d="M637.4,840c-2.9-1.3-5.9-2.2-9-2.6c3.6-3.4,6-8.1,5.1-13.3
				c-0.1-0.5-0.6-0.5-1-0.4c-1.4,0.6-2.8,1.2-4.2,1.8c-0.1-3.4-0.7-6.8-1.7-10.1c-0.1-0.3-0.3-0.5-0.6-0.5c-4.9-0.1-9.4,1.9-13,5.1
				c-0.9,0.8-1.8,1.6-2.6,2.5c-1.3-4.9-3.8-9.5-7.2-13.3c-0.2-0.3-0.7-0.2-0.9,0c-1.7,1.7-3.1,3.6-4.1,5.8c-1-1.4-2-2.7-3.2-3.9
				c-1.1-1.1-2.5-2.8-4.2-2.7c-1.6,0.1-2.4,1.7-3,3c-0.9,1.9-1.6,3.9-2.1,5.9c-1.2,4.9-1.1,10.2,0.6,15c-1,0.1-2.1,0.2-3.1,0.4
				c0-5.1-1.8-10.4-6.9-12.4c-0.7-0.2-1,0.6-0.6,1.1c0.5,0.6-0.2,1.3-0.7,1.5c-0.6,0.3-1.1,0.1-1.6-0.3c-0.9-0.7-1.3-1.9-1.7-3
				c-0.1-0.4-0.6-0.7-1-0.4c-2,1.5-3.1,3.4-3.8,5.7c-4.2-3.1-8.4-6-12.8-8.7c-0.1-0.4-0.2-0.8-0.3-1.2c4.9,3,11.5,2.4,15.7-1.7
				c0.4-0.4,0.1-0.9-0.3-1.1c-0.8-0.3-1.5-0.6-2.3-0.9c1.8-1.6,3.6-3.1,5.3-4.7c0.2-0.2,0.3-0.6,0.1-0.8c-2.9-4.1-7.2-7.5-12.3-7.9
				c-0.2,0-0.4,0-0.6,0c0.2-5.3-1.5-11.1-6.9-13.1c-0.7-0.2-1,0.6-0.6,1.1c0.5,0.6-0.2,1.3-0.7,1.5c-0.6,0.3-1.1,0.1-1.6-0.3
				c-0.9-0.7-1.3-1.9-1.7-3c-0.1-0.4-0.6-0.7-1-0.4c-3.1,2.3-4.2,5.9-4.5,9.6c-1.7-2.8-4.8-4.7-8.1-4.6c-0.4,0-0.7,0.4-0.6,0.8
				c0.1,0.6,0.3,1.2,0.4,1.9c-2.3-0.6-4.6,1.3-5.3,3.6c-1.8-1-3.8-1.7-5.9-1.9c-0.2,0-0.4,0-0.6,0c0.2-5.3-1.5-11.1-6.9-13.1
				c-0.7-0.2-1,0.6-0.6,1.1c0.5,0.6-0.2,1.3-0.7,1.5c-0.6,0.3-1.1,0.1-1.6-0.3c-0.9-0.7-1.3-1.9-1.7-3c-0.1-0.4-0.6-0.7-1-0.4
				c-3.1,2.3-4.2,5.9-4.5,9.6c-1.1-1.8-2.8-3.2-4.8-4c0-1.7-0.2-3.3-0.6-5c-0.1-0.4-0.6-0.6-1-0.4c-1.4,1-2.8,2-4.1,2.9
				c-0.3-1.8-0.6-3.6-0.9-5.4c-0.1-0.3-0.5-0.6-0.8-0.5c-6.1,2.2-9.1,7.7-10.7,13.5c-0.5-2.9-1.7-5.6-3.5-7.9
				c2.1-2.3,3.9-4.9,5.3-7.7c0.3,0.5,0.7,0.9,1.1,1.3c0.3,0.3,0.8,0.2,1-0.1c2.4-4.4,3.2-9.5,2.5-14.4c3.1,2.1,6.8,2.9,10.7,2.3
				c5.7-0.9,11-4.4,13.7-9.5c0.1-0.2,0.1-0.5,0-0.7c-1.6-2.5-3.8-4.3-6.5-5.5c2.1-1.2,4.2-2.2,6.4-3c0.5-0.2,0.7-0.9,0.2-1.2
				c-2.9-1.3-5.9-2.2-9-2.6c3.6-3.4,6-8.1,5.1-13.3c-0.1-0.5-0.6-0.5-1-0.4c-1.4,0.6-2.8,1.2-4.2,1.8c-0.1-3.4-0.7-6.8-1.7-10.1
				c-0.1-0.3-0.3-0.5-0.6-0.5c-4.9-0.1-9.4,1.9-13,5.1c-0.9,0.8-1.8,1.6-2.6,2.5c-1.3-4.9-3.8-9.5-7.2-13.3c-0.2-0.3-0.7-0.2-0.9,0
				c-1.7,1.7-3.1,3.6-4.1,5.8c-0.7-0.9-1.4-1.8-2.1-2.6c3.6-1.7,6.7-4.4,8.7-8c0.1-0.2,0.1-0.5,0-0.7c-1.6-2.5-3.8-4.3-6.5-5.5
				c2.1-1.2,4.2-2.2,6.4-3c0.5-0.2,0.7-0.9,0.2-1.2c-2.9-1.3-5.9-2.2-9-2.6c3.6-3.4,6-8.1,5.1-13.3c-0.1-0.5-0.6-0.5-1-0.4
				c-1.4,0.6-2.8,1.2-4.2,1.8c-0.1-3.4-0.7-6.8-1.7-10.1c-0.1-0.3-0.3-0.5-0.6-0.5c-4.9-0.1-9.4,1.9-13,5.1
				c-0.9,0.8-1.8,1.6-2.6,2.5c-1.3-4.9-3.8-9.5-7.2-13.3c-0.2-0.3-0.7-0.2-0.9,0c-1.7,1.7-3.1,3.6-4.1,5.8c-1-1.4-2-2.7-3.2-3.9
				c-1.1-1.1-2.5-2.8-4.2-2.7c-1.6,0.1-2.4,1.7-3,3c-0.9,1.9-1.6,3.9-2.1,5.9c-1.2,4.9-1.1,10.2,0.6,15c-4.2,0.3-8.4,1.7-11.9,4.2
				c-0.4,0.3-0.4,0.9,0,1.1c1.2,0.7,2.3,1.4,3.5,2.2c-1.7,1.2-3.4,2.3-5,3.5c-0.2,0.1-0.3,0.3-0.3,0.5c-0.6-0.8-1.2-1.6-1.9-2.3
				c-0.2-0.3-0.7-0.2-0.9,0c-1.7,1.7-3.1,3.6-4.1,5.8c-1-1.4-2-2.7-3.2-3.9c-1.1-1.1-2.5-2.8-4.2-2.7c-1.6,0.1-2.4,1.7-3,3
				c-0.9,1.9-1.6,3.9-2.1,5.9c-1.2,4.9-1.1,10.2,0.6,15c-4.2,0.3-8.4,1.7-11.9,4.2c-0.4,0.3-0.4,0.9,0,1.1c1.2,0.7,2.3,1.4,3.5,2.2
				c-1.7,1.2-3.4,2.3-5,3.5c-0.3,0.2-0.4,0.6-0.2,0.9c1.9,3,4.6,5.4,7.8,7c3.7,1.8,7.8,2.5,11.8,1.9c0,0.6-0.1,1.3,0,1.9
				c0.1,2.2,0.5,4.4,1.2,6.5c-1.8,3.8-3.9,7.3-6.8,10.3c-0.2,0.2-0.4,0.4-0.6,0.5c-0.4-1-0.8-2-1.2-3c-0.6-1.3-1.4-2.8-3-3
				c-1.7-0.1-3.1,1.5-4.2,2.7c-1.2,1.2-2.2,2.5-3.2,3.9c-1-2.1-2.4-4.1-4.1-5.8c-0.2-0.2-0.7-0.3-0.9,0c-3.4,3.8-5.9,8.4-7.2,13.3
				c-0.8-0.9-1.7-1.7-2.6-2.5c-3.7-3.2-8.1-5.2-13-5.1c-0.3,0-0.5,0.2-0.6,0.5c-1,3.3-1.6,6.7-1.7,10.1c-0.2-0.1-0.4-0.2-0.6-0.2
				c-0.5-0.5-1.1-0.9-1.8-1c-0.2,0-0.3,0-0.5,0c-0.4-0.2-0.9-0.4-1.3-0.6c-0.3-0.1-0.9-0.1-1,0.4c-0.1,0.5-0.1,1-0.2,1.5
				c0,0,0,0,0,0c-0.9-0.2-1.7-0.3-2.6-0.3c1.7-4.7,1.8-10,0.6-15c-0.5-2-1.2-4-2.1-5.9c-0.6-1.3-1.4-2.8-3-3
				c-1.7-0.1-3.1,1.5-4.2,2.7c-1.2,1.2-2.2,2.5-3.2,3.9c-1-2.1-2.4-4.1-4.1-5.8c-0.2-0.2-0.7-0.3-0.9,0c-3.4,3.8-5.9,8.4-7.2,13.3
				c-0.8-0.9-1.7-1.7-2.6-2.5c-3.7-3.2-8.1-5.2-13-5.1c-0.3,0-0.5,0.2-0.6,0.5c-1,3.3-1.6,6.7-1.7,10.1c-1.4-0.6-2.8-1.2-4.2-1.8
				c-0.3-0.1-0.9-0.1-1,0.4c-0.9,5.2,1.5,9.9,5.1,13.3c-3.1,0.4-6.2,1.3-9,2.6c-0.6,0.3-0.3,1,0.2,1.2c1.6,0.6,3.2,1.3,4.7,2.1
				c-0.9,1.1-1.6,2.3-2.3,3.5c-0.9,0.8-1.8,1.8-2.5,2.9c-0.1,0.2-0.1,0.5,0,0.7c0.1,0.2,0.3,0.5,0.4,0.7c-0.5,1.2-0.9,2.4-1.2,3.6
				c-0.8-0.9-1.7-1.7-2.6-2.5c-3.7-3.2-8.1-5.2-13-5.1c-0.3,0-0.5,0.2-0.6,0.5c-1,3.3-1.6,6.7-1.7,10.1c-1.4-0.6-2.8-1.2-4.2-1.8
				c-0.3-0.1-0.9-0.1-1,0.4c-0.7,4,0.6,7.8,2.9,10.8c-0.1,1-0.2,1.9-0.1,2.9c-2.3,0.5-4.6,1.2-6.7,2.2c-0.6,0.3-0.3,1,0.2,1.2
				c2.2,0.8,4.3,1.9,6.4,3c-1.6,0.7-3,1.6-4.3,2.8c-0.5,0-1-0.1-1.5,0c-0.3,0-0.5,0.2-0.6,0.5c-1,3.3-1.6,6.7-1.7,10.1
				c-1.4-0.6-2.8-1.2-4.2-1.8c-0.3-0.1-0.9-0.1-1,0.4c-0.5,2.8,0,5.5,1.1,8c-0.7,0.5-1.4,1.3-1.9,1.8c-1.2,1.2-2.2,2.5-3.2,3.9
				c-1-2.1-2.4-4.1-4.1-5.8c-0.2-0.2-0.7-0.3-0.9,0c-2.1,2.3-3.7,4.8-5.1,7.6c-0.1-0.1-0.1-0.2-0.2-0.4c-0.6-1.3-1.4-2.8-3-3
				c-1.7-0.1-3.1,1.5-4.2,2.7c-0.4,0.4-0.8,0.8-1.1,1.3c-1.6-0.9-3.4-1.6-5.2-2c-0.3-0.4-0.7-0.8-1-1.1c-0.2-0.2-0.7-0.3-0.9,0
				c-0.2,0.2-0.4,0.5-0.6,0.7c-0.5,0-1-0.1-1.5,0c-0.3,0-0.5,0.2-0.6,0.5c-0.4,1.3-0.7,2.7-1,4c-1,1.7-1.9,3.5-2.5,5.3
				c-0.8-0.3-1.6-0.7-2.4-1c-0.3-0.1-0.9-0.1-1,0.4c-0.1,0.3-0.1,0.6-0.1,0.9c0,0,0,0,0,0c-3.7-3.2-8.1-5.2-13-5.1
				c-0.3,0-0.5,0.2-0.6,0.5c-1,3.3-1.6,6.7-1.7,10.1c-1.4-0.6-2.8-1.2-4.2-1.8c-0.3-0.1-0.9-0.1-1,0.4c-0.9,5.2,1.5,9.9,5.1,13.3
				c-3.1,0.4-6.2,1.3-9,2.6c-0.6,0.3-0.3,1,0.2,1.2c0.8,0.3,1.7,0.7,2.5,1c-1.1-0.2-2.1-0.3-3.2-0.2c-0.3,0-0.5,0.2-0.6,0.5
				c-1,3.3-1.6,6.7-1.7,10.1c-1.4-0.6-2.8-1.2-4.2-1.8c-0.3-0.1-0.9-0.1-1,0.4c-0.9,5.2,1.4,9.8,5,13.3c0,0-0.1,0.1-0.1,0.1
				c-1.2,0.2-2.4,0.4-3.5,0.7c-0.8-1.3-1.8-2.5-2.9-3.6c-0.2-0.2-0.7-0.3-0.9,0c-3.4,3.8-5.9,8.4-7.2,13.3c-0.8-0.9-1.7-1.7-2.6-2.5
				c-3.7-3.2-8.1-5.2-13-5.1c-0.3,0-0.5,0.2-0.6,0.5c-1,3.3-1.6,6.7-1.7,10.1c-1.4-0.6-2.8-1.2-4.2-1.8c-0.3-0.1-0.9-0.1-1,0.4
				c-0.9,5.2,1.5,9.9,5.1,13.3c-1,0.1-2,0.3-2.9,0.6c-1.7-0.5-3.6-0.8-5.5-0.8c-0.3,0-0.5,0.2-0.6,0.5c-1,3.3-1.6,6.7-1.7,10.1
				c-1.4-0.6-2.8-1.2-4.2-1.8c-0.3-0.1-0.9-0.1-1,0.4c-0.6,3.5,0.3,6.9,2.1,9.7c-0.3,0.9-0.7,1.9-0.9,2.8c-0.8-0.9-1.7-1.7-2.6-2.5
				c-2.9-2.5-6.3-4.3-10-4.9c0-2.1-0.3-4.3-0.8-6.3c-0.5-2-1.2-4-2.1-5.9c-0.6-1.3-1.4-2.8-3-3c-1.7-0.1-3.1,1.5-4.2,2.7
				c-1.2,1.2-2.2,2.5-3.2,3.9c-1-2.1-2.4-4.1-4.1-5.8c-0.2-0.2-0.7-0.3-0.9,0c-3.4,3.8-5.9,8.4-7.2,13.3c-0.8-0.9-1.7-1.7-2.6-2.5
				c-3.7-3.2-8.1-5.2-13-5.1c-0.3,0-0.5,0.2-0.6,0.5c-1,3.3-1.6,6.7-1.7,10.1c-1.4-0.6-2.8-1.2-4.2-1.8c-0.3-0.1-0.9-0.1-1,0.4
				c-0.9,5.2,1.5,9.9,5.1,13.3c-3.1,0.4-6.2,1.3-9,2.6c-0.6,0.3-0.3,1,0.2,1.2c2.2,0.8,4.3,1.9,6.4,3c-2.7,1.1-4.9,3-6.5,5.5
				c-0.1,0.2-0.1,0.5,0,0.7c1.1,2.1,2.7,3.9,4.6,5.4c-0.3,0-0.6,0.1-0.7,0.5c-0.9,5.2,1.5,9.9,5.1,13.3c-3.1,0.4-6.2,1.3-9,2.6
				c-0.6,0.3-0.3,1,0.2,1.2c2.2,0.8,4.3,1.9,6.4,3c-2.7,1.1-4.9,3-6.5,5.5c-0.1,0.2-0.1,0.5,0,0.7c2.8,5.1,8,8.6,13.7,9.5
				c4,0.6,7.7-0.3,10.7-2.3c0,0.3-0.1,0.6-0.1,0.8c-2.4,0.5-4.7,1.2-6.9,2.3c-0.6,0.3-0.3,1,0.2,1.2c2.2,0.8,4.3,1.9,6.4,3
				c-2.7,1.1-4.9,3-6.5,5.5c-0.1,0.2-0.1,0.5,0,0.7c0.9,1.7,2.1,3.1,3.4,4.4c-1.7,4.6-3,9.4-3.9,14.6c-7,50-23,108,14,150
				c8.2,8.2,19.6,11,29,17.2c60.7-10.6,124.2-16.4,180.3-42.1c54.2-24.8,89.8-78.5,180.2-47.5c5,1.7,10.4-2.7,14.9-5.5
				c20.3-12.4,16.4-42,18.2-65.8c2.4-32.1,19.6-59.6,39.2-84.1c16.1-20.1,54.3-38.7,58.7-65.3c1.6-9.7-8.7-20.6-20.4-30.3
				c0-1.4,0-2.8-0.2-4.2c3.1,2.1,6.8,2.9,10.7,2.3c5.7-0.9,11-4.4,13.7-9.5c0.1-0.2,0.1-0.5,0-0.7c-1.6-2.5-3.8-4.3-6.5-5.5
				c2.1-1.2,4.2-2.2,6.4-3C637.7,841,638,840.3,637.4,840z M423.7,709.4c-0.9,0.8-1.8,1.6-2.6,2.5c-0.8-2.9-2-5.7-3.5-8.3
				c1.7,1.9,3.7,3.6,6.1,4.7c0.3,0.1,0.6,0.3,0.9,0.4C424.2,709,424,709.2,423.7,709.4z"/>
			<linearGradient id="XMLID_29_" gradientUnits="userSpaceOnUse" x1="920.9259" y1="1101.9214" x2="920.9259" y2="619.3242">
				<stop  offset="0" style="stop-color:#F3BAB4"/>
				<stop  offset="1" style="stop-color:#E6716D"/>
			</linearGradient>
			<path id="XMLID_66_" fill="url(#XMLID_29_)" d="M1421,715.5c-4.1-16.5,0.2-33.7,2.7-50.5c2.5-16.8,2.7-35.5-7.7-49
				c-6.4-8.2-18-12.2-27.9-10.7c0-0.4,0-0.8,0-1.2c2.7-2.3,4.7-5.1,5.5-8.7c2.9-0.2,5.9-1,8.5-2.4c0.4-0.2,0.5-0.8,0.1-1.1
				c-1.4-1-2.6-2.2-3.7-3.4c1.2-0.4,2.4-0.8,3.7-1.2c0.5-0.2,0.7-0.7,0.4-1.1c-1.2-1.5-2.7-2.7-4.3-3.7c1.3-0.4,2.6-0.9,3.9-1.6
				c0.4-0.2,0.5-0.8,0.1-1.1c-1.4-1-2.6-2.2-3.7-3.4c1.2-0.4,2.4-0.8,3.7-1.2c0.5-0.2,0.7-0.7,0.4-1.1c-1.2-1.5-2.7-2.7-4.3-3.6
				c0.5-1.2,0.9-2.5,1.1-3.9c0-0.3-0.3-0.7-0.6-0.7c-1.8,0.1-3.7,0.1-5.5,0.2c0.4-0.8,0.7-1.7,1.1-2.5c2.5-2.3,4.4-5.2,5-9
				c0-0.3-0.3-0.7-0.6-0.7c-1.8,0.1-3.7,0.1-5.5,0.2c0.7-1.5,1.4-3.1,2.1-4.6c0.2-0.4-0.2-0.8-0.6-0.9c-6.8-0.3-13.4,2.8-17.7,7.9
				c-0.3-1.6-0.7-3.2-1.3-4.7c-0.6-1.5-1.4-2.9-2.3-4.2c-0.8-1.2-1.8-2.7-3.2-3.3c-3.2-1.2-5,2-5.8,4.6c-1.5-1.4-3.1-2.5-5-3.3
				c-0.4-0.2-0.9,0.2-0.9,0.6c0.1,3.8,0.4,7.9,1.4,11.7c-0.2-0.1-0.3-0.2-0.5-0.3c-0.4-0.2-0.9,0.2-0.9,0.6
				c0.2,3.9,0.4,8.2,1.5,12.2c-1.3,0.8-2.5,1.7-3.6,2.9c-2.5,2.9-3.6,6.9-2.3,10.5c0.1,0.2,0.3,0.3,0.5,0.4c0.8,0.1,1.7,0.3,2.5,0.4
				c-0.3,0.2-0.5,0.5-0.8,0.8c-0.5,0.6-0.9,1.2-1.3,1.8c-0.5-0.3-1.1-0.6-1.6-0.8c-0.4-0.2-0.9,0.2-0.8,0.6
				c0.6,7.7,1.6,16.9,8.4,21.6c-3.6,1-7.1,2.6-9.5,5.6c-2.3,2.8-3.3,6.6-2.1,10c-0.7,0.6-1.4,1.3-2,2c-0.1-0.5-0.2-1.1-0.3-1.6
				c0.4-0.2,0.9-0.4,1.3-0.6c0.4-0.2,0.5-0.8,0.1-1.1c-1.1-0.8-2-1.7-2.9-2.6c-0.1-0.3-0.3-0.6-0.5-0.9c1.1-0.4,2.2-0.7,3.4-1.1
				c0.5-0.2,0.7-0.7,0.4-1.1c-3.5-4.2-8.9-6.4-14.3-6.4c2-1,3.9-2.2,5.6-3.7c2.8-0.2,5.6-1,8.2-2.4c0.4-0.2,0.5-0.8,0.1-1.1
				c-1.3-1-2.4-2-3.5-3.2c0-0.1,0.1-0.2,0.1-0.3c1.1-0.4,2.3-0.7,3.4-1.1c0.5-0.2,0.7-0.7,0.4-1.1c-2-2.3-4.5-4-7.3-5.1
				c0.1-0.1,0.1-0.2,0.2-0.3c0.2-0.4-0.2-0.8-0.6-0.9c-1.3-0.1-2.5,0-3.7,0.2c-0.9-0.1-1.9-0.2-2.8-0.2c5.4-2.8,10.2-6.7,11.1-13.2
				c0-0.3-0.3-0.7-0.6-0.7c-1.8,0.1-3.7,0.1-5.5,0.2c0.7-1.5,1.4-3.1,2.1-4.6c0.2-0.4-0.2-0.8-0.6-0.9c-5.5-0.3-11,1.7-15.1,5.3
				c0.4-1,0.9-2,1.3-3c0.2-0.4-0.2-0.8-0.6-0.9c-1.8-0.1-3.6,0.1-5.4,0.4c-0.5-1-1-1.9-1.7-2.8c-0.8-1.2-1.8-2.7-3.2-3.3
				c-3.2-1.2-5,2-5.8,4.6c-1.5-1.4-3.1-2.5-5-3.3c-0.4-0.2-0.9,0.2-0.9,0.6c0,0.7,0.1,1.4,0.1,2.2c-0.7-1.1-1.7-2.2-2.8-2.7
				c-3.2-1.2-5,2-5.8,4.6c-1.5-1.4-3.1-2.5-5-3.3c-0.4-0.2-0.9,0.2-0.9,0.6c0.3,7.7,1,16.9,7.7,21.9c-3.6,0.9-7.2,2.4-9.7,5.2
				c-2.5,2.9-3.6,6.9-2.3,10.5c0.1,0.2,0.3,0.3,0.5,0.4c1.2,0.2,2.4,0.4,3.6,0.6c-0.6,0.5-1.2,1-1.8,1.4c-0.4,0.3-0.2,0.9,0.2,1.1
				c5,1.8,10.6,0.3,14.2-3.4c0,0.3-0.1,0.6-0.1,0.9c0,0,0,0,0,0c-0.3,0.2-0.3,0.7,0,0.9c0,1.6,0.2,3.1,0.7,4.7
				c-0.3,0.2-0.5,0.5-0.7,0.8c-2.5,2.9-3.6,6.9-2.3,10.5c0.1,0.2,0.3,0.3,0.5,0.4c1.2,0.2,2.4,0.4,3.6,0.6c-0.6,0.5-1.2,1-1.8,1.4
				c-0.4,0.3-0.2,0.9,0.2,1.1c5,1.8,10.6,0.3,14.2-3.4c-1,6.7,3.2,13.9,9.7,16c0,0-0.1,0.1-0.1,0.1c-1.4,1.6-2.3,3.5-2.7,5.5
				c-0.5-0.6-0.9-1.4-0.8-2.2c0.1-0.7-0.9-1.1-1.2-0.4c-0.3,0.5-0.5,1.1-0.8,1.6c-0.9-2.1-2.3-4-4.2-5.4c-0.4-0.3-1.1,0-1.1,0.6
				c0.2,1.3-0.8,2.7-2.2,2.8c-1.6,0.1-2.8-1.5-2.7-3c0.1-0.7-0.9-1.1-1.2-0.4c-1.7,3.6-3.5,7.8-3.5,11.8c-0.9-2.1-2.3-4-4.2-5.4
				c-0.4-0.3-1.1,0-1.1,0.6c0.2,1.3-0.8,2.7-2.2,2.8c-1.6,0.1-2.8-1.5-2.7-3c0.1-0.7-0.9-1.1-1.2-0.4c-0.5,1.1-1.1,2.3-1.6,3.6
				c-0.9,0-1.8,0-2.8,0.1c-0.5,0.1-0.7,0.6-0.5,1c0.7,1.1,1.3,2.3,1.8,3.5c-0.1,0.3-0.1,0.7-0.2,1c-1.1-0.1-2.2-0.1-3.3-0.2
				c-0.3,0-0.6,0.2-0.7,0.5c-0.1-0.2-0.3-0.5-0.6-0.5c-2.6-0.1-5.2,0.3-7.6,1.1c-1.2-0.1-2.5-0.1-3.8,0.1c-0.5,0.1-0.7,0.6-0.5,1
				c0.1,0.2,0.2,0.4,0.4,0.6c-1,0.6-2,1.2-3,2c-1.4-0.1-2.8-0.3-4.2-0.4c-0.1-0.4-0.3-0.7-0.4-1.1c-0.6-1.5-1.4-2.9-2.3-4.2
				c-0.8-1.2-1.8-2.7-3.2-3.3c-3.2-1.2-5,2-5.8,4.6c-0.8-0.7-1.7-1.4-2.6-2c-0.1-2.8-0.7-5.6-2.3-8.2c3.7,0.5,7.6,0.4,10.9-1.3
				c3.4-1.8,5.9-5.1,5.9-9c0-0.2-0.2-0.4-0.4-0.5c-1-0.6-2.1-1.2-3.1-1.9c0.7-0.2,1.5-0.5,2.2-0.7c0.5-0.1,0.5-0.8,0.2-1.1
				c-4-3.5-9.8-4.1-14.5-2c3.4-6,2-14.6-3.6-18.8c-0.4-0.3-1.1,0-1.1,0.6c0.2,1.3-0.8,2.7-2.2,2.8c-1.6,0.1-2.8-1.5-2.7-3
				c0.1-0.7-0.9-1.1-1.2-0.4c-2.1,4.5-4.5,10-3.1,14.9c-4.5-3.6-10.3-5.3-16.1-4.7c-0.5,0.1-0.7,0.6-0.5,1c0.9,1.4,1.6,2.9,2.2,4.5
				c-1.3-0.1-2.6-0.1-3.9-0.2c-0.5,0-0.9,0.4-0.7,0.9c1.8,5.2,6,9.2,11,11.1c-2.8,0.3-5.5,0.9-8,2c-1.3-2-2.4-4.2-3.1-6.5
				c-5.7,11.4-20.3,11.1-34.2,11.7c-0.1-0.1-0.3-0.3-0.4-0.4c1.2-0.4,2.4-0.8,3.7-1.2c0.5-0.2,0.7-0.7,0.4-1.1
				c-0.2-0.3-0.5-0.5-0.7-0.8c3-0.1,6-0.8,8.8-1.8c1.9-0.7,3.8-1.7,5.6-2.8c1.2-0.7,2.6-1.8,2.5-3.4c-0.1-1.7-1.9-2.9-3.2-3.8
				c-1.4-1-2.8-1.9-4.3-2.7c2-1.3,3.7-2.9,5.2-4.8c0.2-0.3,0.2-0.7-0.1-0.9c-4.2-2.9-9.1-4.8-14.1-5.5c0.8-0.9,1.5-1.9,2.2-2.9
				c2.7-4,4.2-8.7,3.4-13.6c0-0.3-0.3-0.5-0.6-0.6c-3.4-0.6-6.8-0.7-10.3-0.4c0.4-1.5,0.8-2.9,1.2-4.4c0.1-0.4,0-0.9-0.5-0.9
				c-5.3-0.2-9.6,2.7-12.6,6.8c-0.8-3-11.7-4.7-13.3-7.4c-0.3-0.5,8.5-1.4,8.4-1c-0.6,2.3-1.3,4.5-2.2,6.7c-1.5-2.5-3.6-4.5-6.2-5.8
				c-0.2-0.1-0.5,0-0.7,0.1c-4.7,3.4-7.5,9.1-7.7,14.8c-0.1,2.7,0.6,5.3,1.7,7.5c-0.4,0.7-0.6,1.4-0.8,2.1c-1.5-1.4-3.1-2.5-5-3.3
				c-0.4-0.2-0.9,0.2-0.9,0.6c0.1,1.6,0.1,3.3,0.3,4.9c-2,0.7-3.9,1.7-5.6,2.9c-0.3,0.2-0.3,0.8,0,1c1.2,0.8,2.4,1.5,3.7,2
				c-1,1.1-1.9,2.3-2.6,3.5c-0.2,0.1-0.4,0.2-0.6,0.3c-0.4,0.2-0.5,0.7-0.3,1c0.1,0.1,0.1,0.1,0.2,0.2c-0.6,1.4-1.1,2.8-1.3,4.3
				c-1.7-5.9-4.6-11.3-10.7-13.5c-0.3-0.1-0.7,0.1-0.8,0.5c-0.3,1.8-0.6,3.6-0.9,5.4c-1.4-1-2.8-2-4.1-2.9c-0.3-0.2-0.9,0-1,0.4
				c-0.6,2.4-0.8,4.9-0.5,7.3c-1.6,0.5-3.2,1-4.9,1.5c-3.7-0.7-7.6-1-10.8,0.6c2.8-5.1,3.5-11.1,1.8-16.7c-0.1-0.5-0.7-0.6-1.1-0.3
				c-1.3,1.1-2.6,2.1-4.1,2.9c-0.2-1.3-0.3-2.6-0.5-3.8c-0.1-0.5-0.5-0.8-1-0.6c-4.8,2.6-8.1,7.5-9,12.8
				c-1.7-5.9-4.6-11.3-10.7-13.5c-0.3-0.1-0.7,0.1-0.8,0.5c-0.3,1.8-0.6,3.6-0.9,5.4c-1.4-1-2.8-2-4.1-2.9c-0.3-0.2-0.9,0-1,0.4
				c-1.5,5.9-0.2,12.3,3.1,17.3c-0.2,0.5-0.4,1.1-0.6,1.7c-0.4,0-0.8,0.1-1.2,0.1c-1.8-5-4.7-9.5-10.1-11.4
				c-0.3-0.1-0.7,0.1-0.8,0.5c-0.3,1.8-0.6,3.6-0.9,5.4c-0.1,0-0.1-0.1-0.2-0.1c-0.1-1.1-0.3-2.2-0.7-3.2c-0.1-0.5-0.7-0.6-1.1-0.3
				c-0.5,0.4-1,0.8-1.5,1.2c-0.3-0.2-0.5-0.4-0.8-0.5c-0.3-0.2-0.9,0-1,0.4c-0.1,0.5-0.2,1-0.3,1.5c-0.2,0.1-0.4,0.2-0.6,0.3
				c-0.2-1.3-0.3-2.6-0.5-3.8c-0.1-0.5-0.5-0.8-1-0.6c-4.8,2.6-8.1,7.5-9,12.8c-1.7-5.9-4.6-11.3-10.7-13.5
				c-0.3-0.1-0.7,0.1-0.8,0.5c-0.3,1.8-0.6,3.6-0.9,5.4c-1.4-1-2.8-2-4.1-2.9c-0.3-0.2-0.9,0-1,0.4c-1.7,6.6,0.1,13.7,4.2,18.9
				c-1.6,0-3.3,0.1-4.9,0.4c-1.6,0.3-3.1,0.8-4.6,1.4c-1.3,0.6-3,1.3-3.8,2.5c-1.2,1.8-0.5,3.4,0.8,4.7c-0.6,0-1.1,0-1.7,0
				c-1.5-0.1-3-0.1-4.5-0.2c0.7-3.5,0.6-7.1-0.4-10.5c-0.1-0.5-0.7-0.6-1.1-0.3c-1.3,1.1-2.6,2.1-4.1,2.9c-0.2-1.3-0.3-2.6-0.5-3.8
				c-0.1-0.5-0.5-0.8-1-0.6c-3.6,2-6.4,5.2-7.9,9c0,0,0,0-0.1-0.1c-1.2-0.8-2.4-1.6-3.6-2.5c-0.3-0.5-0.6-0.9-0.9-1.4
				c1-0.6,1.9-1.2,2.9-1.8c0.4-0.3,0.4-0.8,0-1.1c-3.5-2.5-7.7-3.9-11.9-4.2c1.7-4.7,1.8-10,0.6-15c-0.5-2-1.2-4-2.1-5.9
				c-0.6-1.3-1.4-2.8-3-3c-1.7-0.1-3.1,1.5-4.2,2.7c-1.2,1.2-2.2,2.5-3.2,3.9c-1-2.1-2.4-4.1-4.1-5.8c-0.2-0.2-0.7-0.3-0.9,0
				c-2,2.2-3.7,4.7-5,7.4c0-1.9-0.3-3.7-0.8-5.6c-0.1-0.5-0.7-0.6-1.1-0.3c-1.3,1.1-2.6,2.1-4.1,2.9c-0.2-1.3-0.3-2.6-0.5-3.8
				c-0.1-0.5-0.5-0.8-1-0.6c-2.6,1.4-4.8,3.6-6.4,6.1c-1.3-0.3-2.6-0.4-4-0.4c-0.3,0-0.5,0.2-0.6,0.5c-0.1,0.3-0.2,0.6-0.2,0.9
				c-1.8-3.5-4.5-6.3-8.5-7.8c-0.3-0.1-0.7,0.1-0.8,0.5c-0.3,1.8-0.6,3.6-0.9,5.4c-1.4-1-2.8-2-4.1-2.9c-0.3-0.2-0.9,0-1,0.4
				c-1.7,6.6,0.1,13.7,4.2,18.9c-1.6,0-3.3,0.1-4.9,0.4c-1.6,0.3-3.1,0.8-4.6,1.4c-1.3,0.6-3,1.3-3.8,2.5c-1.8,2.9,1,5.3,3.4,6.6
				c-1.6,1.2-3,2.6-4.2,4.2c-0.2,0.3,0,0.9,0.4,1c5.3,0.9,11.4,1.7,16.7,0.2c-0.9,0.8-1.7,1.7-2.4,2.8c-0.1,0.2-0.1,0.5,0,0.7
				c1.4,2.5,3.4,4.7,5.8,6.3c-3.5,5.9-6.1,12.3-7.7,19c-1.8-3.3-4.4-6.1-8.4-7.5c-0.3-0.1-0.7,0.1-0.8,0.5c-0.3,1.8-0.6,3.6-0.9,5.4
				c-0.1-0.1-0.2-0.2-0.3-0.2c0.6-3.4,0.5-6.9-0.5-10.2c-0.1-0.5-0.7-0.6-1.1-0.3c-1.3,1.1-2.6,2.1-4.1,2.9
				c-0.2-1.3-0.3-2.6-0.5-3.8c-0.1-0.5-0.5-0.8-1-0.6c-4.8,2.6-8.1,7.5-9,12.8c-1.7-5.9-4.6-11.3-10.7-13.5
				c-0.3-0.1-0.7,0.1-0.8,0.5c-0.3,1.8-0.6,3.6-0.9,5.4c-1.4-1-2.8-2-4.1-2.9c-0.3-0.2-0.9,0-1,0.4c-1.7,6.6,0.1,13.7,4.2,18.9
				c-1.6,0-3.3,0.1-4.9,0.4c-1.6,0.3-3.1,0.8-4.6,1.4c-1.3,0.6-3,1.3-3.8,2.5c-1.8,2.9,1,5.3,3.4,6.6c-0.8,0.6-1.6,1.2-2.3,1.9
				c-0.2,0-0.5,0-0.7,0c-0.1-0.6-0.1-1.1-0.2-1.7c-0.1-0.5-0.5-0.8-1-0.6c-4.8,2.6-8.1,7.5-9,12.8c-1.7-5.9-4.6-11.3-10.7-13.5
				c-0.3-0.1-0.7,0.1-0.8,0.5c-0.3,1.8-0.6,3.6-0.9,5.4c-1.4-1-2.8-2-4.1-2.9c-0.3-0.2-0.9,0-1,0.4c-1.7,6.6,0.1,13.7,4.2,18.9
				c-1.6,0-3.3,0.1-4.9,0.4c-1.6,0.3-3.1,0.8-4.6,1.4c-1.3,0.6-3,1.3-3.8,2.5c-1.8,2.8,0.8,5.1,3.2,6.5c0,0.1,0,0.2,0,0.3
				c-1.5,1.1-2.9,2.5-4,4.1c-0.2,0.3,0,0.9,0.4,1c0.5,0.1,1,0.2,1.4,0.2c-0.6,0.6-1.3,1.2-1.9,1.9c-0.5-0.1-1.1-0.1-1.6-0.2
				c1.7-4.7,1.8-10,0.6-15c-0.5-2-1.2-4-2.1-5.9c-0.6-1.3-1.4-2.8-3-3c-1.7-0.1-3.1,1.5-4.2,2.7c-1.2,1.2-2.2,2.5-3.2,3.9
				c-1-2.1-2.4-4.1-4.1-5.8c-0.2-0.2-0.7-0.3-0.9,0c-2.2,2.5-4,5.2-5.4,8.2c-0.6-0.4-1.2-0.9-1.9-1.3c1.2-0.7,2.3-1.4,3.5-2.2
				c0.4-0.3,0.4-0.8,0-1.1c-3.5-2.5-7.7-3.9-11.9-4.2c1.7-4.7,1.8-10,0.6-15c-0.5-2-1.2-4-2.1-5.9c-0.6-1.3-1.4-2.8-3-3
				c-1.7-0.1-3.1,1.5-4.2,2.7c-1.2,1.2-2.2,2.5-3.2,3.9c-1-2.1-2.4-4.1-4.1-5.8c-0.2-0.2-0.7-0.3-0.9,0c-3.4,3.8-5.9,8.4-7.2,13.3
				c-0.8-0.9-1.7-1.7-2.6-2.5c-3.7-3.2-8.1-5.2-13-5.1c-0.3,0-0.5,0.2-0.6,0.5c-1,3.3-1.6,6.7-1.7,10.1c-1.4-0.6-2.8-1.2-4.2-1.8
				c-0.3-0.1-0.9-0.1-1,0.4c-0.9,5.2,1.5,9.9,5.1,13.3c-3.1,0.4-6.2,1.3-9,2.6c-0.6,0.3-0.3,1,0.2,1.2c2.2,0.8,4.3,1.9,6.4,3
				c-2.7,1.1-4.9,3-6.5,5.5c-0.1,0.2-0.1,0.5,0,0.7c2.8,5.1,8,8.6,13.7,9.5c4,0.6,7.7-0.3,10.7-2.3c-0.3,2.2-0.3,4.3,0,6.5
				c-1.2-1-2.6-1.8-4.3-2.4c-0.3-0.1-0.7,0.1-0.8,0.5c-0.3,1.8-0.6,3.6-0.9,5.4c-1.4-1-2.8-2-4.1-2.9c-0.3-0.2-0.9,0-1,0.4
				c-0.2,0.7-0.3,1.4-0.4,2.1c-0.5-0.5-1-0.9-1.5-1.4c-0.4-0.3-1.1,0-1.1,0.6c0.2,1.3-0.8,2.7-2.2,2.8c-1.6,0.1-2.8-1.5-2.7-3
				c0.1-0.7-0.9-1.1-1.2-0.4c-2.1,4.5-4.5,10-3.1,14.9c-4.5-3.6-10.3-5.3-16.1-4.7c-0.5,0.1-0.7,0.6-0.5,1c0.9,1.4,1.6,2.9,2.2,4.5
				c-1.3-0.1-2.6-0.1-3.9-0.2c-0.5,0-0.9,0.4-0.7,0.9c0.9,2.7,2.5,5.1,4.5,7c-1.8,2.3-3.3,4.9-4.4,7.6c-1,0.7-1.9,1.5-2.8,2.5
				c-0.4-0.4-0.8-0.7-1.2-1.1c-3-2.6-6.6-4.5-10.5-5c0.3-4.7-1.6-9.5-5.5-12.4c-0.4-0.3-1.1,0-1.1,0.6c0.2,1.3-0.8,2.7-2.2,2.8
				c-1.6,0.1-2.8-1.5-2.7-3c0.1-0.7-0.9-1.1-1.2-0.4c-2.1,4.5-4.5,10-3.1,14.9c-4.5-3.6-10.3-5.3-16.1-4.7c-0.5,0.1-0.7,0.6-0.5,1
				c0.9,1.4,1.6,2.9,2.2,4.5c-1.3-0.1-2.6-0.1-3.9-0.2c-0.5,0-0.9,0.4-0.7,0.9c1.8,5.2,6,9.2,11,11.1c-6.1,0.6-11.9,2.6-15.2,8.3
				c-0.2,0.3,0,0.8,0.3,0.9c1.7,0.6,3.4,1.2,5.2,1.8c-1.2,1.2-2.4,2.4-3.6,3.6c-0.3,0.3-0.1,0.9,0.2,1c4.9,2.2,10.5,2.3,15.5,0.7
				c0.5,0.9,1.1,1.8,1.8,2.7c-1.6,0-3.3,0.1-4.9,0.4c-1.6,0.3-3.1,0.8-4.6,1.4c-1.3,0.6-3,1.3-3.8,2.5c-1.8,2.9,1,5.3,3.4,6.6
				c-1.6,1.2-3,2.6-4.2,4.2c-0.2,0.3,0,0.9,0.4,1c7.7,1.2,16.8,2.3,23-3.2c0,0.9,0.1,1.9,0.2,2.8c-15.7,6.5-39.3,5.1-41,21.4
				c-0.6,5.7-5.6,8.7-11.3,9.1c0.4-3,0.2-6-0.7-9c-0.1-0.5-0.7-0.6-1.1-0.3c-1.3,1.1-2.6,2.1-4.1,2.9c-0.2-1.3-0.3-2.6-0.5-3.8
				c-0.1-0.5-0.5-0.8-1-0.6c-2.8,1.5-5,3.8-6.6,6.4c-0.3-0.3-0.6-0.6-0.9-0.9c-2.9-3-5-6.6-6.8-10.3c0.7-2.1,1.2-4.3,1.2-6.5
				c0-0.6,0-1.3,0-1.9c4,0.6,8.1,0,11.8-1.9c3.2-1.6,5.9-4,7.8-7c0.2-0.3,0-0.7-0.2-0.9c-1.7-1.2-3.4-2.3-5-3.5
				c1.2-0.7,2.3-1.4,3.5-2.2c0.4-0.3,0.4-0.8,0-1.1c-3.5-2.5-7.7-3.9-11.9-4.2c1.7-4.7,1.8-10,0.6-15c-0.5-2-1.2-4-2.1-5.9
				c-0.6-1.3-1.4-2.8-3-3c-1.7-0.1-3.1,1.5-4.2,2.7c-1.2,1.2-2.2,2.5-3.2,3.9c-1-2.1-2.4-4.1-4.1-5.8c-0.2-0.2-0.7-0.3-0.9,0
				c-0.7,0.7-1.3,1.5-1.9,2.3c0-0.2-0.1-0.4-0.3-0.5c-1.7-1.2-3.4-2.3-5-3.5c1.2-0.7,2.3-1.4,3.5-2.2c0.4-0.3,0.4-0.8,0-1.1
				c-3.5-2.5-7.7-3.9-11.9-4.2c1.7-4.7,1.8-10,0.6-15c-0.5-2-1.2-4-2.1-5.9c-0.6-1.3-1.4-2.8-3-3c-1.7-0.1-3.1,1.5-4.2,2.7
				c-1.2,1.2-2.2,2.5-3.2,3.9c-1-2.1-2.4-4.1-4.1-5.8c-0.2-0.2-0.7-0.3-0.9,0c-3.4,3.8-5.9,8.4-7.2,13.3c-0.8-0.9-1.7-1.7-2.6-2.5
				c-3.7-3.2-8.1-5.2-13-5.1c-0.3,0-0.5,0.2-0.6,0.5c-1,3.3-1.6,6.7-1.7,10.1c-1.4-0.6-2.8-1.2-4.2-1.8c-0.3-0.1-0.9-0.1-1,0.4
				c-0.9,5.2,1.5,9.9,5.1,13.3c-3.1,0.4-6.2,1.3-9,2.6c-0.6,0.3-0.3,1,0.2,1.2c2.2,0.8,4.3,1.9,6.4,3c-2.7,1.1-4.9,3-6.5,5.5
				c-0.1,0.2-0.1,0.5,0,0.7c1.9,3.5,5,6.3,8.7,8c-0.7,0.8-1.4,1.7-2.1,2.6c-1-2.1-2.4-4.1-4.1-5.8c-0.2-0.2-0.7-0.3-0.9,0
				c-3.4,3.8-5.9,8.4-7.2,13.3c-0.8-0.9-1.7-1.7-2.6-2.5c-3.7-3.2-8.1-5.2-13-5.1c-0.3,0-0.5,0.2-0.6,0.5c-1,3.3-1.6,6.7-1.7,10.1
				c-1.4-0.6-2.8-1.2-4.2-1.8c-0.3-0.1-0.9-0.1-1,0.4c-0.9,5.2,1.5,9.9,5.1,13.3c-3.1,0.4-6.2,1.3-9,2.6c-0.6,0.3-0.3,1,0.2,1.2
				c2.2,0.8,4.3,1.9,6.4,3c-2.7,1.1-4.9,3-6.5,5.5c-0.1,0.2-0.1,0.5,0,0.7c2.8,5.1,8,8.6,13.7,9.5c4,0.6,7.7-0.3,10.7-2.3
				c-0.7,4.9,0.1,10,2.5,14.4c0.2,0.4,0.7,0.4,1,0.1c0.4-0.4,0.7-0.9,1.1-1.3c1.4,2.8,3.2,5.3,5.3,7.7c-1.8,2.3-3,5-3.5,7.9
				c-1.7-5.9-4.6-11.3-10.7-13.5c-0.3-0.1-0.7,0.1-0.8,0.5c-0.3,1.8-0.6,3.6-0.9,5.4c-1.4-1-2.8-2-4.1-2.9c-0.3-0.2-0.9,0-1,0.4
				c-0.4,1.6-0.6,3.3-0.6,5c-2,0.8-3.7,2.2-4.8,4c-0.3-3.7-1.3-7.3-4.5-9.6c-0.4-0.3-0.8,0-1,0.4c-0.4,1.1-0.8,2.3-1.7,3
				c-0.5,0.4-1,0.6-1.6,0.3c-0.5-0.2-1.2-0.9-0.7-1.5c0.4-0.4,0-1.3-0.6-1.1c-5.4,2-7.1,7.8-6.9,13.1c-0.2,0-0.4,0-0.6,0
				c-2.1,0.2-4.1,0.9-5.9,1.9c-0.7-2.3-3-4.2-5.3-3.6c0.1-0.6,0.3-1.2,0.4-1.9c0.1-0.4-0.2-0.8-0.6-0.8c-3.4-0.1-6.4,1.8-8.1,4.6
				c-0.3-3.7-1.3-7.3-4.5-9.6c-0.4-0.3-0.8,0-1,0.4c-0.4,1.1-0.8,2.3-1.7,3c-0.5,0.4-1,0.6-1.6,0.3c-0.5-0.2-1.2-0.9-0.7-1.5
				c0.4-0.4,0-1.3-0.6-1.1c-5.4,2-7.1,7.8-6.9,13.1c-0.2,0-0.4,0-0.6,0c-5.1,0.4-9.4,3.8-12.3,7.9c-0.2,0.2-0.1,0.6,0.1,0.8
				c1.8,1.6,3.6,3.1,5.3,4.7c-0.8,0.3-1.5,0.6-2.3,0.9c-0.4,0.2-0.7,0.7-0.3,1.1c4.2,4.1,10.8,4.6,15.7,1.7
				c-0.1,0.4-0.2,0.8-0.3,1.2c-4.4,2.7-8.6,5.6-12.8,8.7c-0.6-2.2-1.8-4.2-3.8-5.7c-0.4-0.3-0.8,0-1,0.4c-0.4,1.1-0.8,2.3-1.7,3
				c-0.5,0.4-1,0.6-1.6,0.3c-0.5-0.2-1.2-0.9-0.7-1.5c0.4-0.4,0-1.3-0.6-1.1c-5.1,1.9-6.9,7.3-6.9,12.4c-1-0.2-2.1-0.4-3.1-0.4
				c1.7-4.7,1.8-10,0.6-15c-0.5-2-1.2-4-2.1-5.9c-0.6-1.3-1.4-2.8-3-3c-1.7-0.1-3.1,1.5-4.2,2.7c-1.2,1.2-2.2,2.5-3.2,3.9
				c-1-2.1-2.4-4.1-4.1-5.8c-0.2-0.2-0.7-0.3-0.9,0c-3.4,3.8-5.9,8.4-7.2,13.3c-0.8-0.9-1.7-1.7-2.6-2.5c-3.7-3.2-8.1-5.2-13-5.1
				c-0.3,0-0.5,0.2-0.6,0.5c-1,3.3-1.6,6.7-1.7,10.1c-1.4-0.6-2.8-1.2-4.2-1.8c-0.3-0.1-0.9-0.1-1,0.4c-0.9,5.2,1.5,9.9,5.1,13.3
				c-3.1,0.4-6.2,1.3-9,2.6c-0.6,0.3-0.3,1,0.2,1.2c2.2,0.8,4.3,1.9,6.4,3c-2.7,1.1-4.9,3-6.5,5.5c-0.1,0.2-0.1,0.5,0,0.7
				c2.8,5.1,8,8.6,13.7,9.5c4,0.6,7.7-0.3,10.7-2.3c-0.2,1.4-0.2,2.8-0.2,4.2c-11.7,9.7-22,20.6-20.4,30.3c1,6.3,4.6,11.9,8.3,17.1
				c25.6,35.2,69.5,60.7,113.5,62.8c20.7,1,38.5-8.3,59-10.9c29-3.7,58.4-5.6,87.6-7c117.6-5.4,235.4,4.5,352,19.4
				c61.6,7.9,123,17.2,184.1,27.9c37.7,6.6,79,13.1,112.1-6.1c20.6-12,34.8-32.4,46.6-53.1C1431.1,942,1447.6,823.8,1421,715.5z
				 M628.6,800.5c-1.5,2.6-2.7,5.4-3.5,8.3c-0.8-0.9-1.7-1.7-2.6-2.5c-0.3-0.2-0.5-0.4-0.8-0.7c0.3-0.1,0.6-0.2,0.9-0.4
				C624.8,804,626.9,802.4,628.6,800.5z M1329.4,638.6c1-0.5,2-0.1,2.8,0.6c-1.4,0.6-2.8,1.5-3.9,2.5
				C1327.8,640.6,1328.2,639.2,1329.4,638.6z M1336.7,637.7c-0.8,0.2-1.6,0.4-2.3,0.7c0-0.9,0.1-1.8,0.1-2.7
				C1335.1,636.3,1335.8,637,1336.7,637.7z M1288.1,658.4c0.4,1.1,0.8,2.1,1.4,3.1c-0.7-0.4-1.5-0.8-2.3-1.1
				C1287.5,659.7,1287.8,659,1288.1,658.4z M999.7,657.8c-0.1,0-0.1,0-0.2,0c0.1-0.1,0.2-0.2,0.3-0.4
				C999.8,657.5,999.7,657.6,999.7,657.8z M901,711.5c-0.6-0.2-1.1-0.5-1.7-0.7c0.7-0.3,1.4-0.7,2-1.1
				C901.2,710.3,901,710.9,901,711.5z M949.6,671.9c0.9,0.1,1.7,0.2,2.5,0.2c-0.7,1-1.4,2.1-2,3.3c-0.7-1.5-1.8-2.8-3-4
				C947.9,671.6,948.7,671.8,949.6,671.9z M774.8,773.6c-0.5,0-0.9,0-1.4,0.1c0.3-0.7,0.6-1.3,0.8-2c0.4,0.6,0.8,1.2,1.3,1.8
				C775.3,773.4,775.1,773.5,774.8,773.6z M791,759.3c-0.9,1.7-1.6,3.6-1.9,5.5c-0.4-1.6-1-3.1-1.7-4.6c0.8-1.1,1.5-2.3,2.1-3.6
				C790,757.5,790.5,758.4,791,759.3z M1158.1,657.4c0,0,0.1,0,0.1,0c0,0.1,0,0.2,0,0.3c-0.1,0.1-0.2,0.2-0.2,0.4
				C1158.1,657.9,1158.1,657.6,1158.1,657.4z"/>
			<path id="XMLID_46_" fill="#E76364" d="M1216.9,801.1c0.7-1,1.4-2,2.1-3c0.4,0.7,0.9,1.4,1.3,2.1c0.2,0.3,0.5,0.2,0.7,0
				c1.5-2.1,2.3-4.6,2.5-7.1c2.8,1,5.9,1.1,8.9,0.4c1.2-0.3,2.4-0.7,3.5-1.2c0.8-0.3,1.7-0.8,1.8-1.8c0.1-1-0.9-1.9-1.6-2.5
				c-0.7-0.7-1.5-1.3-2.3-1.9c1.3-0.6,2.4-1.4,3.4-2.4c0.1-0.1,0.2-0.4,0-0.5c-2.3-2.1-5-3.5-7.9-4.3c0.5-0.5,1-1,1.5-1.5
				c1.9-2.2,3.1-4.8,3.1-7.7c0-0.2-0.1-0.3-0.3-0.4c-2-0.6-4-1-6-1c0.4-0.8,0.7-1.7,1.1-2.5c0.1-0.2,0-0.5-0.2-0.6
				c-3.1-0.5-5.9,0.8-7.9,3c-0.2-1.9-0.8-3.7-1.5-5.4c-0.2-0.3-0.6-0.2-0.7,0.1c-0.5,1.3-1.1,2.6-1.8,3.8c-0.7-1.6-1.8-2.9-3.2-3.9
				c-0.1-0.1-0.3-0.1-0.4,0c-3,1.6-5.1,4.7-5.7,8.1c-0.4,2.4,0.2,4.6,1.4,6.4c-2.9-0.4-5.9,0.1-8.6,1.5c-0.2,0.1-0.3,0.4-0.1,0.6
				c0.9,0.8,1.9,1.5,3.1,2c-1,0.6-2.1,1.1-3.2,1.5c-0.2,0.1-0.4,0.3-0.2,0.6c2.2,3.7,6.2,6.1,10.5,6.2c0.4,0,0.8,0,1.1,0
				c-0.4,2.4,0,4.8,1.1,7c0.9,1.9,2.4,3.5,4.2,4.6C1216.6,801.4,1216.8,801.3,1216.9,801.1z"/>
			<path id="XMLID_37_" fill="#F0A49C" d="M905.6,824.9c-1-0.7-1.9-1.3-2.9-2c0.7-0.4,1.3-0.8,2-1.3c0.3-0.2,0.2-0.5,0-0.7
				c-2.1-1.4-4.5-2.2-6.9-2.4c1-2.8,1-5.8,0.3-8.7c-0.3-1.2-0.7-2.3-1.2-3.4c-0.3-0.7-0.8-1.6-1.7-1.7c-1-0.1-1.8,0.9-2.4,1.5
				c-0.7,0.7-1.3,1.5-1.9,2.3c-0.6-1.2-1.4-2.4-2.4-3.4c-0.1-0.1-0.4-0.2-0.5,0c-2,2.2-3.4,4.9-4.2,7.7c-0.5-0.5-1-1-1.5-1.5
				c-2.1-1.8-4.7-3-7.6-3c-0.2,0-0.3,0.1-0.4,0.3c-0.6,1.9-0.9,3.9-1,5.9c-0.8-0.3-1.6-0.7-2.4-1c-0.2-0.1-0.5,0-0.6,0.2
				c-0.5,3,0.8,5.7,3,7.7c-1.8,0.3-3.6,0.8-5.2,1.5c-0.3,0.1-0.2,0.6,0.1,0.7c1.3,0.5,2.5,1.1,3.7,1.7c-1.5,0.7-2.8,1.7-3.8,3.2
				c-0.1,0.1-0.1,0.3,0,0.4c1.6,2.9,4.7,5,8,5.5c2.3,0.3,4.4-0.2,6.2-1.4c-0.4,2.8,0.1,5.8,1.5,8.4c0.1,0.2,0.4,0.3,0.6,0.1
				c0.8-0.9,1.4-1.9,1.9-3c0.6,1,1.1,2,1.5,3.1c0.1,0.2,0.3,0.4,0.6,0.2c3.6-2.2,6-6.1,6.1-10.3c0-0.4,0-0.7,0-1.1
				c2.3,0.4,4.7,0,6.9-1.1c1.8-0.9,3.4-2.3,4.5-4.1C905.9,825.2,905.8,825,905.6,824.9z"/>
			<path id="XMLID_62_" fill="#F0A49C" d="M75.3,773.1c-1-0.7-1.9-1.3-2.9-2c0.7-0.4,1.3-0.8,2-1.3c0.3-0.2,0.2-0.5,0-0.7
				c-2.1-1.4-4.5-2.2-6.9-2.4c1-2.8,1-5.8,0.3-8.7c-0.3-1.2-0.7-2.3-1.2-3.4c-0.3-0.7-0.8-1.6-1.7-1.7c-1-0.1-1.8,0.9-2.4,1.5
				c-0.7,0.7-1.3,1.5-1.9,2.3c-0.6-1.2-1.4-2.4-2.4-3.4c-0.1-0.1-0.4-0.2-0.5,0c-2,2.2-3.4,4.9-4.2,7.7c-0.5-0.5-1-1-1.5-1.5
				c-2.1-1.8-4.7-3-7.6-3c-0.2,0-0.3,0.1-0.4,0.3c-0.6,1.9-0.9,3.9-1,5.9c-0.8-0.3-1.6-0.7-2.4-1c-0.2-0.1-0.5,0-0.6,0.2
				c-0.5,3,0.8,5.7,3,7.7c-1.8,0.3-3.6,0.8-5.2,1.5c-0.3,0.1-0.2,0.6,0.1,0.7c1.3,0.5,2.5,1.1,3.7,1.7c-1.5,0.7-2.8,1.7-3.8,3.2
				c-0.1,0.1-0.1,0.3,0,0.4c1.6,2.9,4.7,5,8,5.5c2.3,0.3,4.4-0.2,6.2-1.4c-0.4,2.8,0.1,5.8,1.5,8.4c0.1,0.2,0.4,0.3,0.6,0.1
				c0.8-0.9,1.4-1.9,1.9-3c0.6,1,1.1,2,1.5,3.1c0.1,0.2,0.3,0.4,0.6,0.2c3.6-2.2,6-6.1,6.1-10.3c0-0.4,0-0.7,0-1.1
				c2.3,0.4,4.7,0,6.9-1.1c1.8-0.9,3.4-2.3,4.5-4.1C75.5,773.4,75.4,773.2,75.3,773.1z"/>
			<path id="XMLID_41_" fill="#F0A49C" d="M1045.6,680.1c-1.1,0.4-2.2,0.7-3.4,1.1c0.1-0.8,0.1-1.6,0.2-2.4c0-0.3-0.3-0.5-0.5-0.4
				c-2.4,0.8-4.5,2.2-6.1,4.1c-1.6-2.5-4-4.3-6.7-5.5c-1.1-0.5-2.3-0.8-3.5-1.1c-0.8-0.2-1.8-0.3-2.4,0.4c-0.7,0.8-0.4,2-0.2,2.9
				c0.2,1,0.4,1.9,0.7,2.9c-1.4-0.3-2.7-0.3-4.1-0.1c-0.2,0-0.4,0.2-0.3,0.4c0.6,2.9,1.8,5.7,3.6,8c-0.7,0.1-1.4,0.2-2.1,0.3
				c-2.7,0.6-5.3,1.9-6.9,4.2c-0.1,0.1-0.1,0.3,0,0.5c1.2,1.6,2.5,3.1,4.1,4.3c-0.8,0.4-1.5,0.9-2.3,1.3c-0.2,0.1-0.3,0.4-0.2,0.6
				c2.1,2.2,5.1,2.8,8,2.3c-0.9,1.6-1.5,3.3-1.9,5.1c-0.1,0.4,0.4,0.5,0.6,0.3c1.2-0.7,2.4-1.4,3.6-1.9c-0.4,1.6-0.3,3.3,0.2,4.9
				c0,0.1,0.2,0.2,0.3,0.2c3.3,0.5,6.8-0.7,9.2-3c1.7-1.6,2.5-3.6,2.7-5.8c2,2,4.7,3.4,7.6,3.9c0.2,0,0.5-0.2,0.4-0.4
				c-0.2-1.2-0.7-2.3-1.2-3.3c1.2,0.1,2.3,0.3,3.4,0.7c0.2,0.1,0.5-0.1,0.5-0.3c0.4-4.2-1.3-8.4-4.6-11.1c-0.3-0.2-0.6-0.4-0.9-0.6
				c1.7-1.6,2.8-3.8,3.3-6.1c0.4-2,0.2-4.1-0.5-6.1C1046,680.1,1045.8,680,1045.6,680.1z"/>
			<path id="XMLID_39_" fill="#E86F6E" d="M927.2,843.6c-1-0.7-1.9-1.3-2.9-2c0.7-0.4,1.3-0.8,2-1.3c0.3-0.2,0.2-0.5,0-0.7
				c-2.1-1.4-4.5-2.2-6.9-2.4c1-2.8,1-5.8,0.3-8.7c-0.3-1.2-0.7-2.3-1.2-3.4c-0.3-0.7-0.8-1.6-1.7-1.7c-1-0.1-1.8,0.9-2.4,1.5
				c-0.7,0.7-1.3,1.5-1.9,2.3c-0.6-1.2-1.4-2.4-2.4-3.4c-0.1-0.1-0.4-0.2-0.5,0c-2,2.2-3.4,4.9-4.2,7.7c-0.5-0.5-1-1-1.5-1.5
				c-2.1-1.8-4.7-3-7.6-3c-0.2,0-0.3,0.1-0.4,0.3c-0.6,1.9-0.9,3.9-1,5.9c-0.8-0.3-1.6-0.7-2.4-1c-0.2-0.1-0.5,0-0.6,0.2
				c-0.5,3,0.8,5.7,3,7.7c-1.8,0.3-3.6,0.8-5.2,1.5c-0.3,0.1-0.2,0.6,0.1,0.7c1.3,0.5,2.5,1.1,3.7,1.7c-1.5,0.7-2.8,1.7-3.8,3.2
				c-0.1,0.1-0.1,0.3,0,0.4c1.6,2.9,4.7,5,8,5.5c2.3,0.3,4.4-0.2,6.2-1.4c-0.4,2.8,0.1,5.8,1.5,8.4c0.1,0.2,0.4,0.3,0.6,0.1
				c0.8-0.9,1.4-1.9,1.9-3c0.6,1,1.1,2,1.5,3.1c0.1,0.2,0.3,0.4,0.6,0.2c3.6-2.2,6-6.1,6.1-10.3c0-0.4,0-0.7,0-1.1
				c2.3,0.4,4.7,0,6.9-1.1c1.8-0.9,3.4-2.3,4.5-4.1C927.4,843.9,927.4,843.7,927.2,843.6z"/>
			<path id="XMLID_54_" fill="#EE9991" d="M392.9,910.5c-1,0-1.9,0-2.9,0c0.3-0.6,0.5-1.2,0.8-1.8c0.1-0.2-0.1-0.4-0.3-0.4
				c-2,0-4.1,0.6-5.8,1.6c-0.6-2.3-2-4.4-3.8-6c-0.7-0.7-1.5-1.2-2.4-1.8c-0.6-0.3-1.3-0.7-2-0.4c-0.7,0.4-0.8,1.4-0.9,2.2
				c-0.1,0.8-0.2,1.6-0.2,2.4c-1-0.6-2-1-3.2-1.2c-0.2,0-0.3,0.1-0.4,0.2c-0.3,2.4-0.1,4.9,0.7,7.2c-0.6-0.1-1.1-0.2-1.7-0.3
				c-2.3-0.3-4.6,0.1-6.5,1.5c-0.1,0.1-0.2,0.2-0.1,0.4c0.5,1.6,1.2,3,2,4.4c-0.7,0.1-1.4,0.3-2.1,0.4c-0.2,0-0.4,0.2-0.3,0.4
				c1,2.3,3.2,3.5,5.6,3.9c-1.1,1-2.1,2.2-2.8,3.5c-0.2,0.3,0.2,0.5,0.4,0.4c1.1-0.3,2.2-0.4,3.3-0.5c-0.7,1.2-1.1,2.5-1.1,3.9
				c0,0.1,0.1,0.2,0.2,0.3c2.4,1.2,5.5,1.2,7.9,0c1.7-0.8,2.9-2.2,3.6-3.8c1.1,2.1,2.7,3.9,4.9,5c0.2,0.1,0.4,0,0.4-0.2
				c0.1-1,0.1-2-0.1-2.9c0.9,0.4,1.7,0.8,2.4,1.4c0.2,0.1,0.4,0.1,0.5-0.1c1.4-3.1,1.2-6.9-0.7-9.8c-0.2-0.3-0.3-0.5-0.5-0.7
				c1.7-0.8,3.2-2.2,4.1-3.9c0.8-1.5,1.2-3.2,1.2-4.8C393.2,910.6,393.1,910.5,392.9,910.5z"/>
			<path id="XMLID_48_" fill="#EE9891" d="M462.2,778.7c-1-0.7-1.9-1.3-2.9-2c0.7-0.4,1.3-0.8,2-1.3c0.3-0.2,0.2-0.5,0-0.7
				c-2.1-1.4-4.5-2.2-6.9-2.4c1-2.8,1-5.8,0.3-8.7c-0.3-1.2-0.7-2.3-1.2-3.4c-0.3-0.7-0.8-1.6-1.7-1.7c-1-0.1-1.8,0.9-2.4,1.5
				c-0.7,0.7-1.3,1.5-1.9,2.3c-0.6-1.2-1.4-2.4-2.4-3.4c-0.1-0.1-0.4-0.2-0.5,0c-2,2.2-3.4,4.9-4.2,7.7c-0.5-0.5-1-1-1.5-1.5
				c-2.1-1.8-4.7-3-7.6-3c-0.2,0-0.3,0.1-0.4,0.3c-0.6,1.9-0.9,3.9-1,5.9c-0.8-0.3-1.6-0.7-2.4-1c-0.2-0.1-0.5,0-0.6,0.2
				c-0.5,3,0.8,5.7,3,7.7c-1.8,0.3-3.6,0.8-5.2,1.5c-0.3,0.1-0.2,0.6,0.1,0.7c1.3,0.5,2.5,1.1,3.7,1.7c-1.5,0.7-2.8,1.7-3.8,3.2
				c-0.1,0.1-0.1,0.3,0,0.4c1.6,2.9,4.7,5,8,5.5c2.3,0.3,4.4-0.2,6.2-1.4c-0.4,2.8,0.1,5.8,1.5,8.4c0.1,0.2,0.4,0.3,0.6,0.1
				c0.8-0.9,1.4-1.9,1.9-3c0.6,1,1.1,2,1.5,3.1c0.1,0.2,0.3,0.4,0.6,0.2c3.6-2.2,6-6.1,6.1-10.3c0-0.4,0-0.7,0-1.1
				c2.3,0.4,4.7,0,6.9-1.1c1.8-0.9,3.4-2.3,4.5-4.1C462.4,779.1,462.4,778.8,462.2,778.7z"/>
			<path id="XMLID_42_" fill="#F8D8D2" d="M803.7,777.7c-0.9,0.3-1.9-0.2-2.2-1.2c-0.3-1.1,0.7-2.1,1.7-2.2c0.5,0,0.6-0.7,0.1-0.9
				c-3.3-0.9-7.3-1.8-10.5-0.3c1.9-3.5,2.4-7.7,1.3-11.5c-0.1-0.3-0.5-0.4-0.8-0.2c-0.9,0.8-1.8,1.4-2.8,2c-0.1-0.9-0.2-1.8-0.3-2.6
				c0-0.3-0.4-0.6-0.7-0.4c-3.3,1.8-5.6,5.2-6.2,8.8c-1.2-4-3.2-7.8-7.4-9.3c-0.2-0.1-0.5,0.1-0.6,0.3c-0.2,1.2-0.4,2.5-0.6,3.7
				c-1-0.7-1.9-1.4-2.9-2c-0.2-0.2-0.6,0-0.7,0.3c-1.1,4.5,0.1,9.4,2.9,13.1c-1.1,0-2.2,0.1-3.4,0.3c-1.1,0.2-2.1,0.5-3.2,1
				c-0.9,0.4-2.1,0.9-2.6,1.7c-1.3,2,0.7,3.6,2.3,4.5c-1.1,0.8-2.1,1.8-2.9,2.9c-0.2,0.2,0,0.6,0.3,0.7c5.3,0.8,11.6,1.6,15.8-2.2
				c0.1,2.6,0.6,5.2,2.2,7.3c1.6,2.1,4.1,3.4,6.8,3c0.2,0,0.3-0.2,0.3-0.3c0.3-0.8,0.6-1.6,0.9-2.3c0.2,0.5,0.5,0.9,0.7,1.4
				c0.2,0.3,0.6,0.3,0.8,0c1.9-3.1,1.6-7.2-0.4-10.1c4.5,1.6,10.1-0.3,12.3-4.7C804.3,778.1,804.1,777.6,803.7,777.7z"/>
			<path id="XMLID_49_" fill="#F8D8D2" d="M341.4,836.3c-0.9,0.3-1.9-0.2-2.2-1.2c-0.3-1.1,0.7-2.1,1.7-2.2c0.5,0,0.6-0.7,0.1-0.9
				c-3.3-0.9-7.3-1.8-10.5-0.3c1.9-3.5,2.4-7.7,1.3-11.5c-0.1-0.3-0.5-0.4-0.8-0.2c-0.9,0.8-1.8,1.4-2.8,2c-0.1-0.9-0.2-1.8-0.3-2.6
				c0-0.3-0.4-0.6-0.7-0.4c-3.3,1.8-5.6,5.2-6.2,8.8c-1.2-4-3.2-7.8-7.4-9.3c-0.2-0.1-0.5,0.1-0.6,0.3c-0.2,1.2-0.4,2.5-0.6,3.7
				c-1-0.7-1.9-1.4-2.9-2c-0.2-0.2-0.6,0-0.7,0.3c-1.1,4.5,0.1,9.4,2.9,13.1c-1.1,0-2.2,0.1-3.4,0.3c-1.1,0.2-2.1,0.5-3.2,1
				c-0.9,0.4-2.1,0.9-2.6,1.7c-1.3,2,0.7,3.6,2.3,4.5c-1.1,0.8-2.1,1.8-2.9,2.9c-0.2,0.2,0,0.6,0.3,0.7c5.3,0.8,11.6,1.6,15.8-2.2
				c0.1,2.6,0.6,5.2,2.2,7.3c1.6,2.1,4.1,3.4,6.8,3c0.2,0,0.3-0.2,0.3-0.3c0.3-0.8,0.6-1.6,0.9-2.3c0.2,0.5,0.5,0.9,0.7,1.4
				c0.2,0.3,0.6,0.3,0.8,0c1.9-3.1,1.6-7.2-0.4-10.1c4.5,1.6,10.1-0.3,12.3-4.7C342.1,836.7,341.8,836.2,341.4,836.3z"/>
			<path id="XMLID_61_" fill="#FCECE9" d="M248.6,801c-0.9,0.3-1.9-0.2-2.2-1.2c-0.3-1.1,0.7-2.1,1.7-2.2c0.5,0,0.6-0.7,0.1-0.9
				c-3.3-0.9-7.3-1.8-10.5-0.3c1.9-3.5,2.4-7.7,1.3-11.5c-0.1-0.3-0.5-0.4-0.8-0.2c-0.9,0.8-1.8,1.4-2.8,2c-0.1-0.9-0.2-1.8-0.3-2.6
				c0-0.3-0.4-0.6-0.7-0.4c-3.3,1.8-5.6,5.2-6.2,8.8c-1.2-4-3.2-7.8-7.4-9.3c-0.2-0.1-0.5,0.1-0.6,0.3c-0.2,1.2-0.4,2.5-0.6,3.7
				c-1-0.7-1.9-1.4-2.9-2c-0.2-0.2-0.6,0-0.7,0.3c-1.1,4.5,0.1,9.4,2.9,13.1c-1.1,0-2.2,0.1-3.4,0.3c-1.1,0.2-2.1,0.5-3.2,1
				c-0.9,0.4-2.1,0.9-2.6,1.7c-1.3,2,0.7,3.6,2.3,4.5c-1.1,0.8-2.1,1.8-2.9,2.9c-0.2,0.2,0,0.6,0.3,0.7c5.3,0.8,11.6,1.6,15.8-2.2
				c0.1,2.6,0.6,5.2,2.2,7.3c1.6,2.1,4.1,3.4,6.8,3c0.2,0,0.3-0.2,0.3-0.3c0.3-0.8,0.6-1.6,0.9-2.3c0.2,0.5,0.5,0.9,0.7,1.4
				c0.2,0.3,0.6,0.3,0.8,0c1.9-3.1,1.6-7.2-0.4-10.1c4.5,1.6,10.1-0.3,12.3-4.7C249.3,801.3,249,800.9,248.6,801z"/>
			<path id="XMLID_43_" fill="#F8D8D2" d="M1276,796.5c-0.7,0.6-1.9,0.6-2.5-0.2c-0.7-0.9-0.2-2.2,0.7-2.7c0.4-0.2,0.3-0.9-0.2-0.9
				c-3.4,0.5-7.4,1.2-9.7,3.9c0.4-4-0.8-8-3.4-11.1c-0.2-0.3-0.6-0.2-0.8,0.1c-0.5,1.1-1.1,2-1.8,3c-0.4-0.8-0.9-1.5-1.3-2.3
				c-0.2-0.3-0.5-0.4-0.8-0.1c-2.3,3-3.1,6.9-2.2,10.5c-2.7-3.3-6-5.9-10.5-5.6c-0.2,0-0.4,0.3-0.4,0.5c0.3,1.2,0.6,2.4,0.9,3.7
				c-1.1-0.2-2.3-0.5-3.4-0.7c-0.3-0.1-0.5,0.2-0.5,0.5c0.8,4.6,3.8,8.7,7.9,10.8c-1,0.4-2,0.9-3,1.6c-0.9,0.6-1.8,1.3-2.5,2.1
				c-0.7,0.7-1.6,1.6-1.7,2.7c-0.4,2.3,2.1,3.1,3.9,3.2c-0.7,1.2-1.2,2.5-1.5,3.8c-0.1,0.3,0.2,0.6,0.5,0.5
				c5.2-1.3,11.3-3.1,13.7-8.3c1.1,2.3,2.6,4.5,4.9,5.8c2.3,1.3,5.1,1.5,7.4,0c0.1-0.1,0.2-0.3,0.2-0.4c0-0.8-0.1-1.7-0.1-2.5
				c0.4,0.3,0.8,0.7,1.2,1c0.3,0.2,0.7,0,0.7-0.3c0.5-3.6-1.4-7.2-4.4-9.1c4.8-0.3,9.2-4.3,9.5-9.2
				C1276.7,796.5,1276.3,796.2,1276,796.5z"/>
			<path id="XMLID_60_" fill="#ED9189" d="M191.8,806c-0.3,0.7-1.2,1.2-2,0.8c-0.9-0.4-1-1.6-0.5-2.4c0.2-0.3-0.1-0.8-0.5-0.6
				c-2.5,1.6-5.4,3.8-6.1,6.7c-1.2-3.2-3.7-5.9-6.9-7.3c-0.3-0.1-0.6,0.1-0.6,0.4c0,1-0.1,2-0.3,3c-0.6-0.4-1.3-0.9-1.9-1.3
				c-0.2-0.2-0.6-0.1-0.6,0.2c-0.7,3.2,0.3,6.6,2.3,9.1c-3.3-1.5-6.9-2.3-10.3-0.4c-0.2,0.1-0.2,0.4-0.1,0.5
				c0.7,0.8,1.4,1.7,2.1,2.5c-1,0.2-2,0.5-3,0.7c-0.2,0.1-0.3,0.4-0.2,0.6c2.4,3.3,6.3,5.3,10.3,5.5c-0.7,0.7-1.2,1.5-1.7,2.4
				c-0.5,0.8-0.9,1.7-1.1,2.6c-0.3,0.8-0.6,1.9-0.3,2.7c0.6,2,2.8,1.6,4.3,1c-0.1,1.2,0,2.4,0.3,3.6c0.1,0.2,0.4,0.4,0.6,0.2
				c3.5-3,7.6-6.7,7.5-11.7c1.8,1.4,3.8,2.5,6,2.6c2.3,0.1,4.6-0.8,5.8-2.8c0.1-0.1,0-0.3,0-0.4c-0.3-0.6-0.7-1.3-1-1.9
				c0.4,0.1,0.9,0.2,1.3,0.3c0.3,0.1,0.5-0.2,0.4-0.5c-1-3-3.8-5.1-6.9-5.4c3.6-2.1,5.5-6.9,3.9-10.8
				C192.4,805.8,192,805.7,191.8,806z"/>
			<path id="XMLID_55_" fill="#EE9891" d="M91.1,633.2c0.4-0.9,0.9-1.7,1.7-2.4c0.3-0.3,0.2-0.8-0.1-1c-2.1-1.1-4.4-1.7-6.7-1.8
				c2.3-1.5,4-3.8,4.2-6.6c0.2-3-2.6-6.1-5.5-5.3c0.1-0.6,0.3-1.2,0.4-1.9c0.1-0.4-0.2-0.8-0.6-0.8c-3.4-0.1-6.4,1.8-8.1,4.6
				c-0.3-3.7-1.3-7.3-4.5-9.6c-0.4-0.3-0.8,0-1,0.4c-0.4,1.1-0.8,2.3-1.7,3c-0.5,0.4-1,0.6-1.6,0.3c-0.5-0.2-1.2-0.9-0.7-1.5
				c0.4-0.4,0-1.3-0.6-1.1c-5.4,2-7.1,7.8-6.9,13.1c-0.2,0-0.4,0-0.6,0c-5.1,0.4-9.4,3.8-12.3,7.9c-0.2,0.2-0.1,0.6,0.1,0.8
				c1.8,1.6,3.6,3.1,5.3,4.7c-0.8,0.3-1.5,0.6-2.3,0.9c-0.4,0.2-0.7,0.7-0.3,1.1c4.2,4.1,10.8,4.6,15.7,1.7
				c-0.4,1.7-0.6,3.5-0.5,5.2c0.1,1.8,0.4,3.9,1.8,5.1c2.8,2.5,6.4,0.4,8.9-1.6c0.3,0.7,0.6,1.3,0.9,2c0.1,0.2,0.4,0.3,0.6,0.3
				c2.3-0.1,4.1-1.9,4.7-4.1c0.5-2,0-3.9-0.9-5.7c3.7,1.7,8.3,2.7,11.6,0C94.5,639,94.3,634.2,91.1,633.2z"/>
			<path id="XMLID_47_" fill="#E76364" d="M1375,697.6c0.4-0.9,0.9-1.7,1.7-2.4c0.3-0.3,0.2-0.8-0.1-1c-2.1-1.1-4.4-1.7-6.7-1.8
				c2.3-1.5,4-3.8,4.2-6.6c0.2-3-2.6-6.1-5.5-5.3c0.1-0.6,0.3-1.2,0.4-1.9c0.1-0.4-0.2-0.8-0.6-0.8c-3.4-0.1-6.4,1.8-8.1,4.6
				c-0.3-3.7-1.3-7.3-4.5-9.6c-0.4-0.3-0.8,0-1,0.4c-0.4,1.1-0.8,2.3-1.7,3c-0.5,0.4-1,0.6-1.6,0.3c-0.5-0.2-1.2-0.9-0.7-1.5
				c0.4-0.4,0-1.3-0.6-1.1c-5.4,2-7.1,7.8-6.9,13.1c-0.2,0-0.4,0-0.6,0c-5.1,0.4-9.4,3.8-12.3,7.9c-0.2,0.2-0.1,0.6,0.1,0.8
				c1.8,1.6,3.6,3.1,5.3,4.7c-0.8,0.3-1.5,0.6-2.3,0.9c-0.4,0.2-0.7,0.7-0.3,1.1c4.2,4.1,10.8,4.6,15.7,1.7
				c-0.4,1.7-0.6,3.5-0.5,5.2c0.1,1.8,0.4,3.9,1.8,5.1c2.8,2.5,6.4,0.4,8.9-1.6c0.3,0.7,0.6,1.3,0.9,2c0.1,0.2,0.4,0.3,0.6,0.3
				c2.3-0.1,4.1-1.9,4.7-4.1c0.5-2,0-3.9-0.9-5.7c3.7,1.7,8.3,2.7,11.6,0C1378.5,703.4,1378.3,698.6,1375,697.6z"/>
			<linearGradient id="XMLID_82_" gradientUnits="userSpaceOnUse" x1="709.1333" y1="1063" x2="709.1333" y2="871.2293">
				<stop  offset="0" style="stop-color:#F3BAB4"/>
				<stop  offset="1" style="stop-color:#E6716D"/>
			</linearGradient>
			<path id="XMLID_57_" fill="url(#XMLID_82_)" d="M864.9,982.3c-1-0.7-1.9-1.3-2.9-2c0.7-0.4,1.3-0.8,2-1.3c0.3-0.2,0.2-0.5,0-0.7
				c-2.1-1.4-4.5-2.2-6.9-2.4c1-2.8,1-5.8,0.3-8.7c-0.3-1.2-0.7-2.3-1.2-3.4c-0.3-0.7-0.8-1.6-1.7-1.7c-1-0.1-1.8,0.9-2.4,1.5
				c-0.7,0.7-1.3,1.5-1.9,2.3c-0.6-1.2-1.4-2.4-2.4-3.4c-0.1-0.1-0.4-0.2-0.5,0c-2,2.2-3.4,4.8-4.2,7.6c-0.7-2-0.6-4.1,0.6-6.3
				c-4.1,0.3-8.3,0.6-12.4,0.9c-0.1-0.9-0.2-1.9-0.3-2.8c2.3-2.2,3.7-5.3,3.8-8.5c0-0.4,0-0.7,0-1.1c2.3,0.4,4.7,0,6.9-1.1
				c1.8-0.9,3.4-2.3,4.5-4.1c0.1-0.2,0-0.4-0.1-0.5c-1-0.7-1.9-1.3-2.9-2c0.7-0.4,1.3-0.8,2-1.3c0.3-0.2,0.2-0.5,0-0.7
				c-2.1-1.4-4.5-2.2-6.9-2.4c1-2.8,1-5.8,0.3-8.7c-0.3-1.2-0.7-2.3-1.2-3.4c-0.3-0.7-0.8-1.6-1.7-1.7c-1-0.1-1.8,0.9-2.4,1.5
				c-0.7,0.7-1.3,1.5-1.9,2.3c-0.6-1.2-1.4-2.4-2.4-3.4c-0.1-0.1-0.4-0.2-0.5,0c-2,2.2-3.4,4.9-4.2,7.7c-0.5-0.5-1-1-1.5-1.5
				c-0.9-0.7-1.8-1.4-2.8-1.9c-0.1-0.5-0.2-1.1-0.3-1.6c-0.3-1.2-0.7-2.3-1.2-3.4c-0.3-0.7-0.8-1.6-1.7-1.7c-1-0.1-1.8,0.9-2.4,1.5
				c-0.7,0.7-1.3,1.5-1.9,2.3c-0.4-0.7-0.8-1.4-1.3-2.1c0.4-0.5,0.8-1,1.2-1.5c0.1-0.2,0-0.4-0.1-0.5c-1-0.7-1.9-1.3-2.9-2
				c0.7-0.4,1.3-0.8,2-1.3c0.3-0.2,0.2-0.5,0-0.7c-2.1-1.4-4.5-2.2-6.9-2.4c1-2.8,1-5.8,0.3-8.7c-0.3-1.2-0.7-2.3-1.2-3.4
				c-0.3-0.7-0.8-1.6-1.7-1.7c-1-0.1-1.8,0.9-2.4,1.5c-0.7,0.7-1.3,1.5-1.9,2.3c-0.6-1.2-1.4-2.4-2.4-3.4c-0.1-0.1-0.4-0.2-0.5,0
				c-2,2.2-3.4,4.9-4.2,7.7c-0.5-0.5-1-1-1.5-1.5c-2.1-1.8-4.7-3-7.6-3c-0.2,0-0.3,0.1-0.4,0.3c-0.6,1.9-0.9,3.9-1,5.9
				c-0.8-0.3-1.6-0.7-2.4-1c-0.2-0.1-0.5,0-0.6,0.2c-0.4,2.6,0.5,4.9,2,6.7c-0.9,0.5-1.8,1-2.6,1.5c-2.1-4.8-6.1-8.4-10.8-10.5
				c0.7-0.2,1.3-0.4,1.9-0.8c1.8-0.9,3.4-2.3,4.5-4.1c0.1-0.2,0-0.4-0.1-0.5c-1-0.7-1.9-1.3-2.9-2c0.7-0.4,1.3-0.8,2-1.3
				c0.3-0.2,0.2-0.5,0-0.7c-2.1-1.4-4.5-2.2-6.9-2.4c1-2.8,1-5.8,0.3-8.7c-0.3-1.2-0.7-2.3-1.2-3.4c-0.3-0.7-0.8-1.6-1.7-1.7
				c-1-0.1-1.8,0.9-2.4,1.5c-0.7,0.7-1.3,1.5-1.9,2.3c-0.6-1.2-1.4-2.4-2.4-3.4c-0.1-0.1-0.4-0.2-0.5,0c-2,2.2-3.4,4.9-4.2,7.7
				c-0.5-0.5-1-1-1.5-1.5c-2.1-1.8-4.7-3-7.6-3c-0.2,0-0.3,0.1-0.4,0.3c-0.6,1.9-0.9,3.9-1,5.9c-0.8-0.3-1.6-0.7-2.4-1
				c-0.2-0.1-0.5,0-0.6,0.2c-0.5,3,0.8,5.7,3,7.7c-1.8,0.3-3.6,0.8-5.2,1.5c-0.3,0.1-0.2,0.6,0.1,0.7c1.3,0.5,2.5,1.1,3.7,1.7
				c-1.5,0.7-2.8,1.7-3.8,3.2c-0.1,0.1-0.1,0.3,0,0.4c1,1.9,2.7,3.4,4.7,4.4c-0.4,0.4-0.8,0.8-1.2,1.3c0.4,2.8,0.8,5.6,1.2,8.4
				c-3.2,1.8-6.5,3.6-9.7,5.4c0.4-2.1,0.3-4.3-0.3-6.5c-0.3-1.2-0.7-2.3-1.2-3.4c-0.3-0.7-0.8-1.6-1.7-1.7c-1-0.1-1.8,0.9-2.4,1.5
				c-0.7,0.7-1.3,1.5-1.9,2.3c-0.6-1.2-1.4-2.4-2.4-3.4c-0.1-0.1-0.4-0.2-0.5,0c-2,2.2-3.4,4.9-4.2,7.7c-0.5-0.5-1-1-1.5-1.5
				c-2.1-1.8-4.7-3-7.6-3c-0.2,0-0.3,0.1-0.4,0.3c-0.6,1.9-0.9,3.9-1,5.9c-0.8-0.3-1.6-0.7-2.4-1c-0.2-0.1-0.5,0-0.6,0.2
				c-0.5,3,0.8,5.7,3,7.7c-1.8,0.3-3.6,0.8-5.2,1.5c-0.3,0.1-0.2,0.6,0.1,0.7c1.3,0.5,2.5,1.1,3.7,1.7c-1.5,0.7-2.8,1.7-3.8,3.2
				c-0.1,0.1-0.1,0.3,0,0.4c0.6,1,1.3,2,2.2,2.7c-0.1,0.1-0.2,0.1-0.3,0.2c-1.1,0.6-2.3,1.2-3.5,1.8c0.3-0.4,0.6-0.9,0.9-1.4
				c0.2-0.3-0.1-0.8-0.5-0.7c-0.9,0.3-2-0.2-2.3-1.2c-0.3-1.1,0.7-2.1,1.8-2.2c0.5,0,0.7-0.8,0.1-0.9c-3.4-1-7.6-1.9-10.8-0.3
				c2-3.6,2.5-7.9,1.3-12c-0.1-0.3-0.5-0.4-0.8-0.2c-0.9,0.8-1.9,1.5-2.9,2.1c-0.1-0.9-0.2-1.8-0.3-2.7c0-0.3-0.4-0.6-0.7-0.4
				c-2,1.1-3.6,2.7-4.8,4.7c-0.2-1.5-1-2.8-2.6-3.3c0.4-0.9,0.9-1.7,1.7-2.4c0.3-0.3,0.2-0.8-0.1-1c-2.1-1.1-4.4-1.7-6.7-1.8
				c2.3-1.5,4-3.8,4.2-6.6c0.2-3-2.6-6.1-5.5-5.3c0.1-0.6,0.3-1.2,0.4-1.9c0.1-0.4-0.2-0.8-0.6-0.8c-3.4-0.1-6.4,1.8-8.1,4.6
				c-0.3-3.7-1.3-7.3-4.5-9.6c-0.4-0.3-0.8,0-1,0.4c-0.4,1.1-0.8,2.3-1.7,3c-0.5,0.4-1,0.6-1.6,0.3c-0.5-0.2-1.2-0.9-0.7-1.5
				c0.4-0.4,0-1.3-0.6-1.1c-5.4,2-7.1,7.8-6.9,13.1c-0.2,0-0.4,0-0.6,0c-5.1,0.4-9.4,3.8-12.3,7.9c-0.2,0.2-0.1,0.6,0.1,0.8
				c1.8,1.6,3.6,3.1,5.3,4.7c-0.8,0.3-1.5,0.6-2.3,0.9c-0.4,0.2-0.7,0.7-0.3,1.1c0.2,0.2,0.4,0.4,0.7,0.6c-2.7,0.4-5.2,2.1-6.6,4.5
				c-0.3-3.7-1.3-7.3-4.5-9.6c-0.4-0.3-0.8,0-1,0.4c-0.4,1.1-0.8,2.3-1.7,3c-0.5,0.4-1,0.6-1.6,0.3c-0.5-0.2-1.2-0.9-0.7-1.5
				c0.4-0.4,0-1.3-0.6-1.1c-5.4,2-7.1,7.8-6.9,13.1c-0.2,0-0.4,0-0.6,0c-1.6,0.1-3.1,0.5-4.5,1.2c-0.1-1.1-0.3-2.2-0.6-3.3
				c-0.5-2-1.2-4-2.1-5.9c-0.6-1.3-1.4-2.8-3-3c-1.7-0.1-3.1,1.5-4.2,2.7c-1.2,1.2-2.2,2.5-3.2,3.9c-1-2.1-2.4-4.1-4.1-5.8
				c-0.2-0.2-0.7-0.3-0.9,0c-3.4,3.8-5.9,8.4-7.2,13.3c-0.8-0.9-1.7-1.7-2.6-2.5c-3.7-3.2-8.1-5.2-13-5.1c-0.3,0-0.5,0.2-0.6,0.5
				c-1,3.3-1.6,6.7-1.7,10.1c-1.4-0.6-2.8-1.2-4.2-1.8c-0.3-0.1-0.9-0.1-1,0.4c-0.9,5.2,1.5,9.9,5.1,13.3c-3.1,0.4-6.2,1.3-9,2.6
				c-0.6,0.3-0.3,1,0.2,1.2c2.2,0.8,4.3,1.9,6.4,3c-2.7,1.1-4.9,3-6.5,5.5c-0.1,0.2-0.1,0.5,0,0.7c2.8,5.1,8,8.6,13.7,9.5
				c1.1,0.2,2.2,0.2,3.3,0.1c-7.3,8.8-12.9,18.4-14.9,25.9c-1.5,5.6-1.8,11.7,0.7,17c3.3,7.1,11.2,11,19,11.9
				c7.8,0.8,15.5-0.9,23.2-2.6c46.6-9.9,94.2-14.9,141.8-15c36,0,82.4,9.7,113.8-14c3.3-2.5,6.4-5.7,6.8-9.8
				c0.4-3.2-0.9-6.1-2.9-8.9c0.8-0.2,1.6-0.5,2.4-0.9c1.8-0.9,3.4-2.3,4.5-4.1C865.2,982.7,865.1,982.4,864.9,982.3z M637.7,935.5
				c-0.1,0.2-0.2,0.3-0.3,0.5c-0.4,0-0.8,0-1.2,0.1c0.1-0.4,0.2-0.8,0.3-1.2C636.9,935.2,637.3,935.4,637.7,935.5z M806.4,929.5
				c-0.5,1.1-0.9,2.2-1.3,3.3c-0.5-0.5-1-1-1.5-1.5c-0.5-0.4-1-0.8-1.6-1.2C803.6,930.3,805,930,806.4,929.5z"/>
			
				<linearGradient id="XMLID_84_" gradientUnits="userSpaceOnUse" x1="1225.3491" y1="1078.3229" x2="1225.3491" y2="844.9254" gradientTransform="matrix(1 2.427929e-003 -2.427929e-003 1 2.3391 -2.9722)">
				<stop  offset="0" style="stop-color:#F3BAB4"/>
				<stop  offset="1" style="stop-color:#E6716D"/>
			</linearGradient>
			<path id="XMLID_89_" fill="url(#XMLID_84_)" d="M1555.6,953.9c-3.3-6.1-8.2-10.9-13.8-15c1.2-3.3,0.1-7.4-3.5-8.5
				c0.6-1.4,1.4-2.6,2.6-3.6c0.5-0.4,0.3-1.2-0.2-1.5c-3.2-1.7-6.6-2.6-10.1-2.7c3.4-2.3,6-5.7,6.3-9.8c0.4-4.5-3.9-9.1-8.2-7.9
				c0.2-0.9,0.4-1.9,0.6-2.8c0.1-0.6-0.3-1.2-0.9-1.2c-5-0.2-9.6,2.7-12.2,6.8c-0.4-5.6-2-11-6.6-14.4c-0.5-0.4-1.2,0-1.4,0.6
				c-0.6,1.6-1.2,3.4-2.6,4.5c-0.8,0.6-1.5,0.8-2.4,0.4c-0.7-0.3-1.8-1.4-1.1-2.2c0.5-0.5,0.2-1.6-0.5-1.7c0.1-4.3-4-8.6-8.2-7.5
				c0.2-0.9,0.4-1.9,0.6-2.8c0.1-0.6-0.3-1.2-0.9-1.2c-5-0.2-9.6,2.7-12.2,6.8c-0.4-5.6-2-11-6.6-14.4c-0.5-0.4-1.2,0-1.4,0.6
				c-0.6,1.6-1.2,3.4-2.6,4.5c-0.8,0.6-1.5,0.8-2.4,0.4c0,0-0.1,0-0.1-0.1c0.6-1.3,1.4-2.5,2.5-3.5c0.5-0.4,0.3-1.2-0.2-1.5
				c-3.2-1.7-6.6-2.6-10.1-2.7c3.4-2.3,6-5.7,6.3-9.8c0.4-4.5-3.9-9.1-8.2-7.9c0.2-0.9,0.4-1.9,0.6-2.8c0.1-0.6-0.3-1.2-0.9-1.2
				c-5-0.2-9.6,2.7-12.2,6.8c-0.4-5.6-2-11-6.6-14.4c-0.5-0.4-1.2,0-1.4,0.6c-0.6,1.6-1.2,3.4-2.6,4.5c-0.8,0.6-1.5,0.8-2.4,0.4
				c-0.7-0.3-1.8-1.4-1.1-2.2c0.6-0.7,0-2-0.9-1.6c-4.6,1.7-7.4,5.3-8.9,9.5c-1.4-1.2-2.7-2.3-4-3.5c0.1-0.2,0.2-0.4,0.2-0.7
				c0.8-2.9-0.1-5.9-1.4-8.5c5.5,2.6,12.3,4.1,17.3,0.1c3.8-3.1,3.6-10.2-1.3-11.6c0.6-1.4,1.4-2.6,2.6-3.6c0.5-0.4,0.3-1.2-0.2-1.5
				c-3.2-1.7-6.6-2.6-10.1-2.7c3.4-2.3,6-5.7,6.3-9.8c0.4-4.5-3.9-9.1-8.2-7.9c0.2-0.9,0.4-1.9,0.6-2.8c0.1-0.6-0.3-1.2-0.9-1.2
				c-5-0.2-9.6,2.7-12.2,6.8c-0.4-5.6-2-11-6.6-14.4c-0.5-0.4-1.2,0-1.4,0.6c-0.6,1.6-1.2,3.4-2.6,4.5c-0.8,0.6-1.5,0.8-2.4,0.4
				c-0.7-0.3-1.8-1.4-1.1-2.2c0.6-0.7,0-2-0.9-1.6c-4.7,1.8-7.5,5.5-9,9.8c-0.6-0.8-1.5-1.5-2.6-1.8c0.6-1.4,1.4-2.6,2.6-3.6
				c0.5-0.4,0.3-1.2-0.2-1.5c-3.2-1.7-6.6-2.6-10.1-2.7c3.4-2.3,6-5.7,6.3-9.8c0.4-4.5-3.9-9.1-8.2-7.9c0.2-0.9,0.4-1.9,0.6-2.8
				c0.1-0.6-0.3-1.2-0.9-1.2c-5-0.2-9.6,2.7-12.2,6.8c-0.4-5.6-2-11-6.6-14.4c-0.5-0.4-1.2,0-1.4,0.6c-0.6,1.6-1.2,3.4-2.6,4.5
				c-0.8,0.6-1.5,0.8-2.4,0.4c-0.7-0.3-1.8-1.4-1.1-2.2c0.6-0.7,0-2-0.9-1.6c-8.1,3-10.7,11.7-10.4,19.6c-0.3,0-0.6,0-0.8,0
				c-7.7,0.6-14.1,5.6-18.4,11.7c-0.2,0.3-0.2,0.9,0.1,1.2c2.7,2.3,5.3,4.7,8,7c-1.1,0.5-2.3,0.9-3.4,1.4c-0.6,0.3-1,1.1-0.4,1.6
				c6.2,6.1,16.2,7,23.4,2.6c-0.1,0.4-0.2,0.8-0.3,1.2c-5.8,2.6-10.5,7-15.1,11.6c-0.8,0.7-1.6,1.4-2.2,2.2c-0.3,0.3-0.7,0.7-1,1
				c-0.4-5.4-2-10.7-6.6-14c-0.5-0.4-1.2,0-1.4,0.6c-0.6,1.6-1.2,3.4-2.6,4.5c-0.8,0.6-1.5,0.8-2.4,0.4c-0.7-0.3-1.8-1.4-1.1-2.2
				c0.6-0.7,0-2-0.9-1.6c-8.1,3-10.7,11.7-10.4,19.6c-1.6-0.1-3.1,0.2-4.6,0.7c-2.9,0.8-5.5,2.2-7.9,3.9c-0.6-4.8-2.3-9.3-6.4-12.3
				c-0.5-0.4-1.2,0-1.4,0.6c-0.6,1.6-1.2,3.4-2.6,4.5c-0.8,0.6-1.5,0.8-2.4,0.4c-0.7-0.3-1.8-1.4-1.1-2.2c0.6-0.7,0-2-0.9-1.6
				c-3.6,1.4-6.2,3.9-7.8,7c-0.9-3.4-2.7-6.4-5.7-8.6c-0.5-0.4-1.2,0-1.4,0.6c-0.6,1.6-1.2,3.4-2.6,4.5c-0.8,0.6-1.5,0.8-2.4,0.4
				c-0.7-0.3-1.8-1.4-1.1-2.2c0.6-0.7,0-2-0.9-1.6c-8.1,3-10.7,11.7-10.4,19.6c-0.3,0-0.6,0-0.8,0c-6.5,0.5-12.2,4.3-16.3,9.1
				c-4-0.7-8.2-1.1-12.5-1.2c6.6-2.3,11.6-5.7,12.3-9.8c0.7-4.5-7.5-9.1-16-8c0.4-0.9,0.8-1.9,1.2-2.8c0.3-0.6-0.6-1.2-1.8-1.2
				c-9.8-0.2-18.8,2.7-23.8,6.8c-0.6-4-2.3-8-6.8-11.2c0-0.2,0.1-0.4,0.1-0.6c0.4-4.5-3.9-9.1-8.2-7.9c0.2-0.9,0.4-1.9,0.6-2.8
				c0.1-0.6-0.3-1.2-0.9-1.2c-5-0.2-9.6,2.7-12.2,6.8c-0.2-3.1-0.8-6.2-2.1-8.9c3.1,0.3,6.2-0.3,8.7-2.4c3.8-3.1,3.6-10.2-1.3-11.6
				c0.6-1.4,1.4-2.6,2.6-3.6c0.5-0.4,0.3-1.2-0.2-1.5c-3.2-1.7-6.6-2.6-10.1-2.7c3.4-2.3,6-5.7,6.3-9.8c0.4-4.5-3.9-9.1-8.2-7.9
				c0.2-0.9,0.4-1.9,0.6-2.8c0.1-0.6-0.3-1.2-0.9-1.2c-5-0.2-9.6,2.7-12.2,6.8c-0.4-5.6-2-11-6.6-14.4c-0.5-0.4-1.2,0-1.4,0.6
				c-0.6,1.6-1.2,3.4-2.6,4.5c-0.8,0.6-1.5,0.8-2.4,0.4c-0.7-0.3-1.8-1.4-1.1-2.2c0.6-0.7,0-2-0.9-1.6c-5,1.9-7.9,5.9-9.3,10.5
				c-1.6-1.6-3.7-2.4-5.9-1.9c0.2-0.9,0.4-1.9,0.6-2.8c0.1-0.6-0.3-1.2-0.9-1.2c-5-0.2-9.6,2.7-12.2,6.8c-0.4-5.6-2-11-6.6-14.4
				c-0.5-0.4-1.2,0-1.4,0.6c-0.6,1.6-1.2,3.4-2.6,4.5c-0.8,0.6-1.5,0.8-2.4,0.4c-0.7-0.3-1.8-1.4-1.1-2.2c0.6-0.7,0-2-0.9-1.6
				c-8.1,3-10.7,11.7-10.4,19.6c-0.3,0-0.6,0-0.8,0c-7.7,0.6-14.1,5.6-18.4,11.7c-0.2,0.3-0.2,0.9,0.1,1.2c2.7,2.3,5.3,4.7,8,7
				c-1.1,0.5-2.3,0.9-3.4,1.4c-0.6,0.3-1,1.1-0.4,1.6c3.7,3.7,8.8,5.4,13.9,5.3c-4.8,5.5-8.3,12.1-10.2,19.1
				c-1.2-1.3-2.5-2.6-3.8-3.8c-5.5-4.7-12.1-7.9-19.4-7.7c-0.4,0-0.8,0.3-0.9,0.7c-1.5,4.9-2.4,10-2.6,15.1
				c-2.1-0.9-4.2-1.8-6.2-2.7c-0.5-0.2-1.3-0.1-1.4,0.6c-1.4,7.8,2.1,14.8,7.6,19.9c-4.7,0.6-9.2,2-13.5,3.9
				c-0.8,0.4-0.5,1.5,0.2,1.8c3.3,1.3,6.5,2.8,9.5,4.5c-4,1.7-7.3,4.5-9.8,8.1c-0.2,0.3-0.2,0.7,0,1c1.9,3.5,4.6,6.6,7.9,8.9
				c-4.4,2.1-8.1,5.7-10.9,9.6c-0.2,0.3-0.2,0.9,0.1,1.2c2.7,2.3,5.3,4.7,8,7c-1.1,0.5-2.3,0.9-3.4,1.4c-0.6,0.3-1,1.1-0.4,1.6
				c3,2.9,6.9,4.6,10.9,5.1c-1.6,4.3-3.4,8.4-5.8,12.3c-0.3,0.5-0.6,1-1,1.5c-3.6-0.8-7.4-0.1-10.5,1.7c2.2-5.1,3.3-10.6,0.7-15.8
				c-0.3-0.6-1.1-0.5-1.5-0.1c-1.2,1.1-2.6,2.5-4.3,2.8c-0.9,0.2-1.7,0.1-2.3-0.7c-0.5-0.6-1-2.1,0.1-2.5c0.8-0.3,1-1.8-0.1-1.9
				c-8.6-1-14.9,5.5-18.2,12.6c-0.2-0.1-0.5-0.2-0.8-0.3c-6.6-2.8-14-1.7-20.3,1.3c-0.7-2.7-1.7-5.3-2.8-7.9
				c-0.9-1.9-2.1-4.2-4.5-4.4c-2.6-0.2-4.7,2.3-6.3,3.9c-1.8,1.8-3.4,3.8-4.8,5.8c-1.5-3.2-3.6-6.1-6.1-8.7c-0.4-0.4-1-0.4-1.4,0
				c-5.2,5.7-8.8,12.5-10.9,19.9c-1.2-1.3-2.5-2.6-3.8-3.8c-5.5-4.7-12.1-7.9-19.4-7.7c-0.4,0-0.8,0.3-0.9,0.7
				c-1.5,4.9-2.4,10-2.6,15.1c-2.1-0.9-4.2-1.8-6.2-2.7c-0.5-0.2-1.3-0.1-1.4,0.6c-1.4,7.8,2.1,14.8,7.6,19.9
				c-4.7,0.6-9.2,2-13.5,3.9c-0.8,0.4-0.5,1.5,0.2,1.8c3.3,1.3,6.5,2.8,9.5,4.5c-4,1.7-7.3,4.5-9.8,8.1c-0.2,0.3-0.2,0.7,0,1
				c2.6,4.8,6.6,8.6,11.4,11.2c-2.9,6.5-2.8,13.9-2.1,20.9c3,29.4,7.7,49.7,33.8,65c70.6,41.5,167.2,95.3,250.6,101.3
				c31.6,2.3,66.5-9,98.4-11.5c48.9-3.9,97.6-10,145.9-18.8c29.3-5.3,59.8-12.2,82.6-31.6c30.6-26,40.4-68.4,47.2-107.9
				C1560.8,983.8,1563,967.3,1555.6,953.9z M1376.3,817.2c-0.1,0-0.2,0.1-0.3,0.1c-0.1-0.1-0.3-0.1-0.4-0.2
				C1375.8,817.1,1376.1,817.2,1376.3,817.2z M1097.6,827.4c3.3-0.3,5.8-2.9,6.7-6.1c0.8-2.9-0.1-5.9-1.4-8.5
				c3.8,1.8,8.2,3.1,12.3,2.4c-4.7,4-6.3,10.8-6.1,17.1c-0.3,0-0.6,0-0.8,0c-3.6,0.3-7,1.6-10,3.5
				C1098.3,833,1098.1,830.2,1097.6,827.4z M1121.9,816.7c-0.2,0-0.3-0.1-0.5-0.1c-0.7-0.3-1.8-1.4-1.1-2.2c0.3-0.3,0.3-0.7,0.2-1.1
				c0.7-0.3,1.4-0.7,2.1-1.1C1122.2,813.7,1122,815.2,1121.9,816.7z M1146.8,814.7c-0.2,0.3-0.4,0.6-0.6,0.8
				c-0.2-0.5-0.4-0.9-0.6-1.4C1146,814.4,1146.4,814.5,1146.8,814.7z M1079.9,810.9c-0.7,2.6-0.9,5.2-0.8,7.8c0,0.6,0.1,1.2,0.2,1.8
				c-0.3,0.4-0.6,0.7-0.8,1.1c-1.4-3-3.3-5.7-5.6-8.1C1075.3,813,1077.7,812.2,1079.9,810.9z M967,943.4c0.5-1.5,1-3,1.3-4.6
				c2.7,3.1,6.3,5.4,10.3,6.4c-0.2,0-0.5,0-0.7,0c-0.5,0-0.9,0.1-1.4,0.2C973.4,944.3,970.2,943.6,967,943.4z M969.1,931.7
				c0-0.5,0-0.9,0-1.4c0.2,0.5,0.4,1,0.6,1.4C969.5,931.8,969.3,931.7,969.1,931.7z"/>
			<path id="XMLID_38_" fill="#FFFFFF" d="M699.6,496.7c-24.7-5.8-48.8-14.6-71.4-26.1c-0.8,9-1.7,18.1-2.5,27.1
				c-7.2-9.7-16.2-17.9-26.4-24.3c-4.4,18-10.6,35.6-18.4,52.4c-3.8-19.2-7.5-38.3-11.3-57.5c-9.1,6.7-18.2,13.3-27.3,20
				c2.3-9.6,4.5-19.1,6.8-28.7c-20.1,11.5-42.9,18.4-66.1,20c7.3-4.6,13.3-8.5,18.4-12.5c28.7-14.3,56.7-30.9,83.3-50.1
				c22,8,34.1,0,34.1,0s29.3,24.3,81.7,54.7c-13.2,0.3-26.4-2.1-38.6-7C672,477.8,685.9,487.4,699.6,496.7z"/>
			<circle id="XMLID_9_" fill="#ED1C24" cx="1033.1" cy="185" r="74"/>
			<path id="XMLID_12_" fill="#FFFFFF" d="M118.4,248.7c3.6,0.2,7.1,0.3,10.7,0.4c1.9,0.1,4.9,0.9,6.7,0.2c2.7-1.1,1.7-2.8,2.5-5
				c0.8-2.1,3.7-3.1,4.4-5c-1.7-0.9-3.5-0.6-5.3-0.4c-1.3,0.2-4.4,1.8-5.5,1.4c-2-0.8-0.3-0.6-1.3-1.7c0.1,0.1-2.1-3.2-2.2-3.2
				c-1.5-3.4-0.5-2,2.1-2.9c3.7-1.3,6.2-1.3,10.3-1.2c2.6,0.1,5.3,0.3,7.9,0.4c3.7,0,7-1.1,10.6-1.2c2.8,0,5.7,0.2,8.5,0.4
				c4,0.2,6.9-1.2,10.8-1.1c5.4,0.1,11.9,1.6,17.2,0.8c3.8-0.6,6.3-1.1,10.3-1.1c2.4,0,5.9-0.4,8-1.2c2.3-0.8,3.6-3,6.3-4
				c0.4-0.1,3.5-1.5,4.3-1.5c2.4,0,1.5,0.5,3.2,1c2.4,0.7,4.8,1.8,7.2,2.3c2.2,0.4,4.6,0,6.8,0.1c4,0.3,7.5,1.7,11.4,2.1
				c10.5,1.2,21.5,0.8,32,1.2c8,0.3,16.6,1.6,24.5,0.6c2.1-0.2,15.1-3.3,13.1,2.1c-1.6,4.4-9.1,3.8-11.2,7.4c-1.7,3,0,3,2.6,3.2
				c4.2,0.4,6.8,0.5,10.7,1.6c6.5,1.9,14.7,0.9,21.3,1.2c7.8,0.3,15.7,0.6,23.5,0.9c15,0.6,29.7-1.5,44.6-1.3c7,0.1,14,0.7,20.9,0.9
				c4.8,0.2,8.8,1.5,13.5,2.1c10.8,1.4,22.2,0.8,33,1.2c15.1,0.6,29.8-0.3,44.8,0.3c7.3,0.3,14.7,0.6,22,0.9c6,0.2,16.3-1.1,22,1.2
				c-1.5,2.7-16.1,3.5-19.1,3.5c-3.2,0-6.5-0.6-9.7-0.6c-4.6,0-8.6,1.6-13,2.3c-6.2,1-12.2,0.4-18.2,1.1c-1.9,0.2-3.3,1.1-5.2,1.5
				c-2,0.3-4.1-0.5-6.2,0c-3.6,0.9-7.1,2.8-10.9,3.5c-3.2,0.6-6.5-0.1-9.7,0.1c-3.8,0.2-7.5,1-11.3,1c-7-0.1-14-0.6-20.9-0.9
				c-3.5-0.2-15.3-1.4-17,2c1.7,0.7,3.3,0.4,5.1,0.5c3.4,0.2,6.3,1,9.6,2c6.7,2,13.5,1.9,20.3,3.5c3.7,0.9,7.6,2,11.3,2.4
				c3.7,0.4,9.5-0.9,12.9,0.8c-1.1,2.9-11.7,4.5-14.8,4.9c-5.7,0.8-11.3-0.2-17,0.8c-7.8,1.3-16.5-0.4-24.2-1.8
				c-8-1.4-16.4-1-24.5-1.3c-8.5-0.4-17,0.2-25.4,0.9c-9.2,0.8-18.1,0.4-27.4,0c-10.1-0.4-20.3-0.9-30.4-1.2
				c7.3,0.1,13.6,1.9,20.7,3.5c9.4,2.2,19.1,3.3,28.6,5.3c6.7,1.4,12.7,2.9,19.6,3.1c4.5,0.1,9.5,2.4,13.8,2
				c-6.9,2.6-14.8,1.8-22,3.1c-4.2,0.7-8.1,2.4-12.3,3c-3.9,0.5-8.1-0.1-12.1-0.3c-6.4-0.3-13.5,0.3-19.8-1.1
				c-7.4-1.6-14.5-3.1-22-4.4c-14.9-2.5-29.7-3.4-44.7-4.1c-8-0.4-15.6,0.6-23.6,0.6c-6.9,0-14.3-0.5-20.6,2.6
				c2,3.1,11,4.2,14.6,4.7c3.8,0.5,7.6,0.3,11.4,0.6c4.7,0.4,9,1.8,13.5,3.2c4.9,1.4,9.9,2.2,14.7,4c2.4,0.9,4,1.7,6.6,1.8
				c1.5,0.1,3-0.3,4.3,0.5c-2,1.8-5.9,1-8.5,1.2c-6.7,0.5-13.1,0.7-19.8,0.4c-12-0.6-23.7-0.7-35.6-2.6c-9.4-1.5-18.7-0.2-28,0.4
				c-10.6,0.7-21,1.5-31.7,1.3c-3.9-0.1-7.3,0.6-11.1,1c-5.2,0.5-10.6-0.3-15.9-0.5c-14.7-0.6-29.4-1.1-44.1-1.8
				c-8.1-0.4-16.3,0.2-24.3,0.7c-3.4,0.2-6.6,1-10,1c-2.9,0-6.5-1.2-9,0.7c3.6,1.8,8.1,2,12,3.1c10.9,3.1,21.5,4.3,32.6,6.1
				c8.2,1.3,16.1,3.7,24.4,4.7c3.4,0.4,10.4-0.1,12.7,3c-4.3,5.5-14.5,5.4-20.9,5.8c-12,0.8-23.8,0.8-35.9,0.1
				c-18.4-1.1-35.8-5.7-54.2-4.1c-16.1,1.4-33.4-1-49.6-1.7c-11.4-0.5-23.4,0-34.9-1.7c-5.6-0.9-11-2.1-16.7-1.7
				c6.3-1.7,11.5-8.2,15.9-12.5c5.1-5,9.3-8.8,8.3-16.5c-1-8-6-15.3-6.3-23.6c-0.3-8.9-1.7-17.5-1.5-26.4c0.1-3.7,1.4-6.8,1.6-10.3
				c0.1-1.9,0.4-3.9-1.5-4.9c0.7-1.6,3.5-1.4,5.2-1.6c4.9-0.7,9.8-0.9,14.6-1.6c12.2-1.7,23.8-3.6,35.3-7.5c5.8-2,11.4-1.3,17.5-1
				c10.3,0.4,20.3-0.2,30.6-0.2c8.8,0,16.8,3.6,25.8,3c6.2-0.4,12.7-2.4,18.9-1.3c4.3,0.7,6.6,4,10.7,5c1.7,0.4,15.6-0.8,14.4,3.3
				c-3.6,1.5-7.2,2.9-10.9,3.7c-6.3,1.3-11.8,4.1-18,5.4c-9.5,2-16.6,5.6-25.1,9.6c-2.9,1.4-5.8,2.8-8.8,3.9
				c-1.7,0.6-3.9,0.5-5.1,2.1c11.4,2.5,22.8,2.7,34.5,3.2c3.5,0.1,7.1,0.3,10.6,0.4C102.5,252.7,109.9,248.3,118.4,248.7z"/>
			<path id="XMLID_32_" fill="none" d="M479.1,321c-12.3-0.1-23.8-2-36.1-2c-2.6,0-5.5-0.4-8,0c-2.8,0.4-3.3,1.4-5.7,2.1
				c-6.2,1.8-16.3-0.1-22.7-0.1c-7.6,0-17.9,2-25-0.4c3.6-4,14.3-5.1,19.3-6.6c17.7-5.4,35-11.1,53.3-14.5
				c6.1-1.2,11.3-0.6,16.9,1.6c5.5,2.1,9.5,2,15.5,2c7,0,14,0,21,0c3.3,0,6.7-0.1,10,0c5.4,0.1,10.3,1.9,15.6,2.1
				c7.8,0.4,15.7,2.1,23.5,3.9c3,0.7,5.9,1.8,8.9,2.1c3.8,0.4,6.9-0.8,10.4,1.4c-7.6,4.2-18.2,4.5-26.7,4.5c-13,0-25.3,2-38.2,2
				c-5.6,0-11.5-0.7-17,0.2C488.8,320,484.4,321,479.1,321z"/>
			<path id="XMLID_33_" fill="#FFFFFF" d="M1413,365c8.4,0,15.8,8,19.4,15.1c4.9,9.6,4.8,20.8,4.7,31.3c-0.1,6.2,0.3,13.1-3.4,18.3
				c-5.3,7.5-14,17.1-22.6,19.1c-7.5,1.7-15.3,3.9-23,4.3c-5.2,0.3-10.4-0.4-15.6-0.2c-6.6,0.3-12.7,2.2-19.3,2.1
				c-12.2-0.1-25.6-1.6-37.7,0.4c-23,3.8-46.8,0.7-70.1,1.7c9.3-4.2,19.4-5.2,28-11c9.5-6.4,20.7-10.5,31.1-15.2
				c-5.5-0.1-10.5,2-15.9,2.3c-3.9,0.2-7.8-0.3-11.7,0.1c-4.5,0.4-8.8,1.7-13.4,1.9c-12.5,0.5-25.1-0.1-37.6-0.1
				c-14.8,0-28.8-0.3-43.3,2.5c-8.9,1.7-17.5,0.6-26.4,1.9c-6.9,1-15.9,3.5-22.7,1.1c4.5-3.5,12.2-3.6,17.5-5
				c8.8-2.4,17.7-3.7,26.5-6.6c8.3-2.7,16.8-3.7,25-6.5c5.3-1.8,18.8-2.5,20.7-7.1c-4.9-2-13.1,1.3-18,2.2c-6.1,1-12.1,2.1-18.3,1.1
				c-10.5-1.8-21-1.9-31.7-3.4c-10-1.4-19.4-2.2-29.5-2.2c-5.1,0-10.3-0.3-15.4-0.1c-9,0.3-17.9,3.4-26.7,5
				c-13,2.4-26.2,0.2-39.3,1.5c-15.3,1.6-30.2,1.6-45.6,1.6c-12.5,0-25,0-37.5,0c-8.2,0-16.4,0-24.6,0c-4.7,0-11.3,1.5-15.6-0.3
				c-1.6-8.3,21.5-5.7,25.6-5.7c8.7,0.1,17.9-1,26.5-1.9c6.1-0.7,11.8-4.2,17.8-5.6c2.9-0.7,5.4-0.5,8.4-0.4
				c6.1,0.1,11.5-1.8,17.4-2.2c5.4-0.3,9-1,14.2-1.8c7.8-1.2,13.9-4.1,21.9-4c9,0.2,17.5-3.3,25.8-6.6c5.9-2.3,10.3-3.1,16.4-4.5
				c4.2-1,7.9-0.6,12.2-0.9c6.4-0.4,12.4-2.3,18.9-2.2c9.7,0.1,18.7-0.5,28.2-1.5c7.4-0.8,14.8,0,22.2-0.9c16.3-1.9,32.8-1.5,49-4.1
				c10.5-1.7,20.7-1.5,31.4-1.5c18.2,0,35.7-0.3,53.7-2.4c17.4-2.1,34.6-7,51.9-9.3C1379,363.3,1396.5,365,1413,365z"/>
			<path id="XMLID_34_" fill="#FFFFFF" d="M1149.6,151c6.9,0,12.9,0.8,19.6,1.8c4.6,0.7,10.3-1,14.8,0.6c-2.1,6.4-13.9,7.3-19.3,8.6
				c-11.4,2.6-22.6,5.4-34,7.8c-23.7,5.1-47.8,5.2-72.1,5.2c-11,0-23.1,1.5-34-0.4c-9-1.6-17.6-1.9-26.9-1.6
				c-3.7,0.1-6.4,0.9-9.9,1.6c-5.5,1.1-11.4,0.4-17,0.4c-4.9,0-9.9-0.5-14.8-0.1c-5.4,0.4-9.9,2.2-15.4,2.1c-22.6-0.3-44.3,6-66.8,6
				c-12.7,0-25.5,0.1-38.2,0c-14.3-0.1-28.4,2.1-42.6,3.5c-25.2,2.6-51.6,0.5-77,0.5c-9.1,0-18.2,0-27.3,0c-5.7,0-11.3,0.3-16.9-0.5
				c-3.2-0.4-12.4-0.7-14-3.5c3.9-2.7,9-3,13.4-4.4c5.3-1.6,10.5-3.2,16-3.7c8.9-0.9,18.9-0.4,27.9-0.1c10.9,0.3,21.3,2.1,32.2,2.1
				c8.5,0,16.8-0.1,25.2,1c14.9,1.9,29.7,0.7,44.5-1.2c7.1-0.9,13.9-4,20.7-5.9c6.7-1.9,13.6-2.9,20.4-4.4
				c-2.6-8.7-23.4,0.3-29.5-8.1c11.4-7.3,26.1-1.4,38.1-1.5c14.2-0.1,29.4,2.2,43.2-2c6-1.8,10.9-1.3,17.1-0.6
				c16.3,1.9,32.7,0.4,48.9-1.4c17.3-1.8,34.3-3.3,51.7-4.5c11.3-0.8,22.7-2.8,34-3.1c6.9-0.2,13.2,1.8,20,2.5
				C1104.2,150.5,1127,151.1,1149.6,151z"/>
			<path id="XMLID_35_" fill="#FFFFFF" d="M467.5,62.6c6.7-1.4,13.2-4.7,20-5.7c3.9-0.6,5.9,0.1,9.5-1.4c0.7-0.3,3.8-1.9,4.4-2
				c6.3-1.9,13.3-2.5,20-2.4c13.9,0.1,27.1,2.7,40.6,5c13,2.2,27.4,1,40.8,1c4.9,0,9.8,0,14.7,0c2.2,0,7.5-1,9.5-0.1
				c1.9,0.8,3,1.7,1.6,4.2c-1.7,3-6.9,1.9-9.7,2.3c-9,1.3-17.7,3.9-26.8,5.1c-8.5,1.1-16.8,0.3-25.2,2c-8.1,1.6-16.2,4-24.3,4.5
				c-7.6,0.4-18.2,0.1-25,4c5.4,3.1,13.2,3.2,19.2,4.4c-0.9,4.3-10.8,5.3-14.3,5.6c-6.6,0.5-12.9,2.1-19.6,2
				c-15-0.1-30.7-1.2-45.7,0c-6,0.5-11.6,1.8-17.8,2c-10.2,0.3-20.1,2.1-30.6,2.1c-6,0-11.9,0-17.9,0c-6.1,0-16.5,2.1-22-0.4
				c1-3.8,13.3-6.6,17.1-7.4c6.1-1.3,14-4.2,20.2-4.3c-7,0.2-12.8-2.1-20-2c-6.4,0.1-13.2-1.4-19.4-3c-2.3-0.6-15.1-0.7-13.8-5
				c0.2-0.8,1-1.2,1.2-2c-0.4-0.3-0.8-0.4-1.4-0.5c0.7-2.7,10.9-3.6,13.3-4.1c7.3-1.5,14.4-1.5,21.8-1.5c7.6,0,15.1,0,22.7,0
				c2.5,0,5.7,0.5,8.2,0c2.7-0.5,3.7-1.5,6.3-2.1c2.9-0.7,6.5,0.2,9.6-0.3c5.7-1,10-2.7,15.6-1.2C456.1,62.9,461.6,63.8,467.5,62.6z
				"/>
			<path id="XMLID_36_" fill="#FFFFFF" d="M658.7,91.5c-7.5,1.1-14.9,4.6-22.6,3c-7.2-1.5-14-1.5-21.5-1.5c-5.9,0-16.2,2.1-21.4-0.4
				c1.9-9.6,18.6-8.7,25.7-8.5c5.6,0.1,11.2,1.1,16.6-0.4c2.2-0.6,4.2-1.7,6.4-2.2c3.2-0.7,6.5-0.5,9.8-0.7c5.5-0.3,12.3-2.1,17.6,0
				c3,1.2,7.4,4.9,3.9,7.7C669.8,91.3,662.8,90.8,658.7,91.5z"/>
			<path id="XMLID_45_" fill="#F8D8D2" d="M1087.4,883.4c-0.5,0.8-1.6,1.2-2.4,0.6c-0.9-0.6-0.9-2-0.2-2.8c0.3-0.4,0-1-0.5-0.7
				c-3.1,1.5-6.6,3.6-7.9,6.8c-0.9-3.9-3.4-7.3-6.8-9.3c-0.3-0.2-0.7,0-0.7,0.4c-0.1,1.2-0.4,2.3-0.7,3.4c-0.7-0.6-1.3-1.2-2-1.7
				c-0.3-0.2-0.6-0.2-0.8,0.2c-1.2,3.6-0.6,7.6,1.3,10.7c-3.6-2.2-7.6-3.6-11.8-1.9c-0.2,0.1-0.3,0.4-0.2,0.6
				c0.7,1.1,1.4,2.1,2.1,3.2c-1.2,0.1-2.3,0.3-3.5,0.4c-0.3,0-0.4,0.4-0.3,0.6c2.2,4.1,6.4,6.9,11,7.7c-0.8,0.7-1.6,1.6-2.3,2.5
				c-0.7,0.9-1.2,1.8-1.7,2.9c-0.4,0.9-0.9,2.1-0.8,3.1c0.4,2.3,2.9,2.2,4.8,1.8c-0.3,1.4-0.3,2.7-0.2,4.1c0,0.3,0.4,0.5,0.6,0.3
				c4.5-2.9,9.6-6.6,10.2-12.3c1.8,1.8,4,3.4,6.5,3.9c2.6,0.5,5.3-0.3,7-2.4c0.1-0.1,0.1-0.3,0-0.4c-0.3-0.8-0.6-1.5-0.9-2.3
				c0.5,0.2,1,0.4,1.5,0.6c0.3,0.1,0.6-0.2,0.6-0.5c-0.7-3.6-3.6-6.4-7.1-7.2c4.4-1.9,7.2-7.1,5.9-11.8
				C1088.2,883.1,1087.6,883,1087.4,883.4z"/>
			<path id="XMLID_50_" fill="#FFFFFF" d="M502.3,849c0,0.6-0.5,1.1-1.1,1c-0.7-0.1-1-0.8-0.9-1.4c0.1-0.3-0.3-0.5-0.5-0.3
				c-1.2,1.7-2.6,3.8-2.4,5.9c-1.6-1.8-3.9-3-6.4-3.1c-0.2,0-0.3,0.2-0.3,0.4c0.3,0.7,0.5,1.3,0.6,2c-0.5-0.1-1.1-0.2-1.6-0.4
				c-0.2,0-0.4,0.1-0.4,0.3c0.3,2.3,1.8,4.3,3.7,5.4c-2.6-0.2-5.1,0.2-6.9,2.3c-0.1,0.1-0.1,0.3,0.1,0.4c0.7,0.4,1.3,0.8,2,1.1
				c-0.6,0.4-1.2,0.8-1.8,1.2c-0.1,0.1-0.1,0.3,0,0.4c2.4,1.6,5.4,2,8.1,1.1c-0.3,0.6-0.4,1.3-0.6,2c-0.1,0.7-0.1,1.3-0.1,2
				c0,0.6,0.1,1.4,0.4,1.9c0.9,1.1,2.2,0.4,3.1-0.4c0.2,0.8,0.6,1.6,1.1,2.3c0.1,0.1,0.4,0.1,0.4,0c1.6-2.9,3.4-6.3,2.1-9.6
				c1.5,0.5,3.1,0.7,4.6,0.3c1.5-0.5,2.8-1.7,3.1-3.3c0-0.1,0-0.2-0.1-0.2c-0.4-0.3-0.8-0.7-1.1-1c0.3,0,0.6-0.1,1-0.1
				c0.2,0,0.3-0.3,0.2-0.4c-1.4-1.7-3.8-2.4-5.9-1.9c1.9-2.2,1.9-5.9-0.1-8.1C502.6,848.7,502.3,848.8,502.3,849z"/>
			<path id="XMLID_53_" fill="#FFFFFF" d="M448.2,735.6c0,0.6-0.5,1.1-1.1,1c-0.7-0.1-1-0.8-0.9-1.4c0.1-0.3-0.3-0.5-0.5-0.3
				c-1.2,1.7-2.6,3.8-2.4,5.9c-1.6-1.8-3.9-3-6.4-3.1c-0.2,0-0.3,0.2-0.3,0.4c0.3,0.7,0.5,1.3,0.6,2c-0.5-0.1-1.1-0.2-1.6-0.4
				c-0.2,0-0.4,0.1-0.4,0.3c0.3,2.3,1.8,4.3,3.7,5.4c-2.6-0.2-5.1,0.2-6.9,2.3c-0.1,0.1-0.1,0.3,0.1,0.4c0.7,0.4,1.3,0.8,2,1.1
				c-0.6,0.4-1.2,0.8-1.8,1.2c-0.1,0.1-0.1,0.3,0,0.4c2.4,1.6,5.4,2,8.1,1.1c-0.3,0.6-0.4,1.3-0.6,2c-0.1,0.7-0.1,1.3-0.1,2
				c0,0.6,0.1,1.4,0.4,1.9c0.9,1.1,2.2,0.4,3.1-0.4c0.2,0.8,0.6,1.6,1.1,2.3c0.1,0.1,0.4,0.1,0.4,0c1.6-2.9,3.4-6.3,2.1-9.6
				c1.5,0.5,3.1,0.7,4.6,0.3c1.5-0.5,2.8-1.7,3.1-3.3c0-0.1,0-0.2-0.1-0.2c-0.4-0.3-0.8-0.7-1.1-1c0.3,0,0.6-0.1,1-0.1
				c0.2,0,0.3-0.3,0.2-0.4c-1.4-1.7-3.8-2.4-5.9-1.9c1.9-2.2,1.9-5.9-0.1-8.1C448.5,735.3,448.2,735.4,448.2,735.6z"/>
			<path id="XMLID_63_" fill="#FFFFFF" d="M253.9,670.2c0,0.6-0.5,1.1-1.1,1c-0.7-0.1-1-0.8-0.9-1.4c0.1-0.3-0.3-0.5-0.5-0.3
				c-1.2,1.7-2.6,3.8-2.4,5.9c-1.6-1.8-3.9-3-6.4-3.1c-0.2,0-0.3,0.2-0.3,0.4c0.3,0.7,0.5,1.3,0.6,2c-0.5-0.1-1.1-0.2-1.6-0.4
				c-0.2,0-0.4,0.1-0.4,0.3c0.3,2.3,1.8,4.3,3.7,5.4c-2.6-0.2-5.1,0.2-6.9,2.3c-0.1,0.1-0.1,0.3,0.1,0.4c0.7,0.4,1.3,0.8,2,1.1
				c-0.6,0.4-1.2,0.8-1.8,1.2c-0.1,0.1-0.1,0.3,0,0.4c2.4,1.6,5.4,2,8.1,1.1c-0.3,0.6-0.4,1.3-0.6,2c-0.1,0.7-0.1,1.3-0.1,2
				c0,0.6,0.1,1.4,0.4,1.9c0.9,1.1,2.2,0.4,3.1-0.4c0.2,0.8,0.6,1.6,1.1,2.3c0.1,0.1,0.4,0.1,0.4,0c1.6-2.9,3.4-6.3,2.1-9.6
				c1.5,0.5,3.1,0.7,4.6,0.3c1.5-0.5,2.8-1.7,3.1-3.3c0-0.1,0-0.2-0.1-0.2c-0.4-0.3-0.8-0.7-1.1-1c0.3,0,0.6-0.1,1-0.1
				c0.2,0,0.3-0.3,0.2-0.4c-1.4-1.7-3.8-2.4-5.9-1.9c1.9-2.2,1.9-5.9-0.1-8.1C254.2,669.9,253.9,670,253.9,670.2z"/>
			<path id="XMLID_59_" fill="#FFFFFF" d="M98.4,662.8c0,0.6-0.5,1.1-1.1,1c-0.7-0.1-1-0.8-0.9-1.4c0.1-0.3-0.3-0.5-0.5-0.3
				c-1.2,1.7-2.6,3.8-2.4,5.9c-1.6-1.8-3.9-3-6.4-3.1c-0.2,0-0.3,0.2-0.3,0.4c0.3,0.7,0.5,1.3,0.6,2c-0.5-0.1-1.1-0.2-1.6-0.4
				c-0.2,0-0.4,0.1-0.4,0.3c0.3,2.3,1.8,4.3,3.7,5.4c-2.6-0.2-5.1,0.2-6.9,2.3c-0.1,0.1-0.1,0.3,0.1,0.4c0.7,0.4,1.3,0.8,2,1.1
				c-0.6,0.4-1.2,0.8-1.8,1.2c-0.1,0.1-0.1,0.3,0,0.4c2.4,1.6,5.4,2,8.1,1.1c-0.3,0.6-0.4,1.3-0.6,2c-0.1,0.7-0.1,1.3-0.1,2
				c0,0.6,0.1,1.4,0.4,1.9c0.9,1.1,2.2,0.4,3.1-0.4c0.2,0.8,0.6,1.6,1.1,2.3c0.1,0.1,0.4,0.1,0.4,0c1.6-2.9,3.4-6.3,2.1-9.6
				c1.5,0.5,3.1,0.7,4.6,0.3c1.5-0.5,2.8-1.7,3.1-3.3c0-0.1,0-0.2-0.1-0.2c-0.4-0.3-0.8-0.7-1.1-1c0.3,0,0.6-0.1,1-0.1
				c0.2,0,0.3-0.3,0.2-0.4c-1.4-1.7-3.8-2.4-5.9-1.9c1.9-2.2,1.9-5.9-0.1-8.1C98.8,662.5,98.4,662.6,98.4,662.8z"/>
			<g id="XMLID_5_">
				<path id="XMLID_86_" fill="#FFFFFF" d="M535.8,740.2c2.6-1.7,5.5-3.2,8.3-4.4c-0.8,0.1-1.6,0.2-2.4,0.3c2.3,0.8,5-0.6,6.1-2.7
					c1.3-2.4-0.4-4.7-2.9-5c-1.6-0.2-3.2,0.6-4.4,1.7c-0.2,0.2-1.4,2-0.8,1.4c0.4-0.5-1,0.7-1.1,0.9c-1.8,1.8-3.2,3.9-4.5,6.1
					C533.5,739.5,534.7,740.9,535.8,740.2L535.8,740.2z"/>
			</g>
			<g id="XMLID_76_">
				<path id="XMLID_102_" fill="#FFFFFF" d="M670.3,780.5c-0.3-0.1-0.7-0.8-1-1.1c-0.5-0.6-1-1-1.7-1.4c-0.5-0.4-0.5-0.4-0.1,0
					c-0.2-0.4-0.5-0.7-0.8-0.9c-0.4-0.4-0.6-0.9-1-1.3c0.1,0.6,0.3,1.1,0.4,1.7c0.2-1.6-0.3-2.8-1.4-3.9c-2.7-2.6-7.5,0-6.4,3.7
					c0,0.2,0.1,0.3,0.1,0.5c0.4,1.3,1.4,2.5,2.8,2.8c0.2,0.1,0.5,0.1,0.7,0.2c-0.5-0.3-1-0.6-1.4-0.8c1.4,1.4,3,2.1,4.8,2.8
					c1,0.4,1.7,0.5,2.8,0.3c0.8-0.2,1.4-0.7,2.1-0.9C671.1,781.9,671,780.8,670.3,780.5L670.3,780.5z"/>
			</g>
			<g id="XMLID_77_">
				<path id="XMLID_120_" fill="#FFFFFF" d="M846.4,873.6c-0.8-1.1-1.1-2.7-2.2-3.6c-1.3-1.1-3-2-4.5-2.8c0.4,0.4,0.8,0.8,1.3,1.3
					c-1.6-2.4-4.4-3.4-7-1.8c-1.6,1-2.4,3.2-1.3,4.9c1.7,2.5,4.3,3,7,1.8c-0.6,0.2-1.2,0.3-1.8,0.5c1.5,0.2,2.9,0.9,4.3,1.1
					c1,0.1,2.1-0.2,3.1,0.2C846.1,875.2,846.9,874.3,846.4,873.6L846.4,873.6z"/>
			</g>
			<g id="XMLID_78_">
				<path id="XMLID_127_" fill="#FFFFFF" d="M1116.4,703c2.1-0.9,3.3-2.4,4.1-4.6c0.4-1.1,0.9-2.3,0.6-3.5c-0.3-1.4-1.2-2.1-2.1-2.7
					c-1-0.7-2.5-0.2-3.1,0.8c-0.2,0.4-0.4,0.8-0.5,1.2c0.2-0.4,0.5-0.8,0.7-1.2c-1.3,1.2-1.4,3.2-0.5,4.6c-0.1-0.5-0.3-1-0.4-1.5
					c0,1.2-0.5,2.5-1.3,3.5C1112.1,701.6,1114.1,704,1116.4,703L1116.4,703z"/>
			</g>
			<g id="XMLID_79_">
				<path id="XMLID_145_" fill="#FFFFFF" d="M1097.7,595.1c-1.5-1.1-2.7-2.7-4.2-3.9c-1.5-1.2-3-2.4-4.4-3.8
					c0.3,0.7,0.6,1.5,0.9,2.2c-0.2-2.6-1.6-4.2-4.3-4.7c-2.2-0.4-4.5,1.3-3.8,3.8c1,3.6,4,4.1,6.8,5.4c1.3,0.7,2.7,1.3,4.1,1.7
					c1.5,0.4,2.9,0.2,4.5,0.4C1098,596.3,1098.1,595.4,1097.7,595.1L1097.7,595.1z"/>
			</g>
			<g id="XMLID_80_">
				<path id="XMLID_152_" fill="#FFFFFF" d="M211.5,758c-0.2-0.1-0.5-0.6-0.6-0.8c-0.5-0.5,0.4,0.7-0.1-0.1
					c-0.4-0.6-0.8-1.1-1.3-1.7c-0.7-1-1.4-2-1.9-3.1c0.2,0.6,0.3,1.1,0.5,1.7c0,0.7,0.1-0.1,0.1-0.3c1.1-3.5-2.7-6.6-5.9-5.2
					c-3.2,1.3-3.7,6.1-0.5,7.8c0.4,0.2,0.8,0.4,1.2,0.6c-0.4-0.4-0.8-0.8-1.2-1.2c1.2,1.6,2.4,2.9,4.3,3.7c0.8,0.4,1.9,0.8,2.8,0.8
					c0.3,0,0.6,0,0.9-0.1c0.5,0,0.9-0.3,1.4-0.3C212,759.9,212.4,758.5,211.5,758L211.5,758z"/>
			</g>
			<g id="XMLID_81_">
				<path id="XMLID_159_" fill="#FFFFFF" d="M279.4,876.1c-2.1-1.8-5.3-2.3-7.8-3.6c-2.4-1.2-5.4-0.4-6.5,2.2c-1,2.3,0.2,5.6,3,6.2
					c3.7,0.7,9.6,0.6,11.5-3.3C279.8,877.1,279.8,876.4,279.4,876.1L279.4,876.1z"/>
			</g>
			<g id="XMLID_83_">
				<path id="XMLID_166_" fill="#FFFFFF" d="M377.4,865.1c1.8-0.6,3.5-1.2,5.2-2c1.6-0.7,3-1.5,4.4-2.3c2.7-1.5,1.8-5.8-1.2-6.1
					c-3.2-0.4-4.8,3.3-2.8,5.6c0.1,0.2,0.3,0.3,0.4,0.5c-0.1-1-0.3-2-0.4-3c-0.7,1.1-2,1.9-2.9,2.7c-1.2,1-2.4,2.2-3.5,3.3
					C376.1,864.4,376.6,865.4,377.4,865.1L377.4,865.1z"/>
			</g>
			<g id="XMLID_85_">
				<path id="XMLID_173_" fill="#FFFFFF" d="M314.1,955.2c0.7,1.2,1.9,1.8,3.3,2c0.8,0.1,1.7,0,2.4-0.4c0.3-0.2,0.6-0.5,0.8-0.8
					c0.3-0.6,0.3-0.7,0.1-0.4c0.2-0.4,0.3-0.7,0.3-1c0.3-1.6-1.1-2.6-2.6-2c0.2-0.1-0.3-0.1,0,0c0.3-0.1,0.1,0-0.5,0.1
					c-0.2,0.1-0.4,0.2-0.5,0.2c-0.3,0.2-0.5,0.4-0.7,0.6c-0.3,0.2,0.4-0.2-0.1,0.1c-0.4,0.3-0.8,0.3-1.4,0.1
					C314.4,953.4,313.6,954.5,314.1,955.2L314.1,955.2z"/>
			</g>
			<g id="XMLID_101_">
				<path id="XMLID_180_" fill="#FFFFFF" d="M95.4,839.4c-3.6,0-7.1,1.4-10.5,2.1c-3.7,0.8-7,0-8.7,4c-0.3,0.8-0.4,1.9,0.3,2.5
					c0.6,0.5,1.2,0.9,1.9,1.3c1.2,0.6,2.7,0.8,3.9,0c4.4-3,10.3-3.9,13.9-8.1C96.7,840.6,96.3,839.4,95.4,839.4L95.4,839.4z"/>
			</g>
			<g id="XMLID_119_">
				<path id="XMLID_187_" fill="#FFFFFF" d="M33.4,659.7c-1.6-1.2-3.3-2.5-4.9-3.7c-1.2-0.9-3.7-2.2-4.3-3.6c-1-2.2-4.3-1.9-5.4,0
					c-1.2,2,0.3,4.8,2.7,4.7c1.4-0.1,3.8,1.8,5,2.4c1.8,0.9,3.7,1.8,5.5,2.8C33.7,663.1,34.9,660.9,33.4,659.7L33.4,659.7z"/>
			</g>
			<g id="XMLID_126_">
				<path id="XMLID_194_" fill="#FFFFFF" d="M1255.3,903c1.1-0.8,3.1,1,4.6,1c0.8,0,1.7-0.1,2.5-0.3c2.3-0.3,4.6-1.3,5.7-3.4
					c0.9-1.8,0.8-4-0.7-5.4c-2.3-2.3-5.9-2.2-8.6-0.6c-1.1,0.7-2.3,1.5-3,2.6c-1,1.8,0.1,3.9-1.1,5.5
					C1254.5,902.8,1255,903.2,1255.3,903L1255.3,903z"/>
			</g>
			<g id="XMLID_144_">
				<path id="XMLID_205_" fill="#FFFFFF" d="M788.7,947.5c-0.5-0.4-0.6-0.8-0.9-1.3c-0.4-0.7-1-1.2-1.4-1.8c-0.4-0.5-0.6-1-1-1.5
					c-0.5-0.6-0.7-0.6-1-1.4c-0.9-2.2-3.9-3.3-5.5-1.1c-1.6,2.2,0,4.8,2.5,5.1c0.5,0,0.9,0.2,1.4,0.2c-0.4-0.1-0.8-0.2-1.2-0.3
					c1.2,0.6,2.3,0.9,3.5,1.4c1.1,0.4,2.3,0.6,3.3,1.2C788.6,948.1,788.9,947.7,788.7,947.5L788.7,947.5z"/>
			</g>
			<g id="XMLID_151_">
				<path id="XMLID_220_" fill="#FFFFFF" d="M1311.4,685.3c0.1-0.4,0.2-0.9,0.2-1.3c-0.2,0.2-0.4,0.5-0.5,0.7c1.1-0.5,2.3-1,2.9-2.1
					c0.4-0.8,0.6-1.6,0.5-2.5c-0.3-1.9-1.9-3.5-3.9-3.5c-1.8,0.1-3.3,1.2-3.8,2.9c-0.3,0.9-0.1,2.3,0.4,3.1c0.7,1.1,1.7,1.5,2.9,2.1
					c-0.2-0.2-0.4-0.5-0.5-0.7c0.1,0.4,0.2,0.9,0.2,1.3C1309.9,686.2,1311.3,686.2,1311.4,685.3L1311.4,685.3z"/>
			</g>
			<g id="XMLID_158_">
				<path id="XMLID_227_" fill="#E86F6E" d="M927.7,770.5c-0.2-1.9-0.2-3.6-0.2-5.5c-0.3,0.6-0.6,1.1-1,1.7c2.2-1.3,3.8-3.4,3.1-6.2
					c-0.7-2.6-3.6-4.3-6.2-3.5c-2.6,0.7-4.3,3.6-3.5,6.2c0.7,2.7,3.1,3.7,5.7,3.7c-0.6-0.3-1.1-0.6-1.7-1c1,1.6,1.8,3.1,2.5,4.8
					C926.7,771.4,927.7,771.1,927.7,770.5L927.7,770.5z"/>
			</g>
			<g id="XMLID_165_">
				<path id="XMLID_234_" fill="#E86F6E" d="M1159,925.1c1.2-1.9,2.8-2.2,4.1-3.8c1.8-2.2,3.1-4.1,5.3-6c2.5-2.1,1.3-6.2-1.5-7.3
					c-3.1-1.3-6.1,1-6.3,4.1c-0.2,2.5-0.8,4.5-1.5,6.9c-0.6,2,0.1,3.8-0.7,5.9C1158.4,925.2,1158.9,925.3,1159,925.1L1159,925.1z"/>
			</g>
			<g id="XMLID_172_">
				<path id="XMLID_241_" fill="#E86F6E" d="M1316.1,908.7c-0.6-2.1-0.9-4.2-2-6.1c-1-1.8-3.3-3.5-3.6-5.5c-0.5-2.9-4.9-4-6.7-1.8
					c-0.5,0.5-0.9,1-1,1.8c-0.5,3.7,2.5,6,5.9,4.6c-0.6,0.1-0.6,0.3,0.2,0.5c0.4,0.2,0.8,0.5,1.2,0.8c0.7,0.5,1.3,1.1,1.9,1.7
					c1.3,1.3,2.5,2.6,3.2,4.3C1315.4,909.5,1316.3,909.3,1316.1,908.7L1316.1,908.7z"/>
			</g>
			<g id="XMLID_179_">
				<path id="XMLID_248_" fill="#E86F6E" d="M435.6,847.1c0.1-2,0.3-4.4-0.3-6.3c-0.3-1-0.7-1.9-1.2-2.9c-0.5-1-1.2-1.9-1.7-3
					c-2.4-5.2-10.2,2-4.8,4.8c1.4,0.7,2.4,2.4,3.3,3.6c1,1.4,1.8,2.3,2.4,4C433.7,848.7,435.5,848.4,435.6,847.1L435.6,847.1z"/>
			</g>
			<g id="XMLID_186_">
				<path id="XMLID_255_" fill="#E86F6E" d="M196.5,706.6c2.9-1.9,5.8-3.7,8.7-5.5c-0.5,0.1-0.9,0.3-1.4,0.4
					c1.3-0.1,2.3-0.2,3.4-0.9c2.1-1.4,2.6-4.2,0.8-6c-1.8-1.8-4.7-1.3-6,0.8c-0.7,1.1-0.9,2.1-0.9,3.4c0.1-0.5,0.3-0.9,0.4-1.4
					c-1.8,2.9-3.5,5.8-5.5,8.7C195.7,706.4,196.2,706.9,196.5,706.6L196.5,706.6z"/>
			</g>
			<g id="XMLID_193_">
				<path id="XMLID_262_" fill="#E86F6E" d="M140.8,754.9c-0.4,1.3-1.1,2.6-2,3.6c-1.2,1.3-2.9,2.1-3.2,4.1c-0.3,1.4,0.4,3.2,2,3.5
					c5.4,1,8.1-6.2,8.2-10.5C145.7,752.6,141.7,752.2,140.8,754.9L140.8,754.9z"/>
			</g>
			<g id="XMLID_200_">
				<path id="XMLID_269_" fill="#E86F6E" d="M607.9,897.8c-0.2-0.7,0-1.4-0.3-2.2c-0.4-1.1-1.2-2.2-2-3.1c-1.6-1.8-4.1-3.2-6.3-4.2
					c-1.3-0.6-3.5-0.5-4.2,1.1c-0.2,0.5-0.4,0.9-0.4,1.5c-0.1,1.7,1.5,2.9,3,3c2,0.2,3.4,1.1,5,2.2c0.7,0.5,1.5,1,2.2,1.5
					c0.5,0.3,1.3,0.5,1.7,0.9C607.3,898.9,608.1,898.4,607.9,897.8L607.9,897.8z"/>
			</g>
			<g id="XMLID_201_">
				<path id="XMLID_275_" fill="#E86F6E" d="M523.2,950.2c-2-0.5-3.6-1.4-5.7-1.9c-0.9-0.2-1.8-0.5-2.8-0.7c-1-0.2-2,0-3-0.2
					c-3.3-0.6-6.4,2-5.5,5.5c0.9,3.3,5.1,4.3,7.5,2c1-1,2.7-1.7,4.1-2.3c1.5-0.6,3.7-1.5,5.3-1.6C523.6,951,523.7,950.3,523.2,950.2
					L523.2,950.2z"/>
			</g>
			<g id="XMLID_207_">
				<path id="XMLID_280_" fill="#E86F6E" d="M292.3,917.8c2.2-1.6,4.3-2.8,6.3-4.7c1.9-1.8,3.7-4.6,6-5.7c2.9-1.4,2.2-5.8-0.5-6.9
					c-3.1-1.3-5.8,1.5-5.3,4.6c0.3,1.9-1.7,4.7-2.6,6.3c-1.3,2.1-2.6,4.4-4.3,6.1C291.8,917.7,292.1,918,292.3,917.8L292.3,917.8z"
					/>
			</g>
			<g id="XMLID_208_">
				<path id="XMLID_287_" fill="#ED9189" d="M55.5,905.3c-0.8-0.9-1.7-1.5-2.7-2.2c0.2,0.3,0.4,0.7,0.6,1c-0.3-2.8-4.1-4.5-6.1-6
					c0.5,0.8,0.9,1.6,1.4,2.4c0-0.3,0-0.5-0.1-0.8c-0.3-3.9-5.5-5.8-7.7-2.1c-2.2,3.7,2.1,7.4,5.6,5.6c0.2-0.1,0.5-0.2,0.7-0.4
					c-0.7,0.1-1.4,0.2-2.1,0.3c2.2,0.9,5.2,3,7.7,2c-0.4,0-0.8,0-1.2,0c1.1,0.5,2.1,0.9,3.2,1.2C55.5,906.6,55.9,905.8,55.5,905.3
					L55.5,905.3z"/>
			</g>
			<g id="XMLID_214_">
				<path id="XMLID_294_" fill="#ED9189" d="M1147.8,873c0.8-1.5,1.5-3,2.1-4.6c0.7-1.9,1.9-3.4,2.6-5.2c-1,0.8-2,1.6-3.1,2.3
					c5.6,0,7.6-8.2,1.8-9.8c-5.8-1.6-8.5,6.6-3.4,9.3c-0.5-0.9-1-1.8-1.6-2.7c-0.1,1.7,0.2,3.3,0,5.1c-0.2,1.7-0.3,3.4-0.3,5.1
					C1145.9,873.5,1147.3,873.9,1147.8,873L1147.8,873z"/>
			</g>
			<g id="XMLID_215_">
				<path id="XMLID_301_" fill="#F1AAA1" d="M1006.4,772.4c0.9-1.1,1.5-2,1.9-3.4c0.5-1.6,0.5-3,1.8-4.1c3.8-3.2,0.6-9.5-3.9-9.5
					c-4.5,0-7.8,6.3-3.9,9.5c0.8,0.7,0.9,0.9,1.2,1.9c0.2,0.7,0.4,1.4,0.6,2.2c0.4,1.4,0.9,2.3,1.9,3.4
					C1005.9,772.5,1006.2,772.5,1006.4,772.4L1006.4,772.4z"/>
			</g>
			<g id="XMLID_216_">
				<path id="XMLID_308_" fill="#F1AAA1" d="M1239.7,716.9c-0.2-2-0.6-3.4-1.6-5.1c-1.1-1.8-2.9-3.1-3.8-4.9
					c-0.7-1.5-3.2-2.6-4.8-1.9c-2.7,1.1-4.4,3.4-2.5,6.2c0.9,1.4,3,2.7,4.8,1.9c2.3-0.9,6,2.5,7.4,4
					C1239.4,717.3,1239.8,717.2,1239.7,716.9L1239.7,716.9z"/>
			</g>
			<g id="XMLID_217_">
				<path id="XMLID_315_" fill="#F1AAA1" d="M840.2,677.1c-0.3-0.4-0.4-1.1-0.8-1.6c-0.7-0.9-2-1.8-2.9-2.5
					c-1.9-1.5-3.7-3.1-5.7-4.6c-2.4-1.8-5.8-1.9-7.4,1c-1.6,2.7-0.1,6.1,2.8,7c2.4,0.7,4.8,1.3,7.2,2c1.1,0.3,2.3,0.6,3.4,0.8
					c1,0.2,1.7-0.2,2.6-0.1C840.4,679.2,840.8,677.8,840.2,677.1L840.2,677.1z"/>
			</g>
			<g id="XMLID_218_">
				<path id="XMLID_322_" fill="#F1AAA1" d="M379.3,663.5c-1.9,0.1-3.7,0.3-5.6,0.6c-2,0.4-4.1,0.5-5.8,1.6c-3,1.9-1,6.2,2.4,5.6
					c2-0.3,3.6-1.8,5.3-2.8c1.6-0.9,3-2.1,4.5-3.3C380.7,664.8,380.1,663.5,379.3,663.5L379.3,663.5z"/>
			</g>
			<g id="XMLID_219_">
				<path id="XMLID_329_" fill="#F1AAA1" d="M319.6,612.9c-0.3-0.1-0.6-0.1-0.9-0.2c0.4,0.3,0.8,0.6,1.2,0.9c-1-1.5-2.4-2.1-4.2-1.6
					c-1.1,0.3-2.3,0.7-3.2,1.4c-0.9,0.6-0.9,1.7,0,2.3c0.9,0.6,2.1,1.1,3.2,1.4c1.8,0.5,3.2-0.1,4.2-1.6c-0.4,0.3-0.8,0.6-1.2,0.9
					c0.3-0.1,0.6-0.1,0.9-0.2C321.2,615.9,321.2,613.3,319.6,612.9L319.6,612.9z"/>
			</g>
			<g id="XMLID_226_">
				<path id="XMLID_324_" fill="#F1AAA1" d="M214.1,600.3c-0.9,0-1.8-0.1-2.8-0.1c-0.8,0-1.6-0.3-2.2,0.4c-0.2,0.3-0.2,0.6,0,0.9
					c0.5,0.7,1.4,0.4,2.2,0.4c0.9,0,1.8-0.1,2.8-0.1C215.1,601.8,215.1,600.4,214.1,600.3L214.1,600.3z"/>
			</g>
			<g id="XMLID_233_">
				<path id="XMLID_317_" fill="#F1AAA1" d="M1050.4,606.2c0.9,1.6,3.1,0.9,4.4,0.4c1.4-0.6,3.3-1.9,3.7-3.5c0.2-0.8-0.3-1.4-1-1.7
					c-1.4-0.6-3.8,0.2-5,1C1051.4,603.2,1049.5,604.5,1050.4,606.2L1050.4,606.2z"/>
			</g>
			<g id="XMLID_240_">
				<path id="XMLID_310_" fill="#F1AAA1" d="M1252.3,580.3c-0.8-1.9-1.5-3.9-2.5-5.8c-0.2-0.5-0.5-0.9-0.7-1.4c0-0.5,0-1.1-0.1-1.6
					c-0.3-1.2-1.2-1.7-2.1-2.4c-2.4-1.8-4.9,1.2-4.5,3.5c0.2,1.2,0.6,2.1,1.7,2.8c1,0.6,1.3,1.3,2,2.3c1.2,1.6,2.5,3,3.8,4.5
					C1251,583.6,1252.9,581.7,1252.3,580.3L1252.3,580.3z"/>
			</g>
			<g id="XMLID_247_">
				<path id="XMLID_303_" fill="#F1AAA1" d="M1253.7,530.9c-0.5-1.4-0.3-1.9-0.6-3.3c-0.3-1.4-0.9-2.7-1.5-4.1
					c-0.7-1.6-3.1-1.8-4.3-0.8c-1.5,1.2-1.4,3-0.3,4.4c0.8,1,1.5,2,2.5,2.8c1,0.8,1.7,1,2.6,2.1
					C1252.7,532.6,1254.1,531.8,1253.7,530.9L1253.7,530.9z"/>
			</g>
			<g id="XMLID_254_">
				<path id="XMLID_296_" fill="#F1AAA1" d="M1093,530.1c2.1,0.1,4.1-0.9,5.4-2.5c1.3-1.6,2.3-4.6,0-5.9c-0.5-0.3-1.1-0.2-1.5,0.2
					c-1.5,1.6-1.2,4.8-3.9,5.1C1091.1,527.4,1091,530,1093,530.1L1093,530.1z"/>
			</g>
			<g id="XMLID_261_">
				<path id="XMLID_289_" fill="#F1AAA1" d="M527,613c0.3-2.7,0.7-5.3,0.7-8c0-3.4-5.3-3.4-5.3,0c0,2.7,0.4,5.3,0.7,8
					C523.3,615.5,526.7,615.5,527,613L527,613z"/>
			</g>
			<g id="XMLID_268_">
				<path id="XMLID_282_" fill="#F1AAA1" d="M600.8,661.6c0.2-0.1,0.4-0.2,0.6-0.2c-0.4-0.1-0.8-0.1-1.3-0.2
					c1.1,0.5,2.4,0.2,3.6-0.2c0.7-0.2,1.3-0.6,1.9-1.1c0.7-0.6,0.9-1.2,1.2-2c0.5-1.4-0.8-2.8-2.1-2.8c-1.4,0-2.8,0.5-3.7,1.6
					c-0.7,0.8-1.7,2-1.7,3.1c0.2-0.4,0.3-0.8,0.5-1.2c-0.2,0.2-0.3,0.3-0.5,0.5C598.4,660.1,599.4,662.2,600.8,661.6L600.8,661.6z"
					/>
			</g>
		</g>
	</g>
</g>
</svg>
