<svg xmlns="http://www.w3.org/2000/svg" width="250.672" height="294.547" viewBox="0 0 250.672 294.547">
  <g id="Groupe_982" data-name="Groupe 982" transform="translate(-84.503 -2486)">
    <g id="Groupe_980" data-name="Groupe 980" transform="translate(85 -126)">
      <g id="Groupe_973" data-name="Groupe 973" transform="translate(-124.676 2620.317)">
        <path id="Tracé_430" data-name="Tracé 430" d="M1849.373,1417.07v0Z" transform="translate(-1724.693 -1273.108)" fill="gray" stroke="#1a1818" stroke-linecap="round" stroke-linejoin="round" stroke-width="1"/>
        <path id="Tracé_431" data-name="Tracé 431" d="M1692.694,1397.992l124.672-52.9v69.394l-124.672,71.99Z" transform="translate(-1568.015 -1273.108)" fill="#dae3ea" stroke="#1a1818" stroke-linecap="round" stroke-linejoin="round" stroke-width="1"/>
        <path id="Tracé_432" data-name="Tracé 432" d="M1817.373,1470.575l124.672-71.983-124.672-71.979Z" transform="translate(-1692.694 -1326.612)" fill="#fff" stroke="#1a1818" stroke-linecap="round" stroke-linejoin="round" stroke-width="1"/>
      </g>
      <g id="Groupe_974" data-name="Groupe 974" transform="translate(0.324 2692.317)">
        <path id="Tracé_430-2" data-name="Tracé 430" d="M1849.373,1417.07l-124.679-71.983v71.983l124.679,69.767Z" transform="translate(-1724.693 -1273.108)" fill="gray" stroke="#1a1818" stroke-linecap="round" stroke-linejoin="round" stroke-width="1"/>
        <path id="Tracé_431-2" data-name="Tracé 431" d="M1692.694,1397.992l124.672-52.9v69.394l-124.672,71.99Z" transform="translate(-1568.015 -1273.108)" fill="#dae3ea" stroke="#1a1818" stroke-linecap="round" stroke-linejoin="round" stroke-width="1"/>
        <path id="Tracé_432-2" data-name="Tracé 432" d="M1692.694,1398.592l124.679,71.983,124.672-71.983-124.672-71.979-124.679,71.979Z" transform="translate(-1692.694 -1326.612)" fill="#fff" stroke="#1a1818" stroke-linecap="round" stroke-linejoin="round" stroke-width="1"/>
      </g>
    </g>
    <g id="WUHBFT.tif" transform="translate(128 2486)">
      <g id="Groupe_920" data-name="Groupe 920" transform="translate(0 0)">
        <path id="Tracé_11635" data-name="Tracé 11635" d="M100.907,361.216c-2.389-.407-3.258-3.444-5.9-3.414v-2c2.882-2.758,2.244-7.726,6.171-9.828,1.944.868,4.552.642,5.427,3.284C105.977,353.849,104.425,358,100.907,361.216Z" transform="translate(-95.007 -271.581)" fill="#6d1015"/>
        <path id="Tracé_11636" data-name="Tracé 11636" d="M175.007,465.8l0-1c1.76-1.431,3.483-1.488,5.158.143-.052.287-.106.573-.16.858Z" transform="translate(-95.007 -271.581)" fill="#cfb5a0"/>
        <path id="Tracé_11637" data-name="Tracé 11637" d="M153.982,328.867a422.725,422.725,0,0,0,45.886-28.424c.67.249,1.06.107.978-.7l14.091-11.937c2.342-.112,4.444.269,5.554,2.695-.6,4.856-5.786,5.847-7.932,9.4-1.349,1.187-2.812,2.237-4.2,3.383a27.993,27.993,0,0,0-3.214,2.4c-5.729,4.323-11.965,7.878-17.9,11.882-6.634,5.091-14.048,8.908-21.266,13.043a27.48,27.48,0,0,1-3.6,1.971,3.82,3.82,0,0,1-2.694.533C157.819,331.658,154.167,332.58,153.982,328.867Z" transform="translate(-95.007 -271.581)" fill="#cb1a26"/>
        <path id="Tracé_11638" data-name="Tracé 11638" d="M205,304.8a3.128,3.128,0,0,1,2.994-2.016,3.513,3.513,0,0,0,3.944-3.034c1.132-4.44,6.518-5.019,8.164-8.993.409-1.552,1.646-2.4,2.79-3.354,4.709-3.925,8.476-8.7,12.116-13.578,1.14.894,2.274,1.8,3.422,2.681,2.722,2.1,2.367,3.86.043,6.3-2.618,2.752-6.074,4.982-7.078,9.04.429,3.4-3.271,4.026-4.3,6.443a13.222,13.222,0,0,1-2.7,2.969,30.411,30.411,0,0,0-5.45,4.588,8.482,8.482,0,0,1-1.074.794c-1.379.772-2.671,1.773-4.378,1.7-.971-.019-1.967-.177-2.744.646-1.211,1.281-1.894,4.11-4.387,2.243C204.273,309.666,203.265,307.4,205,304.8Z" transform="translate(-95.007 -271.581)" fill="#ac071b"/>
        <path id="Tracé_11639" data-name="Tracé 11639" d="M178.856,380.827q-.008,9.5-.015,18.991a6.43,6.43,0,0,1-4.858,3.081,19.028,19.028,0,0,1-6.671-.717,4.02,4.02,0,0,1-2.4-2.993c-.527-8.076-.182-16.161-.2-24.242,0-1.459-.1-3.385,1.477-3.9,1.694-.55,2.515,1.274,3.137,2.5C171.362,377.533,174.866,379.468,178.856,380.827Z" transform="translate(-95.007 -271.581)" fill="#b69274"/>
        <path id="Tracé_11640" data-name="Tracé 11640" d="M180.167,464.944l-5.158-.143a5.255,5.255,0,0,1-3.034-5.184c.144-8.9.171-17.8.241-26.7a1.286,1.286,0,0,1,1.512.921c1.705,5.26,4.518,9.416,10.328,10.747.386.088.578.757.781,1.206.057,3.934-.076,7.883.224,11.8C185.359,461.478,183.848,463.856,180.167,464.944Z" transform="translate(-95.007 -271.581)" fill="#b59172"/>
        <path id="Tracé_11641" data-name="Tracé 11641" d="M208.152,415.072c-2.388,2.922-5.244,4.444-9.078,3.034s-4.285-4.408-4.136-8c.254-6.091.187-12.2.254-18.295.756-.806,1.511-1.613,2.79-1.141,2.773,2.382,4.283,6.419,8.861,6.461,1.376.012,1.682,1.372,1.64,2.628C208.315,404.862,208.88,409.981,208.152,415.072Z" transform="translate(-95.007 -271.581)" fill="#b59173"/>
        <path id="Tracé_11642" data-name="Tracé 11642" d="M153.982,328.867c.952,2.908,5.064.928,5.993,3.873a3.827,3.827,0,0,1-2.091,1.687c-4.4,2.552-9.087,4.545-13.428,7.207-8.892,2.491-17.334,6.448-26.485,8.087-1.8.423-3.656.34-5.478.581-2.415.6-4.808,1.083-6.616-1.327l-4.7-3c18.141.339,33.962-6.63,49.171-15.563A29.489,29.489,0,0,1,153.982,328.867Z" transform="translate(-95.007 -271.581)" fill="#de1d29"/>
        <path id="Tracé_11643" data-name="Tracé 11643" d="M224.163,426.76q0-12.441,0-24.883c2.616.193,2.873,2.478,3.536,4.223,1.364,3.587,3.264,6.511,7.281,7.47,1.9.454,2.636,1.7,2.534,3.659-.259,4.951.387,9.926-.355,14.868l-1,.991c-3.141.076-6.331,3.033-9.416-.158-1.678-2.368-.462-5.184-1.156-7.837C225.414,426.031,225.331,426.888,224.163,426.76Z" transform="translate(-95.007 -271.581)" fill="#b69374"/>
        <path id="Tracé_11644" data-name="Tracé 11644" d="M221.072,321.79l-2.136-1.924c.2-1.313-.834-2.32-.892-3.574a7.7,7.7,0,0,1,.1-2.664,10.017,10.017,0,0,1,3.374-5.223c1.809-.9,3.048-2.888,5.356-2.848a2.178,2.178,0,0,1,.758,1.049c.365.4-.331,1.3.564,1.39.647.067-.268.1.168-.431a9.251,9.251,0,0,1,2.011-3.535c.169-.117.34-.229.511-.342a7.729,7.729,0,0,1,3.258,4.025l-.311.343q-.156.21.258-.357c3.313,3.4,2.793,7.02.3,10.474a61.414,61.414,0,0,1-5.236,5.681,5.346,5.346,0,0,1-6.174-1.082c-.242-1.312,1.221-2.1,1.121-3.463-.9.718-.314,2-1.2,2.623A1.281,1.281,0,0,1,221.072,321.79Z" transform="translate(-95.007 -271.581)" fill="#dc0f20"/>
        <path id="Tracé_11645" data-name="Tracé 11645" d="M173.992,401.863l4.849-2.044c3.65,3.443,8.96,4.689,11.943,9.018-1.264,2.6-4.01,3.261-6.145,4.726-.943.64-1.777,1.427-2.755,2.02a6.27,6.27,0,0,1-4.174.958c-2.789-.993-5.214-2.7-7.836-4.024-1.311-.661-2.608-1.5-2.312-3.347-.952-.966,3.039-.622.511-2.022a1.892,1.892,0,0,1-.5-1.226,4.108,4.108,0,0,1,1.253-2.443C170.377,402.39,172.524,403.213,173.992,401.863Z" transform="translate(-95.007 -271.581)" fill="#ffb82b"/>
        <path id="Tracé_11646" data-name="Tracé 11646" d="M179.763,360.92l-.341.139c-1.485.841-1.472,3.208-3.528,3.477a6.184,6.184,0,0,1-3.865.068,2.54,2.54,0,0,1-1.567-1.686,3.549,3.549,0,0,1,.116-1.563c2.325-4.615.351-9.611,1.256-14.354,4.107-2.373,7.69-5.872,12.839-6.038a2.146,2.146,0,0,1,1.575,1.382,7.308,7.308,0,0,1-2.9,3.7c-.306.286-.92.19-.989.786a2.618,2.618,0,0,1,.81-.366,2.158,2.158,0,0,1,1.734.64,2.557,2.557,0,0,1,.575,1.241c-.02,1.644-.342,3.269-.268,4.92a9.945,9.945,0,0,1-1.545,5.638A4.933,4.933,0,0,1,179.763,360.92Z" transform="translate(-95.007 -271.581)" fill="#fba034"/>
        <path id="Tracé_11647" data-name="Tracé 11647" d="M237.156,432.1c-.053-4.62-.1-9.24-.167-13.859-.023-1.459.225-3.253-1.939-3.336-5.613-.216-7.239-4.4-8.77-8.657-.555-1.545-.8-3.2-2.12-4.368v-2.053a3.172,3.172,0,0,1,2.86-.817c3.61,1.6,7.18-.913,10.783-.12.054,10.312.125,20.623.126,30.935A7.57,7.57,0,0,1,237.156,432.1Z" transform="translate(-95.007 -271.581)" fill="#c49e80"/>
        <path id="Tracé_11648" data-name="Tracé 11648" d="M208.152,415.072c-.054-4.64-.087-9.281-.175-13.921-.024-1.263.149-3.47-1.5-3.085-6.379,1.493-6.568-4.563-9.47-7.268-1.815-1.194-1.085-3.348-1.863-4.933l.08-3.909c3.866.365,7.73.8,11.62.236,2.263.627,1.52,2.5,1.637,4,.225,2.873-.414,5.784.373,8.635C208.527,401.569,210.033,408.38,208.152,415.072Z" transform="translate(-95.007 -271.581)" fill="#c49f81"/>
        <path id="Tracé_11649" data-name="Tracé 11649" d="M209.748,337.813c1.572,4.741-2.733,6.3-4.889,9.014-1.435,2.7-4.522,3.391-6.524,5.4a6.009,6.009,0,0,1-1.215.5,12.985,12.985,0,0,0-4.7,2.063c-1.667.775-3.062,2.034-4.8,2.689a3.373,3.373,0,0,1-2.171-.212c-1.516-1.141-.724-2.783-.916-4.211a4.4,4.4,0,0,1,2.18-3.7c6.749-3.828,13.331-7.954,20.276-11.428C207.808,337.513,208.8,336.964,209.748,337.813Z" transform="translate(-95.007 -271.581)" fill="#522312"/>
        <path id="Tracé_11650" data-name="Tracé 11650" d="M235.005,273.821c.109,3.4-2.336,5.561-4.316,7.636-3.233,3.386-6.36,7.005-10.591,9.3-1.244-1.816-3.793-1.347-5.16-2.947,4.442-4.609,9.158-8.993,13.232-13.908C230.843,270.673,232.691,270.972,235.005,273.821Z" transform="translate(-95.007 -271.581)" fill="#a60918"/>
        <path id="Tracé_11651" data-name="Tracé 11651" d="M184.837,445.792c-7.776-.792-10.79-6.254-12.621-12.874l-.09-3.035a36.4,36.4,0,0,1,12.783-.029Z" transform="translate(-95.007 -271.581)" fill="#c39e80"/>
        <path id="Tracé_11652" data-name="Tracé 11652" d="M178.856,380.827c-7.493,1.661-9.156-4.648-12.943-10.258v29.618a1.677,1.677,0,0,1-1.538-.839c-1.666-9.331-.848-18.71-.523-28.077.7-2.625,2.8-3.83,5.022-4.909a4.516,4.516,0,0,1,1.432-.227,20.115,20.115,0,0,1,2.655.588,3.71,3.71,0,0,1,2.2,1.136,3.532,3.532,0,0,1,.38,1.115,3.3,3.3,0,0,0,1.587,2.236,5.268,5.268,0,0,1,1.6,2.523Z" transform="translate(-95.007 -271.581)" fill="#c39f80"/>
        <path id="Tracé_11653" data-name="Tracé 11653" d="M222.083,309.081,218.9,313.57c-.632,1.078-.818,2.731-2.75,2.13-2.148-.845-2.578,1.892-4.251,2.039-2.783-.473-3.26-2.648-3.625-4.908.96-2.37,2.064-4.584,5.131-4.6,2.179.335,3.183-1.444,4.565-2.547l-.093.016c2.455-1.143,3.948-3.44,6.03-5.031l2.213-2.857c2.214-.959,4.111-4.1,6.913-1l-1.234,2C229.285,302.915,225.448,305.775,222.083,309.081Z" transform="translate(-95.007 -271.581)" fill="#fca131"/>
        <path id="Tracé_11654" data-name="Tracé 11654" d="M223.1,373.707l.971.308a12.877,12.877,0,0,1,2.88.621c4.156,1.765,8.058,5.681,12.982,1.633.226-.186.915.244,1.377.42,1.256.2,2.337.606,2.5,2.105-3.81,3.395-8.472,5.311-12.989,7.487-5.135-2.184-10.7-3.742-13.578-9.25a3.009,3.009,0,0,1,.485-1.4C219.338,374.476,220.954,373.341,223.1,373.707Z" transform="translate(-95.007 -271.581)" fill="#ffb52e"/>
        <path id="Tracé_11655" data-name="Tracé 11655" d="M186.024,356.815l2.114-.088c3.995.668,7.407,2.319,9.753,5.783.318,2.718,1.492,5.609-1.523,7.662a139.575,139.575,0,0,1-16.605-9.252l3.217-2.127C183.585,357.5,184.875,357.268,186.024,356.815Z" transform="translate(-95.007 -271.581)" fill="#371b10"/>
        <path id="Tracé_11656" data-name="Tracé 11656" d="M211.053,378.783l-.49.026-.481-.1c-1.98-.185-4.005-.187-5.752-1.368-3.374-1.759-3.891-4.719-3.412-8.1a5.016,5.016,0,0,1,.522-1.482c2.262-2.854,4.6-1.108,6.94-.13,3.108,1.85,6.777,2.9,8.915,6.162C216.343,376.867,214.446,378.76,211.053,378.783Z" transform="translate(-95.007 -271.581)" fill="#341c0f"/>
        <path id="Tracé_11657" data-name="Tracé 11657" d="M202.118,367.806l-.183,1.028c-.827,1.206-.479,3.531-2.984,3.14-.715-.236,0-2.992-1.93-1.1l-.657-.709c1.28-2.683.48-5.516.588-8.285a8.667,8.667,0,0,1-1.3-4.122c.036-2.035-.223-4.145,1.375-5.812.32-.069.638-.146.954-.233a6.893,6.893,0,0,0,6.145,5.13c1.332,1.862.705,4.037.967,6.069C206.5,366,202.129,365.581,202.118,367.806Z" transform="translate(-95.007 -271.581)" fill="#a51318"/>
        <path id="Tracé_11658" data-name="Tracé 11658" d="M204.746,329.4q.244,4.11.488,8.22c-3.9,4.619-5.013,4.893-8.8,2.174-1.024-2.365-.82-4.825-.548-7.29.637-3.112,3.214-4.512,5.475-6.194C205.471,324.06,204.035,327.906,204.746,329.4Z" transform="translate(-95.007 -271.581)" fill="#ac151d"/>
        <path id="Tracé_11659" data-name="Tracé 11659" d="M241.315,376.689c-.328.031-.794-.069-.965.111-6.833,7.233-11.029-.847-16.274-2.785C231.854,369.23,231.854,369.23,241.315,376.689Z" transform="translate(-95.007 -271.581)" fill="#ffbb2d"/>
        <path id="Tracé_11660" data-name="Tracé 11660" d="M217.916,377.017c3.488,4.227,8.79,5.781,13.06,8.857,1.335,1.554.711,2.925-.392,4.252-.506.4-1.181,1.025-1.695.752-1.621-.861-.971.1-.934.912.077,1.7.574,3.69-1.979,4.181a.942.942,0,0,1-.087-1.355c1.123-4.713,0-8.209-4.991-9.954-1.464-.513-2.681-1.735-4.011-2.632C216.1,380.127,214.533,378.064,217.916,377.017Z" transform="translate(-95.007 -271.581)" fill="#eb7317"/>
        <path id="Tracé_11661" data-name="Tracé 11661" d="M226.237,395.662a3.49,3.49,0,0,0,.645-3.167c-.584-2.823,1.336-2.456,2.963-2.55,1.751,0,2.887-2.709,5-1.133l.327,4.967c1.044,5.056.232,5.943-5.889,6.436C227.629,399.123,224.413,399.077,226.237,395.662Z" transform="translate(-95.007 -271.581)" fill="#b01421"/>
        <path id="Tracé_11662" data-name="Tracé 11662" d="M197.361,339.812c3.542,2.569,5.334-1.153,7.873-2.191,1.538-.711,3.118-2.416,4.514.193-8.456,4.65-17.361,8.556-24.767,14.947q-.48.738-.941-.013c-.727-1.9.126-3.476,1.063-5.03C188.938,344.693,193.613,342.971,197.361,339.812Z" transform="translate(-95.007 -271.581)" fill="#84361b"/>
        <path id="Tracé_11663" data-name="Tracé 11663" d="M216.974,373.872l-8.958-5.191c-.682-1.634-3.7-2.321-1.994-4.922a115.748,115.748,0,0,1,17.083,9.949c-1.5.919-2.746,2.4-4.765,2.2C217.092,375.761,217.56,374.463,216.974,373.872Z" transform="translate(-95.007 -271.581)" fill="#893b18"/>
        <path id="Tracé_11664" data-name="Tracé 11664" d="M234.841,388.812c-1.845-.416-2.787,3.146-5,1.132a6.026,6.026,0,0,0,1.13-4.07c3.708-3.4,8.192-5.385,12.838-7.08.784,2.419-.681,3.609-2.43,4.838C239.111,385.229,236.275,386.149,234.841,388.812Z" transform="translate(-95.007 -271.581)" fill="#fca335"/>
        <path id="Tracé_11665" data-name="Tracé 11665" d="M204.121,356.846c-6.046,1.428-6.046,1.428-6.145-5.129,1.49-2.763,4.452-3.453,6.883-4.89C204.7,350.173,205.94,353.622,204.121,356.846Z" transform="translate(-95.007 -271.581)" fill="#a90a1c"/>
        <path id="Tracé_11666" data-name="Tracé 11666" d="M204.746,329.4c-1.07-.7.369-4.051-2.742-2.6a1.738,1.738,0,0,1-1.382-1.421c.726-2.753,1.605-5.436,3.6-7.6,2.437-1.076,4.61-1.558,4.873,2.192C206.015,322.363,204.316,325.391,204.746,329.4Z" transform="translate(-95.007 -271.581)" fill="#fa9f3c"/>
        <path id="Tracé_11667" data-name="Tracé 11667" d="M226.963,326.035c1.184,3.489,1.882,6.962-.282,10.686-3.6-3.343-2.648-7.007-1.6-10.686A1.078,1.078,0,0,1,226.963,326.035Z" transform="translate(-95.007 -271.581)" fill="#fdbc57"/>
        <path id="Tracé_11668" data-name="Tracé 11668" d="M184.909,429.854c-4.259,1.024-8.519,1.787-12.784.029-.276-1.988-.285-3.889,1.664-5.159,1.084.41,1.25,1.541,1.852,2.327A4.214,4.214,0,0,0,177,428.165c3.238,1.02,4.3-1.848,6.1-3.391C185.262,425.912,185.062,427.892,184.909,429.854Z" transform="translate(-95.007 -271.581)" fill="#e3bea7"/>
        <path id="Tracé_11669" data-name="Tracé 11669" d="M205.175,376.917l4.907,1.8c-2.425,5.217-.3,10.779-1.225,16.11-1.684-2.591-.518-5.477-.84-8.21-.183-1.546.5-3.5-2.007-3.805a5.355,5.355,0,0,1-1.727-3.219A2.458,2.458,0,0,1,205.175,376.917Z" transform="translate(-95.007 -271.581)" fill="#dabfa8"/>
        <path id="Tracé_11670" data-name="Tracé 11670" d="M177.994,415.835l3.984-1.071c1.342.213,3.2-1.9,3.968.888-1.28,1.212-3.1,1.985-3.3,4.073a4.518,4.518,0,0,1-.934.969c-1.762.468-3.47,2.782-5.336.173a3.133,3.133,0,0,1,.141-2C177.091,417.9,177.39,416.791,177.994,415.835Z" transform="translate(-95.007 -271.581)" fill="#f89d39"/>
        <path id="Tracé_11671" data-name="Tracé 11671" d="M209.093,319.972c-1.175-2.657-3.028-2.355-5.085-1.167a.739.739,0,0,1-1.179.021c-.337-1.911.95-3.126,1.911-4.485,1.228-1.01,2.21-2.653,4.229-1.706l2.935,5.1Z" transform="translate(-95.007 -271.581)" fill="#fca43c"/>
        <path id="Tracé_11672" data-name="Tracé 11672" d="M216.974,373.872c1.015.3.97,1.318,1.365,2.036q-.21.552-.422,1.107c-1.663,1.4-.484,3.386-1.029,5.015a17.662,17.662,0,0,1-5.835-3.247Z" transform="translate(-95.007 -271.581)" fill="#361b10"/>
        <path id="Tracé_11673" data-name="Tracé 11673" d="M205.369,379.8c.815.875.619,1.965.641,3.009a9.941,9.941,0,0,1-10.784-.853,4.918,4.918,0,0,1,1.672-4.195c.931.479,1.137,1.514,1.743,2.241a5,5,0,0,0,1.9,1.229,3.081,3.081,0,0,0,2.781-.253C203.969,380.523,204.45,379.773,205.369,379.8Z" transform="translate(-95.007 -271.581)" fill="#ddbca0"/>
        <path id="Tracé_11674" data-name="Tracé 11674" d="M229.3,399.674c3.952.021,6.435-1.418,5.866-5.9a6.081,6.081,0,0,1,2.636,5.108c-3.518,1.354-6.973,3.43-10.816.912A2.074,2.074,0,0,1,229.3,399.674Z" transform="translate(-95.007 -271.581)" fill="#deba9f"/>
        <path id="Tracé_11675" data-name="Tracé 11675" d="M224.163,426.76c.545-.735,1.1-2.089,1.632-2.078,1.106.025,1.172,1.307,1.192,2.266.039,1.95.017,3.9.021,5.852q.45.405.281.786t-.325.375C223.443,432.567,223.882,429.633,224.163,426.76Z" transform="translate(-95.007 -271.581)" fill="#b59571"/>
        <path id="Tracé_11676" data-name="Tracé 11676" d="M222.083,309.081a46.525,46.525,0,0,1,9.721-10.274c-.245,1.639-2.076,2.98-.919,4.881a.338.338,0,0,1,.037.482c-1.316.693-2.121,2.426-4,1.972C225.094,306.771,224.151,308.851,222.083,309.081Z" transform="translate(-95.007 -271.581)" fill="#f6993b"/>
        <path id="Tracé_11677" data-name="Tracé 11677" d="M233.038,296.806c-2.558-1.414-4.508,1.365-6.913,1,.952-2.7,4.271-3.309,5.266-5.968C231.965,293.49,234.737,294.406,233.038,296.806Z" transform="translate(-95.007 -271.581)" fill="#f6993b"/>
        <path id="Tracé_11678" data-name="Tracé 11678" d="M184,412.79l6.786-3.953c.19,1.944.877,4.071-1.822,4.953C187.02,414.88,185.418,414.289,184,412.79Z" transform="translate(-95.007 -271.581)" fill="#fea72c"/>
        <path id="Tracé_11679" data-name="Tracé 11679" d="M226.963,326.035h-1.88a6.474,6.474,0,0,1-4.011-4.244l1.909.016.023.025c1.8,1.436,4.123,1.27,6.145,2.024Z" transform="translate(-95.007 -271.581)" fill="#c61f1d"/>
        <path id="Tracé_11680" data-name="Tracé 11680" d="M206.022,363.759q1,2.461,1.994,4.923c-1.941-.465-3.61-2.76-5.9-.876-1.2-2.961,2.891-2.709,2.969-4.892Q205.555,363.338,206.022,363.759Z" transform="translate(-95.007 -271.581)" fill="#80381b"/>
        <path id="Tracé_11681" data-name="Tracé 11681" d="M226.964,433.961l.044-1.161a5.374,5.374,0,0,0,5.9.081c1.044-.6,2.28-1.56,3.249.206C233.3,435.575,230.258,436.082,226.964,433.961Z" transform="translate(-95.007 -271.581)" fill="#b59771"/>
        <path id="Tracé_11682" data-name="Tracé 11682" d="M181.993,420.051a1.585,1.585,0,0,0,.651-.324q.227,2.521.455,5.047c-1.119,4.8-2.757,5.724-7.114,4.023,1.229-1.723,4.26-1.436,4.6-4.144C180.885,423.064,180.653,421.314,181.993,420.051Z" transform="translate(-95.007 -271.581)" fill="#af1d21"/>
        <path id="Tracé_11683" data-name="Tracé 11683" d="M175.894,363.735l3.525-2.676q-.258,2.393-.521,4.787a2.515,2.515,0,0,1-3.565,1.452,1.427,1.427,0,0,1-.757-1.119C174.592,365.138,175.332,364.484,175.894,363.735Z" transform="translate(-95.007 -271.581)" fill="#dbb897"/>
        <path id="Tracé_11684" data-name="Tracé 11684" d="M197.878,381.019c-1.058-.867-.7-2.158-.98-3.26q.062-3.441.122-6.882l1.464-1.226.634,2.124C199.752,375,200.111,378.182,197.878,381.019Z" transform="translate(-95.007 -271.581)" fill="#b53231"/>
        <path id="Tracé_11685" data-name="Tracé 11685" d="M184,412.79l4.964,1-3.016,1.862c-.992-1.773-3.036,1.163-3.967-.887Z" transform="translate(-95.007 -271.581)" fill="#fba445"/>
        <path id="Tracé_11686" data-name="Tracé 11686" d="M229.3,399.674l-2.314.125-2.828.025a6.242,6.242,0,0,1,1.729-5.207q.174.523.347,1.048C225.52,398.328,228.142,398.443,229.3,399.674Z" transform="translate(-95.007 -271.581)" fill="#d8a894"/>
        <path id="Tracé_11687" data-name="Tracé 11687" d="M195.146,385.865a11.312,11.312,0,0,1,1.863,4.933,1.887,1.887,0,0,1-1.817,1.013Q195.169,388.838,195.146,385.865Z" transform="translate(-95.007 -271.581)" fill="#b99577"/>
        <path id="Tracé_11688" data-name="Tracé 11688" d="M200.846,299.745c.741.189,1.8.11,1.7,1.225a1.842,1.842,0,0,1-1.111,1.324c-1.42.287-1.335-.973-1.571-1.851Z" transform="translate(-95.007 -271.581)" fill="#c51f21"/>
        <path id="Tracé_11689" data-name="Tracé 11689" d="M174.979,366.776a6.148,6.148,0,0,0,3.919-.93l-.021,1.974c-1.117,1.013-2.309,1.729-3.873.984a2.217,2.217,0,0,0-2.06-1.04C173.02,366.194,173.816,366.106,174.979,366.776Z" transform="translate(-95.007 -271.581)" fill="#c8aa8b"/>
        <path id="Tracé_11690" data-name="Tracé 11690" d="M175,368.8a6.337,6.337,0,0,1,3.874-.985q-.014,1.008-.026,2.016c-.427.839-.9,1.6-2.052,1.2-.848-.544-2.389-.534-1.792-2.236Z" transform="translate(-95.007 -271.581)" fill="#c79e82"/>
        <path id="Tracé_11691" data-name="Tracé 11691" d="M216.155,315.7l2.751-2.129q.045,1.627.092,3.257c-.589.546-.175,1.6-1.014,2.017A4.413,4.413,0,0,1,216.155,315.7Z" transform="translate(-95.007 -271.581)" fill="#da1317"/>
        <path id="Tracé_11692" data-name="Tracé 11692" d="M177.026,370.8l1.826-.968q-.064,1.95-.128,3.9L177,371.813q-.381-.346-.243-.68T177.026,370.8Z" transform="translate(-95.007 -271.581)" fill="#bda684"/>
        <path id="Tracé_11693" data-name="Tracé 11693" d="M217.984,318.845c.076-.8.178-1.6,1.014-2.017.378,1.021,1.586,2.059-.062,3.038Z" transform="translate(-95.007 -271.581)" fill="#cf0011"/>
        <path id="Tracé_11694" data-name="Tracé 11694" d="M105.877,348.975a7.034,7.034,0,0,0,6.223.005c1.99.437,3.975.77,5.907-.236,9.149-2.092,17.582-6.6,26.944-7.977,3.9.169,5.434,2.93,6.647,6.05a2.694,2.694,0,0,1-.48,1.4c-4.256,2.654-8.388,5.581-13.512,6.42-1.686-.5-3.271-1.492-5.155-1.084-2.071.162-5.2-1.949-4.905,2.911.092,1.512-2.606,2.1-4.345,2.557a23.329,23.329,0,0,0-7.417,2.626,19.233,19.233,0,0,1-5.394,1.44c-2.548.038-5.168.553-7.447-1.14l-2.036-.732Q103.393,355.1,105.877,348.975Z" transform="translate(-95.007 -271.581)" fill="#ac071c"/>
        <path id="Tracé_11695" data-name="Tracé 11695" d="M126.851,411.828c.051,4.492.189,8.985.129,13.475-.056,4.145-2.8,6.586-7.063,6.524-4.456-.065-6.883-2.3-6.893-6.568-.018-7.488.073-14.976.118-22.464a1.843,1.843,0,0,1,2.025-.365C118.482,406.279,121.445,410.571,126.851,411.828Z" transform="translate(-95.007 -271.581)" fill="#b69373"/>
        <path id="Tracé_11696" data-name="Tracé 11696" d="M155.85,427.828c.053,4.329.159,8.657.145,12.986-.018,5.169-2.82,8.166-7.35,8q-6.626-.238-6.469-8.052c.968-7.946-.25-15.989,1.133-24.167,3.431,3.973,5.482,8.987,10.055,11.776,1.291,3.086.293,6.342.641,9.079.351-2.84-.62-6.179.566-9.4A.975.975,0,0,1,155.85,427.828Z" transform="translate(-95.007 -271.581)" fill="#b69273"/>
        <path id="Tracé_11697" data-name="Tracé 11697" d="M144.832,407.758c.057-2.559,1.006-5.2-.694-7.6-.692-2.427-.477-4.917-.531-7.39.077-1.659.035-3.32.035-4.981.014-2.248-.222-4.527.792-6.658,2.772-2.021,4.819-5.851,9.268-3.752,1.222,5.12.723,10.277.342,15.432a13.16,13.16,0,0,1-1.915,3.522c-2.6,4.807.631,8.358,2.633,12.183a5.731,5.731,0,0,1-3.558,5,5.476,5.476,0,0,1-5.63-.837C143.769,411.31,144.043,409.555,144.832,407.758Z" transform="translate(-95.007 -271.581)" fill="#ab0a1b"/>
        <path id="Tracé_11698" data-name="Tracé 11698" d="M144.884,392.69c-.352,2.478.8,5.108-.748,7.467-6-2.3-10.894-6.846-17.21-8.516-.939.722-1.706.076-2.511-.3-1.67-1.187-3.757-2.041-3.755-4.6A11.154,11.154,0,0,1,125,381.288a3.751,3.751,0,0,1,2.112-.087,88.957,88.957,0,0,1,16.714,9.687C144.239,391.453,144.512,392.1,144.884,392.69Z" transform="translate(-95.007 -271.581)" fill="#371b10"/>
        <path id="Tracé_11699" data-name="Tracé 11699" d="M153.005,428.816c-5.641-1.486-7.407-6.407-9.654-11.839-1.12,8.521.782,16.254-1.176,23.789q-.006-13.962-.014-27.922a2.225,2.225,0,0,1,2.7-.274c2.95,1.265,5.859,1.943,8.8-.12a1.751,1.751,0,0,1,2.228.392l-.039,14.986c-.28-.012-.559-.017-.839-.016C154.447,428.356,154.15,429.433,153.005,428.816Z" transform="translate(-95.007 -271.581)" fill="#c49f80"/>
        <path id="Tracé_11700" data-name="Tracé 11700" d="M153.935,407.463c-4.461-2.241-5.36-5.791-2.993-11.819a32.871,32.871,0,0,1,16.882,10.176q-.083.43-.159.862c.186,1.022-.542,1.751-.836,2.62-.652,1.173-.574,2.818-2.171,3.384-3.015-.419-4.744-3.29-7.611-3.991C156.032,408.229,154.534,408.981,153.935,407.463Z" transform="translate(-95.007 -271.581)" fill="#361b10"/>
        <path id="Tracé_11701" data-name="Tracé 11701" d="M126.851,411.828c-6.857.807-9.323-4.15-11.851-9.026a1.93,1.93,0,0,1-.4-2.041c.813-1.24,1.41-2.645,2.669-3.556,3.2-.454,6.122-2.881,9.6-1.353Q126.857,403.84,126.851,411.828Z" transform="translate(-95.007 -271.581)" fill="#c49f80"/>
        <path id="Tracé_11702" data-name="Tracé 11702" d="M164.658,412.686c.37-1.355-.651-3.1,1.139-4.055a1.6,1.6,0,0,1,2.088.22c2.164,4.073,7.216,3.966,10.109,6.984.543,1.269,1.614,2.7-.922,3.029-2.569,1.531-3.343-1.728-5.248-1.967l-3.011-1.976c-.185-1.163-1.344-.585-1.909-1.068A2.265,2.265,0,0,1,164.658,412.686Z" transform="translate(-95.007 -271.581)" fill="#ec7711"/>
        <path id="Tracé_11703" data-name="Tracé 11703" d="M120.658,386.252c.657,2.137,2.747,2.869,4.171,4.255.28,1.928.67,3.9-1.743,4.854a6.852,6.852,0,0,0-4.249.818,2.23,2.23,0,0,1-1.237-.219c-1.747-1.352-1.744-3.862-3.465-5.234a2.077,2.077,0,0,1-.168-.83.957.957,0,0,1-.333-.792c.029-.3.077-.443.142-.444C115.929,387.459,118.019,386.071,120.658,386.252Z" transform="translate(-95.007 -271.581)" fill="#a8151c"/>
        <path id="Tracé_11704" data-name="Tracé 11704" d="M181.993,420.051,181.9,425.9c-2.084,1.4-4.506,1.585-6.887,1.922-1.335-.663-.736-2.094-1.225-3.093l.41-4.831c1.4-1.353,2.025.216,2.916.778C178.946,422.078,180.21,419.021,181.993,420.051Z" transform="translate(-95.007 -271.581)" fill="#ae1a1f"/>
        <path id="Tracé_11705" data-name="Tracé 11705" d="M153.935,407.463c1.005.494,2.407-.015,3.112,1.232-1.6,1.044-.808,2.754-1.157,4.147-4.577,2.761-9.153,1.692-13.729,0a6.031,6.031,0,0,1,2.671-5.086c-.077,2.487.358,4.7,3.406,4.953C151.949,413.013,153.429,410.727,153.935,407.463Z" transform="translate(-95.007 -271.581)" fill="#e3b49b"/>
        <path id="Tracé_11706" data-name="Tracé 11706" d="M102.943,361.948l8.017-.182c.517,2.135-1.558,3.488-1.626,5.446a11.97,11.97,0,0,1-.323,1.269,4.3,4.3,0,0,1-.584,1.169.947.947,0,0,1-1.159.178C105.165,367.565,101.506,366.155,102.943,361.948Z" transform="translate(-95.007 -271.581)" fill="#ec6f16"/>
        <path id="Tracé_11707" data-name="Tracé 11707" d="M105.173,375.8c-.445-2.093.857-3.5,1.957-4.987,1.672-1.183,3.483-.157,5.219-.339,1.532.062,3.091-.013,4.467.851.369,2.906.369,2.906-4.825,3.684-1.715-.061-2.285,1.932-3.84,2.169A4.008,4.008,0,0,1,105.173,375.8Z" transform="translate(-95.007 -271.581)" fill="#d40014"/>
        <path id="Tracé_11708" data-name="Tracé 11708" d="M118.032,395.732q.473.1.938.227c.963-.542,1.874-1.239,3.085-1.055,2.855-.246,1.41-3.21,2.776-4.4l2.094,1.134q-.03,2.1-.061,4.211c-3.24.636-6.243,2.464-9.715,1.929C116.518,396.7,117.153,396.163,118.032,395.732Z" transform="translate(-95.007 -271.581)" fill="#dbb598"/>
        <path id="Tracé_11709" data-name="Tracé 11709" d="M118.032,395.732q-.442,1.025-.884,2.049c-.1,1.452-.132,2.947-2.13,3.087-.869.311-1.248-.162-1.455-.908a3.86,3.86,0,0,1,.158-1.334,15.76,15.76,0,0,0,.08-5.932q.167-.984.334-1.968C118.152,390.279,116.626,394.147,118.032,395.732Z" transform="translate(-95.007 -271.581)" fill="#ec9a4b"/>
        <path id="Tracé_11710" data-name="Tracé 11710" d="M110.012,386.871c-2.941-1.9-4.872-4.4-4.848-8.08a2.41,2.41,0,0,1,2.9-.362c1.961,2.258,3.128,4.768,2.46,7.853C110.356,386.479,110.184,386.675,110.012,386.871Z" transform="translate(-95.007 -271.581)" fill="#d8121a"/>
        <path id="Tracé_11711" data-name="Tracé 11711" d="M108.009,378.808l-2.845-.017.009-2.99c1.059.028,2.189-.145,2.844,1.015a1.3,1.3,0,0,1,.545.985A1.625,1.625,0,0,1,108.009,378.808Z" transform="translate(-95.007 -271.581)" fill="#d60013"/>
        <path id="Tracé_11712" data-name="Tracé 11712" d="M177.115,420.671l-2.916-.778c-.208-1.461-1.691-1.912-2.375-3,2.147-.407,3.192,2.127,5.247,1.966Q177.093,419.768,177.115,420.671Z" transform="translate(-95.007 -271.581)" fill="#d46827"/>
        <path id="Tracé_11713" data-name="Tracé 11713" d="M112,371.8l-4.87-.982.138-.985a.917.917,0,0,0,.621-.052,3.341,3.341,0,0,1,3.677-.607,1.756,1.756,0,0,1,.935,1.195A1.8,1.8,0,0,1,112,371.8Z" transform="translate(-95.007 -271.581)" fill="#da1317"/>
        <path id="Tracé_11714" data-name="Tracé 11714" d="M113.8,392.694c1.811,1.975,1.7,4.026.241,6.13-1.155-1.505-.02-3.382-.8-4.947Z" transform="translate(-95.007 -271.581)" fill="#f1ad53"/>
        <path id="Tracé_11715" data-name="Tracé 11715" d="M113.24,393.877c1.342,1.474.537,3.3.8,4.947q-.007.486-.013.972-.418.722-.843.005Z" transform="translate(-95.007 -271.581)" fill="#e4aa4f"/>
        <path id="Tracé_11716" data-name="Tracé 11716" d="M114.016,388.8l-.049,1.094c-1.348-.969-3.069-1.452-3.955-3.025l.081-.162a2.2,2.2,0,0,1,2-.422C113.12,386.83,114.433,387.158,114.016,388.8Z" transform="translate(-95.007 -271.581)" fill="#bd1c1f"/>
        <path id="Tracé_11717" data-name="Tracé 11717" d="M166.9,413.853c.865-.153,1.671-1.357,2.565-.387.53.573-.1,1.11-.656,1.455C168.014,414.856,167.24,414.745,166.9,413.853Z" transform="translate(-95.007 -271.581)" fill="#eb7400"/>
        <path id="Tracé_11718" data-name="Tracé 11718" d="M113.186,399.8c.281,0,.561,0,.843-.005l.989,1.071q-.009.969-.018,1.935l-1.858-.007Q113.163,401.3,113.186,399.8Z" transform="translate(-95.007 -271.581)" fill="#c1a069"/>
        <path id="Tracé_11719" data-name="Tracé 11719" d="M165.042,329.823l21.914-13.048a11.933,11.933,0,0,1,11.342,2.691c-.777,2.768-3.193,4.11-5.249,5.6-4.5,3.259-9.186,6.256-13.915,9.183a4.726,4.726,0,0,1-1.456.133c-3.474-.191-6.55-2.372-10.2-1.9C165.825,332.7,165.416,331.122,165.042,329.823Z" transform="translate(-95.007 -271.581)" fill="#ac081b"/>
        <path id="Tracé_11720" data-name="Tracé 11720" d="M198.033,319.54l-11.077-2.765c5.656-4.531,11.951-8.1,18.041-11.979a6.486,6.486,0,0,0,2.939,6.457c1.663-1.856,1.755-6.843,6.124-3.376q.489.395.252.65a.576.576,0,0,1-.419.221c-1.756,1.15-4.242,1.377-4.924,3.887-1.875-.163-2.118,2.441-3.959,2.336-.635.63-1.17,1.575-2.274.717-.521-1.02.1-1.884.552-2.89-2.855.723-2.793,2.066-1.127,3.823.4,1.416-.364,2.1-1.571,2.5C199.5,317.784,199.123,320.844,198.033,319.54Z" transform="translate(-95.007 -271.581)" fill="#ac0b17"/>
        <path id="Tracé_11721" data-name="Tracé 11721" d="M165.042,329.823c.728.6,1.755,1.879,2.138,1.709,4.092-1.823,7.2,1.441,10.821,1.882a2.676,2.676,0,0,1-.769,2.009c-1.945,2.113-4.5,2.873-7.228,3.259a23.053,23.053,0,0,0-6.772.505c-3.413.873-5.5-.3-4.675-4.312,1.021-1.16,2.907-1.339,3.459-3.04Z" transform="translate(-95.007 -271.581)" fill="#ac0c17"/>
        <path id="Tracé_11722" data-name="Tracé 11722" d="M211.935,299.746c.431,4.727.431,4.727-3.944,3.034C208.843,301.168,209.968,299.91,211.935,299.746Z" transform="translate(-95.007 -271.581)" fill="#ac0a17"/>
        <path id="Tracé_11723" data-name="Tracé 11723" d="M162.016,331.835c.2,2.209-.805,3.188-3,2.967a1.257,1.257,0,0,1-1.057-1.024,2.3,2.3,0,0,1,2.018-1.037Z" transform="translate(-95.007 -271.581)" fill="#b30017"/>
        <path id="Tracé_11724" data-name="Tracé 11724" d="M223.912,300.666c-1.432,2.369-2.88,4.72-6.03,5.031C219.5,303.556,221.034,301.3,223.912,300.666Z" transform="translate(-95.007 -271.581)" fill="#f7974c"/>
        <path id="Tracé_11725" data-name="Tracé 11725" d="M213.893,308.748c.066-.288.121-.578.167-.871,1.406-.551,2.19-2.212,3.915-2.2C217.3,307.615,216.389,309.237,213.893,308.748Z" transform="translate(-95.007 -271.581)" fill="#fba85c"/>
        <path id="Tracé_11726" data-name="Tracé 11726" d="M167.824,405.82l-16.882-10.175,1.886-2.043a2.357,2.357,0,0,1,1.362-.285c3.894,1.569,8.219,2.414,10.718,6.341l1,.528q1.052.8,2.1,1.593c.834.448,1.571.96,1.371,2.088C169.076,404.685,168.958,405.659,167.824,405.82Z" transform="translate(-95.007 -271.581)" fill="#893616"/>
        <path id="Tracé_11727" data-name="Tracé 11727" d="M169.388,403.867l-1.371-2.088,5.976.083C173.138,404.1,171.2,403.834,169.388,403.867Z" transform="translate(-95.007 -271.581)" fill="#e7c9a9"/>
        <path id="Tracé_11728" data-name="Tracé 11728" d="M157.957,333.778q.528.511,1.057,1.024c.081,3.007.934,5.15,4.37,3.024,2.3-1.423,4.374-.107,6.549-.034a1.054,1.054,0,0,1,.372,1.188,3.505,3.505,0,0,1-1.431,1.471,13.143,13.143,0,0,1-1.919.809c-5.074,1.139-8.387,6-13.758,6.522a3.078,3.078,0,0,1-2.017-.686,20.94,20.94,0,0,0-6.228-6.328C148.586,337.134,153.253,335.421,157.957,333.778Z" transform="translate(-95.007 -271.581)" fill="#ae0d1b"/>
        <path id="Tracé_11729" data-name="Tracé 11729" d="M148.037,334.25c-1.242,2.961-3.131,2.563-5.417,2.389C144.113,334.765,145.857,334.79,148.037,334.25Z" transform="translate(-95.007 -271.581)" fill="#de1f21"/>
        <path id="Tracé_11730" data-name="Tracé 11730" d="M118.007,348.744c-1.909,1.636-3.888,1.474-5.908.234Q115.054,348.862,118.007,348.744Z" transform="translate(-95.007 -271.581)" fill="#b10016"/>
        <path id="Tracé_11731" data-name="Tracé 11731" d="M225.832,409.006V417.6l-.5.01v-8.589Z" transform="translate(-95.007 -271.581)" fill="#b5936c"/>
        <path id="Tracé_11732" data-name="Tracé 11732" d="M228.978,307.711c.171.878,1.279,1.675.351,2.637a1.211,1.211,0,0,1-1.75.006,2.366,2.366,0,0,1-.474-3.434C228.095,306.318,228.547,306.991,228.978,307.711Z" transform="translate(-95.007 -271.581)" fill="#db001b"/>
        <path id="Tracé_11733" data-name="Tracé 11733" d="M222.981,321.806c-.812-2.33.226-3.628,2.7-4.388.636,2.482-1.189,3.354-2.675,4.412Z" transform="translate(-95.007 -271.581)" fill="#dc0d1c"/>
        <path id="Tracé_11734" data-name="Tracé 11734" d="M228.978,307.711l-1.874-.792q-.086-.392-.183-.779c1.219-.888,1.885-2.9,4-1.969C231.069,305.787,229.476,306.448,228.978,307.711Z" transform="translate(-95.007 -271.581)" fill="#b4081a"/>
        <path id="Tracé_11735" data-name="Tracé 11735" d="M234.088,307.7c-.195,1.2.194,2.614-1.461,3.5-1-1.893.081-2.756,1.514-3.483Z" transform="translate(-95.007 -271.581)" fill="#df222d"/>
        <path id="Tracé_11736" data-name="Tracé 11736" d="M167.885,408.851q-1.044-.109-2.089-.219a3.167,3.167,0,0,1,1.869-1.95c1.14.379,2.566-.452,3.554.775C170.573,409.181,169.073,408.637,167.885,408.851Z" transform="translate(-95.007 -271.581)" fill="#fdb723"/>
        <path id="Tracé_11737" data-name="Tracé 11737" d="M183.2,339.846l1.814,1.956c-3.1-.324-5.071,1.994-7.505,3.227-1.747.886-3.418,2-5.519,1.781l-.412-.582A2.494,2.494,0,0,1,172,344.2C175.444,342,178.172,337.954,183.2,339.846Z" transform="translate(-95.007 -271.581)" fill="#ffb52d"/>
        <path id="Tracé_11738" data-name="Tracé 11738" d="M171.993,346.81c1.058,5.083,2.646,10.2-.923,14.995-2.235-3.919-1.557-8.323-2.1-12.529.489-1.457,1.1-2.774,3.027-2.458Z" transform="translate(-95.007 -271.581)" fill="#e6700d"/>
        <path id="Tracé_11739" data-name="Tracé 11739" d="M170,348.767c.5,4.334,1.355,8.64,1.073,13.038a8.127,8.127,0,0,1-.189.954c-1.3.218-1.507-.762-1.82-1.633a8.035,8.035,0,0,1-.181-1.346c-.043-.65-.036-1.3-.032-1.954a4.394,4.394,0,0,0-1.465-3.863c-.757-.867-1.7-1.608-1.9-2.847C166.1,348.616,167.5,347.634,170,348.767Z" transform="translate(-95.007 -271.581)" fill="#cd5b11"/>
        <path id="Tracé_11740" data-name="Tracé 11740" d="M169.9,360.831l.985,1.929,1.076,1.157a1.527,1.527,0,0,1,.485,1.764,1.512,1.512,0,0,1-1.624.872l-.416.038-.417-.019c-1.544-1.091-2.973-2.272-3.317-4.294C167.286,360.775,168.066,359.628,169.9,360.831Z" transform="translate(-95.007 -271.581)" fill="#5f2b15"/>
        <path id="Tracé_11741" data-name="Tracé 11741" d="M185.822,342.795c.739,1.777-.007,3.346-.689,4.923l-2.125-.917a.6.6,0,0,1-.266-.658c.077-.227.156-.34.238-.34C183.713,344.6,183.953,342.927,185.822,342.795Z" transform="translate(-95.007 -271.581)" fill="#f09037"/>
        <path id="Tracé_11742" data-name="Tracé 11742" d="M182.98,345.8q.028.5.028,1c-.746,1.259-1.459,2.56-3.571,2.654C179.474,346.963,180.926,346.117,182.98,345.8Z" transform="translate(-95.007 -271.581)" fill="#fca331"/>
        <path id="Tracé_11743" data-name="Tracé 11743" d="M184.04,352.748a3.409,3.409,0,0,0,.941.013c.184,1.393-.453,3,1.043,4.054l-3.044,1.978Z" transform="translate(-95.007 -271.581)" fill="#532312"/>
        <path id="Tracé_11744" data-name="Tracé 11744" d="M171.992,365.683q-.018-.884-.035-1.766l3.938-.181c.088.9.128,1.775-.9,2.224C173.954,366.315,172.908,366.7,171.992,365.683Z" transform="translate(-95.007 -271.581)" fill="#98472f"/>
        <path id="Tracé_11745" data-name="Tracé 11745" d="M196.869,357.554l.084,4.329q-4.408-2.577-8.816-5.155c.734-1.833,2.462-2.2,4.06-2.752A8.289,8.289,0,0,1,196.869,357.554Z" transform="translate(-95.007 -271.581)" fill="#863917"/>
        <path id="Tracé_11746" data-name="Tracé 11746" d="M164.933,369.976a3.639,3.639,0,0,0-.817-.12c-2.731-.249-5-.868-3.6-4.461,1.932-1.427,3.433-3.927,6.473-2.626,1.522.855,2.855,1.86,3,3.8Z" transform="translate(-95.007 -271.581)" fill="#4d2211"/>
        <path id="Tracé_11747" data-name="Tracé 11747" d="M177.026,370.8l-.024,1.01c-1.471-.47-3.793-.377-1.994-3.012Z" transform="translate(-95.007 -271.581)" fill="#cfab8e"/>
        <path id="Tracé_11748" data-name="Tracé 11748" d="M171.992,365.683l3,.276q.008.409-.018.817a2.252,2.252,0,0,0-2.034.988,2.047,2.047,0,0,1-2.127-1.211Z" transform="translate(-95.007 -271.581)" fill="#edbba1"/>
        <path id="Tracé_11749" data-name="Tracé 11749" d="M197.878,381.019c.515-3.067-.6-6.353,1.239-9.244l2.819-2.941c.046,3.108.028,6.242,3.239,8.083q.1,1.441.194,2.882c-.023.95-.042,1.9-1.324,2.032-1.381.08-2.759.821-4.145.023C199.089,381.908,198.313,381.876,197.878,381.019Z" transform="translate(-95.007 -271.581)" fill="#af0019"/>
        <path id="Tracé_11750" data-name="Tracé 11750" d="M196.919,331.647l-7.613,4.269c-1.636.768-2.951.353-3.643-1.283-.89-2.1.732-2.235,2.137-3.187,3.655-2.474,6.269-6.468,10.992-7.423a2.705,2.705,0,0,1,2.2,1.77q.5.5,1.01,1.007Z" transform="translate(-95.007 -271.581)" fill="#fba035"/>
        <path id="Tracé_11751" data-name="Tracé 11751" d="M200.994,325.793l-1.986-.991c-1.96-2.774-.428-4.24,2.01-5.365.577-.48,1.127-1.046,1.989-.642l1,.01C203.756,321.459,202.056,323.488,200.994,325.793Z" transform="translate(-95.007 -271.581)" fill="#fda42c"/>
        <path id="Tracé_11752" data-name="Tracé 11752" d="M175.014,427.817c1.607-3.111,4.667-1.017,6.888-1.923-1.3,2.334-3.493,2.857-5.917,2.9Z" transform="translate(-95.007 -271.581)" fill="#b60016"/>
        <path id="Tracé_11753" data-name="Tracé 11753" d="M203.007,318.8l-1,1.006c-1.016.586-1.914.888-1.96-.827l1.917-2.162c-.177-.9.1-1.292,1.049-.956l2-.885C205.092,316.638,203.532,317.446,203.007,318.8Z" transform="translate(-95.007 -271.581)" fill="#fa9f3c"/>
        <path id="Tracé_11754" data-name="Tracé 11754" d="M199.9,381.854c1.381-.125,2.758-1.031,4.145-.023A3.119,3.119,0,0,1,199.9,381.854Z" transform="translate(-95.007 -271.581)" fill="#a5171e"/>
        <path id="Tracé_11755" data-name="Tracé 11755" d="M108.036,367.8a9.844,9.844,0,0,1,2.925-6.036l5.117-1.252c2.074-1.321,4.638-1.108,6.794-2.169,2.23.077,3.985-1.162,5.836-2.127,1.863-.783,3.843-1.23,5.722-1.972a6,6,0,0,1,2.611-.372c5.059-1.032,8.955-4.79,13.957-5.957,1.292.714,2.3,1.806,3.51,2.633,2.589,2.547-.764,4.352-.81,6.578A3.468,3.468,0,0,1,153,358.3c-2.36,1.348-4.657,2.855-7.473,3.085-1.343-.855-2.235.453-3.346.729a46.806,46.806,0,0,0-10.82,4.275,7.99,7.99,0,0,1-1.318.4c-2.064.019-3.855,1.239-5.9,1.37-1.206-.367-2.488-2.185-3.544.2-1.038,1.46-2.658,1.638-4.221,1.945a3.272,3.272,0,0,1-1.328-.164,7.791,7.791,0,0,1-1.44-1.352C111.932,367.475,109.625,369.624,108.036,367.8Z" transform="translate(-95.007 -271.581)" fill="#fba037"/>
        <path id="Tracé_11756" data-name="Tracé 11756" d="M129.006,356.811a9.908,9.908,0,0,1-6.011,1.856c-.338-.191-.451-.38-.337-.57s.225-.283.34-.283c3.044-1.027,3.016-1.021,2.306-3.963-.392-1.62.7-1.852,1.954-2.044,2.047-.312,3.82.738,5.746.994a1.855,1.855,0,0,1,.452,1.257C132.7,356.153,130.087,355.243,129.006,356.811Z" transform="translate(-95.007 -271.581)" fill="#ad1119"/>
        <path id="Tracé_11757" data-name="Tracé 11757" d="M154.02,350.83A2.84,2.84,0,0,1,151,347.918a2.552,2.552,0,0,0,.181-.822l1.943-.091c.838.463,2.218.236,2.233,1.753A2.791,2.791,0,0,1,154.02,350.83Z" transform="translate(-95.007 -271.581)" fill="#feb35c"/>
        <path id="Tracé_11758" data-name="Tracé 11758" d="M123,357.814c0,.284,0,.569,0,.853a16.5,16.5,0,0,1-6.919,1.849C117.749,357.987,120.766,358.9,123,357.814Z" transform="translate(-95.007 -271.581)" fill="#a90f17"/>
        <path id="Tracé_11759" data-name="Tracé 11759" d="M133.009,353.775c0-.325,0-.649-.005-.974,1.89-1.688,2.88.005,4.037,1.074-.437.888-1.275.876-2.084.927C133.816,355.393,133.485,354.446,133.009,353.775Z" transform="translate(-95.007 -271.581)" fill="#ac0c16"/>
        <path id="Tracé_11760" data-name="Tracé 11760" d="M153,428.816l2.006-1v15.339l-1.587-.016C152.5,438.418,153.246,433.582,153,428.816Z" transform="translate(-95.007 -271.581)" fill="#be9673"/>
        <path id="Tracé_11761" data-name="Tracé 11761" d="M161.006,365.792c-1.2,3.064,2.863,2.105,3.11,4.064q-5.3,3.483-10.6,6.964c-.107.472-.327.557-.675.2q-3.942,2.1-7.881,4.2l-.144-.247c-.768-1.7-1.568-3.391-.956-5.336l-.022-.126A30.988,30.988,0,0,1,161.006,365.792Z" transform="translate(-95.007 -271.581)" fill="#4f2311"/>
        <path id="Tracé_11762" data-name="Tracé 11762" d="M152.837,377.015a.589.589,0,0,1,.675-.2q.06,8.449.118,16.9l-.409.013-.391-.124Q152.831,385.307,152.837,377.015Z" transform="translate(-95.007 -271.581)" fill="#b02525"/>
        <path id="Tracé_11763" data-name="Tracé 11763" d="M143.988,387.871a1.687,1.687,0,0,1,.861-.32q.018,2.571.036,5.141l-.85-.921C143.156,390.482,142.762,389.187,143.988,387.871Z" transform="translate(-95.007 -271.581)" fill="#a64d30"/>
        <path id="Tracé_11764" data-name="Tracé 11764" d="M143.988,387.871q.022,1.951.047,3.9l-17.033-10c.038-2.212,1.4-2.482,3.162-2.151Z" transform="translate(-95.007 -271.581)" fill="#923c16"/>
        <path id="Tracé_11765" data-name="Tracé 11765" d="M114.016,388.8l-2.031-1.987c4.9-1.9,6.7-8.915,13.288-8.014a2.734,2.734,0,0,1,.054,3.041c-1.522,1.5-2.021,4.088-4.664,4.412A9.22,9.22,0,0,1,114.016,388.8Z" transform="translate(-95.007 -271.581)" fill="#d90d1c"/>
        <path id="Tracé_11766" data-name="Tracé 11766" d="M125.327,381.842l-.066-2.948a4.431,4.431,0,0,1,.371-3.982c2.484-.543,4.506-2.724,7.33-2.092.994,3.06-.181,5.229-2.8,6.806-1.189.519-2.437.951-3.163,2.151Z" transform="translate(-95.007 -271.581)" fill="#fca335"/>
        <path id="Tracé_11767" data-name="Tracé 11767" d="M122.055,394.9c-.856.857-1.688,1.781-3.085,1.054C119.379,393.8,120.268,393.038,122.055,394.9Z" transform="translate(-95.007 -271.581)" fill="#b4001a"/>
        <path id="Tracé_11768" data-name="Tracé 11768" d="M115.006,367.8,115,369.65a2.107,2.107,0,0,1-2.993.31l-4.112-.183a6.588,6.588,0,0,0,.171-.975C110.385,368.526,112.467,366.575,115.006,367.8Z" transform="translate(-95.007 -271.581)" fill="#feaa3c"/>
        <path id="Tracé_11769" data-name="Tracé 11769" d="M115.006,367.8l-6.945,1q-.012-.5-.026-1C110.359,368.4,112.683,365.311,115.006,367.8Z" transform="translate(-95.007 -271.581)" fill="#fca22d"/>
        <path id="Tracé_11770" data-name="Tracé 11770" d="M125.883,374.839c0,1.384.626,2.863-.623,4.054-2.786.9-5.586,1.491-6.558,5.079-.907,3.351-5,.584-6.717,2.843l-1.892-.105q-1.042-3.951-2.084-7.9.01-.5.023-1.008c2.281-.365,2.859-2,2.977-3.985,1.881-1.034,4.867,1.263,6.011-1.994a2.516,2.516,0,0,1,.949-1.735c1.607-.912,3.23-1.552,4.936-.212a12.905,12.905,0,0,1,2.178,2.2,4.816,4.816,0,0,1,.589,1.032A3.283,3.283,0,0,1,125.883,374.839Z" transform="translate(-95.007 -271.581)" fill="#dc071f"/>
        <path id="Tracé_11771" data-name="Tracé 11771" d="M111.009,373.815c.289,2.287.911,4.821-2.978,3.985q-.021-.492-.015-.984C109.332,376.133,108.755,373.563,111.009,373.815Z" transform="translate(-95.007 -271.581)" fill="#dc1320"/>
        <path id="Tracé_11772" data-name="Tracé 11772" d="M117.97,370.908l-.95.913L112,371.8q0-.5.012-1c1.432-.975,3.1-.191,4.605-.612A1.937,1.937,0,0,1,117.97,370.908Z" transform="translate(-95.007 -271.581)" fill="#c00017"/>
        <path id="Tracé_11773" data-name="Tracé 11773" d="M116.972,370.8h-4.96q-.02-.422-.009-.842,1.5-.152,2.993-.308a1.706,1.706,0,0,0,.959.081C116.993,369.424,117.246,369.863,116.972,370.8Z" transform="translate(-95.007 -271.581)" fill="#b91112"/>
        <path id="Tracé_11774" data-name="Tracé 11774" d="M200.044,318.974l1.96.827c-1.847,1.159-3.748,2.285-3,5-2.31.5-4.608,1.022-5,3.944-.116.862-.695,2.1-1.326,1.608-3.369-2.645-3.461,3.531-6.209,2.159-.95,2.712,1.013,3,2.834,3.4-1.628,1.94-4.039,2.665-6.1,3.93-4.357.238-7.423,3.4-11.2,4.953-.213-.118-.427-.236-.643-.35-1.743-1.647-2.631-3.506-1.448-5.874q.014-.392.019-.783l7.016-3.182a9.219,9.219,0,0,0,1.38.525c.771.147,1.592.39,2.208-.4-.666-.314-1.528-.3-1.892-1.121,6.129-5.151,13.529-8.552,19.388-14.076C198.869,319.94,198.924,317.565,200.044,318.974Z" transform="translate(-95.007 -271.581)" fill="#fa9e37"/>
        <path id="Tracé_11775" data-name="Tracé 11775" d="M178.645,333.617l5.833-.275c-3,1.846-4.485,6.012-7.529,1.269l1.052-1.2A5.531,5.531,0,0,0,178.645,333.617Z" transform="translate(-95.007 -271.581)" fill="#fba02f"/>
        <path id="Tracé_11776" data-name="Tracé 11776" d="M203.01,315.856l-1.049.956c-3.229.575-2.643-2.446-2.392-3.448.8-3.2,3.964-.521,5.7-2.255C205.971,313.783,202.531,313.771,203.01,315.856Z" transform="translate(-95.007 -271.581)" fill="#ad101a"/>
        <path id="Tracé_11777" data-name="Tracé 11777" d="M154.973,348.75,153.12,347c5.071-1.459,8.71-5.772,13.91-6.971.723.223-.048,2.008,1.482,1.4,1.7.569,2.468,2.093,3.487,3.356l.006.009q0,1.009,0,2.019A3.136,3.136,0,0,0,170,348.767c-1.643.436-3.516.543-3.923,2.746a12.89,12.89,0,0,1-6.45,2.234C156.966,353.11,154.925,351.9,154.973,348.75Z" transform="translate(-95.007 -271.581)" fill="#fa9f38"/>
        <path id="Tracé_11778" data-name="Tracé 11778" d="M172,344.79l-3.94-3c-.712-1.13.555-1.486.865-2.217l.99-1C169.41,341.049,171.878,342.526,172,344.79Z" transform="translate(-95.007 -271.581)" fill="#fda32c"/>
        <path id="Tracé_11779" data-name="Tracé 11779" d="M168.924,339.576q-.434,1.109-.866,2.217c-.451.718-1.384,1.32-1.867.8-.965-1.035,1.238-1.449.839-2.563Z" transform="translate(-95.007 -271.581)" fill="#fcab53"/>
        <path id="Tracé_11780" data-name="Tracé 11780" d="M153.364,366.126c3.876.716,5.789-3.023,8.961-3.975a31.872,31.872,0,0,0,4.821-2.345,1.8,1.8,0,0,1,2.692.013q.03.506.059,1.013a2.911,2.911,0,0,0-2.907,1.937l-5.984,3.023-17.174,9.716c-1.857-1.808-.028-2.782.9-3.959C147.886,370.185,150.324,367.677,153.364,366.126Z" transform="translate(-95.007 -271.581)" fill="#8d311a"/>
        <path id="Tracé_11781" data-name="Tracé 11781" d="M168.181,357.812q.095-2.079.191-4.159c2.2.769,1.481,2.6,1.51,4.155A1.058,1.058,0,0,1,168.181,357.812Z" transform="translate(-95.007 -271.581)" fill="#a7221d"/>
        <path id="Tracé_11782" data-name="Tracé 11782" d="M168.181,357.812l1.7,0c-.015.67-.028,1.34-.044,2.011l-2.693-.013Z" transform="translate(-95.007 -271.581)" fill="#953617"/>
        <path id="Tracé_11783" data-name="Tracé 11783" d="M153.364,366.126c-2.027,3.167-4.476,5.66-8.637,5.424q.039-3.052.074-6.1c-.246-1.552-.821-3.128.328-4.58l7.891-3.3C154.084,360.382,153.815,363.25,153.364,366.126Z" transform="translate(-95.007 -271.581)" fill="#ab181b"/>
        <path id="Tracé_11784" data-name="Tracé 11784" d="M160.277,352.9l-7.095,4.183c-.464-1.048-1.246-2.208.282-2.973,1.792-.9,1.167-2.057.556-3.283a2.247,2.247,0,0,1,.953-2.079C156.259,350.75,157.627,352.645,160.277,352.9Z" transform="translate(-95.007 -271.581)" fill="#fba436"/>
        <path id="Tracé_11785" data-name="Tracé 11785" d="M125.022,372.841l-1.951-2a2.362,2.362,0,0,1-.668-2.031c.278-.744.66-1.324,1.6-1.007,1.838-1.386,3.751-2.529,6.207-1.9-.989,1.086-5.182,1.189-1.168,3.81-.121.18-.241.36-.357.544C127.41,371.036,126.318,372.084,125.022,372.841Z" transform="translate(-95.007 -271.581)" fill="#fbac4b"/>
        <path id="Tracé_11786" data-name="Tracé 11786" d="M142.036,361.851c-3.571,1.588-7.079,3.351-11.018,3.9,3.118-2.872,7.208-3.578,11.006-4.933q.507.34.343.687T142.036,361.851Z" transform="translate(-95.007 -271.581)" fill="#fba840"/>
        <path id="Tracé_11787" data-name="Tracé 11787" d="M124.007,367.8l-1.117,1.175c-1.342.695-2.157-.023-2.851-1.065.1-1.069-.386-2.55,1.127-2.839C123.15,364.693,123.236,366.69,124.007,367.8Z" transform="translate(-95.007 -271.581)" fill="#fda82e"/>
        <path id="Tracé_11788" data-name="Tracé 11788" d="M120.039,367.911l2.852,1.064c.059.622.119,1.242.18,1.864a3.974,3.974,0,0,0-5.1.068c-.333-.034-.665-.07-1-.105l-1.018-1.07C116.908,368.209,119.1,369.466,120.039,367.911Z" transform="translate(-95.007 -271.581)" fill="#c73f1f"/>
        <path id="Tracé_11789" data-name="Tracé 11789" d="M121.618,360.97l6.243-.327C126.307,362.6,124.676,363.33,121.618,360.97Z" transform="translate(-95.007 -271.581)" fill="#fca231"/>
        <path id="Tracé_11790" data-name="Tracé 11790" d="M133.009,353.775l1.948,1.027a9.625,9.625,0,0,1-5.951,2.009C128.962,353.982,132.2,355.478,133.009,353.775Z" transform="translate(-95.007 -271.581)" fill="#b22122"/>
        <path id="Tracé_11791" data-name="Tracé 11791" d="M142.036,361.851l-.012-1.036c1.03.288,2.091-1.253,3.1.052q-.163,2.295-.328,4.586C143.725,364.367,144.992,361.485,142.036,361.851Z" transform="translate(-95.007 -271.581)" fill="#fca851"/>
        <path id="Tracé_11792" data-name="Tracé 11792" d="M125.883,374.839l-.649-1.066c1.112-1.367,1.9-3.04,3.632-3.821l.18-.24c1.842.36,3.452,1.012,3.916,3.108C130.613,373.531,128.8,376.117,125.883,374.839Z" transform="translate(-95.007 -271.581)" fill="#ffb636"/>
        <path id="Tracé_11793" data-name="Tracé 11793" d="M143.856,375.632c.251,1.791,1.541,3.4.957,5.336C141.46,379.733,142.191,377.766,143.856,375.632Z" transform="translate(-95.007 -271.581)" fill="#331c12"/>
        <path id="Tracé_11794" data-name="Tracé 11794" d="M128.866,369.952c-.825,1.641-1.186,3.722-3.633,3.821a3.782,3.782,0,0,1-.211-.932C125.188,370.394,126.552,369.541,128.866,369.952Z" transform="translate(-95.007 -271.581)" fill="#f9b92a"/>
      </g>
    </g>
  </g>
</svg>
