<?xml version="1.0" encoding="utf-8"?>
<!-- Generator: Adobe Illustrator 23.0.3, SVG Export Plug-In . SVG Version: 6.00 Build 0)  -->
<!DOCTYPE svg PUBLIC "-//W3C//DTD SVG 1.1//EN" "http://www.w3.org/Graphics/SVG/1.1/DTD/svg11.dtd" [
	<!ENTITY ns_extend "http://ns.adobe.com/Extensibility/1.0/">
	<!ENTITY ns_ai "http://ns.adobe.com/AdobeIllustrator/10.0/">
	<!ENTITY ns_graphs "http://ns.adobe.com/Graphs/1.0/">
	<!ENTITY ns_vars "http://ns.adobe.com/Variables/1.0/">
	<!ENTITY ns_imrep "http://ns.adobe.com/ImageReplacement/1.0/">
	<!ENTITY ns_sfw "http://ns.adobe.com/SaveForWeb/1.0/">
	<!ENTITY ns_custom "http://ns.adobe.com/GenericCustomNamespace/1.0/">
	<!ENTITY ns_adobe_xpath "http://ns.adobe.com/XPath/1.0/">
]>
<svg version="1.1" id="Calque_1" xmlns:x="&ns_extend;" xmlns:i="&ns_ai;" xmlns:graph="&ns_graphs;"
	 xmlns="http://www.w3.org/2000/svg" xmlns:xlink="http://www.w3.org/1999/xlink" x="0px" y="0px" viewBox="0 0 250.7 305.3"
	 style="enable-background:new 0 0 250.7 305.3;" xml:space="preserve">
<style type="text/css">
	.st0{fill:#808080;stroke:#1A1818;stroke-linecap:round;stroke-linejoin:round;}
	.st1{fill:#DAE3EA;stroke:#1A1818;stroke-linecap:round;stroke-linejoin:round;}
	.st2{fill:#FFFFFF;stroke:#1A1818;stroke-linecap:round;stroke-linejoin:round;}
	.st3{fill:#0C0C0C;}
	.st4{fill:#050505;}
	.st5{fill:#030303;}
	.st6{fill:#080808;}
	.st7{fill:#44382F;}
	.st8{fill:#645446;}
	.st9{fill:#CFAA8E;}
	.st10{fill:#121212;}
	.st11{fill:#85090E;}
	.st12{fill:#310600;}
	.st13{fill:#440900;}
	.st14{fill:#8E7764;}
	.st15{fill:#B79880;}
	.st16{fill:#C7A489;}
</style>
<metadata>
	<sfw  xmlns="&ns_sfw;">
		<slices></slices>
		<sliceSourceBounds  bottomLeftOrigin="true" height="304.2" width="250.7" x="0" y="0"></sliceSourceBounds>
	</sfw>
</metadata>
<g id="Groupe_983" transform="translate(2616.497 -2907.227)">
	<g id="Groupe_982" transform="translate(-2615.997 2926.317)">
		<g id="Groupe_980">
			<g id="Groupe_973" transform="translate(125)">
				<path id="Tracé_430" class="st0" d="M124.7,144L124.7,144z"/>
				<path id="Tracé_431" class="st1" d="M124.7,124.9L0,72v69.4l124.7,72V124.9z"/>
				<path id="Tracé_432" class="st2" d="M124.7,144L0,72L124.7,0V144z"/>
			</g>
			<g id="Groupe_974" transform="translate(0 72)">
				<path id="Tracé_430-2" class="st0" d="M124.7,144l124.7-72v72l-124.7,69.8V144z"/>
				<path id="Tracé_431-2" class="st1" d="M124.7,124.9L0,72v69.4l124.7,72V124.9z"/>
				<path id="Tracé_432-2" class="st2" d="M249.4,72l-124.7,72L0,72L124.7,0L249.4,72z"/>
			</g>
		</g>
	</g>
	<g>
		<g id="Groupe_1032" transform="translate(14.969 58.097)">
			<g id="Groupe_1031">
				<g id="Groupe_1030">
					<g id="Groupe_1027" transform="translate(0 3.172)">
						<path id="Tracé_11869" d="M-2509.6,3029.5l0,14.6l-12.7-7.4l0-14.6L-2509.6,3029.5z"/>
					</g>
					<g id="Groupe_1028" transform="translate(4.462 2.576)">
						<path id="Tracé_11870" d="M-2514,3030.1l15.6-9.1l0,14.6l-15.6,9.1L-2514,3030.1z"/>
					</g>
					<g id="Groupe_1029" transform="translate(0.015)">
						<path id="Tracé_11871" d="M-2522.3,3025.3l15.6-9.1l12.7,7.4l-15.6,9.1L-2522.3,3025.3z"/>
					</g>
				</g>
			</g>
		</g>
		<g id="Groupe_1038" transform="translate(3.822 51.613)">
			<g id="Groupe_1037">
				<g id="Groupe_1036">
					<g id="Groupe_1033" transform="translate(0 3.172)">
						<path id="Tracé_11872" d="M-2530.3,3017.4l0,14.6l-12.7-7.4l0-14.6L-2530.3,3017.4z"/>
					</g>
					<g id="Groupe_1034" transform="translate(4.462 2.576)">
						<path id="Tracé_11873" d="M-2534.7,3018l15.6-9.1l0,14.6l-15.6,9.1L-2534.7,3018z"/>
					</g>
					<g id="Groupe_1035" transform="translate(0.015)">
						<path id="Tracé_11874" d="M-2543,3013.2l15.6-9.1l12.7,7.4l-15.6,9.1L-2543,3013.2z"/>
					</g>
				</g>
			</g>
		</g>
		<g id="Groupe_1070" transform="translate(0 0)">
			<g id="Groupe_1069">
				<g id="Groupe_1042" transform="translate(1.516 27.669)">
					<g id="Groupe_1039" transform="translate(0 12.373)">
						<path id="Tracé_11875" class="st3" d="M-2488.9,3016.3l-0.1,47.6l-58.3-33.6l0.1-47.6L-2488.9,3016.3z"/>
					</g>
					<g id="Groupe_1040" transform="translate(20.398 11.777)">
						<path id="Tracé_11876" class="st4" d="M-2509.3,3016.9l60.8-35.3l-0.1,47.6l-60.8,35.3L-2509.3,3016.9z"/>
					</g>
					<g id="Groupe_1041" transform="translate(0.047)">
						<path id="Tracé_11877" class="st5" d="M-2547.2,2995.1l60.8-35.3l58.3,33.6l-60.8,35.3L-2547.2,2995.1z"/>
					</g>
				</g>
				<g id="Groupe_1064" transform="translate(0 4.406)">
					<g id="Groupe_1043" transform="translate(1.538 5.099)">
						<path id="Tracé_11878" class="st6" d="M-2547.2,2961.3l60.8-35.3l-0.1,21.9l-60.8,35.3L-2547.2,2961.3z"/>
					</g>
					<g id="Groupe_1044" transform="translate(1.538 12.771)">
						<path id="Tracé_11879" class="st4" d="M-2547.3,2975.6l60.8-35.3l58.3,33.6l-60.8,35.3L-2547.3,2975.6z"/>
					</g>
					<g id="Groupe_1045" transform="translate(4.726 12.969)">
						<path id="Tracé_11880" class="st7" d="M-2541.4,2976l60.8-35.3l10.8,6.2l-60.8,35.3L-2541.4,2976z"/>
					</g>
					<g id="Groupe_1046" transform="translate(4.726 8.635)">
						<path id="Tracé_11881" class="st8" d="M-2541.3,2967.9l60.8-35.3l0,12.4l-60.8,35.3L-2541.3,2967.9z"/>
					</g>
					<g id="Groupe_1047" transform="translate(4.739 8.635)">
						<path id="Tracé_11882" d="M-2541.3,2967.9l60.8-35.3l10.8,6.2l-60.8,35.3L-2541.3,2967.9z"/>
					</g>
					<g id="Groupe_1048" transform="translate(4.726 21.007)">
						<path id="Tracé_11883" d="M-2530.6,2961.8l0,12.4l-10.8-6.2l0-12.4L-2530.6,2961.8z"/>
					</g>
					<g id="Groupe_1049" transform="translate(8.498 10.812)">
						<path id="Tracé_11884" d="M-2534.3,2972l60.8-35.3l0,12.4l-60.8,35.3L-2534.3,2972z"/>
					</g>
					<g id="Groupe_1050" transform="translate(15.126 18.973)">
						<path id="Tracé_11885" class="st7" d="M-2522.1,2987.1l60.8-35.3l10.8,6.2l-60.8,35.3L-2522.1,2987.1z"/>
					</g>
					<g id="Groupe_1051" transform="translate(15.126 14.639)">
						<path id="Tracé_11886" class="st8" d="M-2522,2979.1l60.8-35.3l0,12.4l-60.8,35.3L-2522,2979.1z"/>
					</g>
					<g id="Groupe_1052" transform="translate(15.138 14.639)">
						<path id="Tracé_11887" d="M-2522,2979.1l60.8-35.3l10.8,6.2l-60.8,35.3L-2522,2979.1z"/>
					</g>
					<g id="Groupe_1053" transform="translate(18.898 16.817)">
						<path id="Tracé_11888" d="M-2515,2983.1l60.8-35.3l0,12.4l-60.8,35.3L-2515,2983.1z"/>
					</g>
					<g id="Groupe_1054" transform="translate(21.935 16.875)">
						<path id="Tracé_11889" class="st8" d="M-2509.4,2983.2l60.8-35.3l-0.1,21.9l-60.8,35.3L-2509.4,2983.2z"/>
					</g>
					<g id="Groupe_1055" transform="translate(1.538 17.472)">
						<path id="Tracé_11890" class="st9" d="M-2547.2,2949l58.3,33.6l-0.1,21.9l-58.3-33.6L-2547.2,2949z M-2527.4,2977.7l0-12.4
							l-10.8-6.2l0,12.4L-2527.4,2977.7 M-2497.7,2994.8l0-12.4l-10.8-6.2l0,12.4L-2497.7,2994.8"/>
					</g>
					<g id="Groupe_1056" transform="translate(1.56 5.099)">
						<path id="Tracé_11891" class="st7" d="M-2547.3,2961.3l60.8-35.3l58.3,33.6l-60.8,35.3L-2547.3,2961.3z"/>
					</g>
					<g id="Groupe_1057" transform="translate(0 16.572)">
						<path id="Tracé_11892" class="st10" d="M-2550.1,2999.2l0.1-51.9l66.5,38.4l-0.1,51.9l-3.8-2.2l-58.3-33.6L-2550.1,2999.2z
							 M-2545.7,2949.9l-0.1,21.9l58.3,33.6l0.1-21.9L-2545.7,2949.9"/>
					</g>
					<g id="Groupe_1058" transform="translate(15.126 27.012)">
						<path id="Tracé_11893" d="M-2522.1,2979.1l10.8,6.2l0-12.4l-10.8-6.2L-2522.1,2979.1z"/>
					</g>
					<g id="Groupe_1059" transform="translate(0.051 4.199)">
						<path id="Tracé_11894" class="st4" d="M-2550.1,2959.7l60.8-35.3l66.5,38.4l-60.8,35.3L-2550.1,2959.7z"/>
					</g>
					<g id="Groupe_1060" transform="translate(0.051 12.373)">
						<path id="Tracé_11895" class="st11" d="M-2483.5,2977.9l0,12l-66.5-38.4l0-12L-2483.5,2977.9z"/>
					</g>
					<g id="Groupe_1061" transform="translate(23.294 17.648)">
						<path id="Tracé_11896" class="st6" d="M-2506.8,2984.6l60.8-35.3l-0.1,51.9l-60.8,35.3L-2506.8,2984.6z"/>
					</g>
					<g id="Groupe_1062" transform="translate(0.063)">
						<path id="Tracé_11897" class="st12" d="M-2550,2951.9l60.8-35.3l66.5,38.4l-60.8,35.3L-2550,2951.9z"/>
					</g>
					<g id="Groupe_1063" transform="translate(23.346 13.449)">
						<path id="Tracé_11898" class="st13" d="M-2506.8,2976.9l60.8-35.3l0,12l-60.8,35.3L-2506.8,2976.9z"/>
					</g>
				</g>
				<g id="Groupe_1068" transform="translate(0.063)">
					<g id="Groupe_1065" transform="translate(0 12.373)">
						<path id="Tracé_11899" class="st10" d="M-2550,2931.3l66.5,38.4l0,12.6l-66.5-38.4L-2550,2931.3z"/>
					</g>
					<g id="Groupe_1066" transform="translate(0.012)">
						<path id="Tracé_11900" class="st4" d="M-2550,2943.7l60.8-35.3l66.5,38.4l-60.8,35.3L-2550,2943.7z"/>
					</g>
					<g id="Groupe_1067" transform="translate(23.294 13.449)">
						<path id="Tracé_11901" class="st6" d="M-2506.8,2968.7l60.8-35.3l0,12.6l-60.8,35.3L-2506.8,2968.7z"/>
					</g>
				</g>
			</g>
		</g>
		<g id="Groupe_1080" transform="translate(30.193 44.155)">
			<g id="Groupe_1079">
				<g id="Groupe_1078">
					<g id="Groupe_1071" transform="translate(0.022 10.595)">
						<path id="Tracé_11902" class="st14" d="M-2486.2,3021l-7.8-4.5l0-6.4l7.8,4.5L-2486.2,3021z"/>
					</g>
					<g id="Groupe_1072" transform="translate(2.751 9.286)">
						<path id="Tracé_11903" class="st15" d="M-2475,3007.6l0,6.6l-14,8.1l0-6.4v-0.2L-2475,3007.6z"/>
					</g>
					<g id="Groupe_1073" transform="translate(0.022 10.536)">
						<path id="Tracé_11904" class="st14" d="M-2486.3,3014.6l-7.8-4.5v-0.2l7.8,4.5V3014.6z"/>
					</g>
					<g id="Groupe_1074" transform="translate(0.022 7.699)">
						<path id="Tracé_11905" class="st16" d="M-2486.3,3017.3l-7.8-4.5l14-8.1l7.8,4.5L-2486.3,3017.3z"/>
					</g>
					<g id="Groupe_1075" transform="translate(0 2.837)">
						<path id="Tracé_11906" class="st4" d="M-2486.2,3022.3l-7.8-4.5l-0.1-22.2l7.8,4.5L-2486.2,3022.3z"/>
					</g>
					<g id="Groupe_1076" transform="translate(2.73 1.586)">
						<path id="Tracé_11907" class="st4" d="M-2475,2993.3l0.1,22l-14,8.1v0.2l-0.1-22.2L-2475,2993.3z"/>
					</g>
					<g id="Groupe_1077">
						<path id="Tracé_11908" class="st4" d="M-2486.3,3003l-7.8-4.5l14-8.1l7.8,4.5L-2486.3,3003z"/>
					</g>
				</g>
			</g>
		</g>
	</g>
</g>
</svg>
