<svg xmlns="http://www.w3.org/2000/svg" width="250.672" height="295.376" viewBox="0 0 250.672 295.376">
  <g id="Groupe_980" data-name="Groupe 980" transform="translate(0.497 -2611.171)">
    <g id="Groupe_973" data-name="Groupe 973" transform="translate(-124.676 2620.317)">
      <path id="Tracé_430" data-name="Tracé 430" d="M1849.373,1417.07v0Z" transform="translate(-1724.693 -1273.108)" fill="gray" stroke="#1a1818" stroke-linecap="round" stroke-linejoin="round" stroke-width="1"/>
      <path id="Tracé_431" data-name="Tracé 431" d="M1692.694,1397.992l124.672-52.9v69.394l-124.672,71.99Z" transform="translate(-1568.015 -1273.108)" fill="#dae3ea" stroke="#1a1818" stroke-linecap="round" stroke-linejoin="round" stroke-width="1"/>
      <path id="Tracé_432" data-name="Tracé 432" d="M1817.373,1470.575l124.672-71.983-124.672-71.979Z" transform="translate(-1692.694 -1326.612)" fill="#fff" stroke="#1a1818" stroke-linecap="round" stroke-linejoin="round" stroke-width="1"/>
    </g>
    <g id="Groupe_974" data-name="Groupe 974" transform="translate(0.324 2692.317)">
      <path id="Tracé_430-2" data-name="Tracé 430" d="M1849.373,1417.07l-124.679-71.983v71.983l124.679,69.767Z" transform="translate(-1724.693 -1273.108)" fill="gray" stroke="#1a1818" stroke-linecap="round" stroke-linejoin="round" stroke-width="1"/>
      <path id="Tracé_431-2" data-name="Tracé 431" d="M1692.694,1397.992l124.672-52.9v69.394l-124.672,71.99Z" transform="translate(-1568.015 -1273.108)" fill="#dae3ea" stroke="#1a1818" stroke-linecap="round" stroke-linejoin="round" stroke-width="1"/>
      <path id="Tracé_432-2" data-name="Tracé 432" d="M1692.694,1398.592l124.679,71.983,124.672-71.983-124.672-71.979-124.679,71.979Z" transform="translate(-1692.694 -1326.612)" fill="#fff" stroke="#1a1818" stroke-linecap="round" stroke-linejoin="round" stroke-width="1"/>
    </g>
    <g id="Groupe_975" data-name="Groupe 975" transform="translate(62.594 2611.171)">
      <g id="Groupe_507" data-name="Groupe 507" transform="translate(32.064 117.944)">
        <g id="Groupe_500" data-name="Groupe 500" transform="translate(0 31.826)">
          <g id="Groupe_499" data-name="Groupe 499">
            <g id="Groupe_490" data-name="Groupe 490" transform="translate(0)">
              <g id="Groupe_485" data-name="Groupe 485" transform="translate(31.896 11.094)">
                <path id="Tracé_11391" data-name="Tracé 11391" d="M603.136,1062.487l.041,14.586,4.749-2.742-.041-14.586Z" transform="translate(-603.136 -1059.745)" fill="#7c0003"/>
              </g>
              <g id="Groupe_486" data-name="Groupe 486" transform="translate(23.84 13.836)">
                <path id="Tracé_11392" data-name="Tracé 11392" d="M621.716,1075.123l.041,14.586,8.056-4.651-.041-14.586Z" transform="translate(-621.716 -1070.472)" fill="#7c0003"/>
              </g>
              <g id="Groupe_487" data-name="Groupe 487" transform="translate(0)">
                <path id="Tracé_11393" data-name="Tracé 11393" d="M603.3,1026.478l19.091,11.095,4.749-2.742,8.056-4.651,4.749-2.742-19.091-11.094Z" transform="translate(-603.298 -1016.344)" fill="#bd000b"/>
              </g>
              <g id="Groupe_488" data-name="Groupe 488" transform="translate(0 10.135)">
                <path id="Tracé_11394" data-name="Tracé 11394" d="M671.81,1055.992l.041,14.586,19.091,11.094-.042-14.586Z" transform="translate(-671.81 -1055.992)" fill="#aa0009"/>
              </g>
              <g id="Groupe_489" data-name="Groupe 489" transform="translate(19.091 18.487)">
                <path id="Tracé_11395" data-name="Tracé 11395" d="M653.23,1091.409l.041,14.586,4.749-2.742-.041-14.586Z" transform="translate(-653.23 -1088.667)" fill="#7c0003"/>
              </g>
            </g>
            <g id="Groupe_494" data-name="Groupe 494" transform="translate(31.896 11.094)">
              <g id="Groupe_491" data-name="Groupe 491" transform="translate(0)">
                <path id="Tracé_11396" data-name="Tracé 11396" d="M584.84,1062.487l4.718,2.742,4.749-2.742-4.718-2.742Z" transform="translate(-584.84 -1059.745)" fill="#e09900"/>
              </g>
              <g id="Groupe_492" data-name="Groupe 492" transform="translate(0 2.742)">
                <path id="Tracé_11397" data-name="Tracé 11397" d="M603.257,1070.472l.041,14.586,4.718,2.742-.041-14.586Z" transform="translate(-603.257 -1070.472)" fill="#ca8b00"/>
              </g>
              <g id="Groupe_493" data-name="Groupe 493" transform="translate(4.718 2.742)">
                <path id="Tracé_11398" data-name="Tracé 11398" d="M584.678,1073.214l.042,14.586,4.749-2.742-.041-14.586Z" transform="translate(-584.678 -1070.472)" fill="#926700"/>
              </g>
            </g>
            <g id="Groupe_498" data-name="Groupe 498" transform="translate(19.091 18.487)">
              <g id="Groupe_495" data-name="Groupe 495" transform="translate(0)">
                <path id="Tracé_11399" data-name="Tracé 11399" d="M634.934,1091.409l4.719,2.742,4.749-2.742-4.718-2.742Z" transform="translate(-634.934 -1088.667)" fill="#e09900"/>
              </g>
              <g id="Groupe_496" data-name="Groupe 496" transform="translate(0 2.742)">
                <path id="Tracé_11400" data-name="Tracé 11400" d="M653.351,1099.394l.041,14.586,4.719,2.742-.041-14.586Z" transform="translate(-653.351 -1099.394)" fill="#ca8b00"/>
              </g>
              <g id="Groupe_497" data-name="Groupe 497" transform="translate(4.719 2.742)">
                <path id="Tracé_11401" data-name="Tracé 11401" d="M634.772,1102.136l.041,14.586,4.749-2.742-.041-14.586Z" transform="translate(-634.772 -1099.394)" fill="#926700"/>
              </g>
            </g>
          </g>
        </g>
        <g id="Groupe_506" data-name="Groupe 506" transform="translate(4.32 0)">
          <g id="Groupe_505" data-name="Groupe 505">
            <g id="Groupe_504" data-name="Groupe 504">
              <g id="Groupe_501" data-name="Groupe 501" transform="translate(0 5.235)">
                <path id="Tracé_11402" data-name="Tracé 11402" d="M704.459,912.317l-.105,37.141,6.388,3.688.105-37.141Z" transform="translate(-704.354 -912.317)" fill="#ab0009"/>
              </g>
              <g id="Groupe_502" data-name="Groupe 502" transform="translate(6.388 3.688)">
                <path id="Tracé_11403" data-name="Tracé 11403" d="M669.114,948.642l9.008-5.235.105-37.141L669.22,911.5Z" transform="translate(-669.114 -906.266)" fill="#7c0002"/>
              </g>
              <g id="Groupe_503" data-name="Groupe 503" transform="translate(0.105)">
                <path id="Tracé_11404" data-name="Tracé 11404" d="M675.5,900.761l9.008-5.235-6.388-3.688-9.008,5.235Z" transform="translate(-669.114 -891.838)" fill="#bc000b"/>
              </g>
            </g>
          </g>
        </g>
      </g>
      <g id="Groupe_530" data-name="Groupe 530" transform="translate(77.006 92.966)">
        <g id="Groupe_523" data-name="Groupe 523" transform="translate(0 31.824)">
          <g id="Groupe_522" data-name="Groupe 522">
            <g id="Groupe_513" data-name="Groupe 513" transform="translate(0)">
              <g id="Groupe_508" data-name="Groupe 508" transform="translate(31.896 11.094)">
                <path id="Tracé_11405" data-name="Tracé 11405" d="M427.321,964.766l.041,14.586,4.749-2.742-.041-14.586Z" transform="translate(-427.321 -962.023)" fill="#7c0003"/>
              </g>
              <g id="Groupe_509" data-name="Groupe 509" transform="translate(23.84 13.836)">
                <path id="Tracé_11406" data-name="Tracé 11406" d="M445.9,977.4l.041,14.586L454,987.336l-.041-14.586Z" transform="translate(-445.901 -972.75)" fill="#7c0003"/>
              </g>
              <g id="Groupe_510" data-name="Groupe 510" transform="translate(0)">
                <path id="Tracé_11407" data-name="Tracé 11407" d="M427.483,928.757l19.091,11.094,4.749-2.742,8.056-4.651,4.749-2.742-19.091-11.095Z" transform="translate(-427.483 -918.622)" fill="#bd000b"/>
              </g>
              <g id="Groupe_511" data-name="Groupe 511" transform="translate(0 10.135)">
                <path id="Tracé_11408" data-name="Tracé 11408" d="M495.995,958.27l.041,14.586,19.091,11.094-.041-14.586Z" transform="translate(-495.995 -958.27)" fill="#aa0009"/>
              </g>
              <g id="Groupe_512" data-name="Groupe 512" transform="translate(19.091 18.487)">
                <path id="Tracé_11409" data-name="Tracé 11409" d="M477.416,993.687l.041,14.586,4.749-2.742-.041-14.586Z" transform="translate(-477.416 -990.945)" fill="#7c0003"/>
              </g>
            </g>
            <g id="Groupe_517" data-name="Groupe 517" transform="translate(31.896 11.094)">
              <g id="Groupe_514" data-name="Groupe 514" transform="translate(0)">
                <path id="Tracé_11410" data-name="Tracé 11410" d="M409.025,964.766l4.718,2.742,4.749-2.742-4.718-2.742Z" transform="translate(-409.025 -962.023)" fill="#e09900"/>
              </g>
              <g id="Groupe_515" data-name="Groupe 515" transform="translate(0 2.742)">
                <path id="Tracé_11411" data-name="Tracé 11411" d="M427.442,972.75l.041,14.586,4.718,2.742-.041-14.586Z" transform="translate(-427.442 -972.75)" fill="#ca8b00"/>
              </g>
              <g id="Groupe_516" data-name="Groupe 516" transform="translate(4.719 2.742)">
                <path id="Tracé_11412" data-name="Tracé 11412" d="M408.863,975.492l.041,14.586,4.749-2.742-.041-14.586Z" transform="translate(-408.863 -972.75)" fill="#926700"/>
              </g>
            </g>
            <g id="Groupe_521" data-name="Groupe 521" transform="translate(19.091 18.487)">
              <g id="Groupe_518" data-name="Groupe 518" transform="translate(0)">
                <path id="Tracé_11413" data-name="Tracé 11413" d="M459.119,993.687l4.718,2.742,4.749-2.742-4.718-2.742Z" transform="translate(-459.119 -990.945)" fill="#e09900"/>
              </g>
              <g id="Groupe_519" data-name="Groupe 519" transform="translate(0 2.742)">
                <path id="Tracé_11414" data-name="Tracé 11414" d="M477.536,1001.672l.041,14.586L482.3,1019l-.041-14.586Z" transform="translate(-477.536 -1001.672)" fill="#ca8b00"/>
              </g>
              <g id="Groupe_520" data-name="Groupe 520" transform="translate(4.718 2.742)">
                <path id="Tracé_11415" data-name="Tracé 11415" d="M458.957,1004.414,459,1019l4.749-2.742-.041-14.586Z" transform="translate(-458.957 -1001.672)" fill="#926700"/>
              </g>
            </g>
          </g>
        </g>
        <g id="Groupe_529" data-name="Groupe 529" transform="translate(4.32 0)">
          <g id="Groupe_528" data-name="Groupe 528">
            <g id="Groupe_527" data-name="Groupe 527">
              <g id="Groupe_524" data-name="Groupe 524" transform="translate(0 5.235)">
                <path id="Tracé_11416" data-name="Tracé 11416" d="M528.644,814.6l-.105,37.14,6.388,3.688.105-37.139Z" transform="translate(-528.539 -814.603)" fill="#ab0009"/>
              </g>
              <g id="Groupe_525" data-name="Groupe 525" transform="translate(6.388 3.688)">
                <path id="Tracé_11417" data-name="Tracé 11417" d="M493.3,850.926l9.008-5.235.105-37.14-9.008,5.235Z" transform="translate(-493.299 -808.552)" fill="#7c0002"/>
              </g>
              <g id="Groupe_526" data-name="Groupe 526" transform="translate(0.105)">
                <path id="Tracé_11418" data-name="Tracé 11418" d="M499.687,803.047l9.008-5.235-6.388-3.688-9.008,5.235Z" transform="translate(-493.299 -794.124)" fill="#bc000b"/>
              </g>
            </g>
          </g>
        </g>
      </g>
      <g id="Groupe_548" data-name="Groupe 548" transform="translate(0 0)">
        <g id="Groupe_547" data-name="Groupe 547" transform="translate(0 0)">
          <g id="Groupe_546" data-name="Groupe 546">
            <g id="Groupe_531" data-name="Groupe 531" transform="translate(56.214 58.257)">
              <path id="Tracé_11419" data-name="Tracé 11419" d="M478.914,692.891l-59.453-34.55.035,12.254,59.453,34.55Z" transform="translate(-419.461 -658.34)" fill="#aa0009"/>
            </g>
            <g id="Groupe_532" data-name="Groupe 532" transform="translate(8.562 70.511)">
              <path id="Tracé_11420" data-name="Tracé 11420" d="M526.6,740.827l-59.453-34.55-47.687,27.532,59.453,34.55Z" transform="translate(-419.461 -706.277)" fill="#bd000b"/>
            </g>
            <g id="Groupe_533" data-name="Groupe 533" transform="translate(16.772 54.306)">
              <path id="Tracé_11421" data-name="Tracé 11421" d="M542.641,677.436l-59.453-34.55L452.039,660.87l59.453,34.55Z" transform="translate(-452.039 -642.886)" fill="#bd000b"/>
            </g>
            <g id="Groupe_534" data-name="Groupe 534" transform="translate(25.652 49.214)">
              <path id="Tracé_11422" data-name="Tracé 11422" d="M559.794,657.513l-59.453-34.55-13.329,7.7,59.453,34.55Z" transform="translate(-487.013 -622.963)" fill="#dcdcdc"/>
            </g>
            <g id="Groupe_535" data-name="Groupe 535" transform="translate(47.82 18.513)">
              <path id="Tracé_11423" data-name="Tracé 11423" d="M511.491,537.412l-59.453-34.55.1,35.793,59.453,34.55Z" transform="translate(-452.039 -502.862)" fill="#aa0009"/>
            </g>
            <g id="Groupe_536" data-name="Groupe 536" transform="translate(38.938 33.898)">
              <path id="Tracé_11424" data-name="Tracé 11424" d="M546.465,597.6l-59.453-34.55.043,15.316,59.453,34.55Z" transform="translate(-487.013 -563.046)" fill="#c5c5c5"/>
            </g>
            <g id="Groupe_537" data-name="Groupe 537" transform="translate(25.609 33.898)">
              <path id="Tracé_11425" data-name="Tracé 11425" d="M559.964,597.6l-59.453-34.55-13.329,7.7,59.453,34.55Z" transform="translate(-487.182 -563.046)"/>
            </g>
            <g id="Groupe_538" data-name="Groupe 538" transform="translate(25.609 41.593)">
              <path id="Tracé_11426" data-name="Tracé 11426" d="M598.609,627.7l-59.453-34.55.043,15.316,59.453,34.55Z" transform="translate(-539.156 -593.151)"/>
            </g>
            <g id="Groupe_539" data-name="Groupe 539" transform="translate(76.123 53.064)">
              <path id="Tracé_11427" data-name="Tracé 11427" d="M483.188,638.024l-31.149,17.984.1,35.793,31.149-17.984Zm-22.167,38.4-.043-15.316,13.329-7.7.043,15.316-13.329,7.7" transform="translate(-452.039 -638.024)" fill="#898989"/>
            </g>
            <g id="Groupe_540" data-name="Groupe 540" transform="translate(85.062 68.448)">
              <path id="Tracé_11428" data-name="Tracé 11428" d="M487.013,705.9l.043,15.316,13.329-7.7-.043-15.316Z" transform="translate(-487.013 -698.208)"/>
            </g>
            <g id="Groupe_541" data-name="Groupe 541" transform="translate(16.671 18.513)">
              <path id="Tracé_11429" data-name="Tracé 11429" d="M543.038,537.412l-59.453-34.55-31.149,17.984,59.453,34.55Z" transform="translate(-452.436 -502.862)" fill="#dcdcdc"/>
            </g>
            <g id="Groupe_542" data-name="Groupe 542" transform="translate(16.671 36.497)">
              <path id="Tracé_11430" data-name="Tracé 11430" d="M633.349,607.767,573.9,573.217l.1,35.793,59.453,34.55Z" transform="translate(-573.896 -573.217)" fill="#c5c5c5"/>
            </g>
            <g id="Groupe_543" data-name="Groupe 543" transform="translate(59.453 34.55)">
              <path id="Tracé_11431" data-name="Tracé 11431" d="M451.04,565.6,386.6,602.8l.21,74.044,64.438-37.2Zm-16.618,18.513.1,35.793-31.149,17.984-.1-35.793,31.149-17.984m-39.258,79.529-.035-12.254,47.687-27.532.035,12.254-47.687,27.532" transform="translate(-386.602 -565.599)" fill="#7c0003"/>
            </g>
            <g id="Groupe_544" data-name="Groupe 544" transform="translate(0 37.203)">
              <path id="Tracé_11432" data-name="Tracé 11432" d="M698.141,610.529l-59.453-34.55.21,74.044,59.453,34.55Z" transform="translate(-638.688 -575.978)" fill="#aa0009"/>
            </g>
            <g id="Groupe_545" data-name="Groupe 545" transform="translate(0)">
              <path id="Tracé_11433" data-name="Tracé 11433" d="M511.315,464.987l-59.453-34.55-64.438,37.2,59.453,34.55Z" transform="translate(-387.423 -430.437)" fill="#bd000b"/>
            </g>
          </g>
        </g>
      </g>
      <g id="Groupe_563" data-name="Groupe 563" transform="translate(10.114 82.135)">
        <g id="Groupe_562" data-name="Groupe 562">
          <g id="Groupe_561" data-name="Groupe 561">
            <g id="Groupe_549" data-name="Groupe 549" transform="translate(0.054 42.405)">
              <path id="Tracé_11434" data-name="Tracé 11434" d="M800.567,922.887l5.4-3.141-3.641-2.1-5.4,3.141Z" transform="translate(-796.926 -917.644)" fill="#bc000b"/>
            </g>
            <g id="Groupe_550" data-name="Groupe 550" transform="translate(16.709 62.883)">
              <path id="Tracé_11435" data-name="Tracé 11435" d="M745.924,1009.264l5.4-3.141.024-8.372-5.4,3.141Z" transform="translate(-745.924 -997.751)" fill="#7c0002"/>
            </g>
            <g id="Groupe_551" data-name="Groupe 551" transform="translate(3.695 44.508)">
              <path id="Tracé_11436" data-name="Tracé 11436" d="M769.475,934.451l5.4-3.141-9.427-5.443-5.4,3.141Z" transform="translate(-760.048 -925.868)" fill="#bc000b"/>
            </g>
            <g id="Groupe_552" data-name="Groupe 552" transform="translate(0 45.546)">
              <path id="Tracé_11437" data-name="Tracé 11437" d="M767,929.931l-.054,19.2,16.709,9.647.024-8.371.031-10.83-3.641-2.1-9.427-5.442Z" transform="translate(-766.948 -929.931)" fill="#ab0009"/>
            </g>
            <g id="Groupe_553" data-name="Groupe 553" transform="translate(16.733 52.052)">
              <path id="Tracé_11438" data-name="Tracé 11438" d="M745.8,969.354l5.4-3.141.031-10.83-5.4,3.141Z" transform="translate(-745.804 -955.383)" fill="#7c0002"/>
            </g>
            <g id="Groupe_554" data-name="Groupe 554" transform="translate(13.122 49.95)">
              <path id="Tracé_11439" data-name="Tracé 11439" d="M749.445,952.4l5.4-3.141-3.641-2.1-5.4,3.141Z" transform="translate(-745.804 -947.159)" fill="#bc000b"/>
            </g>
            <g id="Groupe_555" data-name="Groupe 555" transform="translate(16.733 55.193)">
              <path id="Tracé_11440" data-name="Tracé 11440" d="M724.82,967.671l-.031,10.83,10.776,6.222.031-10.83Z" transform="translate(-724.79 -967.671)" fill="#ab0009"/>
            </g>
            <g id="Groupe_556" data-name="Groupe 556" transform="translate(27.509 58.274)">
              <path id="Tracé_11441" data-name="Tracé 11441" d="M703.646,993.694l5.4-3.141.031-10.83-5.4,3.141Z" transform="translate(-703.646 -979.723)" fill="#7c0002"/>
            </g>
            <g id="Groupe_557" data-name="Groupe 557" transform="translate(16.763 52.052)">
              <path id="Tracé_11442" data-name="Tracé 11442" d="M714.422,964.746l5.4-3.141-10.776-6.222-5.4,3.141Z" transform="translate(-703.646 -955.383)" fill="#bc000b"/>
            </g>
            <g id="Groupe_558" data-name="Groupe 558" transform="translate(3.695 3.141)">
              <path id="Tracé_11443" data-name="Tracé 11443" d="M780.824,764.039l-.126,44.508,9.427,5.443.126-44.508Z" transform="translate(-780.698 -764.039)" fill="#ab0009"/>
            </g>
            <g id="Groupe_559" data-name="Groupe 559" transform="translate(3.822)">
              <path id="Tracé_11444" data-name="Tracé 11444" d="M768.981,760.335l5.4-3.141-9.427-5.443-5.4,3.141Z" transform="translate(-759.554 -751.751)" fill="#bc000b"/>
            </g>
            <g id="Groupe_560" data-name="Groupe 560" transform="translate(13.122 5.443)">
              <path id="Tracé_11445" data-name="Tracé 11445" d="M759.554,820.692l5.4-3.141.126-44.508-5.4,3.141Z" transform="translate(-759.554 -773.043)" fill="#7c0002"/>
            </g>
          </g>
        </g>
      </g>
      <g id="Groupe_569" data-name="Groupe 569" transform="translate(86.428 14.433)">
        <g id="Groupe_568" data-name="Groupe 568" transform="translate(0 0)">
          <g id="Groupe_567" data-name="Groupe 567">
            <g id="Groupe_564" data-name="Groupe 564" transform="translate(9.008 5.235)">
              <path id="Tracé_11446" data-name="Tracé 11446" d="M461.743,512.823l.031,10.83,9.427-5.443-.031-10.83Z" transform="translate(-461.743 -507.38)" fill="#898989"/>
            </g>
            <g id="Groupe_565" data-name="Groupe 565" transform="translate(0 5.443)">
              <path id="Tracé_11447" data-name="Tracé 11447" d="M507.629,513.427l-9.008-5.235.031,10.83,9.008,5.235Z" transform="translate(-498.621 -508.193)" fill="#c5c5c5"/>
            </g>
            <g id="Groupe_566" data-name="Groupe 566" transform="translate(0)">
              <path id="Tracé_11448" data-name="Tracé 11448" d="M480.3,492.136,471.29,486.9l-9.427,5.443,9.008,5.235Z" transform="translate(-461.863 -486.901)" fill="#dcdcdc"/>
            </g>
          </g>
        </g>
      </g>
      <g id="Groupe_575" data-name="Groupe 575" transform="translate(43.791 39.957)">
        <g id="Groupe_574" data-name="Groupe 574" transform="translate(0 0)">
          <g id="Groupe_573" data-name="Groupe 573">
            <g id="Groupe_570" data-name="Groupe 570" transform="translate(9.008 5.235)">
              <path id="Tracé_11449" data-name="Tracé 11449" d="M628.548,612.67l.031,10.83L638,618.058l-.031-10.83Z" transform="translate(-628.548 -607.228)" fill="#898989"/>
            </g>
            <g id="Groupe_571" data-name="Groupe 571" transform="translate(0 5.442)">
              <path id="Tracé_11450" data-name="Tracé 11450" d="M674.427,613.272l-9.008-5.235.031,10.83,9.008,5.235Z" transform="translate(-665.419 -608.037)" fill="#c5c5c5"/>
            </g>
            <g id="Groupe_572" data-name="Groupe 572" transform="translate(0)">
              <path id="Tracé_11451" data-name="Tracé 11451" d="M647.1,591.984l-9.008-5.235-9.425,5.442,9.008,5.235Z" transform="translate(-628.668 -586.749)" fill="#dcdcdc"/>
            </g>
          </g>
        </g>
      </g>
    </g>
  </g>
</svg>
