<?xml version="1.0" encoding="utf-8"?>
<!-- Generator: Adobe Illustrator 23.0.3, SVG Export Plug-In . SVG Version: 6.00 Build 0)  -->
<svg version="1.1" id="Calque_1" xmlns="http://www.w3.org/2000/svg" xmlns:xlink="http://www.w3.org/1999/xlink" x="0px" y="0px"
	 viewBox="0 0 841.89 195.28" style="enable-background:new 0 0 841.89 195.28;" xml:space="preserve">
<style type="text/css">
	.st0{fill:#7B170F;}
	.st1{fill:#BD1818;}
	.st2{fill:#AA1916;}
	.st3{fill:#DF9901;}
	.st4{fill:#CA8C0B;}
	.st5{fill:#926814;}
	.st6{fill:#AB1917;}
	.st7{fill:#BC1818;}
	.st8{fill:#DCDCDC;}
	.st9{fill:#C6C5C5;}
	.st10{fill:#010202;}
	.st11{fill:#888989;}
	.st12{fill:none;}
	.st13{font-family:'FuturaStd-Book';}
	.st14{font-size:21px;}
	.st15{enable-background:new    ;}
</style>
<g id="Groupe_576" transform="translate(-386.602 -430.437)">
	<g id="Groupe_507" transform="translate(443.226 562.337)">
		<g id="Groupe_500" transform="translate(0 35.593)">
			<g id="Groupe_499">
				<g id="Groupe_490" transform="translate(5.277)">
					<g id="Groupe_485" transform="translate(0 12.407)">
						<path id="Tracé_11391" class="st0" d="M118.63-38.66l0.03,11.19l3.64-2.1l-0.03-11.19L118.63-38.66z"/>
					</g>
					<g id="Groupe_486" transform="translate(5.311 15.474)">
						<path id="Tracé_11392" class="st0" d="M107.14-38.15l0.03,11.19l6.18-3.57l-0.03-11.19L107.14-38.15z"/>
					</g>
					<g id="Groupe_487" transform="translate(0.046)">
						<path id="Tracé_11393" class="st1" d="M94.1-29.09l14.65,8.51l3.64-2.1l6.18-3.57l3.64-2.1l-14.65-8.51L94.1-29.09z"/>
					</g>
					<g id="Groupe_488" transform="translate(19.632 11.334)">
						<path id="Tracé_11394" class="st2" d="M74.52-40.42l0.03,11.19l14.65,8.51l-0.03-11.19L74.52-40.42z"/>
					</g>
					<g id="Groupe_489" transform="translate(14.32 20.675)">
						<path id="Tracé_11395" class="st0" d="M94.48-41.25l0.03,11.19l3.64-2.1l-0.03-11.19L94.48-41.25z"/>
					</g>
				</g>
				<g id="Groupe_494" transform="translate(0 12.407)">
					<g id="Groupe_491" transform="translate(0.046)">
						<path id="Tracé_11396" class="st3" d="M123.86-38.66l3.62,2.1l3.64-2.1l-3.62-2.1L123.86-38.66z"/>
					</g>
					<g id="Groupe_492" transform="translate(5.311 3.066)">
						<path id="Tracé_11397" class="st4" d="M118.6-41.72l0.03,11.19l3.62,2.1l-0.03-11.19L118.6-41.72z"/>
					</g>
					<g id="Groupe_493" transform="translate(0 3.067)">
						<path id="Tracé_11398" class="st5" d="M127.53-39.62l0.03,11.19l3.64-2.1l-0.03-11.19L127.53-39.62z"/>
					</g>
				</g>
				<g id="Groupe_498" transform="translate(14.32 20.675)">
					<g id="Groupe_495" transform="translate(0.046)">
						<path id="Tracé_11399" class="st3" d="M99.71-41.25l3.62,2.1l3.64-2.1l-3.62-2.1L99.71-41.25z"/>
					</g>
					<g id="Groupe_496" transform="translate(5.311 3.066)">
						<path id="Tracé_11400" class="st4" d="M94.45-44.32l0.03,11.19l3.62,2.1l-0.03-11.19L94.45-44.32z"/>
					</g>
					<g id="Groupe_497" transform="translate(0 3.067)">
						<path id="Tracé_11401" class="st5" d="M103.38-42.21l0.03,11.19l3.64-2.1l-0.03-11.19L103.38-42.21z"/>
					</g>
				</g>
			</g>
		</g>
		<g id="Groupe_506" transform="translate(24.138 0)">
			<g id="Groupe_505">
				<g id="Groupe_504">
					<g id="Groupe_501" transform="translate(10.074 5.854)">
						<path id="Tracé_11402" class="st6" d="M68.61-27.54l-0.08,28.5l4.9,2.83l0.08-28.5L68.61-27.54z"/>
					</g>
					<g id="Groupe_502" transform="translate(0 4.124)">
						<path id="Tracé_11403" class="st0" d="M83.51,5.53l6.91-4.02L90.5-27l-6.91,4.02L83.51,5.53z"/>
					</g>
					<g id="Groupe_503">
						<path id="Tracé_11404" class="st7" d="M83.59-18.85l6.91-4.02l-4.9-2.83l-6.91,4.02L83.59-18.85z"/>
					</g>
				</g>
			</g>
		</g>
	</g>
	<g id="Groupe_530" transform="translate(392.966 534.404)">
		<g id="Groupe_523" transform="translate(0 35.59)">
			<g id="Groupe_522">
				<g id="Groupe_513" transform="translate(5.277)">
					<g id="Groupe_508" transform="translate(0 12.407)">
						<path id="Tracé_11405" class="st0" d="M203.38-29.89l0.03,11.19l3.64-2.1L207.02-32L203.38-29.89z"/>
					</g>
					<g id="Groupe_509" transform="translate(5.311 15.474)">
						<path id="Tracé_11406" class="st0" d="M191.89-29.39l0.03,11.19l6.18-3.57l-0.03-11.19L191.89-29.39z"/>
					</g>
					<g id="Groupe_510" transform="translate(0.046)">
						<path id="Tracé_11407" class="st1" d="M178.85-20.33l14.65,8.51l3.65-2.1l6.18-3.57l3.64-2.1l-14.65-8.51L178.85-20.33z"/>
					</g>
					<g id="Groupe_511" transform="translate(19.632 11.334)">
						<path id="Tracé_11408" class="st2" d="M159.27-31.66l0.03,11.19l14.65,8.51l-0.03-11.19L159.27-31.66z"/>
					</g>
					<g id="Groupe_512" transform="translate(14.32 20.675)">
						<path id="Tracé_11409" class="st0" d="M179.23-32.49l0.03,11.19l3.64-2.1l-0.03-11.19L179.23-32.49z"/>
					</g>
				</g>
				<g id="Groupe_517" transform="translate(0 12.407)">
					<g id="Groupe_514" transform="translate(0.046)">
						<path id="Tracé_11410" class="st3" d="M208.61-29.89l3.62,2.1l3.64-2.1l-3.62-2.1L208.61-29.89z"/>
					</g>
					<g id="Groupe_515" transform="translate(5.311 3.066)">
						<path id="Tracé_11411" class="st4" d="M203.35-32.96l0.03,11.19l3.62,2.1l-0.03-11.19L203.35-32.96z"/>
					</g>
					<g id="Groupe_516" transform="translate(0 3.067)">
						<path id="Tracé_11412" class="st5" d="M212.28-30.85l0.03,11.19l3.64-2.1l-0.03-11.19L212.28-30.85z"/>
					</g>
				</g>
				<g id="Groupe_521" transform="translate(14.32 20.675)">
					<g id="Groupe_518" transform="translate(0.046)">
						<path id="Tracé_11413" class="st3" d="M184.46-32.49l3.62,2.1l3.64-2.1l-3.62-2.1L184.46-32.49z"/>
					</g>
					<g id="Groupe_519" transform="translate(5.311 3.066)">
						<path id="Tracé_11414" class="st4" d="M179.2-35.55l0.03,11.19l3.62,2.1l-0.03-11.19L179.2-35.55z"/>
					</g>
					<g id="Groupe_520" transform="translate(0 3.067)">
						<path id="Tracé_11415" class="st5" d="M188.13-33.45l0.03,11.19l3.64-2.1l-0.03-11.19L188.13-33.45z"/>
					</g>
				</g>
			</g>
		</g>
		<g id="Groupe_529" transform="translate(24.138 0)">
			<g id="Groupe_528">
				<g id="Groupe_527">
					<g id="Groupe_524" transform="translate(10.074 5.854)">
						<path id="Tracé_11416" class="st6" d="M153.36-18.78l-0.08,28.5l4.9,2.83l0.08-28.5L153.36-18.78z"/>
					</g>
					<g id="Groupe_525" transform="translate(0 4.124)">
						<path id="Tracé_11417" class="st0" d="M168.26,14.29l6.91-4.02l0.08-28.5l-6.91,4.02L168.26,14.29z"/>
					</g>
					<g id="Groupe_526">
						<path id="Tracé_11418" class="st7" d="M168.34-10.09l6.91-4.02l-4.9-2.83l-6.91,4.02L168.34-10.09z"/>
					</g>
				</g>
			</g>
		</g>
	</g>
	<g id="Groupe_548" transform="translate(386.602 430.437)">
		<g id="Groupe_547" transform="translate(0 0)">
			<g id="Groupe_546">
				<g id="Groupe_531" transform="translate(9.394 65.151)">
					<path id="Tracé_11419" class="st2" d="M210.82,21.76L165.19-4.76l0.03,9.4l45.63,26.52L210.82,21.76z"/>
				</g>
				<g id="Groupe_532" transform="translate(9.394 78.855)">
					<path id="Tracé_11420" class="st1" d="M210.84,17.46L165.22-9.06l-36.6,21.13l45.63,26.52L210.84,17.46z"/>
				</g>
				<g id="Groupe_533" transform="translate(18.706 60.733)">
					<path id="Tracé_11421" class="st1" d="M195.14,23.14L149.52-3.37l-23.91,13.8l45.63,26.52L195.14,23.14z"/>
				</g>
				<g id="Groupe_534" transform="translate(28.704 55.037)">
					<path id="Tracé_11422" class="st8" d="M178.28,24.93L132.66-1.58l-10.23,5.91l45.63,26.52L178.28,24.93z"/>
				</g>
				<g id="Groupe_535" transform="translate(18.706 20.704)">
					<path id="Tracé_11423" class="st2" d="M195.06,35.7L149.44,9.19l0.08,27.47l45.63,26.52L195.06,35.7z"/>
				</g>
				<g id="Groupe_536" transform="translate(28.704 37.909)">
					<path id="Tracé_11424" class="st9" d="M178.25,30.31L132.62,3.79l0.03,11.75l45.63,26.52L178.25,30.31z"/>
				</g>
				<g id="Groupe_537" transform="translate(28.753 37.909)">
					<path id="Tracé_11425" class="st10" d="M178.2,30.31L132.57,3.79L122.35,9.7l45.63,26.52L178.2,30.31z"/>
				</g>
				<g id="Groupe_538" transform="translate(43.611 46.515)">
					<path id="Tracé_11426" class="st10" d="M153.12,27.61L107.49,1.09l0.03,11.75l45.63,26.52L153.12,27.61z"/>
				</g>
				<g id="Groupe_539" transform="translate(18.706 59.343)">
					<path id="Tracé_11427" class="st11" d="M195.06-2.93l-23.9,13.8l0.08,27.47l23.9-13.8L195.06-2.93z M178.05,26.53l-0.03-11.75
						l10.23-5.91l0.03,11.75L178.05,26.53"/>
				</g>
				<g id="Groupe_540" transform="translate(28.704 76.548)">
					<path id="Tracé_11428" class="st10" d="M168.02-2.43l0.03,11.75l10.23-5.91l-0.03-11.75L168.02-2.43z"/>
				</g>
				<g id="Groupe_541" transform="translate(18.82 20.704)">
					<path id="Tracé_11429" class="st8" d="M194.95,35.7L149.32,9.19l-23.9,13.8l45.63,26.52L194.95,35.7z"/>
				</g>
				<g id="Groupe_542" transform="translate(53.542 40.817)">
					<path id="Tracé_11430" class="st9" d="M136.32,29.39L90.7,2.88l0.08,27.47l45.63,26.51L136.32,29.39z"/>
				</g>
				<g id="Groupe_543" transform="translate(0 38.639)">
					<path id="Tracé_11431" class="st0" d="M226.52,3.56l-49.45,28.55l0.16,56.82l49.45-28.55L226.52,3.56z M213.77,17.77
						l0.08,27.47l-23.91,13.8l-0.08-27.47L213.77,17.77 M183.64,78.8l-0.03-9.4l36.6-21.13l0.03,9.4L183.64,78.8"/>
				</g>
				<g id="Groupe_544" transform="translate(72.064 41.606)">
					<path id="Tracé_11432" class="st2" d="M105.01,29.15L59.38,2.63l0.16,56.82l45.63,26.52L105.01,29.15z"/>
				</g>
				<g id="Groupe_545" transform="translate(0.235)">
					<path id="Tracé_11433" class="st1" d="M226.29,42.2l-45.63-26.52l-49.45,28.55l45.63,26.52L226.29,42.2z"/>
				</g>
			</g>
		</g>
	</g>
	<g id="Groupe_563" transform="translate(477.235 522.291)">
		<g id="Groupe_562" transform="translate(0)">
			<g id="Groupe_561">
				<g id="Groupe_549" transform="translate(26.666 47.424)">
					<path id="Tracé_11434" class="st7" d="M24.74-23.99l4.15-2.41l-2.8-1.61l-4.15,2.41L24.74-23.99z"/>
				</g>
				<g id="Groupe_550" transform="translate(12.086 70.324)">
					<path id="Tracé_11435" class="st0" d="M49.31-26.37l4.15-2.41l0.02-6.42l-4.15,2.41L49.31-26.37z"/>
				</g>
				<g id="Groupe_551" transform="translate(16.124 49.775)">
					<path id="Tracé_11436" class="st7" d="M42.52-22.17l4.15-2.41l-7.23-4.18l-4.15,2.41L42.52-22.17z"/>
				</g>
				<g id="Groupe_552" transform="translate(18.096 50.936)">
					<path id="Tracé_11437" class="st6" d="M30.52-29.12l-0.04,14.74l12.82,7.4l0.02-6.42l0.02-8.31l-2.79-1.61l-7.23-4.18
						L30.52-29.12z"/>
				</g>
				<g id="Groupe_553" transform="translate(12.052 58.212)">
					<path id="Tracé_11438" class="st0" d="M49.36-20.68l4.15-2.41l0.02-8.31l-4.15,2.41L49.36-20.68z"/>
				</g>
				<g id="Groupe_554" transform="translate(12.052 55.861)">
					<path id="Tracé_11439" class="st7" d="M49.39-26.64l4.15-2.41l-2.79-1.61l-4.15,2.41L49.39-26.64z"/>
				</g>
				<g id="Groupe_555" transform="translate(6.044 61.725)">
					<path id="Tracé_11440" class="st6" d="M55.39-32.5l-0.02,8.31l8.27,4.77l0.02-8.31L55.39-32.5z"/>
				</g>
				<g id="Groupe_556" transform="translate(0 65.17)">
					<path id="Tracé_11441" class="st0" d="M69.69-22.86l4.15-2.41l0.02-8.31l-4.15,2.41L69.69-22.86z"/>
				</g>
				<g id="Groupe_557" transform="translate(0 58.212)">
					<path id="Tracé_11442" class="st7" d="M69.71-24.22l4.15-2.41l-8.27-4.77l-4.15,2.41L69.71-24.22z"/>
				</g>
				<g id="Groupe_558" transform="translate(22.027 3.513)">
					<path id="Tracé_11443" class="st6" d="M29.48-14.24l-0.1,34.16l7.23,4.18l0.1-34.16L29.48-14.24z"/>
				</g>
				<g id="Groupe_559" transform="translate(15.983)">
					<path id="Tracé_11444" class="st7" d="M42.76-6.55l4.15-2.41l-7.23-4.18l-4.15,2.41L42.76-6.55z"/>
				</g>
				<g id="Groupe_560" transform="translate(15.983 6.087)">
					<path id="Tracé_11445" class="st0" d="M42.66,21.52l4.15-2.41l0.1-34.16l-4.15,2.41L42.66,21.52z"/>
				</g>
			</g>
		</g>
	</g>
	<g id="Groupe_569" transform="translate(408.083 446.578)">
		<g id="Groupe_568" transform="translate(0 0)">
			<g id="Groupe_567">
				<g id="Groupe_564" transform="translate(0 5.854)">
					<path id="Tracé_11446" class="st11" d="M183.2,12.96l0.02,8.31l7.23-4.18l-0.02-8.31L183.2,12.96z"/>
				</g>
				<g id="Groupe_565" transform="translate(10.542 6.087)">
					<path id="Tracé_11447" class="st9" d="M172.66,12.73l-6.91-4.02l0.02,8.31l6.91,4.02L172.66,12.73z"/>
				</g>
				<g id="Groupe_566" transform="translate(0.034)">
					<path id="Tracé_11448" class="st8" d="M190.41,14.64l-6.91-4.02l-7.23,4.18l6.91,4.02L190.41,14.64z"/>
				</g>
			</g>
		</g>
	</g>
	<g id="Groupe_575" transform="translate(455.767 475.122)">
		<g id="Groupe_574" transform="translate(0 0)">
			<g id="Groupe_573">
				<g id="Groupe_570" transform="translate(0 5.854)">
					<path id="Tracé_11449" class="st11" d="M102.8,4l0.02,8.31l7.23-4.18l-0.02-8.31L102.8,4z"/>
				</g>
				<g id="Groupe_571" transform="translate(10.54 6.086)">
					<path id="Tracé_11450" class="st9" d="M92.26,3.77l-6.91-4.02l0.02,8.31l6.91,4.02L92.26,3.77z"/>
				</g>
				<g id="Groupe_572" transform="translate(0.034)">
					<path id="Tracé_11451" class="st8" d="M110,5.68l-6.91-4.02l-7.23,4.18l6.91,4.02L110,5.68z"/>
				</g>
			</g>
		</g>
	</g>
</g>
<rect x="330.07" y="48.59" class="st12" width="426.25" height="90.05"/>
<text transform="matrix(1 0 0 1 330.0734 65.9184)" class="st13 st14">Vous devrez être courageux car votre par</text>
<text transform="matrix(1 0 0 1 709.2734 65.9184)" class="st13 st14">-</text>
<text transform="matrix(1 0 0 1 330.0734 91.1184)" class="st13 st14">cours est plein de dangers et de monstres  :  </text>
<rect x="330.07" y="98.72" class="st12" width="443.74" height="111.01"/>
<text transform="matrix(1 0 0 1 330.0734 116.1504)" class="st15"><tspan x="0" y="0" class="st13 st14">utilisez vos shurikens pour ne pas vous faire </tspan><tspan x="0" y="25.2" class="st13 st14">tuer. </tspan></text>
</svg>
