<?xml version="1.0" encoding="utf-8"?>
<!-- Generator: Adobe Illustrator 23.0.3, SVG Export Plug-In . SVG Version: 6.00 Build 0)  -->
<!DOCTYPE svg PUBLIC "-//W3C//DTD SVG 1.1//EN" "http://www.w3.org/Graphics/SVG/1.1/DTD/svg11.dtd" [
	<!ENTITY ns_extend "http://ns.adobe.com/Extensibility/1.0/">
	<!ENTITY ns_ai "http://ns.adobe.com/AdobeIllustrator/10.0/">
	<!ENTITY ns_graphs "http://ns.adobe.com/Graphs/1.0/">
	<!ENTITY ns_vars "http://ns.adobe.com/Variables/1.0/">
	<!ENTITY ns_imrep "http://ns.adobe.com/ImageReplacement/1.0/">
	<!ENTITY ns_sfw "http://ns.adobe.com/SaveForWeb/1.0/">
	<!ENTITY ns_custom "http://ns.adobe.com/GenericCustomNamespace/1.0/">
	<!ENTITY ns_adobe_xpath "http://ns.adobe.com/XPath/1.0/">
]>
<svg version="1.1" id="Calque_1" xmlns:x="&ns_extend;" xmlns:i="&ns_ai;" xmlns:graph="&ns_graphs;"
	 xmlns="http://www.w3.org/2000/svg" xmlns:xlink="http://www.w3.org/1999/xlink" x="0px" y="0px" viewBox="0 0 841.9 195.3"
	 style="enable-background:new 0 0 841.9 195.3;" xml:space="preserve">
<style type="text/css">
	.st0{fill:#FBFAF8;}
	.st1{fill:#EEE8E0;}
	.st2{fill:#F4F4F0;}
	.st3{fill:#F1F3EF;}
	.st4{fill:#F0F2EE;}
	.st5{fill:#EFE9E2;}
	.st6{fill:#F2F0F0;}
	.st7{fill:#F1ECE5;}
	.st8{fill:#FAF7F6;}
	.st9{fill:#6CAA59;}
	.st10{fill:#FFFDFB;}
	.st11{fill:#BBAD8C;}
	.st12{fill:#F5F2F2;}
	.st13{fill:#FBF9F9;}
	.st14{fill:#F4F6F3;}
	.st15{fill:#489C35;}
	.st16{fill:#57A232;}
	.st17{fill:#F5F7F3;}
	.st18{fill:#ECF0E7;}
	.st19{fill:#E4E5DC;}
	.st20{fill:#377430;}
	.st21{fill:#EFF2EF;}
	.st22{fill:#FBF5F2;}
	.st23{fill:#FFFDF8;}
	.st24{fill:#549D3D;}
	.st25{fill:#FAF4F8;}
	.st26{fill:#F7F6EE;}
	.st27{fill:#5BA237;}
	.st28{fill:#F6F6EF;}
	.st29{fill:#F8EAEC;}
	.st30{fill:#F8FAF2;}
	.st31{fill:#E9F0E9;}
	.st32{fill:#AFCD96;}
	.st33{fill:#FCFAFA;}
	.st34{fill:#FAFAF9;}
	.st35{fill:#D4CDB1;}
	.st36{fill:#DAD5C0;}
	.st37{fill:#B4AB89;}
	.st38{fill:#99966D;}
	.st39{fill:#B8B597;}
	.st40{fill:#A39C74;}
	.st41{fill:#C3BA99;}
	.st42{fill:#9C9975;}
	.st43{fill:#EAE7D9;}
	.st44{fill:#D0CBB2;}
	.st45{fill:#AFA488;}
	.st46{fill:#AD9F75;}
	.st47{fill:#EBE5DD;}
	.st48{fill:#F0EAE2;}
	.st49{fill:#E8E2D8;}
	.st50{fill:#56A133;}
	.st51{fill:#63AA45;}
	.st52{fill:#38341C;}
	.st53{fill:#63A648;}
	.st54{fill:#5F5939;}
	.st55{fill:#6EAC5A;}
	.st56{fill:#62A146;}
	.st57{fill:#3A5429;}
	.st58{fill:#3F7238;}
	.st59{fill:#336C2D;}
	.st60{fill:#3D4124;}
	.st61{fill:#77B468;}
	.st62{fill:#74B167;}
	.st63{fill:#CDC3A2;}
	.st64{fill:#D0C8A5;}
	.st65{fill:#94863F;}
	.st66{fill:#968949;}
	.st67{fill:#494021;}
	.st68{fill:#423B1F;}
	.st69{fill:#444623;}
	.st70{fill:#453A1F;}
	.st71{fill:#AE9F73;}
	.st72{fill:#635829;}
	.st73{fill:#4B431C;}
	.st74{fill:#615C30;}
	.st75{fill:#537442;}
	.st76{fill:#423B19;}
	.st77{fill:#5D6429;}
	.st78{fill:#E1DCCD;}
	.st79{fill:#7FB673;}
	.st80{fill:#88BB7C;}
	.st81{fill:#75A864;}
	.st82{fill:#282819;}
	.st83{fill:#55A238;}
	.st84{fill:#2F6029;}
	.st85{fill:#54A233;}
	.st86{fill:#E4DFCE;}
	.st87{fill:#E5E0D2;}
	.st88{fill:#579F36;}
	.st89{fill:#60A644;}
	.st90{fill:#282F1B;}
	.st91{fill:#8C7E45;}
	.st92{fill:#716531;}
	.st93{fill:#847A3A;}
	.st94{fill:#D4CFAD;}
	.st95{fill:#B2AB96;}
	.st96{fill:#8E8666;}
	.st97{fill:#FFFDF6;}
	.st98{fill:#858163;}
	.st99{fill:#D2C9B0;}
	.st100{fill:#B7AF8C;}
	.st101{fill:#D3CCB6;}
	.st102{fill:#AFA684;}
	.st103{fill:#AEA67E;}
	.st104{fill:#B6B28D;}
	.st105{fill:#D4CAB6;}
	.st106{fill:#B7AF87;}
	.st107{fill:#CFC5AA;}
	.st108{fill:#A09772;}
	.st109{fill:#B7B19C;}
	.st110{fill:#CCC3A7;}
	.st111{fill:#DBD6C1;}
	.st112{fill:#C6BFA2;}
	.st113{fill:#908C68;}
	.st114{fill:#ACA277;}
	.st115{fill:#847B52;}
	.st116{fill:#C5BA99;}
	.st117{fill:#DCD5C8;}
	.st118{fill:#B7B299;}
	.st119{fill:#867D53;}
	.st120{fill:#8A8158;}
	.st121{fill:#74684A;}
	.st122{fill:#857950;}
	.st123{fill:#887A3A;}
	.st124{fill:#EBE6D7;}
	.st125{fill:#EEE4D9;}
	.st126{fill:#594D22;}
	.st127{fill:#3E4E1F;}
	.st128{fill:#435823;}
	.st129{fill:#489A35;}
	.st130{fill:#53A033;}
	.st131{fill:#408F35;}
	.st132{fill:#535A2B;}
	.st133{fill:#61471C;}
	.st134{fill:#59A336;}
	.st135{fill:#3F381D;}
	.st136{fill:#675F3F;}
	.st137{fill:#3A331D;}
	.st138{fill:#453D1F;}
	.st139{fill:#3F2F18;}
	.st140{fill:#3E5026;}
	.st141{fill:#6B6242;}
	.st142{fill:#675A3B;}
	.st143{fill:#6A5D3F;}
	.st144{fill:#5C4F35;}
	.st145{fill:#446531;}
	.st146{fill:#2A4F24;}
	.st147{fill:#2A2618;}
	.st148{fill:#30331D;}
	.st149{fill:#2A4B22;}
	.st150{fill:#525028;}
	.st151{fill:#524E26;}
	.st152{fill:#56592F;}
	.st153{fill:#5F6D38;}
	.st154{fill:#4D4725;}
	.st155{fill:#6EAA5E;}
	.st156{fill:#776C33;}
	.st157{fill:#7D7036;}
	.st158{fill:#817338;}
	.st159{fill:#C7BD9B;}
	.st160{fill:#83773C;}
	.st161{fill:#8F813D;}
	.st162{fill:#887F4C;}
	.st163{fill:#D6CBB0;}
	.st164{fill:#C2BB97;}
	.st165{fill:#807240;}
	.st166{fill:#CECBA5;}
	.st167{fill:#908138;}
	.st168{fill:#8B7D3C;}
	.st169{fill:#4E4724;}
	.st170{fill:#4C4421;}
	.st171{fill:#807754;}
	.st172{fill:#4B4421;}
	.st173{fill:#79704E;}
	.st174{fill:#605736;}
	.st175{fill:#4F4726;}
	.st176{fill:#716848;}
	.st177{fill:#62562C;}
	.st178{fill:#5C5126;}
	.st179{fill:#4F4C25;}
	.st180{fill:#53461C;}
	.st181{fill:#59451F;}
	.st182{fill:#BFB695;}
	.st183{fill:#5E5329;}
	.st184{fill:#5B4D29;}
	.st185{fill:#545229;}
	.st186{fill:#252116;}
	.st187{fill:#605024;}
	.st188{fill:#413928;}
	.st189{fill:#23321B;}
	.st190{fill:#2D5E29;}
	.st191{fill:#272719;}
	.st192{fill:#282016;}
	.st193{fill:#B3AA88;}
	.st194{fill:#CBC1A0;}
	.st195{fill:#C9C3A2;}
	.st196{fill:#83783E;}
	.st197{fill:#E6E0D7;}
	.st198{fill:#3A3E27;}
	.st199{fill:#7A6D34;}
	.st200{fill:#63582D;}
	.st201{fill:#6B602E;}
	.st202{fill:#6D622F;}
	.st203{fill:#665A2B;}
	.st204{fill:#61552A;}
	.st205{fill:#746934;}
	.st206{fill:#C6BD9B;}
	.st207{fill:#BEB593;}
	.st208{fill:#B3AB84;}
	.st209{fill:#D0C7AD;}
	.st210{fill:#A89E7B;}
	.st211{fill:#D3CCB5;}
	.st212{fill:#BBB290;}
	.st213{fill:#C7BD9C;}
	.st214{fill:#CAC0A4;}
	.st215{fill:#C8BE9D;}
	.st216{fill:#9B916C;}
	.st217{fill:#C3BD9E;}
	.st218{fill:#CCC2A2;}
	.st219{fill:#ADA379;}
	.st220{fill:#665B30;}
	.st221{fill:#635637;}
	.st222{fill:#5B5036;}
	.st223{fill:#60553D;}
	.st224{fill:#675C43;}
	.st225{fill:#6C6241;}
	.st226{fill:#908561;}
	.st227{fill:#C6BCA0;}
	.st228{fill:#80774E;}
	.st229{fill:#837A51;}
	.st230{fill:#7C7252;}
	.st231{fill:#837A50;}
	.st232{fill:#898157;}
	.st233{fill:#898057;}
	.st234{fill:#84764E;}
	.st235{fill:#877E56;}
	.st236{fill:#8B815C;}
	.st237{fill:#6F6645;}
	.st238{fill:#857738;}
	.st239{fill:#ECE6E2;}
	.st240{fill:#574920;}
	.st241{fill:#5A4A1B;}
	.st242{fill:#495326;}
	.st243{fill:#525020;}
	.st244{fill:#4F441E;}
	.st245{fill:#3E5824;}
	.st246{fill:#3D361B;}
	.st247{fill:#6F6646;}
	.st248{fill:#38321D;}
	.st249{fill:#50492F;}
	.st250{fill:#312A19;}
	.st251{fill:#2E2718;}
	.st252{fill:#463F2C;}
	.st253{fill:#5C5127;}
	.st254{fill:#574825;}
	.st255{fill:#514926;}
	.st256{fill:#594D2A;}
	.st257{fill:#796D35;}
	.st258{fill:#7A6E34;}
	.st259{fill:#7E7035;}
	.st260{fill:#827436;}
	.st261{fill:#766B33;}
	.st262{fill:#C2B997;}
	.st263{fill:#BBB28F;}
	.st264{fill:#796E3D;}
	.st265{fill:#544C28;}
	.st266{fill:#524A27;}
	.st267{fill:#857B5A;}
	.st268{fill:#928765;}
	.st269{fill:#746B4B;}
	.st270{fill:#887F5C;}
	.st271{fill:#4F4724;}
	.st272{fill:#6B623C;}
	.st273{fill:#5E5327;}
	.st274{fill:#62572D;}
	.st275{fill:#C7BC95;}
	.st276{fill:#5C512C;}
	.st277{fill:#5C4F2B;}
	.st278{fill:#2B2517;}
	.st279{fill:#71632F;}
	.st280{fill:#6D6133;}
	.st281{fill:#AFA67F;}
	.st282{fill:#7D723E;}
	.st283{fill:#706538;}
	.st284{fill:#ACA27B;}
	.st285{fill:#716633;}
	.st286{fill:#665B2B;}
	.st287{fill:#796D3E;}
	.st288{fill:#695E2B;}
	.st289{fill:#7F7442;}
	.st290{fill:#685D2C;}
	.st291{fill:#D3C8B4;}
	.st292{fill:#5D5228;}
	.st293{fill:#605429;}
	.st294{fill:#60592A;}
	.st295{fill:#686034;}
	.st296{fill:#938965;}
	.st297{fill:#968C66;}
	.st298{fill:#B1A57E;}
	.st299{fill:#37301B;}
	.st300{fill:#2E2819;}
	.st301{fill:#B3A880;}
	.st302{fill:#67593B;}
	.st303{fill:#7D734B;}
	.st304{fill:#6B6140;}
	.st305{fill:#8F855F;}
	.st306{fill:#7F7149;}
	.st307{fill:#81734B;}
	.st308{fill:#82744B;}
	.st309{fill:#786E4D;}
	.st310{fill:#7E764D;}
	.st311{fill:#6B5E40;}
	.st312{fill:#7D7047;}
	.st313{fill:#4A422E;}
	.st314{fill:#3B341D;}
	.st315{fill:#6A603A;}
	.st316{fill:#594D29;}
	.st317{fill:#5C4F2C;}
	.st318{fill:#71672A;}
	.st319{fill:#BFB694;}
	.st320{fill:#C4BCA6;}
	.st321{fill:#6E6228;}
	.st322{fill:#706340;}
	.st323{fill:#695F39;}
	.st324{fill:#918661;}
	.st325{fill:#72663E;}
	.st326{fill:#5B4F2C;}
	.st327{fill:#675B2E;}
	.st328{fill:#60532D;}
	.st329{fill:#5A4D29;}
	.st330{fill:#B7AC85;}
	.st331{fill:#322B1A;}
	.st332{fill:#7D7048;}
	.st333{fill:#6C633F;}
	.st334{fill:none;}
	.st335{font-family:'FuturaStd-Book';}
	.st336{font-size:21px;}
</style>
<metadata>
	<sfw  xmlns="&ns_sfw;">
		<slices></slices>
		<sliceSourceBounds  bottomLeftOrigin="true" height="139.9" width="683.3" x="99.8" y="35.5"></sliceSourceBounds>
	</sfw>
</metadata>
<g id="Groupe_473" transform="translate(0 0)">
	<path id="Tracé_9027" class="st0" d="M219.1,51.8c1.2,1.1,0.7,2.6,0.8,3.9c0.2,4.8,4.1,7.9,8.9,6.8c1.6-0.4,3.2-0.9,4.9-0.7
		c1,0.1,2.8,0,0.8,1.7c-0.4,0.4-0.1,0.9,0.8,0.7c1-0.3,1.9-0.7,2.9-1.1c-0.9,4.3-1.2,8.4,0,12.4c0.8,2.7-1.3,5-1.4,7.4
		c-0.2,5.6-0.9,11.3,0.4,16.9c0.2,1.2,0.3,2.5,0.2,3.7c0,7.7-0.5,15.4,0.2,22.9c0.5,4.6-0.9,9.2,0.3,13.8c0.2,0.9-0.6,1.1-1.4,1.1
		c-0.7-0.1-2.1,0.4-1.7-0.9c0.7-2.3-1.3-1.8-1.5-1.3c-1.8,3.5-5.2,0.9-7.5,2.2c-0.9-2.1,0.6-3.3,1.9-2.7c2.2,1,1.1-1.4,2-1.5
		c3-1.3,5.1-3.1,3.3-6.7c-0.2-17.9,0-35.8-0.1-53.7c0.1-2.2,0-4.4-0.1-6.6c-1-3.1-4.3-2.9-6.4-4.4c-2.4-1.5-5.2-2.1-7.1-4.4
		C217.7,58.1,217.3,55,219.1,51.8z"/>
	<path id="Tracé_9028" class="st1" d="M181.8,23.6c4.3-1.7,8.2-4.9,13.3-3.3c2.2,0.7,4.5,0.8,6.6,2c0.3,0.2,0.6,0.5,0.9,0.7
		c1.1,1.2,1.8,2.4,0.2,3.7c1.6,0.4,3,1.5,3.8,3c0.6,1,1,2,0.3,3.1c-4,0.3-6.9-1.8-9.4-4.5c-1.3-1.4-2.3-3-4.3-3.4
		c-3.2,0.4-6.4-0.6-9.7-0.3C182.8,24.4,182.2,24.1,181.8,23.6z"/>
	<path id="Tracé_9029" class="st2" d="M141.2,158.7c-1.2,1.4-2.9,1.2-4.2,0.6c-3.9-1.7-7.8-0.1-11.7-0.2c-7.2-0.1-7.2,0.5-8.1-6.2
		c-0.2-0.8,0.3-1.2,0.9-1.4c4.6,0.3,8.6,2.9,13,3.9c1.6,1,3.5,1.6,5.4,1.7c0.4,0.1,0.7,0.2,1.1,0.3
		C138.7,157.9,140.2,157.6,141.2,158.7z"/>
	<path id="Tracé_9030" class="st3" d="M188.4,152.9c-3.9,0.9-7.9,1.6-11.8,2.7c-1.8,0.5-3.4,0.9-5-0.6l1.9-0.8
		c-3.9-3.2-8.4-0.6-12.5-1.3c-0.2-0.3-0.2-0.7,0-1c0.8-0.9,2.1-1.4,2.9-2.3c0.4-0.4,0.9-0.6,1.5-0.7c2,0,3.6,1.2,5.4,1.7
		c1.1,0.6,2.3,1,3.5,1.4c0.8,0.3,1.7,0.5,2.6,0.6c0.5,0,1.1,0,1.6,0c0.4,0,0.7-0.1,1.1-0.1c1.9-0.2,3.7-0.7,5.5-1.4
		c3.1-1.4,6.5-2.1,9.8-3c0.4-0.1,0.8,0,1.2,0.1c1.5,2.4-0.7,2.6-2,3.2C192.4,152.5,190.3,152.1,188.4,152.9z"/>
	<path id="Tracé_9031" class="st4" d="M220.9,140.7c-1.4,0.8-3,1.3-3.4,3.1c-1.6,0.4-3.3-0.9-4.9,0c-0.4,0.7-1,1.2-1.7,1.6
		c-2.4,0.4-4.6,2.6-7.4,0.9c-0.2-0.1-0.4-0.4-0.4-0.6c0-0.3,0-0.4,0.1-0.4c1.1-1.3,2.8-1.5,4.3-2.1c1.1-0.2,2.3-0.6,3.3-1
		c2.9-1.3,5.8-2.8,9.2-2.3C220.4,140,220.7,140.3,220.9,140.7z"/>
	<path id="Tracé_9032" class="st5" d="M219.1,51.8c0.1,3.3-0.4,6.6,0.8,9.8c-0.2,0-0.5,0.1-0.8,0.2c-0.8-0.2-1.4-0.8-1.7-1.5
		c-0.7-10-0.7-20.1,0.1-30.1c1.7-2.2,1.7,0.1,2.4,0.9c-1.7,5.1-0.4,10.3-0.8,15.4C219,48.2,219.1,50,219.1,51.8z"/>
	<path id="Tracé_9033" class="st6" d="M188.4,152.9c1.8-1.5,4.2-1.6,6.2-2.5c0.8-0.3,2.1-0.3,1.3-1.7c-0.3-0.3-0.2-0.8,0.1-1.1
		c0,0,0,0,0.1-0.1c1.8-0.8,3.6-1.9,5.6-0.4c-0.8,1.2-2.3,1.2-3.4,1.9c0.7,1.6,3.1-1.2,3.4,1.3c-0.6,0.7-1.6,1-2.5,0.8
		C195.9,152.8,192.1,153.3,188.4,152.9z"/>
	<path id="Tracé_9034" class="st7" d="M208.4,25.2c0.6,1,1.6,0.8,2.5,0.8c1.1,1.6,3.1,1.7,4.3,3.1c0.1,0.4,0.2,0.7,0,1.1
		c-0.2,0.3-0.6,0.5-0.9,0.6c-1.2,0.3-2.5,0.5-3.5,1.3c-0.3,0.2-0.7,0.3-1.1,0.3c-1.1,0.1-2.2-0.7-2.3-1.9c-0.2-1.2-0.8-1.8-1.7-2.7
		c-2.1-2-0.1-2.6,1.6-3.1C207.7,24.9,208.1,25,208.4,25.2z"/>
	<path id="Tracé_9035" class="st8" d="M215,29.4c-1.5-1-4.6,0.1-4.2-3.3c2.8-1.2,5.4,0.8,8.3,0.7c1.5-0.1,0.5,2.8,0.8,4.3
		c-0.6-0.6-1.1-1.1-1.6-1.7C217.4,30.3,215.9,30.3,215,29.4z"/>
	<path id="Tracé_9036" class="st9" d="M201.7,147.2l-5.7,1.1c-1.1,0-1.3-0.6-1.3-1.5c0.2-0.8,0.9-1.2,1.5-1.7
		c0.4-0.4,0.9-0.7,1.3-1c1.3-0.9,2.2-2.8,4.3-2.2c1,0.6,1.8,1.6,2,2.8c0,0.4-0.1,0.8-0.3,1.1c0,0.2,0,0.4,0,0.6
		C202.9,146.6,202.3,146.9,201.7,147.2z"/>
	<path id="Tracé_9037" class="st10" d="M208.4,25.2h-0.8c-2.4,1.1-3.8-1.4-5.8-1.7c0-0.3,0-0.5,0-0.8c-1-1-3.2-0.3-3.3-2.5
		C203.3,19.2,206.4,20.7,208.4,25.2z"/>
	<path id="Tracé_9038" class="st11" d="M113.6,141.3c0.1-6.9,0.1-13.9,0.1-20.8c0-1.8,0-3.4,2.4-3.3c0.1,0.2,0.3,0.3,0.4,0.4
		c0,0.4,0,0.8-0.2,1.2c-1,1.7-0.6,3.5-0.6,5.3c0,3.5,0,6.9,0,10.4c0,2.1,0,4.2,0,6.3c0,0.9-0.1,1.9-0.3,2.8
		c-0.1,0.4-0.4,0.9-0.7,1.2c-0.8,0.3-1.3-0.2-1.6-0.9C112.9,143,113,142,113.6,141.3z"/>
	<path id="Tracé_9039" class="st12" d="M113.6,141.3l0.2,2.5c-0.7,1.3,0.2,2.4,0.5,3.6c0.2,0.8-0.3,1.6-1.1,1.8
		c-0.8,0.1-1.6-0.4-1.8-1.2c-1.1-1.4-0.6-3.1-0.6-4.6C110.6,142,111.2,139.9,113.6,141.3z"/>
	<path id="Tracé_9040" class="st13" d="M166.8,50.1h-0.4h-0.4c0-5.9,0-11.8,0-17.7c0-1.3-0.4-2.8,0.8-3.9c0.2,0.2,0.3,0.4,0.5,0.5
		c1,2.1,0.5,4.4,0.6,6.7c0,3.4,0,6.8,0,10.2C168,47.4,168.1,49,166.8,50.1z"/>
	<path id="Tracé_9041" class="st14" d="M230,137.3c-0.7,0.7,0.8,3.3-2.1,2c-1.4-0.7-1.9,0.8-2.1,2.1c-1.5-1.2-3.3-0.1-4.9-0.7
		l-0.2-0.2c-0.2-0.3-0.2-0.7,0-1c1-0.8,2.1-1.5,3.4-1.9c0.5-0.2,1.1-0.3,1.6-0.4c1.3,0,2.5-0.7,3.8-0.2L230,137.3z"/>
	<path id="Tracé_9042" class="st15" d="M147.8,156.1c-0.2,0.1-0.5,0.2-0.8,0.2c-1.1,0.5-2.4,0.6-3.6,1.1c-1,0-2.2,0.4-2.7-0.9
		c-0.3-0.8,0-1.7,0.6-2.2c1.2-0.6,2.5-1.1,3.8-1.6c0.6-0.1,1.2,0.1,1.6,0.5C147.5,154,148.8,154.7,147.8,156.1z"/>
	<path id="Tracé_9043" class="st16" d="M147.8,156.1c0.1-1.2-1.2-1.5-1.6-2.4c0.2-0.5,0.6-1,1-1.4c1.2-0.7,2.4-1.2,3.8-0.6
		c1.2,1.1,0.8,2.3,0.3,3.6C150.2,155.9,149.1,156.6,147.8,156.1z"/>
	<path id="Tracé_9044" class="st17" d="M210.8,145.5c0.3-0.8,0.9-1.4,1.7-1.6c1,1.7,3.2,1.2,4.8,2.5c-2.1,1.5-4.3,0.5-6.2,0.9
		c-0.5-1.5,1.7-0.3,1.3-1.5C212.2,145.5,211.4,145.5,210.8,145.5z"/>
	<path id="Tracé_9045" class="st13" d="M169.4,27.7c2.2-2.5,5.4-2.5,8.3-3.3c0.3,0.3,0.4,0.6,0.4,1c-0.1,0.4-0.3,0.7-0.6,1
		c-1,0.6-2.2,0.7-3.2,1.2c-1.5,0.6-2.9,1.3-4.5,0.5C169.6,28,169.5,27.9,169.4,27.7z"/>
	<path id="Tracé_9046" class="st3" d="M178.5,158.7c-0.2-0.6-0.8-1.1-0.4-1.9c1.6,1.2,4.2-2.5,5.4,1
		C181.9,158.9,180.4,159.6,178.5,158.7z"/>
	<path id="Tracé_9047" class="st18" d="M161.2,152.2c0,0.2-0.1,0.5-0.1,0.7c-1.5,0.4-3,0.5-4.1,1.6c-0.4,0.5-1.2,0.5-1.7,0.1
		c-1,0.6-2.2,0.8-3.4,0.7c-0.1-1.6,1.3-1.8,2.3-2.4c1.4-0.5,2.9-1,4.4-1.4c0.8-0.2,1.6-0.2,2.3,0.2
		C160.9,151.9,161.1,152.1,161.2,152.2z"/>
	<path id="Tracé_9048" class="st19" d="M177.7,25.2c0-0.3,0-0.5,0-0.8c1.4-0.3,2.8-0.6,4.1-0.8l1.7,0c0.7,0.7,0.7,1.8,0.2,2.6
		C181.5,27.1,179.5,26.5,177.7,25.2z"/>
	<path id="Tracé_9049" class="st20" d="M154.4,153.6c-0.8,0.7-2.1,0.6-2.5,1.8l-0.4,0l-0.3-0.1c-0.9-1,0.1-2.1-0.2-3.1
		c-0.2-0.3-0.1-0.7,0.2-1c1.2,0.1,2.5,0.4,3.5,1C155,152.6,154.8,153.3,154.4,153.6z"/>
	<path id="Tracé_9050" class="st21" d="M118.2,152l-1.1,1l-4.1-0.8c-0.2,0.2-0.5,0.3-0.7,0.1c-0.1,0-0.1-0.1-0.1-0.1l0.8-1.6
		c0.2-0.1,0.3-0.2,0.5-0.4C115.2,150.3,117.3,149.7,118.2,152z"/>
	<path id="Tracé_9051" class="st22" d="M198.4,20.3l3.3,2.5c-2.5,0-4.5-1.4-6.6-2.5H198.4z"/>
	<path id="Tracé_9052" class="st23" d="M122.1,110.7c-0.8,1-2,1.6-3.3,1.7c-1.2-0.3-2.2-0.8-0.4-1.5
		C119.5,110.4,120.9,110.7,122.1,110.7z"/>
	<path id="Tracé_9053" class="st24" d="M141.2,158.7c-1.4-0.2-3,0.9-4.2-0.6c-0.1-0.8,0.2-1.5,0.8-2c0.3-0.1,0.7-0.2,1.1-0.1
		c1.1,0.6,2.2,1.2,3.2,2L141.2,158.7z"/>
	<path id="Tracé_9054" class="st25" d="M178.5,158.7l5-0.8C182.2,160.8,180.4,159.6,178.5,158.7z"/>
	<path id="Tracé_9055" class="st26" d="M199.2,151.3c0.6-1,1.6-0.8,2.5-0.8c-0.1,1-0.3,1.9-1.4,2.1
		C199.4,152.8,199.4,151.9,199.2,151.3z"/>
	<path id="Tracé_9056" class="st27" d="M142.1,157.9c-1.3,0.2-2.5-0.3-3.4-1.3c0.5-1.2,1.4-1,2.3-0.6c0.5,1.1,1.5,1.1,2.5,1.1
		c0.3,0.1,0.4,0.3,0.3,0.5c-0.1,0.2-0.1,0.3-0.2,0.3L142.1,157.9z"/>
	<path id="Tracé_9057" class="st28" d="M153.1,158.6c0.1,0.8-0.6,0.8-1.1,0.9c-0.6,0.1-1.2,0-1.3-0.6c-0.2-0.8,0.5-0.8,1.1-0.9
		C152.4,157.8,152.9,158.1,153.1,158.6z"/>
	<path id="Tracé_9058" class="st29" d="M155.3,154.7l1.7-0.1c0.8,0.1,1.7-0.3,2.2,0.8C157.7,156.1,156.3,156.7,155.3,154.7z"/>
	<path id="Tracé_9059" class="st13" d="M166.9,28.6c0.3-0.9,0.4-2.4,1-2.6c1-0.4,0.4,1.6,1.5,1.8l0,0
		C169.1,29.6,168.1,29.2,166.9,28.6L166.9,28.6z"/>
	<path id="Tracé_9060" class="st30" d="M122.9,80.8h0.8v4.8l-0.8,0V80.8z"/>
	<path id="Tracé_9061" class="st11" d="M117.2,115.9l3.2-0.3c0.4,1.4-0.8,1.7-1.7,2.2c-0.8,0.3-1.7,0.1-2.4-0.4l-0.2-0.2
		C116.5,116.7,116.9,116.3,117.2,115.9z"/>
	<path id="Tracé_9062" class="st31" d="M111.3,148l1.8,0.9c0.4,0.4,0.4,1,0.1,1.4c-0.1,0.1-0.2,0.2-0.3,0.3
		C111.6,150.2,110,150,111.3,148z"/>
	<path id="Tracé_9063" class="st32" d="M143.6,157.8c0-0.3-0.1-0.5-0.1-0.8c1-1,2.3-0.8,3.6-0.7C146,157.2,145,157.9,143.6,157.8z"
		/>
	<path id="Tracé_9064" class="st33" d="M100.9,33.6c-0.7,0.3-1,0-1-0.4c0-0.6,0.2-1.1,0.9-1.2c0.3,0,0.6,0.3,0.9,0.4L100.9,33.6z"
		/>
	<path id="Tracé_9065" class="st34" d="M112.2,152.1h0.8c-0.1,0.8-0.3,1.7-1.4,1.5c-0.3,0-0.5-0.5-0.7-0.8L112.2,152.1z"/>
	<path id="Tracé_9066" class="st4" d="M217.4,143.8c0.8,0.2,2-0.3,2.1,0.7c0.1,1.1-0.8,0.7-1.3,0.3
		C217.9,144.5,217.6,144.2,217.4,143.8z"/>
	<path id="Tracé_9067" class="st35" d="M233.4,68.2c1.2,1.4,0.7,3.2,0.7,4.8c0.1,19.8,0.1,39.5,0.1,59.2c0.1,1.1,1.2,2.6-1.2,2.3
		c-0.5-0.6-0.8-1.4-0.8-2.1c-0.2-9.1,0-18.3-0.1-27.4c0-4.2,0-8.3,0-12.5c0.2-7.7-0.4-15.4,0.4-23.1
		C232.6,68.9,232.9,68.5,233.4,68.2z"/>
	<path id="Tracé_9068" class="st35" d="M226.6,65c2.3,0.9,4.9,1.3,6.7,3.2l-0.2,0.3c-1.3,1.1-3,1.7-4.7,1.7
		c-3.7-0.1-3.2-2.7-2.9-5.1c0.2-0.3,0.6-0.4,0.9-0.2C226.5,64.9,226.6,65,226.6,65z"/>
	<path id="Tracé_9069" class="st14" d="M233.3,134.7c1-0.6,0.7-1.6,0.9-2.4c2.1,4.6-2,4-4.2,5l-0.2-0.2c-0.2-0.7,0.2-1.5,0.8-1.9
		C231.4,134.7,232.4,134.5,233.3,134.7z"/>
	<path id="Tracé_9070" class="st36" d="M226.6,65l-0.9,0c-1.2,1-2.3,0.2-3.4-0.2c-1.1-0.8-2.7-1.1-2.4-3l0-0.2
		C222.3,62.4,224.7,63.4,226.6,65z"/>
	<path id="Tracé_9071" class="st37" d="M166,52.5l0.8-0.8c1.5-2.6,0-5.5,0.8-8.2c2.5,0,1.8,2,2.1,3.3c0.1,1.5-0.4,3.2,1.1,4.4
		c3.3,2.3,7.1,3.9,9.4,7.6c1.1,1.7,3.5,2.1,5.3,3.1c2.7,1.8,1.3,2.6-1.2,3c4.5,0.6,4.8,0.9,3.6,3.9c-1.5,0.6-2.9,0-4.3-0.5
		c-2-0.9-4.1-1.6-6-2.5c-0.3-0.2-0.6-0.4-0.9-0.8c0.3-1.5-0.9-2-1.9-2.7c-2-1.4-3.7-3.1-4-5.7c-1.2-1.1-3.6,0.3-4.2-2
		C166.1,54,165.9,53.3,166,52.5z"/>
	<path id="Tracé_9072" class="st38" d="M156.9,56l4.1-1.8l0.5,0.2c0.9,0.8,0.7,2,0.8,3c0,0.4-0.1,0.7-0.3,1c-1.1,1-0.9,2.8-2,3.8
		c-1.6,1-3.4,1.3-5.3,1.1c-0.4-0.1-0.8-0.3-1.1-0.5c-0.4-0.5-0.6-1.1-0.5-1.7c0.2-1,0.8-1.8,1.6-2.5C155.9,58.2,156.3,57,156.9,56z"
		/>
	<path id="Tracé_9073" class="st39" d="M153.6,62.6l1,0.2c0.1,0.4,0,0.8-0.3,1c-0.7,0.4-1.4,0.6-2.2,0.6c-1.3,0-2.5,0.6-3.8,0.3
		c-0.3-0.1-0.6-0.4-0.7-0.8c0-0.2,0-0.4,0-0.5c0.2-0.8,0.8-1.5,0.9-2.4c0.1-0.6,0.1-1.3,0.1-1.9c1.6-2.3,4.9-1.1,6.7-3.2l0.9,0.1
		c0.8,1.4-0.4,2.2-0.9,3.2l-1.6,1.7c-0.5,0.3-0.6,0.9-0.3,1.4C153.4,62.4,153.4,62.5,153.6,62.6z"/>
	<path id="Tracé_9074" class="st40" d="M166,52.5c0.6,0.3,1,1,0.9,1.7c0.4,1.7,1.1,3.6-1.1,4.7c-1.4,0.5-3-0.1-3.9-1.4l0,0
		c-0.7-1,1.7-2.7-0.8-3.2l-0.1-0.1C162.5,53,164.2,52.8,166,52.5z"/>
	<path id="Tracé_9075" class="st41" d="M167.8,43.5c-0.5,2.7,1.1,5.7-1,8.2c0-0.5,0.1-1.1,0.1-1.6c0.1-5,0.1-9.9,0.2-14.8
		c0.5-0.1,1,0.1,1.2,0.5C169,38.4,169.5,41,167.8,43.5z"/>
	<path id="Tracé_9076" class="st42" d="M155.2,59.2c0.3-1.1,0.6-2.1,0.9-3.2c0.2-0.1,0.5-0.2,0.8-0.1
		C157.6,57.7,157,58.8,155.2,59.2z"/>
	<path id="Tracé_9077" class="st43" d="M125.3,113c0-13.3,0.1-26.6,0.2-39.9c0.1-0.5,0.3-1,0.6-1.5c0.4,0.3,0.8,0.7,1,1.2
		c0.7,12.8,0.3,25.6,0.2,38.4c-0.1,0.8-0.5,1.5-1.2,1.9L125.3,113z"/>
	<path id="Tracé_9078" class="st44" d="M126.4,66.8c0.2,0,0.5,0,0.7-0.1c1.7,0,3.3,0.1,4.8-0.8l0.5,0c0.9-0.1,1.8,0.2,2.6,0.7
		c0.7,0.8,2.2,0.9,2.2,2.4c-1.6,2.3-3.9,2.1-6.2,1.8c-1.6-0.5-3.1-1.9-4.6,0.1L126.4,66.8z"/>
	<path id="Tracé_9079" class="st45" d="M126.3,70.9c0.9-2.3,2.3-2.4,4.1-0.9c0.4,0.4,0.9,0.6,1.2,1.1c0.2,0.5,0.1,1.1-0.2,1.6
		c-0.4,0.3-0.9,0.6-1.5,0.6c-0.5,0.1-1.1,0.1-1.6,0.1c-0.4,0-0.7-0.1-1.1-0.2c-0.3-0.2-0.6-0.3-0.9-0.6c-0.1-0.3-0.2-0.6-0.3-0.9
		C126.2,71.4,126.3,71.1,126.3,70.9z"/>
	<path id="Tracé_9080" class="st46" d="M118.8,117.3l1.7-1.7l0.8-0.7c0.7-0.6,1.5-0.5,2.3-0.6c0.6,0.1,1.1,0.5,1.3,1.2
		C123.2,119.3,122.1,119.6,118.8,117.3z"/>
	<path id="Tracé_9081" class="st43" d="M123.6,114.7l-2.3,0.1c1.1-1.1,1.9-3,4-1.9l0.2,0.2C125.6,114.7,124.3,114.3,123.6,114.7z"
		/>
	<path id="Tracé_9082" class="st47" d="M193.4,23.6c4.1,1,4.8,6.5,9.2,7.2c1.4,0.3,2.7,1.2,4.1,1.8c0.3-0.2,0.8-0.2,1,0.1
		c0.1,0.4,0,0.8-0.2,1.1c-1.4,1.6-2.9,0.8-4.4,0.4c-0.4-0.1-0.8-0.3-1.1-0.5c-1.8-1.5-4.4-0.4-6.2-1.8c-1.1-2-0.8-5-3.8-5.7
		C190.9,24.6,192.6,24.4,193.4,23.6z"/>
	<path id="Tracé_9083" class="st48" d="M207.6,32.7c-0.3,0-0.6-0.1-0.9-0.1c-0.3-3.7-3.5-4.9-6.5-6.7c1.9-0.3,4.2-0.2,1.6-2.4
		c2.3-0.7,3.8,1.4,5.8,1.7c-0.6,0.9-3.7,1.5-0.4,2.9c1.7,0.7,0.1,3.9,2.9,3.7C209.8,33.7,208.7,33.4,207.6,32.7z"/>
	<path id="Tracé_9084" class="st49" d="M193.4,23.6l-1.7,2.5c-1.6,1.2-3.6,0.4-5.3,1c-1.1,0-2.2,0-3-1v-2.5L193.4,23.6z"/>
	<path id="Tracé_9085" class="st50" d="M113.2,150.2l-0.1-1.4l0.5-1.6c0.1-0.7,0.3-1.4,0.8-1.9c0.7-0.5,1.4-1.2,2.4-0.6
		c0.3,0.2,0.6,0.4,0.8,0.7c0.4,0.6,0.7,1.2,1.1,1.8c0.4,0.7,1.2,1.2,2,1.2c0.3,0,0.7,0.1,1,0.3c0.9,0.5,1.6,1.3,2.5,1.9
		c0.5,0.4,1.1,0.7,1.8,0.8c1.5-0.2,1.7-2.6,3.6-2c0.9,0.4,1.6,0.9,2.3,1.6c1.1,1,1.9,2.4,3.6,2.4c0.4,0,0.7,0.1,1,0.3
		c0.5,0.4,1,0.9,1.4,1.5c0.3,0.4,0.6,0.9,0.1,1.4c0,0.7-0.4,1.3-0.9,1.7l0,0c-1.9-0.9-4-0.8-5.9-1.8c-4.3-1.4-8.6-2.9-12.8-4.4
		L113.2,150.2z"/>
	<path id="Tracé_9086" class="st51" d="M131.1,156.3c2.1,0.1,4.2,0.2,5.9,1.8C134.8,158.1,132.7,157.9,131.1,156.3z"/>
	<path id="Tracé_9087" class="st52" d="M178.4,153.7l-1.4,0c-0.6-0.4-0.9-1.1-0.8-1.9c0.6-4.2-0.1-8.5,0.6-12.8
		c0.9-2.2,0.1-4.7,1.2-6.9c3.6-2.3,2.7,1.1,3.2,2.6c0.1,1.2,0,2.4-0.1,3.6c-0.3,2.5,0.6,3.8,3.2,3.6c0.8,0.9,1.3,2.1,1.3,3.3
		c-0.1,2.7-1.7,5.1-4.1,6.3C180.5,152.2,179.4,152.9,178.4,153.7z"/>
	<path id="Tracé_9088" class="st53" d="M180.7,151.3c2.1-1.4,3.9-3.1,4.5-5.7c0.2-0.5,0.4-1.1,0.9-1.4c0.6-0.2,1.2-0.2,1.7,0
		c0.8,0.2,1.4,0.8,1.8,1.5c0.8,3.7-2.4,4.8-4.5,6.5c-2,1-4.2,1.6-6.4,1.6C179,152.7,179.9,152.1,180.7,151.3z"/>
	<path id="Tracé_9089" class="st54" d="M170.9,151.4l-5.8-1.8c-0.1-0.3-0.1-0.6,0-0.9c0.4-0.7,0.5-1.5,0.9-2.3
		c0.6-2.4,4.1-2,4.3-4.7c0.1-0.8,0.7-1.5,1.5-1.6c1.1,0.1,2,0.8,2.3,1.9c0.2,0.8,0.3,1.7,0.1,2.5c-0.2,1-0.6,1.9-1.3,2.7
		c-2.9,0.2-1.3,2.5-1.7,3.8C171.1,151.2,171,151.3,170.9,151.4z"/>
	<path id="Tracé_9090" class="st55" d="M185.2,152.3c1.6-2.1,4-3.6,4.1-6.5c0.3-1.2,1.4-1.6,2.3-2.1c0.2,0,0.4-0.1,0.5-0.1
		c0.4,0.1,0.7,0.2,0.9,0.5c1.3,1.4,0.9,3.5,2.2,4.8C192.2,150.7,188.4,150.7,185.2,152.3z"/>
	<path id="Tracé_9091" class="st56" d="M165.1,149c0,0.2,0,0.4,0,0.6c-0.3,0.2-0.5,0.5-0.8,0.7c-0.6,0.8-1.5,0.6-2.3,0.5
		c-0.4-0.2-0.6-0.6-0.8-1c-0.3-0.8-0.2-1.7,0.1-2.4c1.9-2.3,3-1.3,3.8,1C165.1,148.6,165.1,148.8,165.1,149z"/>
	<path id="Tracé_9092" class="st57" d="M195.3,148.8c-2.1-0.9-1.9-3.3-2.8-4.9c0.4-0.7,1.1-1.4,1.9-0.7c1,0.8,1.3,2.1,0.8,3.2
		c0.3,0.6,0.6,1.2,0.8,1.9c-0.1,0.1-0.1,0.3,0,0.4C195.7,148.7,195.5,148.8,195.3,148.8z"/>
	<path id="Tracé_9093" class="st58" d="M174.4,152.9c-1.3,0-2.6-0.5-3.5-1.5l0.2-0.3c0.2-1.1-1-3,1.5-3c0.4,0.1,0.7,0.2,1,0.4
		c0.5,0.5,0.9,1.1,1,1.8C174.7,151.2,174.6,152.1,174.4,152.9z"/>
	<path id="Tracé_9094" class="st59" d="M174.4,152.9c-0.5-0.7-0.5-1.7,0-2.4c0.7-0.5,1.2-0.1,1.8,0.3c0.4,0.3,0.6,0.8,0.5,1.4
		c0.1,0.5,0.3,1.1,0.4,1.6C176.1,153.5,175.2,153.2,174.4,152.9z"/>
	<path id="Tracé_9095" class="st18" d="M161.9,150.5l2.4-0.2c-0.7,1.3-1.9,1.5-3.2,1.9L161,152
		C160.6,151.1,160.5,150.3,161.9,150.5z"/>
	<path id="Tracé_9096" class="st60" d="M180.7,151.3c-0.6,0.9-1.3,1.7-1.9,2.6l-0.4-0.1C178.6,152.4,179.2,151.5,180.7,151.3z"/>
	<path id="Tracé_9097" class="st61" d="M221,139.8c-0.1,0.2-0.2,0.4-0.2,0.6c-3.5,0.1-6.6,1.7-9.9,2.7c0.4-1.7-1.9-1.3-2.1-2.5
		c-0.1-0.9,0.1-1.9,0.5-2.8c0.2-0.4,0.4-0.7,0.6-1c0.8-0.5,1.7-0.9,2.6-1.2c1.1-0.4,2.2-0.7,3.3-0.9c1.6-0.2,3.1,0.4,4.2,1.6
		c0.4,0.4,0.7,0.8,1,1.3C221.2,138.4,220.7,139.1,221,139.8z"/>
	<path id="Tracé_9098" class="st62" d="M209.2,140.5c1,1.6,2-0.4,3.3-0.2c-0.6,1.1-1.1,2-1.6,2.9c-0.9,0.9-2.1,0.7-3.2,0.8
		c-0.1-0.1-0.3-0.2-0.5-0.3c-0.3-0.5-0.4-1.1-0.3-1.6c0.1-0.7,0.6-1.4,1.2-1.8C208.5,140.2,208.9,140.2,209.2,140.5z"/>
	<path id="Tracé_9099" class="st62" d="M203.5,145.7l-0.2-1.4c0-0.6,0.2-1.1,0.5-1.6c1.8-1.7,2.6-0.2,3.6,1l0.2,0.3L203.5,145.7z"
		/>
	<path id="Tracé_9100" class="st63" d="M215,29.4l3.3,0l0.1,31.4c-2.5,3.5,0.9,4.7,2.6,6.6c0.2,0.7,0,1.5-0.5,2.1
		c0,0.2-0.6,0.5-0.3,0.5c0.9,0,1.7-0.4,2.6-0.7c1.2-0.3,2.4-0.2,3.5,0.3c0.4,0.1,0.7,0.4,0.7,0.8c-0.1,0.4-0.3,0.7-0.6,1
		c-0.6,0.4-1.3,0.8-2.1,1c-1.4,0.3-2.8,0.8-4.1,1.4c-0.9,0.3-1.7,0.6-2.6,0.9c-0.4,0.1-0.8,0.2-1.1,0.2c-0.6,0-1.2-0.1-1.7-0.3
		c-0.6-0.3-0.9-1-0.8-1.7c0.2-2.3,0-4.3-2.9-4.9c-1.5-0.3-3.1-1-3.4-2.9c1.6-1.8,4.2-1.6,5.9-3.3c0.4-0.4,0.9-0.7,1.4-1
		c2.1-1,1.5-2.9,1.6-4.5c0-4.2,0-8.4,0-12.6c-0.1-3.8,0.3-7.6-0.2-11.4c-0.4-0.7-0.8-1.5-1.1-2.2C215,29.9,215,29.7,215,29.4z"/>
	<path id="Tracé_9101" class="st64" d="M220.8,67.5c-2.7-0.3-3.4-2.8-5.5-4c0.9-1.3,2.8-1.2,3.1-2.7c0.5,0.3,1.1,0.7,1.6,1l2.5,2.4
		c-0.1,0.1-0.2,0.3-0.2,0.4c-0.7,0.4-1.1,1.2-1,2C221.2,67,221,67.3,220.8,67.5z"/>
	<path id="Tracé_9102" class="st65" d="M215,30.2l1.8,0.7c0.5,0.9,0.3,1.9,0.3,2.9c-0.1,1-1,1-1.7,1.2c-3.5,0.8-3.6,0.8-3.2-3.3
		c0.3-1.2,1.5-0.9,2.2-1.4C214.6,30.4,214.8,30.3,215,30.2z"/>
	<path id="Tracé_9103" class="st5" d="M214.3,30.3l-2.1,1.4c-0.2,0.3-0.6,0.5-1,0.4l-0.4-0.5C211.4,29.5,213.1,30.4,214.3,30.3z"/>
	<path id="Tracé_9104" class="st66" d="M207.6,32.7c0.9,0.1,1.8-0.2,2.4-0.9l0.9-0.2c0,0.1,0,0.3-0.1,0.4c0.5,0.4,0.6,1.1,0.2,1.6
		c-0.8,0.7-1.8,0.8-2.8,0.5c-0.4-0.2-0.7-0.4-0.8-0.8C207.5,33.1,207.5,32.9,207.6,32.7z"/>
	<path id="Tracé_9105" class="st67" d="M204.2,143c-0.3,0.4-0.6,0.9-0.9,1.3c-0.5-0.8-1-1.5-1.6-2.3c-1.4-0.6-2-1.8-2.4-3.1
		c-5.6-5.1-9.5-11.8-15.6-16.5c-1.2-0.9-2.5-1.5-3.9-1.9c-0.2-0.3-0.4-0.7-0.5-1.1c-0.1-1.9-0.1-3.8,0.1-5.7
		c-0.2,2.7-0.1,4.4-0.1,6.1c0,1.1,0.3,2.1,0.3,3.2c0,1.2-0.1,2.3-0.9,3.3c-0.4,0.3-0.9,0.3-1.3-0.1c-0.8-1-0.8-2.2-0.9-3.4
		c0-3.2-0.2-6.5,0.2-9.7c0.2-0.9,0.6-1.7,1.1-2.4c0.3-0.3,0.6-0.6,1-0.8c1.3-0.4,2.4-1.7,4-1c0.4,0.5,0.7,1,0.8,1.6
		c0.4,2.7,1.3,5,4.3,5.7c0.4,0.1,0.8,0.3,1,0.7c1.4,3.6,4.8,5.2,7.4,7.6c0.4,2,1.4,3.4,3.6,3.7c1.7,0.9,2.4,2.4,2.7,4.2
		c0.4,2.6,1.9,3.7,4.6,3.3c1.2,0.2,2.2,1,2.6,2.1c0.4,1-0.4,1.7-0.7,2.5c-0.2,0.1-0.4,0.1-0.7,0.1c-1.1,0.8-2.8-0.9-3.5,1
		C204.8,142.1,204.5,142.6,204.2,143z"/>
	<path id="Tracé_9106" class="st68" d="M195.1,146.4c-1.1-0.7,0.1-3.6-2.7-2.5l-0.3,0l-0.3,0c-0.7-0.2-1.4-0.7-1.4-1.4
		c0.1-4.3-2.7-6.6-5.8-8.8c-1.1-0.8-2.3-1.6-2.5-3.1c0-0.3,0.4-0.7,0.1-0.8c-2.9-1.2-2.9-1.2-2.6-3.5c2.5-4.2,3.1-4.4,5.2-0.5
		c2.8,5.2,7.9,8.4,11.1,13.1c0.8,1.1,1.6,2.2,1.7,3.6c0.1,1.1-0.5,2.1-0.9,3.2C196.5,146.4,195.8,146.4,195.1,146.4z"/>
	<path id="Tracé_9107" class="st69" d="M200.1,138.8c0.6,1.1,1.1,2.1,1.7,3.2c-2.1-0.2-2.1,2.8-4.1,2.8c-0.6-1.3,0.2-2.6,0-3.9
		C197.8,139.5,197.9,138,200.1,138.8z"/>
	<path id="Tracé_9108" class="st70" d="M198.4,141.3c-0.3,1.2-0.5,2.3-0.8,3.5c-0.3,0.3-0.5,0.6-0.8,0.8c0-1.2-0.1-2.3-0.1-3.5
		C197.2,141.7,197.4,140.8,198.4,141.3z"/>
	<path id="Tracé_9109" class="st71" d="M118.8,117.3c2.4,1.1,4.4,0.8,5.8-1.7c1.9,0.2,4.4-0.3,3.7,3.1c-1.7,1.7-3.8,2.1-6.1,2.5
		c-1.4,0.1-2.8-0.2-4.1-0.7c-0.9-0.5-1.8-0.8-1.9-2.1c0-0.3,0.1-0.6,0.1-1C117.2,117.3,118,117.3,118.8,117.3z"/>
	<path id="Tracé_9110" class="st72" d="M116.3,118.3l1.7,1.4c-0.4,1-0.6,2-0.7,3.1c-0.2,1.2-0.1,2.4-1.5,2.9
		c-1.2-0.5-0.2-1.9-1.1-2.6C115.3,121.5,112.8,118.9,116.3,118.3z"/>
	<path id="Tracé_9111" class="st73" d="M114.7,123.1c0.9,0.6,0.7,1.6,0.8,2.4c1.9,2.8,1.2,5.8,0.5,8.7c-0.2,0.5-0.8,0.7-1.2,0.4
		c0,0,0,0,0,0L114.7,123.1z"/>
	<path id="Tracé_9112" class="st74" d="M114.5,143.8l0.1-2.5c0.2-0.3,0.6-0.4,0.9-0.3c1,0.3,1.9,0.8,2.7,1.5
		c0.4,0.4,0.7,0.8,0.9,1.3c0.1,0.4,0,0.7-0.1,1c-0.5,0.6-1,1.1-1.8,0.6l0,0C116.7,144.2,115.3,144.5,114.5,143.8z"/>
	<path id="Tracé_9113" class="st75" d="M114.7,145.5c-0.1,0.8-0.2,1.5-1.1,1.7c-1.7-1.3-0.5-2.4,0.2-3.5l0.6,0.6
		c0.4,0.2,0.6,0.6,0.4,1C114.8,145.4,114.7,145.5,114.7,145.5z"/>
	<path id="Tracé_9114" class="st76" d="M115.5,141.4l-0.8-0.1c0-2.2,0.1-4.4,0.1-6.6c0.2,0,0.5,0,0.7,0c1,0.9,1.1,2.1,1.1,3.3
		C116.5,139.3,116.5,140.5,115.5,141.4z"/>
	<path id="Tracé_9115" class="st77" d="M114.7,145.5c-0.1-0.4-0.2-0.8-0.2-1.2c0-0.2,0-0.4,0.1-0.5c1.2,0,2.5-0.1,2.6,1.6
		C116.3,144.7,115.5,144.9,114.7,145.5z"/>
	<path id="Tracé_9116" class="st78" d="M167.7,35.2c-0.2,0-0.5,0-0.7,0.1c0-2.2,0-4.5-0.1-6.7c0.9-0.1,1.9,0.1,2.5-0.8
		c1.7-0.3,3.3-0.6,5-0.8c0.5-0.5,1.4-0.5,1.9,0c1.6,1.3,5,2,3.9,4.4c-1.2,2.7-3.8,0.6-5.7-0.2c-0.9-0.4-1.8-0.5-2.8-0.4
		c-0.9,0.3-2.1-0.2-2.8,0.7c-0.4,1.1-0.1,2.4-0.8,3.4C168,34.9,167.8,35.1,167.7,35.2z"/>
	<path id="Tracé_9117" class="st79" d="M233.3,134.7c-0.6,0.7-1.5,1-2.4,0.9c-2,0.2-3.4,1.5-5.1,2.3l-1.6,0.2
		c-0.3,0.2-0.7,0.3-1.1,0.1c-0.4-0.8-0.1-1.5,0.2-2.2c0.1-0.4,0.3-0.7,0.5-1c0.9-1.2,1.8-2.5,3.4-2.8c1.3-0.1,2.5-0.5,3.5-1.2
		c1.6-0.5,1.8,0.8,2.3,1.8L233.3,134.7z"/>
	<path id="Tracé_9118" class="st80" d="M225.8,137.9c0.9-2.4,2.4-3.8,5.1-2.3c-0.4,0.5-0.7,1-1.1,1.5
		C228.5,137.4,227.3,138.3,225.8,137.9z"/>
	<path id="Tracé_9119" class="st81" d="M223,137.9c0.4,0.1,0.8,0.1,1.2,0.2c-0.8,1.2-2.1,1.2-3.2,1.8c-1-0.4-0.5-1.1-0.2-1.7
		c0.5-0.7,1.4-0.9,2.1-0.4C222.9,137.8,223,137.8,223,137.9z"/>
	<path id="Tracé_9120" class="st82" d="M137.9,156.4l-0.8-1.1c-0.3-1,0-2.1,0-3.1c0.1-0.3,0.1-0.7,0.3-1c0.2-0.8,0.6-1.6,1-2.3
		c0.8-0.7,1.9-0.8,2.6-1.5c0.4-0.4,0.9-0.6,1.5-0.7c0.6,0,1.1,0.2,1.5,0.6c0.5,0.9,0.6,1.9,0.3,2.8c-0.4,1.1-0.9,2.1-1.3,3.1
		c-0.2,0.5-0.6,1-1,1.3l-1,1.4c-0.8,0.2-1.5,0.4-2.3,0.6C138.4,156.6,138.2,156.5,137.9,156.4z"/>
	<path id="Tracé_9121" class="st83" d="M142,154.6l0.1-1.5c0.8-0.9,1.9-1.4,3.1-1.2c0.2,0.1,0.3,0.4,0.3,0.6c0,0.2-0.1,0.4-0.1,0.4
		C144.7,154.4,143.4,154.7,142,154.6z"/>
	<path id="Tracé_9122" class="st84" d="M145.4,152.9c0-0.3,0-0.6,0.1-0.8c-0.1-0.5-0.1-1,0.1-1.5c0.1-0.5,0.5-1,1-1.2
		c0.8,0,1.4,0.5,1.8,1.2c0.4,1.1-0.3,1.8-1.1,2.4c-0.3,0.3-0.6,0.5-0.9,0.8L145.4,152.9z"/>
	<path id="Tracé_9123" class="st85" d="M147.1,152.9l0.8-2.4c0.1-0.8,0.8-1.3,1.5-1.2c0.9,0.3,1.5,1,1.7,1.9c0,0.3-0.1,0.6-0.1,0.8
		C149.7,152.4,148.4,152.7,147.1,152.9z"/>
	<path id="Tracé_9124" class="st86" d="M171,30.2c2.3-2.3,3.9,0.4,5.8,0.9c1,0.3,2.2,1.5,2.9,0c0.5-1.1-0.8-1.6-1.7-1.8
		c-1.7-0.2-1.8-2.5-3.6-2.5c0.8-1.2,2.1-0.7,3.2-0.9c2.1-1,3.6-0.1,5,1.4c1.2,1.4,2.2,3.1,3.8,4.3c0.8,0.5,1.4,1.4,1.6,2.3
		c1.4,3.2,2.8,0.3,4.2,0.1c0.3-0.1,0.7-0.2,1.1-0.2c2.6,1.1,0.1,2.8,0.5,4.1c-0.4,0.9-1.1,1.5-2,1.7c-0.4,0.1-0.7,0.1-1.1,0
		c-1.3-0.7-2.7-1.2-4.1-1.6c-4-2-8.2-3.3-12-5.6c-0.9-0.8-2-1.5-3.2-1.9C171.2,30.5,171.1,30.4,171,30.2z"/>
	<path id="Tracé_9125" class="st87" d="M186,32.7c-2.2-0.9-2.9-3.2-4.2-4.8c-1.2-1.4-2.4-2-4.1-1.9c0-0.3,0-0.5,0.1-0.8
		c2-0.3,3.9,0.4,5.8,0.8h3.3c1.4,1.3,3.1,2.2,4.4,3.5s2.1,2.8,1.4,4.8c-1.5,2.5-3.7,2.8-5.8,1.3c-1.3-0.9,0.2-1.1,0.9-1.3
		C188.4,32.7,188.3,32.6,186,32.7z"/>
	<path id="Tracé_9126" class="st88" d="M161.9,150.5L161,152l-2.2,0.2c-2.1,0.9-2.1-0.6-2.3-1.9c0-0.4,0.1-0.8,0.2-1.1
		c0.7-1.3,1.6-2.1,3.2-1.7c0.9,0.3,1.2,1.3,1.9,1.9L161.9,150.5z"/>
	<path id="Tracé_9127" class="st89" d="M156.8,150.4c0.8,0.4,0.5,2.1,2,1.8c-1.3,1.1-2.8,1.3-4.4,1.4c0-0.5,0-1.1,0-1.6
		C154.5,150.4,155.5,150.2,156.8,150.4z"/>
	<path id="Tracé_9128" class="st90" d="M156.8,150.4l-2.4,1.6c-1.4,1.5-2.3,0.3-3.3-0.7c-0.6-0.5-1.1-1.1-1.6-1.6
		c-0.2-0.2-0.3-0.4-0.2-0.7c0-0.2,0.1-0.4,0.1-0.4c2.5-0.9,5.1,0.9,7.6,0c0.2,0.1,0.3,0.4,0.2,0.6c-0.1,0.2-0.1,0.3-0.2,0.3
		L156.8,150.4z"/>
	<path id="Tracé_9129" class="st91" d="M226.4,70.8c0.1-0.2,0.1-0.5,0.2-0.7c0.5-0.6,1.2-0.4,1.8-0.8l4.6-0.8c0,8,0,16,0,23.9
		c-0.5,0.1-0.9-0.2-1.2-0.6c-0.9-1.7-0.6-3.6-0.7-5.4c-0.1-1.2,0-2.3-0.1-3.5c0-3.1-0.1-6.2,0-9.2c-0.1-1.3,0.1-2.7,0.6-3.9
		C230.2,71.4,228.6,72.3,226.4,70.8z"/>
	<path id="Tracé_9130" class="st92" d="M233.1,132.8c-0.8-0.3-1.2-1.6-2.3-1.3c-0.2-2.1,0.9-4,0.5-6.1c0-1.3,0-2.6-0.1-4
		c0-1.1,0.1-2.3,0-3.4c0-1.6,0.1-3.2,0-4.8c0-1.8,0-3.6,0-5.4c0-0.9,0.2-1.8,0.6-2.6c0.2-0.4,0.7-0.6,1.1-0.3c0,0,0,0,0,0
		C233.1,114.2,233.1,123.5,233.1,132.8z"/>
	<path id="Tracé_9131" class="st93" d="M233.1,104.9c-0.2,0-0.5,0-0.7,0c-1-0.8-1-2-1.1-3.2c-0.1-1.8,0.1-3.6,0-5.4
		c-0.1-1.1,0.2-2.3,0.6-3.3c0.2-0.2,0.3-0.3,0.5-0.5c0.2,0,0.5,0,0.7,0C233.1,96.6,233.1,100.7,233.1,104.9z"/>
	<path id="Tracé_9132" class="st94" d="M228.5,69.3l-1.8,0.8l-4.2,0c-0.9,0.4-2,0-2.5-0.8l0.8-1.7c0-0.3,0-0.6,0-0.8
		c0.3-1,0.9-1.8,1.6-2.5l0,0c1.1,0.3,2.2,0.6,3.3,0.8C227.4,66,224.8,69.6,228.5,69.3z"/>
	<path id="Tracé_9133" class="st95" d="M131.9,65.9c1.9-1.7,4.9-1.3,6.8-3.3h0c2.4,0.2,4.1-1.8,6.4-1.9c1.1,1.9-0.9,2.5-1.5,3.6
		c-0.4,0.4-0.8,0.8-1.2,1.1c-0.6,0.7-1.4,1.2-2.2,1.6c-0.8,0-1.5,0-2.2-0.1c-0.6,0-1.2,0-1.8-0.1c-1.3-0.6-2.8-0.3-4.1-1L131.9,65.9
		z"/>
	<path id="Tracé_9134" class="st96" d="M142.9,64.2c0.5-1.4,2.2-1.9,2.3-3.5c0.4-0.7,1.1-0.7,1.8-0.7c0.3,0.2,0.4,0.6,0.5,0.9
		c-1.9,1.1,1.2,1.5,0.3,2.4l0.1,0.2c-0.3,0.5-0.8,1-1.4,1.3C145.2,65.2,143.9,65.3,142.9,64.2z"/>
	<path id="Tracé_9135" class="st97" d="M126.3,63.4c0.8-1.3,1.7-2.5,3.3-0.8C128.7,63.8,127.4,63.3,126.3,63.4z"/>
	<path id="Tracé_9136" class="st98" d="M147,60.9l0-0.9c0.3-0.7,1-0.7,1.6-0.9c0.6,0.3,1,1,0.9,1.8C148.8,61.6,147.7,61.6,147,60.9
		C147,60.9,147,60.9,147,60.9z"/>
	<path id="Tracé_9137" class="st99" d="M177.7,65.1c2.1,0.5,4,1.3,5.8,2.4c-0.9,1.2-2.3,1.3-3.5,1.9c-2,1.7-1.6,3,0.8,3.7
		c2.3,0.6,4.6,1.6,6.8-0.3c0.6-0.1,1.2,0,1.7,0.3c0.7,2.2-1.4,3.1-2,4.7c-2.1,2-2.8,5.5-6.5,5.8c-1.1-0.5-1.1-1.4-1.1-2.4
		c0.1-0.7,0.3-1.8-0.2-1.9c-4.1-1.3-5-5.9-8.6-7.8c-2.3-1.2-4.7-2.5-4.9-5.5c-0.1-1.8-3.9-1.1-2.5-3.8c2.3-2.5,5-0.6,7.5-0.5
		c1.6,0.5,3.5,0.4,4.4,2.2c-0.1,1-1.4,1.1-1.6,2.1C175.4,66.9,176.6,66.2,177.7,65.1z"/>
	<path id="Tracé_9138" class="st100" d="M185.1,62.6c-3.4-0.8-6.1-2.2-7.9-5.6c-1.2-1.9-3.2-3.2-5.5-3.5c-0.9,0-1.5-0.8-1.5-1.6
		c0-1.4-1.4-2.8,0-4.3c7,2.8,11.9,7.8,15.2,14.5C185.3,62.2,185.2,62.4,185.1,62.6z"/>
	<path id="Tracé_9139" class="st101" d="M179.3,68.4c1.4-0.3,2.8-0.6,4.2-0.8l4.1,0.9c0.8,0.6,1.9-0.2,2.7,0.5
		c0.5,0.3,0.9,0.8,1.1,1.3c0.3,1.4-0.6,2.8-2,3.1c0,0-0.1,0-0.1,0h-1.6c-2.5,0.6-4.9,0.6-6.9-1.2C179.6,71.2,178.2,70.2,179.3,68.4z
		"/>
	<path id="Tracé_9140" class="st102" d="M175.1,64.2c-1.1-1.3-2.9-0.7-4.1-1.7c-2.2-0.8-4.4-1.3-6.7-1.5c-0.3-1.6,1-1.5,1.9-1.8
		c2.6,0.1,3.3-2.8,5.6-3.3c0.4,3.7,1.8,5.2,7.1,7.4c-0.2,1.2-1.7,0.7-2.1,1.6C175.9,65.5,175.2,65.6,175.1,64.2z"/>
	<path id="Tracé_9141" class="st103" d="M171.9,55.9c-1,2.1-2.3,4-5,4.1c-0.4-0.5-1.4-0.7-0.8-1.7c1.1-1.2,0-2.9,0.8-4.2
		c0.9,0.5,1.4,2.2,2.9,0.5C170.8,53.7,171.7,54.5,171.9,55.9z"/>
	<path id="Tracé_9142" class="st104" d="M167.8,43.5c0-2.8,0-5.6-0.1-8.4v0c2.1-1,2.4,0.6,2.6,2c0.2,1.9,0.8,3.8,0.8,5.7
		c0,0.5-0.1,0.9-0.2,1.4c-0.7,1.2-0.2,3.3-2.4,3.5C168.3,46.2,169.1,44.7,167.8,43.5z"/>
	<path id="Tracé_9143" class="st100" d="M190.1,69.2c-0.9,0-1.9,0.1-2.5-0.8c-0.2-1.7-0.2-1.7-3.4-3.7c0.2-0.8,3.3-0.3,1-2.2l0,0
		c1.9-1.3,3.4-0.2,4.6,1.2C191.1,65.4,191.7,67.2,190.1,69.2z"/>
	<path id="Tracé_9144" class="st105" d="M175.1,64.2c0.4,0.6,1,0.9,1.7,0.7c0.3,0,0.6,0.1,0.8,0.1c-0.8,2.2-3.6,3.3-5.1,2.1
		c-0.6-0.4-0.8-1.2-0.5-1.8C172.6,63.7,174,64.4,175.1,64.2z"/>
	<path id="Tracé_9145" class="st106" d="M168.6,47.6c1.4-0.7,0.3-2.6,1.6-3.3c0.9,0.9,1,2.3,0.1,3.2c0,0-0.1,0.1-0.1,0.1
		c0,0.9,0,1.8,0.8,2.5c1.2,1.1,0.3,1.5-0.8,1.7C167.5,51.2,168.9,49.1,168.6,47.6z"/>
	<path id="Tracé_9146" class="st107" d="M164.4,60.9c2.4-0.1,4.7,0,6.6,1.6c-2.5,0.5-5-1.9-7.5,0c-0.6,0.8-1.7,0.7-2.6,1.2
		c0.5,1.7,3.2,2.5,1.9,4.9c-4.8,0.8-7.8-1-8.3-5.2c0-0.2,0-0.4,0-0.7c1.9-0.3,3.8-0.7,5.7-1C161.5,60.8,162.7,59.7,164.4,60.9z"/>
	<path id="Tracé_9147" class="st108" d="M164.4,60.9c-1.4,0.3-2.8,0.5-4.2,0.8c-1-2-0.3-3.3,1.7-4.2l4.1,0.8l0.8,1.7
		C166,60.1,165,59.9,164.4,60.9z"/>
	<path id="Tracé_9148" class="st108" d="M161.1,54.3c4.4,0.1,0.4,2.2,0.8,3.2C160.5,56.8,162.1,55.3,161.1,54.3z"/>
	<path id="Tracé_9149" class="st109" d="M153.6,62.6c-0.7-0.1-1.9,0.2-1.9-0.7c-0.1-1.4,1.2-0.8,2-1L153.6,62.6z"/>
	<path id="Tracé_9150" class="st110" d="M154.5,63.4c1.6,3.6,4.7,4.6,8.2,5c5.1,4.3,10,8.8,14.6,13.7c0.3,0.2,0.6,0.5,0.8,0.7
		c0.7,0.8,1.9,1.3,2.3,2.4c-0.2,1.7-1.4,2.7-2.9,3.4c-0.8,0.2-1.6,0-2.2-0.5c-2.1-1.9-5.5-1.6-7.1-4.4c-1.5-4.6-6.5-4.8-9.5-7.6
		c-1.1-0.3-2.3-0.3-2.8-1.6c-0.1-0.7,1.6-1,0.3-1.9c-1.8-1.2-2.1-3.4-3.3-4.9c-0.9-0.6-2-0.9-2.6-1.8c-0.4-1.5,1.1-1.7,1.6-2.5
		L154.5,63.4z"/>
	<path id="Tracé_9151" class="st111" d="M151.9,63.4c0.2,1.3-1.1,1.6-1.6,2.5l-0.3,0.5c-1,0.9-1.8,0.5-2.5-0.4
		c-0.3-0.6-0.1-1.2,0.3-1.6L151.9,63.4z"/>
	<path id="Tracé_9152" class="st112" d="M147.9,64.3l0,1.5c-0.1,2.2-1.6,1.6-2.9,1.4c-0.4-0.2-0.7-0.5-0.8-0.9
		c0.1-1.7,1.9-1.3,2.8-2.1l0.9-0.6C147.8,63.8,147.8,64.1,147.9,64.3z"/>
	<path id="Tracé_9153" class="st113" d="M147,60.9h2.5c0.1,1.1-0.6,2.2-1.7,2.4C147.2,62.6,146.1,62.1,147,60.9z"/>
	<path id="Tracé_9154" class="st114" d="M127.9,118.1c-0.1-2.2-2.7-1.1-3.3-2.5c-0.3-0.3-0.6-0.6-1-0.9c0.6-0.5,1.2-1,1.9-1.5
		c0.3-0.3,0.5-0.6,0.8-0.9c0.2-0.2,0.6-0.4,0.9-0.3c0.5,0.1,1,0.3,1.5,0.5c0.5,0.2,0.9,0.6,1.2,1.1c0.4,2.7,2.7,4,4.4,5.7
		c2.2,2.2,2.8,4.3,0.4,6.6c-0.7,0.3-1.5,0.2-2.1-0.3c-0.9-1.1-2.2-1.7-3.6-1.8c-0.4-0.1-0.7-0.2-1-0.4
		C123.2,121.7,127.1,119.9,127.9,118.1z"/>
	<path id="Tracé_9155" class="st115" d="M126.9,112.4c-0.2-0.1-0.4-0.1-0.6-0.1c0-13.2,0-26.5,0-39.7c0.2,0,0.5,0,0.8,0
		c1.8,2.2,0.9,4.9,1.2,7.3c-0.1,2.2,0,4.5,0,6.8c0,3,0,6.1,0,9.1c0,3.8,0,7.7,0,11.5C128.1,109.1,128.6,111,126.9,112.4z"/>
	<path id="Tracé_9156" class="st116" d="M131.3,70.9l-0.9-0.9c2.3,0,4.8,0.5,6.6-1.6c0.4-0.5,1-0.8,1.6-0.8
		c2.3,0.1,3.4,2.2,5.1,3.3c1.2,0.8,2.2,2.1,3.9,2.2c1.2,0.3,2.6,0.1,2.9,1.9c-0.9,1.1-2.3,1.2-3.5,1.6c-0.8,0.2-1.7,0.3-2.6,0.2
		C140,74.9,135.7,72.7,131.3,70.9z"/>
	<path id="Tracé_9157" class="st117" d="M138.6,68.3l-1.6,0c-1.2,0-2.4,0-2.5-1.7c0.7-0.7,1.9-0.1,2.6-0.8h1.6
		c0.7,0.6,0.7,1.7,0.1,2.3C138.7,68.3,138.7,68.3,138.6,68.3z"/>
	<path id="Tracé_9158" class="st118" d="M137.1,65.9c-0.7,0.9-1.6,0.8-2.6,0.8c-0.9-0.1-1.9,0.2-2.4-0.8
		C133.8,65.9,135.4,65.9,137.1,65.9z"/>
	<path id="Tracé_9159" class="st119" d="M129.6,72.5l1.6-0.1c0.9-0.1,2-0.1,2.3,0.6c0.9,2.7,3.6,3.2,5.5,4.7c1.7,1.3,3.6,2.3,3.7,5
		c0.1,2.2,2.7,2.5,4.2,3.5c2.3,1.9,4.4,4.1,6.8,6c1.7,2.2,3.6,4.2,5.9,5.8c1.8,2.4,4.3,4.3,6,6.8c0.8,2,1.6,4,2.6,5.9
		c0.2,0.8-0.2,1.7-1,2c-2.3,0.5-3.3-1.4-4.6-2.7c-1-1.1-2.1-2.1-3.2-3c-0.7-0.6-1.4-1.3-2.1-1.9c-6.7-7.7-14.4-14.4-21.4-21.9
		c-0.6-0.6-1.3-1.1-2.1-1.2c-4.8-0.1-4.5-4-5.2-7.2C128.6,74,129,73.2,129.6,72.5z"/>
	<path id="Tracé_9160" class="st120" d="M147,86.6c-3.1-0.4-6.1-1.1-5.6-5.3c0.2-2.1-1.9-1.2-2.8-2.2c-2.2-2.4-4.9-4.4-7.3-6.6
		c0-0.5,0.1-1.1,0.1-1.6c3.7,0,6.9,1.5,9.9,3.4c1,0.8,2.1,1.2,3.3,1.5c1.1,0.4-2.4,1.4,0.3,1.7c1.6,0.2,2.6,1.3,3.1,2.9
		c0.3,1.9,0.5,3.9-0.4,5.8C147.3,86.3,147.1,86.4,147,86.6z"/>
	<path id="Tracé_9161" class="st121" d="M127.2,80.1c0-2.5-0.1-5-0.1-7.5c0.2-0.1,0.5-0.1,0.8-0.1c0.5,0.4,0.7,1,0.8,1.7
		c0,3.1,1.8,5.6,2.9,8.2c0.5,1.2,1.4,2.3,1,3.7c-1.6-0.5-2.9,0.3-4.4,0.8c-0.3-0.2-0.6-0.5-0.6-0.9C127.3,84.1,127.9,82,127.2,80.1z
		"/>
	<path id="Tracé_9162" class="st122" d="M127.9,74.2c0-0.5,0-1.1,0-1.6l1.7,0V75C128.6,75.5,128.4,74.6,127.9,74.2z"/>
	<path id="Tracé_9163" class="st123" d="M203.5,33.6c1.3,0.2,2.7,1.1,3.9-0.2l0.1,0.3c-0.8,2.6,0,4.4,2.5,5.8
		c1.7,1,2.9,2.8,4.5,4.1c0.1,1.8,2.3-0.1,2.5,1.5c0,1.6,0,3.2,0,4.8c-0.4,3.1-1.9,3.8-4.3,1.7c-4.6-4.2-10.6-7.3-12.3-14
		c0.1-0.8,0.3-1.5,0.8-2.2C201.8,34.4,202.8,34.2,203.5,33.6z"/>
	<path id="Tracé_9164" class="st124" d="M192.6,34.4c-0.4-2.5-1.9-4.6-4.1-5.8c-1-0.4-1.7-1.4-1.7-2.5c1.7-0.7,3.3,0,5,0
		c5.3-0.9,4,3,4.1,5.8c0.3,0.2,0.4,0.6,0.5,0.9c-0.1,0.4-0.2,0.7-0.4,1c-0.7,0.7-1.8,0-2.5,0.6L192.6,34.4z"/>
	<path id="Tracé_9165" class="st87" d="M193.4,34.4c0.6-1,1.6-0.8,2.5-0.8c1.3,0.3,2.6,0,3.9-0.3c0.9-0.2,1.9-0.4,2.7,0.2l1,0.1
		c-0.1,1.1-1,1.5-1.8,1.9c-2.3,1.9-4.8,3.4-8,2.4C191.3,36.9,194.6,35.4,193.4,34.4z"/>
	<path id="Tracé_9166" class="st125" d="M202.5,33.5l-2.5,0.9c-1.3-0.8-3.2,0-4.1-1.7v-0.8C198.1,32.3,200.8,30.7,202.5,33.5z"/>
	<path id="Tracé_9167" class="st126" d="M131.2,151.4l-1.7-1.8c-0.4-0.4-0.7-0.9-0.9-1.4c-0.8-3.3-3.4-5-6-6.7
		c-1.6-2.9-4.2-4.7-6.6-6.8c0.1-1.6-1-3.6,0.9-4.5c1.9-0.9,3.3,0.8,4.6,2.1c3.6,3.5,7,7,10.5,10.5c1.1,1.1,2.2,2.1,2.3,3.8
		c0,0.4-0.1,0.8-0.2,1.1c-1.7,0.6-0.9,2.6-1.9,3.7C132,151.6,131.6,151.6,131.2,151.4z"/>
	<path id="Tracé_9168" class="st127" d="M129.6,148l0,1.7c-1.3-0.2-1.5,0.6-1.9,1.6c-0.3,0.9-0.9,2.4-2.1,0.6
		c-0.5-0.9-0.2-1.7,0.1-2.6c0.2-0.7,0.7-1.3,1.2-1.8C127.9,146.7,128.8,146.7,129.6,148z"/>
	<path id="Tracé_9169" class="st128" d="M137.9,151.4c0,0.2-0.1,0.5-0.1,0.7c-0.6,0.5-0.9,1.3-1.6,1.6c-0.3,0-0.5,0-0.8-0.1
		c-1.4-0.1-2-1-2.2-2.2c0-0.4,0.1-0.8,0.2-1.1c0.8-1.1,1.9-1.1,3.1-0.6C137.2,150,137.7,150.6,137.9,151.4z"/>
	<path id="Tracé_9170" class="st129" d="M133.7,151.3l1.8,2.4c-2.8,1.8-2.9-1.4-4.2-2.2c0.3-0.1,0.5-0.2,0.8-0.3
		C132.6,150.7,133.3,150.8,133.7,151.3z"/>
	<path id="Tracé_9171" class="st130" d="M121.3,148.8h-0.8c-1.8,0.3-1.5-1.4-2.1-2.3c0-0.4,0.2-0.8,0.4-1.1
		c0.3-0.2,0.7-0.3,1.1-0.2c1,0.6,1.9,1.3,2.8,2.1c0.5,0.4,0.6,1.1,0.2,1.6C122.4,149.3,121.7,149.2,121.3,148.8z"/>
	<path id="Tracé_9172" class="st131" d="M118.8,146.3l1.7,2.5c-2.3,1.5-2.1-0.6-2.6-1.8C117.8,146.3,118.1,146,118.8,146.3z"/>
	<path id="Tracé_9173" class="st132" d="M136.2,153.7c-0.1-0.8,0.5-1.5,1.3-1.6c0.1,0,0.2,0,0.3,0c0.2,1.1-0.1,2.3-0.8,3.2
		C136.2,155.1,136.3,154.3,136.2,153.7z"/>
	<path id="Tracé_9174" class="st133" d="M126.2,149.6c-0.2,0.8-0.5,1.5-0.7,2.2c-0.5-0.2-1-0.4-1.6-0.6c-0.3-0.1-0.6-0.4-0.5-0.8
		c0.1-0.7,0.5-1.4,1.1-1.8C125.4,148.4,125.9,148.9,126.2,149.6z"/>
	<path id="Tracé_9175" class="st77" d="M118.8,146.3c-0.3,0.2-0.6,0.5-0.9,0.7l-0.7-1.5l1.7-0.9c0.7-0.1,1,0.2,0.8,0.9L118.8,146.3
		z"/>
	<path id="Tracé_9176" class="st134" d="M124,150.4c-0.1,0.3-0.1,0.6,0,0.8c-1.2-0.4-2.2-1.2-2.7-2.4h1.4
		C123.7,148.9,124,149.5,124,150.4z"/>
	<path id="Tracé_9177" class="st135" d="M180.2,126.4c0.5,1.2-1.4,4.4,2.4,2.7c2.3,5.4,10.4,7.2,9.3,14.7l0,0
		c-1.3,0.9-2.8,0.7-4.3,0.9l-1.5,0c-0.8-0.9-0.1-1.8,0.2-2.7c1.7-3.3-1.4-3.8-3-5.1c-0.7-1.1-2-1-3-1.5c-0.8-1,1.7-3.6-1.7-3.3
		c-1.5-1.9-1.4-3.9,0-5.8l0-3.3c0.5-0.5,1.4-0.5,1.9,0C181.1,124.3,180.8,125.4,180.2,126.4z"/>
	<path id="Tracé_9178" class="st136" d="M176.7,152.2l-0.7-0.8c-0.7-1.4-1.6-2.6-2.1-4c-0.5-0.9,0.3-1.9-0.4-2.7l0-2.5
		c0.4-0.5,0.5-1.8,0.9-1.6c1.8,1.2,1.6,0.1,1.7-1.2c-0.1-0.8,0.5-1.5,1.3-1.6c0.1,0,0.1,0,0.2,0c0.2,0.1,0.3,0.4,0.3,0.6
		c-0.1,0.2-0.1,0.3-0.2,0.3C177.1,143.3,178.8,147.9,176.7,152.2z"/>
	<path id="Tracé_9179" class="st137" d="M180.2,135.5c1.3-0.4,2.4-0.4,3.3,0.8c1.3,1.3,1,3.1,1.2,4.7c0,0.4-0.1,0.8-0.4,1.1
		c-4.1,1.9-4.1,1.9-4.1-2.5C180.1,138.3,180.2,136.9,180.2,135.5z"/>
	<path id="Tracé_9180" class="st138" d="M177.7,138.8c-0.1-0.3-0.1-0.5-0.1-0.8c-1.6-1.9-0.9-4.1-1.1-6.3c-0.1-1.4,0.1-2.9,0.4-4.2
		c0.2-0.4,0.5-0.8,0.9-1.1c0.2,0,0.5,0,0.8,0c0,1.9,0,3.9,0,5.8C178.2,134.4,179.3,136.8,177.7,138.8z"/>
	<path id="Tracé_9181" class="st139" d="M184.3,142.2v-0.8c-0.2-0.9,0.3-1.2,1-1.1c1.1,0.1,1.4,1,1.5,2l-0.8,2.6l-0.8,0.8
		C184.6,144.6,184.2,143.4,184.3,142.2z"/>
	<path id="Tracé_9182" class="st140" d="M187.6,144.8c1.1-1.6,2.8-0.8,4.3-0.9c-0.6,0.9-1.5,1.6-2.5,1.8L187.6,144.8z"/>
	<path id="Tracé_9183" class="st141" d="M177.6,131.4c0,2.2,0,4.4,0,6.7c-1.4,1.1-0.3,2.8-1,4.3c-1-0.9-2-1.8-3.1-0.1
		c-0.6-0.6-1.1-1.1-1.7-1.6c-0.9-3.1-2.9-5-6-5.6c-1.2-1.7-0.6-3.8-1.3-5.7c-0.2-0.9-0.2-1.7-0.1-2.6c0.1-0.4,0.3-0.8,0.5-1.1
		c3-1.5,4.4,1,5.5,2.8c1.6,2.4,3.4,4.6,5.6,6.4c-0.1-1-0.3-2.1,0.4-3C176.8,131.4,177.2,131.3,177.6,131.4z"/>
	<path id="Tracé_9184" class="st142" d="M171,142.2c0.3,0.9,1.3,2.5-0.6,2.4c-2.3-0.1-2.8,1.9-4.3,2.6c-2-2.8-1-5.8-0.9-8.8
		c0.7-2,1.9-1.3,3.1-0.5C169.9,138.9,170.2,140.7,171,142.2z"/>
	<path id="Tracé_9185" class="st143" d="M171,142.2c-2-1.3-2.6-4.1-5-5c-0.7-0.6-0.7-1.7-0.1-2.4c0,0,0,0,0.1-0.1
		c5.8,0,5.8,0,5.8,5.8C171.3,140.8,171,141.5,171,142.2z"/>
	<path id="Tracé_9186" class="st144" d="M166.1,134.7v2.5c0,3.3,0,6.6,0,9.9c0.6,1.1,0.3,1.7-1,1.8l0.1-0.1c-0.4-1.1-0.7-2.3-1-3.5
		c-0.2-1.5-0.2-3-0.1-4.5c0.6-4-1.3-8.2,1.2-12C166.8,130.6,165.8,132.8,166.1,134.7z"/>
	<path id="Tracé_9187" class="st145" d="M172.7,148.8c-2-0.2-0.2,2.1-1.6,2.3c-0.2-1.6-3.7-4.4,1.5-4c0.5,0.4,0.5,1.1,0.1,1.6
		C172.7,148.7,172.7,148.8,172.7,148.8z"/>
	<path id="Tracé_9188" class="st146" d="M172.7,148.8c0-0.6,0-1.1,0-1.7c0.3-0.8,0.6-1.7,0.9-2.5c0.9,0.6,0.9,1.5,0.9,2.5
		c0.5,1-0.1,1.4-0.9,1.8C173.2,148.9,172.9,148.8,172.7,148.8z"/>
	<path id="Tracé_9189" class="st147" d="M156.9,148.8c-2.5,3-4.9,0-7.4,0c-0.2-0.2-0.3-0.5-0.3-0.7c0.6-2.6-0.7-3.5-3.1-3.3
		c-0.4-2.7,2.3-3.4,3.5-5c1.1-1.1,2.3-2.3,4.1-1.9c1.5,1.9,3.3,3.4,5.5,4.5c3.4-1.9,3,0.9,3.4,2.8c0,0.8-0.2,1.6-0.6,2.2l-0.2,2
		c-1.1,0.2-1.5-0.3-1.6-1.2C158.8,146.8,157.7,147.2,156.9,148.8z"/>
	<path id="Tracé_9190" class="st148" d="M162,147.3l-0.1-2.7c1.4-1.1,2.4-0.6,3.2,0.8c0,1.1,0,2.3,0,3.4
		C164.1,148.5,164.3,145.2,162,147.3z"/>
	<path id="Tracé_9191" class="st149" d="M173.5,148.9l0.9-1.8c1.2,1.1,1.8,2.7,1.6,4.3l-1.6-0.9C174,149.9,173.8,149.4,173.5,148.9
		z"/>
	<path id="Tracé_9192" class="st150" d="M220.1,136.9c-1.4-0.6-2.5-1.9-4.2-1.5c0.1-2.4,1.2-4,3.7-4.5c0.4-0.4,0.6,1,0.7,0.2
		c0.1-1.1-0.2-2.1,0.9-2.8c0.8-0.3,1.6-0.2,2.3,0.3c1.3,2.7,0,5-1.1,7.4C221.8,136.8,220.9,137.1,220.1,136.9z"/>
	<path id="Tracé_9193" class="st151" d="M219.9,131.4c-2.1,0.6-2.8,2.7-4.1,4.1c-1.1,0.5-2.1,1-3.3,0.7c-0.9-1.2-0.2-2.9-1.1-4.1
		c1.4-3.1,4.9-1.3,7-3c0.6-0.1,1.2,0.2,1.7,0.6C220.4,130.2,220.4,130.9,219.9,131.4z"/>
	<path id="Tracé_9194" class="st152" d="M211.7,132.2c3.2,0.7,0.6,2.6,0.8,3.9c-0.5,1.1-1.6,0.8-2.5,1.1c-0.5-0.4-0.6-1-0.5-1.6
		C210.1,134.4,210.6,133.1,211.7,132.2z"/>
	<path id="Tracé_9195" class="st153" d="M220.1,136.9l1.6-0.7c0.7-0.6,1.7-0.5,2.4,0.1c-0.3,0.5-0.6,1.1-1,1.6l-2.3,0.3
		C220.5,137.7,220.3,137.3,220.1,136.9z"/>
	<path id="Tracé_9196" class="st69" d="M210,135.5c0,0.6,0,1.1,0.1,1.7c0,0.3-0.1,0.5-0.2,0.8l-2.4-1.6c-0.7-0.8-0.4-1.4,0.5-1.9
		C208.8,134.4,209.6,134.8,210,135.5z"/>
	<path id="Tracé_9197" class="st154" d="M204.3,141.4c0.4-5.3,2.8-0.5,4.2-0.9c-0.4,0.4-0.7,0.9-1.1,1.4
		C206.2,142.8,205.4,141.1,204.3,141.4z"/>
	<path id="Tracé_9198" class="st155" d="M204.3,141.4c1.3-1.3,2.1,0.5,3.2,0.5c0,0.6,0,1.2,0,1.8c-1.2,0.4-1.8-1.9-3.2-0.7
		L204.3,141.4z"/>
	<path id="Tracé_9199" class="st156" d="M232.4,86.6c0,1.9,0,3.9,0.1,5.8h0c-2.7,1.9-4.4-0.1-6-1.8c-3-3.2-6.1-6.2-9.1-9.4
		c-2.8,0.4-2.5-2.6-4-3.6c-0.4-2.7,2.1-2.4,3.4-3.3c0.2-0.1,0.5-0.2,0.7-0.1c1.4-0.8,2.2,0.1,2.9,1.1c0.2,0.3,0.3,0.7,0.4,1.1
		c0.1,2.4,2,2.7,3.8,3.1c0.8,0.3,1.7,0.9,1.8,1.6C226.5,84.8,229.5,85.6,232.4,86.6z"/>
	<path id="Tracé_9200" class="st157" d="M232.4,73.4c0,3.3,0,6.6,0,9.9c-0.4,0.6-1,1.4-1.6,0.9c-3.9-2.9-8.3-5.4-9.6-10.6
		c0.5-1.3,1.9-1.2,2.9-1.9l1.7-0.8C227.9,72,230.6,71.3,232.4,73.4z"/>
	<path id="Tracé_9201" class="st158" d="M215,61.7l-0.9,0.8c-0.7,0.7-1.5,0.6-2.3,0.5c-0.4-0.2-0.6-0.5-0.9-0.8
		c-2.4-3.3-5.5-6-8.5-8.8c-2.8-2.5-4.8-5.5-7.6-8c-0.9-0.8-1.7-1.9-0.2-3.1c2.8,0.1,5.5,0.5,7.6,2.5c0.3,2.8,1.5,4.6,4.6,4.7
		c0.9,0.5,1.5,1.3,1.7,2.4c0.1,2.9,2.5,3,4.5,3.5c0.8,0.5,1.5,1,2.2,1.6c1.1,0.8,0.5,2,0.8,3C216.2,60.9,215.6,61.3,215,61.7z"/>
	<path id="Tracé_9202" class="st159" d="M207.6,65.1c1.8,0.7,2.8,2.3,5.4,2.2c1.8-0.1,1.8,3.4,1.8,5.4c0,0.7-0.2,1.2,0.5,1.6
		c-0.2,1.4-1.4,1.3-2.3,1.4c-1.2-0.2-1.8-1.2-2.4-2.1c-1.8-2.7-4.4-4.3-7.2-5.8c-0.4-1.2,0.5-1.7,1.2-2.3c0.8-0.6,1.6-1.1,2.6-0.7
		C207.3,64.9,207.4,65,207.6,65.1z"/>
	<path id="Tracé_9203" class="st93" d="M232.4,73.4c-2.4-0.3-4.7-0.8-6.6-2.4c0.2-0.1,0.4-0.2,0.7-0.2c0.8-0.1,1.7,0.1,2.4-0.3
		C232.1,68.9,232.8,70.4,232.4,73.4z"/>
	<path id="Tracé_9204" class="st160" d="M216.6,50.1v-5.8c-0.2-0.2-0.3-0.4-0.2-0.6c0-0.2,0.1-0.3,0.1-0.3c0.3-0.2,0.7-0.2,0.9,0.1
		c0,4.7,0,9.4,0.1,14.1c-0.3,0.3-0.8,0.3-1.1-0.1c0,0-0.1-0.1-0.1-0.1c-0.4-0.6-0.7-1.2-0.7-1.9C215.6,53.6,216.2,51.9,216.6,50.1z"
		/>
	<path id="Tracé_9205" class="st161" d="M217.5,43.5h-0.8c-1.7-2.8-1.7-6.3,0-9.1c0-1.2,0.1-2.3,0.1-3.5
		C218.4,35,217.3,39.3,217.5,43.5z"/>
	<path id="Tracé_9206" class="st162" d="M212.6,75.1c0.9,0,1.9,0,2.6-0.8c0.5,0,1,0,1.5,0c-0.6,1.6-2.8,1.5-3.3,3.2
		c0.2,1.2-0.5,1.2-1.4,1.1c-0.7-0.3-1.2-0.9-1.4-1.7c-0.1-0.3-0.1-0.7,0.1-1.1C211.1,75.2,212,75.4,212.6,75.1z"/>
	<path id="Tracé_9207" class="st163" d="M220,69.2l2.5,0.8c-1.2,1.4-3.3,0.7-4.7,2.5C217.9,70.3,218.9,69.8,220,69.2z"/>
	<path id="Tracé_9208" class="st164" d="M211.7,62.7c0.8-0.1,1.6-0.2,2.4-0.3c-1.7,2-4.2,2.2-6.6,2.7l-0.2-0.2
		c0-1.1,0.9-1.5,1.7-1.9C209.9,62.6,210.8,62.5,211.7,62.7z"/>
	<path id="Tracé_9209" class="st165" d="M216.6,57.6l0.9,0c0.1,2,0.4,4-2.5,4.1c0.3-0.5,0.5-1.1,0.8-1.6
		C215.4,59,216.1,58.3,216.6,57.6z"/>
	<path id="Tracé_9210" class="st91" d="M224.1,71.7l-2.5,1.7c-0.3,0.4-0.8,0.6-1.3,0.4c-0.3-0.1-0.5-0.4-0.5-0.7
		C221.1,72.1,222.6,71.6,224.1,71.7z"/>
	<path id="Tracé_9211" class="st157" d="M220,75.8c-0.9-0.6-1.3-1.8-2.6-1.7c0.6-0.8,1.6-0.8,2.5-1l0.1,0.3
		C220.6,74.1,220.7,75.1,220,75.8C220,75.8,220,75.8,220,75.8z"/>
	<path id="Tracé_9212" class="st166" d="M222.4,64.2c0,1.2,0,2.4-1.6,2.5C219,64.3,220.7,64.3,222.4,64.2z"/>
	<path id="Tracé_9213" class="st161" d="M210.8,33.5l-0.1-1.5c0.5-0.1,0.9-0.2,1.4-0.4c1.6-0.4-1.3,6,2.8,1.9
		c1.2,2.6,1.3,5.6,0.1,8.2c-2.7-0.6-3.2-3.7-5.5-4.9C208.2,36.1,210.1,34.6,210.8,33.5z"/>
	<path id="Tracé_9214" class="st167" d="M214.2,41.8c1.7-2.6,0.4-5.5,0.8-8.3l1.7,0.8v10c-0.8,1.2-1.7,1.2-2.5,0
		C213.6,43.5,213.4,42.7,214.2,41.8z"/>
	<path id="Tracé_9215" class="st168" d="M214.2,41.8c0,0.8,0,1.7,0,2.5c-3.1-1.6-4.8-4.7-8.2-6.3c-3.3-1.5,1.8-2.5,1.6-4.4
		c1.1,0,2.2-0.1,3.3-0.1c0.1,1.5-1.7,3.6,1.7,4C214.3,37.8,214.2,40.1,214.2,41.8z"/>
	<path id="Tracé_9216" class="st138" d="M180.2,126.4v-3.3c-0.7-0.7-0.7-1.8,0-2.5c0,0,0,0,0,0c0.9,0.1,1.2-2,2.7-0.5
		c3.7,3.7,7.6,7.3,11.4,10.9c0.8,0.8,1.6,1.5,1.6,2.8c-0.1,1.9,0.8,2.8,2.7,2.6c2.1-0.1,2.4,0.8,1.5,2.5c-1.7,0.1-1.7,1.3-1.7,2.5
		l-1.6,0.8c-0.1-2.8-3.6-2.9-4.1-4.7c-1.4-4.8-7.5-5.6-8.5-10.9C183.7,123.9,181.6,124.1,180.2,126.4z"/>
	<path id="Tracé_9217" class="st169" d="M182.6,110.7V109c-0.3-0.6,0.1-1.1,0.5-1.5c2.1-2.6,3.9-1.7,5.8,0.3
		c5,7.4,12.3,12.7,18.2,19.3c0.4,0.4,0.6,1,1.1,1.2c2.5,1.2,2.5,1.2,1.1,3.7c-3.7,2.5-5.2-1.3-7.6-2.6
		C195.6,122.8,189.6,116.2,182.6,110.7z"/>
	<path id="Tracé_9218" class="st170" d="M182.6,110.7c1-0.5,2-1.1,2.9,0.1c4.5,5.9,10.2,10.7,15.6,15.8c0.7,0.7,0.6,1.5,0.6,2.3
		c-0.3,0.2-0.7,0.3-1,0.1c-1.8-1.2-3.3-2.8-4.8-4.3c-1.4-0.7-2.4-2.3-4.3-2c-0.4,0-0.8,0-1.1-0.2c-0.1-4.4-3-5.7-6.6-6.9
		C183,115.3,183,112.4,182.6,110.7z"/>
	<path id="Tracé_9219" class="st171" d="M178.4,110.7c0.1,0.6-0.1,1.3-0.7,1.7c-0.3,0.2-0.6,0.5-0.8,0.7c-0.8,0.7-1.7,1.5-2.9,0.9
		c-1.5-1.9-3.5-3.3-5.7-4.2c-0.5-1-0.1-1.9,0.2-2.8c0.7-1.4,1.4-2.9,3-3.6c2-1.1,2.9,0.9,4.2,1.6c0.9-1-0.8-3.8,2.4-3.1
		c0.5,0.9,0.7,2,0.7,3C178.7,106.8,179,108.8,178.4,110.7z"/>
	<path id="Tracé_9220" class="st172" d="M200.9,128.9h0.8c1.1,0,2.1,0.1,2.7,1.2c1.1,2.3,2.9,1.8,4.8,1.2c0.9,1.4,0.3,2.4-0.8,3.3
		c-0.6,0.3-0.9,1-0.8,1.7c-2.9,1.4-5.4,0.2-5.7-3c-0.2-1.6-0.8-3.1-1.8-4.4C200.3,128.5,200.6,128.5,200.9,128.9z"/>
	<path id="Tracé_9221" class="st173" d="M176.8,112.3c0.3,0,0.6,0,0.9,0c-0.1,3.6-0.1,7.2-0.2,10.7c-0.3,0.3-0.6,0.4-1,0.4
		c-2.1-0.6-3.4-2.3-4.9-3.7c-0.2-1.7,1.2-2.6,1.9-3.9C174.6,114.6,176.2,113.9,176.8,112.3z"/>
	<path id="Tracé_9222" class="st170" d="M200.9,128.9h-0.8c-3.3,0.5-4.7-0.8-4.1-4.1C198.6,125,199.4,127.3,200.9,128.9z"/>
	<path id="Tracé_9223" class="st138" d="M178.5,119.8c0.3-2.2-0.6-4.6,1.7-6.8v6.8C179.7,120.2,179,120.3,178.5,119.8
		C178.6,119.8,178.5,119.8,178.5,119.8z"/>
	<path id="Tracé_9224" class="st174" d="M183.5,108.2c-0.3,0.3-0.5,0.5-0.8,0.8c-1.1,0.5-1.9,1.8-3.3,1.7c-0.6-0.5-0.8-1.4-0.5-2.1
		c0.1-0.3,0.4-0.7,0.6-0.9c0.9-0.6,1.8-1.4,3-1.4c0.6,0.1,1,0.5,1.3,1C183.9,107.5,183.7,107.9,183.5,108.2z"/>
	<path id="Tracé_9225" class="st175" d="M179.3,108.2c0,0.8,0,1.7,0,2.5l-0.9,0c-1.4-1.8-0.5-3.9-0.6-5.8c0.3-0.2,0.8-0.2,1.1,0.1
		C179.6,105.9,180.3,106.9,179.3,108.2z"/>
	<path id="Tracé_9226" class="st68" d="M178.5,119.8h1.7v3.3h-1.7V119.8z"/>
	<path id="Tracé_9227" class="st176" d="M176.8,123.1c0.2,0,0.5,0,0.7,0c0.1,1.1,0.1,2.2,0.2,3.3c-0.1,0.3-0.1,0.5-0.1,0.8
		c-0.4,0.1-0.9-0.1-1.1-0.4C175.7,125.6,175.9,124.1,176.8,123.1z"/>
	<path id="Tracé_9228" class="st177" d="M116.3,122.3c0-1.2,0-2.4,1.7-2.5c1.3,0.3,2.7,0.6,4.1,0.9c0.3,0.2,0.6,0.5,0.8,0.8
		c0.5,1.1,1,2.2,0.2,3.4c-2.4,0.8-4-1-5.9-1.8C116.9,122.8,116.6,122.5,116.3,122.3z"/>
	<path id="Tracé_9229" class="st46" d="M122.2,121.3c0-0.2-0.1-0.4-0.1-0.6c1.9-0.8,3.9-1.7,5.8-2.6c0.1,1.3,1.9,3.8-2.4,2.3
		l3.2,2.8c-0.6,0.6-1.5,0.7-2.3,0.5C124.8,123.1,123.2,122.7,122.2,121.3z"/>
	<path id="Tracé_9230" class="st178" d="M116.3,122.3c0.3,0,0.6,0,0.8,0c1.9,4.4,5.9,7.1,9.2,10.2c3.1,2.9,5.5,6.4,9,8.9
		c1.5,1,2.9,3.3,1.9,5.8c-0.5,0.5-1.1,0.7-1.8,0.7c-0.7,0-1.3-0.3-1.8-0.8c-1.1-3.7-4.6-5.4-6.9-8c-1.9-2.2-4-4.2-6.1-6.1
		c-1-1-1.9-2.9-3.6-2c-1.5,0.7-0.6,2.5-0.8,3.8c0.6,0.6,0.8,1.5,0.6,2.4c-0.3,0.6-0.6,1.1-1.4,0.9l0-3.3l0-9.1
		C116.7,124.7,116.2,123.4,116.3,122.3z"/>
	<path id="Tracé_9231" class="st179" d="M119.6,145.5l-0.8-0.9c0-0.2-0.1-0.5-0.1-0.8c0.3-3.3,0.6-3.3,4.3-1
		c0.5,0.8,0.3,1.8-0.4,2.4C121.7,145.8,120.8,146.3,119.6,145.5L119.6,145.5z"/>
	<path id="Tracé_9232" class="st180" d="M115.5,138l0.8-0.8c2.4,0.4,1.7,2.6,2.2,4.1c0,0.6-0.2,1.3-0.6,1.8
		c-0.8-0.6-1.7-1.1-2.5-1.6C115.5,140.3,115.5,139.1,115.5,138z"/>
	<path id="Tracé_9233" class="st181" d="M117.9,143l0-1.7c1.9-2.6,3.5-2.1,4.9,0.5c0.3,0.3,0.3,0.8,0,1.2c-1.2,1.3-3.6-3.5-4.2,0.8
		C118.5,143.6,118.2,143.3,117.9,143z"/>
	<path id="Tracé_9234" class="st41" d="M167.7,30.2c1.1-1.5,2.2,0.3,3.3,0v0c0.9,0.7,2.2,0.4,2.9,1.6c1.5,1.5,4,1.3,5.2,3.2
		c0.1,7.6,6.8,10.2,11,14.7c0.3,0.3,0.5,0.6,0.7,1c0.4,1.2,0.3,2.5-0.4,3.6c-2.2,1.3-3.7-0.2-5-1.6c-4.4-4.7-8.8-9.6-13.8-13.4
		c-2.4-1.8-1.2-3.5-2.2-4.9C168.7,33.2,168.7,31.4,167.7,30.2z"/>
	<path id="Tracé_9235" class="st182" d="M167.7,30.2c4.4,1.6,1.5,5.5,2.7,8.2c1.1-0.2,0.2-1.5,1.1-1.9c2.2,4.9,7,7.4,10.6,11.1
		c2.4,2.5,3.9,6.2,8,6.6c1.1,1.1,1.1,2.4,0.6,3.7c-2.7,0.9-6-0.7-8.1-3.2c-3.4-4-7-7.8-10.8-11.3c-0.4-0.4-1,0.3-1.5,0
		c-1.3-2.6,0.6-6.2-2.5-8.3C167.7,33.5,167.7,31.9,167.7,30.2z"/>
	<path id="Tracé_9236" class="st183" d="M232.4,125.6c0.1,2.1,0.3,4.3-1.6,5.9c-0.5,2.2-1.9,1.7-3.4,1.2c-1.1-0.7-2-1.7-2.5-2.9
		c-0.9-2.6-3.1-4-5-5.7c-0.3-0.2-0.5-0.5-0.8-0.8c-1.7-1.9-3.6-3.6-5.4-5.4c-0.4-0.4-0.8-0.8-1.2-1.2c-1.8-1.9-3.7-3.7-5.6-5.5
		c-1.9-2-3.9-4-5.9-5.9c-2.8-1.7-3.2-5.2-5.6-7.2c-0.4-0.7-0.4-1.6,0-2.3c2.9-3,5.5-0.2,6.4,1.4c4.3,7.5,11.4,12.2,16.9,18.4
		c3.3,3.7,6.9,7.1,10.4,10.6c0.6,0.6,0.9,1.4,0.8,2.3c-0.4,0.4,0.2,0-0.2,0.4c-0.2,0.2-0.4,0.4-0.7,0.5c0.3,0.2,0.3-0.3,0.6-0.3
		c0.7-0.8,0.7-1.8,1.1-2.7c0.1-0.3,0.3-0.6,0.6-0.8C231.8,125.2,232.2,125.3,232.4,125.6z"/>
	<path id="Tracé_9237" class="st184" d="M224,136.3c-0.8,0-1.6-0.1-2.4-0.1c0.5-2.4,1.1-4.9,1.6-7.3c1-0.6,1.8-0.5,1.9,0.9
		c0.2,2.1-0.1,4.1-0.9,6C224.2,136,224.2,136.2,224,136.3z"/>
	<path id="Tracé_9238" class="st185" d="M224.2,135.8c0.2-2-0.9-4.2,0.7-6.1c0.3-0.4,0.6-0.4,0.8,0c0.6,1,1.1,2,1.7,3
		C225.5,132.9,225.7,135.2,224.2,135.8z"/>
	<path id="Tracé_9239" class="st186" d="M142,147.1l-0.9,0.9c-1.2,0.8-2.1,0.1-2.9-0.8c-0.3-0.6-0.4-1.3-0.2-1.9
		c0.7-3.1,0.1-6.3,0.5-9.4c0.1-0.8,0.3-1.7,1.2-1.9c0.8-0.1,1.1,0.7,1.3,1.3c0.9,2.9,5.1,3.4,4.9,7.1
		C145.7,144.8,144.1,146.1,142,147.1z"/>
	<path id="Tracé_9240" class="st187" d="M138.7,145.5l0,1.7c0.4,0.4,0.4,1.2,0,1.6c0,0,0,0,0,0c-0.1,0.9,0.2,1.9-0.8,2.6
		c-0.6-0.3-1.1-0.6-1.7-0.9c-0.5-1-2-1.8-0.9-3.3h1.7c1.2-1.7-0.5-3.3-0.1-5c0.1-0.7,0.4-1.3,0.9-1.8c0.4-0.2,0.9,0,1.2,0.4
		C139,142.3,139.4,143.9,138.7,145.5z"/>
	<path id="Tracé_9241" class="st188" d="M142,147.1l3.3-4.1c1-1.5,1.7-3.3,3.8-3.6c0.6,0.1,0.9,0.6,1.1,1.1
		c-1.3,1.4-3.2,2.3-4.1,4.2c-0.3,1.1-1,1.9-2,2.4c-0.2,0-0.4,0.1-0.5,0.1L142,147.1z"/>
	<path id="Tracé_9242" class="st189" d="M146.2,149.7l-0.1,1.4c-1.1,1.1-1.8,0.4-2.4-0.6c0-1.1,0-2.2,0-3.3l0,0
		C146.3,146.3,146.1,148.1,146.2,149.7z"/>
	<path id="Tracé_9243" class="st190" d="M143.7,150.5l2.4,0.6c-0.2,0.3-0.5,0.6-0.7,0.9c-1.1,0.3-2.2,0.7-3.3,1
		C142.2,152,142.8,151.1,143.7,150.5z"/>
	<path id="Tracé_9244" class="st191" d="M138.7,148.8c0-0.6,0-1.1,0-1.7c0.8,0.3,1.6,0.6,2.5,0.8
		C140.7,149.3,139.9,149.5,138.7,148.8z"/>
	<path id="Tracé_9245" class="st192" d="M146.2,149.7c-1.2-0.5-0.7-2.7-2.5-2.6c0.5-1.1,1.4-2,2.5-2.5c1.6,0.1,2.3-1.4,3.9-2.1
		c-0.2,2.2,0.6,4.2-0.6,6.2l0,0.9l-1.6,0.9C147.3,150.2,146.8,150,146.2,149.7z"/>
	<path id="Tracé_9246" class="st193" d="M189.3,73.3c0.5-1.1,1.9-1.8,1.6-3.3c-0.4-2.8-0.6-5.6-1.2-8.4c0.8-3.8,1.1-7.7,0.7-11.6
		c-0.8-3.6-1.6-7.3,0.5-10.8c0.2,0,0.4,0,0.6,0c0.2,0.1,0.4,0.3,0.6,0.4c0.6,1,0.8,2.2,0.8,3.3c0,2.8,0,5.5,0,8.3c0,0.7,0,1.4,0,2.1
		c0,1.1,0,2.3,0,3.4c0,1.6,0,3.1,0,4.7c0,1.9-0.1,3.8,0,5.7c0,0.9,0.4,1.8,1.2,2.3c1,1.1,2.2,2.3,2.7,3.7c0.8,2.4,2.3,3.2,4.6,3.3
		c1.3,0.1,2.5,0.4,3.1,1.8c-0.1,1.6-1.5,1.7-2.6,2.2c-1.3,0.5-2.7,0.9-4.1,1.1c-1.7,0.1-3.5,0.5-5.1,1.2c-0.8,0.2-1.6,0-2.2-0.6
		c-0.4-0.4-0.7-0.9-0.9-1.4c-0.6-1-0.4-2.4-1.4-3.3c-0.5,0.1-1,0.1-1.5-0.2C186.7,75.6,188.7,74.9,189.3,73.3z"/>
	<path id="Tracé_9247" class="st194" d="M190.9,39.3l-0.1,10.8c-0.2,0.4-0.5,0.4-0.8,0l0,0c-1.5-2.9-3.6-5.4-6.2-7.4
		c-1.5-1.2-3.2-3.1-1.7-5.5c1.6-0.6,3.1-0.1,4.6,0.5C188.4,37.4,190,38,190.9,39.3z"/>
	<path id="Tracé_9248" class="st195" d="M186.8,37.7l-5,0c-2.4,0.9-1.7-2.3-3.3-2.5c-1.1-1.9-4.1-1.1-5-3.3
		c0.2-0.2,0.5-0.3,0.7-0.1c0,0,0.1,0,0.1,0.1C178.6,33.7,183,35,186.8,37.7z"/>
	<path id="Tracé_9249" class="st196" d="M193.7,37.8l8-2.4l-0.8,1.4c-0.4,1-1.3,1.7-2.4,1.8c-2.1,0.2-4.1,2.3-6.4,0.6h-0.2
		l-0.2,0.1L193.7,37.8z"/>
	<path id="Tracé_9250" class="st197" d="M186,32.7c1.1-1.2,2.4-1.1,3.6-0.4c0.3,0.2,0.4,1,0.3,1.4c-0.4,1.3-1.3,1-2.2,0.6
		C187.3,33.6,186.7,33,186,32.7z"/>
	<path id="Tracé_9251" class="st78" d="M174.4,31.8l-0.8,0.1l-2.5-1.6C172.3,30.4,174,29.6,174.4,31.8z"/>
	<path id="Tracé_9252" class="st198" d="M156.9,148.8c0.3-0.9-0.5-2.5,0.8-2.7c1-0.2,1.9,1,2.5,2c-1.6-0.7-2.3,0.6-3.2,1.5
		L156.9,148.8z"/>
	<path id="Tracé_9253" class="st199" d="M220,75.8c0-0.8,0-1.6,0-2.4l1.6-0.1c2.6,4.4,5.3,8.7,10.8,9.9c0,1.1,0,2.2,0,3.3
		c-3-0.3-7.4,1.5-6.5-4.6c0.1-0.6-1.1-1.4-1.8-2.1C222.6,78.7,221.3,77.3,220,75.8L220,75.8z"/>
	<path id="Tracé_9254" class="st200" d="M232.4,118.1v3.3c-1,1.2,0.2,2.9-0.8,4.1c-1.2,0.9-2.2,0.3-2.8-0.7
		c-1.4-2.2-3.6-3.4-5.2-5.2c-5.9-6.4-12.3-12.2-18.3-18.4c-2.5-2.7-4.7-5.7-6.4-8.9c0-1.3,0.9-2.5,2.2-2.7c3.3,1.6,7,2.5,8.1,7.1
		c0.4,1.9,3.9,1.6,5.2,3.6c0.7,1.6,1.1,3.5,3.2,4.1c2.8,3.5,6.4,6.2,9.2,9.7C228.2,116.1,230.4,116.9,232.4,118.1z"/>
	<path id="Tracé_9255" class="st201" d="M232.4,107.3v5.8c-0.3,0.3-0.7,0.4-1.1,0.4c-1.9-0.5-3.6-1.6-4.7-3.1
		c-5.1-7-12.1-12.2-17.7-18.8c-1.7-2-2.9-4.4-3.3-6.9c0.2-1.2,1.1-1.6,2.1-2c2.2-0.4,3.4,0.9,4.4,2.7c0.7,4,4.1,6,6.6,8.6
		c3.2,3.5,7.4,6.1,9.3,10.8C228.7,106.5,230.5,107.2,232.4,107.3z"/>
	<path id="Tracé_9256" class="st202" d="M232.4,107.3c-2.9,2.8-4.6-0.5-5.2-1.8c-3-7.2-10.2-10.5-14.7-16.3c-1-1.3-1.7-2-0.8-3.4
		c1.2-1,2.1-0.2,2.8,0.6c4.2,5.3,9.7,9.4,14.1,14.5c1.9,2.2,1.9,2.2,3.8,0.7c0,1.1,0,2.2,0,3.3C232.4,105.7,232.4,106.5,232.4,107.3
		z"/>
	<path id="Tracé_9257" class="st203" d="M231.6,113.1c0.3,0,0.5,0,0.8,0c0,1.7,0,3.3,0,5c-2.9,1.9-5.4-1.6-5.7-2.2
		c-2.1-4.6-7.8-6.2-9.2-11.1c0.3-0.3,0.6-0.5,1-0.6c3.6,0.7,5.1,3.8,7.5,5.9c1.1,1.4,2,3,3.8,3.6
		C230.4,113.9,231.1,113.6,231.6,113.1z"/>
	<path id="Tracé_9258" class="st204" d="M231.6,125.6c0.2-1.4-0.6-3,0.8-4.1c0,1.4,0,2.8,0,4.1
		C232.1,125.6,231.8,125.6,231.6,125.6z"/>
	<path id="Tracé_9259" class="st92" d="M232.4,101.5c-1.5,1.1-0.4,2.9-1.3,4.6c-4.4-7.8-12.5-12-17.3-19.3
		c-0.5-0.7-1.3-1.1-2.1-1.1c-1.2-1.1-2.1-2.8-4.1-2.5c-0.2-2.7,2.6-3,3.6-4.7c0.2-0.1,0.3-0.2,0.5-0.2c0.7,0.1,1.3-0.3,1.7-0.8
		c0.2,0.8,4.1-1.9,1.6,1.8c-0.6,0.8,1.6,0.4,2.5,0.7c0.1,1.5,0.8,2.9,1.9,3.9c3.1,3.1,6.5,5.8,8.3,10c0.8,2,2.6,2.5,4.7,1.9
		L232.4,101.5z"/>
	<path id="Tracé_9260" class="st205" d="M232.4,95.7c-1.8,2.6-4.6,2.1-6-1.8c-1.6-4.4-5.2-6.7-8.1-9.7c-1.3-1.4-2.7-2.4-0.8-4.2
		c1.4,0.1,1.9,1,2.6,2.2c2.3,3.9,6.2,6.4,9.2,9.7c0.6,0.6,2.1,0.4,3.1,0.5C232.4,93.5,232.4,94.6,232.4,95.7z"/>
	<path id="Tracé_9261" class="st206" d="M138.6,68.3c0-0.8,0-1.6,0-2.4l1.7,0.8c0.9-0.5,1.8-0.1,2.6,0.2c1.1,0.7,2.6,0.5,3.8,0.9
		c0.3,0.2,0.6,0.5,0.8,0.9c0.2,0.6,0.4,1.2,0.4,1.8c0.1,1.3,0,2.6-1,3.6C143.5,73.3,141.9,69.6,138.6,68.3z"/>
	<path id="Tracé_9262" class="st207" d="M142.9,67.5l-2.5-0.8c0.3-0.8,0.9-1.4,1.7-1.7c1-0.3,2.2-1.2,2.5,0.8c0,0.3,0,0.6,0,0.8
		C144.2,67.4,143.8,68,142.9,67.5z"/>
	<path id="Tracé_9263" class="st208" d="M144.5,65.9c-0.6-1-1.6-0.8-2.5-0.8c0.3-0.3,0.6-0.6,0.8-0.8l4.1,0
		C146.4,65.2,145.4,65.4,144.5,65.9z"/>
	<path id="Tracé_9264" class="st209" d="M177.7,83.3c-5-5-10.9-9-14.9-14.9c0-1.4-0.9-2.3-1.9-3c-0.8-0.6-1.9-1.1-1.5-2.2
		c0.4-1.1,1.7-0.4,2.6-0.6c0.6,0,1.1-0.1,1.7,0c0.1,0.7,0.4,1.7,1.2,1.2c1.7-1.2,2.3-0.7,2.1,1.1c-0.4,3.5,2.2,5,4.5,5.8
		c1.8,0.5,3.3,2,3.8,3.8c0.2,0.6,0.6,1.6,1,1.7c4.4,0.6,4.9,3.7,4.9,7.2c0.4,0.9,0.5,1.7-0.9,1.6C179.1,85,178,84.3,177.7,83.3
		c0.1-0.1,0.1-0.2,0.2-0.2C177.6,83.5,178,82.8,177.7,83.3z"/>
	<path id="Tracé_9265" class="st210" d="M180.2,84.9c0.6-0.3,0.9-1,0.9-1.6c2.6-1.3,3.2-4.5,5.7-5.8c0.6-0.3,1.1-0.5,1.7-0.8
		c1.3,1.1-1.5,3.8,1.7,4.2l0.8,0.8c-0.9,0.8-0.3,1.3,0.2,1.9c-0.3,1.3-1.5,1.5-2.3,2.1c-0.6,0.4-1.4,0.7-2.1,0.9
		c-2.5,0.4-4.5,2.2-7.1,2.5c-0.6,0-1.2-0.1-1.7-0.4c-0.1-0.2-0.2-0.3-0.4-0.5L180.2,84.9z"/>
	<path id="Tracé_9266" class="st211" d="M179.3,68.4c0.9,4.7,5,4.3,8.3,5c-2.7,4.4-6.1,0.6-8.9,0.3
		C177.1,73.4,176.6,69.9,179.3,68.4z"/>
	<path id="Tracé_9267" class="st212" d="M190.9,61.7c0,2.8,0,5.6,0,8.4c-0.3-0.3-0.5-0.6-0.8-0.9c0.2-3.6-0.7-6.4-5-6.6
		c-3.2-5.5-7.7-10-13.1-13.4c-0.6-0.5-1.3-1-1.8-1.6c0-1.1,0-2.2,0-3.3v-0.8c0.7,0,0.2-2.8,2.3-0.5c3.7,4,8.3,7.2,11.3,12
		c1.1,1.7,4.1,2.3,6.2,3.3C191,59.3,190,60.7,190.9,61.7z"/>
	<path id="Tracé_9268" class="st213" d="M147,75.9c0.9-1.3,2.2-0.8,3.4-0.9c0.4-0.5,1-0.8,1.6-1c1.4-0.3,2.9-1.1,4.2,0.2
		c0.9,1.2,2.2,0.7,3.3,0.8c0.9,1.3,1.2,3,0.9,4.6c-0.1,0.4-0.3,0.8-0.6,1.2c-1.6,1.2-3.2,0.5-4.6-0.3c-2.6-1.3-5.5-1.9-7.9-3.5
		C146.8,76.8,146.7,76.3,147,75.9z"/>
	<path id="Tracé_9269" class="st214" d="M156.1,74.2L152,75c-1.6-1.7-3.4-3.2-5-5v-1.7c1.9-1.9,4.6-0.3,6.6-1.7
		c1.6,1.9,2,4.6,4,6.4C158.8,74.2,156.8,73.9,156.1,74.2z"/>
	<path id="Tracé_9270" class="st214" d="M159.4,80c0-1.7,0-3.3,0-5c2.4,0.8,3.1,5.1,6.8,3.2c0.4-0.2,2.6,4.6,2.3,5.1
		c-0.8,0.7-2,0.9-2.5,0.2C164.3,81.2,161.5,81.4,159.4,80z"/>
	<path id="Tracé_9271" class="st215" d="M159.4,80c2.6,0,5.5-0.7,6.8,2.8c0.1,0.4,1.5,0.4,2.3,0.5c1.9,2.4,5.5,1.9,7.4,4.2
		c-1.6,1.2-3.3,0.2-4.9,0.1c-3.7-2.2-7.9-3.3-11.6-5.6c-0.3-0.3-0.3-0.8-0.1-1.1L159.4,80z"/>
	<path id="Tracé_9272" class="st216" d="M171,86.6l4.9,0.9c0.4,0.5,1,0.8,1.6,0.7c0.1,0.1,0.1,0.3,0.2,0.4c0.1,0.5-0.1,0.9-0.4,1.3
		c-1.7,1.8-3.7,2.4-5.8,1C170,89.8,169.8,88.2,171,86.6z"/>
	<path id="Tracé_9273" class="st217" d="M153.6,66.7c-1.7,2.7-4.4,1.1-6.6,1.7l0,0c0-2.3,3-0.6,3.3-2.5v0L153.6,66.7z"/>
	<path id="Tracé_9274" class="st214" d="M161.5,72.7c0.1,0.9-0.1,1.3-0.8,1.3c-0.6,0-1.1-0.2-1.1-0.9c0-0.6,0.1-1.2,0.8-1.1
		C160.8,72.2,161.2,72.4,161.5,72.7z"/>
	<path id="Tracé_9275" class="st218" d="M150.3,65.9c0,2.3-2.6,1.1-3.3,2.5c-1.4-0.2-3,0.6-4.1-0.8c0.6-0.3,1.1-0.6,1.6-0.8
		c1.2-0.1,2.5,0.4,3.3-0.8C148.6,66.4,149.6,66.4,150.3,65.9z"/>
	<path id="Tracé_9276" class="st219" d="M134.6,125.6c2.9-4.4-1.4-6.6-3.6-8.1c-2.3-1.6-1.6-2.8-1.5-4.5c0.1-0.1,0.3-0.2,0.5-0.3
		c2.9,0,5.2,0.4,6.6,3.8c1.9,4.3,6.3,5.9,10.6,7.4c0.2,1.3-0.8,1.7-1.6,2.2c-1.3,0.5-2.6,0.9-4,1.2c-0.8,0.2-1.6,0.4-2.3,0.6
		C137.2,128,135.4,127.6,134.6,125.6z"/>
	<path id="Tracé_9277" class="st220" d="M134.6,125.6c1.6,0.8,3,1.9,4.9,1.6c0.3,0.5,0.3,1.2,0,1.8c-0.9,2.3-0.2,4.9-1.1,7.2
		c-2.9,0.6-2.6-2.1-3.4-3.4c-0.7-1.4-1.8-2.6-3.1-3.4c-2.1-1.4-5.7-2.4-5.6-6.2c0.8,0.1,1.6,0.1,2.4,0.2l0-0.1
		c1.3,0.8,3.1,0.5,4.2,1.7C133.2,125.4,133.9,125.7,134.6,125.6z"/>
	<path id="Tracé_9278" class="st221" d="M129.5,113h-1.6c-0.8-1.7-0.2-3.5-0.4-5.2c0-0.8,0-1.7,0-2.5c0.8-1.5,2.5-1.3,2.8-0.3
		c1.1,3,3.7,2,5.6,2.8c0.3,0.2,0.6,0.6,0.7,0.9c0,0.4,0,0.8-0.2,1.1c-0.2,0.3-0.5,0.6-0.9,0.7C133.6,111.5,131.5,112.1,129.5,113
		L129.5,113z"/>
	<path id="Tracé_9279" class="st222" d="M127.9,107.3c0,1.9,0,3.8,0,5.7c-0.3-0.2-0.7-0.4-1-0.6c0.1-1.7,0.2-3.4,0.3-5.1
		C127.4,107,127.7,106.9,127.9,107.3z"/>
	<path id="Tracé_9280" class="st46" d="M132.9,124.9c-1.6-0.2-3.1-0.5-4.2-1.7C130.3,123.1,132.1,122.7,132.9,124.9z"/>
	<path id="Tracé_9281" class="st223" d="M127.9,107.3c-0.2,0-0.5,0-0.7,0c0-3.9,0-7.7,0-11.6c0.4-0.2,0.9-0.2,1.1,0.2
		c0,0,0,0.1,0.1,0.1c0.5,1.1,0.7,2.2,0.7,3.4c0,1.9,0.3,3.8-1.1,5.4V107.3z"/>
	<path id="Tracé_9282" class="st224" d="M127.9,95.7c-0.2,0-0.5,0-0.7,0c0-3.1,0-6.1,0-9.1c0.2-0.4,0.5-0.4,0.7,0l0,0
		c0.7,0.8,1.1,1.7,1.1,2.7C128.9,91.5,129.7,93.8,127.9,95.7z"/>
	<path id="Tracé_9283" class="st225" d="M127.9,86.6h-0.3h-0.3c0-2.2,0-4.4,0-6.5C128.7,82.1,127.6,84.4,127.9,86.6z"/>
	<path id="Tracé_9284" class="st226" d="M147,75.9c0,0.2,0,0.5,0,0.7c2.3,1.3,4.8,2.1,7.2,3c2.1,0.9,3.1,2.2,2.3,4.5
		c-0.4,0.9-1.2,1.7-2.1,2.1c-4.1-0.1-5.3-3.7-7.4-6.2c-1.1-2.3-3.9-1.6-5.5-3.1c0.9-0.9,2.5,0.5,3.1-1.1L147,75.9z"/>
	<path id="Tracé_9285" class="st227" d="M147,70c2.5,0.6,4.4,2.5,5,5h-1.7c-0.9-1.2-2.2-0.7-3.3-0.8C147,72.8,147,71.4,147,70z"/>
	<path id="Tracé_9286" class="st228" d="M127.9,74.2l1.6,0.8c0.9,2.6,0.1,6.6,5,5.8c-0.1,2.3,1,3.4,3,4.6c3.6,2.1,6.1,5.8,9.2,8.7
		c2.6,2.2,5,4.7,7.2,7.3c0.9,1.1,2.2,2.1,1.2,3.9c-0.6,0.3-1.2,0.6-1.8,0.6c-1.4,0.1-2.7,0.1-4.1,0c-1.7,0-3.1-1.3-3.2-3
		c0.1-2.1-0.5-3.6-3.1-3.7c-1.3,0-2.4-1-2.5-2.3c-0.2-3.2-2.5-3.4-4.9-3.7c-2.7-1.4-3.3-3.9-3.5-6.6
		C131.4,82.2,128.5,78.6,127.9,74.2z"/>
	<path id="Tracé_9287" class="st229" d="M155.3,104.8c-6.3-7.6-12.8-15-21.5-19.9c-0.5-1.2,0.1-2.7,0.8-4.1
		c7.8,7.9,16.5,15.1,23.2,24C157.1,105.5,156,105.6,155.3,104.8C155.3,104.9,155.3,104.9,155.3,104.8z"/>
	<path id="Tracé_9288" class="st230" d="M168.6,109.8c3.5-0.8,4.7,1.6,5.8,4.1c0,0.7-0.2,1.4-0.7,2c-0.4,0.6-1.2,0.9-1.9,0.8
		c-1.8-0.7-3.2-2.2-5-3c-0.3-0.5-0.3-1.1,0.2-1.5c0.6-0.3,0.9-1,0.8-1.7C167.8,110.2,168.1,109.9,168.6,109.8z"/>
	<path id="Tracé_9289" class="st231" d="M166.9,112.3v1.7c-0.1,0.2-0.2,0.4-0.2,0.6c-3.2,2.3-4.7-1.3-7-2.1
		c-0.3-0.1-0.4-0.6-0.2-0.7c2.2-1.4-0.9-0.8-0.6-1.4c-0.5-1.4-0.6-2.7,0.5-3.8C163.1,106.9,163.5,111.6,166.9,112.3z"/>
	<path id="Tracé_9290" class="st232" d="M159.4,98.2c-3-0.5-5.3-2.8-5.8-5.8c0.2-0.2,0.3-0.3,0.5-0.5c1.9-0.8,3.7-0.8,5.4,0.4
		c1.2,1.7,1.2,3.5,0.4,5.4C159.8,97.9,159.6,98,159.4,98.2z"/>
	<path id="Tracé_9291" class="st233" d="M153.6,92.4c-3.1-0.9-5.2-3-6.6-5.8l0,0c2-1.5,4.1-1.6,5.9,0
		C154.6,88.2,155.1,90.3,153.6,92.4L153.6,92.4z"/>
	<path id="Tracé_9292" class="st233" d="M165.2,104.8c-2.3-1.9-5.2-3.3-5.8-6.6l0,0c2-1.4,4-0.9,5.6,0.5c1.8,1.5,1.6,3.6,0.7,5.6
		C165.6,104.5,165.4,104.7,165.2,104.8z"/>
	<path id="Tracé_9293" class="st234" d="M159.4,106.5v4.2c-0.4,0.4-1.1,0.6-1.7,0.3c-1.5-1.9-4.6-2.8-4.1-6.2h1.7h2.5
		c0.8-0.1,1.6,0.5,1.7,1.4C159.4,106.3,159.4,106.4,159.4,106.5z"/>
	<path id="Tracé_9294" class="st235" d="M168.6,109.8l-0.8,0.8c-2.2-1.3-2.6-3.5-2.5-5.8l0,0c2.9-1.6,3.2,0.9,4.1,2.5L168.6,109.8z
		"/>
	<path id="Tracé_9295" class="st236" d="M153.6,92.4c-0.4-5.8-0.4-5.8-6.6-5.8V80c3.1,1.1,3.8,5.3,7.5,5.8c1.8,2.1,4.6,3.2,5.3,6.2
		l-0.3,0.5L153.6,92.4z"/>
	<path id="Tracé_9296" class="st237" d="M132.1,86.6c2,1.4,1.3,4.4,3.3,5.8c1.5,1.9,1.8,4.3,2.5,6.5c0.2,0.8,0,1.7-0.5,2.4
		c-2.1,0.6-2-1.4-2.8-2.4c-2.1-3.4-5.8-5.7-6.6-9.9v-2.5C129.3,86.4,130.7,83.3,132.1,86.6z"/>
	<path id="Tracé_9297" class="st238" d="M198.4,37.7l2.5-0.8c2.7,6.7,8.5,10.5,13.7,14.7c1.6,1.3,0.9-1.5,2-1.5v5.8
		c-0.5,0.6-0.9,1.3-1.7,1.7c-0.8,0.1-1.6-0.5-1.7-1.3c0-0.1,0-0.2,0-0.3c-0.6-2-2.9-2.4-4-4c-2.7-3.3-5.8-6.4-9.1-9.2
		C198.8,41.4,196.8,40.2,198.4,37.7z"/>
	<path id="Tracé_9298" class="st239" d="M195.9,32.7c1.5,0.3,3,0.5,4.1,1.7c-1.3-0.9-3.3,2.3-4.1-0.8V32.7z"/>
	<path id="Tracé_9299" class="st240" d="M122.9,143c0-0.3,0-0.6,0-0.8c-0.2-0.2-0.3-0.4-0.2-0.6c0.1-0.2,0.2-0.3,0.2-0.3
		c3.8,0.6,5.6,3.2,6.6,6.6c-0.7-0.5-1.7-0.5-2.5,0c-0.9,0.1-1.9,0.1-2.8,0c-0.6-0.1-1.2-0.3-1.6-0.6c-0.9-0.7-1.3-1.6-0.5-2.6
		C122.7,144.3,123,143.7,122.9,143z"/>
	<path id="Tracé_9300" class="st240" d="M122.9,141.3v0.8c-1.4-2-3.1-2-5-0.8c-1.6-1-0.1-3.2-1.7-4.1v-2.5
		C119.7,135.3,122.3,138,122.9,141.3z"/>
	<path id="Tracé_9301" class="st241" d="M133.7,151.3c-0.6-0.1-1.1-0.1-1.7-0.2c0.7-1-1.5-3.5,1.7-3.1c0.8,0.8,0.6,1.6,0,2.5
		L133.7,151.3z"/>
	<path id="Tracé_9302" class="st242" d="M133.7,150.4c0-0.8,0-1.6,0-2.5c0-0.3,0-0.6,0-0.8h1.6c0.3,1.1,0.6,2.2,0.9,3.3
		C135.5,149.9,134.5,149.9,133.7,150.4z"/>
	<path id="Tracé_9303" class="st243" d="M124.6,147.1c0.9,0,1.9-0.1,2.5,0.8c-0.3,0.6-0.6,1.1-0.8,1.7c-0.6-0.3-1.1-0.6-1.6-0.8
		C124.2,148.4,124.1,147.6,124.6,147.1C124.6,147.2,124.6,147.1,124.6,147.1z"/>
	<path id="Tracé_9304" class="st244" d="M124.6,147.1c0,0.6,0,1.1,0,1.7c-0.2,0.5-0.4,1.1-0.6,1.6c-0.4-0.5-0.9-1.1-1.3-1.6
		c-0.2-0.3-0.3-0.6-0.5-0.9c-0.3-0.7,0-0.9,0.7-0.8L124.6,147.1z"/>
	<path id="Tracé_9305" class="st245" d="M122.9,147.1c-0.2,0.3-0.5,0.5-0.7,0.8c-1.1-0.5-2-1.4-2.5-2.4c0.8-0.3,1.6-0.5,2.4-0.8
		C122.4,145.5,122.6,146.3,122.9,147.1z"/>
	<path id="Tracé_9306" class="st246" d="M186.8,142.2c-0.9-0.1-1-2.5-2.5-0.8c-1.5-1.5-0.6-3.3-0.8-5
		C187.9,138.3,188.7,139.8,186.8,142.2z"/>
	<path id="Tracé_9307" class="st247" d="M176.8,127.2c0.2,0,0.5,0,0.8,0c0,1.4,0,2.8,0,4.1c-0.2,0-0.5,0-0.8,0
		c-0.1-0.1-0.3-0.3-0.4-0.4c-0.5-1.1-0.5-2.3,0-3.3C176.6,127.5,176.7,127.4,176.8,127.2z"/>
	<path id="Tracé_9308" class="st247" d="M176.8,131.4v4.2c-3.2-1-5-3.3-6.6-5.9c-1.1-1.9-2.2-4.1-5-4.1c-0.2-0.3-0.2-0.8,0-1.1
		c1.5-0.9,2.9-2.2,4.9-1.8C171.7,126.1,174.2,128.8,176.8,131.4L176.8,131.4z"/>
	<path id="Tracé_9309" class="st248" d="M165.3,128.9l-0.1,12.4c-2.2-0.3-1.5-2.2-1.8-3.4c-0.7-2.4-1-5-4.1-5.6
		c-0.4-0.5-0.6-1.1-0.6-1.7c0-1.1,0.7-2,1.7-2.4c1.8-0.1,2.8-2.2,4.8-1.7L165.3,128.9z"/>
	<path id="Tracé_9310" class="st249" d="M165.2,126.4c-1.5,0.5-2.2,2.5-4.1,2.4c-1.8-1.2-0.8-2.2,0.3-3.1c1.3-0.7,2.1-2.2,3.9-2
		c0.2,0.2,0.2,0.4,0.2,0.7c-0.1,0.2-0.1,0.3-0.2,0.3c0,0.3,0,0.6,0,0.8C165.2,125.9,165.2,126.2,165.2,126.4z"/>
	<path id="Tracé_9311" class="st250" d="M159.4,132.2c1.9-0.8,4.6,1.6,5,4.5c0.2,1.6-0.6,3.3,0.8,4.6c0,1.4,0,2.8,0,4.1
		c-1-0.6-2.1-0.9-3.2-0.8c-0.9-0.6,0.1-2.2-1.3-2.6l-0.7,1.9c-0.1-0.1-0.3-0.1-0.3-0.2c-0.1-0.2-0.1-0.5-0.2-0.8
		c-1.9-1.9-2.6-5.1-5.8-5.6c-0.7-1.4,0.4-2.2,1.1-3.1C156.1,133.2,157.2,131.6,159.4,132.2z"/>
	<path id="Tracé_9312" class="st251" d="M153.7,137.2c5.2-1.3,4.5,3.2,5.8,5.8c-2.6-0.9-5.5-1.5-5.8-5c-0.2-0.1-0.2-0.3-0.1-0.5
		C153.5,137.3,153.6,137.2,153.7,137.2z"/>
	<path id="Tracé_9313" class="st252" d="M153.7,137.2c0,0.3-0.1,0.5-0.1,0.8c-1.2,0.7-2.6,1.1-3.3,2.5l-0.8-0.8
		c-0.5-1.9,1.2-2.6,2-3.7c0.8-0.8,1.6-1.6,2.9-1.7c0.4,0,0.7,0.2,1,0.5L153.7,137.2z"/>
	<path id="Tracé_9314" class="st253" d="M225.8,129.7h-0.8c-0.3-0.6-1-0.9-1.7-0.8h-2.5c-0.4,0.3-0.9,0.2-1.2-0.1
		c0,0-0.1-0.1-0.1-0.1c-0.8-1.9-1.1-3.8,0.4-5.5C222.3,124.9,225.1,126.4,225.8,129.7z"/>
	<path id="Tracé_9315" class="st254" d="M220,128.9h0.8c0,1,0.3,2.3-0.2,3.1c-0.4,0.8-0.5-0.3-0.7-0.6c0-0.6,0-1.1,0-1.7
		c-0.2-0.2-0.3-0.4-0.2-0.6C219.8,129,219.9,128.9,220,128.9z"/>
	<path id="Tracé_9316" class="st255" d="M208.4,134.7l0.8-3.3c0.3-0.9,1.3-1.8,0.5-2.7c-1-1.2-0.8,1.1-1.6,0.7
		c-0.5-0.2-0.9-0.6-1.2-1c-2.9-4.2-7.3-7-10.7-10.7c-2.8-3-6.2-5.5-7.8-9.6c0.4-2.7,1.9-3.4,4.4-2.6c3.9,2.1,6.6,5.7,9.6,8.8
		c4.3,4.4,8.5,8.8,13.2,12.9c0.8,0.9,2.9,0.5,2.7,2.5c-1.5,2.6-5,0.1-6.6,2.5c0.1,1.4-0.2,2.7-1.7,3.3
		C209.3,135.6,208.7,135.3,208.4,134.7z"/>
	<path id="Tracé_9317" class="st256" d="M218.3,129.7c-0.7-1.4-2.6-0.3-3.3-1.7c-1.6-4.2-5.4-6.5-8.2-9.6c-1.8-2-4.1-3.5-5.3-6
		c0.4-0.7,1.1-1.2,1.9-1.3c1.9,0,3.3,1.1,4.4,2.5c0.5,0.9,1,1.9,1.9,2.5c1.6,1.3,3.5,2.1,4.9,3.6c1,2.3,3.6,2.1,5.4,3.3l0,0v5.8v0.8
		L218.3,129.7z"/>
	<path id="Tracé_9318" class="st257" d="M220,75.8c2.2,0.3,3.9,2,4.1,4.2C220.8,80.5,219.4,79.1,220,75.8z"/>
	<path id="Tracé_9319" class="st258" d="M211.7,62.7c-0.7,0.7-1.6,0.7-2.4,0.8c-8,1.6-11.1-4.9-15.4-9.4c-0.9-1-0.7-2.6-0.2-4
		c1.4-3.1,3.2-1.7,4.8-0.4c2.4,2.2,4.8,4.5,6.9,6.9c1.8,2,3.9,3.7,6.3,5L211.7,62.7z"/>
	<path id="Tracé_9320" class="st259" d="M211.7,61.7c-2,0.3-4.1-0.5-5.3-2.2c-2.5-3.1-5.3-6-8.3-8.7c-0.9-0.8-2.2-2.6-3.9-0.7
		c-1.1-1-1.2-2.4-1.6-3.7c0.2-1.4-0.9-3.3,1.6-3.8c2.3,3.5,5.1,6.7,8.4,9.3c3,2.4,4.8,6.1,8.3,7.9C211.4,60.1,211.4,61.1,211.7,61.7
		z"/>
	<path id="Tracé_9321" class="st260" d="M194.3,42.7c-1.4,1.2-0.6,2.8-0.8,4.1c0.5,0.8,0.6,1.7,0.1,2.5c-0.4,0.2-0.9,0.2-1.2-0.2
		c-0.6-2.1,0.4-4.4-0.5-6.5c0.1-1.1,0.2-2.3,0.2-3.4c2.1-0.5,4.2-1.1,6.4-1.6c-0.2,1.7,0.7,2.8,1.9,3.8c3.6,3.1,7.4,6,9.7,10.2
		c-0.6,0.8-1.4,1.4-2.5,0.8c0-0.9,0.1-1.9-0.8-2.5c-1.7-1.6-3.4-3.2-5-5L194.3,42.7z"/>
	<path id="Tracé_9322" class="st260" d="M207.5,52.6l2.5-0.8c0.5,1.9,5.2,0.4,3.3,4.2C210.8,55.9,207.8,56.6,207.5,52.6z"/>
	<path id="Tracé_9323" class="st260" d="M201.7,45.1c2.5,0.6,4.4,2.5,5,5C202.6,50.9,201,49.2,201.7,45.1z"/>
	<path id="Tracé_9324" class="st123" d="M215,57.6c0.3-0.8,0.9-1.4,1.6-1.7v1.7l-0.8,2.5C213,60.1,216.5,58,215,57.6z"/>
	<path id="Tracé_9325" class="st261" d="M193.4,49.3l0-2.5c1.2,0.9,0.7,2.2,0.8,3.3c0.1,5.1,7.5,12.5,12.5,12.5c1,0,1.9,0,2.5,1
		c-0.6,0.4-1.2,0.9-1.9,1.3l-2.4,1c-0.9,0.5-2.1,0.6-2.8,1.5c-0.6,0.4-1.4,0.6-2.1,0.7c-0.4,0-0.7-0.2-1-0.4
		c0.4-1.1,0.1-1.6-1.1-1.4c1.5-2.3-1.3-1.5-1.7-2.3c-2-1.3-3-3.1-2.3-5.6c-0.3,1.2,0.4,2.6-0.7,3.6c-0.4,0.1-0.8,0-1-0.4
		c-0.3-1.5,0.4-3.2-0.5-4.7v-3.3C193.1,52.4,192.1,50.4,193.4,49.3z"/>
	<path id="Tracé_9326" class="st262" d="M200.1,67.6l1.7-0.7c0.5,0.2,1.2-0.1,1.6,0.6c4.7,0.6,7,4,9.2,7.5l-1.7,0.8
		c-0.1-0.1-0.3-0.1-0.4-0.1c-0.7-0.4-1.5-0.6-2.2-0.4c-1.3,0.3-2.6,1.5-4.1,0.5c1.8-3.7-1.8-4.1-3.5-5.6
		C200.1,69.5,199.5,68.6,200.1,67.6z"/>
	<path id="Tracé_9327" class="st164" d="M203.4,67.5l-1.6-0.6c0.9-0.8,2.1-1.1,3.2-1L203.4,67.5z"/>
	<path id="Tracé_9328" class="st263" d="M204.2,75.8l4.1-1.7c0.6,0.8,1.8,0.8,2.4,1.6l0.1,0.2c-0.1,0.2-0.1,0.4-0.2,0.6
		c-0.4,0.9-1.4,1.2-2.2,1.6c-1.1,0.4-2.1,1-3.3,0.8c-0.4-0.1-0.7-0.3-1-0.6c-0.2-0.1-0.5-0.3-0.7-0.3c-6,0.7-7.7-4.1-10.1-8
		c1-2.9,3.3-3.2,5.9-2.6l0.8,0.2l0.8,2.5c1.6,0.8,1.6,2.3,1.5,3.8C202.3,75.2,202.6,76.1,204.2,75.8z"/>
	<path id="Tracé_9329" class="st264" d="M208.3,77.5c0.6-0.7,1.5-0.8,2.4-0.9c0.7,0.4,1.1,1.1,1,1.8l0,0c-0.4,0.4-1,0.6-1.6,0.4
		C209.3,78.6,208.7,78.1,208.3,77.5z"/>
	<path id="Tracé_9330" class="st265" d="M192.6,106.5c-2.2-1.4-3,0.7-4.2,1.7c-2.8,1.7-1.7-0.9-1.6-2.3l-3.4,2.3c0-0.3,0-0.6,0-0.8
		c0.4-3.3,2.6-5,5.7-5.6c1.2,0.2,2.4,0.9,3.1,2C192.9,104.5,193.5,105.4,192.6,106.5z"/>
	<path id="Tracé_9331" class="st266" d="M178.5,104.8c-0.2,0-0.5,0-0.7,0c-0.1-1.1-0.1-2.2-0.2-3.3c-1.8-2.9-1.1-6-0.6-9.1
		c0.3-0.8,1.3-1.2,2.1-0.9c0.1,0,0.1,0,0.1,0.1c3,2.7,6.1,5.4,8.7,8.6c0,2.4-1.8,3-3.6,3.7c-1.4-1.4-4.4,0.3-5.1-2.2
		C179.1,102.4,179.8,103.8,178.5,104.8z"/>
	<path id="Tracé_9332" class="st236" d="M169.4,107.3c-1.9,0.1-1.8-3.3-4.1-2.5c0-6.2,0-6.2-5.8-6.6c0-1.9,0-3.9,0-5.8l0,0
		c1-0.8,1.8-0.2,2.5,0.5c2.4,2.8,5.4,5.1,7.6,8c0.9,1.2,1.7,0.8,2.7,0.8c0.4,0.8,0.3,1.7-0.3,2.3
		C170.4,104.6,170.1,106.1,169.4,107.3z"/>
	<path id="Tracé_9333" class="st267" d="M171.9,104v-2.5c-0.2-1,0-2,0.6-2.8c3-1.3,3.5-4,3.9-6.8c0.2-0.3,0.6-0.6,0.9-0.6l0.5,0.3
		c-0.1,3.3-0.1,6.6-0.2,9.9c-1.5,1.5-0.2,3.4-1,5C174.3,107.1,174.5,102.9,171.9,104z"/>
	<path id="Tracé_9334" class="st268" d="M173.5,115.6c-0.1-0.7,0.3-1.3,0.8-1.7l2.5-1.7c0.6,2.2-1.9,2.6-2.5,4.1
		C173.6,116.6,173.3,116.4,173.5,115.6z"/>
	<path id="Tracé_9335" class="st269" d="M165.2,124.8l-0.1-0.9c-0.1-0.3-0.1-0.7,0.1-1c0.5-0.5,1.1-0.9,1.8-1.2
		c1.7-0.5,2.9-2.3,4.9-1.9c2.4,0.1,3.1,2.6,5,3.3v4.2c-1.7,1.1-2.4-0.4-3.4-1.2c-1.1-0.9-1.6-2.5-3.3-2.9
		C168.4,123.1,167.2,125.3,165.2,124.8z"/>
	<path id="Tracé_9336" class="st270" d="M171.9,119.8c-1.6,0.9-2.9,2.4-5,2.5c-0.5-1.4,0.6-2.1,1.2-3c1.2-1,1.5-3.2,3.8-2.8
		c0.6-0.3,1.1-0.5,1.7-0.8c0.3,0.3,0.5,0.5,0.8,0.8C173.5,117.5,172.7,118.7,171.9,119.8z"/>
	<path id="Tracé_9337" class="st271" d="M178.5,104.8v-8.1c2.2,2.3,1.3,4.1,2,5.9c2.1-3.8,2.4,0.8,3.9,0.6c0.4,0.9-0.1,1.4-0.7,2
		c-1.6,0.3-2.9,1.4-3.5,3c-0.3,0-0.6,0-0.8,0C179.1,107.1,178.8,106,178.5,104.8z"/>
	<path id="Tracé_9338" class="st272" d="M183.4,104.8c0.3-0.6,0.6-1.1,0.9-1.7c1.4-0.8,3.3-1.1,3.2-3.3c0.9-0.4,1.5,0.1,2,0.8
		c0.3,0.5,0.2,1.2-0.3,1.6c-2.8,0.7-4.1,3-5.8,5l-0.8-0.8C182.1,105.6,183,105.3,183.4,104.8z"/>
	<path id="Tracé_9339" class="st175" d="M183.4,104.8c-0.3,0.6-0.5,1.1-0.8,1.6c-0.8,0.6-1.6,1.1-2.5,1.7
		C180,105.8,181.1,104.7,183.4,104.8z"/>
	<path id="Tracé_9340" class="st273" d="M137.9,142.2c-0.3,1.7,0.7,3.5-0.8,5c-0.6-2.8-2.2-4.7-4.3-6.7c-3.4-3.4-7.6-6.2-10.1-10.6
		c-0.8-1.4-2.8-1.1-3.9-2.7c-1-1.6-1.9-2.9-1.7-4.8l5.8,2.5c2.6,2.4,6.2,3.7,7.6,7.4c0.3,0.8,1,1.4,1.8,1.6
		C136.8,134.8,138.1,137.9,137.9,142.2z"/>
	<path id="Tracé_9341" class="st274" d="M137.9,142.2c-0.7-4.1-3.3-5.9-6.7-8.2c-2.9-2-6.4-5.3-8.2-9.2c-0.3-1.2-0.5-2.3-0.8-3.5
		c1.5,0.2,3,0.6,4.1,1.7c1.8,1.5,2.5,4.4,5.5,4.3c-0.4,2.3,0.9,1.5,2,1.1c1-0.4,1.1,0.2,1.2,1c0.3,2.6,1.8,4.7,2.9,6.9
		c1.2,1.4,1,2.8,0,4.2L137.9,142.2z"/>
	<path id="Tracé_9342" class="st206" d="M178.5,35.2c2-0.3,2.2,1.7,3.3,2.5c1.5,2.9,3.3,5.3,6.2,7c1.8,1,1.9,3.4,2.1,5.4
		c-3.5-0.7-4.9-4-7.3-6C179.9,41.9,177.1,39.5,178.5,35.2z"/>
	<path id="Tracé_9343" class="st275" d="M190.9,61.7c-1.2-0.9-0.6-2.1-0.8-3.2v-4.1c0-1.4,0-2.8,0-4.1c0.2,0,0.5,0,0.8,0
		C190.9,53.9,190.9,57.8,190.9,61.7z"/>
	<path id="Tracé_9344" class="st204" d="M199.2,92.4c3.8,4.5,7.1,9.6,11.6,13.2c3.6,2.8,6.1,6.6,9.7,9.4c3,2.4,5.7,5.1,8.1,8.2
		c0.8,1.1,1.2,2.5,2.9,2.5c-0.2,1.3,0.6,3-1.7,3.3l0,0c-3.9-5.6-9.3-9.8-13.9-14.7c-4.3-4.5-9-8.6-13.2-13.2
		c-1.5-1.7-2.3-3.9-4.4-5.3c-1.1-0.8-1.7-0.3-2.6,0c-0.1-0.2-0.2-0.3-0.4-0.4c-0.2-0.6-0.1-1.2,0.3-1.6
		C196.8,92.9,197.5,91.3,199.2,92.4z"/>
	<path id="Tracé_9345" class="st276" d="M195.9,95.7v2.5c0.8,1.4,0.7,3.1-0.3,4.3c-0.6,0.8-1.3,1.4-2.2,1.8c-0.4,0.1-0.8,0-1.1-0.2
		c-1-1.1-2.5-1.9-2.7-3.6C191.1,98,192.9,96.1,195.9,95.7L195.9,95.7z"/>
	<path id="Tracé_9346" class="st253" d="M195.1,102.4c1.1-1.2,0-2.9,0.8-4.1c0.7,0.2,2.3-0.5,2.1,0c-1.1,3.6,2.9,4.2,3.7,6.6
		c-0.2,0.2-0.3,0.3-0.5,0.5c-1.3,0.6-2.6,0.7-4,0.4C195.6,105.2,194.1,104.6,195.1,102.4z"/>
	<path id="Tracé_9347" class="st253" d="M201.7,104.8c2.2,1.6,4.2,3.6,5.8,5.8c-0.2,0.2-0.3,0.3-0.5,0.5c-1.6,0.8-3.1-0.2-4.7,0
		c-1.3-0.6-1.5-1.7-1.6-2.9C200.6,107,200.9,105.8,201.7,104.8L201.7,104.8z"/>
	<path id="Tracé_9348" class="st253" d="M209.2,116.5c-1.7-0.1-1.7-1.3-1.7-2.5c-0.7-1.1-0.9-2.2,0-3.3l0,0
		c2.2,1.6,4.2,3.6,5.8,5.8C211.9,117.7,210.6,117.2,209.2,116.5z"/>
	<path id="Tracé_9349" class="st253" d="M220,123.1c-2.4-0.3-5.9,1.3-5.8-3.3c-0.7-0.7-0.7-1.8,0-2.5l0,0
		C216.4,118.9,218.4,120.8,220,123.1z"/>
	<path id="Tracé_9350" class="st277" d="M214.2,117.3v2.5c-2-0.5-3.8-1.6-5-3.3h4.1L214.2,117.3z"/>
	<path id="Tracé_9351" class="st204" d="M229.9,128.9c-0.7,0.6,0.1,2-1.1,2.2c-0.2,0-0.8-0.5-0.8-0.7
		C227.9,129,229,129.1,229.9,128.9L229.9,128.9z"/>
	<path id="Tracé_9352" class="st278" d="M152,136.4c-0.8,1.1-1.7,2.2-2.5,3.3c-1.4,1.1-2.8,2.2-4.1,3.4c-0.6-2.1-1.1-4.4-3.8-4.7
		c-2.5-0.3-0.2-2.7-1.7-3.5c-1.1,3.5,0.8,7.3-1.1,10.7c-0.1-1.7-0.1-3.3-0.1-5c-0.4-4.1-0.6-8.3,0.2-12.4l0.7-1
		c0.4-0.8,1.1-0.8,1.8-0.6c1.9,0.2,3.6-0.2,4.6,2.4c1,2.5,2.7,5,5.8,5.9C152.1,135.1,152.2,135.8,152,136.4z"/>
	<path id="Tracé_9353" class="st273" d="M138.8,128.1c-0.1,4.1-0.1,8.3-0.2,12.4c-0.2,0-0.5,0-0.7,0c0-1.4,0-2.8,0-4.1
		C138.3,133.6,136.9,130.7,138.8,128.1z"/>
	<path id="Tracé_9354" class="st279" d="M199.3,67.4c-1.9,1-4.2,1-5.9,2.6c-1.2,0.1-1.8-0.4-1.6-1.6c1.2-2.1-0.2-4.5,0.9-6.6
		c1.4-1.1,0.4-2.9,1.3-4.2c-0.2,2.6,1.3,4.3,2.8,5.9c0.5,0.9-0.9,3,1.7,2.5C199.7,65.8,199.8,66.4,199.3,67.4z"/>
	<path id="Tracé_9355" class="st280" d="M204.2,78.3l0.8,0.1c0.9,0.8,2.5,1.1,2.8,2.6c-0.6,1.8-1.9,2.8-3.5,3.7
		c-4.7-0.6-5-1-2.8-4.2c0.1-0.2,0.1-0.3,0.2-0.5L204.2,78.3z"/>
	<path id="Tracé_9356" class="st281" d="M190.1,80.8c-0.9,0.3-1.7,1.3-2.6,0.6c-0.6-0.6-0.5-1.7,0-2.6c0.3-0.7,0.6-1.4,0.9-2.2
		C190.3,77.5,189.9,79.3,190.1,80.8z"/>
	<path id="Tracé_9357" class="st282" d="M191.8,42.7c1.6,2,0.4,4.4,0.8,6.6c0.3,1,1.2,2.2-0.8,2.5L191.8,42.7z"/>
	<path id="Tracé_9358" class="st283" d="M192.6,61.7c-0.4,2.2,0.9,4.6-0.9,6.6c0-2.2,0-4.4,0-6.6C192,61.4,192.3,61.4,192.6,61.7
		L192.6,61.7z"/>
	<path id="Tracé_9359" class="st258" d="M191.8,51.8c1-0.6,0.8-1.6,0.8-2.5c0.3,0,0.6,0,0.8,0c-0.4,1.5,1,3.6-1.6,4.2
		C191.8,52.9,191.8,52.3,191.8,51.8z"/>
	<path id="Tracé_9360" class="st284" d="M192.5,82.4c1.4-1.5,3.2-1.7,5.1-1.6c0.2,0.3,0.2,0.8-0.1,1.1c-1.4,0.9-2.9,1.6-4.6,0.9
		C192.8,82.7,192.7,82.5,192.5,82.4z"/>
	<path id="Tracé_9361" class="st285" d="M197.5,81.6c0-0.3,0.1-0.5,0.1-0.8c1.4-0.3,2.7-0.6,4.1-0.9l0.1,0.1
		C200.9,82.2,199.5,82.8,197.5,81.6z"/>
	<path id="Tracé_9362" class="st284" d="M191,83.3l-1.9-0.3c0.2-0.9,1.1-1,1.8-1.4c0.3,0.6,1,0.9,1.6,0.8l0.2,0.2
		c0.1,0.3,0,0.7-0.3,0.9C192,83.8,191.4,83.7,191,83.3z"/>
	<path id="Tracé_9363" class="st258" d="M192.6,61.7l-0.8,0c0-1.7,0-3.3,0-5C193.3,58.2,192.3,60.1,192.6,61.7z"/>
	<path id="Tracé_9364" class="st286" d="M214.2,100.7c-3.1-1.5-7.2-2.1-7.3-6.9c0-1-1.2-1.5-2.3-1.3c-2.1,0.4-2.8-1.2-3.7-2.5
		c-0.4-2,1.4-2.6,2.4-3.7c0.5-0.3,1.2-0.3,1.7-0.2c1.4,0.6,1.3,1.7,1.2,2.9c-0.2,1.1,0.4,1.6,1.3,1.9c2.2,2.5,3.6,5.7,6.7,7.5
		c0.6,0.3,0.5,1.2,0.2,1.9C214.4,100.4,214.3,100.6,214.2,100.7z"/>
	<path id="Tracé_9365" class="st287" d="M203.4,86.6c0.1,1.8-2.1,1.8-2.5,3.3c-0.6,0.8-1.1,1.6-1.7,2.5c-1.1,0.6-2.2,1.1-3.2,1.7
		c-0.2,0.3-0.7,0.3-0.9,0.1c-0.4-0.8,0-1.4,0.5-2c0.6-0.7,1.2-1.3,1.9-2c1.1-1,2.1-2.1,3.1-3.1c0.9-0.7,1.6-1.7,3-1.3
		C203.7,85.9,203.7,86.4,203.4,86.6C203.4,86.6,203.4,86.6,203.4,86.6z"/>
	<path id="Tracé_9366" class="st286" d="M218.3,104.8h-0.8c-3.5,0.5-3.5-1.8-3.3-4.2l0,0C217.6,100,218.1,102.3,218.3,104.8z"/>
	<path id="Tracé_9367" class="st288" d="M218.3,104.8c-1.3-1.4-1.6-4-4.1-4.2c0-0.4,0.1-1.1-0.1-1.2c-3.3-1.9-5.1-5.1-7.4-7.9
		c-0.8-0.6-0.8-1.9-1.7-2.5c0.2-0.8,1.3-1.7,0-2.5c-0.3-0.9,0.1-1.3,0.9-1.6c6.7,11.1,16.7,19.2,25.7,28.2c-0.1,2.4-0.1,2.4-1.7,1.7
		c-1.6-1.1-3.1-2.5-4.1-4.2C222.8,109.3,221.6,105.7,218.3,104.8z"/>
	<path id="Tracé_9368" class="st289" d="M205.9,84.9c-0.3,0.5-0.6,1.1-0.9,1.6c-0.5,0-1.1,0-1.6,0.1c0-0.3,0-0.6,0-0.9
		c-0.5-0.9,0.4-1.2,0.9-1.7c1.4-0.8,2.5-1.9,3.3-3.3c0.1-1.6,1-2.4,2.5-2.5l1.6,0c0,2.8-3.2,2.9-4.1,5
		C207,83.8,206.4,84.4,205.9,84.9z"/>
	<path id="Tracé_9369" class="st290" d="M225.8,110.7c1.7,1,3.1,2.5,4.1,4.2C227.8,114.5,226.1,112.8,225.8,110.7z"/>
	<path id="Tracé_9370" class="st291" d="M177.7,83.3c0.1-1-0.3-2.2,1.2-2.8C179.2,81.8,178.5,82.6,177.7,83.3L177.7,83.3z"/>
	<path id="Tracé_9371" class="st292" d="M179.3,88.3c2.6-0.6,4.6-2.9,7.5-2.4c1.4,2.1,4.8,3.1,3.6,6.6c-0.3,0.3-0.6,0.5-1,0.7
		c-1.2,0.3-2.4,0.4-3.6,0.3c-1.4,0-2.6-1-4.1-0.7c-0.5,0-1-0.3-1.4-0.7C179.4,90.9,176.8,90.3,179.3,88.3z"/>
	<path id="Tracé_9372" class="st293" d="M190.1,92.4c0.1-1.4-0.2-2.6-1.6-3.3c-1.4-0.6-1.8-1.8-1.7-3.2l1.5-1
		c1.6-0.7,2.9-0.3,3.9,1c0.9,1.1,2,1.9,3.3,2.4c1.1,0.4,2.4,0.8,2,2.6l-1.7,1.6c-1.5,1.1-3.1,1.6-4.9,0.8
		C190.6,93,190.3,92.7,190.1,92.4z"/>
	<path id="Tracé_9373" class="st294" d="M191.8,86.6c-0.9-1-1.9-2-3.5-1.7l2.7-1.6c0.5,0,1,0,1.6,0c3.2-1.2,4.4,0.1,4.2,3.3
		C195.1,88.1,193.4,87.6,191.8,86.6z"/>
	<path id="Tracé_9374" class="st295" d="M179.3,88.3c-1.4,2,1.1,2.2,1.6,3.3c-0.4,0.7-1.2,0.3-1.6,0.8c-0.5-0.3-1-0.5-1.5-0.8
		l-0.3,0c-0.6-0.8-0.5-1.8,0.2-2.5c0.1-0.2,0.1-0.3,0.2-0.5C178.3,88.5,178.8,88.4,179.3,88.3z"/>
	<path id="Tracé_9375" class="st296" d="M156.1,84.1c0.1-2.6-1.4-4-3.8-4.8c-1.9-0.6-3.9-1.1-5.3-2.8c4.5,0.5,8,3.7,12.4,4.3
		c0,0.2,0,0.5,0,0.7c2.4,2.6-0.5,2.3-1.6,3.1C157.2,84.7,156.6,84.6,156.1,84.1z"/>
	<path id="Tracé_9376" class="st297" d="M157.8,84.1c0.3-1,2.9-0.5,1.7-2.6c4.1,1.1,8,2.8,11.6,5c0.4,4.8,1.6,5.2,6.6,2.5
		c-0.1,0.8-0.1,1.7-0.2,2.5h-0.3h-0.3c-0.9,1.8-1.1,3.9-2.7,5.5c-1.8,1.7-2.6,1.9-4.2-0.6c-2.6-4-5.4-8.2-10.5-9.8
		C158.9,85.8,158.4,84.9,157.8,84.1z"/>
	<path id="Tracé_9377" class="st298" d="M129.5,113.1c1.4-2.1,3.7-2.6,6-3c0.8,0.2,1.6,0.2,2.2,0.9c3.2,3.9,6.9,7.4,10.2,11.1
		c-0.3,0.6,0.6-0.2,0,0c-0.3-1.4,1-1.7,1.8-2.4c2.4-1.3,5.3-0.9,7.4,0.9c-2.4,3.5-5.9,4.1-9.8,3.6c-6.2-0.3-10.2-3.4-12.4-9.3
		C134.5,113.7,131.4,113.6,129.5,113.1z"/>
	<path id="Tracé_9378" class="st299" d="M147.3,124.1c3.4-0.7,6.7-1.9,9.8-3.4c0.4-0.5,1-0.8,1.6-0.8c6,0.4,6.4,1.2,3.3,6.6
		c-1.3,0.5-1.4,1.4-0.8,2.5c-0.8-0.1-1.6,0.5-1.6,1.3c0,0.1,0,0.2,0,0.3c-0.4,0.4-1,0.6-1.6,0.4c-2.6-1.1-4-3.8-6.9-4.5
		c-0.7-0.3-1.4-0.8-2.2,0c-0.3,0.2-0.6,0.3-0.9,0.4c-1.1-0.1-2.1-0.4-2.7-1.5L147.3,124.1z"/>
	<path id="Tracé_9379" class="st300" d="M145.1,125.5l3.6,0.9c0.7,2.1,2.9,2.4,4.3,3.7c1,0.9,2.5,1.2,2.8,2.8
		c0,0.9-0.7,1.4-1.3,1.8l-2.5,1.7c-3.9-1-5.5-4.2-7.2-7.3c-0.9-1.6-2.4-1.7-3.5-2.5C142.5,126.2,143.8,125.8,145.1,125.5z"/>
	<path id="Tracé_9380" class="st301" d="M149.5,120.6c-1.2,2-1.8,2.4-4,0.2c-3.5-3.5-6.4-7.5-10-10.8c0.2-0.1,0.5-0.2,0.7-0.2
		c2.8-1.1,5.7,0.2,8.6-0.2c0.9,0,1.7,0.1,2.6,0.3c0.8,0.2,1.5,0.6,2.3,0.9c1,0.6,2.3,0.7,2.6,2.1c-1,1.3-1.7,2.8-2.3,4.3
		c-0.1,0.5-0.2,1-0.3,1.4C149.6,119.3,149.5,120,149.5,120.6z"/>
	<path id="Tracé_9381" class="st302" d="M127.9,104.8V99c0.5-0.6,0.9-1.3,1.9-0.8c1.4,3.1,4.5,4.7,6.9,7c0.3,1.3,3.9,0.8,1.9,3.4
		c-0.8,0.4-1.6,0.2-2.2-0.4c-2.7-0.2-6.2,1.6-6.8-3.2C128.9,104.9,128.4,104.8,127.9,104.8z"/>
	<path id="Tracé_9382" class="st298" d="M145.4,110.6c-3.1,0.1-6.2,0.3-9.2-0.8c0.1-0.2,0.1-0.4,0.2-0.6c1.9-0.7,3.9-1.5,6-1
		C143.6,108.7,145.3,108.8,145.4,110.6z"/>
	<path id="Tracé_9383" class="st303" d="M142.8,109l-6.5,0.1c0-0.3-0.1-0.7-0.1-1l2.4-0.1c0.3-0.2,0.7-0.5,1.1-0.6
		c1-0.3,2.1-0.2,3,0.4C143.1,108.2,143.1,108.7,142.8,109z"/>
	<path id="Tracé_9384" class="st304" d="M129.6,98.2l-1.7,0.8c0-1.1,0-2.2,0-3.3c0-2.2,0-4.4,0-6.6l7.5,9.1
		C133.4,99.7,131.5,99.6,129.6,98.2z"/>
	<path id="Tracé_9385" class="st305" d="M157.8,84.1c0.8,0.3,2.8-0.6,1.7,1.7c-0.5,0.6-1.3,0.7-1.9,0.4c3.4,2.6,6.1,5.7,8.9,8.7
		c1.8,1.9,3.5,3.7,6.3,4.2c0,0.9,0.1,1.9-0.8,2.5c-1.1,1.5-2,0.9-3.1-0.2c-3.2-2.9-5.6-6.6-9.3-8.9c-0.8-2.9-4.8-3.3-5-6.6
		c0.3-0.8,0.9-1.4,1.7-1.7C156.1,84.1,157.8,84.1,157.8,84.1z"/>
	<path id="Tracé_9386" class="st306" d="M149.4,111.5l-1.7-0.8c-0.2-1.9-1.5-2.7-3.1-3.4c-1.4-0.5-2.9-1-3.6-2.5
		c0.6-2-1.8-4.1,0.2-6.1c3.1-0.8,4.5,1.4,5.8,3.6c-0.2,1.8,0.6,2.7,2.5,2.5c1.9,1.7,5.4,2.3,4.2,6.2
		C152.5,112,150.8,112.2,149.4,111.5z"/>
	<path id="Tracé_9387" class="st307" d="M147,102.4c-2.3-0.4-2.8-4.1-5.8-3.3c-1.4-1.3-2.8,2.2-4.1,0c-0.9-2.1-1.9-4.2-1.7-6.6
		c3.2-0.2,6.6-0.7,6,4.4c-0.1,1.2,1.1,1.4,2.1,1.3C146.6,98,147.2,99.8,147,102.4z"/>
	<path id="Tracé_9388" class="st308" d="M153.6,110.7c0-2.9-3.6-3.2-4.1-5.8h4.1c0.8,2.4,3.7,3.2,4.1,5.8
		C156.7,111.8,154.8,111.8,153.6,110.7C153.7,110.7,153.6,110.7,153.6,110.7z"/>
	<path id="Tracé_9389" class="st309" d="M171.9,116.4l-3.3,3.3c-1.2-0.5-2.4-1.2-3.8-1c-0.8-0.2-1.4-0.5-1.5-1.4
		c0.6-1.7,3-1.6,3.6-3.4l0,0C169.9,112.1,170.2,115.6,171.9,116.4z"/>
	<path id="Tracé_9390" class="st310" d="M166.9,114c0.4,2.8-2.4,2.5-3.7,3.6c-0.4,0.1-0.8,0.1-1.2,0c-3.3-1.5-7.2-1.8-10.1-4.4
		c-0.9-0.5-1.7-1.1-2.6-1.6c1.4-0.3,2.8-0.6,4.2-0.9h5.8c1.3,1,2.9,1.8,3.9,3C164.6,115.3,165.7,114.5,166.9,114z"/>
	<path id="Tracé_9391" class="st311" d="M129.6,98.2h5.8c0.6,1.1,1.1,2.2,1.7,3.3c1.3,0.5,1.6,1.6,1.6,2.8
		c-0.3,1.3-0.9,2.2-2.4,1.3C133.8,103.4,129.6,102.6,129.6,98.2z"/>
	<path id="Tracé_9392" class="st312" d="M137.9,104l-0.8-2.5V99c1.4,0.8,2.8-2.3,4.1,0c-1,1.9,1.8,3.9,0,5.8c0.4,1.2,2,1.8,1.7,3.3
		l-3.4-0.1C138.9,106.8,138.5,105.3,137.9,104z"/>
	<path id="Tracé_9393" class="st176" d="M170.2,123.1c1.5-0.9,2.2,0.1,3,1.1c1,1.3,1.8,2.7,3.6,3.1v4.1
		C173.3,129.7,170,127.8,170.2,123.1z"/>
	<path id="Tracé_9394" class="st313" d="M154.4,134.7l0.9-1.7c0.5-1.1,1.1-2.2,2.5-2.5l1.6,0c0,0.5,0,1.1,0,1.6
		c-1.4,0.9-2.7,1.7-4.1,2.5L154.4,134.7z"/>
	<path id="Tracé_9395" class="st314" d="M163.1,117.4l0.1,0.1c0.6,0.2,1.2,0.4,1.8,0.7c1.6,1.6,1.3,3.2,0.2,4.9
		c-0.1,0.3-0.1,0.5-0.2,0.8c-1.1,0.8-2.1,1.7-3.2,2.5c0-0.3-0.1-0.6,0-0.8c2.4-4.1,0.1-5-3.4-5C159.2,118.3,161.3,118.1,163.1,117.4
		z"/>
	<path id="Tracé_9396" class="st315" d="M192.6,104c0.3,0,0.5,0,0.8,0c3.6,1.9,7,4.1,8.3,8.3c4.6,4.6,9.2,9.1,13.9,13.7
		c1.1,1.1,1.1,1.8-0.6,2.1c-8-6.6-14.2-15.1-22.4-21.6c-0.3-0.8-0.6-1.6-0.9-2.4c0.1-0.2,0.4-0.4,0.7-0.2
		C192.5,103.8,192.6,103.9,192.6,104z"/>
	<path id="Tracé_9397" class="st316" d="M201.8,112.3c-2.8-2.8-5.6-5.5-8.3-8.3c0.3-0.8,0.9-1.4,1.6-1.7c-0.1,1.3,0.9,2.4,2.2,2.5
		c0.1,0,0.2,0,0.3,0c1.6,0.9,3.4,1.4,4.1,3.3c0,0.9-0.1,1.9,0.8,2.5c0.2,0.3,0.8,0.3,0.8,0.8C203,112.1,202.4,112.4,201.8,112.3z"/>
	<path id="Tracé_9398" class="st317" d="M203.4,111.5l-0.8-0.8h5v3.3L203.4,111.5z"/>
	<path id="Tracé_9399" class="st318" d="M198.4,65.9c-0.6,0.7-1.5,1.7-2.2,0.8c-0.7-1.1-0.5-2.5,0.6-3.2
		C197.6,64,199.8,63.7,198.4,65.9z"/>
	<path id="Tracé_9400" class="st319" d="M204.2,75.8c-1.9,0.7-2.9,0-2.8-1.9c0.1-1.4,0.3-2.7-0.5-3.9c0.9,0.2,1.8,0.6,2.6,0.9
		C206.1,72.2,206.6,73.8,204.2,75.8z"/>
	<path id="Tracé_9401" class="st320" d="M210.8,75.7c-1.2,0.1-2.4,0.1-2.4-1.6C209.5,74.2,210.7,74,210.8,75.7z"/>
	<path id="Tracé_9402" class="st321" d="M210,78.3c-0.8,0.8-1.7,1.7-2.5,2.5c-1-0.6-2.4-0.8-2.5-2.3c1.1-0.3,2.2-0.7,3.2-1
		C209,77.5,209.6,77.6,210,78.3z"/>
	<path id="Tracé_9403" class="st322" d="M192.6,104c-0.3,0-0.6,0-0.9,0l-2.4-1.7c0-0.6,0-1.1,0-1.6l0.4-0.3l0.4,0.3L192.6,104z"/>
	<path id="Tracé_9404" class="st323" d="M179.3,92.4c0.3-0.6,1-0.9,1.6-0.8l0.9,0.8c3.6,1.1,5.7,3.8,7.9,6.6c0.2,0.6,0,1.2-0.4,1.7
		l0,0c-0.6-0.3-1.1-0.6-1.7-0.8C184.1,98.2,181.8,95.3,179.3,92.4z"/>
	<path id="Tracé_9405" class="st324" d="M172.7,99c-3.4,1.4-5-1.3-6.7-3.1c-3.1-3.5-6.5-6.8-10.1-9.9l3.5-0.2
		c4-0.9,4.9,2.7,6.7,4.7c2,2.2,5.8,3.1,4.9,7.6c3.2-1.5,3.9-4.6,5.8-6.5C177,94.9,177.6,98.5,172.7,99z"/>
	<path id="Tracé_9406" class="st176" d="M165.3,123.1c-0.1-1.6-0.1-3.2-0.2-4.9c2.1-1.5,2.8-0.1,3.5,1.6c-0.6,0.8-1.1,1.7-1.7,2.5
		C166.6,122.8,165.9,123.2,165.3,123.1z"/>
	<path id="Tracé_9407" class="st325" d="M189.3,100.7l0-1.6c0.4-1.8,1.9-2.6,2.9-3.8c0.9-0.6,1.5-1.7,2.9-1.2l0.9,0
		c0,0.5,0,1.1,0,1.6c-1.9,1.7-3.9,3.3-5.8,5L189.3,100.7z"/>
	<path id="Tracé_9408" class="st326" d="M201.7,108.2c-1.4-1.1-3.2-1.6-4.1-3.3h4.1V108.2z"/>
	<path id="Tracé_9409" class="st327" d="M196.7,85.8c-1.5-0.7-1.6-3.6-4.1-2.5c0-0.2,0.1-0.4,0.1-0.7c1.6-0.3,3.2-0.7,4.8-1
		c1.6,0.2,3.2-0.4,4.3-1.5c1.7,1.6-1,1.9-1,3.1l3.5,1c-0.3,0.6-0.6,1.1-0.9,1.7c-0.8,0.6-1.6,1.1-2.5,1.7
		C199.4,87.1,198.5,85.5,196.7,85.8z"/>
	<path id="Tracé_9410" class="st201" d="M205,89.1c1.7,0.1,1.7,1.3,1.7,2.5C205,91.5,205,90.3,205,89.1z"/>
	<path id="Tracé_9411" class="st200" d="M196.7,85.8c3.1-3.7,2.7,1.2,4.1,1.7c-0.8,1.4-1.9,2.5-3.3,3.3c-1.1-2.6-5.1-1.1-5.8-4.2
		C193.4,86.3,195.3,87.3,196.7,85.8z"/>
	<path id="Tracé_9412" class="st328" d="M195.1,94.1l-2.5,1.7c-1.5-0.7-2.2-1.7-1.7-3.3c1.7,0.7,3.3,0,5,0
		C195.6,93,195.4,93.5,195.1,94.1z"/>
	<path id="Tracé_9413" class="st329" d="M190.9,92.4c0.6,1.1,1.1,2.2,1.7,3.3c-0.8,1.4-1.9,2.5-3.3,3.3l-7.5-6.7
		c1.1-2.8,2.2,1.1,3.3,0c1.4,0.1,2.8,3.1,4.1,0h0.8L190.9,92.4z"/>
	<path id="Tracé_9414" class="st276" d="M189.3,92.4c0,0.9,1.8,1.3,0.8,2.4c-0.8,0.8-1.7,0.4-2.5-0.3c-0.8-0.7-2-1-2.4-2.1
		L189.3,92.4z"/>
	<path id="Tracé_9415" class="st330" d="M163.1,117.4c-0.6,2.4-3.3,1.7-4.6,3.1l-1.5,0.1c-2.5-0.1-5-1.8-7.5,0
		c-0.6-0.3-0.9-1-0.8-1.7c0.4-0.4,0.9-0.7,1.4-0.8c0.4-0.1,0.9,0,1.2-0.3c-0.4,0-0.8,0.2-1.2,0.2c-0.5,0-1.1-0.3-1.4-0.7
		c1.8-0.8,0-4.6,3.4-4.2C155.9,114.1,159.6,115.5,163.1,117.4z"/>
	<path id="Tracé_9416" class="st331" d="M157.8,130.6c-0.5,1.1-1.4,1.9-2.5,2.5c-2.2-1.6-4.3-3.6-6.7-4.8c-2.2-1.1,0.3-1.3,0.1-1.8
		l0,0c0.6-1,1.8-0.2,2.5-0.8C154,126.3,156,128.3,157.8,130.6z"/>
	<path id="Tracé_9417" class="st278" d="M151.1,125.6c-0.6,1-1.6,0.8-2.5,0.8c0-0.5-0.3-1.3-0.1-1.4
		C149.5,124.4,150.3,125.3,151.1,125.6z"/>
	<path id="Tracé_9418" class="st332" d="M142.8,108.2c-0.9-0.9-2-1.8-1.7-3.3c1.8,0.8,3.6,1.4,5.3,2.3c1.6,0.8,3.1,1.7,1.2,3.6
		l-2.3-0.1c-0.9-0.5-1.7-1.1-2.6-1.6L142.8,108.2z"/>
	<path id="Tracé_9419" class="st298" d="M148.6,117.3h3.6c-1,1.7-2.3,1.7-3.6,1.7C148.6,118.9,148.6,117.3,148.6,117.3z"/>
	<path id="Tracé_9420" class="st333" d="M137.9,104c1.2,1,1.8,2.5,1.6,4.1l-0.4,0l-0.4,0c-0.1-1.2-0.6-1.5-1.8-1.1
		c-1.6,0.5-0.7-0.7-0.6-1.3c0.8,0.1,1.6-0.5,1.7-1.4C137.9,104.2,137.9,104.1,137.9,104z"/>
</g>
<rect x="301.5" y="40.2" class="st334" width="459.2" height="119.2"/>
<text transform="matrix(1 0 0 1 330.5384 71.44)" class="st335 st336">En campagne comme à la montagne des rochers </text>
<text transform="matrix(1 0 0 1 330.5384 96.6401)" class="st335 st336">obstrueront la voie : faites preuve d’agilité pour </text>
<text transform="matrix(1 0 0 1 330.5384 121.84)" class="st335 st336">sauter au dessus de ceux-ci.</text>
</svg>
